<svg width="40" height="41" viewBox="0 0 40 41" fill="none" xmlns="http://www.w3.org/2000/svg">
<g clip-path="url(#clip0)">
<g filter="url(#filter0_i)">
<path d="M12.3078 7.80176C9.93405 7.80176 7.19367 8.55296 5.38477 9.82099L1.97131 12.2248C-0.678929 14.0818 -0.660901 16.3114 2.16362 17.1768L25.1925 24.196C28.5879 25.2417 33.5578 24.22 36.1059 22.0325L38.7982 19.8691C41.0939 17.8979 39.9461 14.7008 36.779 13.8595L14.5194 8.04214C13.8523 7.86786 13.1011 7.80176 12.3078 7.80176ZM12.7886 9.82099C13.5699 9.83301 14.3271 9.92916 15.0002 10.1095C16.178 10.428 31.755 14.6046 33.0771 14.9652C36.184 15.8126 37.0194 17.94 34.8078 19.7729C32.5062 21.684 27.8667 22.4772 24.6155 21.5037C23.2333 21.089 8.10112 16.6299 6.87516 16.2633C4.06266 15.428 3.76819 13.3787 6.10593 11.696C7.79463 10.482 10.4389 9.78493 12.7886 9.82099ZM1.87516 18.7152C4.13477 20.6203 3.75617 23.0962 4.56746 25.1095C4.904 25.9508 5.45088 26.6479 6.05785 27.1768C5.7754 27.6335 5.53501 27.8018 5.00016 27.8018C4.44727 27.7957 3.93045 28.0842 3.64799 28.565C3.37155 29.0457 3.37155 29.6347 3.64799 30.1155C3.93045 30.5962 4.44727 30.8847 5.00016 30.8787C6.67684 30.8787 8.01698 29.833 8.70208 28.7152C8.75016 28.6371 8.80424 28.559 8.84631 28.4748L23.9425 32.9941C24.3331 33.1143 24.7538 33.1864 25.1925 33.2345C25.4569 34.4784 26.0218 35.6503 26.9713 36.5998C27.5843 37.2128 28.5699 37.2128 29.1828 36.5998C29.7958 35.9869 29.7958 35.0013 29.1828 34.3883C28.7802 33.9857 28.4977 33.571 28.3175 33.0902C29.7958 32.7897 31.2141 32.1768 32.1636 31.3595L33.5098 30.3018C33.8102 30.9087 34.1588 31.4796 34.6636 31.9845C35.2766 32.5974 36.2622 32.5974 36.8752 31.9845C37.4881 31.3715 37.4881 30.3859 36.8752 29.7729C36.0939 28.9917 35.7694 28.1503 35.7694 26.8883C36.2141 25.482 36.4365 24.0457 37.4521 22.6095C34.3451 25.5782 31.5927 26.1191 28.2694 26.1191C27.0014 26.1191 25.8115 25.9628 24.7598 25.6383L1.87516 18.7152Z" fill="black"/>
<path d="M12.3078 7.80176C9.93405 7.80176 7.19367 8.55296 5.38477 9.82099L1.97131 12.2248C-0.678929 14.0818 -0.660901 16.3114 2.16362 17.1768L25.1925 24.196C28.5879 25.2417 33.5578 24.22 36.1059 22.0325L38.7982 19.8691C41.0939 17.8979 39.9461 14.7008 36.779 13.8595L14.5194 8.04214C13.8523 7.86786 13.1011 7.80176 12.3078 7.80176ZM12.7886 9.82099C13.5699 9.83301 14.3271 9.92916 15.0002 10.1095C16.178 10.428 31.755 14.6046 33.0771 14.9652C36.184 15.8126 37.0194 17.94 34.8078 19.7729C32.5062 21.684 27.8667 22.4772 24.6155 21.5037C23.2333 21.089 8.10112 16.6299 6.87516 16.2633C4.06266 15.428 3.76819 13.3787 6.10593 11.696C7.79463 10.482 10.4389 9.78493 12.7886 9.82099ZM1.87516 18.7152C4.13477 20.6203 3.75617 23.0962 4.56746 25.1095C4.904 25.9508 5.45088 26.6479 6.05785 27.1768C5.7754 27.6335 5.53501 27.8018 5.00016 27.8018C4.44727 27.7957 3.93045 28.0842 3.64799 28.565C3.37155 29.0457 3.37155 29.6347 3.64799 30.1155C3.93045 30.5962 4.44727 30.8847 5.00016 30.8787C6.67684 30.8787 8.01698 29.833 8.70208 28.7152C8.75016 28.6371 8.80424 28.559 8.84631 28.4748L23.9425 32.9941C24.3331 33.1143 24.7538 33.1864 25.1925 33.2345C25.4569 34.4784 26.0218 35.6503 26.9713 36.5998C27.5843 37.2128 28.5699 37.2128 29.1828 36.5998C29.7958 35.9869 29.7958 35.0013 29.1828 34.3883C28.7802 33.9857 28.4977 33.571 28.3175 33.0902C29.7958 32.7897 31.2141 32.1768 32.1636 31.3595L33.5098 30.3018C33.8102 30.9087 34.1588 31.4796 34.6636 31.9845C35.2766 32.5974 36.2622 32.5974 36.8752 31.9845C37.4881 31.3715 37.4881 30.3859 36.8752 29.7729C36.0939 28.9917 35.7694 28.1503 35.7694 26.8883C36.2141 25.482 36.4365 24.0457 37.4521 22.6095C34.3451 25.5782 31.5927 26.1191 28.2694 26.1191C27.0014 26.1191 25.8115 25.9628 24.7598 25.6383L1.87516 18.7152Z" fill="url(#paint0_linear)"/>
</g>
</g>
<defs>
<filter id="filter0_i" x="0.0136719" y="7.80176" width="39.9915" height="29.2578" filterUnits="userSpaceOnUse" color-interpolation-filters="sRGB">
<feFlood flood-opacity="0" result="BackgroundImageFix"/>
<feBlend mode="normal" in="SourceGraphic" in2="BackgroundImageFix" result="shape"/>
<feColorMatrix in="SourceAlpha" type="matrix" values="0 0 0 0 0 0 0 0 0 0 0 0 0 0 0 0 0 0 127 0" result="hardAlpha"/>
<feOffset dy="1"/>
<feComposite in2="hardAlpha" operator="arithmetic" k2="-1" k3="1"/>
<feColorMatrix type="matrix" values="0 0 0 0 0 0 0 0 0 0 0 0 0 0 0 0 0 0 0.25 0"/>
<feBlend mode="normal" in2="shape" result="effect1_innerShadow"/>
</filter>
<linearGradient id="paint0_linear" x1="20.0094" y1="7.80176" x2="20.0094" y2="37.0596" gradientUnits="userSpaceOnUse">
<stop stop-color="#0CA2CC"/>
<stop offset="1" stop-color="#4DC1E2"/>
</linearGradient>
<clipPath id="clip0">
<rect width="40" height="40" fill="white" transform="translate(0 0.109375)"/>
</clipPath>
</defs>
</svg>
