<svg width="22" height="20" viewBox="0 0 22 20" fill="none" xmlns="http://www.w3.org/2000/svg">
<path d="M14.2936 0.1094C13.708 0.105387 13.2 0.590631 13.2 1.20256C13.2 1.6848 13.5198 2.11927 13.9906 2.2382C17.1277 3.0309 19.4891 5.69925 19.7721 8.95061C19.7909 9.16737 19.8 9.38752 19.8 9.60907C19.8 13.1538 17.3368 16.1344 13.9906 16.9799C13.5198 17.0989 13.2 17.5333 13.2 18.0156C13.2 18.7149 13.865 19.2492 14.5492 19.0768C18.8326 17.9977 22 14.162 22 9.60907C22 5.05618 18.8326 1.2204 14.5492 0.141364C14.4637 0.119816 14.3772 0.109973 14.2936 0.1094ZM10.0203 1.33681C9.71055 1.3007 9.38214 1.39443 9.12227 1.65219L4.4 6.33597H2.2C0.9845 6.33597 0 7.31244 0 8.51803V10.7001C0 11.9057 0.9845 12.8822 2.2 12.8822H4.4L9.12227 17.5659C9.81527 18.2533 11 17.7667 11 16.7946V2.42359C11 1.81602 10.5366 1.397 10.0203 1.33681ZM14.257 4.7399C13.7026 4.76077 13.2 5.22149 13.2 5.8352V5.86077C13.2 6.24481 13.4037 6.60225 13.7436 6.78772C14.7556 7.34088 15.4 8.39584 15.4 9.60907C15.4 10.8223 14.7556 11.8762 13.7436 12.4283C13.4037 12.6138 13.2 12.9733 13.2 13.3574V13.3808C13.2 14.2002 14.0963 14.7488 14.8135 14.3419C16.4855 13.3937 17.6 11.6308 17.6 9.60907C17.6 7.58738 16.4855 5.82548 14.8135 4.87628C14.6342 4.77482 14.4418 4.73295 14.257 4.7399Z" fill="white"/>
</svg>
