<svg width="1501" height="1025" viewBox="0 0 1501 1025" fill="none" xmlns="http://www.w3.org/2000/svg">
<g opacity="0.5">
<path opacity="0.1" d="M1261.43 -141.691C1143.79 -141.691 1048.21 -46.0136 1048.21 70.253C1048.21 190.153 1126.63 268.875 1252.85 268.875H1261.43V403.309C1396.23 283.409 1472.21 188.942 1472.21 77.5197C1472.21 -46.0136 1379.07 -141.691 1261.43 -141.691Z" fill="#1B1049"/>
<path opacity="0.1" d="M1426 461.309C1349.43 461.309 1287.21 523.631 1287.21 599.364C1287.21 677.464 1338.26 728.742 1420.42 728.742H1426V816.309C1513.75 738.209 1563.21 676.675 1563.21 604.097C1563.21 523.631 1502.58 461.309 1426 461.309Z" fill="#1B1049"/>
<path opacity="0.1" d="M1209.14 772.309C1155.66 772.309 1112.21 815.87 1112.21 868.806C1112.21 923.396 1147.86 959.237 1205.24 959.237H1209.14V1020.44C1270.43 965.854 1304.97 922.844 1304.97 872.114C1304.97 815.87 1262.63 772.309 1209.14 772.309Z" fill="#1B1049"/>
<path opacity="0.1" d="M76.9352 233.309C-40.9838 233.309 -136.793 329.337 -136.793 446.031C-136.793 566.371 -58.1805 645.382 68.3368 645.382H76.9352V780.309C212.051 659.969 288.207 565.155 288.207 453.324C288.207 329.337 194.854 233.309 76.9352 233.309Z" fill="#1B1049"/>
<path opacity="0.1" d="M332.421 -60.6914C263.889 -60.6914 208.207 -5.0403 208.207 62.5864C208.207 132.326 253.895 178.115 327.424 178.115H332.421V256.309C410.947 186.569 455.207 131.622 455.207 66.813C455.207 -5.04029 400.953 -60.6914 332.421 -60.6914Z" fill="#1B1049"/>
<path opacity="0.1" d="M252.328 772.309C192.675 772.309 144.207 820.762 144.207 879.642C144.207 940.362 183.976 980.229 247.979 980.229H252.328V1048.31C320.681 987.589 359.207 939.749 359.207 883.322C359.207 820.762 311.982 772.309 252.328 772.309Z" fill="#1B1049"/>
</g>
</svg>
