<svg width="33" height="33" viewBox="0 0 33 33" fill="none" xmlns="http://www.w3.org/2000/svg">
    <path d="M4.71985 5.97632C3.33152 5.97632 2.20703 7.07236 2.20703 8.42557C2.20703 13.7013 2.20703 17.9176 2.20703 23.1211C2.20703 24.4743 3.33152 25.5703 4.71985 25.5703H13.2621L16.7957 28.9763L20.3294 25.5703H27.6942C29.0825 25.5703 30.207 24.4743 30.207 23.1211V8.42557C30.207 7.07236 29.0813 5.97632 27.6942 5.97632H4.71985ZM7.41216 12.0994H25.0019C25.6967 12.0994 26.2583 12.6481 26.2583 13.3241C26.2583 14.0001 25.6967 14.5487 25.0019 14.5487H7.41216C6.71736 14.5487 6.15575 14.0001 6.15575 13.3241C6.15575 12.6481 6.71736 12.0994 7.41216 12.0994ZM7.41216 16.998H17.4634C18.1582 16.998 18.7199 17.5466 18.7199 18.2226C18.7199 18.8986 18.1582 19.4472 17.4634 19.4472H7.41216C6.71736 19.4472 6.15575 18.8986 6.15575 18.2226C6.15575 17.5466 6.71736 16.998 7.41216 16.998Z" fill="#543C94"/>
</svg>
