<svg width="33" height="33" viewBox="0 0 33 33" fill="none" xmlns="http://www.w3.org/2000/svg">
    <path d="M26.4564 3.64297L11.7897 5.64297C10.4564 5.77839 9.53971 6.9763 9.53971 8.30964V22.018C8.92513 21.9086 8.25846 21.9086 7.53971 22.0596C5.00846 22.7263 2.87305 24.9607 2.87305 27.2263C2.87305 29.4919 5.00846 30.8513 7.53971 30.1846C10.071 29.518 12.2064 27.2419 12.2064 24.9763V13.518L26.873 11.5596V20.6013C26.2585 20.4919 25.5918 20.5388 24.873 20.7263C22.3418 21.393 20.2064 23.6273 20.2064 25.893C20.2064 28.1586 22.3418 29.518 24.873 28.8513C27.4043 28.1846 29.5397 25.9086 29.5397 23.643V6.30964C29.5397 4.71068 28.0553 3.50755 26.4564 3.64297Z" fill="#543C94"/>
</svg>
