<svg width="33" height="33" viewBox="0 0 33 33" fill="none" xmlns="http://www.w3.org/2000/svg">
    <path d="M15.2598 8.16607C15.2598 7.32757 14.2899 6.86139 13.6351 7.38521L7.72664 12.112C7.54932 12.2539 7.32901 12.3311 7.10194 12.3311H2.20703C1.65475 12.3311 1.20703 12.7789 1.20703 13.3311V20.6997C1.20703 21.252 1.65475 21.6997 2.20703 21.6997H7.10194C7.32901 21.6997 7.54932 21.777 7.72664 21.9188L13.6351 26.6456C14.2899 27.1694 15.2598 26.7032 15.2598 25.8647V8.16607Z" fill="#543C94"/>
    <path d="M25.8595 5.97632C28.7867 8.90442 30.4311 12.8752 30.4311 17.0156C30.4311 21.1559 28.7867 25.1267 25.8595 28.0548M20.3477 11.4881C21.8113 12.9522 22.6335 14.9376 22.6335 17.0078C22.6335 19.0779 21.8113 21.0633 20.3477 22.5274" stroke="#543C94" stroke-width="3" stroke-linecap="round" stroke-linejoin="round"/>
</svg>
