<svg width="50" height="50" viewBox="0 0 50 50" fill="none" xmlns="http://www.w3.org/2000/svg">
<g clip-path="url(#clip0)">
<path opacity="0.5" d="M9.84289 33.3416C11.4623 22.9574 8.72008 18.2028 9.20962 18.1078C9.69915 18.0127 12.8529 17.3612 13.9777 20.8181C14.5391 22.5289 14.5459 28.0413 15.6586 28.5714C16.7712 29.1016 18.7641 25.2561 19.7225 23.3899C20.6795 21.5291 26.7058 9.59948 29.6096 9.53783C31.7044 9.49336 31.7885 12.2491 30.2258 14.7887C28.6576 17.3268 25.7812 21.968 24.9764 24.2873C24.1717 26.6065 23.9983 27.0183 23.9983 27.0183C23.9983 27.0183 33.0042 13.8916 35.0932 11.8469C37.1876 9.80361 38.8579 10.1771 38.6815 11.9687C38.5091 13.767 37.3574 15.8411 35.1892 18.9725C33.0209 22.1039 28.5389 29.2732 28.5389 29.2732C28.5389 29.2732 34.2693 22.7196 38.6011 19.2603C39.9642 18.1718 42.1236 17.2641 42.441 18.5382C42.757 19.8178 40.2147 23.1382 38.0824 25.1945C35.9541 27.2577 31.5827 32.8383 31.5827 32.8383C31.5827 32.8383 38.2354 26.8261 40.9192 26.3677C43.603 25.9093 44.7163 27.848 40.9604 30.4902C37.2098 33.1338 35.4351 35.0531 33.8057 37.1572C32.1763 39.2612 31.705 41.2123 29.3294 45.1177C26.4209 49.9115 19.3986 51.1569 15.2097 48.9251C10.3428 46.3322 8.83216 39.8513 9.84289 33.3416Z" fill="#FBFCFF"/>
</g>
<defs>
<clipPath id="clip0">
<rect width="50" height="50" fill="white"/>
</clipPath>
</defs>
</svg>
