<svg width="1500" height="976" viewBox="0 0 1500 976" fill="none" xmlns="http://www.w3.org/2000/svg">
<g opacity="0.8">
<path opacity="0.05" d="M1098.66 26C1035.4 26 984 77.6133 984 140.333C984 205.013 1026.17 247.48 1094.05 247.48H1098.66V320C1171.14 255.32 1212 204.36 1212 144.253C1212 77.6133 1161.92 26 1098.66 26Z" fill="#FBFCFF"/>
<path opacity="0.05" d="M1435.83 187C1356.47 187 1292 251.604 1292 330.111C1292 411.071 1344.9 464.227 1430.04 464.227H1435.83V555C1526.75 474.04 1578 410.253 1578 335.018C1578 251.604 1515.18 187 1435.83 187Z" fill="#FBFCFF"/>
<path opacity="0.05" d="M1164.49 671C1117.87 671 1080 708.92 1080 755C1080 802.52 1111.08 833.72 1161.09 833.72H1164.49V887C1217.9 839.48 1248 802.04 1248 757.88C1248 708.92 1211.1 671 1164.49 671Z" fill="#FBFCFF"/>
<path opacity="0.05" d="M386.197 296C367.329 296 352 311.273 352 329.833C352 348.973 364.578 361.54 384.821 361.54H386.197V383C407.815 363.86 420 348.78 420 330.993C420 311.273 405.064 296 386.197 296Z" fill="#FBFCFF"/>
<path opacity="0.05" d="M233.006 0C184.451 0 145 39.5 145 87.5C145 137 177.37 169.5 229.465 169.5H233.006V225C288.642 175.5 320 136.5 320 90.5C320 39.5 281.561 0 233.006 0Z" fill="#FBFCFF"/>
<path opacity="0.05" d="M35.2716 296C-38.8093 296 -99 356.216 -99 429.389C-99 504.849 -49.6129 554.393 29.8698 554.393H35.2716V639C120.156 563.54 168 504.087 168 433.962C168 356.216 109.353 296 35.2716 296Z" fill="#FBFCFF"/>
<path opacity="0.05" d="M238.272 692C164.191 692 104 752.216 104 825.389C104 900.849 153.387 950.393 232.87 950.393H238.272V1035C323.156 959.54 371 900.087 371 829.962C371 752.216 312.353 692 238.272 692Z" fill="#FBFCFF"/>
<path opacity="0.05" d="M248.734 515C226.26 515 208 533.433 208 555.833C208 578.933 222.983 594.1 247.095 594.1H248.734V620C274.486 596.9 289 578.7 289 557.233C289 533.433 271.208 515 248.734 515Z" fill="#FBFCFF"/>
<path opacity="0.05" d="M11.7341 102C-10.7399 102 -29 120.433 -29 142.833C-29 165.933 -14.0174 181.1 10.0953 181.1H11.7341V207C37.4855 183.9 52 165.7 52 144.233C52 120.433 34.2081 102 11.7341 102Z" fill="#FBFCFF"/>
<path opacity="0.05" d="M1469.28 800C1394.64 800 1334 860.918 1334 934.944C1334 1011.28 1383.76 1061.41 1463.84 1061.41H1469.28V1147C1554.8 1070.66 1603 1010.51 1603 939.571C1603 860.918 1543.91 800 1469.28 800Z" fill="#FBFCFF"/>
<path opacity="0.05" d="M1244.73 491C1222.26 491 1204 509.433 1204 531.833C1204 554.933 1218.98 570.1 1243.1 570.1H1244.73V596C1270.49 572.9 1285 554.7 1285 533.233C1285 509.433 1267.21 491 1244.73 491Z" fill="#FBFCFF"/>
<g opacity="0.34">
<g opacity="0.3" filter="url(#filter0_i)">
<path d="M1399.53 727.966L1328 712.875L1340 656L1352.03 658.538L1342.15 705.376L1359.83 709.107L1369.71 662.269L1381.82 664.823L1371.94 711.661L1389.62 715.392L1399.5 668.554L1411.53 671.091L1399.53 727.966Z" fill="url(#paint0_linear)"/>
</g>
<g opacity="0.2" filter="url(#filter1_i)">
<path d="M872.234 72.6448C873.576 72.7723 874.684 73.365 875.558 74.423C876.491 75.4324 876.892 76.6348 876.759 78.0303L872.329 124.646C872.196 126.041 871.627 127.179 870.623 128.058C869.624 128.884 868.373 129.226 866.87 129.083C865.367 128.94 864.176 128.366 863.297 127.362C862.471 126.363 862.127 125.139 862.265 123.689L865.348 91.2437L850.136 110.27C849.538 110.863 848.87 111.341 848.131 111.704C847.398 112.013 846.658 112.106 845.911 111.98C845.209 111.968 844.526 111.74 843.864 111.298C843.207 110.803 842.641 110.207 842.165 109.512L830.878 87.2364L827.726 120.407C827.588 121.856 827.046 122.996 826.101 123.827C825.155 124.658 823.985 125.007 822.589 124.874C821.247 124.747 820.191 124.186 819.418 123.192C818.651 122.144 818.334 120.922 818.467 119.527L822.897 72.9111C823.025 71.5693 823.618 70.4612 824.676 69.5869C825.787 68.7177 827.041 68.3494 828.436 68.4821C829.242 68.5586 830.026 68.8498 830.791 69.3557C831.56 69.808 832.129 70.3765 832.497 71.0614L847.485 99.7006L868.083 74.4436C868.573 73.8403 869.185 73.384 869.919 73.0746C870.711 72.7166 871.483 72.5733 872.234 72.6448Z" fill="url(#paint1_linear)"/>
</g>
<g opacity="0.3" filter="url(#filter2_i)">
<path d="M1067.6 935.363C1067.63 936.243 1067.52 937.012 1067.29 937.669C1066.75 939.222 1065.79 940.327 1064.42 940.987C1063.07 941.587 1061.74 941.657 1060.43 941.196C1059.35 940.82 1058.48 940.146 1057.82 939.176C1057.21 938.226 1056.87 937.1 1056.79 935.798L1055.93 923.329L1029.24 913.978L1020.75 923.274C1019.93 924.262 1018.96 924.928 1017.84 925.271C1016.79 925.575 1015.76 925.549 1014.75 925.194C1013.19 924.65 1012.15 923.813 1011.6 922.685C1011.12 921.577 1011.13 920.306 1011.63 918.873C1011.82 918.336 1012.11 917.8 1012.5 917.266L1053.56 871.517C1054.46 870.491 1055.5 869.816 1056.69 869.494C1057.87 869.172 1059.04 869.28 1060.19 869.817C1061.27 870.194 1062.14 870.867 1062.8 871.838C1063.55 872.77 1063.93 873.876 1063.95 875.157L1067.6 935.363ZM1055.15 911.491L1053.44 887.363L1037.23 905.216L1055.15 911.491Z" fill="url(#paint2_linear)"/>
</g>
<g opacity="0.3" filter="url(#filter3_i)">
<path d="M222.894 319.226C223.552 316.705 224.161 313.956 224.86 311.069L235.842 312.317C235.256 315.514 234.647 318.263 234.096 320.499L222.894 319.226ZM216.879 310.162C216.18 313.049 215.498 315.79 214.84 318.311L204.37 317.121C205.036 314.527 205.792 311.794 206.555 308.989L216.879 310.162ZM220.197 294.668C219.686 297.206 219.167 299.817 218.575 302.419L208.544 301.279C209.21 298.685 209.802 296.083 210.459 293.562L220.197 294.668ZM226.629 303.335C227.221 300.732 227.74 298.121 228.251 295.584L238.575 296.757C238.112 299.523 237.666 302.142 237.245 304.541L226.629 303.335ZM254.732 314.464L255.622 306.63L245.885 305.523C246.504 302.034 247.083 298.243 247.793 293.948C247.918 292.85 248.299 290.149 248.299 290.149L204.516 285.173C205.943 283.704 207.38 282.161 208.669 280.602L254.723 285.836L255.605 278.075L214.164 273.366C215.234 271.781 216.239 270.116 217.244 268.45L208.047 265.847C204.466 272.56 198.482 280.186 189.997 285.674C192.077 286.949 195.162 289.821 196.621 291.989C198.969 290.253 201.188 288.355 203.186 286.431C202.239 290.848 201.113 295.54 199.904 300.297L187.824 298.924L186.933 306.759L197.843 307.999C195.921 315.122 193.975 321.798 192.269 327.018L200.989 328.603C201.35 327.383 201.801 326.025 202.187 324.586L231.84 327.956C231.414 329.094 230.883 329.849 230.467 330.247C229.545 331.181 228.853 331.399 227.535 331.249C225.851 331.057 222.931 330.651 219.458 329.886C220.348 331.841 220.91 334.723 220.776 336.562C224.631 337.223 228.503 337.737 230.888 337.637C233.565 337.57 235.617 337.136 237.649 334.92C238.661 333.848 239.609 332.028 240.699 328.963L251.023 330.136L251.888 322.521L242.736 321.481C243.222 319.163 243.831 316.414 244.409 313.291L254.732 314.464Z" fill="url(#paint3_linear)"/>
</g>
<g opacity="0.3" filter="url(#filter4_i)">
<path d="M364.881 78.9063L360.076 101.681C357.772 112.604 354.564 123.545 345.201 130.56C346.988 132.25 349.607 135.569 350.753 137.678C361.667 129.539 365.496 116.309 368.205 103.465L373.024 80.6243L364.881 78.9063ZM384.473 86.0132L374.081 135.269L382.158 136.973L392.55 87.7173L384.473 86.0132ZM405.228 87.2802L392.894 145.739L401.236 147.499L413.569 89.0401L405.228 87.2802Z" fill="url(#paint4_linear)"/>
</g>
<g opacity="0.3" filter="url(#filter5_i)">
<path d="M816.806 416.228C816.262 415.826 815.942 415.309 815.848 414.678C815.753 414.046 815.907 413.458 816.31 412.914L816.586 412.54C817.257 411.633 818.297 411.437 819.706 411.952C820.599 412.262 821.338 412.212 821.922 411.801C822.512 411.431 823.159 410.769 823.864 409.816L835.161 394.54C835.597 393.95 836.151 393.605 836.822 393.504C837.509 393.381 838.148 393.538 838.738 393.974C839.327 394.41 839.664 394.975 839.748 395.668C839.848 396.339 839.68 396.969 839.244 397.559L827.066 414.027C826.127 415.297 825.055 416.224 823.852 416.807C822.671 417.408 821.456 417.65 820.209 417.534C818.984 417.435 817.849 417 816.806 416.228ZM840.305 391.712C839.534 391.142 839.082 390.614 838.949 390.13C838.816 389.646 838.984 389.086 839.454 388.451L839.932 387.804C840.401 387.169 840.899 386.853 841.423 386.855C841.948 386.857 842.585 387.135 843.333 387.688C844.127 388.275 844.591 388.811 844.724 389.296C844.857 389.78 844.688 390.34 844.219 390.975L843.741 391.621C843.254 392.279 842.749 392.607 842.224 392.605C841.738 392.597 841.099 392.299 840.305 391.712Z" fill="url(#paint5_linear)"/>
<path d="M859.859 409.068C860.449 409.504 860.794 410.057 860.894 410.728C860.995 411.399 860.819 412.04 860.366 412.653L849.722 427.045C849.286 427.635 848.724 427.991 848.037 428.114C847.366 428.215 846.736 428.047 846.146 427.611C845.556 427.174 845.211 426.621 845.111 425.95C845.033 425.296 845.201 424.666 845.614 424.059C844.561 424.298 843.37 424.295 842.043 424.05C840.754 423.799 839.577 423.279 838.511 422.491C836.946 421.333 835.822 419.888 835.139 418.155C834.473 416.399 834.293 414.529 834.602 412.547C834.933 410.581 835.769 408.691 837.111 406.876C838.453 405.062 840.015 403.708 841.798 402.816C843.597 401.901 845.414 401.508 847.249 401.637C849.123 401.76 850.82 402.383 852.34 403.507C853.429 404.312 854.298 405.271 854.949 406.384C855.617 407.474 856.053 408.568 856.258 409.667L856.283 409.633C856.719 409.044 857.272 408.698 857.943 408.598C858.631 408.475 859.269 408.631 859.859 409.068ZM841.789 419.126C843.264 420.216 844.86 420.572 846.578 420.194C848.314 419.793 849.785 418.775 850.993 417.142C852.201 415.509 852.742 413.804 852.617 412.028C852.492 410.251 851.693 408.818 850.218 407.728C848.767 406.654 847.173 406.318 845.438 406.719C843.703 407.12 842.232 408.137 841.024 409.77C839.816 411.403 839.263 413.1 839.365 414.859C839.507 416.613 840.315 418.035 841.789 419.126ZM853.887 403.336C853.207 402.832 852.698 402.193 852.36 401.416C852.021 400.64 851.881 399.834 851.937 398.998C851.993 398.163 852.265 397.416 852.751 396.759C853.523 395.715 854.563 395.116 855.871 394.96C857.196 394.782 858.38 395.079 859.423 395.85C860.466 396.622 861.097 397.667 861.315 398.986C861.549 400.282 861.28 401.452 860.509 402.495C860.022 403.153 859.388 403.631 858.606 403.93C857.823 404.229 857.012 404.33 856.17 404.234C855.329 404.138 854.568 403.839 853.887 403.336ZM855.649 400.954C856.08 401.273 856.524 401.408 856.98 401.36C857.46 401.328 857.842 401.12 858.127 400.734C858.463 400.28 858.567 399.831 858.44 399.386C858.329 398.919 858.07 398.534 857.662 398.232C857.231 397.913 856.776 397.77 856.296 397.801C855.839 397.849 855.452 398.089 855.133 398.52C854.848 398.906 854.749 399.324 854.837 399.775C854.947 400.242 855.218 400.635 855.649 400.954Z" fill="url(#paint6_linear)"/>
<path d="M885.283 417.607C885.873 418.043 886.218 418.596 886.319 419.267C886.419 419.938 886.243 420.579 885.79 421.192L870.24 442.218C869.804 442.808 869.242 443.165 868.555 443.288C867.884 443.388 867.254 443.22 866.664 442.784C866.074 442.348 865.729 441.795 865.629 441.124C865.551 440.47 865.719 439.84 866.132 439.233C865.079 439.471 863.888 439.468 862.56 439.223C861.272 438.972 860.095 438.453 859.029 437.664C857.464 436.507 856.34 435.062 855.657 433.328C854.99 431.572 854.811 429.703 855.12 427.721C855.451 425.755 856.287 423.865 857.629 422.05C858.971 420.235 860.533 418.882 862.316 417.99C864.115 417.075 865.932 416.682 867.767 416.81C869.641 416.933 871.338 417.557 872.858 418.68C873.946 419.486 874.816 420.445 875.467 421.557C876.134 422.648 876.571 423.742 876.776 424.841L881.707 418.172C882.143 417.583 882.697 417.237 883.368 417.137C884.055 417.014 884.694 417.17 885.283 417.607ZM862.307 434.299C863.782 435.389 865.378 435.745 867.096 435.367C868.832 434.966 870.303 433.949 871.511 432.316C872.718 430.683 873.26 428.978 873.135 427.201C873.01 425.425 872.211 423.992 870.736 422.901C869.285 421.828 867.691 421.491 865.956 421.892C864.221 422.293 862.75 423.31 861.542 424.944C860.334 426.577 859.781 428.273 859.883 430.033C860.025 431.787 860.833 433.209 862.307 434.299Z" fill="url(#paint7_linear)"/>
</g>
<g opacity="0.3" filter="url(#filter6_i)">
<path d="M476.876 586.216C477.277 587.532 477.134 588.767 476.445 589.919C475.757 591.072 474.764 591.876 473.466 592.331L446.708 601.723C448.476 604.685 450.845 606.677 453.814 607.699C456.765 608.667 459.7 608.639 462.619 607.614C464.835 606.836 466.499 606.04 467.609 605.225C468.701 604.356 469.522 603.582 470.073 602.903C470.659 602.151 471.059 601.646 471.272 601.389C472.075 600.561 472.908 599.995 473.773 599.692C474.908 599.293 476.024 599.357 477.119 599.883C478.215 600.41 478.952 601.213 479.332 602.294C479.844 603.754 479.552 605.344 478.456 607.065C477.379 608.839 475.721 610.605 473.484 612.362C471.247 614.119 468.831 615.452 466.236 616.363C462.398 617.71 458.701 618.249 455.146 617.979C451.625 617.636 448.419 616.545 445.527 614.707C444.572 617.349 442.947 619.984 440.651 622.611C438.409 625.22 435.585 627.122 432.18 628.317C429.585 629.228 426.927 629.614 424.207 629.476C421.541 629.319 419.1 628.506 416.885 627.037C414.723 625.549 413.13 623.346 412.105 620.426C408.842 611.128 413.021 604.44 424.644 600.36L434.212 597.002L433.5 594.974C431.907 590.434 428.217 589.178 422.433 591.208C419.838 592.119 417.946 593.3 416.754 594.75C415.544 596.146 414.478 598.039 413.556 600.427C412.927 601.923 411.91 602.917 410.504 603.41C409.423 603.79 408.327 603.78 407.215 603.381C406.139 602.909 405.401 602.105 405.003 600.97C404.566 599.726 404.556 598.485 404.971 597.247C407.66 589.685 412.518 584.67 419.546 582.203C422.681 581.103 425.789 580.528 428.868 580.48C431.983 580.358 434.665 580.995 436.916 582.391C438.163 579.889 439.815 577.761 441.871 576.007C443.908 574.199 446.223 572.839 448.818 571.929C452.386 570.676 456.079 570.473 459.898 571.319C463.77 572.145 467.231 573.875 470.281 576.509C473.33 579.142 475.529 582.378 476.876 586.216ZM451.949 580.848C445.678 583.049 443.009 587.295 443.942 593.586L465.187 586.129L464.988 585.562C463.975 583.367 462.184 581.81 459.614 580.89C457.045 579.97 454.49 579.957 451.949 580.848ZM439.288 608.608C438.546 607.533 437.857 606.348 437.22 605.053L426.517 608.81C423.922 609.721 422.328 610.888 421.734 612.311C421.195 613.714 421.21 615.227 421.779 616.849C422.329 618.417 423.314 619.407 424.734 619.819C426.189 620.158 427.754 620.034 429.43 619.446C432.62 618.326 434.96 616.776 436.45 614.796C437.995 612.796 438.941 610.734 439.288 608.608Z" fill="url(#paint8_linear)"/>
</g>
<g opacity="0.3" filter="url(#filter7_i)">
<path d="M576.935 184.494C577.935 185.006 578.604 185.742 578.941 186.703C579.278 187.664 579.177 188.606 578.638 189.529C578.137 190.439 577.464 191.042 576.619 191.338C575.619 191.689 574.639 191.602 573.677 191.076L559.457 183.765L557.543 187.351L559.668 193.404C560.018 194.403 559.988 195.363 559.578 196.284C559.154 197.166 558.442 197.783 557.443 198.134C556.444 198.485 555.503 198.448 554.62 198.024C553.724 197.562 553.101 196.831 552.75 195.832L540.246 160.207C539.895 159.208 539.932 158.267 540.356 157.384C540.766 156.463 541.471 155.828 542.47 155.477C543.47 155.126 544.417 155.182 545.313 155.644C546.196 156.068 546.813 156.78 547.163 157.779L554.65 179.108L562.797 162.845C563.271 161.859 563.988 161.197 564.949 160.86C565.795 160.563 566.672 160.665 567.582 161.166C568.516 161.615 569.112 162.204 569.368 162.935C569.692 163.857 569.534 164.883 568.895 166.014L563.003 177.082L576.935 184.494Z" fill="url(#paint9_linear)"/>
<path d="M598.782 148.337C599.781 147.986 600.722 148.023 601.605 148.447C602.487 148.871 603.111 149.602 603.475 150.639L612.034 175.023C612.384 176.022 612.354 176.982 611.944 177.903C611.52 178.786 610.808 179.402 609.809 179.753C608.81 180.104 607.869 180.067 606.986 179.643C606.142 179.206 605.526 178.494 605.136 177.509C604.567 178.96 603.598 180.38 602.228 181.767C600.884 183.102 599.309 184.086 597.503 184.72C594.851 185.651 592.213 185.822 589.589 185.232C586.951 184.604 584.573 183.302 582.455 181.326C580.376 179.336 578.797 176.805 577.717 173.73C576.638 170.656 576.289 167.692 576.669 164.84C577.035 161.948 578.039 159.459 579.681 157.372C581.347 155.234 583.468 153.712 586.042 152.808C587.887 152.161 589.738 151.9 591.595 152.025C593.438 152.112 595.099 152.478 596.578 153.125L596.558 153.067C596.207 152.068 596.243 151.127 596.667 150.245C597.078 149.323 597.783 148.688 598.782 148.337ZM596.142 178.076C598.64 177.199 600.359 175.581 601.301 173.222C602.229 170.824 602.208 168.242 601.236 165.475C600.265 162.708 598.668 160.679 596.445 159.387C594.222 158.096 591.861 157.888 589.363 158.765C586.904 159.628 585.21 161.259 584.282 163.656C583.354 166.054 583.375 168.636 584.347 171.403C585.318 174.17 586.896 176.206 589.08 177.511C591.29 178.764 593.644 178.953 596.142 178.076ZM587.093 150.821C585.94 151.226 584.763 151.315 583.561 151.089C582.36 150.864 581.283 150.378 580.331 149.633C579.379 148.889 578.707 147.959 578.316 146.844C577.696 145.077 577.823 143.349 578.698 141.66C579.559 139.933 580.874 138.76 582.642 138.139C584.409 137.519 586.169 137.613 587.921 138.423C589.659 139.194 590.839 140.463 591.459 142.231C591.85 143.346 591.907 144.491 591.629 145.668C591.352 146.844 590.815 147.896 590.018 148.823C589.221 149.75 588.246 150.416 587.093 150.821ZM585.677 146.786C586.407 146.53 586.928 146.109 587.241 145.525C587.592 144.927 587.653 144.301 587.424 143.648C587.154 142.879 586.702 142.39 586.068 142.181C585.42 141.934 584.75 141.932 584.058 142.174C583.328 142.431 582.787 142.858 582.436 143.456C582.123 144.041 582.095 144.698 582.351 145.428C582.581 146.081 583 146.538 583.61 146.799C584.257 147.047 584.947 147.042 585.677 146.786Z" fill="url(#paint10_linear)"/>
</g>
<g opacity="0.3" filter="url(#filter8_i)">
<path d="M676.003 332.223C677.346 331.406 678.722 331.17 680.134 331.513C681.546 331.857 682.675 332.726 683.523 334.119L703.454 366.874C704.27 368.216 704.523 369.619 704.21 371.082C703.867 372.494 703.024 373.608 701.682 374.425C700.34 375.241 698.963 375.478 697.551 375.134C696.191 374.759 695.077 373.916 694.209 372.606C693.829 374.888 692.859 377.247 691.299 379.681C689.759 382.033 687.776 383.947 685.35 385.423C681.788 387.591 678.011 388.65 674.021 388.603C670 388.503 666.147 387.346 662.465 385.13C658.834 382.883 655.762 379.694 653.249 375.565C650.737 371.435 649.317 367.241 648.99 362.984C648.631 358.675 649.322 354.753 651.062 351.219C652.822 347.601 655.432 344.74 658.89 342.636C661.368 341.128 663.974 340.179 666.707 339.789C669.41 339.347 671.933 339.368 674.278 339.851L674.231 339.773C673.415 338.431 673.178 337.054 673.522 335.643C673.834 334.18 674.661 333.04 676.003 332.223ZM681.328 376.199C684.684 374.157 686.682 371.279 687.322 367.565C687.931 363.799 687.104 360.058 684.843 356.341C682.581 352.624 679.638 350.171 676.014 348.981C672.39 347.791 668.9 348.217 665.544 350.258C662.24 352.269 660.284 355.157 659.675 358.922C659.066 362.688 659.893 366.429 662.154 370.146C664.416 373.863 667.333 376.332 670.906 377.554C674.499 378.692 677.973 378.24 681.328 376.199ZM650.336 342.005C648.736 342.978 647.402 343.401 646.334 343.273C645.234 343.093 644.26 342.307 643.412 340.913L642.564 339.519C641.716 338.125 641.48 336.924 641.858 335.917C642.255 334.826 643.228 333.81 644.777 332.867C646.635 331.737 648.098 331.235 649.167 331.363C650.235 331.491 651.209 332.278 652.088 333.724L652.936 335.118C653.847 336.615 654.088 337.883 653.66 338.922C653.251 339.878 652.143 340.905 650.336 342.005ZM665.746 332.629C664.146 333.602 662.811 334.025 661.743 333.897C660.643 333.717 659.67 332.93 658.821 331.537L657.973 330.143C657.094 328.697 656.869 327.455 657.297 326.416C657.726 325.377 658.741 324.371 660.341 323.397C662.045 322.36 663.446 321.932 664.546 322.112C665.666 322.208 666.65 322.954 667.498 324.348L668.346 325.741C669.257 327.238 669.498 328.506 669.069 329.545C668.66 330.501 667.553 331.529 665.746 332.629Z" fill="url(#paint11_linear)"/>
</g>
<g opacity="0.3" filter="url(#filter9_i)">
<path d="M1329.73 144.798C1331.65 150.273 1332.2 155.733 1331.39 161.179C1330.55 166.569 1328.44 171.35 1325.06 175.522C1321.73 179.673 1317.39 182.693 1312.02 184.579C1306.66 186.465 1301.35 186.84 1296.11 185.702C1290.92 184.545 1286.31 182.127 1282.28 178.448C1278.29 174.694 1275.33 170.08 1273.4 164.605C1271.48 159.13 1270.91 153.707 1271.69 148.337C1272.51 142.891 1274.58 138.092 1277.9 133.94C1281.28 129.769 1285.66 126.74 1291.02 124.854C1296.39 122.967 1301.66 122.603 1306.86 123.76C1312.1 124.897 1316.75 127.333 1320.8 131.068C1324.82 134.747 1327.8 139.324 1329.73 144.798ZM1318.94 148.591C1317.64 144.885 1315.72 141.802 1313.17 139.341C1310.61 136.824 1307.69 135.148 1304.41 134.312C1301.14 133.476 1297.84 133.641 1294.52 134.808C1291.15 135.994 1288.45 137.939 1286.41 140.642C1284.42 143.27 1283.21 146.368 1282.78 149.934C1282.42 153.482 1282.88 157.108 1284.19 160.813C1285.49 164.518 1287.39 167.639 1289.9 170.175C1292.46 172.691 1295.36 174.377 1298.58 175.233C1301.83 176.014 1305.15 175.811 1308.52 174.625C1311.84 173.458 1314.52 171.523 1316.55 168.82C1318.58 166.117 1319.82 163.01 1320.26 159.498C1320.69 155.932 1320.25 152.296 1318.94 148.591ZM1281.27 123.623C1279.5 124.245 1278.12 124.389 1277.13 124.053C1276.12 123.661 1275.36 122.719 1274.83 121.226L1274.31 119.733C1273.76 118.184 1273.8 116.96 1274.41 116.06C1275.03 115.16 1276.19 114.409 1277.91 113.806C1279.73 113.164 1281.15 113.039 1282.16 113.43C1283.2 113.747 1283.98 114.652 1284.51 116.145L1285.04 117.638C1285.58 119.186 1285.54 120.411 1284.93 121.311C1284.37 122.191 1283.15 122.962 1281.27 123.623ZM1297.77 117.818C1296.01 118.441 1294.63 118.584 1293.64 118.248C1292.63 117.856 1291.86 116.914 1291.34 115.421L1290.81 113.928C1290.27 112.379 1290.28 111.165 1290.84 110.284C1291.45 109.384 1292.62 108.633 1294.33 108.03C1296.21 107.369 1297.65 107.206 1298.64 107.542C1299.68 107.859 1300.47 108.791 1301.02 110.34L1301.54 111.833C1302.09 113.381 1302.05 114.606 1301.44 115.506C1300.88 116.386 1299.66 117.157 1297.77 117.818Z" fill="url(#paint12_linear)"/>
</g>
<g opacity="0.3" filter="url(#filter10_i)">
<path d="M1099.05 416.207C1099.59 415.8 1100.08 415.833 1100.54 416.307C1102.16 418.18 1103.36 420.398 1104.14 422.961C1104.31 423.687 1104.12 424.306 1103.56 424.82L1096.66 430.58C1095.97 431.07 1095.49 430.931 1095.23 430.161C1094.94 429.424 1093.8 427.153 1091.79 423.35C1091.47 422.708 1091.62 422.13 1092.26 421.618L1099.05 416.207ZM1098.38 397.996C1092.11 399.484 1086.97 402.258 1082.94 406.319C1078.9 410.411 1076.17 414.825 1074.74 419.559C1071.66 429.769 1074.02 438.001 1081.8 444.255C1088.32 449.481 1098.26 453.898 1111.6 457.505C1113.72 458.077 1114.49 458.981 1113.94 460.218C1113.51 461.169 1112.06 461.622 1109.59 461.578C1107.12 461.533 1104.52 461.982 1101.78 462.922C1099.03 463.895 1097.32 464.425 1096.67 464.511C1096.01 464.598 1095.39 464.563 1094.78 464.406C1078.89 460.03 1069.38 453.46 1066.27 444.696C1063.77 437.696 1065.21 429.016 1070.57 418.656C1079.05 402.373 1089.69 392.501 1102.5 389.039C1098.37 386.111 1094.45 384.935 1090.73 385.512C1089.1 385.766 1088.79 384.826 1089.81 382.691C1093.36 375.253 1098.33 372.875 1104.71 375.557C1105.87 376.041 1108.22 377.615 1111.76 380.28C1117.55 384.677 1124.13 387.66 1131.5 389.229C1134.37 389.832 1135 391.016 1133.42 392.781L1128.22 398.564C1127.27 399.626 1126.41 400.039 1125.64 399.805C1115.67 396.648 1106.58 396.045 1098.38 397.996Z" fill="url(#paint13_linear)"/>
</g>
</g>
</g>
<defs>
<filter id="filter0_i" x="1328" y="656" width="83.5309" height="71.9663" filterUnits="userSpaceOnUse" color-interpolation-filters="sRGB">
<feFlood flood-opacity="0" result="BackgroundImageFix"/>
<feBlend mode="normal" in="SourceGraphic" in2="BackgroundImageFix" result="shape"/>
<feColorMatrix in="SourceAlpha" type="matrix" values="0 0 0 0 0 0 0 0 0 0 0 0 0 0 0 0 0 0 127 0" result="hardAlpha"/>
<feOffset dx="0.5" dy="0.5"/>
<feComposite in2="hardAlpha" operator="arithmetic" k2="-1" k3="1"/>
<feColorMatrix type="matrix" values="0 0 0 0 1 0 0 0 0 1 0 0 0 0 1 0 0 0 1 0"/>
<feBlend mode="normal" in2="shape" result="effect1_innerShadow"/>
</filter>
<filter id="filter1_i" x="818" y="68" width="59.2256" height="61.5571" filterUnits="userSpaceOnUse" color-interpolation-filters="sRGB">
<feFlood flood-opacity="0" result="BackgroundImageFix"/>
<feBlend mode="normal" in="SourceGraphic" in2="BackgroundImageFix" result="shape"/>
<feColorMatrix in="SourceAlpha" type="matrix" values="0 0 0 0 0 0 0 0 0 0 0 0 0 0 0 0 0 0 127 0" result="hardAlpha"/>
<feOffset dx="0.5" dy="0.5"/>
<feComposite in2="hardAlpha" operator="arithmetic" k2="-1" k3="1"/>
<feColorMatrix type="matrix" values="0 0 0 0 1 0 0 0 0 1 0 0 0 0 1 0 0 0 1 0"/>
<feBlend mode="normal" in2="shape" result="effect1_innerShadow"/>
</filter>
<filter id="filter2_i" x="1010" y="860" width="77.6985" height="82.9535" filterUnits="userSpaceOnUse" color-interpolation-filters="sRGB">
<feFlood flood-opacity="0" result="BackgroundImageFix"/>
<feBlend mode="normal" in="SourceGraphic" in2="BackgroundImageFix" result="shape"/>
<feColorMatrix in="SourceAlpha" type="matrix" values="0 0 0 0 0 0 0 0 0 0 0 0 0 0 0 0 0 0 127 0" result="hardAlpha"/>
<feOffset dx="0.5" dy="0.5"/>
<feComposite in2="hardAlpha" operator="arithmetic" k2="-1" k3="1"/>
<feColorMatrix type="matrix" values="0 0 0 0 1 0 0 0 0 1 0 0 0 0 1 0 0 0 1 0"/>
<feBlend mode="normal" in2="shape" result="effect1_innerShadow"/>
</filter>
<filter id="filter3_i" x="184" y="264" width="75.5918" height="76.2732" filterUnits="userSpaceOnUse" color-interpolation-filters="sRGB">
<feFlood flood-opacity="0" result="BackgroundImageFix"/>
<feBlend mode="normal" in="SourceGraphic" in2="BackgroundImageFix" result="shape"/>
<feColorMatrix in="SourceAlpha" type="matrix" values="0 0 0 0 0 0 0 0 0 0 0 0 0 0 0 0 0 0 127 0" result="hardAlpha"/>
<feOffset dx="0.5" dy="0.5"/>
<feComposite in2="hardAlpha" operator="arithmetic" k2="-1" k3="1"/>
<feColorMatrix type="matrix" values="0 0 0 0 1 0 0 0 0 1 0 0 0 0 1 0 0 0 1 0"/>
<feBlend mode="normal" in2="shape" result="effect1_innerShadow"/>
</filter>
<filter id="filter4_i" x="344" y="77" width="69.5694" height="71.2932" filterUnits="userSpaceOnUse" color-interpolation-filters="sRGB">
<feFlood flood-opacity="0" result="BackgroundImageFix"/>
<feBlend mode="normal" in="SourceGraphic" in2="BackgroundImageFix" result="shape"/>
<feColorMatrix in="SourceAlpha" type="matrix" values="0 0 0 0 0 0 0 0 0 0 0 0 0 0 0 0 0 0 127 0" result="hardAlpha"/>
<feOffset dx="0.5" dy="0.5"/>
<feComposite in2="hardAlpha" operator="arithmetic" k2="-1" k3="1"/>
<feColorMatrix type="matrix" values="0 0 0 0 1 0 0 0 0 1 0 0 0 0 1 0 0 0 1 0"/>
<feBlend mode="normal" in2="shape" result="effect1_innerShadow"/>
</filter>
<filter id="filter5_i" x="814.9" y="381.272" width="73.6824" height="69.6906" filterUnits="userSpaceOnUse" color-interpolation-filters="sRGB">
<feFlood flood-opacity="0" result="BackgroundImageFix"/>
<feBlend mode="normal" in="SourceGraphic" in2="BackgroundImageFix" result="shape"/>
<feColorMatrix in="SourceAlpha" type="matrix" values="0 0 0 0 0 0 0 0 0 0 0 0 0 0 0 0 0 0 127 0" result="hardAlpha"/>
<feOffset dx="0.5" dy="0.5"/>
<feComposite in2="hardAlpha" operator="arithmetic" k2="-1" k3="1"/>
<feColorMatrix type="matrix" values="0 0 0 0 1 0 0 0 0 1 0 0 0 0 1 0 0 0 1 0"/>
<feBlend mode="normal" in2="shape" result="effect1_innerShadow"/>
</filter>
<filter id="filter6_i" x="400.733" y="564.728" width="84.3964" height="69.0824" filterUnits="userSpaceOnUse" color-interpolation-filters="sRGB">
<feFlood flood-opacity="0" result="BackgroundImageFix"/>
<feBlend mode="normal" in="SourceGraphic" in2="BackgroundImageFix" result="shape"/>
<feColorMatrix in="SourceAlpha" type="matrix" values="0 0 0 0 0 0 0 0 0 0 0 0 0 0 0 0 0 0 127 0" result="hardAlpha"/>
<feOffset dx="0.5" dy="0.5"/>
<feComposite in2="hardAlpha" operator="arithmetic" k2="-1" k3="1"/>
<feColorMatrix type="matrix" values="0 0 0 0 1 0 0 0 0 1 0 0 0 0 1 0 0 0 1 0"/>
<feBlend mode="normal" in2="shape" result="effect1_innerShadow"/>
</filter>
<filter id="filter7_i" x="538" y="133" width="75.4702" height="66.9244" filterUnits="userSpaceOnUse" color-interpolation-filters="sRGB">
<feFlood flood-opacity="0" result="BackgroundImageFix"/>
<feBlend mode="normal" in="SourceGraphic" in2="BackgroundImageFix" result="shape"/>
<feColorMatrix in="SourceAlpha" type="matrix" values="0 0 0 0 0 0 0 0 0 0 0 0 0 0 0 0 0 0 127 0" result="hardAlpha"/>
<feOffset dx="0.5" dy="0.5"/>
<feComposite in2="hardAlpha" operator="arithmetic" k2="-1" k3="1"/>
<feColorMatrix type="matrix" values="0 0 0 0 1 0 0 0 0 1 0 0 0 0 1 0 0 0 1 0"/>
<feBlend mode="normal" in2="shape" result="effect1_innerShadow"/>
</filter>
<filter id="filter8_i" x="632" y="316" width="74.799" height="81.0142" filterUnits="userSpaceOnUse" color-interpolation-filters="sRGB">
<feFlood flood-opacity="0" result="BackgroundImageFix"/>
<feBlend mode="normal" in="SourceGraphic" in2="BackgroundImageFix" result="shape"/>
<feColorMatrix in="SourceAlpha" type="matrix" values="0 0 0 0 0 0 0 0 0 0 0 0 0 0 0 0 0 0 127 0" result="hardAlpha"/>
<feOffset dx="0.5" dy="0.5"/>
<feComposite in2="hardAlpha" operator="arithmetic" k2="-1" k3="1"/>
<feColorMatrix type="matrix" values="0 0 0 0 1 0 0 0 0 1 0 0 0 0 1 0 0 0 1 0"/>
<feBlend mode="normal" in2="shape" result="effect1_innerShadow"/>
</filter>
<filter id="filter9_i" x="1258" y="101" width="82.2277" height="93.4679" filterUnits="userSpaceOnUse" color-interpolation-filters="sRGB">
<feFlood flood-opacity="0" result="BackgroundImageFix"/>
<feBlend mode="normal" in="SourceGraphic" in2="BackgroundImageFix" result="shape"/>
<feColorMatrix in="SourceAlpha" type="matrix" values="0 0 0 0 0 0 0 0 0 0 0 0 0 0 0 0 0 0 127 0" result="hardAlpha"/>
<feOffset dx="0.5" dy="0.5"/>
<feComposite in2="hardAlpha" operator="arithmetic" k2="-1" k3="1"/>
<feColorMatrix type="matrix" values="0 0 0 0 1 0 0 0 0 1 0 0 0 0 1 0 0 0 1 0"/>
<feBlend mode="normal" in2="shape" result="effect1_innerShadow"/>
</filter>
<filter id="filter10_i" x="1057" y="370" width="87.0839" height="101.825" filterUnits="userSpaceOnUse" color-interpolation-filters="sRGB">
<feFlood flood-opacity="0" result="BackgroundImageFix"/>
<feBlend mode="normal" in="SourceGraphic" in2="BackgroundImageFix" result="shape"/>
<feColorMatrix in="SourceAlpha" type="matrix" values="0 0 0 0 0 0 0 0 0 0 0 0 0 0 0 0 0 0 127 0" result="hardAlpha"/>
<feOffset dx="0.5" dy="0.5"/>
<feComposite in2="hardAlpha" operator="arithmetic" k2="-1" k3="1"/>
<feColorMatrix type="matrix" values="0 0 0 0 1 0 0 0 0 1 0 0 0 0 1 0 0 0 1 0"/>
<feBlend mode="normal" in2="shape" result="effect1_innerShadow"/>
</filter>
<linearGradient id="paint0_linear" x1="1399.53" y1="727.966" x2="1328" y2="712.875" gradientUnits="userSpaceOnUse">
<stop stop-color="white"/>
<stop offset="1" stop-color="white" stop-opacity="0.4"/>
</linearGradient>
<linearGradient id="paint1_linear" x1="871.862" y1="129.557" x2="818" y2="124.438" gradientUnits="userSpaceOnUse">
<stop stop-color="white"/>
<stop offset="1" stop-color="white" stop-opacity="0.4"/>
</linearGradient>
<linearGradient id="paint2_linear" x1="1065.44" y1="942.953" x2="1010" y2="923.531" gradientUnits="userSpaceOnUse">
<stop stop-color="white"/>
<stop offset="1" stop-color="white" stop-opacity="0.4"/>
</linearGradient>
<linearGradient id="paint3_linear" x1="251.799" y1="340.273" x2="184" y2="332.568" gradientUnits="userSpaceOnUse">
<stop stop-color="white"/>
<stop offset="1" stop-color="white" stop-opacity="0.4"/>
</linearGradient>
<linearGradient id="paint4_linear" x1="401.068" y1="148.293" x2="344" y2="136.253" gradientUnits="userSpaceOnUse">
<stop stop-color="white"/>
<stop offset="1" stop-color="white" stop-opacity="0.4"/>
</linearGradient>
<linearGradient id="paint5_linear" x1="863.774" y1="450.963" x2="814.901" y2="414.819" gradientUnits="userSpaceOnUse">
<stop stop-color="white"/>
<stop offset="1" stop-color="white" stop-opacity="0.4"/>
</linearGradient>
<linearGradient id="paint6_linear" x1="863.774" y1="450.963" x2="814.901" y2="414.819" gradientUnits="userSpaceOnUse">
<stop stop-color="white"/>
<stop offset="1" stop-color="white" stop-opacity="0.4"/>
</linearGradient>
<linearGradient id="paint7_linear" x1="863.774" y1="450.963" x2="814.901" y2="414.819" gradientUnits="userSpaceOnUse">
<stop stop-color="white"/>
<stop offset="1" stop-color="white" stop-opacity="0.4"/>
</linearGradient>
<linearGradient id="paint8_linear" x1="485.13" y1="609.731" x2="416.53" y2="633.81" gradientUnits="userSpaceOnUse">
<stop stop-color="white"/>
<stop offset="1" stop-color="white" stop-opacity="0.4"/>
</linearGradient>
<linearGradient id="paint9_linear" x1="613.47" y1="179.116" x2="554.187" y2="199.924" gradientUnits="userSpaceOnUse">
<stop stop-color="white"/>
<stop offset="1" stop-color="white" stop-opacity="0.4"/>
</linearGradient>
<linearGradient id="paint10_linear" x1="613.47" y1="179.116" x2="554.187" y2="199.924" gradientUnits="userSpaceOnUse">
<stop stop-color="white"/>
<stop offset="1" stop-color="white" stop-opacity="0.4"/>
</linearGradient>
<linearGradient id="paint11_linear" x1="706.799" y1="372.372" x2="666.301" y2="397.014" gradientUnits="userSpaceOnUse">
<stop stop-color="white"/>
<stop offset="1" stop-color="white" stop-opacity="0.4"/>
</linearGradient>
<linearGradient id="paint12_linear" x1="1340.23" y1="174.661" x2="1283.9" y2="194.468" gradientUnits="userSpaceOnUse">
<stop stop-color="white"/>
<stop offset="1" stop-color="white" stop-opacity="0.4"/>
</linearGradient>
<linearGradient id="paint13_linear" x1="1108.71" y1="471.825" x2="1057" y2="448.532" gradientUnits="userSpaceOnUse">
<stop stop-color="white"/>
<stop offset="1" stop-color="white" stop-opacity="0.4"/>
</linearGradient>
</defs>
</svg>
