<svg width="134" height="135" viewBox="0 0 134 135" fill="none" xmlns="http://www.w3.org/2000/svg">
<g filter="url(#filter0_i)">
<path d="M21.4404 8.14062C19.9643 8.14062 18.7604 9.34453 18.7604 10.8206V80.5006C18.7604 81.9872 19.9643 83.1806 21.4404 83.1806H34.8404C36.3269 83.1806 37.5204 81.9872 37.5204 80.5006V10.8206C37.5204 9.34453 36.3269 8.14062 34.8404 8.14062H21.4404ZM45.5604 8.14062C44.0843 8.14062 42.8804 9.34453 42.8804 10.8206V80.5006C42.8804 81.9872 44.0843 83.1806 45.5604 83.1806H58.9604C60.4469 83.1806 61.6404 81.9872 61.6404 80.5006V10.8206C61.6404 9.34453 60.4469 8.14062 58.9604 8.14062H45.5604ZM25.4604 18.8606H30.8204C32.3069 18.8606 33.5004 20.0645 33.5004 21.5406C33.5004 23.0167 32.3069 24.2206 30.8204 24.2206H25.4604C23.9738 24.2206 22.7804 23.0167 22.7804 21.5406C22.7804 20.0645 23.9738 18.8606 25.4604 18.8606ZM49.5804 18.8606H54.9404C56.4269 18.8606 57.6204 20.0645 57.6204 21.5406C57.6204 23.0167 56.4269 24.2206 54.9404 24.2206H49.5804C48.0938 24.2206 46.9004 23.0167 46.9004 21.5406C46.9004 20.0645 48.0938 18.8606 49.5804 18.8606ZM100.752 22.7131L87.7704 25.8119C87.0794 25.9794 86.4722 26.3772 86.0954 26.9844C85.9383 27.2356 85.8232 27.5392 85.7604 27.8219V26.9006C85.7604 25.4245 84.5669 24.2206 83.0804 24.2206H69.6804C68.2043 24.2206 67.0004 25.4245 67.0004 26.9006V80.5006C67.0004 81.9872 68.2043 83.1806 69.6804 83.1806H83.0804C84.5669 83.1806 85.7604 81.9872 85.7604 80.5006V28.9944L98.6579 81.1706C98.951 82.4059 100.04 83.2644 101.254 83.2644C101.453 83.2644 101.631 83.2225 101.84 83.1806L114.905 80.0819C115.596 79.9144 116.203 79.5166 116.58 78.9094C116.957 78.3022 117.083 77.5903 116.915 76.8994L104.018 24.7231C103.672 23.2784 102.186 22.3677 100.752 22.7131ZM99.0766 34.3544C100.103 34.5323 101.003 35.2861 101.254 36.3644C101.589 37.8091 100.678 39.2956 99.2441 39.6306L96.6479 40.2169C96.4385 40.2692 96.2605 40.3006 96.0616 40.3006C94.8472 40.3006 93.6747 39.4422 93.3816 38.2069C93.0466 36.7622 93.9574 35.3594 95.3916 35.0244L97.9879 34.4381C98.3438 34.3544 98.7311 34.2916 99.0766 34.3544ZM75.0404 34.9406H77.7204C79.2069 34.9406 80.4004 36.1445 80.4004 37.6206C80.4004 39.0967 79.2069 40.3006 77.7204 40.3006H75.0404C73.5538 40.3006 72.3604 39.0967 72.3604 37.6206C72.3604 36.1445 73.5538 34.9406 75.0404 34.9406ZM105.944 65.6769C107.378 65.3523 108.865 66.2422 109.21 67.6869C109.545 69.1211 108.645 70.5344 107.2 70.8694L104.604 71.5394C104.395 71.5917 104.133 71.6231 103.934 71.6231C102.72 71.6231 101.631 70.7647 101.338 69.5294C101.003 68.0952 101.903 66.5981 103.348 66.2631L105.944 65.6769ZM25.4604 67.1006H30.8204C32.3069 67.1006 33.5004 68.3045 33.5004 69.7806C33.5004 71.2567 32.3069 72.4606 30.8204 72.4606H25.4604C23.9738 72.4606 22.7804 71.2567 22.7804 69.7806C22.7804 68.3045 23.9738 67.1006 25.4604 67.1006ZM49.5804 67.1006H54.9404C56.4269 67.1006 57.6204 68.3045 57.6204 69.7806C57.6204 71.2567 56.4269 72.4606 54.9404 72.4606H49.5804C48.0938 72.4606 46.9004 71.2567 46.9004 69.7806C46.9004 68.3045 48.0938 67.1006 49.5804 67.1006ZM75.0404 67.1006H77.7204C79.2069 67.1006 80.4004 68.2941 80.4004 69.7806C80.4004 71.2672 79.2069 72.4606 77.7204 72.4606H75.0404C73.5538 72.4606 72.3604 71.2672 72.3604 69.7806C72.3604 68.2941 73.5538 67.1006 75.0404 67.1006ZM8.04035 85.8606C6.56426 85.8606 5.36035 87.0541 5.36035 88.5406V96.5806C5.36035 98.0672 6.56426 99.2606 8.04035 99.2606H125.96C127.447 99.2606 128.64 98.0672 128.64 96.5806V88.5406C128.64 87.0541 127.447 85.8606 125.96 85.8606H8.04035ZM16.0804 104.621V119.361C16.0804 123.056 19.0849 126.061 22.7804 126.061C26.4758 126.061 29.4804 123.056 29.4804 119.361V104.621H16.0804ZM104.52 104.621V119.361C104.52 123.056 107.525 126.061 111.22 126.061C114.916 126.061 117.92 123.056 117.92 119.361V104.621H104.52Z" fill="black"/>
<path d="M21.4404 8.14062C19.9643 8.14062 18.7604 9.34453 18.7604 10.8206V80.5006C18.7604 81.9872 19.9643 83.1806 21.4404 83.1806H34.8404C36.3269 83.1806 37.5204 81.9872 37.5204 80.5006V10.8206C37.5204 9.34453 36.3269 8.14062 34.8404 8.14062H21.4404ZM45.5604 8.14062C44.0843 8.14062 42.8804 9.34453 42.8804 10.8206V80.5006C42.8804 81.9872 44.0843 83.1806 45.5604 83.1806H58.9604C60.4469 83.1806 61.6404 81.9872 61.6404 80.5006V10.8206C61.6404 9.34453 60.4469 8.14062 58.9604 8.14062H45.5604ZM25.4604 18.8606H30.8204C32.3069 18.8606 33.5004 20.0645 33.5004 21.5406C33.5004 23.0167 32.3069 24.2206 30.8204 24.2206H25.4604C23.9738 24.2206 22.7804 23.0167 22.7804 21.5406C22.7804 20.0645 23.9738 18.8606 25.4604 18.8606ZM49.5804 18.8606H54.9404C56.4269 18.8606 57.6204 20.0645 57.6204 21.5406C57.6204 23.0167 56.4269 24.2206 54.9404 24.2206H49.5804C48.0938 24.2206 46.9004 23.0167 46.9004 21.5406C46.9004 20.0645 48.0938 18.8606 49.5804 18.8606ZM100.752 22.7131L87.7704 25.8119C87.0794 25.9794 86.4722 26.3772 86.0954 26.9844C85.9383 27.2356 85.8232 27.5392 85.7604 27.8219V26.9006C85.7604 25.4245 84.5669 24.2206 83.0804 24.2206H69.6804C68.2043 24.2206 67.0004 25.4245 67.0004 26.9006V80.5006C67.0004 81.9872 68.2043 83.1806 69.6804 83.1806H83.0804C84.5669 83.1806 85.7604 81.9872 85.7604 80.5006V28.9944L98.6579 81.1706C98.951 82.4059 100.04 83.2644 101.254 83.2644C101.453 83.2644 101.631 83.2225 101.84 83.1806L114.905 80.0819C115.596 79.9144 116.203 79.5166 116.58 78.9094C116.957 78.3022 117.083 77.5903 116.915 76.8994L104.018 24.7231C103.672 23.2784 102.186 22.3677 100.752 22.7131ZM99.0766 34.3544C100.103 34.5323 101.003 35.2861 101.254 36.3644C101.589 37.8091 100.678 39.2956 99.2441 39.6306L96.6479 40.2169C96.4385 40.2692 96.2605 40.3006 96.0616 40.3006C94.8472 40.3006 93.6747 39.4422 93.3816 38.2069C93.0466 36.7622 93.9574 35.3594 95.3916 35.0244L97.9879 34.4381C98.3438 34.3544 98.7311 34.2916 99.0766 34.3544ZM75.0404 34.9406H77.7204C79.2069 34.9406 80.4004 36.1445 80.4004 37.6206C80.4004 39.0967 79.2069 40.3006 77.7204 40.3006H75.0404C73.5538 40.3006 72.3604 39.0967 72.3604 37.6206C72.3604 36.1445 73.5538 34.9406 75.0404 34.9406ZM105.944 65.6769C107.378 65.3523 108.865 66.2422 109.21 67.6869C109.545 69.1211 108.645 70.5344 107.2 70.8694L104.604 71.5394C104.395 71.5917 104.133 71.6231 103.934 71.6231C102.72 71.6231 101.631 70.7647 101.338 69.5294C101.003 68.0952 101.903 66.5981 103.348 66.2631L105.944 65.6769ZM25.4604 67.1006H30.8204C32.3069 67.1006 33.5004 68.3045 33.5004 69.7806C33.5004 71.2567 32.3069 72.4606 30.8204 72.4606H25.4604C23.9738 72.4606 22.7804 71.2567 22.7804 69.7806C22.7804 68.3045 23.9738 67.1006 25.4604 67.1006ZM49.5804 67.1006H54.9404C56.4269 67.1006 57.6204 68.3045 57.6204 69.7806C57.6204 71.2567 56.4269 72.4606 54.9404 72.4606H49.5804C48.0938 72.4606 46.9004 71.2567 46.9004 69.7806C46.9004 68.3045 48.0938 67.1006 49.5804 67.1006ZM75.0404 67.1006H77.7204C79.2069 67.1006 80.4004 68.2941 80.4004 69.7806C80.4004 71.2672 79.2069 72.4606 77.7204 72.4606H75.0404C73.5538 72.4606 72.3604 71.2672 72.3604 69.7806C72.3604 68.2941 73.5538 67.1006 75.0404 67.1006ZM8.04035 85.8606C6.56426 85.8606 5.36035 87.0541 5.36035 88.5406V96.5806C5.36035 98.0672 6.56426 99.2606 8.04035 99.2606H125.96C127.447 99.2606 128.64 98.0672 128.64 96.5806V88.5406C128.64 87.0541 127.447 85.8606 125.96 85.8606H8.04035ZM16.0804 104.621V119.361C16.0804 123.056 19.0849 126.061 22.7804 126.061C26.4758 126.061 29.4804 123.056 29.4804 119.361V104.621H16.0804ZM104.52 104.621V119.361C104.52 123.056 107.525 126.061 111.22 126.061C114.916 126.061 117.92 123.056 117.92 119.361V104.621H104.52Z" fill="url(#paint0_linear)"/>
</g>
<defs>
<filter id="filter0_i" x="5.36035" y="8.14062" width="123.28" height="117.92" filterUnits="userSpaceOnUse" color-interpolation-filters="sRGB">
<feFlood flood-opacity="0" result="BackgroundImageFix"/>
<feBlend mode="normal" in="SourceGraphic" in2="BackgroundImageFix" result="shape"/>
<feColorMatrix in="SourceAlpha" type="matrix" values="0 0 0 0 0 0 0 0 0 0 0 0 0 0 0 0 0 0 127 0" result="hardAlpha"/>
<feOffset dy="2"/>
<feComposite in2="hardAlpha" operator="arithmetic" k2="-1" k3="1"/>
<feColorMatrix type="matrix" values="0 0 0 0 0 0 0 0 0 0 0 0 0 0 0 0 0 0 0.25 0"/>
<feBlend mode="normal" in2="shape" result="effect1_innerShadow"/>
</filter>
<linearGradient id="paint0_linear" x1="67.0004" y1="8.14062" x2="67.0004" y2="126.061" gradientUnits="userSpaceOnUse">
<stop stop-color="white"/>
<stop offset="1" stop-color="#C0D0D5"/>
</linearGradient>
</defs>
</svg>
