<svg width="376" height="1958" viewBox="0 0 376 1958" fill="none" xmlns="http://www.w3.org/2000/svg">
<g clip-path="url(#clip0)">
<path opacity="0.08" d="M209.358 855.595C126.954 855.595 60 922.833 60 1004.54C60 1088.8 114.936 1144.12 203.35 1144.12H209.358V1238.59C303.78 1154.33 357 1087.95 357 1009.65C357 922.833 291.763 855.595 209.358 855.595Z" fill="url(#paint0_linear)"/>
<path opacity="0.08" d="M343.116 1328.59C284.017 1328.59 236 1376.87 236 1435.54C236 1496.04 275.399 1535.76 338.806 1535.76H343.116V1603.59C410.832 1543.09 449 1495.43 449 1439.21C449 1376.87 402.214 1328.59 343.116 1328.59Z" fill="url(#paint1_linear)"/>
<path opacity="0.04" d="M158.295 1603.59C81.9942 1603.59 20 1665.74 20 1741.26C20 1819.14 70.8669 1870.27 152.731 1870.27H158.295V1957.59C245.722 1879.71 295 1818.35 295 1745.98C295 1665.74 234.595 1603.59 158.295 1603.59Z" fill="url(#paint2_linear)"/>
<path opacity="0.06" d="M309.075 515.595C253.861 515.595 209 560.713 209 615.539C209 672.079 245.809 709.201 305.049 709.201H309.075V772.595C372.341 716.055 408 671.508 408 618.966C408 560.713 364.289 515.595 309.075 515.595Z" fill="url(#paint3_linear)"/>
<path opacity="0.04" d="M209.798 286.595C181.22 286.595 158 309.944 158 338.317C158 367.577 177.052 386.788 207.714 386.788H209.798V419.595C242.543 390.335 261 367.281 261 340.09C261 309.944 238.376 286.595 209.798 286.595Z" fill="url(#paint4_linear)"/>
<path opacity="0.04" d="M348.092 -5.40527C291.214 -5.40527 245 41.1169 245 97.6503C245 155.95 282.919 194.228 343.945 194.228H348.092V259.595C413.266 201.295 450 155.361 450 101.184C450 41.117 404.971 -5.40527 348.092 -5.40527Z" fill="url(#paint5_linear)"/>
</g>
<defs>
<linearGradient id="paint0_linear" x1="208" y1="790.595" x2="253.848" y2="1356.07" gradientUnits="userSpaceOnUse">
<stop stop-color="white"/>
<stop offset="1" stop-color="white" stop-opacity="0"/>
</linearGradient>
<linearGradient id="paint1_linear" x1="342.141" y1="1281.92" x2="375.099" y2="1687.94" gradientUnits="userSpaceOnUse">
<stop stop-color="white"/>
<stop offset="1" stop-color="white" stop-opacity="0"/>
</linearGradient>
<linearGradient id="paint2_linear" x1="157.037" y1="1543.52" x2="199.34" y2="2066.18" gradientUnits="userSpaceOnUse">
<stop stop-color="white"/>
<stop offset="1" stop-color="white" stop-opacity="0"/>
</linearGradient>
<linearGradient id="paint3_linear" x1="308.165" y1="471.979" x2="338.975" y2="851.413" gradientUnits="userSpaceOnUse">
<stop stop-color="white"/>
<stop offset="1" stop-color="white" stop-opacity="0"/>
</linearGradient>
<linearGradient id="paint4_linear" x1="209.327" y1="264.023" x2="225.269" y2="460.384" gradientUnits="userSpaceOnUse">
<stop stop-color="white"/>
<stop offset="1" stop-color="white" stop-opacity="0"/>
</linearGradient>
<linearGradient id="paint5_linear" x1="347.155" y1="-50.3792" x2="378.953" y2="340.862" gradientUnits="userSpaceOnUse">
<stop stop-color="white"/>
<stop offset="1" stop-color="white" stop-opacity="0"/>
</linearGradient>
<clipPath id="clip0">
<rect width="376" height="1958" fill="white"/>
</clipPath>
</defs>
</svg>
