<svg width="768" height="592" viewBox="0 0 768 592" fill="none" xmlns="http://www.w3.org/2000/svg">
<path d="M657.819 473.876L651.354 458.616C651.354 458.616 655.418 451.469 654.86 441.002C654.303 430.535 652.117 429.185 652.117 429.185C652.117 429.185 649.065 428.451 648.639 430.449C648.213 432.448 650.1 439.805 646.851 443.451C646.851 443.451 642.204 436.61 639.733 430.979C637.263 425.347 630.845 412.903 629.087 412.726C627.403 412.614 627.367 414.167 627.498 416.132C627.629 418.098 636.977 436.78 635.915 437.618C634.853 438.456 622.496 413.399 620.53 413.234C618.558 412.999 616.666 413.957 618.073 417.256C619.481 420.555 629.909 439.737 628.908 440.431C627.906 441.124 617.056 422.954 614.319 421.707C611.646 420.386 612.042 423.182 613.556 425.981C615.069 428.78 624.929 443.627 624.062 444.242C623.195 444.857 612.502 433.231 610.832 433.331C609.162 433.43 609.461 435.808 611.155 438.174C612.854 440.61 627.245 462.657 631.412 464.382C635.578 466.108 643.087 482.362 643.087 482.362L657.819 473.876Z" fill="#FABAA4"/>
<path d="M704.396 458.585L713.936 510.362C713.936 510.362 697.397 539.35 683.714 539.81C670.032 540.269 634.882 472.731 634.882 472.731C634.882 472.731 652.955 462.558 655.429 458.742C655.429 458.742 679.577 501.892 681.086 501.449C682.666 501.003 693.725 461.194 704.396 458.585Z" fill="#14B3E4"/>
<path d="M775.479 488.558C775.072 533.565 795.095 569.574 795.095 569.574C763.879 598.321 729.913 577.65 729.913 577.65C729.913 577.65 727.042 573.364 715.725 539.615C703.089 501.916 699.404 463.003 699.404 463.003L702.857 457.298L766.321 447.907L768.267 451.893L767.055 453.445C767.648 452.987 767.98 452.757 767.98 452.757" fill="#00A5D7"/>
<path fill-rule="evenodd" clip-rule="evenodd" d="M766.714 659.291C766.311 658.532 765.983 657.84 765.649 657.078C764.5 654.656 763.42 652.23 762.27 649.808C760.294 645.586 758.249 641.367 756.338 637.07C754.596 633.19 752.917 629.235 751.309 625.276C749.287 620.417 747.339 615.625 745.456 610.759C744.101 607.425 742.949 604.01 741.658 600.602C740.701 597.957 739.606 595.319 738.718 592.67C737.83 590.021 737.006 587.297 736.114 584.577C735.416 582.628 734.648 580.682 733.791 578.457C734.782 578.687 735.559 578.858 736.278 579.174C739.854 580.541 743.518 581.194 747.3 581.556C752.344 582.063 757.412 581.929 762.353 581.022C767.364 580.111 772.454 579.337 777.265 577.585C780.785 576.258 784.241 575.005 787.592 573.262C788.595 572.71 789.445 571.954 790.566 571.113C790.989 572.154 791.338 573.129 791.756 574.1C795.967 583.241 799.975 592.464 804.452 601.448C808.999 610.429 814.015 619.171 818.829 627.995C823.314 636.127 827.73 644.263 832.215 652.395C834.054 655.702 837.888 664.438 837.888 664.438C837.888 664.438 832.843 660.098 828.012 659.651C823.868 659.095 820.04 660.013 816.592 662.33C815.332 663.179 814.316 664.512 813.092 665.856C812.407 665.042 807.235 657.018 805.341 653.927C804.163 652.074 802.857 650.371 801.68 648.518C799.871 645.635 798.265 642.67 796.456 639.787C794.164 636.008 791.809 632.303 789.523 628.594C788.579 627.084 787.763 625.424 786.888 623.91C785.615 621.708 784.278 619.58 783.006 617.378C781.166 614.071 779.46 610.685 777.615 607.308C775.372 603.242 772.922 599.187 770.61 595.124C770.133 594.299 769.853 593.32 769.376 592.494C769.142 592.152 768.514 592.115 768.083 591.926C767.98 592.428 767.68 593.083 767.903 593.284C769.491 595.043 769.086 597.124 769.373 599.167C770.387 606.423 771.337 613.753 772.697 620.991C773.379 624.645 774.68 628.194 775.912 631.747C778.56 639.482 781.341 647.139 784.053 654.8C784.323 655.637 785.518 658.695 785.857 659.529C785.857 659.529 782.663 660.554 776.497 660.889C770.737 661.06 766.714 659.291 766.714 659.291Z" fill="#738396"/>
<path d="M745.798 295.724C701.106 293.526 691.411 332.844 691.411 332.844L690.619 373.282L694.3 375.262C693.307 374.966 692.239 374.602 691.246 374.306C690.677 374.126 690.168 373.802 689.6 373.622C686.466 372.529 685.037 373.951 685.48 377.316C688.032 394.967 698.462 395.082 699.564 395.937C699.436 396.086 699.376 396.23 699.248 396.379C696.672 396.313 694.908 394.93 693.194 393.262C694.069 401.827 697.985 439.032 702.977 457.816C703.195 457.945 703.482 458.07 703.833 458.121C704.396 458.23 704.881 458.203 705.439 458.241C708.103 458.585 710.778 459.069 713.427 459.201C716.986 459.423 720.605 459.5 724.214 459.437C727.753 459.378 731.223 459.322 734.743 458.981C738.125 458.649 741.492 458.105 744.844 457.35C748.67 456.427 752.393 455.015 756.21 453.951C759.548 452.985 762.89 452.09 765.956 450.221C767.222 449.443 767.361 448.447 767.421 447.314C767.616 443.136 767.741 438.963 768.001 434.711C768.275 429.681 769.677 424.871 769.669 419.787C769.657 415.621 770.549 411.475 771.09 407.278C771.318 405.57 771.754 403.85 771.977 402.072C772.379 398.872 772.643 395.679 773.05 392.549C773.363 390.059 773.957 387.625 774.275 385.206C774.791 381.646 775.173 378.164 775.62 374.608C775.834 372.689 775.978 370.774 776.187 368.785L779.738 364.911L784.573 345.571C784.573 345.571 783.654 345.34 782.161 344.86C783.836 337.986 785.376 331.19 785.546 328.638C785.841 322.902 790.486 297.852 745.798 295.724Z" fill="#FABAA4"/>
<path d="M685.855 379.678C685.855 379.678 690.262 395.747 711.632 394.608C711.627 394.537 692.031 406.076 685.855 379.678Z" fill="#F69676"/>
<path fill-rule="evenodd" clip-rule="evenodd" d="M801.407 330.288C803.833 323.309 807.703 312.186 807.68 310.903C807.61 308.981 792.459 281.919 789.766 281.353C787.068 280.715 774.74 282.028 774.74 282.028C770.286 276.422 768.818 273.507 768.818 273.507C738.118 267.832 722.149 270.913 715.947 272.963C715.331 273.139 714.647 273.319 714.036 273.566C713.56 273.735 713.158 273.971 712.762 274.277C712.435 274.581 712.257 275.018 711.861 275.325C692.627 293.062 679.977 290.898 678.435 293.693C693.157 310.009 691.693 334.124 691.693 334.124C691.693 334.124 695.522 318.581 707.467 309.087C726.999 293.544 752.589 297.072 758.485 299.461C776.333 306.905 781.613 315.247 781.613 315.247C781.613 315.247 778.662 320.757 776.613 329.071C774.627 337.31 777.814 346.623 777.814 346.623L786.921 348.052C790.824 342.205 798.041 338.745 798.041 338.745L799.445 335.959C799.445 335.959 799.731 335.087 800.258 333.703C800.663 332.54 801.003 331.452 801.407 330.288Z" fill="#FED065"/>
<path fill-rule="evenodd" clip-rule="evenodd" d="M786.883 347.953L777.763 346.519C777.763 346.519 774.577 337.243 776.56 328.903C778.549 320.634 781.569 315.028 781.569 315.028C781.569 315.028 776.276 306.584 758.408 299.185C752.498 296.716 726.946 293.244 707.314 308.848C695.352 318.378 691.516 333.978 691.516 333.978C691.516 333.978 692.988 309.845 678.241 293.399L706.931 296.771C706.931 296.771 719.394 288.359 737.129 288.106C754.864 287.853 780.412 305.785 781.5 315.032C781.703 316.882 786.045 324.734 794.115 322.289C801.302 320.178 807.079 307.263 807.674 310.667C808.032 312.723 799.56 335.735 798.015 338.54C793.316 347.029 786.883 347.953 786.883 347.953Z" fill="#F5BA66"/>
<path fill-rule="evenodd" clip-rule="evenodd" d="M749.314 394.895C748.685 396.778 748.13 398.727 747.357 400.547C744.406 406.891 735.789 427.264 723.993 435.511C720.745 436.824 717.008 436.174 712.971 431.417C709.999 427.882 704.364 416.459 703.961 415.699C721.203 413.412 736.314 406.691 749.314 394.895Z" fill="#85322C"/>
<path fill-rule="evenodd" clip-rule="evenodd" d="M723.978 435.358C731.918 429.89 738.346 418.902 742.659 410.369C742.659 410.369 730.633 413.15 726.124 418.999C717.946 429.798 723.978 435.358 723.978 435.358Z" fill="#E78482"/>
<path d="M741.536 340.946C733.275 341.041 726.863 348.41 727.168 357.399C727.473 366.389 734.388 373.601 742.579 373.51C750.84 373.416 757.252 366.046 756.947 357.057C756.642 348.067 749.727 340.855 741.536 340.946Z" fill="white"/>
<path d="M736.13 363.823C737.419 367.229 741.024 369.019 744.2 367.782C747.382 366.616 748.846 362.848 747.556 359.443C746.267 356.037 742.662 354.247 739.485 355.484C736.378 356.717 734.845 360.489 736.13 363.823Z" fill="#00A6D2"/>
<path d="M748.449 357.263C749.052 358.862 748.275 360.607 746.718 361.188C745.161 361.77 743.432 360.941 742.829 359.342C742.226 357.743 743.004 355.997 744.561 355.416C746.123 354.905 747.846 355.663 748.449 357.263Z" fill="white"/>
<path d="M730.417 334.329C730.417 334.329 735.545 324.022 743.702 325.653C751.859 327.284 759.059 337.921 759.059 337.921C759.059 337.921 738.918 326.201 730.417 334.329Z" fill="#FBD065"/>
<path fill-rule="evenodd" clip-rule="evenodd" d="M704.755 348.379C708.477 352.917 711.312 365.289 705.806 368.632C695.252 374.939 686.21 353.353 695.141 346.638C698.103 344.496 701.413 344.315 704.755 348.379Z" fill="white"/>
<path d="M699.216 361.723C699.968 364.446 702.383 366.157 704.634 365.609C706.886 365.061 708.148 362.371 707.395 359.648C706.643 356.925 704.228 355.214 701.977 355.761C699.795 356.305 698.532 358.996 699.216 361.723Z" fill="#00A6D2"/>
<path d="M707.679 358.069C708.053 359.396 707.379 360.638 706.288 360.91C705.127 361.186 703.958 360.399 703.584 359.072C703.21 357.745 703.884 356.503 704.976 356.231C706.142 356.026 707.31 356.813 707.679 358.069Z" fill="white"/>
<path d="M711.659 335.943C711.659 335.943 705.649 326.259 698.49 328.724C691.331 331.189 686.278 342.478 686.278 342.478C686.278 342.478 702.901 328.84 711.659 335.943Z" fill="#FED065"/>
<path d="M751.272 481.506C750.145 466.796 761.061 448.566 768.283 447.989C768.283 447.989 798.646 545.157 802.95 559.306C802.95 559.306 789.001 567.988 784.2 567.855C784.2 567.855 771.658 537.349 764.046 517.762C758.581 503.699 751.96 490.486 751.272 481.506Z" fill="#14B3E4"/>
<path opacity="0.08" d="M731.933 122.681C705.297 122.681 683.656 144.988 683.656 172.095C683.656 200.049 701.413 218.403 729.991 218.403H731.933V249.745C762.452 221.791 779.654 199.766 779.654 173.789C779.654 144.988 758.568 122.681 731.933 122.681Z" fill="#00A5D7"/>
<path opacity="0.08" d="M656.75 -21.6395C639.785 -21.6395 626 -7.43085 626 9.83539C626 27.6412 637.31 39.3319 655.513 39.3319H656.75V59.296C676.19 41.4902 687.147 27.4613 687.147 10.9145C687.147 -7.43085 673.716 -21.6395 656.75 -21.6395Z" fill="#00A5D7"/>
<path opacity="0.08" d="M129.828 -21.6395C118.27 -21.6395 108.879 -11.9601 108.879 -0.19767C108.879 11.9323 116.585 19.8964 128.985 19.8964H129.828V33.4967C143.071 21.3667 150.535 11.8098 150.535 0.537479C150.535 -11.9601 141.385 -21.6395 129.828 -21.6395Z" fill="#00A5D7"/>
<path opacity="0.08" d="M33.8859 52.3645C7.09998 52.3645 -14.6636 74.7975 -14.6636 102.058C-14.6636 130.17 3.19367 148.628 31.9327 148.628H33.8859V180.147C64.5781 152.035 81.8774 129.886 81.8774 103.762C81.8774 74.7975 60.6719 52.3645 33.8859 52.3645Z" fill="#00A5D7"/>
<path opacity="0.08" d="M82.7114 208.458C70.2825 208.458 60.1841 218.867 60.1841 231.516C60.1841 244.56 68.47 253.125 81.8051 253.125H82.7114V267.75C96.9528 254.706 104.98 244.429 104.98 232.307C104.98 218.867 95.1403 208.458 82.7114 208.458Z" fill="#00A5D7"/>
<path d="M118.268 439.451C118.268 439.451 120.983 423.637 120.498 420.889C120.014 418.142 118.572 417.13 118.572 417.13L113.978 433.593L109.611 450.942L118.268 439.451Z" fill="#F8C7AC"/>
<path d="M132.148 414.94L125.188 430.481L137.392 416.238L139.728 418.06L127.784 435.808L142.228 421.541L143.953 424.149L129.947 440.975L145.459 430.086L146.639 432.546L136.55 442.882L131.12 448.44L123.571 453.536L111.724 448.519L120.17 429.159L130.039 413.095L132.148 414.94Z" fill="#F8C7AC"/>
<path d="M62.1679 464.181C73.6871 481.134 80.4232 490.766 80.1048 488.789C80.1048 488.789 105.482 452.784 108.322 447.46C110.413 440.902 129.617 455.491 126.354 455.666C128.225 451.524 84.3294 526.872 80.191 525.714C76.0526 524.556 46.1711 492.634 46.1711 492.634L24.0087 468.053L49.2607 445.811C54.6016 449.804 47.1122 441.99 62.1679 464.181Z" fill="#D14024"/>
<path d="M-34.5804 343.681C-34.5804 343.681 -18.6089 425.546 -66.8354 436.038C-77.0581 438.217 -85.2662 432.31 -85.2662 432.31C-85.2662 432.31 -71.2218 462.222 -20.8382 471.807C28.9627 481.273 26.1514 467.055 26.1514 467.055L22.7712 453.026L6.50121 394.379L-34.5804 343.681Z" fill="#231F20"/>
<path d="M35.5703 545.7C35.6424 546.093 44.788 569.858 19.9243 601.682C-5.05654 633.709 -4.83587 646.114 0.514524 659.026C0.514524 659.026 -9.61165 663.726 -16.8032 659.542C-16.8032 659.542 -23.7642 669.963 -39.8251 655.643C-39.8251 655.643 -33.6049 650.759 -33.5589 643.034C-33.5176 630.834 -33.6845 627.16 -32.288 621.756C-30.3617 614.107 -24.0916 606.352 -23.7182 602.257C-22.9879 594.897 -30.0277 581.341 -33.587 562.573C-35.6764 551.535 -30.7682 540.016 -24.2534 533.675C9.84454 551.794 32.216 546.538 35.5703 545.7Z" fill="#7F2B8D"/>
<path d="M-18.4125 655.88C-18.4125 655.88 -19.2587 649.566 -15.6404 634.678C-10.3456 613 -0.153362 618.094 4.7625 596.416C9.67835 574.737 8.24357 570.959 8.24357 570.959C8.24357 570.959 11.4135 581.154 5.70125 600.397C1.2374 615.343 -7.01755 617.54 -11.4281 628.098C-11.8235 628.928 -18.2829 643.243 -18.4125 655.88Z" fill="#221F1F"/>
<path d="M51.8269 443.964C49.8508 447.735 38.3251 445.859 30.8503 444.574C4.78352 439.984 -1.33727 432.755 -1.33727 432.755C-1.33727 432.755 -1.7962 422.653 -1.08687 404.901C-0.88537 399.406 -3.23783 368.674 -3.10189 366.502L-6.12379 361.948L-8.3079 340.881C-8.3079 340.881 -7.37476 340.766 -5.7999 340.478C-6.48318 332.984 -7.12308 325.651 -6.884 322.97C-6.46229 316.761 -15.8973 278.682 25.5481 282.97C70.2726 287.543 86.2047 340.737 86.2047 340.737C86.2047 340.737 88.804 351.879 80.3445 380.955C74.0585 402.66 63.7698 421.659 51.8269 443.964Z" fill="#F8C7AC"/>
<path d="M12.8837 355.329C11.3618 364.727 17.2608 373.428 26.0034 374.817C34.7461 376.206 43.0978 369.782 44.5468 360.369C46.0687 350.97 40.1698 342.27 31.4271 340.881C22.6844 339.492 14.4056 345.931 12.8837 355.329Z" fill="white"/>
<path fill-rule="evenodd" clip-rule="evenodd" d="M69.1944 353.98C64.6375 358.139 59.8872 370.752 65.3877 375.049C75.8352 383.38 88.3298 362.097 79.661 353.595C76.8829 350.834 73.3715 350.199 69.1944 353.98Z" fill="white"/>
<path d="M30.3628 347.642C40.0517 349.601 44.5175 353.765 44.5175 353.765C43.118 347.188 38.1881 341.945 31.4999 340.895C25.4821 339.906 19.6893 342.677 16.122 347.567C16.0197 347.698 15.9174 347.829 15.815 347.96C15.815 347.96 20.3825 345.623 30.3628 347.642Z" fill="#F3A478"/>
<path d="M15.8016 347.805C17.0082 347.472 18.2462 347.364 19.4842 347.256C20.7084 347.218 21.9917 347.265 23.2019 347.297C25.6817 347.446 28.1059 347.875 30.5893 348.389C32.9997 348.888 35.4415 349.611 37.7825 350.46C40.1096 351.379 42.4228 352.367 44.5207 353.675C42.7529 351.853 40.509 350.514 38.2235 349.386C35.8511 348.312 33.4232 347.518 30.8667 346.989C28.3833 346.476 25.7853 346.156 23.1909 346.202C21.8937 346.225 20.6557 346.333 19.3899 346.581C18.1242 346.829 16.9176 347.162 15.8016 347.805Z" fill="#231F20"/>
<path fill-rule="evenodd" clip-rule="evenodd" d="M67.5289 355.842C68.0552 355.114 68.6397 354.474 69.2094 353.907C73.3136 350.111 76.8832 350.833 79.6759 353.521C80.9414 354.763 81.7689 356.295 82.246 358.06C82.246 358.06 79.567 356.684 76.9886 355.935C74.3956 355.259 67.5289 355.842 67.5289 355.842Z" fill="#F3A478"/>
<path d="M82.2546 358.156C81.2711 357.365 80.1135 356.684 78.928 356.145C78.3718 355.883 77.7425 355.606 77.0992 355.399C76.383 355.177 75.7117 355.112 75.1135 355.062C73.8441 354.946 72.5467 354.972 71.2214 355.139C69.9831 355.25 68.7167 355.503 67.4225 355.897C70.0064 356.284 72.5001 356.359 74.966 356.575C75.5642 356.625 76.1624 356.675 76.6735 356.781C77.2577 356.902 77.828 357.093 78.4852 357.229C79.7997 357.501 80.9541 357.814 82.2546 358.156Z" fill="#231F20"/>
<path d="M64.9019 390.571C64.9019 390.571 61.1216 399.513 48.6645 396.993C48.6645 396.993 59.2577 405.354 64.9019 390.571Z" fill="#F3A478"/>
<path d="M72.1074 361.697C69.7336 360.686 66.9318 362.166 65.7743 364.889C64.6168 367.613 65.6014 370.618 67.9752 371.628C70.3489 372.639 73.1507 371.159 74.3082 368.436C75.4657 365.712 74.4811 362.707 72.1074 361.697Z" fill="#231F20"/>
<path d="M66.9683 366.507C65.7981 366.007 65.2941 364.562 65.8425 363.278C66.3908 361.995 67.7839 361.36 68.9541 361.86C70.1242 362.36 70.6282 363.806 70.0799 365.089C69.5315 366.372 68.1384 367.007 66.9683 366.507Z" fill="white"/>
<path d="M29.939 354.987C26.7361 353.202 22.6811 354.505 20.7787 357.911C18.9639 361.26 20.0918 365.431 23.3094 367.144C26.5122 368.929 30.5673 367.626 32.4696 364.219C34.2844 360.871 33.1566 356.699 29.939 354.987Z" fill="#231F20"/>
<path d="M21.8873 359.957C20.2265 359.247 19.4554 357.325 20.165 355.665C20.8747 354.004 22.7963 353.233 24.4572 353.942C26.118 354.652 26.8891 356.574 26.1794 358.234C25.4698 359.895 23.5481 360.666 21.8873 359.957Z" fill="white"/>
<path d="M55.7502 416.322C56.0155 415.01 57.5405 410.845 53.159 408.139C48.7775 405.432 35.0742 412.822 27.0168 404.671C24.6898 402.304 30.2104 417.374 40.4894 422.789C45.0903 425.161 51.0066 425.902 54.2399 420.414C54.5911 419.803 55.485 417.633 55.7502 416.322Z" fill="#E55135"/>
<path d="M56.774 294.671C60.485 304.066 56.5198 310.923 70.4632 320.341C84.4067 329.758 86.653 349.018 86.653 349.018C86.653 349.018 94.3265 326.077 88.9737 314.303C83.6208 302.528 68.9522 291.447 52.6882 283.38C33.2647 273.688 16.7008 276.101 16.7008 276.101C16.7008 276.101 53.063 285.276 56.774 294.671Z" fill="#231F20"/>
<path d="M51.8149 416.283C51.8149 416.283 51.8641 413.791 50.2181 413.306C46.416 412.234 43.5093 414.982 39.853 413.939C39.3578 413.763 41.8886 416.247 48.0808 417.5C51.2861 418.148 51.8149 416.283 51.8149 416.283Z" fill="#753528"/>
<path d="M26.8101 346.696C26.0902 346.47 25.3843 346.173 24.6784 345.875C23.9725 345.577 23.2806 345.208 22.676 344.782C22.0715 344.357 21.4075 343.844 20.9917 343.234C20.5025 342.609 20.174 341.942 20.0937 341.179C20.174 341.942 20.4151 342.665 20.8903 343.362C21.2922 344.044 21.8827 344.541 22.5467 345.054C23.1372 345.551 23.8152 345.992 24.5071 346.362C25.199 346.731 25.8909 347.1 26.6702 347.413L26.8101 346.696Z" fill="#231F20"/>
<path d="M20.684 346.523C19.6578 346.308 18.5862 345.935 17.5426 345.418C17.0574 345.167 16.5862 344.845 16.1883 344.538C15.8044 344.16 15.4344 343.71 15.3123 343.164C15.3611 343.695 15.6299 344.272 16.0138 344.651C16.3838 345.101 16.855 345.423 17.3262 345.745C18.2686 346.389 19.3262 346.834 20.471 347.223L20.684 346.523Z" fill="#231F20"/>
<path d="M77.0606 356.666C77.53 356.615 78.0133 356.492 78.4967 356.369C78.98 356.246 79.3898 356.108 79.8136 355.898C80.2374 355.687 80.6612 355.477 80.9659 355.092C81.3302 354.794 81.5613 354.393 81.7329 353.905C81.3442 354.722 80.5561 355.23 79.663 355.491C79.2532 355.63 78.7699 355.753 78.3005 355.804C77.8312 355.855 77.3618 355.906 76.98 355.9L77.0606 356.666Z" fill="#231F20"/>
<path d="M80.5277 357.529C81.2309 357.453 81.8746 357.289 82.5322 357.053C82.8541 356.972 83.1899 356.818 83.4663 356.577C83.8021 356.423 84.0785 356.182 84.1484 355.823C84.019 356.095 83.7426 356.336 83.4208 356.418C83.085 356.571 82.8366 356.669 82.5287 356.679C81.899 356.771 81.2099 356.775 80.6082 356.724L80.5277 357.529Z" fill="#231F20"/>
<path d="M67.9822 348.351L67.8187 343.161C67.8187 343.161 72.4123 342.195 75.7911 343.485C80.2914 345.229 84.5362 350.486 84.5362 350.486C84.5362 350.486 73.0065 343.756 67.9822 348.351Z" fill="#231F20"/>
<path d="M46.2884 343.887L49.0691 338.762C49.0691 338.762 43.7275 335.179 37.113 333.765C28.9686 332.042 21.4839 335.306 21.4839 335.306C21.4839 335.306 40.6056 336.368 46.2884 343.887Z" fill="#231F20"/>
<path d="M-29.4323 538.52C-21.7083 525.826 -13.6005 500.019 -13.6005 500.019C-11.7378 508.055 -11.1701 511.385 -11.2378 516.06C-11.4834 533.021 -17.5212 536.129 -27.3343 544.743C10.5827 569.475 45.6133 557.844 45.2507 557.012C31.5297 525.877 43.9016 508.637 44.2225 508.55C64.8358 500.739 58.8584 487.928 58.8584 487.928C50.5509 458.463 52.2 451.462 51.8801 444.335C51.939 444.275 51.9371 444.205 51.8701 444.125C51.8737 444.195 51.877 444.265 51.8801 444.335C50.3796 445.879 9.41616 441.291 -0.57199 429.347C-11.4422 434.352 -17.858 430.558 -29.9709 443.956C-39.4686 454.547 -46.3198 533.221 -46.3198 533.221C-48.5027 550.968 -31.0534 541.184 -29.4323 538.52Z" fill="#E55135"/>
<path opacity="0.3" d="M23.8937 393.119C18.7841 392.086 15.1961 388.508 15.8797 385.128C16.5633 381.749 21.2597 379.847 26.3693 380.88C31.4789 381.914 35.0669 385.492 34.3833 388.871C33.6997 392.251 29.0034 394.153 23.8937 393.119Z" fill="#E55135"/>
<path opacity="0.5" d="M46.9909 422.511C45.5425 422.218 44.5267 421.198 44.722 420.232C44.9173 419.266 46.2498 418.721 47.6982 419.014C49.1466 419.307 50.1625 420.327 49.9671 421.293C49.7718 422.258 48.4393 422.804 46.9909 422.511Z" fill="white"/>
<path opacity="0.3" d="M65.8436 393.036C66.0541 390.122 69.7318 388.06 74.0749 388.332C75.4157 388.451 76.6541 388.702 77.7607 389.229C76.6458 392.492 75.3999 395.652 74.154 398.812C73.9208 398.841 73.6294 398.782 73.3961 398.811C68.9801 398.524 65.6332 395.951 65.8436 393.036Z" fill="#E55135"/>
<path d="M59.4524 489.867L58.8738 487.854C58.8738 487.854 59.2364 488.686 59.4524 489.867Z" fill="#E55135"/>
<path d="M57.0984 293.068C61.7967 297.582 58.35 320.62 28.3114 325.918C0.707958 330.799 13.4867 399.583 5.6413 421.124C-2.7026 444.005 -34.6439 432.843 -34.6439 432.843C-34.6439 432.843 -32.9665 365.694 -34.2127 348.987C-35.4589 332.28 -37.7544 282.147 0.932081 274.958C24.2489 270.651 49.3021 285.5 57.0984 293.068Z" fill="#231F20"/>
</svg>
