<svg width="157" height="52" viewBox="0 0 157 52" fill="none" xmlns="http://www.w3.org/2000/svg">
<g opacity="0.5">
<rect x="0.5" y="0.5" width="156" height="51" rx="9.5" fill="white" stroke="#2F2F2F"/>
<path d="M36.347 26.357C36.3611 25.2501 36.6509 24.1649 37.1897 23.2022C37.7284 22.2395 38.4984 21.4307 39.4281 20.8509C38.8375 19.9954 38.0583 19.2913 37.1525 18.7946C36.2466 18.2979 35.2391 18.0223 34.2098 17.9896C32.0143 17.7559 29.8858 19.3221 28.767 19.3221C27.6265 19.3221 25.9039 18.0128 24.049 18.0515C22.8491 18.0908 21.6798 18.4447 20.6549 19.0787C19.63 19.7126 18.7845 20.605 18.2008 21.669C15.6721 26.1093 17.5583 32.6352 19.9805 36.2244C21.1924 37.982 22.6087 39.9452 24.462 39.8756C26.2755 39.7993 26.9529 38.7027 29.142 38.7027C31.3107 38.7027 31.9462 39.8756 33.8371 39.8313C35.7831 39.7993 37.0092 38.066 38.1785 36.2918C39.0493 35.0394 39.7193 33.6553 40.1638 32.1908C39.0333 31.7058 38.0684 30.894 37.3897 29.8565C36.711 28.8191 36.3483 27.602 36.347 26.357Z" fill="#2F2F2F"/>
<path d="M32.776 15.6289C33.8371 14.337 34.3598 12.6765 34.2332 11C32.6122 11.1727 31.1148 11.9585 30.0394 13.2008C29.5136 13.8077 29.1109 14.5138 28.8543 15.2787C28.5978 16.0435 28.4923 16.8522 28.544 17.6584C29.3549 17.6669 30.157 17.4886 30.89 17.1371C31.6231 16.7855 32.2679 16.2699 32.776 15.6289Z" fill="#2F2F2F"/>
<path d="M61.0785 33.6435H56.2228L55.0567 37.1358H53L57.5992 24.2153H59.7361L64.3353 37.1358H62.2435L61.0785 33.6435ZM56.7257 32.032H60.5746L58.6772 26.3644H58.6241L56.7257 32.032Z" fill="#2F2F2F"/>
<path d="M74.2682 32.4263C74.2682 35.3536 72.7235 37.2344 70.3923 37.2344C69.8018 37.2657 69.2145 37.1277 68.6977 36.8363C68.1809 36.5448 67.7554 36.1116 67.4701 35.5863H67.4259V40.2521H65.5195V27.7158H67.3649V29.2826H67.3999C67.6984 28.7598 68.131 28.3288 68.6518 28.0356C69.1725 27.7423 69.7619 27.5977 70.3572 27.6172C72.7144 27.6172 74.2682 29.5071 74.2682 32.4263ZM72.3087 32.4263C72.3087 30.5191 71.337 29.2653 69.8543 29.2653C68.3977 29.2653 67.418 30.5456 67.418 32.4263C67.418 34.3243 68.3977 35.5954 69.8543 35.5954C71.337 35.5954 72.3087 34.3508 72.3087 32.4263Z" fill="#2F2F2F"/>
<path d="M84.4909 32.4263C84.4909 35.3536 82.9461 37.2344 80.6149 37.2344C80.0244 37.2657 79.4371 37.1277 78.9203 36.8363C78.4035 36.5448 77.9781 36.1116 77.6927 35.5863H77.6486V40.2521H75.7422V27.7158H77.5875V29.2826H77.6225C77.921 28.7598 78.3536 28.3288 78.8744 28.0356C79.3951 27.7423 79.9845 27.5977 80.5798 27.6172C82.9371 27.6172 84.4909 29.5071 84.4909 32.4263ZM82.5314 32.4263C82.5314 30.5191 81.5596 29.2653 80.077 29.2653C78.6204 29.2653 77.6406 30.5455 77.6406 32.4263C77.6406 34.3243 78.6204 35.5954 80.077 35.5954C81.5596 35.5954 82.5314 34.3508 82.5314 32.4263H82.5314Z" fill="#2F2F2F"/>
<path d="M91.2464 33.5359C91.3877 34.8172 92.6149 35.6585 94.2919 35.6585C95.8988 35.6585 97.0548 34.8172 97.0548 33.6619C97.0548 32.659 96.3576 32.0585 94.7066 31.647L93.0557 31.2436C90.7165 30.6705 89.6306 29.561 89.6306 27.7605C89.6306 25.5312 91.546 24 94.2659 24C96.9576 24 98.803 25.5312 98.8651 27.7605H96.9406C96.8254 26.4711 95.7745 25.6928 94.2388 25.6928C92.703 25.6928 91.6521 26.4803 91.6521 27.6264C91.6521 28.5398 92.3234 29.0773 93.9653 29.4888L95.3688 29.8383C97.9825 30.4653 99.0684 31.5301 99.0684 33.42C99.0684 35.8373 97.17 37.3512 94.1506 37.3512C91.3256 37.3512 89.4181 35.8728 89.2949 33.5358L91.2464 33.5359Z" fill="#2F2F2F"/>
<path d="M103.184 25.4868V27.7161H104.95V29.2473H103.184V34.4405C103.184 35.2472 103.537 35.6232 104.314 35.6232C104.524 35.6195 104.733 35.6045 104.941 35.5785V37.1005C104.592 37.1667 104.237 37.1966 103.882 37.1899C102.002 37.1899 101.268 36.4736 101.268 34.6467V29.2473H99.918V27.7161H101.268V25.4868H103.184Z" fill="#2F2F2F"/>
<path d="M105.971 32.4265C105.971 29.4626 107.692 27.6001 110.376 27.6001C113.068 27.6001 114.781 29.4625 114.781 32.4265C114.781 35.3985 113.077 37.2528 110.376 37.2528C107.675 37.2528 105.971 35.3985 105.971 32.4265ZM112.839 32.4265C112.839 30.3933 111.92 29.1933 110.376 29.1933C108.831 29.1933 107.913 30.4024 107.913 32.4265C107.913 34.4677 108.831 35.6586 110.376 35.6586C111.92 35.6586 112.839 34.4677 112.839 32.4265H112.839Z" fill="#2F2F2F"/>
<path d="M116.355 27.7159H118.174V29.3193H118.218C118.341 28.8185 118.63 28.376 119.037 28.066C119.444 27.7561 119.943 27.5977 120.452 27.6174C120.672 27.6166 120.891 27.6408 121.105 27.6895V29.4981C120.828 29.4122 120.538 29.3727 120.248 29.3813C119.971 29.3699 119.695 29.4194 119.439 29.5265C119.183 29.6335 118.952 29.7955 118.764 30.0014C118.575 30.2073 118.432 30.4522 118.346 30.7193C118.259 30.9863 118.231 31.2692 118.262 31.5486V37.136H116.355L116.355 27.7159Z" fill="#2F2F2F"/>
<path d="M129.894 34.3692C129.637 36.0792 127.995 37.2528 125.894 37.2528C123.193 37.2528 121.516 35.4168 121.516 32.4712C121.516 29.5164 123.202 27.6001 125.814 27.6001C128.384 27.6001 130 29.3904 130 32.2466V32.9091H123.44V33.0259C123.41 33.3726 123.453 33.7219 123.566 34.0505C123.679 34.3791 123.859 34.6796 124.096 34.9319C124.332 35.1843 124.618 35.3828 124.936 35.5142C125.254 35.6456 125.596 35.7069 125.939 35.6941C126.389 35.737 126.841 35.6311 127.228 35.3924C127.614 35.1537 127.914 34.7948 128.083 34.3692L129.894 34.3692ZM123.449 31.5577H128.092C128.11 31.246 128.063 30.9341 127.956 30.6415C127.848 30.3489 127.682 30.082 127.468 29.8575C127.254 29.633 126.997 29.4557 126.713 29.3369C126.428 29.2181 126.122 29.1602 125.814 29.1669C125.504 29.165 125.196 29.2255 124.909 29.3449C124.622 29.4643 124.36 29.6402 124.141 29.8625C123.921 30.0847 123.746 30.349 123.628 30.6399C123.509 30.9309 123.448 31.2428 123.449 31.5577V31.5577Z" fill="#2F2F2F"/>
<g opacity="0.5">
<path d="M59.3046 14.4142H60.6241C60.5843 13.0152 59.3002 12 57.4582 12C55.6383 12 54.2435 13.0024 54.2435 14.5081C54.2435 15.7237 55.1468 16.436 56.6036 16.8156L57.6751 17.0972C58.6448 17.3445 59.3932 17.6517 59.3932 18.428C59.3932 19.281 58.5474 19.8441 57.3829 19.8441C56.3291 19.8441 55.4523 19.3919 55.3726 18.4408H54C54.0886 20.0232 55.3594 21 57.3918 21C59.5216 21 60.7481 19.9209 60.7481 18.4408C60.7481 16.8668 59.2913 16.2569 58.1401 15.9839L57.2545 15.7621C56.546 15.5872 55.6029 15.2673 55.6073 14.4313C55.6073 13.6891 56.3114 13.1389 57.4272 13.1389C58.4677 13.1389 59.2072 13.6081 59.3046 14.4142Z" fill="black"/>
<path d="M64.7676 20.9872C66.6849 20.9872 67.938 19.6351 67.938 17.609C67.938 15.5701 66.6849 14.218 64.7676 14.218C62.8503 14.218 61.5972 15.5701 61.5972 17.609C61.5972 19.6351 62.8503 20.9872 64.7676 20.9872ZM64.772 19.9166C63.5189 19.9166 62.9345 18.863 62.9345 17.6047C62.9345 16.3507 63.5189 15.2844 64.772 15.2844C66.0163 15.2844 66.6007 16.3507 66.6007 17.6047C66.6007 18.863 66.0163 19.9166 64.772 19.9166Z" fill="black"/>
<path d="M71.9065 20.9872C73.8238 20.9872 75.0769 19.6351 75.0769 17.609C75.0769 15.5701 73.8238 14.218 71.9065 14.218C69.9893 14.218 68.7362 15.5701 68.7362 17.609C68.7362 19.6351 69.9893 20.9872 71.9065 20.9872ZM71.911 19.9166C70.6579 19.9166 70.0734 18.863 70.0734 17.6047C70.0734 16.3507 70.6579 15.2844 71.911 15.2844C73.1552 15.2844 73.7397 16.3507 73.7397 17.6047C73.7397 18.863 73.1552 19.9166 71.911 19.9166Z" fill="black"/>
<path d="M77.5046 16.9649C77.5046 15.9199 78.1688 15.3227 79.0898 15.3227C79.9886 15.3227 80.5332 15.89 80.5332 16.8412V20.855H81.8572V16.6877C81.8572 15.0668 80.9318 14.218 79.5414 14.218C78.5186 14.218 77.85 14.6744 77.5356 15.3697H77.4514V14.3033H76.1806V20.855H77.5046V16.9649Z" fill="black"/>
<path d="M89.0494 20.9872C90.9666 20.9872 92.2197 19.6351 92.2197 17.609C92.2197 15.5701 90.9666 14.218 89.0494 14.218C87.1321 14.218 85.879 15.5701 85.879 17.609C85.879 19.6351 87.1321 20.9872 89.0494 20.9872ZM89.0538 19.9166C87.8007 19.9166 87.2162 18.863 87.2162 17.6047C87.2162 16.3507 87.8007 15.2844 89.0538 15.2844C90.298 15.2844 90.8825 16.3507 90.8825 17.6047C90.8825 18.863 90.298 19.9166 89.0538 19.9166Z" fill="black"/>
<path d="M94.6474 16.9649C94.6474 15.9199 95.3116 15.3227 96.2326 15.3227C97.1314 15.3227 97.6761 15.89 97.6761 16.8412V20.855H99V16.6877C99 15.0668 98.0746 14.218 96.6842 14.218C95.6614 14.218 94.9928 14.6744 94.6784 15.3697H94.5943V14.3033H93.3235V20.855H94.6474V16.9649Z" fill="black"/>
</g>
</g>
</svg>
