<svg width="28" height="28" viewBox="0 0 28 28" fill="none" xmlns="http://www.w3.org/2000/svg">
<path d="M22.7659 2H5.23407C3.44798 2 2 3.44791 2 5.23405V22.7658C2 24.552 3.44792 25.9999 5.23407 25.9999H13.8807L13.8954 17.4236H11.6673C11.3777 17.4236 11.1427 17.1895 11.1416 16.8999L11.1309 14.1354C11.1298 13.8443 11.3655 13.6077 11.6567 13.6077H13.8807V10.9365C13.8807 7.83661 15.774 6.14869 18.5393 6.14869H20.8085C21.0988 6.14869 21.3342 6.38406 21.3342 6.67444V9.00547C21.3342 9.29573 21.099 9.53104 20.8088 9.53122L19.4162 9.53187C17.9123 9.53187 17.6211 10.2465 17.6211 11.2952V13.6078H20.9256C21.2405 13.6078 21.4848 13.8827 21.4477 14.1954L21.12 16.9599C21.0887 17.2244 20.8644 17.4237 20.598 17.4237H17.6359L17.6211 26H22.766C24.5521 26 26 24.5521 26 22.766V5.23405C25.9999 3.44791 24.552 2 22.7659 2Z" fill="#2F2F2F"/>
</svg>
