<svg width="28" height="28" viewBox="0 0 28 28" fill="none" xmlns="http://www.w3.org/2000/svg">
<path d="M19.3767 2H8.62299C4.97108 2 2 4.97122 2 8.62313V19.3769C2 23.0289 4.97108 26 8.62299 26H19.3767C23.0289 26 26 23.0288 26 19.3769V8.62313C26.0001 4.97122 23.0289 2 19.3767 2ZM23.8707 19.3769C23.8707 21.8548 21.8548 23.8706 19.3769 23.8706H8.62299C6.14522 23.8707 4.1294 21.8548 4.1294 19.3769V8.62313C4.1294 6.14537 6.14522 4.1294 8.62299 4.1294H19.3767C21.8546 4.1294 23.8706 6.14537 23.8706 8.62313V19.3769H23.8707Z" fill="#2F2F2F"/>
<path d="M14.0006 7.81616C10.5906 7.81616 7.81641 10.5903 7.81641 14.0004C7.81641 17.4102 10.5906 20.1843 14.0006 20.1843C17.4106 20.1843 20.1848 17.4102 20.1848 14.0004C20.1848 10.5903 17.4106 7.81616 14.0006 7.81616ZM14.0006 18.0547C11.7649 18.0547 9.9458 16.2359 9.9458 14.0002C9.9458 11.7643 11.7647 9.94542 14.0006 9.94542C16.2365 9.94542 18.0554 11.7643 18.0554 14.0002C18.0554 16.2359 16.2363 18.0547 14.0006 18.0547Z" fill="#2F2F2F"/>
<path d="M20.4444 6.01025C20.0341 6.01025 19.6311 6.17635 19.3413 6.46736C19.0502 6.75696 18.8828 7.16013 18.8828 7.57181C18.8828 7.98222 19.0503 8.38524 19.3413 8.67626C19.6309 8.96586 20.0341 9.13337 20.4444 9.13337C20.8561 9.13337 21.2578 8.96586 21.5488 8.67626C21.8398 8.38524 22.0059 7.98207 22.0059 7.57181C22.0059 7.16013 21.8398 6.75696 21.5488 6.46736C21.2592 6.17635 20.8561 6.01025 20.4444 6.01025Z" fill="#2F2F2F"/>
</svg>
