<svg width="260" height="236" fill="none" xmlns="http://www.w3.org/2000/svg">
  <path opacity=".4" fill-rule="evenodd" clip-rule="evenodd" d="M.5 145.6C.5 74.6 58.8 16 130.5 16c71.9 0 128.7 58.4 128.7 133.9 0 24-5.8 46.8-17 69.3H21.9A126 126 0 01.5 145.6z" fill="#0D6596"/>
  <path d="M118.8 185.6s7.8 4.2 8.4 11.9c1 12.5-7.6 25-11.5 34.4-4.1 9.3-1.6-22-3-13-.8 4.4 0 10.6 0 10.6l-17.7-1s1.7-3.6 2.7-11.1c1-7.5 10 19.5 8 14.8-2-4.7-6-25.5-6-25.5l.6-14 18.5-7.1z" fill="#6B64B2"/>
  <path d="M90.5 187.9s-7.2 10.3-9 18.2c-4 19.2 3 23.8 3 26.7 0 6.7-.1-28 11.5-20 8.6 5.9 13 19 13 19s16.4-3.4 14.8-7c-1.6-3.5-5-18.5-20.8-25.4-11.1-4.8-2.2 32-3.3 28.6-1-3.6 3.3-11.7 3.3-11.7l-4.4-24-8.1-4.4z" fill="#6B64B2"/>
  <path d="M129.9 66.5s1.6-19 .6-26.7a32.2 32.2 0 00-25.1-26c-9.6-1.5-23.3.9-32.3 6a33.9 33.9 0 00-14.7 36.6c2 9.2 8.9 22.7 8.9 22.7l62.6-12.6z" fill="#231F20"/>
  <path d="M72.4 124.9c-12.7-22.6-7.8-50-7.8-50l34.8 22.3 2.5 3.7 1-3.2 28-31 14.6 30.8a36 36 0 01-27.6 51l-1 .2c-6 .8-10.7 1-14.5 1l-3.2.6c-32 4.8-46.6-10.5-46.6-10.5s23-9.1 19.8-15z" fill="#231F20"/>
  <path d="M122.4 122.4c-.3 2.7-7.4 7-12.1 8-22.7 5-22-3.7-22-3.7l-6.6-17.5C79 102 74 88 73.7 86.6l-2.8-2.1L65.2 72s.6-.2 1.5-.8c-2-4.5-3.8-8.8-4.2-10.5-1-4 2.2-28.8 27.9-35.1C118 19 126 50.6 126 50.6l.2 15.3 1.7-1s-2 7.8-1.7 12.7c.7 14.8-1.5 28.6-4 44.8z" fill="#F9C8AD"/>
  <path fill-rule="evenodd" clip-rule="evenodd" d="M61.2 79a9.6 9.6 0 005 7 10 10 0 005.5 1.6c1-.1 2.2-.7 3.2-1.1.2-.1.3-.8.2-1.1-.4-1.2-1.1-2.3-1.6-3.6-.7-1.5-1.2-2.8-2-4.2-.2-.7-.8-1.2-1.2-2l-4-4.1c-1-1.3 0 .7-1.5.3-2.3-.4-3.2.2-3.8 2.8l-.1 2.2.3 2.2zm6.2 3.8c-.8-.3-1-.6-.7-1.1l.8-1.6c.2-.6 0-1-.3-1-.8-.2-1.6-.3-2.2-.6l-.7-.6c.2-.1.4-.4.7-.4.8 0 1.6.3 2.3.6 2 .6 3 2.3 3.5 4.2l-.1.7h-.2l-1.6-2.6-1.5 2.4z" fill="#F9C8AD"/>
  <path fill-rule="evenodd" clip-rule="evenodd" d="M67.4 82.8l1.3-2.3c.4.9 1 1.8 1.6 2.7l.2-.1v-.7c-.3-2-1.2-3.7-3.4-4.2l-2.3-.6-.7.4.7.6c.8.2 1.6.3 2.2.6.6 0 .7.6.3 1l-.8 1.6c0 .4 0 .6.9 1z" fill="#F3A579"/>
  <path fill-rule="evenodd" clip-rule="evenodd" d="M134.5 66.6c-.2-.7-.3-1.5-.7-2.1-1.2-2.3-2.2-2.7-4.4-1.7a6.4 6.4 0 00-3.2 3.3c-.1.3-.3.7-.6 1l-.4.9-.8 2c-.3 1.7-.4 3-.8 4.7l-.7 3.9c0 .3.3.9.6 1 1 0 2.3.3 3.5.2a9.7 9.7 0 004.9-2.8c2.2-2.3 3.2-5 3-8.3a13 13 0 01-.4-2.1zm-6.6 5.6l-.8 3h-.2l-.3-.7c0-2 .3-4 2.2-5l2-1.1c.3-.1.5 0 .8.2-.2.2-.3.6-.6.7l-2 1.2c-.4.3-.4.7-.1 1L130 73c.4.4.3.7-.3 1.2l-2-2z" fill="#F9C8AD"/>
  <path fill-rule="evenodd" clip-rule="evenodd" d="M129.8 74l-2-1.8c-.1 1-.5 2-.7 3h-.2l-.3-.7c0-2 .3-4 2.2-5l2-1.1c.3-.1.5 0 .8.2-.2.2-.3.6-.6.7l-2 1.2c-.4.3-.4.7-.1 1L130 73c.4.4.3.7-.3 1.2z" fill="#F3A579"/>
  <path opacity=".3" d="M106.9 87.6s-.4 6.3-8.4 7.4c0 0 8.2 2.8 8.4-7.4z" fill="#E55135"/>
  <path d="M98.7 33c5 4.5 9.4 6.4 18.2 12.3 9 6 9.3 21 9.3 21s7-18.1-2.3-31.6c-12.2-17.5-32.4-10-32.4-10s1.6 3.6 7.2 8.4z" fill="#231F20"/>
  <path d="M89.7 34.9c-5 9-8 7.6-15.2 16.3-7.5 8.8-7 25.7-7 25.7s-12.7-14.4-6.2-32.7c7.5-21.2 31-19.5 31-19.5s.7 4.4-2.6 10.2z" fill="#231F20"/>
  <path d="M75.7 77.9c.9 5.4 5.7 9 10.6 8.2 4.9-1 8.2-6 7.3-11.4-1-5.4-5.7-9-10.6-8.2-5 .9-8.3 6-7.3 11.4z" fill="#fff"/>
  <path d="M82.8 70.5c5.4-1.6 8.8-.5 8.8-.5a9 9 0 00-10-3.5c-5.8 2.5-5.8 7.9-6 8 0 0 1.6-2.3 7.2-4z" fill="#F3A579"/>
  <path d="M75.6 74.5a11 11 0 013.6-2.1c1.3-.5 2.6-1.1 4-1.4 1.3-.4 2.8-.6 4-.8 1.4-.2 2.8-.3 4.3-.2-1.4-.6-2.8-.8-4.3-.8s-3 .3-4.4.6c-1.4.4-2.8 1-4.1 1.8a8.6 8.6 0 00-3.1 2.9z" fill="#282832"/>
  <path d="M84.9 76c-2 .2-3.5 2-3.4 4.3.2 2 2 3.8 4 3.7 2-.2 3.6-2.1 3.5-4.3-.3-2.3-2.1-4-4.1-3.7z" fill="#231F20"/>
  <path d="M82.3 83.5c-.3-1 .3-2 1.2-2.3 1-.3 1.9.4 2.2 1.4.3 1-.3 2-1.2 2.3-1 .2-2-.4-2.2-1.4z" fill="#fff"/>
  <path d="M80.7 70.9c-.8 0-1.7.2-2.6 0-.8 0-1.8-.4-2.2-1.1.5.9 1.3 1.4 2.2 1.5.9.2 1.7.2 2.8.2l-.2-.6zM77.6 72.6c-.5.2-1.2.3-1.8.3-.6 0-1.3-.1-1.7-.6.2.3.4.5.8.6.4 0 .6.3.9.2a6 6 0 001.9 0l-.1-.5z" fill="#282832"/>
  <path d="M111.9 61.6c-5 .4-8.6 5.2-8 10.7.4 5.5 4.9 9.5 9.9 9 4.9-.4 8.6-5.2 8-10.7-.5-5.5-5-9.5-10-9z" fill="#fff"/>
  <path d="M121.2 67.8c-.1-2.3-3.7-6.2-7.6-6.5-4.2-.4-7.3 2.2-9.2 6 0 0 2.8-2 8.9-1.7 6.2.2 7.9 2.2 7.9 2.2z" fill="#F3A579"/>
  <path d="M104.5 67.3c1.4-.5 2.3-.5 3.8-.7h.2l4.5-.2c1.5 0 3 .2 4.6.4 1.5.2 2.4.2 3.7 1a4.5 4.5 0 00-2.1-1.5c-2-1-4.1-1.2-6.3-1.3-1.5 0-3.1 0-4.5.3h-.5l-3.4 2z" fill="#282832"/>
  <path d="M108.6 76.3c.7 2 2.8 3.2 4.8 2.5 2-.7 3-3 2.4-5-.7-2.1-2.8-3.2-4.8-2.5a3.8 3.8 0 00-2.4 5z" fill="#231F20"/>
  <path d="M110.7 79.9c-1-.1-1.7-1.1-1.5-2.1 0-1 1-1.8 2-1.7 1 0 1.7 1 1.5 2-.2 1.2-1.1 1.9-2 1.8z" fill="#fff"/>
  <path d="M115.5 66.4c1-.2 2-.4 2.9-1 .8-.4 1.7-1.1 2-2-.4.9-1.3 1.5-2.1 1.8-1 .3-2 .5-2.7.5l-.1.7zM119.3 67.2c.8-.1 1.4-.2 2-.5.5-.1.8-.3 1-.5.4-.2.7-.5.8-1-.4.8-1 1-1.7 1.2h-2l-.1.8z" fill="#282832"/>
  <path opacity=".3" d="M82.3 92.7c-.3-2 2-4 5.3-4.3 3.2-.4 6 .8 6.4 2.8.3 2-2 3.9-5.3 4.3-3.2.4-6-1-6.4-2.8zM109.5 87.4c-.3-2 2-3.8 5.3-4.2 3.2-.4 6 .8 6.4 2.7.3 1.9-2 3.8-5.3 4.2-3.2.4-6.1-.8-6.4-2.7z" fill="#E55135"/>
  <path d="M71.7 136.3c1.2-18 9.2-14.5 14.8-13.7-.3.2 3.3 5.6 17.8 6.6a24 24 0 0018-6.6c4 1.2 15 3.6 15 19.8l-8 9.7c.7 2.8 0 7.6-7.4 12.4-.2 0-9 7.9 3.2 25.9.2.3-4.2 6-17.2 7.9-13 2-25.5-.3-25.2-.7 12.4-18 4.8-33 4.7-33.2-7.5-5-8-9.6-7.5-12.4l-8.2-15.7z" fill="#434CBA"/>
  <path d="M95.6 155.7l-1.1-1.1c-.2-.2-.3-.7-.1-1l9.5-20v-.6c-.6-1.8-6-7.3-5.5-9.4 0 0 0-1.7 1.2-1l5.9 3.7c.2.6 1 .7 1.3.2 2.9-3.6 12.7-15.4 15.5-15.7 3.2-.3-4.2 9.4-4.2 9.4l5.4-2.7c.6-.3 1.2.2 1 .9l-.3 2.3-.2.4-1.7 1.7-1.3 1.3-1.5 1.5c-.2.2-.3.7-.1 1 .7 1.2 2 4.4-.3 6a191.6 191.6 0 00-7.7 6l-9.4 22.2c-.2.6-1 .7-1.3.2l-5.1-5.3z" fill="#FFD9D8"/>
  <path opacity=".3" d="M98.5 123.4s0-1.7 1.2-1l5.9 3.7c.7.4 1 .7 1.3.2 2.9-3.6 12.7-15.4 15.5-15.7 0 0-14.2 17.4-16.2 18-2 .5-7.7-5.2-7.7-5.2z" fill="#E55135"/>
  <path d="M95.6 155.7l-1.1-1.1c-.2-.2-.3-.7-.1-1l9.5-20v-.6s.9.3.7 1.8c-.2 1.5-9 20.9-9 20.9z" fill="#EF8F60"/>
  <path d="M109.4 167.9L97.8 162l-4.2 5.8 12.6 6.9 3.2-7z" fill="#F3A478"/>
  <path d="M105.9 164.3l11.7 3.8s1.6-4.8 2.9-6.8c1.7-2.7 6.6-4.4 7.8-9.8.4-2-.1-5.7-.6-7.8l-.3-1.5c-.7-3.2-1-17.2-4-19.5 4 1.2 17.2 1 15.2 19.8 0 0-6.5 26.5-13.1 35.8-4.6 6.6-24.7-5.7-24.7-5.7l5-8.3z" fill="#6B64B2"/>
  <path d="M82.2 171L94 151.4l10 8.5s-10.7 19.8-15.1 21c-7.4 1.8-6.7-10-6.7-10z" fill="#E55135"/>
  <path d="M71.7 137.3c.7-18.2 8.7-15.5 14.4-14.7 0 0-1.5.8-2 6.8a73 73 0 00.8 20 757 757 0 005.8 26.9c.6 1.8 0 3-1 3.9-1.8 1.6-6 1-8.8-2.2-10.3-11.2-9.2-40.7-9.2-40.7z" fill="#E55135"/>
  <path d="M61.4 205.6l-8.2 2.2c-3.7 0 8.2-2.2 8.2-2.2z" fill="#B4CAD1"/>
  <path d="M105.2 57.5V53s4.5-.2 9 1.2c5.7 1.8 9 6 9 6s-9.4-4.2-18-2.7zM88 59l-1-4.3s-4.4.8-8.5 3.2c-5.1 2.9-7.5 7.8-7.5 7.8s8.2-6.2 17-6.6z" fill="#231F20"/>
  <path d="M98 101c4.2.5 5 .4 9.3-1 1.7-.4 3.5-.8 4.7-.5.8.9-1 8.6-7.5 9.3-5.8.6-11-5-11.4-7.5 1.6-.2 3.4-.3 5-.2z" fill="#E55135"/>
  <path opacity=".5" d="M104.3 107.9c.8-.1 1.4-.3 1.4-.6 0-.2-.7-.3-1.5-.2-.8 0-1.4.3-1.3.5 0 .2.6.3 1.4.3z" fill="#fff"/>
  <path d="M110.6 101c0 .5-1.6 4.9-6.5 5.4-3.5.4-8-1.8-8.4-3.7-.3-1 2.7-.2 7.7-.6 2.7-.2 6-1.6 6.9-1.4.2 0 .3 0 .3.3z" fill="#753528"/>
  <path d="M110.6 101a23.4 23.4 0 01-15 1.7c-.2-1 2.8-.2 7.8-.6 2.7-.2 6-1.6 6.9-1.4.2 0 .3 0 .3.3z" fill="#fff"/>
  <path d="M171.4 202.2s-4.2 5.9-5 7.4c0 0 3.8 7.5 5.5 8.7 0 0-4.2.3-4.8 2.6-.6 2.2 3.7 5.9 9.2 3.7l1.3-.8-6.2-21.6z" fill="#FFD9D8"/>
  <path d="M160.6 141.3l-2.2 4.8s-2.7 33.4.3 44c3 10.6 10.9 24.9 10.9 24.9l7.7-3.1-16.7-70.6z" fill="#FF7769"/>
  <path d="M214.7 163.2c-2.6 33.2 10.2 60.5 10.2 60.5-24.2 19.9-48 3.2-48 3.2s-1.8-3.2-8.3-28.6c-7.3-28.2-8-57.1-8-57.1l2-5.4 47.6-4.5 1 4.6-1 1 .8-.3" fill="#F7513F"/>
  <path d="M202.2 19.4c-32.5-3.5-39 14.6-41.5 25-2.8 11.4-2.6 29.9-2.6 29.9l2.6 1.6-2.2-1c-.4 0-.8-.3-1.1-.5-2.2-1-3.3 0-3.1 2.6 1 13 8.6 13.6 9.3 14.3l-.2.3c-2-.1-3.1-1.2-4.2-2.6.2 6.4 1 33.9 3.8 48l.6.2c.3 0 .8 0 1 .2 2 .3 3.9.8 5.9 1 2.6.4 5.2.7 7.8.8 2.6 0 5 .2 7.7 0 2.5 0 5-.2 7.5-.7l8.5-2c2.5-.6 5-1.1 7.3-2.3 1-.6 1-1.2 1.2-2.1l1-9.3c.4-3.7 1.8-7.1 2-11 .2-3 1-6 1.7-9.1.2-1.2.7-2.5.9-3.8l1.2-7 1.2-5.4 1.6-7.8.7-4.2 2.8-2.7 4.6-14.1-1.8-.6c1.6-5 3-10 3.2-11.8.3-4.3 5-22.5-27.4-26z" fill="#FACAAD"/>
  <path fill-rule="evenodd" clip-rule="evenodd" d="M240 57.4c0-1-.1-2-.5-2.8-1.1-3.1-2.3-3.8-5.2-3a9 9 0 00-4.8 3.9c-.4.8-1.1 1.5-1.6 2.2-.6.9-1.1 1.7-1.5 2.7-.7 1.9-1.1 3.8-1.8 5.8-.4 1.7-1.1 3.2-1.5 4.9-.1.3.2 1.2.6 1.3 1.5.4 2.9.9 4.4.9 2.6-.1 4.8-1.2 6.8-2.8 3.2-2.6 5-6 5.2-10.2v-3zm-9.3 6l-1.6 3.8h-.3c-.1-.3-.3-.6-.2-1 .3-2.6 1-5 3.7-6l3-1.1c.2-.1.6.2.9.4-.2.2-.4.7-.8.8l-2.8 1.2c-.7.3-.8.8-.3 1.5l1.3 1.9c.4.7.3 1-.7 1.5l-2.2-3z" fill="#FACAAD"/>
  <path fill-rule="evenodd" clip-rule="evenodd" d="M232.8 66l-2.1-2.8A39 39 0 01229 67h-.3c-.1-.3-.3-.6-.2-1 .3-2.6 1-5 3.7-6l3-1.1c.2-.1.6.2.9.4-.2.2-.4.7-.8.8l-2.8 1.2c-.7.3-.8.8-.3 1.5l1.3 1.9c.3.6.2.9-.8 1.4z" fill="#F3A97A"/>
  <path d="M196.6 52.5c-6-.2-11.1 4.9-11.4 11.5-.2 6.6 4.4 12.2 10.4 12.4 6 .2 11-5 11.4-11.5.2-6.6-4.3-12-10.4-12.4z" fill="#fff"/>
  <path fill-rule="evenodd" clip-rule="evenodd" d="M169.8 56.2c2.5 3.5 3.9 12.7-.3 14.8-8 4.2-13.5-12-6.6-16.6 2.3-1.3 4.7-1.3 6.9 1.8z" fill="#fff"/>
  <path d="M154.6 78.8s2.3 11.9 17.9 11.9c-.1 0-14.8 7.7-18-12z" fill="#F3A97A"/>
  <path fill-rule="evenodd" clip-rule="evenodd" d="M240.3 46.7c2-5 5.6-13 5.6-13.8 0-1.3-9.5-21.8-11.5-22.2-2-.6-11-.1-11-.1a36.7 36.7 0 01-3.7-6.5c-22-5.4-33.7-3.8-38.3-2.6l-1.5.3c-.3 0-.7.2-1 .4-17.2-5.8-23 20-35.2 12.3-1.2 21.8 24.9 16.9 24.9 16.9s.7-.8 4.8-4a40.5 40.5 0 0137.5-5c12.5 6 16 12.4 16 12.4s-2.5 3.9-4.4 9.8c-2 5.9-.1 12.8-.1 12.8l6.5 1.5c3-4.1 8.6-6.4 8.6-6.4l1-2 .8-1.7 1-2.1z" fill="#FED35E"/>
  <path fill-rule="evenodd" clip-rule="evenodd" d="M228.8 59l-6.5-1.5s-1.8-7 0-12.8c2-6 4.5-9.8 4.5-9.8s-3.3-6.4-16-12.4c-4.1-2-23.3-6.7-37.5 5l-4.8 4s-24.5 7.5-25-17c4 10 30 4.2 30 4.2s9.6-5.6 22.4-5.1c12.8.6 30.4 14.5 30.7 21.3 0 1.3 2.8 7.3 8.7 5.8 5.4-1.2 10.2-10.4 10.4-8 0 1.7-7.1 18-8.5 20-3.6 5.9-8.4 6.3-8.4 6.3z" fill="#F7BE60"/>
  <path d="M162.8 66.6c.3 2 2 3.3 3.8 3 1.7-.3 2.8-2.2 2.3-4.2-.3-2-2.1-3.3-3.8-3-1.6.3-2.6 2.2-2.3 4.2z" fill="#0094C5"/>
  <path d="M166 64.9c-.1-1 .5-2 1.3-2 .9-.1 1.7.5 1.8 1.5.2 1-.4 1.9-1.2 2-.8 0-1.7-.6-1.8-1.5z" fill="#fff"/>
  <path d="M189.5 69.6c.8 2.6 3.3 4 5.7 3.2a4.8 4.8 0 002.9-6c-.8-2.5-3.3-4-5.7-3.1a4.6 4.6 0 00-3 5.9z" fill="#0094C5"/>
  <path d="M196.6 68.3c-1.2 0-2.2-1-2.2-2.3 0-1.2 1-2.2 2.3-2.2 1.2 0 2.2 1 2.2 2.3 0 1.2-1.1 2.2-2.3 2.2z" fill="#fff"/>
  <path d="M192 43.9c-.6.2 6.3-9 15-3.5 8.5 6 4.2 16.8 4 16-.2.5.5-5-3.5-9.3-3.2-4.2-11.3-7.3-15.4-3.2zM175.9 44.6c.5.3-2.8-7.8-10.3-5.5-7.4 2.8-6.3 11.4-6.1 11 0 .4.6-4 4.4-6.2 3.3-2.5 9.8-3.1 12 .7z" fill="#FFDB71"/>
  <path fill-rule="evenodd" clip-rule="evenodd" d="M190.4 95c0 3.6-.7 8.6-2.6 12-1.2 2.3-3 4.3-5.4 5.4-2 .9-4.8.8-7.3 0-2.6-.6-6.1-2.8-7.3-4.4 12.9-1.3 14.2-5 22.6-13z" fill="#882E24"/>
  <path d="M187.8 107c-1.2 2.3-3 4.3-5.4 5.4-2 .9-4.8.8-7.3 0 1.8-2.5 4.9-4.5 8.6-5.2 1.4-.3 2.8-.3 4-.2z" fill="#CF6860"/>
  <path d="M164 168l-5.5-5.4-2.3-5s-4.6-4-6.1-4.8c-1.5-1-4.8-3-4.7.4 0 3 3.5 7 3.5 7s-12.8-2.2-15.4-2c-5.7.4-5.2 3.2-5.2 3.2l5.4 2s-2.2 2.9-2.1 4.4c.2 2.6 2.9 3.8 2.9 3.8s.4 2.3 2.6 4c2.2 1.8 23.6 2.8 23.6 2.8L164 168z" fill="#FACAAD"/>
  <path d="M211.3 135.9s4 4.8 8.6 11c4.6 6.4 2.7 52.2 2.7 52.2l-4 3-63.8-24.2 5.7-13.8 42.2 13.3V147l8.6-11.1z" fill="#FF7769"/>
  <path d="M13.9 230.3h243.3c.8 0 1.2-1 .6-1.6L237 208.3c-.3-.3-1-.6-1.5-.6H34.4c-.6 0-1 .2-1.5.6l-20.1 19.9c-.6.7 0 2 1 2z" fill="#DDEAEF"/>
  <path d="M14.5 235.3H256c2.3-.2 3.6-3 2.5-5.1l-.6-1.2-245.2-.4-1 1.5c-1.1 2 0 5 2.4 5.2h.3z" fill="#A5D8EC"/>
  <path d="M27.4 194.7l106.7 8.8c4.7.2 10-4.2 10-8.3l-6.4-76.7c-.3-4-4.4-7-9-6.7L18 118.2c-3.2.2-7.3 3-7 6.4l10.6 63.9a6 6 0 005.7 6.2z" fill="#B4CAD1"/>
  <path d="M22.7 197l111 6.5c4.8.2 8.7-2.8 8.7-6.7L136 120c-.3-4-4.4-7-9-6.7l-110.6 6.4a5.4 5.4 0 00-5.2 6l5.9 65a6 6 0 005.6 6.3z" fill="#F1F9FB"/>
  <path d="M58.2 220.4l7.6-1.3c1.6 0 7-3.8 14.7-3.4 22.2 1.5 4 10.6 4 10.6l-30-4.4 3.7-1.5z" fill="#B1C4CA"/>
  <path d="M58 219.9l7.7-1.3c1.6 0 5.4-3.8 13-3.5 24.4 1 5.9 10.7 5.9 10.7l-30.3-4 3.7-2z" fill="#F1F9FB"/>
  <path d="M55.2 221.8L85 226l-.1-55A13 13 0 0071 157.9c-6 .4-10.8 5.4-11.4 11.6l-4.5 52.3z" fill="#B1C4CA"/>
  <path d="M54.5 222l29.8 4.3v-55.5c0-7.6-6.3-13.5-13.6-13-6 .4-10.7 5.4-11.4 11.5L54.5 222z" fill="#FDFEFE"/>
  <path d="M74.3 129.8c-3.7-1-7.4 1.8-7.6 6-.2 4.6 2.5 7.4 6.6 7.2h.2l-.2 4.4c3.9-4 5.9-6.8 6-10a7.2 7.2 0 00-5-7.6z" fill="#00A5D7"/>
  <path d="M162.8 206.8c-.2 4.9 4.8 10.8 7 7.4 2.8-4.1 9-4 9-8.7 0-7-6.7-7.1-9-5.4-3 2.7-6.8 1.9-7 6.7z" stroke="#32BFE9" stroke-width="3.3" stroke-miterlimit="10"/>
  <path d="M159.4 221.9c-6.8 0-12.3-1.7-12.3-3.8 0-2.1 5.5-3.8 12.3-3.8 6.8 0 12.3 1.7 12.3 3.8-.1 2-5.6 3.8-12.3 3.8z" fill="#32BFE9"/>
  <path d="M147 194.7h24.7v23.2H147v-23.2z" fill="#32BFE9"/>
  <path d="M159.4 198.5c-6.8 0-12.3-1.7-12.3-3.8 0-2.1 5.5-3.8 12.3-3.8 6.8 0 12.3 1.7 12.3 3.8-.1 2-5.6 3.8-12.3 3.8z" fill="#66D6F3"/>
  <path d="M159.4 197.4c-6.2 0-11.2-1.2-11.2-2.7 0-1.5 5-2.7 11.2-2.7 6.2 0 11.2 1.2 11.2 2.7 0 1.5-5.1 2.7-11.2 2.7z" fill="#0094C5"/>
  <path d="M160 205.4a4 4 0 00-5 3.7c-.2 2.7 1.7 4.4 4.4 4.3h.2l-.1 2.7c2.6-2.4 3.9-4.1 4-6 0-2.3-1.3-4.2-3.5-4.7z" fill="#fff"/>
</svg>
