<svg width="520" height="621" viewBox="0 0 520 621" fill="none" xmlns="http://www.w3.org/2000/svg">
<g clip-path="url(#clip0)">
<path opacity="0.14" d="M451.896 4C413.852 4 382.941 35.1245 382.941 72.9468C382.941 111.951 408.304 137.56 449.122 137.56H451.896V181.292C495.488 142.288 520.059 111.557 520.059 75.3107C520.059 35.1246 489.94 4 451.896 4Z" fill="#0D6596"/>
<path opacity="0.14" d="M365.214 358.542C296.682 358.542 241 414.544 241 482.597C241 552.777 286.688 598.855 360.217 598.855H365.214V677.542C443.74 607.362 488 552.068 488 486.851C488 414.544 433.746 358.542 365.214 358.542Z" fill="#0D6596"/>
<path d="M261.353 92.646C179.503 92.646 113 159.357 113 240.424C113 324.024 167.566 378.913 255.384 378.913H261.353V472.646C355.139 389.046 408 323.179 408 245.49C408 159.357 343.202 92.646 261.353 92.646Z" stroke="#BED62F" stroke-width="6" stroke-linejoin="round"/>
<path opacity="0.14" d="M93.554 188.034C45.966 188.034 7.30078 226.922 7.30078 274.177C7.30078 322.91 39.026 354.906 90.084 354.906H93.554V409.546C148.082 360.813 178.816 322.418 178.816 277.131C178.816 226.922 141.142 188.034 93.554 188.034Z" fill="#0D6596"/>
</g>
<defs>
<clipPath id="clip0">
<rect width="520" height="621" fill="white"/>
</clipPath>
</defs>
</svg>
