<svg width="520" height="621" viewBox="0 0 520 621" fill="none" xmlns="http://www.w3.org/2000/svg">
<g clip-path="url(#clip0)">
<path opacity="0.14" d="M156.023 256.333C105.803 256.333 65 297.238 65 346.945C65 398.205 98.4797 431.86 152.361 431.86H156.023V489.333C213.566 438.074 246 397.687 246 350.051C246 297.238 206.243 256.333 156.023 256.333Z" fill="#0D6596"/>
<path opacity="0.14" d="M388.005 -7.7793C317.382 -7.7793 260 49.7444 260 119.647C260 191.733 307.082 239.063 382.855 239.063H388.005V319.887C468.928 247.801 514.539 191.005 514.539 124.015C514.539 49.7444 458.629 -7.7793 388.005 -7.7793Z" fill="#0D6596"/>
<path d="M246.358 351C163.954 351 97 418.238 97 499.944C97 584.204 151.936 639.527 240.35 639.527H246.358V734C340.78 649.74 394 583.353 394 505.051C394 418.238 328.763 351 246.358 351Z" stroke="#FA9379" stroke-width="5" stroke-linejoin="round"/>
<path d="M90 -40.7083C42 -40.7083 3 -1.73492 3 45.6251C3 94.4651 34.9999 126.532 86.4999 126.532H90V181.292C145 132.452 176 93.9717 176 48.5851C176 -1.73492 138 -40.7083 90 -40.7083Z" stroke="#FBBC25" stroke-width="4" stroke-linejoin="round"/>
</g>
<defs>
<clipPath id="clip0">
<rect width="520" height="621" fill="white"/>
</clipPath>
</defs>
</svg>
