<svg width="28" height="28" viewBox="0 0 28 28" fill="none" xmlns="http://www.w3.org/2000/svg">
<path d="M22.1365 16.1818C22.1365 15.3868 22.0341 14.6935 21.8295 14.1014C21.6248 13.5095 21.3432 13.019 20.9851 12.63C20.6269 12.241 20.2047 11.9534 19.7186 11.7674C19.2324 11.5814 18.6994 11.4883 18.1194 11.4883C17.6587 11.4883 17.258 11.5433 16.9167 11.6532C16.5757 11.7632 16.2815 11.9069 16.0341 12.0845C15.7868 12.2621 15.5778 12.4524 15.4072 12.6553C15.2367 12.8583 15.0917 13.0444 14.9723 13.2135V11.742H11.4926C11.5096 12.0296 11.5182 12.5877 11.5182 13.4164V16.5625C11.5182 16.5625 11.5096 18.4314 11.4926 22.1692H14.9723V16.334C14.9723 16.1818 14.9809 16.0339 14.9979 15.8901C15.015 15.7463 15.049 15.6152 15.1002 15.4969C15.2367 15.1924 15.4456 14.905 15.727 14.6342C16.0084 14.3637 16.3966 14.2283 16.8913 14.2283C17.5224 14.2283 17.9744 14.4439 18.2473 14.8752C18.5203 15.3064 18.6568 15.8773 18.6568 16.5877V22.1692H22.1365V16.1818ZM7.8081 10.3214C8.42217 10.3214 8.90832 10.1438 9.26652 9.78858C9.62473 9.4334 9.79531 9.01057 9.77825 8.52008C9.77825 8.01268 9.60341 7.58562 9.25373 7.2389C8.90405 6.89218 8.4307 6.71882 7.83369 6.71882C7.23667 6.71882 6.75906 6.89218 6.40085 7.2389C6.04264 7.58562 5.86354 8.01268 5.86354 8.52008C5.86354 9.01057 6.03412 9.4334 6.37527 9.78858C6.71642 10.1438 7.1855 10.3214 7.78252 10.3214H7.8081ZM9.54797 11.7421H6.06823V22.1692H9.54797V11.7421ZM25.3859 2C25.5565 2 25.7015 2.05497 25.8209 2.1649C25.9402 2.27484 26 2.41438 26 2.58351V25.4165C26 25.5857 25.9401 25.7251 25.8209 25.8351C25.7015 25.9451 25.5565 26 25.3859 26H2.61407C2.4435 26 2.29851 25.9452 2.1791 25.8351C2.0597 25.7251 2 25.5857 2 25.4165V2.58351C2 2.41438 2.0597 2.27484 2.1791 2.1649C2.29851 2.05497 2.4435 2 2.61407 2H25.3859Z" fill="#2F2F2F"/>
</svg>
