<svg width="157" height="52" viewBox="0 0 157 52" fill="none" xmlns="http://www.w3.org/2000/svg">
<g opacity="0.5">
<rect x="0.5" y="0.5" width="156" height="51" rx="9.5" fill="white" stroke="#2F2F2F"/>
<path d="M80.4468 28.7278C78.0071 28.7278 76.0757 30.5385 76.0757 33.0533C76.0757 35.4675 78.0071 37.3787 80.4468 37.3787C82.8865 37.3787 84.818 35.568 84.818 33.0533C84.818 30.4379 82.8865 28.7278 80.4468 28.7278ZM80.4468 35.568C79.1253 35.568 78.0071 34.4615 78.0071 32.9527C78.0071 31.4438 79.1253 30.3373 80.4468 30.3373C81.7683 30.3373 82.8865 31.3432 82.8865 32.9527C82.8865 34.4615 81.7683 35.568 80.4468 35.568ZM70.9929 28.7278C68.5532 28.7278 66.6218 30.5385 66.6218 33.0533C66.6218 35.4675 68.5532 37.3787 70.9929 37.3787C73.4326 37.3787 75.3641 35.568 75.3641 33.0533C75.3641 30.4379 73.4326 28.7278 70.9929 28.7278ZM70.9929 35.568C69.6714 35.568 68.5532 34.4615 68.5532 32.9527C68.5532 31.4438 69.6714 30.3373 70.9929 30.3373C72.3144 30.3373 73.4326 31.3432 73.4326 32.9527C73.4326 34.4615 72.3144 35.568 70.9929 35.568ZM59.7092 30.0355V31.8462H64.0804C63.9787 32.8521 63.5721 33.6568 63.0638 34.1598C62.4539 34.7633 61.4374 35.4675 59.7092 35.4675C56.9645 35.4675 54.9314 33.355 54.9314 30.6391C54.9314 27.9231 57.0662 25.8107 59.7092 25.8107C61.1324 25.8107 62.2506 26.4142 63.0638 27.1183L64.3853 25.8107C63.2671 24.8047 61.844 24 59.8109 24C56.1513 24 53 27.0178 53 30.6391C53 34.2604 56.1513 37.2781 59.8109 37.2781C61.844 37.2781 63.2671 36.6746 64.487 35.3669C65.7069 34.1598 66.1135 32.4497 66.1135 31.142C66.1135 30.7396 66.1135 30.3373 66.0118 30.0355H59.7092ZM105.861 31.4438C105.454 30.4379 104.437 28.7278 102.201 28.7278C99.9645 28.7278 98.1348 30.4379 98.1348 33.0533C98.1348 35.4675 99.9645 37.3787 102.404 37.3787C104.336 37.3787 105.556 36.1716 105.962 35.4675L104.539 34.4615C104.031 35.1657 103.421 35.6686 102.404 35.6686C101.388 35.6686 100.778 35.2663 100.27 34.3609L106.064 31.9467L105.861 31.4438ZM99.9645 32.8521C99.9645 31.2426 101.286 30.3373 102.201 30.3373C102.913 30.3373 103.624 30.7396 103.827 31.2426L99.9645 32.8521ZM95.1868 36.9763H97.1182V24.4024H95.1868V36.9763ZM92.1371 29.6331C91.6288 29.1302 90.8156 28.6272 89.7991 28.6272C87.6643 28.6272 85.6312 30.5385 85.6312 32.9527C85.6312 35.3669 87.5627 37.1775 89.7991 37.1775C90.8156 37.1775 91.6288 36.6746 92.0355 36.1716H92.1371V36.7751C92.1371 38.3846 91.2222 39.2899 89.7991 39.2899C88.6809 39.2899 87.8676 38.4852 87.6643 37.7811L86.0378 38.4852C86.5461 39.5917 87.766 41 89.9007 41C92.1371 41 93.9669 39.6923 93.9669 36.574V28.929H92.1371V29.6331ZM89.9007 35.568C88.5792 35.568 87.461 34.4615 87.461 32.9527C87.461 31.4438 88.5792 30.3373 89.9007 30.3373C91.2222 30.3373 92.2388 31.4438 92.2388 32.9527C92.2388 34.4615 91.2222 35.568 89.9007 35.568ZM114.704 24.4024H110.13V36.9763H112.061V32.2485H114.704C116.839 32.2485 118.872 30.7396 118.872 28.3254C118.872 25.9112 116.839 24.4024 114.704 24.4024ZM114.806 30.4379H112.061V26.1124H114.806C116.229 26.1124 117.043 27.3195 117.043 28.2249C116.941 29.3314 116.128 30.4379 114.806 30.4379ZM126.496 28.6272C125.073 28.6272 123.65 29.2308 123.142 30.5385L124.87 31.2426C125.277 30.5385 125.887 30.3373 126.598 30.3373C127.615 30.3373 128.53 30.9408 128.631 31.9467V32.0473C128.326 31.8462 127.513 31.5444 126.7 31.5444C124.87 31.5444 123.04 32.5503 123.04 34.3609C123.04 36.071 124.565 37.1775 126.191 37.1775C127.513 37.1775 128.123 36.574 128.631 35.9704H128.733V36.9763H130.563V32.1479C130.359 29.9349 128.631 28.6272 126.496 28.6272ZM126.293 35.568C125.683 35.568 124.768 35.2663 124.768 34.4615C124.768 33.4556 125.887 33.1538 126.801 33.1538C127.615 33.1538 128.021 33.355 128.53 33.5562C128.326 34.7633 127.31 35.568 126.293 35.568ZM136.967 28.929L134.832 34.3609H134.73L132.494 28.929H130.461L133.816 36.574L131.884 40.7988H133.816L139 28.929H136.967ZM119.889 36.9763H121.82V24.4024H119.889V36.9763Z" fill="#2F2F2F"/>
<g opacity="0.5">
<path d="M59.3046 13.4142H60.6241C60.5843 12.0152 59.3002 11 57.4582 11C55.6383 11 54.2435 12.0024 54.2435 13.5081C54.2435 14.7237 55.1468 15.436 56.6036 15.8156L57.6751 16.0972C58.6448 16.3445 59.3932 16.6517 59.3932 17.428C59.3932 18.281 58.5474 18.8441 57.3829 18.8441C56.3291 18.8441 55.4523 18.3919 55.3726 17.4408H54C54.0886 19.0232 55.3594 20 57.3918 20C59.5216 20 60.7481 18.9209 60.7481 17.4408C60.7481 15.8668 59.2913 15.2569 58.1401 14.9839L57.2545 14.7621C56.546 14.5872 55.6029 14.2673 55.6073 13.4313C55.6073 12.6891 56.3114 12.1389 57.4272 12.1389C58.4677 12.1389 59.2072 12.6081 59.3046 13.4142Z" fill="black"/>
<path d="M64.7676 19.9872C66.6849 19.9872 67.938 18.6351 67.938 16.609C67.938 14.5701 66.6849 13.218 64.7676 13.218C62.8503 13.218 61.5972 14.5701 61.5972 16.609C61.5972 18.6351 62.8503 19.9872 64.7676 19.9872ZM64.772 18.9166C63.5189 18.9166 62.9345 17.863 62.9345 16.6047C62.9345 15.3507 63.5189 14.2844 64.772 14.2844C66.0163 14.2844 66.6007 15.3507 66.6007 16.6047C66.6007 17.863 66.0163 18.9166 64.772 18.9166Z" fill="black"/>
<path d="M71.9065 19.9872C73.8238 19.9872 75.0769 18.6351 75.0769 16.609C75.0769 14.5701 73.8238 13.218 71.9065 13.218C69.9893 13.218 68.7362 14.5701 68.7362 16.609C68.7362 18.6351 69.9893 19.9872 71.9065 19.9872ZM71.911 18.9166C70.6579 18.9166 70.0734 17.863 70.0734 16.6047C70.0734 15.3507 70.6579 14.2844 71.911 14.2844C73.1552 14.2844 73.7397 15.3507 73.7397 16.6047C73.7397 17.863 73.1552 18.9166 71.911 18.9166Z" fill="black"/>
<path d="M77.5046 15.9649C77.5046 14.9199 78.1688 14.3227 79.0898 14.3227C79.9886 14.3227 80.5332 14.89 80.5332 15.8412V19.855H81.8572V15.6877C81.8572 14.0668 80.9318 13.218 79.5414 13.218C78.5186 13.218 77.85 13.6744 77.5356 14.3697H77.4514V13.3033H76.1806V19.855H77.5046V15.9649Z" fill="black"/>
<path d="M89.0494 19.9872C90.9666 19.9872 92.2197 18.6351 92.2197 16.609C92.2197 14.5701 90.9666 13.218 89.0494 13.218C87.1321 13.218 85.879 14.5701 85.879 16.609C85.879 18.6351 87.1321 19.9872 89.0494 19.9872ZM89.0538 18.9166C87.8007 18.9166 87.2162 17.863 87.2162 16.6047C87.2162 15.3507 87.8007 14.2844 89.0538 14.2844C90.298 14.2844 90.8825 15.3507 90.8825 16.6047C90.8825 17.863 90.298 18.9166 89.0538 18.9166Z" fill="black"/>
<path d="M94.6474 15.9649C94.6474 14.9199 95.3116 14.3227 96.2326 14.3227C97.1314 14.3227 97.6761 14.89 97.6761 15.8412V19.855H99V15.6877C99 14.0668 98.0746 13.218 96.6842 13.218C95.6614 13.218 94.9928 13.6744 94.6784 14.3697H94.5943V13.3033H93.3235V19.855H94.6474V15.9649Z" fill="black"/>
</g>
<path d="M17.5615 11.2583C17.2246 11.5971 17 12.1618 17 12.8395V37.7995C17 38.4771 17.2246 39.0418 17.5615 39.3807L17.6739 39.4936L31.6002 25.4889V25.376V25.263L17.5615 11.2583Z" fill="url(#paint0_linear)"/>
<path d="M36.2062 30.2328L31.6016 25.6022V25.3763V25.2634L36.2062 20.6328L36.3186 20.7458L41.8217 23.9081C43.3941 24.8116 43.3941 26.2799 41.8217 27.1834L36.2062 30.2328Z" fill="url(#paint1_linear)"/>
<path d="M36.3182 30.1193L31.6012 25.3757L17.5625 39.4934C18.124 40.0581 18.9102 40.0581 19.921 39.6063L36.3182 30.1193Z" fill="url(#paint2_linear)"/>
<path d="M36.3182 20.6326L19.921 11.2585C18.9102 10.6938 18.124 10.8067 17.5625 11.3714L31.6012 25.3761L36.3182 20.6326Z" fill="url(#paint3_linear)"/>
<path opacity="0.2" d="M36.2039 30.0066L19.919 39.2678C19.0206 39.8325 18.2344 39.7195 17.6729 39.2678L17.5605 39.3807L17.6729 39.4937C18.2344 39.9454 19.0206 40.0584 19.919 39.4937L36.2039 30.0066Z" fill="black"/>
<path opacity="0.12" d="M17.5606 39.2679C17.2236 38.9291 17.1113 38.3644 17.1113 37.6868V37.7997C17.1113 38.4774 17.3359 39.0421 17.6729 39.3809V39.2679H17.5606Z" fill="black"/>
<path opacity="0.12" d="M41.8206 26.844L36.2051 30.0063L36.3174 30.1193L41.8206 26.9569C42.6067 26.5051 42.9437 25.9404 42.9437 25.3757C42.9437 25.9404 42.4944 26.3922 41.8206 26.844Z" fill="black"/>
<path opacity="0.25" d="M19.9191 11.3712L41.8194 23.9076C42.4933 24.3594 42.9425 24.8112 42.9425 25.3759C42.9425 24.8112 42.6056 24.2465 41.8194 23.7947L19.9191 11.2582C18.3467 10.3547 17.1113 11.1453 17.1113 12.9523V13.0653C17.1113 11.2582 18.3467 10.4676 19.9191 11.3712Z" fill="white"/>
</g>
<defs>
<linearGradient id="paint0_linear" x1="30.3645" y1="12.6246" x2="11.4105" y2="31.4725" gradientUnits="userSpaceOnUse">
<stop stop-color="#00A0FF"/>
<stop offset="0.00657445" stop-color="#00A1FF"/>
<stop offset="0.2601" stop-color="#00BEFF"/>
<stop offset="0.5122" stop-color="#00D2FF"/>
<stop offset="0.7604" stop-color="#00DFFF"/>
<stop offset="1" stop-color="#00E3FF"/>
</linearGradient>
<linearGradient id="paint1_linear" x1="43.8819" y1="25.3779" x2="16.7065" y2="25.3779" gradientUnits="userSpaceOnUse">
<stop stop-color="#FFE000"/>
<stop offset="0.4087" stop-color="#FFBD00"/>
<stop offset="0.7754" stop-color="#FFA500"/>
<stop offset="1" stop-color="#FF9C00"/>
</linearGradient>
<linearGradient id="paint2_linear" x1="33.7654" y1="27.969" x2="8.06229" y2="53.5283" gradientUnits="userSpaceOnUse">
<stop stop-color="#FF3A44"/>
<stop offset="1" stop-color="#C31162"/>
</linearGradient>
<linearGradient id="paint3_linear" x1="14.0779" y1="2.98688" x2="25.5555" y2="14.4002" gradientUnits="userSpaceOnUse">
<stop stop-color="#32A071"/>
<stop offset="0.0685" stop-color="#2DA771"/>
<stop offset="0.4762" stop-color="#15CF74"/>
<stop offset="0.8009" stop-color="#06E775"/>
<stop offset="1" stop-color="#00F076"/>
</linearGradient>
</defs>
</svg>
