<svg width="16" height="15" viewBox="0 0 16 15" fill="none" xmlns="http://www.w3.org/2000/svg">
<path d="M7.55464 0.87268C7.74021 0.509054 8.25979 0.509054 8.44536 0.87268L10.2825 4.47265C10.3552 4.61501 10.4915 4.71406 10.6494 4.73916L14.6409 5.37398C15.044 5.4381 15.2046 5.93224 14.9161 6.2211L12.0601 9.08081C11.9471 9.1939 11.895 9.35417 11.9199 9.51204L12.5496 13.5043C12.6132 13.9076 12.1929 14.213 11.829 14.0279L8.22671 12.1953C8.08426 12.1229 7.91574 12.1229 7.77329 12.1953L4.17097 14.0279C3.8071 14.213 3.38676 13.9076 3.45036 13.5043L4.08006 9.51204C4.10496 9.35417 4.05289 9.1939 3.93995 9.08081L1.08389 6.2211C0.795409 5.93224 0.955966 5.4381 1.35914 5.37398L5.35063 4.73916C5.50848 4.71406 5.64481 4.61501 5.71746 4.47265L7.55464 0.87268Z" fill="#FED02D"/>
</svg>
