<svg width="18" height="16" viewBox="0 0 18 16" fill="none" xmlns="http://www.w3.org/2000/svg">
<path d="M8.55464 0.87268C8.74021 0.509055 9.25979 0.509054 9.44536 0.87268L11.5823 5.06005C11.655 5.20241 11.7913 5.30146 11.9491 5.32656L16.5919 6.06496C16.9951 6.12908 17.1556 6.62323 16.8672 6.91208L13.5451 10.2384C13.4322 10.3515 13.3801 10.5118 13.405 10.6696L14.1374 15.3134C14.201 15.7166 13.7807 16.022 13.4168 15.8369L9.22671 13.7053C9.08426 13.6329 8.91574 13.6329 8.77329 13.7053L4.58318 15.8369C4.21932 16.022 3.79897 15.7166 3.86258 15.3134L4.59502 10.6696C4.61992 10.5118 4.56785 10.3515 4.45491 10.2384L1.13284 6.91208C0.844352 6.62323 1.00491 6.12908 1.40808 6.06496L6.05086 5.32656C6.20871 5.30146 6.34504 5.20241 6.41769 5.06005L8.55464 0.87268Z" fill="#E6E6F0"/>
</svg>
