<svg width="28" height="28" viewBox="0 0 28 28" fill="none" xmlns="http://www.w3.org/2000/svg">
<path d="M28 5.69098C26.9694 6.14762 25.8637 6.45732 24.7018 6.59558C25.8881 5.88519 26.7962 4.75842 27.2266 3.41991C26.1138 4.07777 24.8855 4.55547 23.5768 4.81442C22.5287 3.69639 21.038 3 19.3845 3C16.2124 3 13.6404 5.57202 13.6404 8.74243C13.6404 9.19208 13.6911 9.63125 13.7891 10.0512C9.01601 9.81147 4.78357 7.52466 1.95085 4.04977C1.45568 4.89664 1.17399 5.88341 1.17399 6.93675C1.17399 8.92965 2.18881 10.6881 3.72854 11.7168C2.78719 11.6854 1.90185 11.4264 1.12677 10.996V11.0677C1.12677 13.8497 3.10741 16.1715 5.73365 16.6999C5.25248 16.8294 4.74509 16.9011 4.22018 16.9011C3.84927 16.9011 3.49058 16.8644 3.13889 16.7944C3.87023 19.0777 5.99086 20.7382 8.50341 20.7837C6.53851 22.3234 4.06097 23.2385 1.36999 23.2385C0.906341 23.2385 0.449648 23.2105 0 23.1597C2.54229 24.7922 5.56048 25.744 8.80437 25.744C19.3706 25.744 25.1463 16.9921 25.1463 9.40208L25.1271 8.65848C26.2556 7.85357 27.2319 6.84227 28 5.69098Z" fill="#2F2F2F"/>
</svg>
