<svg width="2100" height="1125" viewBox="0 0 2100 1125" fill="none" xmlns="http://www.w3.org/2000/svg">
<g clip-path="url(#clip0)">
<g opacity="0.3">
<mask id="mask0" mask-type="alpha" maskUnits="userSpaceOnUse" x="125" y="638" width="671" height="671">
<path fill-rule="evenodd" clip-rule="evenodd" d="M460.103 638.132L125.073 973.162L460.103 1308.19L795.133 973.162L460.103 638.132ZM314.29 973.162C314.29 989.731 327.623 1003.06 354.29 1029.73L403.535 1078.98C430.202 1105.64 443.535 1118.98 460.103 1118.98C476.672 1118.98 490.005 1105.64 516.672 1078.98L565.917 1029.73C592.584 1003.06 605.917 989.731 605.917 973.162C605.917 956.594 592.584 943.26 565.917 916.594L516.672 867.349C490.005 840.682 476.672 827.349 460.103 827.349C443.535 827.349 430.202 840.682 403.535 867.349L354.29 916.594C327.623 943.26 314.29 956.594 314.29 973.162Z" fill="#C4C4C4"/>
</mask>
<g mask="url(#mask0)">
<g filter="url(#filter0_d)">
<rect x="297.721" y="973.162" width="229.643" height="229.643" rx="40" transform="rotate(-45 297.721 973.162)" fill="#C4C4C4"/>
</g>
</g>
</g>
<g opacity="0.6">
<mask id="mask1" mask-type="alpha" maskUnits="userSpaceOnUse" x="-507" y="50" width="1351" height="1351">
<path fill-rule="evenodd" clip-rule="evenodd" d="M168.103 50.1031L-506.927 725.133L168.103 1400.16L843.133 725.133L168.103 50.1031ZM-136.287 725.133C-136.287 747.914 -117.954 766.248 -81.2875 802.914L90.3219 974.524C126.989 1011.19 145.322 1029.52 168.104 1029.52C190.885 1029.52 209.219 1011.19 245.885 974.524L417.495 802.914C454.161 766.248 472.495 747.914 472.495 725.133C472.495 702.351 454.161 684.018 417.495 647.351L245.885 475.741C209.219 439.075 190.885 420.741 168.104 420.741C145.322 420.741 126.989 439.075 90.3219 475.741L-81.2875 647.351C-117.954 684.018 -136.287 702.351 -136.287 725.133Z" fill="#C4C4C4"/>
</mask>
<g mask="url(#mask1)">
<g filter="url(#filter1_d)">
<rect x="-159.069" y="725.133" width="462.692" height="462.692" rx="55" transform="rotate(-45 -159.069 725.133)" fill="#C4C4C4"/>
</g>
</g>
</g>
<g opacity="0.3">
<mask id="mask2" mask-type="alpha" maskUnits="userSpaceOnUse" x="-55" y="-152" width="895" height="895">
<path fill-rule="evenodd" clip-rule="evenodd" d="M392.103 -151.928L-54.9268 295.102L392.103 742.131L839.133 295.102L392.103 -151.928ZM198.219 295.102C198.219 317.883 216.552 336.217 253.219 372.883L314.322 433.986C350.988 470.653 369.322 488.986 392.103 488.986C414.885 488.986 433.218 470.653 469.885 433.986L530.988 372.883C567.654 336.217 585.988 317.883 585.988 295.102C585.988 272.32 567.654 253.987 530.988 217.32L469.885 156.217C433.218 119.551 414.885 101.217 392.103 101.217C369.322 101.217 350.988 119.551 314.322 156.217L253.219 217.32C216.552 253.987 198.219 272.32 198.219 295.102Z" fill="#C4C4C4"/>
</mask>
<g mask="url(#mask2)">
<g filter="url(#filter2_d)">
<rect x="175.437" y="295.102" width="306.412" height="306.412" rx="55" transform="rotate(-45 175.437 295.102)" fill="#C4C4C4"/>
</g>
</g>
</g>
<g opacity="0.5">
<mask id="mask3" mask-type="alpha" maskUnits="userSpaceOnUse" x="315" y="-156" width="391" height="391">
<path fill-rule="evenodd" clip-rule="evenodd" d="M510.163 -155.926L315.133 39.1035L510.163 234.133L705.192 39.1035L510.163 -155.926ZM448.537 70.8956C451.231 74.6989 455.121 78.5884 462.899 86.3673C470.678 94.1461 474.568 98.0356 478.371 100.73C497.418 114.222 522.907 114.222 541.955 100.73C545.758 98.0356 549.647 94.1461 557.426 86.3673C565.205 78.5884 569.095 74.6989 571.789 70.8956C585.281 51.8484 585.281 26.3593 571.789 7.31205C569.095 3.5087 565.205 -0.380732 557.426 -8.15961C549.647 -15.9385 545.758 -19.8279 541.955 -22.5221C522.907 -36.0144 497.418 -36.0144 478.371 -22.5221C474.568 -19.8279 470.678 -15.9385 462.899 -8.15961C455.121 -0.380738 451.231 3.5087 448.537 7.31206C435.045 26.3593 435.045 51.8484 448.537 70.8956Z" fill="#C4C4C4"/>
</mask>
<g mask="url(#mask3)">
<g filter="url(#filter3_d)">
<rect x="415.636" y="39.1035" width="133.681" height="133.681" rx="55" transform="rotate(-45 415.636 39.1035)" fill="#C4C4C4"/>
</g>
</g>
</g>
<g opacity="0.5">
<mask id="mask4" mask-type="alpha" maskUnits="userSpaceOnUse" x="-391" y="-376" width="1087" height="1087">
<path fill-rule="evenodd" clip-rule="evenodd" d="M152.102 -375.929L-390.929 167.102L152.102 710.132L695.133 167.102L152.102 -375.929ZM-88.3115 167.102C-88.3115 189.883 -69.9782 208.217 -33.3115 244.883L74.3208 352.516C110.987 389.182 129.321 407.516 152.103 407.516C174.884 407.516 193.218 389.182 229.884 352.516L337.517 244.883C374.183 208.217 392.517 189.883 392.517 167.102C392.517 144.32 374.183 125.987 337.516 89.3198L229.884 -18.3124C193.218 -54.9791 174.884 -73.3124 152.103 -73.3124C129.321 -73.3124 110.987 -54.9791 74.3207 -18.3124L-33.3115 89.3199C-69.9782 125.987 -88.3115 144.32 -88.3115 167.102Z" fill="#C4C4C4"/>
</mask>
<g mask="url(#mask4)">
<g filter="url(#filter4_d)">
<rect x="-111.093" y="167.102" width="372.215" height="372.215" rx="55" transform="rotate(-45 -111.093 167.102)" fill="#C4C4C4"/>
</g>
</g>
</g>
<g opacity="0.3">
<mask id="mask5" mask-type="alpha" maskUnits="userSpaceOnUse" x="287" y="410" width="427" height="427">
<path fill-rule="evenodd" clip-rule="evenodd" d="M500.102 410.132L287.133 623.102L500.102 836.071L713.071 623.102L500.102 410.132ZM409.307 623.102C409.307 635.528 419.307 645.528 439.307 665.528L457.676 683.897C477.676 703.897 487.676 713.897 500.102 713.897C512.529 713.897 522.529 703.897 542.529 683.897L560.898 665.528C580.898 645.528 590.898 635.528 590.898 623.102C590.898 610.675 580.898 600.675 560.898 580.675L542.529 562.306C522.529 542.306 512.529 532.306 500.102 532.306C487.676 532.306 477.676 542.306 457.676 562.306L439.307 580.675C419.307 600.675 409.307 610.675 409.307 623.102Z" fill="#C4C4C4"/>
</mask>
<g mask="url(#mask5)">
<g filter="url(#filter5_d)">
<rect x="396.881" y="623.102" width="145.978" height="145.978" rx="30" transform="rotate(-45 396.881 623.102)" fill="#C4C4C4"/>
</g>
</g>
</g>
<g opacity="0.3">
<mask id="mask6" mask-type="alpha" maskUnits="userSpaceOnUse" x="1293" y="276" width="832" height="832">
<path fill-rule="evenodd" clip-rule="evenodd" d="M1709.1 276.117L2124.68 691.701L1709.1 1107.29L1293.52 691.701L1709.1 276.117ZM1891.89 691.701C1891.89 710.341 1876.89 725.341 1846.89 755.341L1772.74 829.486C1742.74 859.486 1727.74 874.486 1709.1 874.486C1690.46 874.486 1675.46 859.486 1645.46 829.486L1571.31 755.341C1541.31 725.341 1526.31 710.341 1526.31 691.701C1526.31 673.061 1541.31 658.061 1571.31 628.061L1645.46 553.916C1675.46 523.916 1690.46 508.916 1709.1 508.916C1727.74 508.916 1742.74 523.916 1772.74 553.916L1846.89 628.061C1876.89 658.061 1891.89 673.061 1891.89 691.701Z" fill="#C4C4C4"/>
</mask>
<g mask="url(#mask6)">
<g filter="url(#filter6_d)">
<rect width="284.858" height="284.858" rx="45" transform="matrix(-0.707107 -0.707107 -0.707107 0.707107 1910.53 691.701)" fill="#C4C4C4"/>
</g>
</g>
</g>
<g opacity="0.3">
<mask id="mask7" mask-type="alpha" maskUnits="userSpaceOnUse" x="1233" y="-320" width="832" height="833">
<path fill-rule="evenodd" clip-rule="evenodd" d="M1648.58 -319.051L2064.17 96.5332L1648.58 512.117L1233 96.5332L1648.58 -319.051ZM1827.23 96.5331C1827.23 119.315 1808.89 137.648 1772.23 174.315L1726.37 220.176C1689.7 256.843 1671.37 275.176 1648.58 275.176C1625.8 275.176 1607.47 256.843 1570.8 220.176L1524.94 174.315C1488.27 137.648 1469.94 119.315 1469.94 96.5331C1469.94 73.7514 1488.27 55.418 1524.94 18.7513L1570.8 -27.1101C1607.47 -63.7768 1625.8 -82.1101 1648.58 -82.1101C1671.37 -82.1101 1689.7 -63.7767 1726.37 -27.1101L1772.23 18.7514C1808.89 55.418 1827.23 73.7514 1827.23 96.5331Z" fill="#C4C4C4"/>
</mask>
<g mask="url(#mask7)">
<g filter="url(#filter7_d)">
<rect width="284.858" height="284.858" rx="55" transform="matrix(-0.707107 -0.707107 -0.707107 0.707107 1850.01 96.5332)" fill="#C4C4C4"/>
</g>
</g>
</g>
<g opacity="0.3">
<mask id="mask8" mask-type="alpha" maskUnits="userSpaceOnUse" x="1248" y="638" width="943" height="943">
<path fill-rule="evenodd" clip-rule="evenodd" d="M1719.85 638.73L2190.88 1109.76L1719.85 1580.79L1248.82 1109.76L1719.85 638.73ZM1929.51 1109.76C1929.51 1128.4 1914.51 1143.4 1884.51 1173.4L1783.49 1274.42C1753.49 1304.42 1738.49 1319.42 1719.85 1319.42C1701.21 1319.42 1686.21 1304.42 1656.21 1274.42L1555.19 1173.4C1525.19 1143.4 1510.19 1128.4 1510.19 1109.76C1510.19 1091.12 1525.19 1076.12 1555.19 1046.12L1656.21 945.101C1686.21 915.101 1701.21 900.101 1719.85 900.101C1738.49 900.101 1753.49 915.101 1783.49 945.101L1884.51 1046.12C1914.51 1076.12 1929.51 1091.12 1929.51 1109.76Z" fill="#C4C4C4"/>
</mask>
<g mask="url(#mask8)">
<g filter="url(#filter8_d)">
<rect width="322.863" height="322.863" rx="45" transform="matrix(-0.707107 -0.707107 -0.707107 0.707107 1948.15 1109.76)" fill="#C4C4C4"/>
</g>
</g>
</g>
<g opacity="0.6">
<mask id="mask9" mask-type="alpha" maskUnits="userSpaceOnUse" x="1257" y="-306" width="1351" height="1351">
<path fill-rule="evenodd" clip-rule="evenodd" d="M1932.55 -305.942L2607.58 369.088L1932.55 1044.12L1257.52 369.088L1932.55 -305.942ZM2236.94 369.088C2236.94 391.869 2218.6 410.203 2181.94 446.869L2010.33 618.479C1973.66 655.145 1955.33 673.479 1932.55 673.479C1909.76 673.479 1891.43 655.145 1854.76 618.479L1683.15 446.869C1646.49 410.203 1628.15 391.869 1628.15 369.088C1628.15 346.306 1646.49 327.973 1683.15 291.306L1854.76 119.697C1891.43 83.0299 1909.76 64.6966 1932.55 64.6966C1955.33 64.6966 1973.66 83.0299 2010.33 119.697L2181.94 291.306C2218.6 327.973 2236.94 346.306 2236.94 369.088Z" fill="#C4C4C4"/>
</mask>
<g mask="url(#mask9)">
<g filter="url(#filter9_d)">
<rect width="462.692" height="462.692" rx="55" transform="matrix(-0.707107 -0.707107 -0.707107 0.707107 2259.72 369.088)" fill="#C4C4C4"/>
</g>
</g>
</g>
<g opacity="0.6">
<mask id="mask10" mask-type="alpha" maskUnits="userSpaceOnUse" x="1512" y="432" width="951" height="951">
<path fill-rule="evenodd" clip-rule="evenodd" d="M1987.55 432.117L2462.58 907.146L1987.55 1382.18L1512.52 907.146L1987.55 432.117ZM2197.07 907.147C2197.07 927.857 2180.41 944.524 2147.07 977.857L2058.26 1066.67C2024.92 1100.01 2008.26 1116.67 1987.55 1116.67C1966.84 1116.67 1950.17 1100.01 1916.84 1066.67L1828.02 977.857C1794.69 944.524 1778.02 927.857 1778.02 907.147C1778.02 886.436 1794.69 869.769 1828.02 836.436L1916.84 747.62C1950.17 714.287 1966.84 697.62 1987.55 697.62C2008.26 697.62 2024.92 714.287 2058.26 747.62L2147.07 836.436C2180.41 869.769 2197.07 886.436 2197.07 907.147Z" fill="#C4C4C4"/>
</mask>
<g mask="url(#mask10)">
<g filter="url(#filter10_d)">
<rect width="325.604" height="325.604" rx="50" transform="matrix(-0.707107 -0.707107 -0.707107 0.707107 2217.78 907.146)" fill="#C4C4C4"/>
</g>
</g>
</g>
</g>
<defs>
<filter id="filter0_d" x="314.29" y="797.35" width="351.627" height="351.627" filterUnits="userSpaceOnUse" color-interpolation-filters="sRGB">
<feFlood flood-opacity="0" result="BackgroundImageFix"/>
<feColorMatrix in="SourceAlpha" type="matrix" values="0 0 0 0 0 0 0 0 0 0 0 0 0 0 0 0 0 0 127 0"/>
<feOffset dx="30"/>
<feGaussianBlur stdDeviation="15"/>
<feColorMatrix type="matrix" values="0 0 0 0 0.67451 0 0 0 0 0.270588 0 0 0 0 0.294118 0 0 0 0.14 0"/>
<feBlend mode="normal" in2="BackgroundImageFix" result="effect1_dropShadow"/>
<feBlend mode="normal" in="SourceGraphic" in2="effect1_dropShadow" result="shape"/>
</filter>
<filter id="filter1_d" x="-136.288" y="390.742" width="668.782" height="668.782" filterUnits="userSpaceOnUse" color-interpolation-filters="sRGB">
<feFlood flood-opacity="0" result="BackgroundImageFix"/>
<feColorMatrix in="SourceAlpha" type="matrix" values="0 0 0 0 0 0 0 0 0 0 0 0 0 0 0 0 0 0 127 0"/>
<feOffset dx="30"/>
<feGaussianBlur stdDeviation="15"/>
<feColorMatrix type="matrix" values="0 0 0 0 0.67451 0 0 0 0 0.270588 0 0 0 0 0.294118 0 0 0 0.14 0"/>
<feBlend mode="normal" in2="BackgroundImageFix" result="effect1_dropShadow"/>
<feBlend mode="normal" in="SourceGraphic" in2="effect1_dropShadow" result="shape"/>
</filter>
<filter id="filter2_d" x="198.219" y="71.2168" width="447.769" height="447.769" filterUnits="userSpaceOnUse" color-interpolation-filters="sRGB">
<feFlood flood-opacity="0" result="BackgroundImageFix"/>
<feColorMatrix in="SourceAlpha" type="matrix" values="0 0 0 0 0 0 0 0 0 0 0 0 0 0 0 0 0 0 127 0"/>
<feOffset dx="30"/>
<feGaussianBlur stdDeviation="15"/>
<feColorMatrix type="matrix" values="0 0 0 0 0.67451 0 0 0 0 0.270588 0 0 0 0 0.294118 0 0 0 0.14 0"/>
<feBlend mode="normal" in2="BackgroundImageFix" result="effect1_dropShadow"/>
<feBlend mode="normal" in="SourceGraphic" in2="effect1_dropShadow" result="shape"/>
</filter>
<filter id="filter3_d" x="438.418" y="-62.6426" width="203.49" height="203.49" filterUnits="userSpaceOnUse" color-interpolation-filters="sRGB">
<feFlood flood-opacity="0" result="BackgroundImageFix"/>
<feColorMatrix in="SourceAlpha" type="matrix" values="0 0 0 0 0 0 0 0 0 0 0 0 0 0 0 0 0 0 127 0"/>
<feOffset dx="30"/>
<feGaussianBlur stdDeviation="15"/>
<feColorMatrix type="matrix" values="0 0 0 0 0.67451 0 0 0 0 0.270588 0 0 0 0 0.294118 0 0 0 0.14 0"/>
<feBlend mode="normal" in2="BackgroundImageFix" result="effect1_dropShadow"/>
<feBlend mode="normal" in="SourceGraphic" in2="effect1_dropShadow" result="shape"/>
</filter>
<filter id="filter4_d" x="-88.3114" y="-103.312" width="540.828" height="540.828" filterUnits="userSpaceOnUse" color-interpolation-filters="sRGB">
<feFlood flood-opacity="0" result="BackgroundImageFix"/>
<feColorMatrix in="SourceAlpha" type="matrix" values="0 0 0 0 0 0 0 0 0 0 0 0 0 0 0 0 0 0 127 0"/>
<feOffset dx="30"/>
<feGaussianBlur stdDeviation="15"/>
<feColorMatrix type="matrix" values="0 0 0 0 0.67451 0 0 0 0 0.270588 0 0 0 0 0.294118 0 0 0 0.14 0"/>
<feBlend mode="normal" in2="BackgroundImageFix" result="effect1_dropShadow"/>
<feBlend mode="normal" in="SourceGraphic" in2="effect1_dropShadow" result="shape"/>
</filter>
<filter id="filter5_d" x="409.307" y="502.307" width="241.591" height="241.591" filterUnits="userSpaceOnUse" color-interpolation-filters="sRGB">
<feFlood flood-opacity="0" result="BackgroundImageFix"/>
<feColorMatrix in="SourceAlpha" type="matrix" values="0 0 0 0 0 0 0 0 0 0 0 0 0 0 0 0 0 0 127 0"/>
<feOffset dx="30"/>
<feGaussianBlur stdDeviation="15"/>
<feColorMatrix type="matrix" values="0 0 0 0 0.67451 0 0 0 0 0.270588 0 0 0 0 0.294118 0 0 0 0.14 0"/>
<feBlend mode="normal" in2="BackgroundImageFix" result="effect1_dropShadow"/>
<feBlend mode="normal" in="SourceGraphic" in2="effect1_dropShadow" result="shape"/>
</filter>
<filter id="filter6_d" x="1466.32" y="478.916" width="425.571" height="425.571" filterUnits="userSpaceOnUse" color-interpolation-filters="sRGB">
<feFlood flood-opacity="0" result="BackgroundImageFix"/>
<feColorMatrix in="SourceAlpha" type="matrix" values="0 0 0 0 0 0 0 0 0 0 0 0 0 0 0 0 0 0 127 0"/>
<feOffset dx="-30"/>
<feGaussianBlur stdDeviation="15"/>
<feColorMatrix type="matrix" values="0 0 0 0 0.67451 0 0 0 0 0.270588 0 0 0 0 0.294118 0 0 0 0.14 0"/>
<feBlend mode="normal" in2="BackgroundImageFix" result="effect1_dropShadow"/>
<feBlend mode="normal" in="SourceGraphic" in2="effect1_dropShadow" result="shape"/>
</filter>
<filter id="filter7_d" x="1409.94" y="-112.109" width="417.286" height="417.286" filterUnits="userSpaceOnUse" color-interpolation-filters="sRGB">
<feFlood flood-opacity="0" result="BackgroundImageFix"/>
<feColorMatrix in="SourceAlpha" type="matrix" values="0 0 0 0 0 0 0 0 0 0 0 0 0 0 0 0 0 0 127 0"/>
<feOffset dx="-30"/>
<feGaussianBlur stdDeviation="15"/>
<feColorMatrix type="matrix" values="0 0 0 0 0.67451 0 0 0 0 0.270588 0 0 0 0 0.294118 0 0 0 0.14 0"/>
<feBlend mode="normal" in2="BackgroundImageFix" result="effect1_dropShadow"/>
<feBlend mode="normal" in="SourceGraphic" in2="effect1_dropShadow" result="shape"/>
</filter>
<filter id="filter8_d" x="1450.19" y="870.102" width="479.318" height="479.318" filterUnits="userSpaceOnUse" color-interpolation-filters="sRGB">
<feFlood flood-opacity="0" result="BackgroundImageFix"/>
<feColorMatrix in="SourceAlpha" type="matrix" values="0 0 0 0 0 0 0 0 0 0 0 0 0 0 0 0 0 0 127 0"/>
<feOffset dx="-30"/>
<feGaussianBlur stdDeviation="15"/>
<feColorMatrix type="matrix" values="0 0 0 0 0.67451 0 0 0 0 0.270588 0 0 0 0 0.294118 0 0 0 0.14 0"/>
<feBlend mode="normal" in2="BackgroundImageFix" result="effect1_dropShadow"/>
<feBlend mode="normal" in="SourceGraphic" in2="effect1_dropShadow" result="shape"/>
</filter>
<filter id="filter9_d" x="1568.15" y="34.6973" width="668.782" height="668.782" filterUnits="userSpaceOnUse" color-interpolation-filters="sRGB">
<feFlood flood-opacity="0" result="BackgroundImageFix"/>
<feColorMatrix in="SourceAlpha" type="matrix" values="0 0 0 0 0 0 0 0 0 0 0 0 0 0 0 0 0 0 127 0"/>
<feOffset dx="-30"/>
<feGaussianBlur stdDeviation="15"/>
<feColorMatrix type="matrix" values="0 0 0 0 0.67451 0 0 0 0 0.270588 0 0 0 0 0.294118 0 0 0 0.14 0"/>
<feBlend mode="normal" in2="BackgroundImageFix" result="effect1_dropShadow"/>
<feBlend mode="normal" in="SourceGraphic" in2="effect1_dropShadow" result="shape"/>
</filter>
<filter id="filter10_d" x="1718.02" y="667.621" width="479.053" height="479.053" filterUnits="userSpaceOnUse" color-interpolation-filters="sRGB">
<feFlood flood-opacity="0" result="BackgroundImageFix"/>
<feColorMatrix in="SourceAlpha" type="matrix" values="0 0 0 0 0 0 0 0 0 0 0 0 0 0 0 0 0 0 127 0"/>
<feOffset dx="-30"/>
<feGaussianBlur stdDeviation="15"/>
<feColorMatrix type="matrix" values="0 0 0 0 0.67451 0 0 0 0 0.270588 0 0 0 0 0.294118 0 0 0 0.14 0"/>
<feBlend mode="normal" in2="BackgroundImageFix" result="effect1_dropShadow"/>
<feBlend mode="normal" in="SourceGraphic" in2="effect1_dropShadow" result="shape"/>
</filter>
<clipPath id="clip0">
<rect width="2100" height="1124" fill="white" transform="translate(0 0.429688)"/>
</clipPath>
</defs>
</svg>
