<svg width="77" height="32" viewBox="0 0 77 32" fill="none" xmlns="http://www.w3.org/2000/svg">
<g clip-path="url(#clip0)">
<path d="M72.577 0.138184C70.1084 0.138184 68.1025 2.14249 68.1025 4.5781C68.1025 7.08983 69.7483 8.73894 72.397 8.73894H72.577V11.5551C75.4058 9.04339 77.0001 7.06445 77.0001 4.73033C77.0001 2.14249 75.0457 0.138184 72.577 0.138184Z" fill="#7A7A8A"/>
<path d="M28.1403 10.3373C27.4974 9.82984 26.1859 8.89111 22.4057 8.89111C22.2771 8.89111 22.1485 8.89111 22.0199 8.89111C21.8914 8.89111 21.7628 8.89111 21.6085 8.89111C17.8283 8.89111 16.5168 9.80447 15.8739 10.3373C14.1767 11.7073 14.1252 13.4325 14.1252 14.7264V23.7585C14.1252 24.4182 14.3567 24.545 14.9481 24.545H17.9826C18.7283 24.545 18.8055 24.2406 18.8055 23.6824V15.1831C18.8055 13.7116 18.8569 11.4282 22.0199 11.4282C25.1573 11.4536 25.2087 13.737 25.2087 15.1831V23.6824C25.2087 24.2406 25.2858 24.545 26.0316 24.545H29.066C29.6575 24.545 29.8889 24.4435 29.8889 23.7585V14.7518C29.8889 13.4579 29.8375 11.7073 28.1403 10.3373Z" fill="#7A7A8A"/>
<path d="M51.4389 23.4797C52.0817 23.9871 53.3932 24.9259 57.1734 24.9259C57.302 24.9259 57.4306 24.9259 57.5592 24.9259C57.6878 24.9259 57.8163 24.9259 57.9706 24.9259C61.7508 24.9259 63.0623 24.0125 63.7052 23.4797C65.4024 22.1097 65.4539 20.3844 65.4539 19.0905V10.0331C65.4539 9.37344 65.2224 9.24658 64.631 9.24658H61.5965C60.8508 9.24658 60.7736 9.55103 60.7736 10.0838V18.6085C60.7736 20.08 60.7222 22.3634 57.5592 22.3634C54.4219 22.338 54.3704 20.0546 54.3704 18.6085V10.1092C54.3704 9.55103 54.2933 9.24658 53.5475 9.24658H50.5131C49.8959 9.24658 49.6902 9.34807 49.6902 10.0331V19.0905C49.7159 20.3844 49.7416 22.1097 51.4389 23.4797Z" fill="#7A7A8A"/>
<path d="M39.918 22.3124C36.7292 22.3124 36.6778 20.029 36.6778 18.5575V15.2846C36.6778 15.2085 36.6778 15.1324 36.6778 15.0563C36.6778 13.5847 36.7807 11.4028 39.918 11.4028C42.721 11.4028 42.9267 13.3818 42.9267 13.6355V19.6484C42.8753 20.6633 42.4895 22.3124 39.918 22.3124ZM47.6069 19.3947C47.6069 19.3186 47.6069 19.2425 47.6069 19.1917V13.7877V13.1534V13.1281C47.6069 11.6566 47.5298 10.8193 45.8326 10.0328C43.8267 9.14482 41.6409 8.89111 39.4808 8.89111C35.7263 8.89111 34.3891 9.80447 33.7462 10.3373C32.049 11.7073 32.0233 13.4325 32.0233 14.7264V18.5067C32.0233 18.5828 32.0233 18.6336 32.0233 18.7097V19.0141C32.0233 20.3081 32.049 22.0333 33.7462 23.4033C34.3891 23.9107 35.7006 24.8495 39.4808 24.8495C40.638 24.8495 41.7952 24.7734 42.9267 24.5704V24.9002C42.9267 26.3717 42.901 28.6551 39.6865 28.6551C36.6778 28.6551 36.6778 26.3717 36.6778 26.3717C36.6778 25.636 36.4978 25.4837 35.7778 25.4837H32.7947C32.2033 25.4837 31.9976 25.636 31.9976 26.2703C31.9976 26.2703 32.2033 29.0103 33.7719 30.0252C35.6235 31.2176 37.9636 31.1669 40.1237 31.1669C43.8782 31.1669 45.2154 30.2535 45.8583 29.7207C47.5555 28.3507 47.5812 26.6254 47.5812 25.3315V21.1453C47.5812 20.9677 47.5812 20.7647 47.5812 20.5618V19.3947H47.6069Z" fill="#7A7A8A"/>
<path d="M9.88251 6.32906C11.4769 6.32906 12.7627 5.03514 12.7627 3.43677C12.7627 1.83839 11.4512 0.595215 9.88251 0.595215C8.26243 0.595215 6.95093 1.83839 6.95093 3.43677C6.95093 5.03514 8.26243 6.32906 9.88251 6.32906Z" fill="#7A7A8A"/>
<path d="M12.0423 10.0326C12.0423 9.37295 11.8109 9.24609 11.2194 9.24609H8.18496C7.43921 9.24609 7.36206 9.55055 7.36206 10.1087V23.7837C7.36206 24.4433 7.5935 24.5702 8.18496 24.5702H11.2194C11.9652 24.5702 12.0423 24.2657 12.0423 23.7076V10.0326Z" fill="#7A7A8A"/>
<path d="M5.25349 15.7162V1.1532C5.25349 0.493554 5.02205 0.366699 4.43059 0.366699H1.39614C0.650389 0.366699 0.573242 0.671151 0.573242 1.22931V15.843V23.7588C0.573242 24.4184 0.804683 24.5453 1.39614 24.5453H4.43059C5.17634 24.5453 5.25349 24.2408 5.25349 23.6826V15.7162Z" fill="#7A7A8A"/>
</g>
<defs>
<clipPath id="clip0">
<rect width="76.4268" height="31.0033" fill="white" transform="translate(0.573242 0.138184)"/>
</clipPath>
</defs>
</svg>
