<?xml version="1.0" encoding="utf-8"?>
<!-- Generator: Adobe Illustrator 23.0.6, SVG Export Plug-In . SVG Version: 6.00 Build 0)  -->
<svg version="1.1" id="Layer_1" xmlns="http://www.w3.org/2000/svg" xmlns:xlink="http://www.w3.org/1999/xlink" x="0px" y="0px"
	 viewBox="0 0 850 300" style="enable-background:new 0 0 850 300;" xml:space="preserve">
<style type="text/css">
	.st0{fill:#00B4E5;}
	.st1{fill:#FFFFFF;}
</style>
<g>
	<path class="st0" d="M644.52,13.84c-21.45,0-38.82,17.72-38.82,39.24c0,22.19,14.22,36.65,37.24,36.65c0.62,0,0.94,0,1.59,0v24.77
		C669.11,92.31,683,74.93,683,54.38C683,31.56,665.97,13.84,644.52,13.84z"/>
	<path class="st1" d="M258.15,103.81c-5.58-4.55-17.09-12.7-49.95-12.7c-1.14,0-2.27,0.03-3.39,0.05V91.1
		c-1.18-0.01-2.33,0.03-3.51,0.03c-32.86,0-44.36,8.14-49.95,12.71c-14.79,12.06-15.12,27.36-15.12,38.75v79.67
		c0,5.87,1.98,6.86,7.23,6.86h26.29c6.57,0,7.22-2.62,7.22-7.5V146.5c0-12.97,0.35-32.99,27.86-33.2v-0.02
		c27.32,0.28,27.67,20.25,27.67,33.17v75.01c0,4.9,0.65,7.5,7.23,7.5h26.29c5.25,0,7.22-0.98,7.22-6.86v-79.56
		C273.26,131.15,272.94,115.86,258.15,103.81z"/>
	<path class="st1" d="M460.72,219.34c5.59,4.55,17.09,12.7,49.95,12.7c1.14,0,2.27-0.03,3.4-0.06v0.07c1.17,0.02,2.33-0.04,3.5-0.04
		c32.87,0,44.37-8.13,49.95-12.71c14.8-12.05,15.13-27.34,15.13-38.74v-79.68c0-5.86-1.99-6.83-7.25-6.83h-26.28
		c-6.58,0-7.24,2.61-7.24,7.48v75.11c0,12.96-0.36,33-27.85,33.2v0.02c-27.33-0.29-27.68-20.26-27.68-33.2V101.5
		c0-4.88-0.65-7.5-7.22-7.5h-26.31c-5.25,0-7.22,1-7.22,6.87v79.73C445.61,191.98,445.94,207.27,460.72,219.34z"/>
	<path class="st1" d="M427.38,183.56c0-0.7-0.03-1.24-0.09-1.69v-47.69v-5.53v-0.24c0-12.98-0.65-20.44-15.38-27.25
		c-17.35-7.77-36.34-10.06-55.34-10.06c-32.75,0-44.21,8.11-49.78,12.65c-14.74,12.01-15.06,27.27-15.06,38.62v33.31
		c0,0.61,0.03,1.16,0.08,1.69v2.62c0,11.34,0.32,26.6,15.05,38.62c5.57,4.55,17.04,12.66,49.79,12.66c10.1,0,20.19-0.68,30.03-2.46
		v3c0,13-0.31,33.11-28.15,33.11c-26.22,0-26.22-20.05-26.22-20.05c0-6.49-1.62-7.81-7.85-7.81h-25.86c-5.25,0-6.88,1.32-6.88,6.82
		c0,0,1.78,24.13,15.38,33.04c16.11,10.55,36.36,10.07,55.34,10.07c32.74,0,44.22-8.12,49.77-12.66
		c14.74-12.02,15.07-27.27,15.07-38.64v-36.61c0.07-1.61,0.09-3.31,0.09-5.14V183.56z M360.58,209.2
		c-27.84,0-28.15-20.11-28.15-33.1v-28.76c0-0.76-0.04-1.41-0.07-2.05c0.02-13,0.99-32.13,28.14-32.13
		c24.48,0,26.08,17.49,26.19,19.79v52.94C386.23,194.76,382.97,209.2,360.58,209.2z"/>
	<path class="st1" d="M99.24,68.37c13.77,0,25.09-11.32,25.09-25.39c0-14.09-11.32-25.09-25.09-25.09c-14.07,0-25.39,11-25.39,25.09
		C73.86,57.05,85.17,68.37,99.24,68.37z"/>
	<path class="st1" d="M118.03,101.02c0-5.87-1.98-6.86-7.23-6.86H84.5c-6.57,0-7.23,2.62-7.23,7.5l-0.04,120.54
		c0,5.87,1.97,6.86,7.23,6.86h26.29c6.57,0,7.23-2.61,7.23-7.49L118.03,101.02z"/>
	<path class="st1" d="M59.13,151.07V22.81c0-5.87-1.98-6.85-7.24-6.85H25.6c-6.57,0-7.23,2.62-7.23,7.49v128.89h0.01v69.87
		c0,5.87,1.98,6.86,7.22,6.86H51.9c6.58,0,7.24-2.61,7.24-7.49L59.13,151.07L59.13,151.07z"/>
</g>
</svg>
