<?xml version="1.0" encoding="utf-8"?>
<!-- Generator: Adobe Illustrator 24.0.1, SVG Export Plug-In . SVG Version: 6.00 Build 0)  -->
<svg version="1.1" id="Layer_1" xmlns="http://www.w3.org/2000/svg" xmlns:xlink="http://www.w3.org/1999/xlink" x="0px" y="0px"
	 viewBox="0 0 850 300" style="enable-background:new 0 0 850 300;" xml:space="preserve">
<style type="text/css">
	.st0{fill:#00a5d7;}
</style>
<g>
	<path d="M204.8,113c-4.4-3.6-13.4-10-39.2-10c-0.9,0-1.8,0-2.7,0l0,0c-0.9,0-1.8,0-2.8,0c-25.8,0-34.8,6.4-39.2,10
		c-11.6,9.5-11.9,21.5-11.9,30.4V206c0,4.6,1.6,5.4,5.7,5.4h20.6c5.2,0,5.7-2.1,5.7-5.9v-59c0-10.2,0.3-25.9,21.9-26.1l0,0
		c21.5,0.2,21.7,15.9,21.7,26.1v58.9c0,3.8,0.5,5.9,5.7,5.9H211c4.1,0,5.7-0.8,5.7-5.4v-62.5C216.6,134.5,216.4,122.5,204.8,113"/>
	<path d="M363.9,203.7c4.4,3.6,13.4,10,39.2,10c0.9,0,1.8,0,2.7,0l0,0c0.9,0,1.8,0,2.7,0c25.8,0,34.9-6.4,39.2-10
		c11.6-9.5,11.9-21.5,11.9-30.4v-62.6c0-4.6-1.6-5.4-5.7-5.4h-20.6c-5.2,0-5.7,2-5.7,5.9v59c0,10.2-0.3,25.9-21.9,26.1l0,0
		c-21.5-0.2-21.7-15.9-21.7-26.1v-59c0-3.8-0.5-5.9-5.7-5.9h-20.7c-4.1,0-5.7,0.8-5.7,5.4v62.6C352,182.2,352.3,194.3,363.9,203.7"
		/>
	<path d="M337.7,175.6c0-0.5,0-1-0.1-1.3v-37.5v-4.3v-0.2c0-10.2-0.5-16-12.1-21.4c-13.6-6.1-28.5-7.9-43.5-7.9
		c-25.7,0-34.7,6.4-39.1,9.9c-11.6,9.4-11.8,21.4-11.8,30.3v26.2c0,0.5,0,0.9,0.1,1.3v2.1c0,8.9,0.3,20.9,11.8,30.3
		c4.4,3.6,13.4,9.9,39.1,9.9c7.9,0,15.9-0.5,23.6-1.9v2.4c0,10.2-0.2,26-22.1,26c-20.6,0-20.6-15.7-20.6-15.7c0-5.1-1.3-6.1-6.2-6.1
		h-20.3c-4.1,0-5.4,1-5.4,5.4c0,0,1.4,18.9,12.1,25.9c12.7,8.3,28.6,7.9,43.5,7.9c25.7,0,34.7-6.4,39.1-9.9
		c11.6-9.4,11.8-21.4,11.8-30.4v-28.8c0-1.3,0.1-2.6,0.1-4V175.6z M285.2,195.8c-21.9,0-22.1-15.8-22.1-26v-22.6
		c0-0.6,0-1.1-0.1-1.6c0-10.2,0.8-25.2,22.1-25.2c19.2,0,20.5,13.7,20.6,15.5v41.6C305.4,184.4,302.8,195.8,285.2,195.8"/>
	<path d="M80,85.2c10.8,0,19.7-8.9,19.7-19.9c0-11.1-8.9-19.7-19.7-19.7c-11,0-19.9,8.6-19.9,19.7C60,76.3,68.9,85.2,80,85.2"/>
	<path d="M94.7,110.8c0-4.6-1.6-5.4-5.7-5.4H68.4c-5.2,0-5.7,2.1-5.7,5.9V206c0,4.6,1.5,5.4,5.7,5.4H89c5.2,0,5.7-2,5.7-5.9V110.8z"
		/>
	<path d="M48.5,150.1V49.4c0-4.6-1.6-5.4-5.7-5.4H22.1c-5.2,0-5.7,2.1-5.7,5.9v101.2l0,0V206c0,4.6,1.6,5.4,5.7,5.4h20.7
		c5.2,0,5.7-2,5.7-5.9L48.5,150.1L48.5,150.1z"/>
	<path class="st0" d="M643.8,143.6c0-8.7-0.3-20.3-11.5-29.5c-2.7-2.2-7.2-5.5-16.4-7.6c-5.4-1.2-12.4-2.1-21.6-2.1
		c-0.9,0-1.7,0-2.6,0l0,0c-0.9,0-1.8,0-2.7,0c-9.1,0-16,0.8-21.3,2c-9.4,2.1-14,5.4-16.7,7.6c-11.3,9.2-11.5,20.8-11.5,29.5V172
		c0,2.3,0,4.8,0.3,7.4c0.7,7.3,3,15.3,11.3,22.1c2.7,2.2,7.3,5.5,16.7,7.6c2.1,0.5,4.6,0.9,7.2,1.2c4,0.5,8.6,0.8,14.1,0.8
		c0.9,0,1.8,0,2.7,0l0,0c0.9,0,1.7,0,2.6,0c5.6,0,10.2-0.3,14.3-0.8c2.7-0.3,5.2-0.8,7.3-1.2c9.2-2.1,13.7-5.4,16.4-7.6
		c6.3-5.1,9.1-11,10.4-16.7c0.4-1.8,0.7-3.6,0.8-5.4H612c-0.4,1.8-1,3.7-1.8,5.4c-2.6,5.3-7.8,9.4-18.6,9.5
		c-14.3-0.1-18.9-7.2-20.5-14.9c-0.7-3.6-0.8-7.3-0.8-10.4v-4.9H596h16.8h10.6h11.3c6.8,0,8.7-4,9.2-7.3c0.3-2.1,0-3.9,0-3.9
		L643.8,143.6L643.8,143.6z M570.5,144.9c0.1-9.8,1.4-23.4,21.2-23.6c19.7,0.2,21,13.8,21.1,23.6H570.5z"/>
	<path class="st0" d="M728.6,147.1c-7.5-1.6-14.2-2.9-22.7-4.3l-0.7-0.1c-9.8-1.9-17.8-3.9-17.8-9.6c0-3,2.7-6.9,10-8.7
		c2.4-0.5,5.1-0.8,8.3-0.8c22.7,0,22.5,6.6,22.5,12.5v2.4H754l2.4-0.3l0.1-2.3c0.3-6.1,0.9-10.9-8-19.3
		c-3.9-3.7-15.8-12.3-42.3-12.3c-13.4,0-23.8,2.2-31.9,6.6c-9.7,5.2-15.6,14.3-15.6,24.1c0,21.8,25.2,26.4,37.4,28.7
		c22,3.9,23.8,4.3,28.6,5.8c4.4,1.6,9.4,4,9.4,9.3c0,1.8-0.8,7.7-11.7,10.8c-1,0.4-4.9,1.7-14.1,1.7c-15,0-21.2-3.1-23.1-5.4
		c-2.6-3-3.2-9.7-3.2-9.7h-28.7c0,0-1.4,15.5,15.7,26.5c9.6,6,25.4,8.2,41.1,8.2c35.8,0,52.1-17.8,52.1-34.4
		C762.2,154.3,736.9,148.9,728.6,147.1"/>
	<path class="st0" d="M516.1,188c-11.3,0-12.8-4.5-12.8-9v-3v-7.1v-42.1h27.2c3.6,0,4.2-1.1,4.2-3.9v-14.2c0-3.5-1.6-3.9-4.6-3.9
		h-26.8V81.2c0-5-1.5-5.9-5.6-5.9h-20.3c-5.1,0-5.6,2.2-5.6,6.4v23.1v22v42.7c0,0.2,0,0.4,0,0.5v6v10c0,16,12.1,24.8,34.1,24.8
		c8.4,0,16.9-1.2,25.2-3.5l1.2-0.3v-21.1l-2.1,0.5C526.4,187.1,521.4,188,516.1,188"/>
	<path class="st0" d="M829.5,186.2c-3.8,0.8-8.8,1.8-14.1,1.8c-11.3,0-12.8-4.5-12.8-9v-3v-7.1v-42.1h27.2c3.6,0,4.2-1.1,4.2-3.9
		v-14.2c0-3.5-1.6-3.9-4.6-3.9h-26.8V81.2c0-5-1.5-5.9-5.6-5.9h-20.3c-5.1,0-5.6,2.2-5.6,6.4v23.1v22v42.7c0,0.2,0,0.3,0,0.4v6.1v10
		c0,16,12.1,24.8,34.1,24.8c8.4,0,16.9-1.2,25.2-3.5l1.2-0.3v-21.1L829.5,186.2z"/>
</g>
</svg>
