<svg width="1500" height="1024" viewBox="0 0 1500 1024" fill="none" xmlns="http://www.w3.org/2000/svg">
<g opacity="0.5">
<path opacity="0.1" d="M1261.23 -142C1143.58 -142 1048 -46.3222 1048 69.9444C1048 189.844 1126.43 268.567 1252.65 268.567H1261.23V403C1396.02 283.1 1472 188.633 1472 77.2111C1472 -46.3222 1378.87 -142 1261.23 -142Z" fill="#1B1049"/>
<path opacity="0.1" d="M1425.8 461C1349.22 461 1287 523.322 1287 599.056C1287 677.156 1338.05 728.433 1420.21 728.433H1425.8V816C1513.54 737.9 1563 676.367 1563 603.789C1563 523.322 1502.38 461 1425.8 461Z" fill="#1B1049"/>
<path opacity="0.1" d="M1208.94 772C1155.45 772 1112 815.562 1112 868.497C1112 923.087 1147.66 958.929 1205.04 958.929H1208.94V1020.14C1270.22 965.546 1304.76 922.536 1304.76 871.806C1304.76 815.562 1262.42 772 1208.94 772Z" fill="#1B1049"/>
<path opacity="0.1" d="M76.7282 233C-41.1908 233 -137 329.029 -137 445.722C-137 566.062 -58.3875 645.073 68.1298 645.073H76.7282V780C211.844 659.66 288 564.847 288 453.016C288 329.029 194.647 233 76.7282 233Z" fill="#1B1049"/>
<path opacity="0.1" d="M332.214 -61C263.682 -61 208 -5.34889 208 62.2778C208 132.018 253.688 177.807 327.217 177.807H332.214V256C410.74 186.26 455 131.313 455 66.5044C455 -5.34888 400.746 -61 332.214 -61Z" fill="#1B1049"/>
<path opacity="0.1" d="M252.121 772C192.468 772 144 820.453 144 879.333C144 940.053 183.769 979.92 247.772 979.92H252.121V1048C320.474 987.28 359 939.44 359 883.013C359 820.453 311.775 772 252.121 772Z" fill="#1B1049"/>
</g>
</svg>
