<svg width="1900" height="1181" viewBox="0 0 1900 1181" fill="none" xmlns="http://www.w3.org/2000/svg">
<g clip-path="url(#clip0)">
<mask id="mask0" mask-type="alpha" maskUnits="userSpaceOnUse" x="-1" y="-2" width="1901" height="1183">
<rect x="-1" y="-1.91211" width="1901" height="1182" fill="url(#paint0_radial)"/>
</mask>
<g mask="url(#mask0)">
<g opacity="0.1">
<path opacity="0.89" d="M2053.55 928.031L1319.1 193.578C1313.77 188.251 1307.58 192.426 1311.61 198.473C1393.68 321.29 1685.25 731.063 2049.09 935.806C2055.14 939.117 2058.59 933.07 2053.55 928.031Z" fill="url(#paint1_radial)"/>
<path opacity="0.89" d="M1378.23 237.373L643.782 -497.08C638.455 -502.408 632.263 -498.232 636.295 -492.185C718.365 -369.368 1009.93 40.4049 1373.77 245.147C1379.82 248.603 1383.27 242.412 1378.23 237.373Z" fill="url(#paint2_radial)"/>
<path opacity="0.89" d="M690.143 -251.879L1424.6 482.574C1429.92 487.901 1436.11 483.726 1432.08 477.678C1350.01 354.862 1058.45 -54.9115 694.607 -259.654C688.56 -263.11 685.104 -256.918 690.143 -251.879Z" fill="url(#paint3_radial)"/>
<path opacity="0.89" d="M1407.22 488.453L2141.67 1222.91C2147 1228.23 2153.19 1224.06 2149.16 1218.01C2067.09 1095.19 1775.52 685.421 1411.68 480.678C1405.63 477.222 1402.18 483.414 1407.22 488.453Z" fill="url(#paint4_radial)"/>
<path opacity="0.5" d="M1266.43 658.9L2000.88 1393.35C2006.21 1398.68 2012.4 1394.5 2008.37 1388.46C1926.3 1265.64 1634.73 855.867 1270.89 651.125C1264.84 647.813 1261.39 653.86 1266.43 658.9Z" fill="url(#paint5_radial)"/>
<path opacity="0.89" d="M392.33 -279.804L1126.78 454.649C1132.11 459.977 1138.3 455.801 1134.27 449.754C1052.2 326.937 760.637 -82.836 396.794 -287.579C390.891 -290.89 387.435 -284.843 392.33 -279.804Z" fill="url(#paint6_radial)"/>
<path opacity="0.89" d="M1295.34 973.717L2029.8 1708.17C2035.12 1713.5 2041.31 1709.32 2037.28 1703.27C1955.21 1580.46 1663.65 1170.68 1299.81 965.942C1293.76 962.486 1290.3 968.677 1295.34 973.717Z" fill="url(#paint7_radial)"/>
<path opacity="0.89" d="M-63.9544 -354.225L670.498 380.227C675.826 385.555 682.017 381.379 677.985 375.332C595.916 252.515 304.352 -157.258 -59.4909 -362C-65.5382 -365.312 -68.9938 -359.265 -63.9544 -354.225Z" fill="url(#paint8_radial)"/>
<path opacity="0.53" d="M1100.14 620.246L-164.31 -644.205C-173.38 -653.276 -180.436 -649.964 -172.661 -640.174C-16.7279 -443.494 527.956 219.399 1096.97 629.317C1106.19 636.084 1108.78 628.885 1100.14 620.246Z" fill="url(#paint9_radial)"/>
<path opacity="0.89" d="M1101.98 1179.42L-162.474 -85.0275C-171.545 -94.0984 -178.6 -90.7868 -170.825 -80.996C-14.8926 115.684 529.792 778.577 1098.81 1188.49C1108.02 1195.12 1110.62 1188.06 1101.98 1179.42Z" fill="url(#paint10_radial)"/>
<path opacity="0.5" d="M917.141 1669.86L-347.31 405.408C-356.38 396.337 -363.436 399.649 -355.661 409.44C-199.728 606.119 344.956 1269.01 913.974 1678.93C923.333 1685.55 925.78 1678.5 917.141 1669.86Z" fill="url(#paint11_radial)"/>
<path opacity="0.89" d="M720.141 1772.86L-544.31 508.408C-553.38 499.337 -560.436 502.649 -552.661 512.44C-396.728 709.119 147.956 1372.01 716.974 1781.93C726.333 1788.55 728.78 1781.5 720.141 1772.86Z" fill="url(#paint12_radial)"/>
<path opacity="0.89" d="M2141.14 1343.25L876.69 78.7948C867.62 69.7239 860.564 73.0355 868.339 82.8263C1024.27 279.506 1568.96 942.399 2137.97 1352.32C2147.33 1358.94 2149.78 1351.88 2141.14 1343.25Z" fill="url(#paint13_radial)"/>
<path opacity="0.89" d="M1742.7 448.859L478.246 -815.592C469.175 -824.663 462.12 -821.351 469.895 -811.56C625.828 -614.881 1170.51 48.0128 1739.53 457.93C1748.74 464.553 1751.34 457.498 1742.7 448.859Z" fill="url(#paint14_radial)"/>
<path opacity="0.89" d="M2422.14 727.859L1157.69 -536.592C1148.62 -545.663 1141.56 -542.351 1149.34 -532.56C1305.27 -335.881 1849.96 327.013 2418.97 736.93C2428.33 743.697 2430.78 736.498 2422.14 727.859Z" fill="url(#paint15_radial)"/>
<path opacity="0.89" d="M634.235 535.373L-100.218 -199.08C-105.545 -204.408 -111.737 -200.232 -107.705 -194.185C-25.6352 -71.3681 265.929 338.405 629.771 543.148C635.675 546.459 639.13 540.412 634.235 535.373Z" fill="url(#paint16_radial)"/>
<path opacity="0.89" d="M1418.59 1416.27L688.603 677.357C683.42 672.03 677.084 676.205 681.116 682.253C762.466 805.501 1051.44 1217.15 1414.13 1424.05C1420.18 1427.5 1423.63 1421.31 1418.59 1416.27Z" fill="url(#paint17_radial)"/>
<path opacity="0.2" d="M201.799 396.162L931.788 1135.08C936.971 1140.41 943.307 1136.23 939.275 1130.18C857.925 1006.93 568.953 595.289 206.262 388.387C200.359 384.931 196.759 391.123 201.799 396.162Z" fill="url(#paint18_radial)"/>
<path opacity="0.89" d="M2224.7 717.199L1490.25 -17.2541C1484.92 -22.5815 1478.73 -18.4059 1482.76 -12.3587C1564.83 110.458 1856.4 520.231 2220.24 724.974C2226.29 728.429 2229.74 722.238 2224.7 717.199Z" fill="url(#paint19_radial)"/>
<path opacity="0.89" d="M573.057 872.471L-156.932 133.554C-162.115 128.227 -168.451 132.403 -164.419 138.45C-83.0691 261.699 205.903 673.343 568.594 880.246C574.497 883.701 578.097 877.51 573.057 872.471Z" fill="url(#paint20_radial)"/>
<path opacity="0.4" d="M516.755 753.449L-213.235 14.533C-218.418 9.20568 -224.753 13.3811 -220.722 19.4284C-139.372 142.677 149.6 554.322 512.291 761.224C518.194 764.68 521.65 758.489 516.755 753.449Z" fill="url(#paint21_radial)"/>
<path opacity="0.4" d="M684.481 1162.45L-45.5081 423.533C-50.6915 418.206 -57.0267 422.381 -52.9952 428.428C28.3547 551.677 317.327 963.322 680.018 1170.22C685.921 1173.68 689.521 1167.49 684.481 1162.45Z" fill="url(#paint22_radial)"/>
<path opacity="0.89" d="M-147.606 491.093L582.384 1230.01C587.567 1235.34 593.902 1231.16 589.871 1225.11C508.521 1101.86 219.549 690.22 -143.142 483.318C-149.045 480.006 -152.645 486.054 -147.606 491.093Z" fill="url(#paint23_radial)"/>
<path opacity="0.89" d="M-225.574 723.32L504.416 1462.24C509.599 1467.56 515.934 1463.39 511.903 1457.34C430.553 1334.09 141.581 922.447 -221.11 715.545C-227.157 712.09 -230.613 718.281 -225.574 723.32Z" fill="url(#paint24_radial)"/>
<path opacity="0.89" d="M1598.14 1227.99C1814.26 1444.11 2007.48 1601.19 2029.65 1579.02L1247.11 796.475C1224.79 818.792 1382.02 1012.02 1598.14 1227.99Z" fill="url(#paint25_radial)"/>
</g>
</g>
</g>
<defs>
<radialGradient id="paint0_radial" cx="0" cy="0" r="1" gradientUnits="userSpaceOnUse" gradientTransform="translate(949.5 589.088) rotate(90) scale(591 774.765)">
<stop offset="0.550055" stop-color="#C4C4C4" stop-opacity="0"/>
<stop offset="1" stop-color="#C4C4C4"/>
</radialGradient>
<radialGradient id="paint1_radial" cx="0" cy="0" r="1" gradientUnits="userSpaceOnUse" gradientTransform="translate(1705.95 571.211) rotate(-134.492) scale(474.259 69.3763)">
<stop stop-color="#131F45"/>
<stop offset="1" stop-color="#131F45" stop-opacity="0"/>
</radialGradient>
<radialGradient id="paint2_radial" cx="0" cy="0" r="1" gradientUnits="userSpaceOnUse" gradientTransform="translate(1030.6 -119.431) rotate(-134.488) scale(474.229 69.3717)">
<stop stop-color="#24356A"/>
<stop offset="1" stop-color="#24356A" stop-opacity="0"/>
</radialGradient>
<radialGradient id="paint3_radial" cx="0" cy="0" r="1" gradientUnits="userSpaceOnUse" gradientTransform="translate(1037.71 104.944) rotate(45.5117) scale(474.229 69.3717)">
<stop stop-color="#24356A"/>
<stop offset="1" stop-color="#24356A" stop-opacity="0"/>
</radialGradient>
<radialGradient id="paint4_radial" cx="0" cy="0" r="1" gradientUnits="userSpaceOnUse" gradientTransform="translate(1754.77 845.245) rotate(45.5117) scale(474.229 69.3717)">
<stop stop-color="#131F45"/>
<stop offset="1" stop-color="#131F45" stop-opacity="0"/>
</radialGradient>
<radialGradient id="paint5_radial" cx="0" cy="0" r="1" gradientUnits="userSpaceOnUse" gradientTransform="translate(1613.98 1015.72) rotate(45.5095) scale(474.211 69.3692)">
<stop stop-color="#131F45"/>
<stop offset="1" stop-color="#131F45" stop-opacity="0"/>
</radialGradient>
<radialGradient id="paint6_radial" cx="0" cy="0" r="1" gradientUnits="userSpaceOnUse" gradientTransform="translate(740.017 77.0464) rotate(45.5117) scale(474.229 69.3717)">
<stop stop-color="#131F45"/>
<stop offset="1" stop-color="#131F45" stop-opacity="0"/>
</radialGradient>
<radialGradient id="paint7_radial" cx="0" cy="0" r="1" gradientUnits="userSpaceOnUse" gradientTransform="translate(1642.89 1330.51) rotate(45.5117) scale(474.229 69.3717)">
<stop stop-color="#131F45"/>
<stop offset="1" stop-color="#131F45" stop-opacity="0"/>
</radialGradient>
<radialGradient id="paint8_radial" cx="0" cy="0" r="1" gradientUnits="userSpaceOnUse" gradientTransform="translate(283.65 2.61445) rotate(45.5117) scale(474.229 69.3717)">
<stop stop-color="#131F45"/>
<stop offset="1" stop-color="#131F45" stop-opacity="0"/>
</radialGradient>
<radialGradient id="paint9_radial" cx="0" cy="0" r="1" gradientUnits="userSpaceOnUse" gradientTransform="translate(498.211 9.39774) rotate(-134.704) scale(816.423 69.373)">
<stop stop-color="#131F45"/>
<stop offset="1" stop-color="#131F45" stop-opacity="0"/>
</radialGradient>
<radialGradient id="paint10_radial" cx="0" cy="0" r="1" gradientUnits="userSpaceOnUse" gradientTransform="translate(505.723 562.872) rotate(-134.49) scale(815.05 119.228)">
<stop stop-color="#131F45"/>
<stop offset="1" stop-color="#131F45" stop-opacity="0"/>
</radialGradient>
<radialGradient id="paint11_radial" cx="0" cy="0" r="1" gradientUnits="userSpaceOnUse" gradientTransform="translate(347 1011.2) rotate(-137.919) scale(804.749 117.722)">
<stop stop-color="#131F45"/>
<stop offset="1" stop-color="#131F45" stop-opacity="0"/>
</radialGradient>
<radialGradient id="paint12_radial" cx="0" cy="0" r="1" gradientUnits="userSpaceOnUse" gradientTransform="translate(150 1114.2) rotate(-137.919) scale(804.749 117.722)">
<stop stop-color="#131F45"/>
<stop offset="1" stop-color="#131F45" stop-opacity="0"/>
</radialGradient>
<radialGradient id="paint13_radial" cx="0" cy="0" r="1" gradientUnits="userSpaceOnUse" gradientTransform="translate(1536.5 691.088) rotate(-136.975) scale(883.247 93.5585)">
<stop stop-color="#131F45"/>
<stop offset="1" stop-color="#24356A" stop-opacity="0"/>
</radialGradient>
<radialGradient id="paint14_radial" cx="0" cy="0" r="1" gradientUnits="userSpaceOnUse" gradientTransform="translate(1146.44 -167.693) rotate(-134.49) scale(815.05 119.228)">
<stop stop-color="#131F45"/>
<stop offset="1" stop-color="#131F45" stop-opacity="0"/>
</radialGradient>
<radialGradient id="paint15_radial" cx="0" cy="0" r="1" gradientUnits="userSpaceOnUse" gradientTransform="translate(1854.97 92.4136) rotate(-136.857) scale(822.648 120.34)">
<stop stop-color="#131F45"/>
<stop offset="1" stop-color="#131F45" stop-opacity="0"/>
</radialGradient>
<radialGradient id="paint16_radial" cx="0" cy="0" r="1" gradientUnits="userSpaceOnUse" gradientTransform="translate(286.576 178.553) rotate(-134.488) scale(474.229 69.3717)">
<stop stop-color="#131F45"/>
<stop offset="1" stop-color="#131F45" stop-opacity="0"/>
</radialGradient>
<radialGradient id="paint17_radial" cx="0" cy="0" r="1" gradientUnits="userSpaceOnUse" gradientTransform="translate(1073.09 1057.29) rotate(-134.146) scale(474.331 69.3669)">
<stop stop-color="#131F45"/>
<stop offset="1" stop-color="#131F45" stop-opacity="0"/>
</radialGradient>
<radialGradient id="paint18_radial" cx="0" cy="0" r="1" gradientUnits="userSpaceOnUse" gradientTransform="translate(547.317 755.162) rotate(45.8585) scale(474.291 69.3607)">
<stop stop-color="#131F45"/>
<stop offset="1" stop-color="#131F45" stop-opacity="0"/>
</radialGradient>
<radialGradient id="paint19_radial" cx="0" cy="0" r="1" gradientUnits="userSpaceOnUse" gradientTransform="translate(1877.1 360.407) rotate(-134.49) scale(474.277 69.3788)">
<stop stop-color="#131F45"/>
<stop offset="1" stop-color="#131F45" stop-opacity="0"/>
</radialGradient>
<radialGradient id="paint20_radial" cx="0" cy="0" r="1" gradientUnits="userSpaceOnUse" gradientTransform="translate(227.536 513.491) rotate(-134.145) scale(474.321 69.3653)">
<stop stop-color="#131F45"/>
<stop offset="1" stop-color="#131F45" stop-opacity="0"/>
</radialGradient>
<radialGradient id="paint21_radial" cx="0" cy="0" r="1" gradientUnits="userSpaceOnUse" gradientTransform="translate(171.199 394.47) rotate(-134.143) scale(474.301 69.3623)">
<stop stop-color="#131F45"/>
<stop offset="1" stop-color="#131F45" stop-opacity="0"/>
</radialGradient>
<radialGradient id="paint22_radial" cx="0" cy="0" r="1" gradientUnits="userSpaceOnUse" gradientTransform="translate(338.96 803.47) rotate(-134.145) scale(474.321 69.3653)">
<stop stop-color="#131F45"/>
<stop offset="1" stop-color="#131F45" stop-opacity="0"/>
</radialGradient>
<radialGradient id="paint23_radial" cx="0" cy="0" r="1" gradientUnits="userSpaceOnUse" gradientTransform="translate(197.913 850.121) rotate(45.8564) scale(474.273 69.3583)">
<stop stop-color="#131F45"/>
<stop offset="1" stop-color="#131F45" stop-opacity="0"/>
</radialGradient>
<radialGradient id="paint24_radial" cx="0" cy="0" r="1" gradientUnits="userSpaceOnUse" gradientTransform="translate(119.928 1082.32) rotate(45.8573) scale(474.301 69.3623)">
<stop stop-color="#131F45"/>
<stop offset="1" stop-color="#131F45" stop-opacity="0"/>
</radialGradient>
<radialGradient id="paint25_radial" cx="0" cy="0" r="1" gradientUnits="userSpaceOnUse" gradientTransform="translate(1640.67 1185.51) rotate(-135) scale(537.224 56.9058)">
<stop stop-color="#131F45"/>
<stop offset="1" stop-color="#24356A" stop-opacity="0"/>
</radialGradient>
<clipPath id="clip0">
<rect width="1900" height="1180" fill="white" transform="translate(0 0.0878906)"/>
</clipPath>
</defs>
</svg>
