<svg width="21" height="20" viewBox="0 0 21 20" fill="none" xmlns="http://www.w3.org/2000/svg">
<path d="M13.5805 13.3314C13.7732 13.3314 15.6184 13.3314 15.784 13.3301C16.7392 13.3225 17.2641 13.2712 17.6095 12.9238C18.0148 12.5161 18.0148 11.86 18.0148 10.5478V4.86764C18.0148 3.55541 18.0148 2.8993 17.6095 2.49164C17.2042 2.08398 16.5518 2.08398 15.2472 2.08398H9.59969C8.295 2.08398 7.64266 2.08398 7.23735 2.49164C6.83203 2.8993 6.83203 3.55541 6.83203 4.86764V6.66732" stroke="#5E5D71" stroke-width="1.2" stroke-linecap="round" stroke-linejoin="round"/>
<path d="M2.17969 8.33659C2.17969 7.41611 2.92588 6.66992 3.84635 6.66992H11.6958C12.6163 6.66992 13.3625 7.41611 13.3625 8.33659V16.2507C13.3625 17.1712 12.6163 17.9173 11.6958 17.9173H3.84635C2.92588 17.9173 2.17969 17.1712 2.17969 16.2507V8.33659Z" stroke="#5E5D71" stroke-width="1.2" stroke-linecap="round" stroke-linejoin="round"/>
</svg>
