<svg width="21" height="20" viewBox="0 0 21 20" fill="none" xmlns="http://www.w3.org/2000/svg">
<path d="M3.17969 5.58789H4.71709H17.0163" stroke="#5E5D71" stroke-width="1.2" stroke-linecap="round" stroke-linejoin="round"/>
<path d="M7.12999 5.58866V3.52482C7.12999 3.13492 7.28618 2.76098 7.5642 2.48528C7.84222 2.20958 8.2193 2.05469 8.61248 2.05469H11.5775C11.9706 2.05469 12.3477 2.20958 12.6257 2.48528C12.9038 2.76098 13.0599 3.13492 13.0599 3.52482V5.58866M15.2837 5.58866V15.8796C15.2837 16.2695 15.1275 16.6435 14.8495 16.9192C14.5715 17.1949 14.1944 17.3498 13.8012 17.3498H6.38874C5.99556 17.3498 5.61848 17.1949 5.34046 16.9192C5.06244 16.6435 4.90625 16.2695 4.90625 15.8796V5.58866H15.2837Z" stroke="#5E5D71" stroke-width="1.2" stroke-linecap="round" stroke-linejoin="round"/>
<path d="M10.0977 10V13.468" stroke="#5E5D71" stroke-width="1.2" stroke-linecap="round" stroke-linejoin="round"/>
</svg>
