<svg width="29" height="28" viewBox="0 0 29 28" fill="none" xmlns="http://www.w3.org/2000/svg">
<g clip-path="url(#clip0)">
<path d="M26.5835 3.69807L1.70429 5.78674C1.19254 5.83056 0.751136 6.16366 0.571641 6.64475C0.390332 7.12536 0.504323 7.66565 0.859843 8.03426L5.47641 12.8093L16.3372 11.0024L9.34202 19.5047L11.169 25.8903C11.3093 26.3831 11.722 26.7525 12.2289 26.8358C12.5392 26.8868 12.8481 26.8266 13.1105 26.6751C13.2774 26.5787 13.4237 26.4467 13.5376 26.2827L27.7861 5.78104C28.0792 5.35861 28.1031 4.80469 27.8453 4.35818C27.5875 3.91166 27.0959 3.65541 26.5835 3.69807Z" fill="#00A5D7"/>
</g>
<defs>
<clipPath id="clip0">
<rect width="28" height="28" fill="white" transform="translate(0.132812)"/>
</clipPath>
</defs>
</svg>
