<svg width="19" height="18" viewBox="0 0 19 18" fill="none" xmlns="http://www.w3.org/2000/svg">
<path d="M8.85371 2.39059C8.95618 2.1442 9.30522 2.1442 9.4077 2.39059L10.9847 6.18205C11.0279 6.28592 11.1255 6.35689 11.2377 6.36588L15.3309 6.69403C15.5969 6.71536 15.7047 7.04731 15.5021 7.22091L12.3835 9.89231C12.298 9.9655 12.2607 10.0803 12.2868 10.1898L13.2396 14.184C13.3015 14.4436 13.0192 14.6488 12.7914 14.5097L9.28708 12.3692C9.19107 12.3106 9.07033 12.3106 8.97433 12.3692L5.46997 14.5097C5.24224 14.6488 4.95987 14.4436 5.02178 14.184L5.97456 10.1898C6.00067 10.0803 5.96335 9.9655 5.87792 9.89231L2.75933 7.22091C2.55667 7.04731 2.66453 6.71536 2.93052 6.69403L7.02373 6.36588C7.13586 6.35689 7.23355 6.28592 7.27675 6.18205L8.85371 2.39059Z" stroke="#2D2D3A" stroke-width="1.2" stroke-linecap="round" stroke-linejoin="round"/>
</svg>
