<svg width="78" height="115" viewBox="0 0 78 115" fill="none" xmlns="http://www.w3.org/2000/svg">
<g opacity="0.5">
<path d="M51.5156 54.8302C53.254 58.474 53.7467 62.0283 54.2714 65.9583C54.4201 67.0479 57.9044 66.127 58.0074 65.1428C58.3293 61.1917 57.0057 57.2163 55.2143 53.7863C54.6234 52.681 51.0337 53.8537 51.5156 54.8302Z" fill="white"/>
<path d="M66.7871 55.9084C65.5778 59.2717 63.8516 62.1624 62.0963 65.2338C61.3214 66.5915 64.6862 65.8367 65.1925 65.1677C67.4891 62.3596 69.0796 58.8169 70.156 55.3581C70.4921 54.3652 67.1517 54.9108 66.7871 55.9084Z" fill="white"/>
<path d="M67.3501 72.4881C69.7862 72.1487 72.2031 71.8712 74.6247 71.6221C75.4905 71.5393 76.8049 70.9729 76.9033 69.9602C77.0017 68.9475 75.7758 68.6202 74.9956 68.689C72.5455 68.9427 70.1618 69.2441 67.7211 69.5549C66.8599 69.6662 65.5647 70.1709 65.4424 71.2168C65.344 72.2295 66.546 72.5901 67.3501 72.4881Z" fill="white"/>
</g>
<path d="M16.722 85.6445C16.722 85.6445 12.2254 86.5271 9.92137 89.7109C7.61735 92.8947 6.10831 99.0787 8.14274 106.149C10.0132 112.649 13.6586 111.932 13.6586 111.932L15.5063 99.9561L16.722 85.6445Z" fill="#68D4E7"/>
<path d="M16.7252 85.6435C16.7252 85.6435 11.8801 88.2583 12.039 104.014C12.1075 110.808 13.7074 112.151 13.7074 112.151C13.7074 112.151 19.825 115.556 31.1861 114.922C42.5473 114.289 48.506 112.389 48.506 112.389C48.506 112.389 50.9264 104.176 50.7675 90.6366C48.5047 87.6293 44.2939 84.6934 44.2939 84.6934L16.7252 85.6435Z" fill="#27C1DD"/>
<path d="M60.0567 35.4103C59.9773 34.856 59.8978 34.2226 59.6595 33.7476C58.865 31.8473 58.0705 31.6098 56.2432 32.164C53.6214 32.9558 52.1119 36.6771 51.953 36.9146C51.7941 36.8355 51.5557 36.8355 51.3174 36.7563C52.1913 33.6684 52.9063 30.5805 52.9858 29.4721C53.2241 26.8592 55.1309 14.3494 34.5537 13.2409C14.0559 12.1324 7.14384 20.7627 7.14384 20.7627C7.14384 20.7627 7.30274 28.1261 7.85888 36.2812C7.62053 35.8853 7.30274 35.4895 6.98494 35.0936C6.2699 33.9059 5.31651 33.1142 4.04533 32.6391C2.21801 32.0057 1.42352 32.3224 0.629037 34.3018C0.39069 34.856 0.311242 35.4103 0.231793 36.0437C0.152344 36.5979 0.152344 37.2313 0.152344 37.7856C0.231793 40.3984 1.26463 42.457 3.25085 44.1197C4.52203 45.149 5.87266 45.8616 7.46163 45.9407C7.77943 45.9407 8.17667 45.9407 8.49447 45.8616C8.57392 47.0492 8.73281 48.2369 8.89171 49.3453C10.7985 65.0222 13.5792 73.4776 16.7571 87.1751C16.8366 87.2543 21.3652 93.7468 30.5018 92.6383C41.0685 91.3715 44.2464 86.7792 44.2464 86.225C44.4053 84.3248 49.3311 55.9961 50.2051 45.0698H50.1256C50.1256 45.0698 50.1256 45.0698 50.2051 45.0698C51.1585 45.3073 52.1119 45.5449 52.9858 45.4657C54.5748 45.3073 55.9254 44.5947 57.1966 43.5654C59.1828 41.9027 60.1362 39.765 60.2156 37.2313C60.1362 36.5979 60.1362 35.9645 60.0567 35.4103Z" fill="#F9C8AD"/>
<path d="M40.4267 73.36C39.9481 73.1138 39.3476 73.1309 38.8153 73.3415C37.5635 73.756 36.5537 74.7523 35.3727 75.2839C34.1918 75.8156 32.8692 76.1129 31.6255 76.2984C28.8371 76.6969 26.0329 76.4834 23.23 76.2318C21.287 76.0486 19.1029 75.7334 19.9756 78.6305C20.6478 80.8327 22.473 82.8169 24.3945 83.6107C29.9407 86.3097 36.4989 85.4278 39.739 79.6564C40.5002 78.2692 41.631 75.0215 41.2584 74.2301C41.0846 73.8612 40.8121 73.5231 40.4267 73.36Z" fill="#85322C"/>
<mask id="mask0" mask-type="alpha" maskUnits="userSpaceOnUse" x="19" y="73" width="23" height="13">
<path d="M40.4267 73.36C39.9481 73.1138 39.3476 73.1309 38.8153 73.3415C37.5635 73.756 36.5537 74.7523 35.3727 75.2839C34.1918 75.8156 32.8692 76.1129 31.6255 76.2984C28.8371 76.6969 26.0329 76.4834 23.23 76.2318C21.287 76.0486 19.1029 75.7334 19.9756 78.6305C20.6478 80.8327 22.473 82.8169 24.3945 83.6107C29.9407 86.3097 36.4989 85.4278 39.739 79.6564C40.5002 78.2692 41.631 75.0215 41.2584 74.2301C41.0846 73.8612 40.8121 73.5231 40.4267 73.36Z" fill="#85322C"/>
</mask>
<g mask="url(#mask0)">
<path d="M30.6499 78.5179C34.5977 78.1984 38.1779 76.6048 40.94 73.7593C40.7956 73.6013 40.6138 73.4421 40.4292 73.3591C39.9505 73.1129 39.3501 73.13 38.8178 73.3405C37.566 73.755 36.5562 74.7513 35.3752 75.283C34.1943 75.8146 32.8717 76.112 31.6279 76.2975C28.8396 76.696 25.8653 75.6667 23.0624 75.415C21.7171 75.2912 19.9334 76.2293 19.1469 77.2716C22.9031 78.1302 26.7784 78.8018 30.6499 78.5179Z" fill="white"/>
<path opacity="0.68" d="M31.1139 80.3508C29.3758 80.6117 27.636 80.9187 25.9739 81.4125C24.5662 81.8692 22.9852 82.4579 21.9322 83.6176C22.47 83.9128 23.0532 84.1175 23.5505 84.3652C29.3271 86.7783 36.7771 85.9821 40.8042 80.6002C37.6713 79.7533 34.4202 79.8689 31.1139 80.3508Z" fill="#E78482"/>
</g>
<path d="M7.03116 42.0628C6.95171 42.0628 6.87226 42.0628 6.79282 42.0628C6.47502 41.271 6.15723 40.4793 5.91888 39.7667C5.44219 40.3209 4.96549 40.8751 4.4888 41.4294C3.93266 41.1127 3.77376 40.8751 4.09156 40.4793C4.40935 40.0834 4.6477 39.6875 4.96549 39.2916C5.28329 38.8957 5.20384 38.579 4.8066 38.4207C4.25045 38.104 3.61487 37.9456 3.05872 37.6289C2.82038 37.5497 2.74093 37.3122 2.58203 37.1539C2.74093 37.0747 2.97927 36.8371 3.13817 36.9163C3.77376 37.1539 4.40935 37.3914 4.96549 37.6289C6.63392 38.3415 7.03116 39.8458 7.19006 41.4294C7.26951 41.6669 7.11061 41.9044 7.03116 42.0628Z" fill="#F5CEBB"/>
<path d="M57.0071 37.2335C56.451 37.5502 55.8154 37.7877 55.2593 38.0252C54.862 38.2628 54.7826 38.5795 55.1004 38.8962C55.4182 39.2921 55.6565 39.6879 55.9743 40.0047C56.2921 40.4005 56.2127 40.5589 55.6565 40.9548C55.1798 40.4005 54.7031 39.8463 54.2264 39.2921C53.9881 40.0047 53.6703 40.8756 53.3525 41.6674C53.273 41.6674 53.1936 41.6674 53.1141 41.6674C53.0347 41.509 52.8758 41.2715 52.9552 41.1131C53.0347 39.5296 53.5114 38.0252 55.1004 37.2335C55.6565 36.9168 56.2921 36.6792 56.9277 36.4417C57.0866 36.3625 57.3249 36.6001 57.4838 36.6792C57.3249 36.9168 57.2455 37.1543 57.0071 37.2335Z" fill="#F3A579"/>
<path fill-rule="evenodd" clip-rule="evenodd" d="M4.57474 41.4283C5.05143 40.8741 5.52812 40.3199 6.00482 39.7656C6.32261 40.4782 6.56096 41.27 6.87875 42.0617C6.9582 42.0617 7.03765 42.0617 7.1171 42.0617C7.19655 41.9034 7.276 41.6659 7.276 41.5075C7.1171 39.924 6.64041 38.4196 5.05143 37.707C4.41584 37.4695 3.8597 37.1528 3.22411 36.9945C3.06521 36.9153 2.82687 37.1528 2.66797 37.232C2.82687 37.3903 2.98576 37.6279 3.14466 37.707C3.7008 38.0237 4.33639 38.1821 4.89253 38.4988C5.28978 38.6572 5.36923 38.9739 5.05143 39.3697C4.73364 39.7656 4.49529 40.1615 4.1775 40.5574C3.8597 40.9533 3.93915 41.1116 4.57474 41.4283Z" fill="#F3A579"/>
<path d="M24.5105 37.426C24.5105 37.426 21.412 32.3587 17.2807 33.4671C13.1493 34.5756 9.8125 40.1179 9.8125 40.1179C9.8125 40.1179 19.7436 33.6255 24.5105 37.426Z" fill="#FEE16C"/>
<path d="M34.0469 37.3478C34.0469 37.3478 36.7481 32.2806 40.5617 33.3098C44.3752 34.3391 47.4737 39.8815 47.4737 39.8815C47.4737 39.8815 38.2577 33.4682 34.0469 37.3478Z" fill="#FEE16C"/>
<path fill-rule="evenodd" clip-rule="evenodd" d="M0.918437 27.4146C0.362296 23.8517 -1.05242 21.351 -0.352744 17.5176C0.81055 11.144 3.98724 5.3511 10.4523 4.92853C13.2301 4.74696 17.3643 6.6704 17.3643 6.6704C16.0789 4.92853 17.3643 2.23429 24.1147 1.27639C30.865 0.318498 38.6961 0.69036 45.4098 7.62052C49.4848 11.8269 53.834 19.8351 64.0347 19.8351C61.2375 31.3664 53.588 29.5968 51.5273 39.1327C50.9049 36.0475 51.0506 31.2943 46.3631 25.6727C38.6566 16.4091 26.5009 15.8549 23.5613 16.4883C14.6631 18.4677 11.4851 22.0306 11.4851 22.0306L6.4004 29.0773L8.46607 37.9451L6.16206 37.2325C4.89088 34.0654 1.79237 31.7693 1.79237 31.7693L1.39513 30.265C1.39513 30.265 1.31568 29.7899 1.23623 29.0773C1.07733 28.6023 0.997886 27.9689 0.918437 27.4146Z" fill="#FED065"/>
<path fill-rule="evenodd" clip-rule="evenodd" d="M6.1595 37.2323L8.46351 37.9449C8.46351 37.9449 7.90737 34.0652 8.30461 30.0273C8.7813 25.0391 11.4826 22.1096 11.4826 22.1096C11.4826 22.1096 14.5811 18.4675 23.4793 16.4881C26.4189 15.8547 38.5746 16.4881 46.2811 25.6726C50.9686 31.2941 51.0163 34.9055 51.4453 39.1325C52.9572 31.9371 56.2682 33.193 61.8626 25.3722C61.8626 25.3722 54.2859 27.2986 47.3934 19.9719C43.3932 15.7195 42.3087 14.8254 34.1255 13.0835C25.9422 11.3416 14.3427 16.013 11.3237 22.0304C10.9264 22.9014 7.66902 26.306 4.88831 24.4057C1.94871 22.4263 -0.580638 17.5067 -0.580638 17.5067C-0.580638 17.5067 -0.953359 25.0103 1.78981 31.7691C3.21989 36.203 6.1595 37.2323 6.1595 37.2323Z" fill="#F5BA66"/>
<path d="M29.5848 67.3488C27.9654 67.4338 25.8346 66.4995 24.8118 65.4802C23.4481 64.0362 22.9689 62.4863 24.4178 62.4863C24.1782 63.4429 25.5741 65.1404 26.1708 65.4802C28.3868 66.6693 30.0762 66.8701 32.0289 65.8739C32.0289 66.8104 31.2042 67.2639 29.5848 67.3488Z" fill="#F3A579"/>
<path d="M18.4418 41.0794C22.1233 40.9047 25.3666 43.9621 25.5419 47.8931C25.7172 51.8241 22.9122 55.2309 19.143 55.4056C15.4615 55.5803 12.2183 52.5229 12.0429 48.5919C11.8676 44.6609 14.6726 41.2541 18.4418 41.0794Z" fill="white"/>
<path d="M22.1941 48.9691C21.7558 50.5415 20.178 51.4151 18.6879 50.9783C17.1978 50.5415 16.4089 48.9691 16.8471 47.3968C17.2854 45.8244 18.8632 44.9508 20.3534 45.3876C21.7559 45.9117 22.6324 47.4841 22.1941 48.9691Z" fill="#00A5D7"/>
<path d="M21.6563 45.9082C21.8063 45.1509 21.3118 44.4158 20.5518 44.2664C19.7919 44.1169 19.0543 44.6097 18.9043 45.367C18.7544 46.1243 19.2489 46.8594 20.0088 47.0089C20.7687 47.1583 21.5063 46.6655 21.6563 45.9082Z" fill="white"/>
<path d="M45.9086 48.3312C45.821 52.2622 42.6654 55.407 38.8962 55.3196C35.2147 55.2323 32.2344 51.9128 32.4097 47.8945C32.4974 43.9635 35.653 40.8187 39.4221 40.9061C43.1037 40.9934 45.9963 44.3129 45.9086 48.3312Z" fill="white"/>
<path d="M38.6115 45.2095C40.1016 44.7727 41.6794 45.5589 42.1177 47.1313C42.6436 48.6163 41.8547 50.276 40.3646 50.7128C38.8745 51.1496 37.2967 50.3634 36.8584 48.791C36.3324 47.306 37.1213 45.7336 38.6115 45.2095Z" fill="#00A5D7"/>
<path d="M40.9103 46.842C41.6673 46.6784 42.1479 45.9343 41.9838 45.1799C41.8197 44.4255 41.073 43.9465 40.316 44.1101C39.559 44.2737 39.0784 45.0178 39.2425 45.7722C39.4066 46.5266 40.1533 47.0056 40.9103 46.842Z" fill="white"/>
<path d="M17.1114 42.5891C20.267 42.1523 23.7993 43.3759 24.8452 45.1851C23.7057 42.6519 21.2513 40.9921 18.4463 41.0795C15.8167 41.2542 13.5228 42.8611 12.5586 45.307C13.3761 43.8227 15.2707 42.7638 17.1114 42.5891Z" fill="#F3A579"/>
<path d="M40.3954 42.2885C37.2398 41.9391 34.6257 43.1011 33.0234 45.0985C34.163 42.5652 36.6173 40.8181 39.3346 40.9055C41.9643 40.9928 44.2308 42.5768 45.2827 44.9354C44.4585 43.6584 42.2361 42.4632 40.3954 42.2885Z" fill="#F3A579"/>
<path d="M46.2727 10.6761C41.6286 8.81843 35.5855 9.90208 33.1445 10.6761C35.9279 14.04 42.8612 20.6697 48.3268 20.2767C55.1588 19.7855 59.5796 14.2484 58.4632 11.0334C56.0966 13.3554 52.0777 12.9982 46.2727 10.6761Z" fill="#FED065"/>
<path d="M44.1211 9.11328C46.0115 11.1078 51.4979 14.2843 58.3209 11.0334C56.8025 14.2931 45.8182 14.829 44.1211 9.11328Z" fill="#F5BA66"/>
<path d="M45.7491 96.4043C45.4298 85.9277 51.1197 87.5694 53.6911 87.5655C71.1612 94.5106 63.1524 107.432 58.9839 109.688C54.8153 111.943 46.1482 109.5 45.7491 96.4043Z" fill="#68D4E7"/>
<path d="M74.1352 93.1373L74.2031 93.028C74.2323 92.9761 74.2625 92.9252 74.2889 92.8724C74.3422 92.7683 74.39 92.6616 74.4323 92.5527C74.54 92.3077 74.6307 92.0556 74.7039 91.7982C74.7755 91.5483 74.851 91.3003 74.9142 91.0391C74.9672 90.7702 74.9922 90.4965 74.9886 90.2224C74.9855 90.0837 74.9729 89.9454 74.9509 89.8085L74.933 89.7066C74.9248 89.6673 74.9141 89.6286 74.9009 89.5906L74.8349 89.402C74.7604 89.1483 74.6803 88.9003 74.5916 88.6476C74.5473 88.5231 74.4973 88.3986 74.4464 88.2704C74.416 88.1955 74.3785 88.1239 74.3342 88.0563C74.3235 88.0408 74.3115 88.0263 74.2984 88.0129C74.2908 88.0195 74.2833 88.0242 74.2861 88.0129L74.3323 87.9233L74.503 87.5461C74.7098 87.0402 74.825 86.5015 74.8434 85.9552C74.8619 85.4092 74.7821 84.8642 74.6077 84.3464C74.4396 83.8245 74.1744 83.3391 73.8259 82.9159C73.7816 82.864 73.7316 82.8216 73.6816 82.7697C73.6477 82.7357 73.659 82.7499 73.6514 82.7442L73.6392 82.7376C73.6316 82.7282 73.6165 82.7376 73.6015 82.7376C73.5864 82.7376 73.6015 82.7282 73.6071 82.7216L73.6297 82.6924L73.6373 82.6829L73.6722 82.6509L73.7457 82.5811C73.84 82.4868 73.9343 82.3925 74.0286 82.2821C74.4166 81.8747 74.6761 81.3621 74.7746 80.8082C74.8355 80.2519 74.753 79.6893 74.5351 79.1739C74.3125 78.6662 73.9575 78.2278 73.5072 77.9046C73.4666 77.8735 73.4251 77.8395 73.3855 77.8103L73.3261 77.7669L73.2478 77.7141L73.2591 77.7207C72.9337 77.5001 72.586 77.3142 72.2218 77.1662H72.2152L72.1096 77.1247C71.6117 76.9437 71.1175 76.7937 70.6187 76.6428L69.1211 76.1817C68.6204 76.0497 68.1253 75.9129 67.6283 75.7668C67.1313 75.6206 66.6212 75.4952 66.1289 75.3499C65.6482 75.196 65.1859 74.9898 64.7502 74.7351C64.3181 74.5091 63.9489 74.1792 63.6761 73.7751C63.4416 73.3435 63.3045 72.8658 63.2743 72.3756C63.2048 71.8774 63.1984 71.3723 63.2555 70.8724C63.3498 70.3698 63.4846 69.8794 63.628 69.3796C63.7383 68.8723 63.8458 68.363 63.9373 67.8491C64.0656 67.3427 64.1815 66.8306 64.2617 66.3082C64.2908 65.7796 64.2788 65.2496 64.2259 64.7229C64.2104 64.1925 64.1368 63.6653 64.0061 63.1509C63.8628 62.6388 63.7157 62.1211 63.4507 61.6421C63.1654 61.1743 62.7897 60.7681 62.3455 60.4473C61.9029 60.098 61.3588 59.9021 60.7951 59.889C60.5145 59.8849 60.2349 59.9224 59.9653 60.0003L59.7644 60.0597L59.5758 60.1379C59.4452 60.1857 59.319 60.2447 59.1986 60.3143C58.7302 60.614 58.3495 61.0324 58.0952 61.527C57.8306 61.9967 57.6532 62.5105 57.5719 63.0434C57.4816 63.5631 57.4308 64.089 57.42 64.6164C57.4257 65.1398 57.4455 65.6537 57.4643 66.1762L57.4427 67.7284C57.4427 68.2442 57.4379 68.7591 57.4153 69.2712C57.4153 69.7851 57.404 70.2981 57.3616 70.8093C57.2686 71.3115 57.1458 71.8078 56.9938 72.2955C56.8732 72.7898 56.7246 73.2769 56.5487 73.7543C56.3648 74.2315 56.1535 74.6974 55.9404 75.1689L55.3529 76.6042C55.1153 77.0662 54.8814 77.5349 54.6692 78.0131C54.4936 78.5097 54.3441 79.0153 54.2213 79.5276L54.1175 79.9048C54.0836 80.0321 54.06 80.1622 54.0308 80.2905C53.9721 80.55 53.9299 80.813 53.9044 81.0779C53.8422 81.606 53.8309 82.1322 53.8186 82.6499C53.8452 83.1594 53.8452 83.67 53.8186 84.1795C53.77 84.6709 53.635 85.1497 53.4197 85.5941C53.2017 86.0526 52.9525 86.4956 52.6738 86.92C52.3881 87.3661 52.1404 87.8355 51.9335 88.3232C51.8332 88.5733 51.7553 88.8317 51.7006 89.0955C51.6742 89.2247 51.643 89.352 51.6195 89.4812L51.5534 89.8707C51.4726 90.3912 51.4297 90.9169 51.4252 91.4437C51.4114 91.9714 51.4405 92.4993 51.512 93.0223C51.5936 93.5429 51.7101 94.0573 51.8609 94.5623C52.009 95.0649 52.1834 95.5594 52.3833 96.0438C52.4776 96.2833 52.5559 96.5332 52.6662 96.7793C52.7714 97.0261 52.8917 97.266 53.0265 97.4979C53.3076 97.9582 53.6421 98.3837 54.0232 98.7653C54.4146 99.1295 54.8491 99.4443 55.3171 99.7027C55.77 99.9862 56.2617 100.202 56.7769 100.344C57.2933 100.489 57.8287 100.555 58.3649 100.54C58.9109 100.538 59.4513 100.43 59.9568 100.224C60.1303 100.143 60.2971 100.049 60.4556 99.9413L60.5754 99.8611L60.6876 99.7668L60.7989 99.6725C60.813 99.6631 60.7989 99.664 60.8036 99.6584L60.7961 99.6376C60.7961 99.6376 60.8046 99.6471 60.8083 99.6499L60.8225 99.6593L60.9168 99.7103C61.0475 99.7776 61.1859 99.8289 61.3289 99.863C61.6017 99.9256 61.8822 99.9484 62.1616 99.9309C62.4313 99.9309 62.701 99.897 62.949 99.88C63.2001 99.8629 63.4519 99.8588 63.7034 99.8677C64.2089 99.8432 64.7247 99.8593 65.2443 99.8677C65.7656 99.9262 66.2899 99.9542 66.8145 99.9517C67.3378 99.9239 67.8593 99.8694 68.3771 99.7885C68.8967 99.7357 69.4144 99.6612 69.9265 99.5867C70.4366 99.4924 70.9421 99.3915 71.4514 99.3038C71.9606 99.2161 72.4991 99.135 72.9989 98.8578C73.345 98.6692 73.6703 98.3966 73.8391 98.0477C73.8721 97.9939 74.0588 97.7092 73.9428 97.6469C73.93 97.6403 73.9158 97.6368 73.9013 97.6365L73.907 97.6271L73.9183 97.6347C73.9445 97.6502 73.9747 97.6578 74.0051 97.6566C74.0355 97.6555 74.065 97.6455 74.0899 97.628C74.1984 97.5536 74.238 97.3649 74.2616 97.3018C74.2616 97.3018 74.3559 97.0594 74.4342 96.8123C74.5124 96.5653 74.5756 96.3154 74.5756 96.3154C74.7228 95.8035 74.8074 95.2756 74.8274 94.7433C74.845 94.465 74.8189 94.1856 74.7501 93.9153C74.7089 93.7696 74.6453 93.6312 74.5615 93.5051C74.5133 93.4403 74.4583 93.3809 74.3974 93.3278C74.3688 93.2996 74.3372 93.2746 74.3031 93.2533L74.2512 93.2203C74.2333 93.209 74.2135 93.1968 74.2125 93.1968L74.1663 93.1807H74.1465C74.1355 93.1825 74.1247 93.1857 74.1145 93.1902C74.1145 93.1902 74.0975 93.1968 74.1013 93.1902L74.1088 93.1817C74.1186 93.1675 74.1274 93.1527 74.1352 93.1373ZM72.2077 77.17L72.1407 77.1577C72.1636 77.1571 72.1864 77.1613 72.2077 77.17Z" fill="#F9C8AD"/>
<path opacity="0.3" d="M63.2453 99.0108C63.223 98.9265 63.1914 98.8449 63.151 98.7675C63.1186 98.6964 63.0811 98.6277 63.0388 98.562L62.9615 98.3602L62.8493 98.2055L62.7701 98.049C62.7635 97.9867 62.7606 97.9245 62.7559 97.8651C62.7295 97.8141 62.7069 97.7604 62.6814 97.7085C62.6295 97.6642 62.5871 97.6142 62.5371 97.5642C62.5211 97.5058 62.5173 97.4445 62.506 97.3851C62.4947 97.3257 62.4919 97.2653 62.4853 97.2049C62.4985 97.1427 62.5192 97.0814 62.5381 97.022C62.5347 96.9626 62.5347 96.9031 62.5381 96.8438C62.5302 96.7841 62.5261 96.7239 62.5258 96.6636C62.5449 96.6055 62.5672 96.5485 62.5928 96.493C62.5632 96.4274 62.538 96.36 62.5173 96.2912C62.5466 96.2346 62.5739 96.1789 62.606 96.1261C62.6106 96.0628 62.6188 95.9999 62.6305 95.9375C62.671 95.8885 62.705 95.8366 62.7474 95.7904C62.7672 95.7329 62.7851 95.6735 62.8087 95.6169C62.8323 95.5603 62.8568 95.5028 62.8851 95.4481C62.9068 95.4094 62.9643 95.4009 62.9426 95.3274C62.9426 95.3151 62.969 95.2897 62.8747 95.2114L62.8436 95.1878L62.8889 95.2095L62.9011 95.2246C62.9393 95.2815 62.9912 95.3279 63.052 95.3594C63.0597 95.3637 63.0681 95.3664 63.0768 95.3673C63.0855 95.3682 63.0943 95.3673 63.1026 95.3648C63.111 95.3622 63.1188 95.358 63.1255 95.3524C63.1322 95.3468 63.1376 95.3399 63.1416 95.3321C63.1504 95.3109 63.1564 95.2888 63.1595 95.2661C63.1677 95.2476 63.174 95.2283 63.1784 95.2086C63.1875 95.1696 63.1906 95.1296 63.1878 95.0897C63.1847 95.0395 63.1706 94.9905 63.1463 94.9464C63.1198 94.8727 63.0738 94.8076 63.0134 94.7578C62.963 94.7193 62.9062 94.6902 62.8455 94.672C62.7591 94.626 62.6688 94.5875 62.5758 94.5569C62.5296 94.5692 62.4815 94.5833 62.44 94.5965C62.4935 94.5174 62.5292 94.4277 62.5447 94.3334C62.5791 94.2257 62.5913 94.1121 62.5805 93.9996C62.5532 93.9053 62.5211 93.8327 62.4975 93.7676L62.4032 93.579L62.3655 93.3668C62.3061 93.3121 62.2486 93.2565 62.1929 93.199C62.1835 93.1273 62.1646 93.0594 62.1571 92.9887C62.1279 92.9236 62.1015 92.8576 62.076 92.7916C62.076 92.7199 62.076 92.6492 62.0817 92.5784L62.0326 92.3766C62.0156 92.3087 62.0024 92.2408 61.9921 92.1711C61.9921 92.122 62.0081 92.0768 61.9553 92.023C61.9468 92.0145 61.9477 91.9702 61.861 91.9655H61.8327H61.8525C61.9206 91.9693 61.989 91.9693 62.0571 91.9655C62.1514 91.9608 62.0977 91.9381 62.0977 91.9306C62.0977 91.923 62.0977 91.9032 62.1033 91.8759C62.1044 91.8567 62.1044 91.8375 62.1033 91.8184C62.1194 91.7618 62.1429 91.7043 62.1656 91.6458C62.2156 91.5977 62.2674 91.5515 62.3231 91.5081C62.3353 91.4421 62.3532 91.3733 62.3721 91.3044L62.5456 91.1601L62.6107 90.9347C62.6839 90.883 62.7536 90.8263 62.8191 90.765C62.8536 90.6714 62.8792 90.5748 62.8955 90.4764C62.9257 90.3528 62.928 90.2239 62.9021 90.0992C62.8746 89.9839 62.8203 89.8766 62.7437 89.7861C62.7784 89.7382 62.8084 89.6871 62.8332 89.6334C62.8824 89.5049 62.8986 89.3661 62.8804 89.2298C62.8828 89.1118 62.8689 88.994 62.8389 88.8799C62.7644 88.7969 62.6937 88.7375 62.6267 88.6724C62.6069 88.5885 62.589 88.5046 62.572 88.4206L62.4532 88.1924L62.424 87.9359C62.3891 87.8576 62.357 87.7784 62.3297 87.6983C62.3023 87.6181 62.2703 87.537 62.2438 87.455C62.2278 87.3965 62.2438 87.3324 62.1769 87.2824C62.1665 87.2739 62.1599 87.2202 62.059 87.2362L62.0279 87.2437H62.0496C62.1252 87.2336 62.2 87.2175 62.2731 87.1956C62.3674 87.1645 62.2995 87.1457 62.2957 87.1353L62.2382 86.9759C62.2306 86.8929 62.2259 86.8099 62.2222 86.727C62.2467 86.6433 62.2737 86.5616 62.3033 86.4818C62.2863 86.4016 62.2703 86.3196 62.2589 86.2375C62.2901 86.1592 62.3259 86.0838 62.3627 86.0112C62.3551 85.9307 62.351 85.8499 62.3504 85.7688C62.4039 85.7188 62.4599 85.6716 62.5183 85.6274C62.5437 85.5567 62.573 85.4822 62.6079 85.402L62.7361 85.1681C62.7795 85.0861 62.8229 85.0003 62.8634 84.9069C62.921 84.8093 62.9675 84.7055 63.002 84.5976C62.9986 84.4563 62.9631 84.3177 62.8983 84.1921C62.9104 84.0434 62.8831 83.8941 62.8191 83.7592C62.8803 83.6306 62.9073 83.4883 62.8974 83.3462C62.917 83.2209 62.9138 83.0931 62.8879 82.969C62.8498 82.8702 62.8022 82.7755 62.7455 82.6861C62.688 82.604 62.6277 82.5314 62.5692 82.4616L62.4211 82.2551C62.3787 82.1844 62.3353 82.1137 62.2957 82.0401C62.2561 81.9665 62.2438 81.8817 62.2193 81.8025C62.1948 81.7232 62.1477 81.6544 62.1156 81.578C62.0835 81.5016 62.0628 81.4224 62.0392 81.3432C62.0317 81.2596 62.0266 81.1763 62.0241 81.0933C62.0005 81.016 61.977 80.9386 61.9591 80.8594C61.9147 80.7859 61.8742 80.7095 61.8336 80.6312C61.8261 80.5492 61.8167 80.4671 61.8148 80.3851C61.8129 80.303 61.8091 80.221 61.8082 80.139C61.8299 80.0569 61.8487 79.9768 61.8751 79.8975C61.8751 79.8174 61.8893 79.7372 61.8987 79.6571C61.9081 79.5769 61.9091 79.4949 61.9194 79.4147C61.9477 79.3383 61.9817 79.2638 62.0137 79.1903C62.0043 79.1035 61.9949 79.0149 61.993 78.9253C62.0326 78.8517 62.0741 78.7801 62.1175 78.7103C62.1411 78.6311 62.1693 78.5528 62.2005 78.4754C62.2552 78.4123 62.308 78.3481 62.3655 78.2868C62.4032 78.2142 62.4466 78.1444 62.49 78.0747C62.5268 78.0228 62.5626 77.9709 62.6022 77.92C62.6118 77.9122 62.6192 77.9022 62.6239 77.8908L62.6361 77.8747C62.672 77.8276 62.7399 77.8153 62.7455 77.7371C62.7455 77.7239 62.7899 77.6946 62.7182 77.6126L62.6937 77.5881L62.6814 77.5767L62.6578 77.556C62.6579 77.5044 62.6532 77.453 62.6437 77.4023C62.6248 77.3155 62.5928 77.3683 62.5815 77.3683C62.5701 77.3683 62.4032 77.3787 62.4032 77.3844C62.3119 77.3821 62.2206 77.3855 62.1297 77.3947C62.0354 77.3768 61.9411 77.3589 61.8468 77.3457C61.7582 77.3768 61.6705 77.4108 61.5847 77.4475C61.4904 77.4391 61.3961 77.4391 61.3018 77.4362C61.2169 77.4768 61.1339 77.5239 61.0509 77.5673C60.9566 77.5626 60.8557 77.5569 60.7567 77.5551C60.6728 77.5965 60.5879 77.6343 60.5058 77.6795C60.4238 77.7248 60.3352 77.7512 60.2522 77.7918C60.1692 77.8323 60.0862 77.8738 60.0051 77.9181C59.924 77.9624 59.8335 77.9898 59.7486 78.0266C59.6854 78.103 59.626 78.185 59.5675 78.2623C59.4676 78.2746 59.3667 78.2887 59.2639 78.3057C59.2045 78.3849 59.1451 78.4566 59.0875 78.5396C59.0184 78.6024 58.9527 78.6707 58.8904 78.7442C58.8103 78.7951 58.7367 78.8546 58.6585 78.9111C58.5962 78.9828 58.5293 79.0498 58.4698 79.1261C58.3972 79.1893 58.3275 79.2572 58.2605 79.327C58.219 79.4157 58.186 79.509 58.152 79.5995C58.1181 79.6901 58.0804 79.7778 58.0577 79.8711C57.9933 79.9468 57.9329 80.0258 57.8767 80.1078C57.8616 80.2021 57.8512 80.3059 57.8456 80.4039C57.7984 80.4931 57.7569 80.5851 57.7211 80.6793C57.7404 80.7816 57.7656 80.8826 57.7965 80.982C57.7638 81.0797 57.7371 81.1792 57.7164 81.28C57.7444 81.3767 57.7794 81.4713 57.821 81.5629C57.8014 81.6674 57.7876 81.7729 57.7795 81.8788C57.8542 81.9562 57.9329 82.0296 58.0153 82.0986C58.0398 82.1929 58.0662 82.2796 58.0964 82.3673C58.1049 82.4616 58.1172 82.5635 58.1304 82.6616C58.2011 82.7276 58.2728 82.7898 58.3444 82.8502C58.384 82.9303 58.4208 83.0086 58.4661 83.0935C58.4968 83.1934 58.5352 83.2909 58.5811 83.3849C58.6858 83.4438 58.7969 83.4906 58.9121 83.5244L58.9366 83.5433C58.8923 83.5433 58.8423 83.5433 58.8008 83.5433C58.7272 83.626 58.6588 83.7132 58.5962 83.8045C58.5034 83.8413 58.4131 83.8838 58.3256 83.9318C58.2202 83.9636 58.1175 84.0033 58.0181 84.0506C57.964 84.1467 57.9171 84.2466 57.8776 84.3496C57.8085 84.4293 57.7455 84.5141 57.689 84.6033C57.6171 84.6848 57.5522 84.7722 57.4948 84.8645C57.5024 84.9767 57.5194 85.088 57.5457 85.1974C57.522 85.2928 57.5037 85.3894 57.491 85.4869C57.4674 85.5812 57.4448 85.6755 57.4297 85.7764C57.4467 85.8707 57.4721 85.965 57.4966 86.0593C57.4816 86.1536 57.4674 86.2479 57.458 86.3479C57.4684 86.4422 57.4806 86.5365 57.4957 86.6251C57.5504 86.709 57.606 86.7892 57.6626 86.8684L57.5825 87.1655L57.6862 87.4163C57.7032 87.5056 57.7217 87.5958 57.7418 87.687C57.8022 87.7662 57.8635 87.8454 57.9304 87.9218C57.9273 88.0262 57.9298 88.1307 57.938 88.2349C58.0117 88.3116 58.0898 88.384 58.1719 88.4518C58.2159 88.5451 58.267 88.6349 58.3246 88.7205C58.3749 88.8197 58.4336 88.9143 58.5 89.0034C58.5948 89.0546 58.6935 89.0981 58.7952 89.1336C58.8735 89.1996 58.9536 89.259 59.0347 89.3146C59.129 89.3505 59.2148 89.3825 59.3016 89.4089L59.5666 89.4702L59.8184 89.5513L59.8589 89.5664L59.6317 89.5428C59.5619 89.5909 59.4921 89.6419 59.4242 89.6937C59.3412 89.6843 59.2563 89.6767 59.1677 89.6739C59.096 89.7201 59.0253 89.7682 58.9574 89.821C58.8628 89.8184 58.7682 89.8237 58.6745 89.8371C58.6211 89.9238 58.5759 90.0154 58.5396 90.1105C58.4638 90.1587 58.3928 90.214 58.3275 90.2756C58.2425 90.3246 58.162 90.3811 58.087 90.4444C58.0681 90.5376 58.0571 90.6322 58.054 90.7273C58.0179 90.8043 57.9864 90.8833 57.9597 90.964C57.9148 91.0406 57.8742 91.1196 57.838 91.2007C57.8683 91.2906 57.9042 91.3785 57.9455 91.4638C57.9351 91.5449 57.9323 91.626 57.9295 91.708C57.9267 91.7901 57.905 91.8731 57.9012 91.957C57.9276 92.0372 57.9606 92.1135 57.9955 92.189C57.9955 92.272 57.987 92.3578 57.9889 92.4426C58.0087 92.5228 58.0351 92.6001 58.0606 92.6784C58.1247 92.7416 58.1907 92.801 58.2586 92.8557C58.2501 92.95 58.2454 93.0443 58.2463 93.1386C58.2982 93.2046 58.3529 93.2669 58.4086 93.3272C58.45 93.397 58.4915 93.4696 58.5387 93.5356C58.6141 93.5799 58.6924 93.6186 58.7678 93.6563C58.7943 93.7384 58.8216 93.8232 58.8546 93.9053C58.9348 93.9392 59.0168 93.9675 59.097 93.9996C59.1498 94.059 59.2026 94.1175 59.2592 94.1741C59.3157 94.2306 59.3535 94.307 59.4082 94.373C59.4861 94.4001 59.5641 94.4249 59.642 94.4475C59.7014 94.5003 59.7618 94.5532 59.8231 94.6031C59.8948 94.6352 59.9683 94.6654 60.0409 94.6974C60.1135 94.7295 60.1928 94.7408 60.2701 94.7578C60.3474 94.7748 60.4172 94.8068 60.4898 94.8295C60.5624 94.8521 60.636 94.8804 60.7105 94.904C60.7407 94.9209 60.7737 94.9351 60.8048 94.9511C60.7796 94.9825 60.7551 95.014 60.7312 95.0454C60.6433 95.0399 60.5551 95.0399 60.4672 95.0454C60.4149 95.1109 60.3667 95.1796 60.3229 95.251C60.2685 95.3063 60.2172 95.3645 60.1692 95.4255C60.1039 95.4693 60.041 95.5165 59.9806 95.5669C59.9318 95.6274 59.8861 95.6903 59.8438 95.7555C59.7891 95.8111 59.7354 95.8687 59.6864 95.929C59.6662 96.0049 59.6498 96.0817 59.6373 96.1591C59.6194 96.2336 59.6043 96.3072 59.5939 96.3817C59.5468 96.4439 59.4996 96.509 59.461 96.5759C59.461 96.6542 59.4657 96.7315 59.4742 96.807C59.4402 96.8768 59.41 96.9484 59.3799 97.022C59.4074 97.099 59.4389 97.1745 59.4742 97.2483C59.444 97.3219 59.4185 97.3964 59.394 97.4728C59.4204 97.5451 59.45 97.6155 59.4827 97.684C59.4544 97.7623 59.4289 97.8424 59.4063 97.9245C59.4695 97.9867 59.5345 98.0452 59.6015 98.1008C59.6109 98.1725 59.6203 98.2451 59.6345 98.3168C59.626 98.3969 59.6213 98.4771 59.6185 98.5591C59.676 98.6138 59.7335 98.6676 59.7939 98.7176C59.8193 98.7855 59.8476 98.8515 59.8768 98.9175C59.8919 98.992 59.907 99.0674 59.9259 99.141C60.0023 99.1787 60.0805 99.2117 60.1569 99.2438C60.1946 99.3041 60.2314 99.3635 60.2729 99.422C60.3144 99.4805 60.337 99.555 60.3729 99.621C60.4342 99.6644 60.4974 99.7049 60.5615 99.7436C60.5964 99.8115 60.635 99.8784 60.6775 99.9463C60.7341 99.9973 60.7916 100.047 60.8529 100.094C60.9362 100.109 61.0203 100.119 61.1047 100.124C61.1474 100.205 61.197 100.283 61.2527 100.357C61.3335 100.378 61.4158 100.393 61.4989 100.403C61.5777 100.432 61.6588 100.454 61.7412 100.471C61.8304 100.448 61.9175 100.418 62.0015 100.381C62.0905 100.413 62.1824 100.437 62.2759 100.451C62.351 100.398 62.4211 100.338 62.4853 100.272C62.5658 100.247 62.644 100.215 62.7191 100.177C62.806 100.15 62.8898 100.114 62.969 100.069C62.9946 100.03 63.0173 99.9894 63.0369 99.9473C63.0583 99.9063 63.0766 99.8637 63.0916 99.82C63.157 99.7519 63.2132 99.6755 63.2585 99.5927C63.3228 99.4058 63.3198 99.2024 63.2501 99.0175L63.2453 99.0108Z" fill="#F3A579"/>
<path opacity="0.3" d="M72.3264 77.8028C72.3293 77.7711 72.3267 77.7392 72.3188 77.7085C72.3131 77.6802 72.3075 77.6472 72.299 77.6141L72.2566 77.5151C72.227 77.4588 72.1916 77.4057 72.151 77.3567L72.0953 77.2973C71.9218 77.122 71.7179 76.9795 71.4937 76.8767C71.2912 76.758 71.0814 76.6522 70.8656 76.5598C70.6421 76.4948 70.4186 76.4391 70.1951 76.3892C69.9788 76.3131 69.7613 76.2411 69.5425 76.1732C69.3171 76.1327 69.0927 76.0968 68.8683 76.0619L68.2176 75.8497L67.8913 75.7856C67.7838 75.7639 67.6951 75.7385 67.5773 75.7055C67.3575 75.6366 67.1378 75.5763 66.9171 75.5169L66.2674 75.3339C66.0549 75.2648 65.8459 75.1903 65.6403 75.1104C65.4253 75.0576 65.214 74.9947 65.0066 74.9218C64.9123 74.8577 64.8236 74.7992 64.7387 74.7332C64.6539 74.6672 64.569 74.5993 64.4917 74.5267C64.4049 74.4692 64.3106 74.4173 64.2267 74.3541C64.1427 74.2909 64.0569 74.2277 63.9815 74.1542C63.906 74.0806 63.8363 74.0005 63.775 73.9156C63.7137 73.8307 63.6505 73.7449 63.5986 73.6525L63.4741 73.3601L63.3864 73.0537C63.3276 72.846 63.2851 72.6342 63.2591 72.4199C63.2439 72.2037 63.242 71.9867 63.2535 71.7702C63.245 71.5533 63.2478 71.3336 63.2601 71.1101C63.2723 70.8866 63.3044 70.6697 63.3374 70.45C63.394 70.234 63.4581 70.019 63.526 69.8049C63.5656 69.5833 63.609 69.3645 63.6543 69.1448L63.8693 68.4998C63.906 68.2744 63.9409 68.049 63.973 67.8227C64.0447 67.6058 64.1126 67.387 64.1767 67.1626C64.2088 66.9353 64.2352 66.7061 64.2531 66.477C64.3097 66.2525 64.3587 66.0243 64.3955 65.7923C64.3778 65.5571 64.3463 65.3232 64.3012 65.0917C64.3012 64.9747 64.2842 64.8578 64.2757 64.7409C64.2672 64.6239 64.2389 64.5079 64.221 64.391C64.1889 64.1466 64.1256 63.9073 64.0324 63.679C63.996 63.6219 63.9533 63.5691 63.9051 63.5215C63.8793 63.4957 63.8519 63.4714 63.8231 63.4489C63.7863 63.4207 63.7472 63.3958 63.7061 63.3744C63.6599 63.3464 63.6083 63.3284 63.5547 63.3215C63.501 63.3146 63.4466 63.319 63.3947 63.3344C63.3429 63.3497 63.2948 63.3757 63.2536 63.4107C63.2124 63.4457 63.179 63.4889 63.1554 63.5376C63.132 63.5795 63.1149 63.6246 63.1045 63.6715C63.0948 63.714 63.0879 63.7572 63.0837 63.8007L63.0658 63.9704L63.03 64.3071C62.9941 64.5296 62.9574 64.7512 62.9159 64.9672C62.9159 65.1916 62.9159 65.4151 62.9017 65.6377C62.8604 65.8542 62.8072 66.0683 62.7424 66.2789C62.6705 66.4846 62.5858 66.6856 62.4887 66.8806C62.4071 67.0826 62.3126 67.2792 62.2058 67.469C62.0763 67.6453 61.9365 67.8138 61.7871 67.9736C61.6484 68.1424 61.4976 68.3017 61.3448 68.4592C61.2071 68.6327 61.0619 68.8025 60.91 68.9722C60.7214 69.1024 60.5328 69.2325 60.3442 69.3702C60.183 69.5352 60.0245 69.7059 59.8727 69.887C59.7106 70.0634 59.563 70.2526 59.4314 70.4528C59.321 70.6686 59.235 70.896 59.1749 71.1308C59.0705 71.354 58.9972 71.5903 58.957 71.8334C58.9597 72.0861 59.0079 72.3362 59.0994 72.5718C59.1684 72.8109 59.282 73.0349 59.4342 73.2319C59.5709 73.4318 59.7228 73.6091 59.8661 73.7826C60.0272 73.925 60.1782 74.0784 60.3178 74.2419C60.4246 74.3901 60.4814 74.5685 60.48 74.7511C60.4834 74.7922 60.4806 74.8335 60.4715 74.8737C60.466 74.9149 60.4559 74.9554 60.4414 74.9944C60.4069 75.0786 60.3605 75.1573 60.3037 75.2283C60.1649 75.3945 60.0159 75.552 59.8576 75.6998C59.6662 75.8695 59.5168 76.0812 59.421 76.3184C59.3764 76.4492 59.3601 76.588 59.3733 76.7256C59.3864 76.8631 59.4287 76.9963 59.4974 77.1162C59.6196 77.3491 59.8049 77.5429 60.0321 77.6754C60.1474 77.7378 60.2704 77.7848 60.398 77.815C60.522 77.8422 60.6483 77.8577 60.7752 77.8612C61.0161 77.8695 61.2572 77.8502 61.4938 77.8037C61.7277 77.7745 61.9521 77.732 62.1728 77.6981C62.3897 77.6459 62.6075 77.5972 62.8263 77.5519C63.0413 77.489 63.2579 77.429 63.476 77.3718C63.6973 77.3385 63.9196 77.3092 64.1427 77.2841C64.3659 77.2589 64.5888 77.2363 64.8114 77.2162C65.0358 77.2118 65.2602 77.2118 65.4847 77.2162C65.7079 77.2036 65.9314 77.1951 66.1552 77.1907C66.379 77.1863 66.6025 77.1791 66.8257 77.169C67.0492 77.1822 67.2736 77.1992 67.4914 77.2209C67.7131 77.2068 67.9375 77.1936 68.1619 77.1936C68.382 77.2307 68.602 77.2743 68.8221 77.3246C69.0427 77.3539 69.2634 77.3925 69.4822 77.4321C69.6962 77.4982 69.9103 77.5661 70.1225 77.6396C70.34 77.6918 70.5575 77.7471 70.7751 77.8056L71.4258 77.9866C71.5795 78.03 71.7247 78.1206 71.8973 78.1026C71.9256 78.1026 72.067 78.1451 72.0934 78.0168C72.0949 78.003 72.0949 77.9891 72.0934 77.9753H72.0981L72.1104 77.981C72.1331 77.9938 72.1584 78.0017 72.1844 78.0039C72.2104 78.0062 72.2366 78.0029 72.2613 77.9942C72.2783 77.9844 72.2929 77.9708 72.3039 77.9544C72.3148 77.9381 72.3219 77.9194 72.3245 77.8999C72.333 77.8612 72.3264 77.8235 72.3264 77.8028Z" fill="#F3A579"/>
<path d="M68.6334 77.2656H61.8358C60.4023 77.2656 57.6741 78.2089 58.229 81.9822C58.3607 82.5308 58.7215 82.9545 59.2345 83.2707M70.5063 83.5082C69.1653 83.6007 65.97 83.8273 63.9168 83.9937C62.1623 84.136 60.343 83.9541 59.2345 83.2707M59.2345 83.2707C58.5063 84.1591 57.3829 86.4353 58.7146 88.433C58.9431 88.7757 59.3205 89.0635 59.8051 89.3024M71.2692 89.4734C70.1322 90.371 62.8513 90.804 59.8051 89.3024M59.8051 89.3024C59.4983 89.5996 59.1009 90.0965 58.8095 90.6966M71.616 94.2594C67.5515 95.2388 63.339 95.4922 60.8297 94.8242M60.8297 94.8242C59.7848 94.5461 59.0352 94.1082 58.7146 93.4964C58.2104 92.5343 58.4105 91.5186 58.8095 90.6966M60.8297 94.8242C60.0088 95.7689 58.8595 98.0189 60.8297 99.4616C62.7999 100.904 68.8415 100.063 71.616 99.4616M54.4141 87.5312C54.5467 88.4623 55.6116 90.399 58.8095 90.6966" stroke="#F3A579" stroke-linecap="round"/>
<path d="M54.6196 93.8457C54.4115 95.4642 54.8831 98.9509 58.4345 99.9497" stroke="#F3A579" stroke-linecap="round"/>
</svg>
