<svg width="25" height="24" viewBox="0 0 25 24" fill="none" xmlns="http://www.w3.org/2000/svg">
<g clip-path="url(#clip0)">
<path fill-rule="evenodd" clip-rule="evenodd" d="M22.2619 12.2889C22.2619 17.45 18.0665 21.6422 12.8809 21.6422C7.69541 21.6422 3.5 17.45 3.5 12.2889C3.5 7.12775 7.69541 2.93555 12.8809 2.93555C18.0665 2.93555 22.2619 7.12775 22.2619 12.2889ZM24.2619 12.2889C24.2619 18.5591 19.1665 23.6422 12.8809 23.6422C6.59542 23.6422 1.5 18.5591 1.5 12.2889C1.5 6.0186 6.59542 0.935547 12.8809 0.935547C19.1665 0.935547 24.2619 6.0186 24.2619 12.2889ZM12.1781 5.38125C11.7966 5.38583 11.4836 5.69807 11.479 6.07862L11.4795 14.0141C11.4862 14.393 11.7984 14.7032 12.1786 14.7077L13.56 14.7243C13.9415 14.7289 14.2471 14.4242 14.2425 14.0436L14.242 6.04544C14.2466 5.66488 13.9411 5.36009 13.5596 5.36467L12.1781 5.38125ZM12.1785 15.9647C11.797 15.9693 11.484 16.2815 11.4794 16.6621L11.48 17.765C11.4861 18.1442 11.7985 18.4549 12.179 18.4594L13.5605 18.476C13.9419 18.4806 14.2475 18.1759 14.243 17.7953L14.2424 16.6289C14.247 16.2483 13.9415 15.9435 13.56 15.9481L12.1785 15.9647Z" fill="#FF5858"/>
</g>
<defs>
<clipPath id="clip0">
<rect width="24" height="24" fill="white" transform="translate(0.882812)"/>
</clipPath>
</defs>
</svg>
