<svg width="140" height="165" viewBox="0 0 140 165" fill="none" xmlns="http://www.w3.org/2000/svg">
<g clip-path="url(#clip0)">
<path d="M74.7942 60.3949C79.3081 66.3699 81.525 72.6454 83.9399 79.5918C84.6152 81.5165 90.6043 78.5474 90.4256 76.7207C89.5413 69.4212 85.6579 62.6894 81.1271 57.1226C79.6423 55.3339 73.5553 58.7996 74.7942 60.3949Z" fill="white"/>
<path d="M106.476 63.7903C105.529 70.3516 103.467 76.2464 101.419 82.4804C100.516 85.2357 106.35 82.6128 107.021 81.2089C110.15 75.2522 111.723 68.223 112.393 61.5375C112.634 59.6083 106.767 61.842 106.476 63.7903Z" fill="white"/>
<path d="M116.042 92.1173C120.343 90.5948 124.631 89.1917 128.939 87.8388C130.482 87.3663 132.66 85.8482 132.462 83.9714C132.264 82.0946 129.915 81.9556 128.523 82.3708C124.165 83.7428 119.945 85.1769 115.625 86.6493C114.102 87.1719 111.936 88.5706 112.103 90.5167C112.301 92.3935 114.619 92.6017 116.042 92.1173Z" fill="white"/>
<circle cx="75.6327" cy="122.981" r="34.8335" transform="rotate(-32.104 75.6327 122.981)" fill="white"/>
<path d="M107.306 106.819C107.034 107.039 100.86 111.825 97.8066 114.19C96.4328 120.011 102.176 124.61 105.22 126.182C107.982 121.712 113.635 112.725 114.153 112.532C115.723 112.39 125.747 108.807 128.613 108.183C131.478 107.559 139.133 99.9894 139.914 98.5189C140.694 97.0485 140.046 97.2896 139.431 97.2233C139.597 96.491 139.487 95.7916 138.29 95.3518C137.812 95.2435 136.103 95.8632 135.147 96.3575C135.385 96.0722 135.643 95.4471 134.713 94.8493C133.55 94.1022 129.564 96.4708 127.994 96.6125C126.424 96.7542 118.991 99.3731 119.024 99.0658C119.057 98.7585 120.244 96.3991 123.275 94.2385C126.306 92.0779 123.464 89.5953 122.377 91.0326C121.289 92.4699 113.043 96.8667 111.34 98.2377C109.638 99.6088 107.647 106.545 107.306 106.819Z" fill="#FCC9B3"/>
<path opacity="0.3" fill-rule="evenodd" clip-rule="evenodd" d="M107.22 106.898C107.268 106.86 107.3 106.835 107.314 106.823C107.419 106.739 107.682 106.018 108.045 105.021C108.216 104.553 108.409 104.024 108.618 103.471C108.613 103.494 108.607 103.517 108.6 103.542C108.23 104.865 109.392 105.856 110.699 106.971C111.18 107.381 111.681 107.808 112.132 108.275C113.174 109.353 114.357 109.127 117.212 108.581C118.955 108.248 121.321 107.796 124.657 107.448C131.701 106.715 137.336 101.353 139.273 98.7637L138.599 100.167C136.097 102.903 130.875 107.696 128.62 108.187C127.254 108.484 124.261 109.454 121.332 110.403C118.118 111.445 114.982 112.461 114.161 112.536C114.093 112.561 113.938 112.736 113.713 113.032C112.315 112.335 110.273 110.992 108.345 108.8C107.767 108.143 107.413 107.501 107.22 106.898Z" fill="#F3A579"/>
<path d="M135.289 96.3633C132.772 97.6304 127.256 100.213 125.324 100.405C123.391 100.598 131.162 97.7908 135.289 96.3633Z" fill="#EFBBAE"/>
<path d="M139.574 97.1484C137.058 98.4156 131.541 100.998 129.609 101.19C127.676 101.383 135.447 98.576 139.574 97.1484Z" fill="#EFBBAE"/>
<path d="M68.268 112.678L57.0483 134.69C57.0483 134.69 64.008 154.973 72.5926 156.99C81.1772 159.007 111.487 121.059 111.487 121.059C111.487 121.059 101.298 112.39 100.194 109.683C100.194 109.683 78.5325 130.402 77.6323 129.934C76.6887 129.454 74.6925 115.663 68.268 112.678Z" fill="#68D4E7"/>
<path d="M28.1955 111.181C28.1955 111.181 25.836 111.233 21.0775 114.366C15.6718 117.944 2.05604 144.437 2.05604 144.437C2.05604 144.437 2.6647 154.86 11.1082 152.879C19.5517 150.897 31.0308 143.527 31.0308 143.527L28.1955 111.181Z" fill="#68D4E7"/>
<path d="M68.659 113.368C68.659 113.368 72.0863 133.622 69.7431 158.348C55.5719 163.825 34.5164 165.227 21.9314 160.788C22.0797 150.913 22.3055 139.334 22.647 133.026C23.5308 116.704 26.4234 111.913 28.1602 109.17C29.8215 106.546 28.1602 109.171 28.1602 109.171L66.8055 110.08L68.659 113.368Z" fill="#27C1DD"/>
<path d="M34.4222 14.3216C62.7154 11.3838 70.6543 35.5852 70.6543 35.5852L72.9275 60.8357L70.6543 62.1996C71.2838 61.9548 71.9133 61.71 72.5428 61.4652C72.8925 61.3253 73.2073 61.1155 73.557 60.9756C75.5155 60.1712 76.4948 61.0455 76.3199 63.1439C75.4805 74.2653 68.8706 74.72 68.2062 75.2796C68.2761 75.3845 68.346 75.4544 68.416 75.5593C70.0247 75.4544 71.1089 74.4752 72.1231 73.426C71.9483 78.8118 71.1089 102.209 68.7657 114.135C68.6258 114.24 68.451 114.309 68.2411 114.344C67.8914 114.414 67.5766 114.449 67.2269 114.484C65.5482 114.799 63.9045 115.184 62.2258 115.394C59.9525 115.673 57.6793 115.848 55.371 115.953C53.1328 116.058 50.8945 116.128 48.6912 116.058C46.5229 115.953 44.3545 115.778 42.2212 115.394C39.7381 114.939 37.325 114.24 34.8769 113.68C32.7085 113.19 30.5402 112.771 28.5467 111.686C27.7074 111.232 27.6025 110.637 27.4975 109.903C27.1828 107.28 26.903 104.692 26.5882 102.069C26.2035 98.9563 25.0844 95.9836 24.8396 92.801C24.6647 90.1781 23.9303 87.625 23.4057 85.037C23.1959 83.9529 22.8461 82.9037 22.6363 81.8195C22.2516 79.861 21.9368 77.8676 21.5171 75.9091C21.2024 74.3703 20.7477 72.8664 20.398 71.3626C19.9084 69.1593 19.4887 66.9909 19.069 64.7876C18.8592 63.5986 18.6843 62.4095 18.4745 61.1854L16.0264 58.9122L12.0744 46.9864C12.0744 46.9864 12.634 46.8115 13.5783 46.4618C12.2143 42.23 10.9553 38.0333 10.7105 36.4595C10.2209 32.7174 6.16399 17.2593 34.4222 14.3216Z" fill="#F9C8AD"/>
<path d="M48.0273 90.0406C48.0273 90.0406 44.6 81.2274 35.9616 87.0679" stroke="#AC3B42" stroke-width="2" stroke-miterlimit="10" stroke-linecap="round"/>
<path fill-rule="evenodd" clip-rule="evenodd" d="M1.39807 46.5688C1.29315 47.3731 1.32813 48.1775 1.32813 48.9819C1.53797 52.5491 3.04181 55.4169 5.90959 57.5853C7.65825 58.9142 9.61673 59.8585 11.82 59.9634C13.0791 59.9984 14.408 59.5787 15.6321 59.229C15.8769 59.159 16.1567 58.4246 16.0867 58.1099C15.737 56.7109 15.2124 55.347 14.7927 53.983C14.3031 52.3393 13.8485 50.6956 13.2889 49.0868C13.0091 48.2824 12.5195 47.583 12.0299 46.8485C11.6102 46.184 11.0506 45.6245 10.631 44.96C9.61674 43.3862 8.25278 42.302 6.46916 41.7425C3.91613 40.9381 2.83197 41.4977 1.85273 44.1906C1.60791 44.925 1.50299 45.7644 1.39807 46.5688Z" fill="#F9C8AD"/>
<path fill-rule="evenodd" clip-rule="evenodd" d="M7.69453 53.9838C8.28907 53.2144 8.91859 52.41 9.5481 51.5707C9.96778 52.5849 10.4224 53.6691 10.8771 54.7532C10.982 54.7532 11.0869 54.7183 11.1918 54.7183C11.2618 54.4735 11.4366 54.1937 11.4017 53.9838C11.1219 51.7456 10.4224 49.7521 8.14918 48.7729C7.30983 48.4231 6.43551 48.1084 5.56118 47.8636C5.35134 47.7936 5.07156 48.1084 4.79178 48.2133C5.03659 48.4581 5.21145 48.7729 5.49124 48.8778C6.29562 49.2625 7.16994 49.5073 7.97432 49.892C8.53389 50.1368 8.60383 50.5565 8.21913 51.0811C7.83442 51.6057 7.51967 52.2002 7.09999 52.7248C6.71529 53.2494 6.89015 53.5292 7.69453 53.9838Z" fill="#F3A579"/>
<path d="M75.9688 64.7207C75.9688 64.7207 73.9053 74.8629 60.3708 74.8979C60.3708 74.8629 73.2409 81.3679 75.9688 64.7207Z" fill="#F3A579"/>
<path d="M75.9688 64.7207C75.9688 64.7207 73.9053 74.8629 60.3708 74.8979C60.3708 74.8629 73.2409 81.3679 75.9688 64.7207Z" fill="#F3A579"/>
<path d="M39.2796 42.4408C44.5256 42.231 48.9322 46.6026 49.177 52.1983C49.4218 57.794 45.3649 62.5154 40.119 62.7252C34.873 62.935 30.4664 58.5634 30.2216 52.9677C29.9768 47.372 34.0337 42.6507 39.2796 42.4408Z" fill="white"/>
<path d="M45.4101 54.8125C44.7456 56.9808 42.5423 58.2049 40.4789 57.5404C38.4155 56.9109 37.2963 54.6376 37.9608 52.4693C38.6253 50.301 40.8286 49.0769 42.892 49.7414C44.9554 50.4059 46.0746 52.6791 45.4101 54.8125Z" fill="#00A5D7"/>
<path d="M37.3611 51.1396C37.0464 52.1538 37.606 53.238 38.6202 53.5178C39.6344 53.8325 40.7185 53.273 40.9983 52.2587C41.3131 51.2445 40.7535 50.1953 39.7393 49.8806C38.7251 49.5658 37.6759 50.1254 37.3611 51.1396Z" fill="white"/>
<path d="M41.4914 36.4678C41.4914 36.4678 36.1909 31.5557 31.6908 34.2302C27.1907 36.9047 25.1794 44.5443 25.1794 44.5443C25.1794 44.5443 34.6772 33.5683 41.4914 36.4678Z" fill="#FEE16C"/>
<path fill-rule="evenodd" clip-rule="evenodd" d="M62.6077 45.5867C60.4743 48.5244 59.1803 56.3584 62.8525 58.2469C69.8821 61.8492 74.6384 48.0698 68.623 44.1878C66.6995 42.8938 64.5661 42.9287 62.6077 45.5867Z" fill="white"/>
<path d="M69.8519 53.6204C69.5021 55.3341 68.0333 56.4882 66.5644 56.2084C65.0955 55.9286 64.1862 54.2849 64.501 52.5712C64.8507 50.8575 66.3196 49.7034 67.7885 49.9832C69.2573 50.263 70.1666 51.9067 69.8519 53.6204Z" fill="#00A5D7"/>
<path d="M64.3612 51.6606C64.1863 52.465 64.676 53.2694 65.4104 53.4093C66.1448 53.5492 66.8793 52.9896 67.0192 52.1852C67.194 51.3808 66.7044 50.5765 65.97 50.4366C65.2355 50.2967 64.5361 50.8213 64.3612 51.6606Z" fill="white"/>
<path fill-rule="evenodd" clip-rule="evenodd" d="M3.47796 36.7381C2.21659 32.3219 0.163461 25.3027 0.247545 24.4945C0.351285 23.3215 2.49109 8.54849 12.4863 7.19194C14.2008 6.95924 21.8257 8.34551 21.8257 8.34551C24.7972 5.09205 26.9532 3.31182 38.4075 1.68406C49.8619 0.0562882 55.0824 4.08281 58.9298 5.63123C59.3273 5.77457 59.7248 5.91791 60.1202 6.10177C60.4369 6.24075 60.6727 6.37538 60.8639 6.58887C61.0571 6.76184 61.1631 7.05202 61.3542 7.26551C72.7522 19.096 74.5491 19.4255 75.3441 21.2158C65.5603 30.5636 71.8743 44.407 71.8743 44.407C71.8743 44.407 70.0079 34.6751 62.8985 28.2368C51.2264 17.7326 35.1315 18.6126 31.3781 19.8327C20.0326 23.5695 16.4058 28.4538 16.4058 28.4538C16.4058 28.4538 18.0789 31.9983 19.0159 37.1692C19.9934 42.3423 17.6695 47.8658 17.6695 47.8658L11.9328 48.2881C9.70499 44.5106 5.30175 41.9975 5.30175 41.9975L4.54712 40.2094C4.54712 40.2094 4.37347 39.6717 4.09827 38.7629C3.88859 38.142 3.68327 37.4401 3.47796 36.7381Z" fill="#FED065"/>
<path fill-rule="evenodd" clip-rule="evenodd" d="M11.9765 48.3331L17.7131 47.9108C17.7131 47.9108 20.037 42.3873 19.0618 37.1737C18.0843 32.0006 16.4517 28.4584 16.4517 28.4584C16.4517 28.4584 20.0784 23.574 31.4621 19.8799C35.2155 18.6599 51.3126 17.7394 62.9826 28.2841C70.0941 34.6818 71.9584 44.4542 71.9584 44.4542C71.9584 44.4542 68.2027 31.0183 77.9461 21.6683L63.6225 20.9224C63.6225 20.9224 56.1527 15.1555 45.0627 14.1514C33.9727 13.1474 17.4421 22.863 16.4091 28.4967C16.1863 29.6226 13.2235 34.2176 8.29828 32.3672C3.89396 30.6262 0.727997 22.4499 0.252959 24.4968C-0.0167752 25.7421 4.42913 40.2457 5.30498 42.0404C7.93253 47.4243 11.9765 48.3331 11.9765 48.3331Z" fill="#F5BA66"/>
<path d="M88.687 24.0044C85.145 27.5431 81.8431 23.5946 79.973 20.379C79.7846 20.082 79.5985 19.7441 79.4531 19.4083C65.795 2.11457 53.1359 14.0555 42.283 10.6836C41.5077 12.9369 40.9724 15.2852 41.0517 18.3633C47.846 12.8687 55.8421 29.8163 59.1109 32.8614C72.0389 44.7469 86.3224 36.7871 88.687 24.0044Z" fill="#FED065"/>
<path d="M69.8904 13.3999C74.7353 16.7759 77.9855 22.4429 83.228 25.2665C84.6851 26.2877 86.3438 25.8443 87.7095 24.7703C84.5364 26.7715 81.6607 23.2558 79.9767 20.3781C79.7884 20.081 79.6023 19.7431 79.4569 19.4074C72.9158 11.1039 66.6248 9.53534 60.6466 9.74593C63.9705 10.253 67.1028 11.2824 69.8904 13.3999Z" fill="#F5BA66"/>
<path d="M87.8709 27.0768C86.4182 29.0068 84.6164 30.59 82.6372 31.6719C67.8261 39.5623 59.2727 20.8223 48.4958 13.7659C52.6491 13.2931 56.6537 14.8204 59.8058 16.9985C56.7484 13.0632 51.8913 12.1866 47.3195 11.3255C45.6014 11.3558 43.6927 11.13 42.044 10.6313C41.2686 12.8846 40.9349 15.2847 41.055 18.365C47.8493 12.8704 55.8453 29.8181 59.1142 32.8631C70.9518 43.7472 83.9732 37.9735 87.8709 27.0768Z" fill="#F5BA66"/>
<path d="M57.8874 36.2224C57.8874 36.2224 62.6787 31.0464 66.8405 33.4595C71.0023 35.8377 72.9258 43.3569 72.9258 43.3569C72.9258 43.3569 64.1126 32.9349 57.8874 36.2224Z" fill="#FEE16C"/>
<path d="M48.0133 108.997C47.562 109.831 36.7157 127.048 31.3489 135.553C33.5473 140.354 38.3015 142.168 40.4037 142.475C41.9804 139.645 45.3746 133.914 46.3384 133.627C47.5432 133.268 49.4316 132.269 51.2329 130.684C52.674 129.416 53.6054 127.297 53.891 126.395C54.0647 126.49 54.3618 126.326 54.7787 126.552C55.2998 126.834 58.7856 125.985 59.2342 125.412C60.0978 124.807 60.3894 123.151 60.682 121.49C62.1667 120.838 62.3805 118.885 62.0076 118.122C62.6046 117.973 63.1352 117.152 62.3006 114.113C61.2574 110.314 60.0407 110.355 59.3676 109.856C58.8291 109.457 55.3365 108.829 53.5599 108.833C53.6648 108.598 53.9309 108.023 54.1566 107.606C54.6599 106.477 56.4787 105.225 57.3252 104.74C58.3601 104.985 60.6447 105.553 61.5045 105.856C62.5792 106.236 63.7619 104.922 63.3058 104.271C62.8498 103.62 61.0254 101.015 58.4419 100.56C55.8584 100.105 52.2011 102.505 51.1159 103.265C50.0307 104.026 48.5774 107.955 48.0133 108.997Z" fill="#FFD4BD"/>
<path d="M59.6232 114.848C60.3354 115.126 61.3531 117.182 62.0119 118.123L62.446 117.819L60.0699 114.426C58.7998 114.075 55.2958 113.477 53.2726 113.729C54.8139 113.62 58.733 114.501 59.6232 114.848Z" fill="#F3A579"/>
<path d="M58.6259 118.486C59.286 119.059 60.5107 120.982 60.6592 121.579L61.0933 121.275C60.7928 120.461 59.2173 118.585 58.6788 118.186C58.0057 117.687 54.7531 117.304 53.6133 117.294C55.4912 117.434 57.8007 117.77 58.6259 118.486Z" fill="#F3A579"/>
<path d="M54.0785 126.427C53.6912 126.105 53.2445 125.329 54.5556 124.799C56.1944 124.136 56.813 123.865 57.5512 123.995C56.7743 123.657 56.574 123.062 57.1056 122.204C56.6676 122.663 55.7704 122.873 55.0064 122.152C54.9569 122.103 54.9076 122.052 54.8587 121.998C54.9072 122.054 54.9565 122.105 55.0064 122.152C55.9804 123.116 57.0083 123.274 56.1732 123.551C55.2957 123.841 51.8537 124.99 54.0785 126.427Z" fill="#F3A579"/>
<path d="M12.0375 157.526C34.8357 155.075 50.7852 135.548 50.7852 135.548C38.384 130.139 37.5775 125.299 37.5775 125.299C24.8631 138.122 19.4403 137.313 10.286 138.418C10.286 138.418 0.537901 139.726 1.35271 149.021C1.89153 155.168 5.90498 158.215 12.0375 157.526Z" fill="#68D4E7"/>
</g>
<defs>
<clipPath id="clip0">
<rect width="140" height="165" fill="white"/>
</clipPath>
</defs>
</svg>
