<svg width="410" height="412" viewBox="0 0 410 412" fill="none" xmlns="http://www.w3.org/2000/svg">
<path d="M134.101 325.962C134.011 312.136 134.959 306.205 133.941 301.603C126.003 295.729 117.09 291.837 108.846 289.587C116.189 305.011 114.287 316.216 114.287 316.216C113.885 305.026 108.216 293.871 105.219 288.623C83.7912 283.826 65.051 287.241 65.051 287.241C67.0713 294.141 69.0873 300.382 71.4302 306.292C81.0038 310.509 93.5311 313.39 93.5311 313.39C87.6063 313.428 79.0353 311.509 72.7684 309.575C76.114 317.783 79.7822 325.002 83.7709 330.901C93.678 335.774 111.474 338.949 111.474 338.949C104.235 339.326 93.3596 337.422 87.4262 336.144C95.0637 346.299 103.34 353.487 112.927 359.679C121.82 360.608 131.366 360.545 131.366 360.545C127.422 361.559 122.158 361.922 117.223 362.284C128.126 368.467 140.337 373.325 153.869 378.832L166.383 379.738L165.606 361.637C161.806 334.339 151.488 316.96 138.578 305.852C135.648 310.809 134.101 325.962 134.101 325.962Z" fill="#E6E6F0"/>
<path d="M182.962 308.573C191.095 294.8 195.565 289.479 197.292 284.307C192.908 273.758 186.379 264.595 179.538 257.459C177.65 277.13 169.099 287.117 169.099 287.117C175.355 275.775 176.364 261.334 176.512 254.345C158.104 236.84 137.478 229.082 137.478 229.082C135.379 237.13 133.667 244.522 132.476 251.78C139.468 261.658 150.185 271.967 150.185 271.967C144.283 268.482 136.919 261.48 131.852 255.834C130.289 265.968 129.636 275.312 130.085 283.538C137.017 294.265 152.786 308.001 152.786 308.001C145.379 304.069 135.721 295.711 130.593 290.914C132.132 305.533 136.069 317.588 141.898 329.433C150.17 335.645 159.679 341.26 159.679 341.26C155.163 339.921 149.723 337.15 144.611 334.574C151.752 347.194 160.979 359.277 171.131 372.79L183.009 381.132L193.004 362.71C205.47 333.363 205.569 309.981 199.365 291.281C193.509 294.457 182.962 308.573 182.962 308.573Z" fill="#DBDDEC"/>
<path d="M266.407 358.014C280.828 364.932 286.514 368.927 291.815 370.203C301.948 364.928 310.516 357.634 317.037 350.204C297.275 350.016 286.589 342.356 286.589 342.356C298.428 347.612 312.902 347.376 319.878 346.921C335.734 327.076 341.688 305.859 341.688 305.859C333.49 304.46 325.978 303.39 318.644 302.829C309.405 310.644 300.056 322.208 300.056 322.208C303.02 316.028 309.363 308.09 314.552 302.555C304.321 301.87 294.956 302.023 286.799 303.178C276.707 311.008 264.38 327.9 264.38 327.9C267.66 320.182 275.155 309.841 279.493 304.32C265.061 307.11 253.39 312.07 242.09 318.897C236.613 327.673 231.837 337.629 231.837 337.629C232.783 333.015 235.075 327.357 237.202 322.043C225.243 330.243 213.999 340.475 201.409 351.752L194.12 364.304L213.335 372.677C243.645 382.571 266.948 380.658 285.046 372.868C281.378 367.307 266.407 358.014 266.407 358.014Z" fill="#DBDDEC"/>
<path d="M95.2734 253.869L100.894 249.607L105.588 255.419C107.813 257.864 112.362 262.906 112.762 263.509C113.262 264.263 111.851 270.484 111.824 270.69C111.802 270.855 109.126 271.944 107.79 272.468L103.618 277.37L98.2932 280.326L96.0712 284.046C94.9751 283.654 92.5023 282.772 91.3795 282.386C90.2566 282 88.2156 280.256 87.3355 279.433L84.5603 272.923L84.6617 272.489L84.1726 266.102L84.3776 265.584L84.6514 258.949L85.6366 258.378L87.1337 253.832L95.2734 253.869Z" fill="#E2ABA9"/>
<path d="M95.6212 269.89L95.5625 270.34C95.5625 270.34 98.0593 270.877 99.2438 270.961L99.3192 269.846C99.3538 269.85 96.7065 269.926 95.6212 269.89Z" fill="#5D4D5C"/>
<path d="M102.375 274.182C102.417 272.781 101.634 272.046 99.7415 271.728C96.4706 271.195 92.4181 269.646 92.3836 269.642C92.2798 269.628 86.8007 268.772 84.118 265.889C83.4248 266.889 82.0816 270.441 84.8877 272.917C88.2274 275.077 93.6433 276.417 94.3949 276.586C95.2593 276.699 96.3701 276.809 97.5983 276.828C96.7776 276.651 96.0185 276.27 95.8413 275.474C95.7362 274.932 95.7949 274.483 96.0956 274.065C96.6144 273.324 97.6186 273.174 97.9433 273.111C98.7311 273.003 100.128 273.08 100.197 273.089C100.266 273.098 100.335 273.107 100.395 273.185C100.455 273.263 101.04 273.902 100.842 275.951C101.662 275.601 102.379 274.956 102.375 274.182Z" fill="#F2C2C0"/>
<path d="M97.9911 273.821C97.489 273.896 96.8606 274.13 96.5509 274.617C96.3719 274.91 96.3267 275.256 96.3808 275.65C96.5775 276.836 99.0127 276.767 99.9042 276.673C99.9778 276.647 100.052 276.622 100.16 276.601C100.39 274.837 100.139 274.066 99.998 273.801C99.6177 273.752 98.6015 273.725 97.9911 273.821Z" fill="#F2C2C0"/>
<path d="M102.493 261.434C102.278 260.386 101.451 259.715 101.163 259.502C100.191 259.938 99.2697 260.802 98.9449 261.673C98.8396 261.941 98.7463 262.386 98.9131 262.724C99.3578 263.626 100.168 263.345 100.276 263.324C100.315 263.294 100.35 263.299 100.385 263.303C101.429 262.842 102.133 262.301 102.518 261.507C102.523 261.473 102.488 261.468 102.493 261.434Z" fill="#F2C2C0"/>
<path d="M90.8485 263.358C88.9681 262.409 86.6234 260.977 84.5764 258.881C83.8743 259.141 82.9692 260.148 82.8215 261.817C82.6528 263.377 83.2689 264.583 83.8354 265.36C86.8715 267.691 89.03 268.395 91.2802 268.935C92.6406 269.289 95.0262 269.6 98.5529 269.252C98.8039 269.215 99.0159 269.207 99.2324 269.165C98.7664 268.964 98.3922 268.598 98.3006 267.953C98.0544 266.339 100.696 264.961 101.944 264.561C102.056 264.506 102.19 264.558 102.28 264.676C102.31 264.715 102.907 265.531 103.122 266.579C103.202 266.238 103.247 265.892 103.184 265.567C102.915 264.126 101.568 263.668 101.261 263.593C100.85 263.785 100.438 263.978 99.9911 264.166C98.5178 264.676 93.7509 264.827 90.8485 263.358Z" fill="#F2C2C0"/>
<path d="M127.1 291.373C127.1 291.373 119.178 276.378 115.453 265.589C111.764 254.804 100.328 241.67 94.9987 237.247C89.6692 232.823 88.5835 234.404 88.1219 234.977C87.6602 235.549 85.9715 238.247 91.8133 244.672C97.655 251.097 98.9537 251.653 98.9537 251.653C98.9537 251.653 91.0127 248.646 87.63 250.314C84.2473 251.982 82.04 254.612 85.4064 258.991C85.4064 258.991 85.4064 258.991 85.3718 258.986C87.303 260.891 89.4058 262.291 91.1058 263.005C93.867 264.21 97.1366 264.215 99.2247 263.574C98.9617 263.434 98.7122 263.191 98.5154 262.813C98.2885 262.397 98.2871 261.869 98.5367 261.304C98.9533 260.268 100.036 259.249 101.184 258.802C101.258 258.776 101.362 258.79 101.426 258.833C101.457 258.872 102.36 259.764 102.826 260.774C102.844 260.636 103.65 259.581 102.587 258.563C101.744 257.749 100.015 257.524 96.5202 257.63C91.8871 257.833 91.2801 256.558 90.3664 255.208C90.2462 255.052 90.2974 254.39 90.852 254.99C91.2472 255.464 92.024 257.323 96.1294 257.121C99.8755 256.978 101.929 257.141 103.034 258.375C103.468 258.819 103.642 259.369 103.625 260.035C103.505 261.496 102.899 262.366 102.009 262.988C102.673 263.286 103.604 263.97 103.851 265.304C104.024 266.135 103.812 266.951 103.259 267.688C102.492 268.713 101.134 269.414 99.3722 269.712L99.2968 270.827C99.5043 270.854 99.7072 270.916 99.9146 270.943C100.74 271.086 103.22 271.48 103.123 274.105C103.084 275.753 101.045 276.822 99.6082 277.057C99.5736 277.052 99.5736 277.052 99.539 277.048L99.3153 283.605C99.3153 283.605 107.011 286.989 111.012 291.626C115.013 296.263 118.547 295.742 118.547 295.742C118.547 295.742 121.13 296.958 124.077 295.128C126.976 293.397 127.1 291.373 127.1 291.373ZM102.882 255.226C102.804 255.286 102.696 255.307 102.627 255.298C102.558 255.289 102.458 255.241 102.398 255.162C102.398 255.162 101.363 253.937 99.1325 252.169C98.9731 252.042 98.9657 251.831 99.092 251.671C99.2183 251.512 99.4302 251.504 99.5896 251.631C101.85 253.438 102.886 254.663 102.95 254.707C103.031 254.894 103.039 255.105 102.882 255.226ZM110.814 269.343L110.779 269.338C105.942 268.144 105.594 264.617 105.612 264.479C105.6 264.301 105.731 264.107 105.943 264.1C106.12 264.088 106.314 264.219 106.321 264.431C106.338 264.574 106.645 267.603 110.973 268.66C111.141 268.718 111.257 268.909 111.234 269.081C111.138 269.28 110.986 269.365 110.814 269.343Z" fill="#F2C2C0"/>
<path d="M102.567 267.597C102.599 266.546 102.094 265.566 101.863 265.184C100.601 265.688 98.6482 266.909 98.8194 268.022C98.986 269.169 100.483 269.013 100.522 268.983L100.557 268.987C101.411 268.642 102.101 268.204 102.567 267.597Z" fill="#F2C2C0"/>
<path d="M93.6143 276.906C91.8782 276.469 86.9689 275.018 84.4334 272.894C83.7447 273.859 82.991 276.397 87.0476 279.53C87.9088 280.205 88.7144 280.767 89.4254 281.247C89.3668 280.888 89.3864 280.468 89.5925 279.968C90.1144 278.664 91.4372 278.767 92.763 279.116C94.3654 279.501 95.0282 280.08 95.0628 280.085C95.1575 280.167 95.2086 280.315 95.195 280.418C95.1815 280.522 94.7827 282.228 93.9978 283.391C95.1643 283.614 95.94 283.329 96.3024 282.708C97.1836 281.346 96.7465 279.847 93.6143 276.906Z" fill="#F2C2C0"/>
<path d="M94.732 280.463C94.4389 280.284 93.6197 279.825 92.566 279.547C90.8298 279.109 90.3352 279.396 90.0765 280.031C89.5546 281.334 90.4685 281.875 90.4985 281.914C90.5331 281.919 90.5286 281.953 90.5632 281.958C91.5762 282.547 92.8148 283.026 93.5574 283.263C94.2235 282.471 94.568 281.18 94.732 280.463Z" fill="#F2C2C0"/>
<path d="M106.137 215.446C106.004 215.121 106.228 214.755 106.553 214.621C106.878 214.488 107.244 214.712 107.378 215.037L114.489 236.976C116.964 235.189 119.101 232.963 120.883 230.427L116.785 217.716C116.652 217.391 116.876 217.025 117.201 216.891C117.526 216.758 117.892 216.982 118.025 217.307L121.815 229.01C128.463 218.495 130.351 202.698 130.233 185.101C130.077 157.698 116.345 140.344 100.104 142.53L105.174 158.224C105.308 158.549 105.084 158.916 104.759 159.049C104.667 159.081 104.58 159.07 104.494 159.058C104.235 159.025 103.992 158.861 103.94 158.59L98.806 142.712C98.6275 142.732 98.4001 142.791 98.216 142.854C96.0889 143.324 94.0293 144.285 92.0166 145.561L97.6611 162.913C97.7945 163.238 97.5708 163.604 97.2457 163.737C97.1536 163.769 97.0672 163.758 96.9808 163.747C96.7215 163.713 96.4791 163.549 96.4266 163.279L90.9097 146.295C79.2711 154.972 70.9104 176.911 71.937 200.341C73.1429 228.453 84.8795 244.931 102.753 241.684C106.806 240.939 110.328 239.553 113.307 237.612L106.137 215.446Z" fill="#D2D1E3"/>
<path d="M93.2301 213.98C92.2311 202.114 95.6582 185.64 95.6751 185.51C95.8519 184.83 95.418 184.114 94.6946 183.931C94.0144 183.755 93.2984 184.189 93.116 184.912C93.0389 185.166 91.7863 199.463 85.3259 201.476C84.9575 201.603 84.8392 201.5 84.8016 201.451C83.635 200.288 84.3241 194.004 85.6555 188.86C85.8323 188.18 85.3984 187.464 84.7182 187.287C84.038 187.11 83.3221 187.544 83.1453 188.224C82.4213 191.075 79.4615 201.281 82.5238 203.747C84.951 205.69 89.3749 202.444 90.512 201.142C90.0827 205.438 89.8731 210.069 90.2123 214.201C90.2629 214.823 90.7307 215.28 91.2869 215.397C91.4165 215.414 91.5029 215.425 91.6382 215.399C92.3091 215.31 93.2694 214.689 93.2301 213.98Z" fill="white"/>
<path d="M119.644 203.234C118.122 192.003 120.698 176.999 120.764 176.832C120.903 176.103 120.463 175.43 119.734 175.291C119.048 175.158 118.332 175.592 118.193 176.321C118.154 176.623 117.531 179.706 116.961 184.071C116.961 184.071 116.955 184.114 116.938 184.244L116.933 184.287C116.786 185.411 115.928 190.969 112.562 192.507C112.372 192.614 112.286 192.603 112.286 192.603C111.262 192.029 111.209 186.045 112.138 180.276C112.234 179.542 111.789 178.912 111.06 178.773C110.325 178.677 109.69 179.165 109.556 179.851C109.092 182.735 107.784 192.41 110.701 194.637C110.938 194.844 111.31 195.025 111.823 195.136C112.293 195.241 112.915 195.19 113.614 194.886C114.644 194.405 115.523 193.729 116.247 192.9C116.092 196.441 116.179 200.144 116.658 203.547C116.714 204.126 117.182 204.582 117.744 204.656C117.873 204.673 118.003 204.69 118.138 204.663C118.809 204.575 119.726 203.948 119.644 203.234Z" fill="white"/>
<path d="M100.511 211.415C100.041 211.31 99.5393 211.112 99.0978 210.791C96.9279 209.233 95.2696 205.104 95.4435 200.072C95.6779 193.905 98.2578 184.924 102.349 184.228C102.976 184.134 103.938 184.172 104.928 185.005C106.94 186.762 108.493 191.36 108.289 196.96C108.128 201.554 106.732 209.547 102.16 211.235C101.602 211.47 101.067 211.532 100.511 211.415ZM102.842 186.842C102.799 186.836 102.756 186.831 102.756 186.831C102.263 186.898 101.215 187.86 100.111 190.924C99.1936 193.574 98.5746 196.965 98.4593 200.203C98.293 204.84 99.4385 207.847 100.607 208.659C100.93 208.877 101.114 208.813 101.206 208.781C103.379 207.966 104.962 203.25 105.187 196.818C105.372 191.7 104.323 187.958 103.133 186.968C103.015 186.864 102.929 186.853 102.842 186.842Z" fill="white"/>
<path d="M98.155 241.879C98.155 241.879 99.1967 241.98 100.431 241.684L99.9421 257.268C99.9421 257.268 98.6328 257.062 97.1401 257.183L98.155 241.879Z" fill="#5D4D5C"/>
<path d="M95.3655 276.96C95.3655 276.96 98.5808 277.381 99.5595 277.157C99.5595 277.157 99.6113 281.067 99.8842 284.091C100.157 287.116 100.368 291.152 97.3708 291.218C94.477 291.297 93.78 289.096 94.3627 284.636C94.9183 280.383 95.3655 276.96 95.3655 276.96Z" fill="#5D4D5C"/>
<path d="M95.8829 244.479C92.0573 244.155 88.6022 242.341 85.4422 239.95C76.6894 233.268 71.4763 219.005 70.6817 200.529C70.0984 186.827 72.5966 173.088 77.7513 161.894C82.9604 150.619 90.1473 143.383 97.9362 141.631C104.778 140.064 111.343 141.625 116.962 146.051C126.16 153.363 131.465 167.593 131.546 185.142C131.598 195.17 131.133 209.833 126.749 221.524C122.244 233.462 114.337 241.835 102.922 244.431C100.481 244.948 98.1415 244.686 95.8829 244.479ZM104.785 143.713C102.742 143.534 100.66 143.658 98.5707 144.176C91.6425 145.732 84.9442 152.593 80.1562 163C75.182 173.822 72.7402 187.128 73.3311 200.435C74.0884 217.852 79.0949 231.341 87.0888 237.44C91.5244 240.832 96.7516 241.867 102.549 240.559C113.017 238.146 120.157 231.607 124.364 220.597C128.649 209.333 129.075 194.972 128.994 185.16C128.893 168.444 123.935 154.918 115.372 148.129C112.154 145.511 108.561 144.075 104.785 143.713Z" fill="#5D4D5C"/>
<path d="M178.664 279.952C178.664 279.952 159.77 326.524 120.954 278.734C120.954 278.734 108.585 276.864 107.076 293.931C107.076 293.931 124.146 336.99 170.848 320.109C178.031 317.504 183.036 307.478 186.165 298.37C188.657 291.243 178.664 279.952 178.664 279.952Z" fill="#0881A9"/>
<path d="M239.817 286.314C239.817 286.314 243.136 286.974 249.076 292.582C255.819 298.979 268.456 339.776 268.456 339.776C268.456 339.776 265.004 354.343 253.574 349.444C242.144 344.545 227.768 331.283 227.768 331.283L239.817 286.314Z" fill="#0881A9"/>
<path d="M241.967 284.941C243.472 276.703 188.265 262.452 178.665 280.077C158.782 327.521 164.654 380.018 164.654 380.018C164.654 380.018 202.652 380.018 234.284 380.018C238.561 377.325 225.966 372.939 241.967 284.941Z" fill="#0094C5"/>
<path fill-rule="evenodd" clip-rule="evenodd" d="M300.224 222.635C296.896 228.467 291.972 232.023 285.354 233.253C281.239 234.056 277.196 233.967 273.445 232.29C271.259 231.329 269.441 229.5 267.625 227.918C267.277 227.621 267.395 226.134 267.815 225.662C269.569 223.626 271.547 221.762 273.45 219.8C275.65 217.49 277.774 215.081 280.048 212.87C281.21 211.776 282.646 211.005 284.007 210.134C285.245 209.387 286.682 208.864 287.919 208.117C290.914 206.326 294.161 205.649 297.611 206.186C302.55 206.967 303.92 208.822 303.319 214.152C303.151 215.615 302.66 217.103 302.119 218.566C301.578 219.906 300.864 221.221 300.224 222.635Z" fill="#FFD9D7"/>
<path d="M268.555 145.028C226.214 128.502 204.561 160.061 204.561 160.061C199.963 171.968 195.739 184.215 192.269 196.663L194.081 198.538C193.203 197.894 192.326 197.25 191.427 196.663C190.917 196.348 190.53 195.882 190.04 195.509C187.367 193.497 183.162 196.387 182.588 199.502C179.529 215.981 191.888 217.415 192.66 218.542C192.557 218.635 192.372 218.763 192.269 218.856C189.814 217.966 192.583 218.535 191.427 216.552C189.909 223.037 187.644 253.898 187.439 273.04C187.433 277.077 194.953 278.629 211.974 284.736C220.588 287.794 240.892 288.341 241.268 287.305C253.245 255.234 273.928 221.369 274.759 219.651L279.387 217.421L295.492 201.942C295.492 201.942 289.354 201.427 288.027 200.49C291.774 194.944 295.418 189.49 296.355 187.29C298.562 182.162 310.896 161.555 268.555 145.028Z" fill="#FFD9D7"/>
<path d="M182.073 200.095C182.073 200.095 181.621 214.555 202.416 220.598C202.416 220.598 180.366 223.57 182.073 200.095Z" fill="#5D4D5C"/>
<path fill-rule="evenodd" clip-rule="evenodd" d="M309.802 195.018C314.461 189.256 321.938 180.128 322.323 178.875C322.909 177.068 329.05 153.781 315.064 145.461C312.665 144.034 300.468 141.283 300.468 141.283C298.108 134.577 296.029 130.573 280.047 120.93C264.065 111.288 253.773 113.973 247.083 113.846C246.402 113.808 245.722 113.77 245.019 113.794C244.461 113.8 244.026 113.851 243.607 114.048C243.211 114.183 242.871 114.547 242.452 114.743C218.064 125.12 215.188 124.476 212.878 126.633C221.509 146.686 203.401 163.259 203.401 163.259C203.401 163.259 212.311 149.985 226.93 144.91C250.888 136.675 274.233 148.135 279.037 152.314C293.527 165.02 295.831 174.561 295.831 174.561C295.831 174.561 291.111 178.769 286.457 185.856C281.743 192.921 281.709 202.589 281.709 202.589L289.961 206.835C295.652 202.631 303.776 201.677 303.776 201.677L306.025 199.498C306.025 199.498 306.622 198.809 307.604 197.633C308.307 196.844 309.054 195.931 309.802 195.018Z" fill="#FFE67C"/>
<path fill-rule="evenodd" clip-rule="evenodd" d="M289.877 206.875L281.625 202.629C281.625 202.629 281.659 192.961 286.396 185.834C291.111 178.769 295.77 174.539 295.77 174.539C295.77 174.539 293.465 164.999 278.892 152.332C274.088 148.152 250.765 136.631 226.785 144.927C212.188 149.941 203.255 163.277 203.255 163.277C203.255 163.277 217.308 145.694 208.738 125.664L230.478 133.592C230.478 133.592 245.208 129.741 262.31 135.246C279.411 140.751 297.829 165.606 295.809 174.623C295.429 176.435 296.93 185.128 305.411 185.487C313.049 185.68 322.909 175.536 322.323 178.875C321.938 180.894 306.187 199.627 303.754 201.739C296.456 208.076 289.877 206.875 289.877 206.875Z" fill="#FFD160"/>
<path d="M192.426 122.858C195.428 130.283 202.76 126.535 207.525 122.97C207.988 122.651 208.473 122.269 208.897 121.866C239.825 104.946 250.995 130.446 269.084 132.27C268.816 136.073 268.135 139.865 266.093 144.348C259.526 132.008 237.152 151.96 230.434 154.398C203.964 163.812 187.912 143.158 192.426 122.858Z" fill="#FFE67C"/>
<path d="M226.741 119.004C217.496 120.944 209.165 127.255 199.68 128.133C196.896 128.725 194.731 127.035 193.392 124.6C196.812 129.531 203.246 126.153 207.525 122.969C207.988 122.65 208.474 122.269 208.898 121.865C223.723 113.731 233.967 115.356 242.637 119.406C237.426 118.073 232.17 117.63 226.741 119.004Z" fill="#FFD160"/>
<path d="M191.712 127.892C192.644 131.643 194.307 135.101 196.544 137.932C213.416 158.814 237.732 136.572 258.014 132.923C252.194 129.629 245.343 129.373 239.339 130.608C246.302 126.726 254.002 128.474 261.272 130.065C263.783 131.185 266.735 132.046 269.474 132.343C269.206 136.146 268.196 139.888 266.093 144.349C259.526 132.009 237.152 151.961 230.434 154.4C206.196 163.021 190.635 146.375 191.712 127.892Z" fill="#FFD160"/>
<path d="M293.708 218.021C292.227 217.457 290.963 217.092 289.699 216.727C288.435 216.362 287.189 216.412 285.943 216.463C284.696 216.513 283.45 216.563 282.005 216.83C280.561 217.096 279.332 217.562 277.905 218.244C278.249 216.566 279.441 215.269 280.868 214.587C282.494 213.69 283.939 213.423 285.6 213.356C287.262 213.289 288.941 213.637 290.44 214.616C291.921 215.181 293.221 216.376 293.708 218.021Z" fill="#5D4D5C"/>
<path d="M259.528 189.683C258.004 185.608 237.867 181.768 234.257 186.94C233.294 188.272 232.492 189.84 232.011 191.485C229.524 199.557 233.696 207.864 241.397 210.136C249.099 212.409 257.362 207.785 259.849 199.714C260.812 196.266 260.652 192.739 259.528 189.683Z" fill="white"/>
<path fill-rule="evenodd" clip-rule="evenodd" d="M214.752 178.619C214.3 184.691 214.849 191.852 208.914 194.174C197.725 198.552 195.093 178.619 206.391 171.917C206.391 171.917 207.822 171.128 211.061 173.573C214.3 175.938 214.752 178.619 214.752 178.619Z" fill="white"/>
<path d="M216.849 165.745C214.259 164.892 215.425 162.007 214.195 160.565C213.936 160.368 213.677 160.171 213.418 160.04C212.382 159.385 211.411 158.86 210.634 158.598C204.614 156.696 195.292 161.811 195.292 161.811C195.292 161.811 203.967 161.024 210.375 164.827C210.57 164.958 210.958 165.745 211.087 165.876C212.058 171.515 218.532 171.515 219.309 169.875C220.086 168.171 219.438 166.597 216.849 165.745Z" fill="#5D4D5C"/>
<path d="M240.036 176.731C243.339 176.517 243.608 180.076 245.765 181.002C246.169 181.073 246.506 181.144 246.91 181.215C248.393 181.5 249.808 181.571 250.819 181.5C258.569 180.859 266.319 171.393 266.319 171.393C266.319 171.393 256.952 176.019 247.854 174.809C247.584 174.809 246.776 174.097 246.506 174.026C242.463 168.546 235.184 171.321 235.184 173.386C235.184 175.45 236.734 176.944 240.036 176.731Z" fill="#5D4D5C"/>
<path d="M202.704 179.434C201.512 181.82 202.148 184.524 204.136 185.637C206.124 186.671 208.748 185.637 210.02 183.251C211.213 180.866 210.577 178.162 208.589 177.049C206.521 176.015 203.897 177.128 202.704 179.434Z" fill="#51A1EC"/>
<path d="M208.192 183.396C207.173 182.882 206.811 181.544 207.384 180.406C207.957 179.269 209.248 178.764 210.268 179.277C211.288 179.791 211.65 181.13 211.077 182.267C210.503 183.404 209.212 183.91 208.192 183.396Z" fill="white"/>
<path d="M233.561 192.585C232.288 195.766 233.799 199.345 236.821 200.538C239.843 201.73 243.342 200.06 244.614 196.88C245.886 193.699 244.376 190.12 241.354 188.927C238.252 187.814 234.753 189.405 233.561 192.585Z" fill="#51A1EC"/>
<path d="M242.566 197.442C241.115 196.711 240.532 194.942 241.263 193.491C241.994 192.04 243.763 191.456 245.214 192.187C246.665 192.918 247.249 194.688 246.518 196.139C245.787 197.59 244.017 198.173 242.566 197.442Z" fill="white"/>
<path d="M227.4 239.904C227.4 239.904 217.671 250.12 197.238 246.589" stroke="#5D4D5C" stroke-width="3" stroke-miterlimit="10" stroke-linecap="round"/>
<path d="M229.347 232.12C229.347 232.12 237.593 236.29 232.613 243.796" stroke="#5D4D5C" stroke-width="3" stroke-miterlimit="10" stroke-linecap="round"/>
<path d="M212.368 278.302C212.797 279.591 223.831 306.601 229.293 319.945C224.995 326.178 217.83 327.557 214.786 327.467C213.263 323.079 209.896 314.142 208.606 313.497C206.994 312.691 204.576 310.81 202.427 308.124C200.708 305.974 199.919 302.75 199.74 301.407C199.472 301.497 199.093 301.192 198.448 301.407C197.642 301.676 192.931 299.609 192.44 298.689C191.371 297.62 191.371 295.209 191.371 292.791C189.437 291.502 189.621 288.69 190.337 287.705C189.531 287.347 188.986 286.055 190.92 281.972C193.338 276.867 195.046 277.227 196.121 276.69C196.981 276.26 202.069 276.242 204.576 276.69C204.487 276.332 204.254 275.454 204.039 274.809C203.609 273.09 201.352 270.869 200.278 269.973C198.755 270.063 195.388 270.296 194.098 270.511C192.486 270.779 191.143 268.63 191.949 267.824C192.755 267.018 195.979 263.794 199.74 263.794C203.502 263.794 208.069 268.093 209.412 269.436C210.756 270.779 211.83 276.69 212.368 278.302Z" fill="#F2C2C0"/>
<path d="M194.525 283.675C193.45 283.89 191.502 286.541 190.338 287.705L189.8 287.167L193.999 282.968C195.88 282.789 200.977 282.815 203.771 283.675C201.622 283.137 195.868 283.406 194.525 283.675Z" fill="#E2ABA9"/>
<path d="M195.019 289.061C193.944 289.705 191.737 292.116 191.379 292.922L190.841 292.384C191.468 291.31 194.159 289.053 195.019 288.623C196.094 288.086 200.782 288.354 202.394 288.623C199.707 288.354 196.362 288.255 195.019 289.061Z" fill="#E2ABA9"/>
<path d="M199.472 301.407C200.099 301.049 200.923 300.064 199.203 298.989C197.054 297.646 196.248 297.108 195.173 297.108C196.354 296.824 196.785 296.034 196.248 294.69C196.752 295.447 197.967 295.967 199.225 295.139C199.307 295.082 199.39 295.022 199.472 294.959C199.39 295.025 199.307 295.085 199.225 295.139C197.61 296.258 196.119 296.226 197.23 296.824C198.396 297.452 202.971 299.931 199.472 301.407Z" fill="#E2ABA9"/>
<path d="M254.389 358.122C222.806 348.989 205.141 317.448 205.141 317.448C223.998 312.895 226.341 306.262 226.341 306.262C241.105 327.531 248.963 327.738 261.615 331.575C261.615 331.575 275.055 335.846 271.592 348.769C269.302 357.315 262.877 360.62 254.389 358.122Z" fill="#15A8D9"/>
<path opacity="0.5" d="M237.842 36.1259C234.886 22.0827 222.074 12.8437 209.017 15.4306C205.075 16.2929 201.502 18.1407 198.546 20.6044C201.872 7.79309 195.466 -2.43134 179.329 0.525124C164.916 3.11203 162.699 20.6044 162.699 20.6044C162.699 20.6044 157.894 8.40903 146.561 13.4597C135.228 18.6335 139.17 30.8289 139.17 30.8289C139.17 30.8289 126.482 18.6335 113.178 30.8289C99.9969 43.0243 107.511 62.1181 121.554 62.1181C130.424 62.1181 135.228 57.8066 135.228 57.8066C135.228 57.8066 127.837 72.3426 138.677 80.2265C149.395 88.1104 166.148 84.6612 168.119 68.0311C168.119 68.0311 171.075 84.4148 190.662 82.3206C201.502 81.212 205.567 73.2049 207.046 65.321C210.988 66.7992 215.176 67.1688 219.487 66.3065C232.545 63.8427 240.799 50.1691 237.842 36.1259Z" fill="#B4E0F6"/>
<path opacity="0.5" d="M346.077 227.367C346.077 227.367 342.469 215.449 350.997 212.169C359.525 208.889 361.165 220.369 361.165 220.369C361.165 220.369 366.413 203.641 377.128 206.483C387.843 209.326 386.75 225.727 386.75 225.727C386.75 225.727 391.123 217.198 400.198 219.385C409.273 221.572 409.601 229.553 408.945 235.02C408.398 240.487 402.932 248.578 396.043 245.954C396.043 245.954 399.652 254.919 390.795 258.965C382.048 263.12 374.614 256.778 373.52 254.263C373.52 254.263 371.552 265.962 362.805 266.728C354.058 267.493 347.717 259.402 348.81 251.311C348.81 251.311 344.109 258.418 336.127 257.325C328.146 256.231 323.553 248.578 323.444 238.191C323.335 230.1 328.364 222.884 334.706 222.119C341.157 221.134 343.343 223.321 346.077 227.367Z" fill="#B4E0F6"/>
<path opacity="0.5" d="M21.5188 278.369C21.5188 278.369 21.9148 266.159 32.0788 266.357C42.2428 266.555 38.8108 277.379 38.8108 277.379C38.8108 277.379 42.9688 271.967 49.7008 273.551C56.4328 275.201 58.2808 282.329 52.9348 286.025C46.9288 290.249 42.6388 287.147 42.6388 287.147C42.6388 287.147 47.3248 292.691 41.9128 296.321C36.5008 299.951 30.6928 292.955 30.6928 292.955C30.6928 292.955 29.9668 301.667 20.7268 301.997C11.4868 302.327 13.1368 294.209 13.1368 294.209C13.1368 294.209 8.58283 297.311 3.89683 296.387C-0.789173 295.463 -0.657173 286.949 8.31883 285.233C8.31883 285.233 3.83083 275.663 12.2128 273.155C18.8128 271.175 21.5188 278.369 21.5188 278.369Z" fill="#B4E0F6"/>
</svg>
