<svg width="205" height="210" viewBox="0 0 205 210" fill="none" xmlns="http://www.w3.org/2000/svg">
<g clip-path="url(#clip0)">
<path d="M154.903 66.3164C155.786 76.4274 153.815 85.2275 151.589 94.9405C150.979 97.6362 159.992 98.5451 161.101 96.3198C165.338 87.3048 165.724 76.7798 164.529 67.1253C164.111 64.0022 154.629 63.5926 154.903 66.3164Z" fill="#FF5858"/>
<path d="M188.829 93.0244C183.016 99.8738 176.404 105.155 169.563 110.837C166.542 113.349 175.128 114.539 176.909 113.411C184.792 108.827 191.66 101.891 197.245 94.6996C198.912 92.6591 190.568 90.9981 188.829 93.0244Z" fill="#FF5858"/>
<path d="M179.403 132.428C185.436 133.777 191.37 135.255 197.29 136.804C199.401 137.372 202.995 137.198 204.12 134.901C205.244 132.605 202.648 130.753 200.75 130.227C194.759 128.664 188.882 127.272 182.863 125.851C180.738 125.354 177.244 125.4 176.033 127.753C174.909 130.05 177.42 131.959 179.403 132.428Z" fill="#FF5858"/>
<ellipse cx="124.039" cy="146.082" rx="47.2079" ry="47.1987" fill="#FF5858"/>
<path d="M45.3123 143.646C45.3123 143.646 33.9722 144.454 30.0571 151.852C26.1421 159.25 21.9932 171.239 30.7342 191.292C36.6191 204.793 40.1068 204.731 40.1068 204.731L43.2465 176.902L45.3123 143.646Z" fill="#68D4E7"/>
<path d="M92.2925 143.243L104.137 150.235C104.137 150.235 127.367 170.525 120.859 183.55C117.102 191.07 111.508 189.08 104.137 187.117C95.7714 184.89 94.6365 172.055 94.6365 172.055L92.2925 143.243Z" fill="#68D4E7"/>
<path d="M45.3119 143.646C45.3119 143.646 37.0768 164.227 37.3468 190.995C37.4633 202.537 40.1819 204.818 40.1819 204.818C40.1819 204.818 50.5769 210.602 69.8821 209.526C89.1873 208.45 99.3124 205.222 99.3124 205.222C99.3124 205.222 103.427 175.131 103.157 152.129C99.3124 147.02 92.1573 142.032 92.1573 142.032L45.3119 143.646Z" fill="#27C1DD"/>
<path d="M118.942 58.304C118.807 57.3624 118.672 56.2863 118.267 55.4793C116.917 52.251 115.567 51.8474 112.462 52.789C108.007 54.1342 105.442 60.4562 105.172 60.8598C104.902 60.7252 104.497 60.7252 104.092 60.5907C105.577 55.3448 106.792 50.0988 106.927 48.2156C107.332 43.7767 110.572 22.5238 75.6066 20.6407C40.7763 18.7575 29.0312 33.4193 29.0312 33.4193C29.0312 33.4193 29.3012 45.9289 30.2462 59.7837C29.8412 59.1111 29.3012 58.4385 28.7612 57.766C27.5462 55.7483 25.9262 54.4032 23.7662 53.5961C20.6612 52.52 19.3111 53.0581 17.9611 56.4209C17.5561 57.3624 17.4211 58.304 17.2861 59.3801C17.1511 60.3217 17.1511 61.3978 17.1511 62.3394C17.2861 66.7783 19.0411 70.2756 22.4162 73.1003C24.5762 74.849 26.8712 76.0596 29.5712 76.1941C30.1112 76.1941 30.7862 76.1941 31.3262 76.0596C31.4612 78.0773 31.7312 80.095 32.0012 81.9781C35.2413 108.612 39.9663 122.976 45.3664 146.247C45.5014 146.381 53.1964 157.411 68.7215 155.528C86.6767 153.376 92.0768 145.574 92.0768 144.633C92.3468 141.404 100.717 93.2771 102.202 74.7145H102.067C102.067 74.7145 102.067 74.7145 102.202 74.7145C103.822 75.118 105.442 75.5216 106.927 75.387C109.627 75.118 111.922 73.9074 114.082 72.1588C117.457 69.334 119.077 65.7022 119.212 61.3978C119.077 60.3217 119.077 59.2456 118.942 58.304Z" fill="#FBD8C9"/>
<path fill-rule="evenodd" clip-rule="evenodd" d="M86.4088 121.922C83.4422 130.73 79.7314 136.294 68.6204 139.535C62.9818 141.18 57.5677 139.052 53.938 135.063C50.4493 131.23 48.6153 124.844 48.4908 124.175C55.5397 132.627 70.2872 132.846 86.4088 121.922Z" fill="#85322C"/>
<path fill-rule="evenodd" clip-rule="evenodd" d="M78.1605 134.971C75.7443 136.824 72.6616 138.32 68.5857 139.505C64.8601 140.589 61.3079 140.066 58.2769 138.443C59.5311 136.688 61.8996 134.828 66.3379 133.626C69.9732 132.674 74.9587 133.917 78.1605 134.971Z" fill="#E78482"/>
<path d="M28.842 69.6029C28.707 69.6029 28.572 69.6029 28.437 69.6029C27.897 68.2577 27.357 66.9126 26.952 65.702C26.142 66.6436 25.332 67.5852 24.522 68.5268C23.577 67.9887 23.307 67.5852 23.847 66.9126C24.387 66.2401 24.792 65.5675 25.332 64.8949C25.872 64.2224 25.737 63.6843 25.062 63.4153C24.117 62.8773 23.037 62.6082 22.092 62.0702C21.687 61.9357 21.552 61.5322 21.282 61.2631C21.552 61.1286 21.957 60.7251 22.227 60.8596C23.307 61.2631 24.387 61.6667 25.332 62.0702C28.167 63.2808 28.842 65.8365 29.112 68.5268C29.247 68.9303 28.977 69.3338 28.842 69.6029Z" fill="#F5CEBB"/>
<path d="M113.758 61.3976C112.813 61.9356 111.733 62.3392 110.788 62.7427C110.113 63.1462 109.978 63.6843 110.518 64.2223C111.058 64.8949 111.463 65.5674 112.003 66.1055C112.543 66.778 112.408 67.0471 111.463 67.7196C110.653 66.778 109.843 65.8365 109.033 64.8949C108.628 66.1055 108.088 67.5851 107.548 68.9302C107.413 68.9302 107.278 68.9302 107.143 68.9302C107.008 68.6612 106.738 68.2577 106.873 67.9887C107.008 65.2984 107.818 62.7427 110.518 61.3976C111.463 60.8595 112.543 60.456 113.623 60.0525C113.893 59.918 114.298 60.3215 114.568 60.456C114.298 60.8595 114.163 61.2631 113.758 61.3976Z" fill="#5D4D5C"/>
<path fill-rule="evenodd" clip-rule="evenodd" d="M24.657 68.527C25.467 67.5855 26.277 66.6439 27.087 65.7023C27.627 66.9129 28.032 68.258 28.572 69.6031C28.7071 69.6031 28.8421 69.6031 28.9771 69.6031C29.1121 69.3341 29.2471 68.9306 29.2471 68.6616C28.9771 65.9713 28.167 63.4156 25.467 62.205C24.387 61.8014 23.442 61.2634 22.362 60.9944C22.092 60.8598 21.687 61.2634 21.417 61.3979C21.687 61.6669 21.957 62.0705 22.227 62.205C23.172 62.743 24.252 63.012 25.197 63.5501C25.872 63.8191 26.007 64.3572 25.467 65.0297C24.927 65.7023 24.522 66.3748 23.982 67.0474C23.442 67.72 23.577 67.989 24.657 68.527Z" fill="#5D4D5C"/>
<path d="M58.5426 61.7274C58.5426 61.7274 53.2775 53.1186 46.2575 55.0018C39.2374 56.8849 33.5674 66.3008 33.5674 66.3008C33.5674 66.3008 50.4425 55.2708 58.5426 61.7274Z" fill="#5D4D5C"/>
<path d="M74.7422 61.5931C74.7422 61.5931 79.3322 52.9843 85.8123 54.7329C92.2923 56.4816 97.5574 65.8974 97.5574 65.8974C97.5574 65.8974 81.8972 55.002 74.7422 61.5931Z" fill="#5D4D5C"/>
<path fill-rule="evenodd" clip-rule="evenodd" d="M18.4466 44.718C17.5016 38.665 15.0977 34.4166 16.2866 27.904C18.2633 17.076 23.6612 7.2345 34.6468 6.51659C39.3668 6.20813 46.3919 9.47585 46.3919 9.47585C44.2076 6.51659 46.3919 1.93938 57.8622 0.312018C69.3325 -1.31534 82.6393 -0.683589 94.0473 11.09C100.972 18.2362 108.362 31.8413 125.695 31.8413C120.942 51.4317 107.944 48.4252 104.442 64.6258C103.385 59.3843 103.632 51.3091 95.6673 41.7587C82.5722 26.0208 61.917 25.0792 56.922 26.1553C41.8018 29.5181 36.4018 35.5712 36.4018 35.5712L27.7617 47.5427L31.2717 62.6081L27.3567 61.3975C25.1967 56.017 19.9316 52.1162 19.9316 52.1162L19.2566 49.5604C19.2566 49.5604 19.1216 48.7534 18.9866 47.5427C18.7166 46.7357 18.5816 45.6596 18.4466 44.718Z" fill="#FFE67C"/>
<path fill-rule="evenodd" clip-rule="evenodd" d="M27.3571 61.3976L31.2722 62.6082C31.2722 62.6082 30.3272 56.0171 31.0022 49.157C31.8122 40.6827 36.4022 35.7058 36.4022 35.7058C36.4022 35.7058 41.6673 29.5183 56.7874 26.1555C61.7824 25.0794 82.4376 26.1555 95.5327 41.7588C103.498 51.3092 103.579 57.4447 104.308 64.6259C106.877 52.4016 112.503 54.5352 122.009 41.2486C122.009 41.2486 109.135 44.5214 97.4227 32.074C90.6255 24.8498 88.7827 23.3307 74.8775 20.3714C60.9724 17.4122 41.2623 25.3484 36.1322 35.5713C35.4572 37.0509 29.9222 42.8349 25.1971 39.6066C20.2021 36.2439 15.9042 27.886 15.9042 27.886C15.9042 27.886 15.2708 40.6338 19.9321 52.1163C22.3621 59.6489 27.3571 61.3976 27.3571 61.3976Z" fill="#FFD060"/>
<path d="M67.1674 112.563C64.4157 112.707 60.795 111.12 59.0571 109.388C56.7398 106.935 55.9255 104.302 58.3876 104.302C57.9804 105.927 60.3524 108.811 61.3662 109.388C65.1317 111.409 68.0023 111.75 71.3204 110.057C71.3204 111.648 69.9191 112.419 67.1674 112.563Z" fill="#5D4D5C"/>
<path d="M48.2264 67.932C54.4821 67.6352 59.9931 72.8295 60.291 79.5077C60.5889 86.186 55.8226 91.9739 49.418 92.2707C43.1622 92.5675 37.6512 87.3733 37.3533 80.695C37.0554 74.0167 41.8217 68.2288 48.2264 67.932Z" fill="white"/>
<path d="M54.6026 81.3378C53.8579 84.0091 51.1769 85.4932 48.6448 84.7511C46.1127 84.0091 44.7722 81.3378 45.5169 78.6665C46.2616 75.9952 48.9427 74.5111 51.4747 75.2531C53.8579 76.1436 55.3473 78.8149 54.6026 81.3378Z" fill="#51A1EC"/>
<path d="M53.6957 76.1362C53.9505 74.8496 53.1102 73.6007 51.819 73.3468C50.5277 73.093 49.2743 73.9301 49.0195 75.2168C48.7647 76.5034 49.6049 77.7522 50.8962 78.0061C52.1875 78.26 53.4409 77.4228 53.6957 76.1362Z" fill="white"/>
<path d="M94.8987 80.2499C94.7498 86.9282 89.3877 92.2708 82.983 92.1224C76.7273 91.974 71.6631 86.3346 71.961 79.5079C72.1099 72.8296 77.472 67.4869 83.8767 67.6353C90.1324 67.7837 95.0476 73.4232 94.8987 80.2499Z" fill="white"/>
<path d="M82.5072 74.9556C85.0393 74.2136 87.7203 75.5493 88.4651 78.2206C89.3588 80.7435 88.0182 83.5632 85.4862 84.3053C82.9541 85.0473 80.273 83.7116 79.5283 81.0403C78.6346 78.5174 79.9751 75.8461 82.5072 74.9556Z" fill="#51A1EC"/>
<path d="M86.4127 77.726C87.699 77.4481 88.5157 76.1838 88.2368 74.9022C87.9579 73.6205 86.6891 72.8068 85.4028 73.0847C84.1165 73.3626 83.2998 74.6269 83.5787 75.9085C83.8576 77.1901 85.1264 78.0038 86.4127 77.726Z" fill="white"/>
<path d="M45.8428 72.9782C51.2049 72.2361 56.1201 73.7202 59.099 74.9075C57.1627 70.6037 52.9922 67.7839 48.226 67.9323C43.7576 68.2292 40.0339 71.0489 38.3955 75.2043C40.1829 74.1654 42.7149 73.275 45.8428 72.9782Z" fill="#E3AEAB"/>
<path d="M86.2601 72.5331C80.8981 71.9395 75.9828 73.4236 73.0039 74.7592C74.9402 70.4554 79.1107 67.4873 83.728 67.6357C88.1964 67.7841 91.9201 70.6038 93.7074 74.6108C91.9201 73.7204 89.388 72.8299 86.2601 72.5331Z" fill="#E3AEAB"/>
<path d="M95.5102 16.2812C87.6189 13.1252 77.3505 14.9662 73.2026 16.2812C77.9323 21.9961 89.7134 33.2591 99.0007 32.5915C110.61 31.757 118.122 22.3502 116.225 16.8881C112.203 20.8329 105.374 20.2262 95.5102 16.2812Z" fill="#FFE67C"/>
<path d="M91.8691 13.6262C95.0813 17.0148 104.404 22.4112 115.998 16.8883C113.418 22.4261 94.7529 23.3366 91.8691 13.6262Z" fill="#FFD060"/>
<path d="M91.4939 168.294C90.9514 150.495 96.6155 149.212 100.985 149.205C130.67 161.004 121.066 187.03 113.983 190.861C106.9 194.693 92.1721 190.542 91.4939 168.294Z" fill="#68D4E7"/>
<path d="M139.718 171.635L139.833 171.449C139.883 171.361 139.934 171.275 139.979 171.185C140.07 171.008 140.151 170.827 140.223 170.642C140.406 170.226 140.56 169.798 140.684 169.36C140.806 168.936 140.934 168.514 141.042 168.071C141.132 167.614 141.174 167.149 141.168 166.683C141.163 166.448 141.141 166.213 141.104 165.98L141.074 165.807C141.06 165.74 141.042 165.674 141.019 165.61L140.907 165.289C140.78 164.858 140.644 164.437 140.494 164.008C140.418 163.796 140.333 163.585 140.247 163.367C140.195 163.24 140.131 163.118 140.056 163.003C140.038 162.977 140.018 162.952 139.995 162.929C139.982 162.941 139.97 162.949 139.974 162.929L140.053 162.777L140.343 162.136C140.694 161.277 140.89 160.362 140.921 159.434C140.953 158.506 140.817 157.58 140.521 156.7C140.235 155.814 139.785 154.989 139.192 154.27C139.117 154.182 139.032 154.11 138.947 154.022C138.89 153.964 138.909 153.988 138.896 153.978L138.875 153.967C138.862 153.951 138.837 153.967 138.811 153.967C138.785 153.967 138.811 153.951 138.821 153.94L138.859 153.89L138.872 153.874L138.931 153.82L139.056 153.701C139.216 153.541 139.377 153.381 139.537 153.193C140.196 152.501 140.637 151.63 140.804 150.689C140.908 149.744 140.768 148.789 140.397 147.913C140.019 147.05 139.416 146.306 138.651 145.757C138.582 145.704 138.511 145.646 138.444 145.596L138.343 145.523L138.21 145.433L138.229 145.444C137.676 145.069 137.086 144.754 136.467 144.502H136.456L136.276 144.432C135.43 144.124 134.59 143.869 133.743 143.613L131.198 142.829C130.347 142.605 129.506 142.373 128.661 142.125C127.817 141.876 126.95 141.663 126.114 141.416C125.297 141.155 124.511 140.805 123.771 140.372C123.037 139.988 122.409 139.427 121.946 138.741C121.547 138.008 121.314 137.196 121.263 136.363C121.145 135.517 121.134 134.659 121.231 133.81C121.391 132.956 121.62 132.123 121.864 131.273C122.051 130.412 122.234 129.546 122.39 128.673C122.607 127.813 122.805 126.943 122.941 126.055C122.99 125.158 122.97 124.257 122.88 123.362C122.854 122.461 122.728 121.565 122.507 120.692C122.263 119.822 122.013 118.942 121.563 118.128C121.078 117.333 120.439 116.643 119.685 116.098C118.933 115.505 118.008 115.172 117.05 115.15C116.573 115.143 116.098 115.207 115.64 115.339L115.299 115.44L114.978 115.573C114.756 115.654 114.542 115.754 114.337 115.872C113.541 116.382 112.895 117.093 112.463 117.933C112.013 118.731 111.711 119.604 111.573 120.509C111.42 121.392 111.334 122.285 111.315 123.181C111.325 124.07 111.359 124.944 111.391 125.831L111.354 128.468C111.354 129.345 111.346 130.219 111.307 131.089C111.307 131.962 111.288 132.834 111.216 133.702C111.058 134.556 110.849 135.399 110.591 136.227C110.386 137.067 110.134 137.895 109.835 138.706C109.522 139.516 109.163 140.308 108.801 141.109L107.803 143.547C107.399 144.332 107.002 145.128 106.641 145.941C106.343 146.785 106.089 147.643 105.88 148.514L105.704 149.155C105.646 149.371 105.606 149.592 105.556 149.81C105.456 150.251 105.385 150.698 105.341 151.148C105.236 152.045 105.216 152.939 105.196 153.818C105.241 154.684 105.241 155.551 105.196 156.417C105.113 157.252 104.884 158.065 104.518 158.82C104.147 159.599 103.724 160.352 103.25 161.073C102.765 161.831 102.344 162.628 101.992 163.457C101.822 163.881 101.69 164.32 101.597 164.769C101.552 164.988 101.499 165.204 101.459 165.424L101.347 166.086C101.209 166.97 101.136 167.863 101.129 168.758C101.105 169.654 101.155 170.551 101.276 171.44C101.415 172.324 101.613 173.198 101.869 174.056C102.121 174.91 102.417 175.75 102.757 176.573C102.917 176.98 103.05 177.404 103.237 177.823C103.416 178.242 103.621 178.649 103.85 179.043C104.327 179.825 104.896 180.548 105.543 181.197C106.208 181.815 106.947 182.35 107.742 182.789C108.511 183.271 109.347 183.638 110.222 183.879C111.1 184.125 112.01 184.237 112.921 184.212C113.849 184.208 114.767 184.025 115.626 183.675C115.921 183.537 116.204 183.377 116.473 183.194L116.677 183.058L116.868 182.898L117.057 182.738C117.081 182.722 117.057 182.723 117.065 182.714L117.052 182.679C117.052 182.679 117.066 182.695 117.073 182.699L117.097 182.715L117.257 182.802C117.479 182.916 117.714 183.003 117.957 183.061C118.421 183.168 118.897 183.207 119.372 183.177C119.83 183.177 120.289 183.119 120.71 183.09C121.137 183.061 121.565 183.054 121.992 183.069C122.851 183.028 123.728 183.055 124.61 183.069C125.496 183.169 126.387 183.216 127.278 183.212C128.168 183.165 129.054 183.072 129.934 182.935C130.817 182.845 131.696 182.719 132.566 182.592C133.433 182.432 134.292 182.26 135.158 182.111C136.023 181.962 136.938 181.825 137.787 181.354C138.375 181.033 138.928 180.57 139.215 179.977C139.271 179.886 139.588 179.402 139.391 179.297C139.369 179.285 139.345 179.279 139.321 179.279L139.33 179.263L139.349 179.276C139.394 179.302 139.445 179.315 139.497 179.313C139.549 179.311 139.599 179.294 139.641 179.264C139.825 179.138 139.893 178.817 139.933 178.71C139.933 178.71 140.093 178.298 140.226 177.879C140.359 177.459 140.466 177.034 140.466 177.034C140.717 176.165 140.86 175.268 140.894 174.364C140.924 173.891 140.88 173.416 140.763 172.957C140.693 172.709 140.585 172.474 140.442 172.26C140.361 172.15 140.267 172.049 140.164 171.959C140.115 171.911 140.061 171.868 140.003 171.832L139.915 171.776C139.885 171.757 139.851 171.736 139.849 171.736L139.771 171.709H139.737C139.719 171.712 139.7 171.717 139.683 171.725C139.683 171.725 139.654 171.736 139.66 171.725L139.673 171.711C139.69 171.686 139.705 171.661 139.718 171.635ZM136.443 144.508L136.329 144.488C136.368 144.487 136.407 144.494 136.443 144.508Z" fill="#FBD8C9"/>
<path opacity="0.5" d="M121.211 181.616C121.173 181.473 121.12 181.334 121.051 181.203C120.996 181.082 120.932 180.965 120.861 180.854L120.729 180.511L120.538 180.248L120.404 179.982C120.393 179.876 120.388 179.771 120.38 179.67C120.335 179.583 120.296 179.492 120.253 179.404C120.165 179.328 120.093 179.244 120.008 179.159C119.981 179.059 119.974 178.955 119.955 178.854C119.936 178.753 119.931 178.651 119.92 178.548C119.942 178.442 119.978 178.338 120.01 178.237C120.004 178.137 120.004 178.035 120.01 177.935C119.996 177.833 119.989 177.731 119.989 177.629C120.021 177.53 120.059 177.433 120.103 177.339C120.052 177.227 120.009 177.113 119.974 176.996C120.024 176.9 120.071 176.805 120.125 176.715C120.133 176.608 120.147 176.501 120.167 176.395C120.236 176.312 120.293 176.224 120.365 176.145C120.399 176.047 120.429 175.946 120.47 175.85C120.51 175.754 120.551 175.656 120.599 175.564C120.636 175.498 120.734 175.483 120.697 175.358C120.697 175.338 120.742 175.294 120.582 175.161L120.529 175.121L120.606 175.158L120.627 175.184C120.691 175.281 120.78 175.359 120.883 175.413C120.896 175.42 120.91 175.425 120.925 175.426C120.94 175.428 120.955 175.426 120.969 175.422C120.983 175.418 120.996 175.411 121.008 175.401C121.019 175.391 121.028 175.38 121.035 175.366C121.05 175.331 121.06 175.293 121.066 175.254C121.08 175.223 121.09 175.19 121.098 175.157C121.113 175.09 121.118 175.022 121.114 174.955C121.108 174.869 121.084 174.786 121.043 174.711C120.998 174.586 120.92 174.475 120.817 174.391C120.732 174.325 120.635 174.276 120.532 174.245C120.385 174.167 120.232 174.101 120.074 174.05C119.995 174.07 119.913 174.094 119.843 174.117C119.934 173.982 119.995 173.83 120.021 173.67C120.079 173.487 120.1 173.294 120.082 173.103C120.035 172.942 119.981 172.819 119.941 172.709L119.78 172.388L119.716 172.028C119.615 171.935 119.518 171.84 119.423 171.743C119.407 171.621 119.375 171.505 119.362 171.385C119.313 171.275 119.268 171.163 119.224 171.05C119.224 170.929 119.224 170.808 119.234 170.688L119.151 170.345C119.122 170.23 119.099 170.115 119.082 169.996C119.082 169.913 119.109 169.836 119.019 169.745C119.005 169.73 119.007 169.655 118.859 169.647H118.811H118.845C118.96 169.653 119.077 169.653 119.192 169.647C119.353 169.639 119.261 169.6 119.261 169.588C119.261 169.575 119.261 169.541 119.271 169.495C119.273 169.462 119.273 169.43 119.271 169.397C119.298 169.301 119.338 169.203 119.377 169.104C119.462 169.022 119.55 168.944 119.644 168.87C119.665 168.758 119.696 168.641 119.728 168.524L120.022 168.279L120.133 167.896C120.258 167.808 120.376 167.712 120.487 167.607C120.546 167.449 120.589 167.284 120.617 167.117C120.668 166.907 120.672 166.688 120.628 166.476C120.581 166.28 120.489 166.098 120.359 165.944C120.418 165.863 120.469 165.776 120.511 165.685C120.595 165.467 120.622 165.231 120.591 164.999C120.595 164.799 120.572 164.599 120.521 164.405C120.394 164.264 120.274 164.163 120.16 164.052C120.127 163.91 120.096 163.767 120.067 163.625L119.865 163.237L119.816 162.801C119.756 162.668 119.702 162.534 119.655 162.397C119.609 162.261 119.555 162.123 119.51 161.984C119.482 161.885 119.51 161.776 119.396 161.691C119.378 161.677 119.367 161.585 119.196 161.612L119.143 161.625H119.18C119.308 161.608 119.435 161.581 119.559 161.544C119.72 161.491 119.604 161.459 119.598 161.441L119.5 161.17C119.487 161.029 119.479 160.888 119.473 160.747C119.514 160.605 119.56 160.466 119.611 160.331C119.582 160.195 119.555 160.055 119.535 159.916C119.588 159.783 119.649 159.655 119.712 159.531C119.699 159.395 119.692 159.257 119.691 159.12C119.782 159.035 119.877 158.954 119.976 158.879C120.019 158.759 120.069 158.633 120.128 158.496L120.346 158.099C120.42 157.96 120.494 157.814 120.562 157.655C120.66 157.489 120.739 157.313 120.798 157.13C120.792 156.89 120.732 156.654 120.622 156.441C120.642 156.188 120.596 155.934 120.487 155.705C120.591 155.487 120.637 155.245 120.62 155.004C120.654 154.791 120.648 154.574 120.604 154.363C120.539 154.195 120.458 154.034 120.362 153.882C120.264 153.743 120.162 153.62 120.063 153.501L119.811 153.15C119.739 153.03 119.665 152.91 119.598 152.785C119.531 152.66 119.51 152.516 119.468 152.381C119.426 152.247 119.346 152.13 119.292 152C119.237 151.87 119.202 151.735 119.162 151.601C119.149 151.459 119.141 151.317 119.136 151.176C119.096 151.045 119.056 150.914 119.026 150.779C118.95 150.654 118.882 150.524 118.813 150.391C118.8 150.252 118.784 150.113 118.781 149.973C118.777 149.834 118.771 149.694 118.769 149.555C118.806 149.416 118.838 149.279 118.883 149.145C118.883 149.009 118.907 148.873 118.923 148.736C118.939 148.6 118.941 148.461 118.958 148.325C119.007 148.195 119.064 148.068 119.119 147.943C119.103 147.796 119.087 147.645 119.083 147.493C119.151 147.368 119.221 147.246 119.295 147.128C119.335 146.993 119.383 146.86 119.436 146.729C119.529 146.622 119.619 146.513 119.716 146.408C119.78 146.285 119.854 146.167 119.928 146.048C119.99 145.96 120.051 145.872 120.119 145.785C120.135 145.772 120.148 145.755 120.155 145.736L120.176 145.708C120.237 145.628 120.353 145.607 120.362 145.474C120.362 145.452 120.437 145.402 120.316 145.263L120.274 145.221L120.253 145.202L120.213 145.167C120.213 145.079 120.205 144.992 120.189 144.906C120.157 144.758 120.103 144.848 120.083 144.848C120.064 144.848 119.78 144.866 119.78 144.875C119.625 144.871 119.47 144.877 119.316 144.893C119.156 144.862 118.995 144.832 118.835 144.81C118.684 144.862 118.535 144.92 118.39 144.983C118.229 144.968 118.069 144.968 117.909 144.963C117.765 145.032 117.624 145.112 117.483 145.186C117.322 145.178 117.151 145.168 116.983 145.165C116.84 145.236 116.696 145.3 116.556 145.377C116.417 145.454 116.266 145.498 116.125 145.567C115.984 145.636 115.843 145.707 115.706 145.782C115.568 145.857 115.414 145.904 115.27 145.966C115.162 146.096 115.061 146.235 114.962 146.367C114.792 146.388 114.621 146.412 114.446 146.441C114.345 146.575 114.244 146.697 114.146 146.838C114.029 146.945 113.917 147.061 113.811 147.185C113.675 147.272 113.55 147.373 113.417 147.469C113.312 147.591 113.198 147.705 113.097 147.834C112.973 147.942 112.855 148.057 112.741 148.176C112.671 148.326 112.614 148.485 112.557 148.639C112.499 148.792 112.435 148.941 112.397 149.1C112.287 149.229 112.184 149.363 112.089 149.502C112.063 149.662 112.046 149.839 112.036 150.005C111.956 150.157 111.885 150.313 111.824 150.473C111.857 150.647 111.9 150.818 111.953 150.987C111.897 151.153 111.852 151.322 111.816 151.494C111.864 151.658 111.924 151.818 111.994 151.974C111.961 152.152 111.937 152.331 111.924 152.511C112.051 152.642 112.184 152.767 112.324 152.884C112.366 153.044 112.411 153.192 112.462 153.341C112.477 153.501 112.498 153.674 112.52 153.841C112.64 153.953 112.762 154.059 112.884 154.161C112.951 154.297 113.013 154.43 113.09 154.574C113.143 154.744 113.208 154.91 113.286 155.069C113.464 155.17 113.652 155.249 113.848 155.307L113.89 155.339C113.815 155.339 113.73 155.339 113.659 155.339C113.534 155.479 113.418 155.627 113.312 155.782C113.154 155.845 113 155.917 112.852 155.999C112.673 156.053 112.498 156.12 112.329 156.201C112.237 156.364 112.158 156.533 112.09 156.708C111.973 156.844 111.866 156.988 111.77 157.139C111.648 157.278 111.537 157.426 111.44 157.583C111.453 157.774 111.482 157.963 111.526 158.149C111.486 158.311 111.455 158.475 111.433 158.641C111.393 158.801 111.355 158.961 111.329 159.132C111.358 159.293 111.401 159.453 111.443 159.613C111.417 159.773 111.393 159.933 111.377 160.103C111.395 160.263 111.416 160.424 111.442 160.574C111.534 160.717 111.629 160.853 111.725 160.988L111.589 161.492L111.765 161.918C111.794 162.07 111.826 162.223 111.86 162.378C111.962 162.513 112.066 162.647 112.18 162.777C112.175 162.955 112.179 163.132 112.193 163.309C112.318 163.439 112.451 163.562 112.59 163.678C112.665 163.836 112.752 163.989 112.85 164.134C112.935 164.303 113.035 164.463 113.148 164.615C113.309 164.702 113.477 164.776 113.65 164.836C113.783 164.948 113.919 165.049 114.057 165.143C114.217 165.204 114.363 165.259 114.51 165.304L114.96 165.408L115.388 165.546L115.457 165.571L115.071 165.531C114.952 165.613 114.834 165.699 114.718 165.787C114.577 165.771 114.433 165.759 114.283 165.754C114.161 165.832 114.041 165.914 113.925 166.004C113.765 165.999 113.604 166.008 113.445 166.031C113.354 166.178 113.277 166.334 113.215 166.496C113.087 166.577 112.966 166.671 112.855 166.776C112.71 166.859 112.574 166.955 112.446 167.063C112.414 167.221 112.395 167.382 112.39 167.543C112.329 167.674 112.275 167.808 112.23 167.946C112.154 168.076 112.085 168.21 112.023 168.348C112.075 168.5 112.136 168.65 112.206 168.795C112.188 168.932 112.183 169.07 112.179 169.21C112.174 169.349 112.137 169.49 112.131 169.633C112.175 169.769 112.232 169.898 112.291 170.027C112.291 170.168 112.276 170.313 112.28 170.458C112.313 170.594 112.358 170.725 112.401 170.858C112.51 170.965 112.622 171.066 112.738 171.159C112.723 171.32 112.715 171.48 112.717 171.64C112.805 171.752 112.898 171.858 112.993 171.96C113.063 172.079 113.134 172.202 113.214 172.314C113.342 172.39 113.475 172.455 113.603 172.52C113.648 172.659 113.695 172.803 113.751 172.942C113.887 173 114.026 173.048 114.162 173.103C114.252 173.204 114.342 173.303 114.438 173.399C114.534 173.495 114.598 173.625 114.691 173.737C114.824 173.783 114.956 173.825 115.089 173.864C115.19 173.953 115.292 174.043 115.396 174.128C115.518 174.183 115.643 174.234 115.766 174.288C115.89 174.343 116.024 174.362 116.156 174.391C116.287 174.42 116.406 174.474 116.529 174.513C116.653 174.551 116.778 174.599 116.904 174.639C116.955 174.668 117.012 174.692 117.064 174.719C117.022 174.773 116.98 174.826 116.939 174.879C116.79 174.87 116.64 174.87 116.491 174.879C116.402 174.991 116.32 175.107 116.246 175.229C116.153 175.323 116.066 175.422 115.984 175.525C115.873 175.6 115.767 175.68 115.664 175.765C115.581 175.868 115.503 175.975 115.432 176.086C115.339 176.18 115.247 176.278 115.164 176.381C115.13 176.509 115.102 176.64 115.081 176.772C115.05 176.898 115.025 177.023 115.007 177.15C114.927 177.255 114.847 177.366 114.781 177.48C114.781 177.613 114.789 177.744 114.803 177.872C114.746 177.991 114.694 178.112 114.643 178.237C114.69 178.368 114.743 178.497 114.803 178.622C114.752 178.747 114.709 178.873 114.667 179.003C114.712 179.126 114.762 179.246 114.818 179.362C114.77 179.495 114.726 179.631 114.688 179.771C114.795 179.876 114.906 179.976 115.02 180.07C115.036 180.192 115.052 180.315 115.076 180.437C115.061 180.573 115.053 180.709 115.049 180.849C115.146 180.942 115.244 181.033 115.347 181.118C115.39 181.233 115.438 181.346 115.488 181.458C115.513 181.584 115.539 181.712 115.571 181.837C115.701 181.901 115.834 181.958 115.964 182.012C116.028 182.115 116.09 182.215 116.161 182.315C116.231 182.414 116.27 182.541 116.33 182.653C116.435 182.727 116.542 182.795 116.651 182.861C116.71 182.976 116.776 183.09 116.848 183.206C116.944 183.292 117.042 183.377 117.146 183.457C117.288 183.482 117.431 183.498 117.574 183.507C117.647 183.645 117.731 183.778 117.826 183.902C117.963 183.939 118.103 183.965 118.244 183.981C118.378 184.03 118.516 184.069 118.656 184.096C118.807 184.059 118.955 184.008 119.098 183.944C119.249 183.999 119.405 184.038 119.564 184.063C119.692 183.972 119.811 183.87 119.92 183.758C120.057 183.716 120.19 183.663 120.317 183.598C120.465 183.552 120.607 183.49 120.742 183.414C120.785 183.348 120.824 183.279 120.857 183.207C120.894 183.137 120.925 183.065 120.95 182.991C121.061 182.875 121.157 182.745 121.234 182.605C121.343 182.287 121.338 181.942 121.219 181.627L121.211 181.616Z" fill="#E3AEAB"/>
<path opacity="0.5" d="M136.646 145.583C136.651 145.53 136.647 145.476 136.633 145.423C136.624 145.375 136.614 145.319 136.6 145.263L136.528 145.095C136.477 144.999 136.417 144.909 136.348 144.826L136.254 144.725C135.959 144.427 135.612 144.185 135.231 144.01C134.887 143.809 134.531 143.629 134.164 143.472C133.784 143.361 133.404 143.267 133.025 143.182C132.657 143.053 132.288 142.93 131.916 142.815C131.533 142.746 131.151 142.685 130.77 142.626L129.664 142.266L129.11 142.157C128.927 142.12 128.777 142.076 128.576 142.02C128.203 141.903 127.83 141.801 127.455 141.7L126.351 141.389C125.99 141.272 125.634 141.145 125.285 141.009C124.92 140.92 124.561 140.813 124.208 140.689C124.048 140.58 123.897 140.481 123.753 140.369C123.609 140.256 123.465 140.141 123.333 140.018C123.186 139.92 123.026 139.832 122.883 139.725C122.74 139.617 122.595 139.51 122.466 139.385C122.338 139.26 122.22 139.124 122.115 138.98C122.011 138.835 121.904 138.69 121.816 138.533L121.604 138.036L121.455 137.515C121.355 137.163 121.283 136.803 121.239 136.439C121.213 136.071 121.21 135.703 121.229 135.335C121.215 134.966 121.22 134.593 121.241 134.213C121.261 133.834 121.316 133.465 121.372 133.092C121.468 132.725 121.577 132.36 121.692 131.996C121.76 131.62 121.833 131.248 121.91 130.875L122.276 129.779C122.338 129.396 122.397 129.013 122.452 128.628C122.574 128.26 122.689 127.888 122.798 127.507C122.853 127.121 122.897 126.732 122.928 126.342C123.024 125.961 123.107 125.573 123.17 125.179C123.14 124.78 123.086 124.382 123.01 123.989C123.01 123.79 122.981 123.591 122.966 123.393C122.952 123.194 122.904 122.997 122.873 122.798C122.819 122.383 122.711 121.977 122.553 121.589C122.491 121.492 122.418 121.402 122.337 121.321C122.293 121.277 122.246 121.236 122.197 121.198C122.135 121.15 122.068 121.108 121.998 121.071C121.92 121.024 121.832 120.993 121.741 120.981C121.65 120.97 121.557 120.977 121.469 121.003C121.381 121.029 121.3 121.074 121.23 121.133C121.16 121.192 121.103 121.266 121.063 121.348C121.023 121.42 120.994 121.496 120.976 121.576C120.96 121.648 120.948 121.722 120.941 121.795L120.91 122.084L120.85 122.656C120.789 123.034 120.726 123.41 120.656 123.777C120.656 124.159 120.656 124.538 120.632 124.916C120.561 125.284 120.471 125.648 120.361 126.006C120.239 126.355 120.095 126.697 119.93 127.028C119.791 127.371 119.631 127.705 119.449 128.028C119.229 128.327 118.991 128.613 118.738 128.885C118.502 129.172 118.246 129.442 117.986 129.71C117.752 130.005 117.505 130.293 117.247 130.581C116.927 130.802 116.606 131.024 116.286 131.257C116.012 131.538 115.743 131.828 115.485 132.135C115.209 132.435 114.958 132.757 114.735 133.097C114.547 133.463 114.401 133.85 114.299 134.249C114.122 134.628 113.997 135.029 113.929 135.442C113.933 135.871 114.015 136.296 114.171 136.697C114.288 137.103 114.481 137.483 114.74 137.818C114.972 138.158 115.23 138.459 115.473 138.754C115.747 138.996 116.004 139.256 116.241 139.534C116.422 139.786 116.519 140.089 116.517 140.399C116.522 140.469 116.518 140.539 116.502 140.607C116.493 140.677 116.476 140.746 116.451 140.812C116.392 140.955 116.314 141.089 116.217 141.21C115.981 141.492 115.728 141.76 115.459 142.011C115.134 142.299 114.88 142.659 114.717 143.062C114.641 143.284 114.614 143.52 114.636 143.753C114.658 143.987 114.73 144.213 114.847 144.417C115.055 144.813 115.369 145.142 115.755 145.367C115.951 145.473 116.16 145.553 116.377 145.604C116.588 145.651 116.803 145.677 117.018 145.683C117.428 145.697 117.837 145.664 118.239 145.585C118.637 145.535 119.018 145.463 119.393 145.406C119.762 145.317 120.132 145.234 120.503 145.157C120.869 145.051 121.237 144.949 121.607 144.851C121.984 144.795 122.361 144.745 122.74 144.702C123.12 144.66 123.498 144.621 123.877 144.587C124.258 144.58 124.639 144.58 125.021 144.587C125.4 144.566 125.78 144.551 126.16 144.544C126.54 144.536 126.92 144.524 127.299 144.507C127.679 144.529 128.06 144.558 128.431 144.595C128.807 144.571 129.189 144.549 129.57 144.549C129.944 144.612 130.318 144.686 130.692 144.771C131.067 144.821 131.442 144.887 131.813 144.954C132.177 145.066 132.541 145.181 132.901 145.306C133.271 145.395 133.641 145.489 134.01 145.588L135.116 145.896C135.377 145.97 135.624 146.123 135.917 146.093C135.965 146.093 136.205 146.165 136.25 145.947C136.253 145.924 136.253 145.9 136.25 145.877H136.258L136.279 145.886C136.318 145.908 136.361 145.921 136.405 145.925C136.449 145.929 136.494 145.923 136.536 145.909C136.565 145.892 136.589 145.869 136.608 145.841C136.627 145.813 136.639 145.782 136.643 145.749C136.657 145.683 136.646 145.619 136.646 145.583Z" fill="#E3AEAB"/>
<path d="M130.372 144.676H118.822C116.386 144.676 111.75 146.279 112.693 152.689C112.917 153.621 113.53 154.341 114.401 154.878M133.555 155.282C131.276 155.439 125.847 155.824 122.358 156.107C119.376 156.348 116.285 156.039 114.401 154.878M114.401 154.878C113.164 156.388 111.255 160.255 113.518 163.648C113.906 164.231 114.548 164.72 115.371 165.125M134.851 165.416C132.919 166.941 120.547 167.677 115.371 165.125M115.371 165.125C114.85 165.63 114.174 166.474 113.679 167.494M135.44 173.547C128.534 175.211 121.376 175.641 117.112 174.506M117.112 174.506C115.337 174.034 114.063 173.29 113.518 172.251C112.661 170.616 113.001 168.89 113.679 167.494M117.112 174.506C115.717 176.111 113.764 179.934 117.112 182.385C120.46 184.836 130.726 183.406 135.44 182.385M106.21 162.116C106.436 163.698 108.245 166.988 113.679 167.494" stroke="#E3AEAB" stroke-linecap="round"/>
<path d="M106.564 172.84C106.211 175.589 107.012 181.513 113.046 183.21" stroke="#E3AEAB" stroke-linecap="round"/>
</g>
<defs>
<clipPath id="clip0">
<rect width="205" height="210" fill="white"/>
</clipPath>
</defs>
</svg>
