<svg width="151" height="158" viewBox="0 0 151 158" fill="none" xmlns="http://www.w3.org/2000/svg">
<path d="M104.556 49.6097C105.213 57.1721 103.736 63.755 102.067 71.0207C101.61 73.0371 108.352 73.7141 109.183 72.0493C112.356 65.305 112.648 57.4325 111.757 50.2117C111.445 47.8759 104.351 47.5725 104.556 49.6097Z" fill="#00A5D7"/>
<path d="M129.932 69.5907C125.585 74.7146 120.638 78.6656 115.522 82.9154C113.262 84.7947 119.684 85.6853 121.017 84.8415C126.913 81.4124 132.05 76.2239 136.227 70.8441C137.474 69.3177 131.233 68.0749 129.932 69.5907Z" fill="#00A5D7"/>
<path d="M122.884 99.0704C127.397 100.08 131.836 101.186 136.264 102.345C137.843 102.77 140.531 102.64 141.372 100.921C142.213 99.2034 140.271 97.8184 138.852 97.4249C134.37 96.2553 129.975 95.2136 125.472 94.1507C123.883 93.7787 121.269 93.8129 120.364 95.5737C119.523 97.2918 121.401 98.7196 122.884 99.0704Z" fill="#00A5D7"/>
<circle cx="81.4661" cy="109.285" r="35.3099" fill="#00A5D7"/>
<path d="M22.0131 107.723C22.0131 107.723 13.531 108.326 10.6027 113.861C7.67442 119.396 4.57122 128.365 11.1091 143.367C15.5109 153.467 18.1196 153.421 18.1196 153.421L20.4679 132.602L22.0131 107.723Z" fill="#68D4E7"/>
<path d="M57.1484 107.418L66.0079 112.649C66.0079 112.649 83.3827 127.828 78.5151 137.573C75.7051 143.198 71.5212 141.709 66.0079 140.241C59.7505 138.575 58.9017 128.973 58.9017 128.973L57.1484 107.418Z" fill="#68D4E7"/>
<path d="M21.9336 108.217C21.9336 108.217 15.8039 123.738 16.0048 143.924C16.0915 152.629 18.1151 154.349 18.1151 154.349C18.1151 154.349 25.8526 158.711 40.2223 157.899C54.592 157.088 62.1285 154.653 62.1285 154.653C62.1285 154.653 65.1915 131.961 64.9905 114.614C62.1285 110.762 56.8027 107 56.8027 107L21.9336 108.217Z" fill="#27C1DD"/>
<path d="M77.0893 43.8756C76.9883 43.1712 76.8873 42.3661 76.5844 41.7624C75.5746 39.3472 74.5648 39.0454 72.2424 39.7498C68.9102 40.7561 66.9916 45.4857 66.7897 45.7876C66.5877 45.6869 66.2848 45.6869 65.9819 45.5863C67.0926 41.6617 68.0014 37.7372 68.1024 36.3283C68.4053 33.0075 70.8287 17.108 44.6759 15.6992C18.624 14.2904 9.83904 25.259 9.83904 25.259C9.83904 25.259 10.041 34.6176 10.7478 44.9825C10.4449 44.4794 10.041 43.9762 9.63709 43.4731C8.7283 41.9636 7.51658 40.9573 5.90096 40.3535C3.57851 39.5485 2.56875 39.951 1.55898 42.4668C1.25605 43.1712 1.15508 43.8756 1.0541 44.6806C0.953125 45.385 0.953125 46.1901 0.953125 46.8945C1.0541 50.2153 2.36679 52.8317 4.8912 54.9449C6.50682 56.2531 8.22342 57.1588 10.2429 57.2594C10.6469 57.2594 11.1517 57.2594 11.5556 57.1588C11.6566 58.6682 11.8586 60.1777 12.0605 61.5865C14.4839 81.5113 18.0181 92.2577 22.0572 109.667C22.1581 109.767 27.9138 118.019 39.5261 116.61C52.9559 115 56.995 109.164 56.995 108.459C57.1969 106.044 63.4575 70.0394 64.5682 56.1525H64.4672C64.4672 56.1525 64.4672 56.1525 64.5682 56.1525C65.7799 56.4544 66.9916 56.7562 68.1024 56.6556C70.1219 56.4544 71.8385 55.5487 73.4541 54.2405C75.9785 52.1273 77.1902 49.4103 77.2912 46.1901C77.1902 45.385 77.1902 44.58 77.0893 43.8756Z" fill="#F9C8AD"/>
<path d="M52.1305 92.109C51.5221 91.7961 50.759 91.8178 50.0825 92.0854C48.4915 92.6122 47.208 93.8785 45.7071 94.5542C44.2062 95.2299 42.5252 95.6078 40.9444 95.8435C37.4006 96.3501 33.8365 96.0788 30.2741 95.7589C27.8046 95.5261 25.0288 95.1255 26.1379 98.8076C26.9922 101.606 29.3121 104.128 31.7542 105.137C38.8032 108.568 47.1383 107.447 51.2564 100.112C52.2239 98.3484 53.6611 94.2207 53.1875 93.2149C52.9667 92.746 52.6203 92.3163 52.1305 92.109Z" fill="#85322C"/>
<mask id="mask0" mask-type="alpha" maskUnits="userSpaceOnUse" x="25" y="90" width="29" height="18">
<path d="M52.1305 92.109C51.5221 91.7961 50.759 91.8178 50.0825 92.0854C48.4915 92.6122 47.208 93.8785 45.7071 94.5542C44.2062 95.2299 42.5252 95.6078 40.9444 95.8435C37.4006 96.3501 33.8365 96.0788 30.2741 95.7589C27.8046 95.5261 25.0288 95.1255 26.1379 98.8076C26.9922 101.606 29.3121 104.128 31.7542 105.137C38.8032 108.568 47.1383 107.447 51.2564 100.112C52.2239 98.3484 53.6611 94.2207 53.1875 93.2149C52.9667 92.746 52.6203 92.3163 52.1305 92.109Z" fill="#85322C"/>
</mask>
<g mask="url(#mask0)">
<path d="M39.7013 98.6649C44.7187 98.2589 49.2691 96.2334 52.7796 92.617C52.5961 92.4162 52.365 92.2138 52.1305 92.1084C51.5221 91.7955 50.7589 91.8171 50.0824 92.0847C48.4914 92.6116 47.2079 93.8778 45.707 94.5535C44.2061 95.2292 42.5251 95.6071 40.9444 95.8429C37.4005 96.3494 33.6202 95.0412 30.0578 94.7213C28.348 94.5639 26.081 95.7562 25.0814 97.081C29.8554 98.1722 34.7808 99.0258 39.7013 98.6649Z" fill="white"/>
<path opacity="0.68" d="M40.2927 100.993C38.0836 101.325 35.8724 101.715 33.76 102.343C31.9709 102.923 29.9614 103.671 28.6232 105.145C29.3067 105.521 30.0479 105.781 30.68 106.095C38.0218 109.162 47.4904 108.151 52.6087 101.31C48.6269 100.234 44.4948 100.381 40.2927 100.993Z" fill="#E78482"/>
</g>
<path d="M9.69764 52.3307C9.59666 52.3307 9.49569 52.3307 9.39471 52.3307C8.99081 51.3244 8.5869 50.3181 8.28397 49.4125C7.67811 50.1169 7.07226 50.8213 6.4664 51.5257C5.75957 51.1232 5.55761 50.8213 5.96152 50.3181C6.36542 49.815 6.66835 49.3118 7.07226 48.8087C7.47616 48.3055 7.37519 47.903 6.8703 47.7018C6.16347 47.2992 5.35566 47.098 4.64883 46.6955C4.3459 46.5948 4.24492 46.2929 4.04297 46.0917C4.24492 45.991 4.54785 45.6892 4.7498 45.7898C5.55761 46.0917 6.36542 46.3936 7.07226 46.6955C9.19276 47.6011 9.69764 49.5131 9.89959 51.5257C10.0006 51.8276 9.79862 52.1295 9.69764 52.3307Z" fill="#F5CEBB"/>
<path d="M73.2164 46.1906C72.5095 46.5931 71.7017 46.895 70.9949 47.1969C70.49 47.4988 70.389 47.9013 70.7929 48.3038C71.1968 48.807 71.4998 49.3101 71.9037 49.7127C72.3076 50.2158 72.2066 50.4171 71.4998 50.9202C70.8939 50.2158 70.2881 49.5114 69.6822 48.807C69.3793 49.7127 68.9754 50.8196 68.5715 51.8259C68.4705 51.8259 68.3695 51.8259 68.2685 51.8259C68.1676 51.6246 67.9656 51.3227 68.0666 51.1215C68.1676 49.1089 68.7734 47.1969 70.7929 46.1906C71.4998 45.7881 72.3076 45.4862 73.1154 45.1843C73.3174 45.0837 73.6203 45.3856 73.8222 45.4862C73.6203 45.7881 73.5193 46.09 73.2164 46.1906Z" fill="#F3A579"/>
<path fill-rule="evenodd" clip-rule="evenodd" d="M6.57187 51.5247C7.17773 50.8203 7.78358 50.1159 8.38944 49.4114C8.79335 50.3171 9.09627 51.3234 9.50018 52.3297C9.60116 52.3297 9.70213 52.3297 9.80311 52.3297C9.90408 52.1285 10.0051 51.8266 10.0051 51.6253C9.80311 49.6127 9.19725 47.7007 7.17773 46.7951C6.36992 46.4932 5.66308 46.0907 4.85527 45.8894C4.65332 45.7888 4.35039 46.0907 4.14844 46.1913C4.35039 46.3925 4.55234 46.6944 4.75429 46.7951C5.46113 47.1976 6.26894 47.3988 6.97577 47.8014C7.48065 48.0026 7.58163 48.4051 7.17773 48.9083C6.77382 49.4114 6.47089 49.9146 6.06699 50.4178C5.66308 50.9209 5.76406 51.1222 6.57187 51.5247Z" fill="#F3A579"/>
<path d="M31.915 46.4381C31.915 46.4381 27.9769 39.9978 22.7261 41.4066C17.4754 42.8154 13.2344 49.8595 13.2344 49.8595C13.2344 49.8595 25.8564 41.6078 31.915 46.4381Z" fill="#FEE16C"/>
<path d="M44.0312 46.3368C44.0312 46.3368 47.4644 39.8965 52.3113 41.2047C57.1582 42.5128 61.0962 49.557 61.0962 49.557C61.0962 49.557 49.383 41.4059 44.0312 46.3368Z" fill="#FEE16C"/>
<path fill-rule="evenodd" clip-rule="evenodd" d="M1.9277 33.7134C1.22087 29.1851 -0.577182 26.0069 0.312081 21.1347C1.79058 13.0341 5.82803 5.67158 14.0449 5.1345C17.5753 4.90374 22.8298 7.34836 22.8298 7.34836C21.1961 5.1345 22.8298 1.71023 31.4092 0.49278C39.9886 -0.724669 49.9417 -0.252046 58.4744 8.55592C63.6536 13.9021 69.1813 24.0802 82.146 24.0802C78.5908 38.736 68.8686 36.4869 66.2496 48.6067C65.4586 44.6854 65.6438 38.6443 59.6862 31.4996C49.8915 19.7259 34.4421 19.0214 30.706 19.8265C19.3966 22.3422 15.3576 26.8706 15.3576 26.8706L8.89507 35.8267L11.5205 47.0972L8.59214 46.1916C6.97652 42.1664 3.03844 39.2481 3.03844 39.2481L2.53356 37.3361C2.53356 37.3361 2.43258 36.7323 2.33161 35.8267C2.12965 35.2229 2.02868 34.4179 1.9277 33.7134Z" fill="#FED065"/>
<path fill-rule="evenodd" clip-rule="evenodd" d="M8.58808 46.192L11.5164 47.0976C11.5164 47.0976 10.8096 42.1668 11.3144 37.0346C11.9203 30.6949 15.3535 26.9716 15.3535 26.9716C15.3535 26.9716 19.2916 22.3427 30.6009 19.8269C34.337 19.0219 49.7864 19.8269 59.5811 31.5C65.5387 38.6447 65.5993 43.2348 66.1446 48.6071C68.0661 39.462 72.2742 41.0581 79.3845 31.1183C79.3845 31.1183 69.7548 33.5667 60.9948 24.2546C55.9106 18.8501 54.5323 17.7137 44.1317 15.4998C33.7312 13.2859 18.9886 19.2231 15.1515 26.871C14.6467 27.9779 10.5066 32.305 6.97245 29.8899C3.23633 27.3742 0.021629 21.1215 0.021629 21.1215C0.021629 21.1215 -0.452084 30.6583 3.03438 39.2485C4.85195 44.8838 8.58808 46.192 8.58808 46.192Z" fill="#F5BA66"/>
<path d="M38.3646 84.4672C36.3064 84.5751 33.5983 83.3876 32.2984 82.0922C30.5652 80.257 29.9561 78.2871 31.7976 78.2871C31.4931 79.5029 33.2673 81.6604 34.0255 82.0922C36.842 83.6036 38.9891 83.8588 41.4709 82.5925C41.4709 83.7828 40.4228 84.3592 38.3646 84.4672Z" fill="#F3A579"/>
<path d="M24.1934 51.0813C28.8725 50.8593 32.9945 54.7451 33.2173 59.7413C33.4401 64.7374 29.8751 69.0673 25.0846 69.2894C20.4055 69.5114 16.2835 65.6256 16.0607 60.6295C15.8379 55.6333 19.4029 51.3034 24.1934 51.0813Z" fill="white"/>
<path d="M28.9647 61.1126C28.4077 63.111 26.4023 64.2213 24.5084 63.6662C22.6145 63.111 21.6118 61.1126 22.1689 59.1141C22.7259 57.1157 24.7312 56.0055 26.6251 56.5606C28.4077 57.2267 29.5217 59.2252 28.9647 61.1126Z" fill="#00A5D7"/>
<path d="M28.2841 57.2223C28.4747 56.2598 27.8463 55.3256 26.8804 55.1356C25.9146 54.9457 24.9771 55.572 24.7865 56.5345C24.5959 57.4971 25.2244 58.4313 26.1902 58.6213C27.1561 58.8112 28.0935 58.1849 28.2841 57.2223Z" fill="white"/>
<path d="M59.1035 60.2968C58.9921 65.2929 54.9814 69.2898 50.1909 69.1788C45.5119 69.0677 41.724 64.8488 41.9469 59.7417C42.0583 54.7455 46.0689 50.7487 50.8594 50.8597C55.5385 50.9707 59.2149 55.1896 59.1035 60.2968Z" fill="white"/>
<path d="M49.8299 56.3337C51.7238 55.7785 53.7292 56.7778 54.2862 58.7762C54.9546 60.6636 53.952 62.7731 52.0581 63.3282C50.1641 63.8833 48.1588 62.8841 47.6018 60.8857C46.9333 58.9982 47.936 56.9998 49.8299 56.3337Z" fill="#00A5D7"/>
<path d="M52.7514 58.4063C53.7135 58.1984 54.3243 57.2526 54.1157 56.2938C53.9071 55.335 52.9581 54.7262 51.9959 54.9341C51.0338 55.142 50.423 56.0878 50.6316 57.0466C50.8402 58.0054 51.7893 58.6142 52.7514 58.4063Z" fill="white"/>
<path d="M22.5013 52.999C26.512 52.4439 31.0013 53.999 32.3306 56.2985C30.8823 53.0788 27.7629 50.9693 24.1979 51.0804C20.8557 51.3024 17.9403 53.3448 16.7148 56.4535C17.7538 54.5669 20.1618 53.2211 22.5013 52.999Z" fill="#F3A579"/>
<path d="M52.096 52.6172C48.0854 52.1731 44.763 53.6501 42.7266 56.1886C44.1748 52.9689 47.2942 50.7484 50.7478 50.8595C54.09 50.9705 56.9707 52.9836 58.3076 55.9813C57.2601 54.3583 54.4355 52.8393 52.096 52.6172Z" fill="#F3A579"/>
<path d="M59.5681 12.4404C53.6657 10.0793 45.9852 11.4566 42.8828 12.4404C46.4204 16.7158 55.2323 25.1418 62.1789 24.6423C70.8621 24.0181 76.4807 16.9807 75.0619 12.8944C72.054 15.8456 66.9462 15.3917 59.5681 12.4404Z" fill="#FED065"/>
<path d="M56.8359 10.4531C59.2385 12.9881 66.2116 17.0253 74.8833 12.8935C72.9535 17.0364 58.9929 17.7176 56.8359 10.4531Z" fill="#F5BA66"/>
<path d="M57.121 125.902C56.7152 112.587 60.9518 111.627 64.2199 111.622C86.4237 120.449 79.24 139.919 73.9419 142.785C68.6439 145.652 57.6282 142.547 57.121 125.902Z" fill="#68D4E7"/>
<path d="M93.1959 128.4L93.2822 128.261C93.3193 128.195 93.3577 128.131 93.3912 128.064C93.4589 127.931 93.5197 127.796 93.5734 127.657C93.7103 127.346 93.8257 127.026 93.9186 126.698C94.0097 126.381 94.1056 126.066 94.1859 125.734C94.2534 125.392 94.2851 125.044 94.2806 124.696C94.2766 124.519 94.2606 124.344 94.2326 124.169L94.2099 124.04C94.1995 123.99 94.1858 123.941 94.1691 123.893L94.0852 123.653C93.9905 123.33 93.8887 123.015 93.776 122.694C93.7197 122.536 93.6561 122.378 93.5914 122.215C93.5528 122.12 93.505 122.028 93.4488 121.943C93.4352 121.923 93.42 121.904 93.4032 121.887C93.3937 121.896 93.3841 121.902 93.3877 121.887L93.4464 121.774L93.6633 121.294C93.9261 120.651 94.0726 119.966 94.096 119.272C94.1195 118.578 94.018 117.886 93.7964 117.227C93.5828 116.564 93.2457 115.947 92.8028 115.409C92.7464 115.343 92.6829 115.289 92.6194 115.223C92.5762 115.18 92.5906 115.198 92.581 115.191L92.5654 115.183C92.5559 115.171 92.5367 115.183 92.5175 115.183C92.4983 115.183 92.5175 115.171 92.5247 115.162L92.5535 115.125L92.5631 115.113L92.6074 115.072L92.7009 114.984C92.8207 114.864 92.9406 114.744 93.0604 114.604C93.5535 114.086 93.8833 113.434 94.0085 112.73C94.0859 112.023 93.9811 111.308 93.7041 110.653C93.4213 110.008 92.97 109.451 92.3977 109.04C92.3461 109.001 92.2934 108.957 92.243 108.92L92.1675 108.865L92.068 108.798L92.0824 108.806C91.6688 108.526 91.2269 108.29 90.764 108.102H90.7556L90.6214 108.049C89.9886 107.819 89.3605 107.628 88.7265 107.436L86.8232 106.85C86.1868 106.683 85.5575 106.509 84.9259 106.323C84.2942 106.137 83.6458 105.978 83.0202 105.793C82.4093 105.598 81.8216 105.336 81.2679 105.012C80.7187 104.725 80.2495 104.305 79.9027 103.792C79.6047 103.243 79.4304 102.636 79.3922 102.013C79.3037 101.38 79.2957 100.738 79.3682 100.103C79.488 99.4637 79.6594 98.8404 79.8416 98.2052C79.9818 97.5604 80.1185 96.9132 80.2347 96.26C80.3977 95.6163 80.5452 94.9655 80.647 94.3015C80.684 93.6298 80.6688 92.9562 80.6015 92.2867C80.5819 91.6125 80.4883 90.9425 80.3222 90.2888C80.1401 89.6379 79.9531 88.9799 79.6163 88.3711C79.2537 87.7765 78.7761 87.2603 78.2116 86.8525C77.649 86.4087 76.9575 86.1597 76.2412 86.143C75.8845 86.1377 75.5291 86.1854 75.1864 86.2844L74.9311 86.3599L74.6914 86.4594C74.5255 86.5201 74.3651 86.5951 74.212 86.6835C73.6167 87.0645 73.1328 87.5963 72.8097 88.2249C72.4733 88.8218 72.2479 89.4748 72.1445 90.1521C72.0298 90.8127 71.9653 91.481 71.9515 92.1513C71.9587 92.8165 71.9839 93.4697 72.0079 94.1337L71.9803 96.1065C71.9803 96.7621 71.9743 97.4166 71.9455 98.0674C71.9455 98.7206 71.9312 99.3726 71.8772 100.022C71.7591 100.661 71.603 101.291 71.4098 101.911C71.2566 102.539 71.0677 103.158 70.8441 103.765C70.6104 104.372 70.3419 104.964 70.071 105.563L69.3243 107.387C69.0223 107.975 68.725 108.57 68.4554 109.178C68.2322 109.809 68.0422 110.452 67.886 111.103L67.7542 111.582C67.7111 111.744 67.6811 111.909 67.6439 112.072C67.5694 112.402 67.5157 112.737 67.4833 113.073C67.4042 113.744 67.3898 114.413 67.3743 115.071C67.4081 115.719 67.4081 116.368 67.3743 117.015C67.3125 117.64 67.1409 118.248 66.8673 118.813C66.5902 119.396 66.2734 119.959 65.9192 120.498C65.5561 121.065 65.2414 121.662 64.9784 122.282C64.851 122.6 64.7519 122.928 64.6823 123.263C64.6488 123.428 64.6092 123.589 64.5792 123.754L64.4953 124.249C64.3926 124.91 64.3381 125.578 64.3323 126.248C64.3149 126.918 64.3518 127.589 64.4426 128.254C64.5464 128.916 64.6945 129.57 64.8861 130.211C65.0743 130.85 65.296 131.479 65.5501 132.094C65.6699 132.399 65.7694 132.716 65.9096 133.029C66.0433 133.343 66.1962 133.648 66.3675 133.942C66.7247 134.527 67.15 135.068 67.6344 135.553C68.1317 136.016 68.684 136.416 69.2788 136.745C69.8544 137.105 70.4794 137.379 71.1341 137.56C71.7905 137.744 72.471 137.828 73.1525 137.809C73.8464 137.806 74.5332 137.67 75.1756 137.407C75.3961 137.304 75.6081 137.184 75.8097 137.048L75.9619 136.946L76.1045 136.826L76.246 136.706C76.2639 136.694 76.246 136.696 76.2519 136.688L76.2424 136.662C76.2424 136.662 76.2531 136.674 76.2579 136.678L76.2759 136.69L76.3958 136.754C76.5619 136.84 76.7378 136.905 76.9195 136.948C77.2663 137.028 77.6228 137.057 77.9779 137.035C78.3206 137.035 78.6634 136.992 78.9787 136.97C79.2978 136.948 79.6178 136.943 79.9375 136.954C80.5799 136.923 81.2355 136.944 81.8959 136.954C82.5585 137.029 83.2248 137.064 83.8915 137.061C84.5566 137.026 85.2195 136.957 85.8775 136.854C86.5379 136.787 87.1959 136.692 87.8467 136.597C88.4952 136.477 89.1376 136.349 89.7848 136.238C90.432 136.126 91.1164 136.023 91.7516 135.671C92.1915 135.431 92.605 135.085 92.8195 134.641C92.8615 134.573 93.0988 134.211 92.9514 134.132C92.935 134.123 92.917 134.119 92.8986 134.119L92.9058 134.107L92.9202 134.116C92.9535 134.136 92.9918 134.146 93.0305 134.144C93.0692 134.143 93.1067 134.13 93.1384 134.108C93.2762 134.013 93.3265 133.773 93.3565 133.693C93.3565 133.693 93.4764 133.385 93.5758 133.071C93.6753 132.757 93.7556 132.439 93.7556 132.439C93.9427 131.789 94.0502 131.118 94.0756 130.441C94.098 130.088 94.0648 129.733 93.9773 129.389C93.925 129.204 93.8441 129.028 93.7376 128.868C93.6764 128.785 93.6065 128.71 93.5291 128.642C93.4928 128.607 93.4526 128.575 93.4092 128.548L93.3433 128.506C93.3205 128.491 93.2954 128.476 93.2942 128.476L93.2354 128.455H93.2103C93.1962 128.458 93.1826 128.462 93.1695 128.467C93.1695 128.467 93.1479 128.476 93.1527 128.467L93.1623 128.457C93.1748 128.439 93.186 128.42 93.1959 128.4ZM90.746 108.106L90.6609 108.091C90.6901 108.09 90.7191 108.095 90.746 108.106Z" fill="#F9C8AD"/>
<path opacity="0.3" d="M79.3524 135.868C79.324 135.76 79.2838 135.657 79.2326 135.558C79.1913 135.468 79.1437 135.381 79.0899 135.297L78.9916 135.041L78.849 134.844L78.7483 134.645C78.74 134.566 78.7364 134.487 78.7304 134.411C78.6968 134.347 78.668 134.278 78.6357 134.212C78.5698 134.156 78.5158 134.093 78.4523 134.029C78.4319 133.955 78.4271 133.877 78.4127 133.801C78.3984 133.726 78.3948 133.649 78.3864 133.572C78.4032 133.493 78.4295 133.415 78.4535 133.34C78.4492 133.264 78.4492 133.189 78.4535 133.113C78.4434 133.037 78.4382 132.961 78.4379 132.884C78.4622 132.811 78.4906 132.738 78.523 132.667C78.4854 132.584 78.4534 132.498 78.4271 132.411C78.4643 132.339 78.499 132.268 78.5398 132.201C78.5456 132.121 78.556 132.041 78.571 131.962C78.6225 131.899 78.6656 131.833 78.7196 131.775C78.7447 131.701 78.7675 131.626 78.7975 131.554C78.8274 131.482 78.8586 131.409 78.8946 131.339C78.9221 131.29 78.9952 131.28 78.9677 131.186C78.9677 131.17 79.0012 131.138 78.8814 131.039L78.8418 131.009L78.8994 131.036L78.9149 131.055C78.9634 131.128 79.0294 131.187 79.1067 131.227C79.1164 131.232 79.1271 131.236 79.1382 131.237C79.1492 131.238 79.1604 131.237 79.171 131.234C79.1817 131.23 79.1915 131.225 79.2 131.218C79.2085 131.211 79.2155 131.202 79.2206 131.192C79.2317 131.165 79.2393 131.137 79.2433 131.108C79.2537 131.085 79.2617 131.06 79.2673 131.035C79.2788 130.986 79.2829 130.935 79.2793 130.884C79.2754 130.82 79.2574 130.758 79.2266 130.702C79.1928 130.608 79.1344 130.525 79.0576 130.462C78.9936 130.413 78.9213 130.376 78.8442 130.353C78.7344 130.295 78.6197 130.246 78.5014 130.207C78.4427 130.222 78.3816 130.24 78.3288 130.257C78.3969 130.157 78.4423 130.043 78.4619 129.923C78.5057 129.786 78.5211 129.642 78.5074 129.498C78.4727 129.379 78.4319 129.286 78.402 129.204L78.2821 128.964L78.2342 128.694C78.1586 128.625 78.0855 128.554 78.0148 128.481C78.0028 128.39 77.9789 128.304 77.9693 128.214C77.9321 128.131 77.8986 128.047 77.8662 127.963C77.8662 127.872 77.8662 127.782 77.8734 127.692L77.8111 127.436C77.7895 127.349 77.7727 127.263 77.7595 127.174C77.7595 127.112 77.7799 127.055 77.7128 126.986C77.702 126.976 77.7032 126.919 77.5929 126.913H77.557H77.5821C77.6688 126.918 77.7556 126.918 77.8422 126.913C77.9621 126.907 77.8938 126.878 77.8938 126.869C77.8938 126.859 77.8938 126.834 77.901 126.799C77.9023 126.775 77.9023 126.751 77.901 126.726C77.9213 126.654 77.9513 126.581 77.9801 126.507C78.0436 126.446 78.1095 126.387 78.1802 126.332C78.1958 126.248 78.2186 126.161 78.2425 126.073L78.4631 125.89L78.5458 125.603C78.6389 125.537 78.7274 125.465 78.8107 125.387C78.8545 125.269 78.887 125.146 78.9077 125.021C78.9461 124.863 78.949 124.7 78.9161 124.541C78.8812 124.395 78.8122 124.258 78.7148 124.143C78.7589 124.082 78.7971 124.017 78.8286 123.949C78.8911 123.786 78.9117 123.61 78.8886 123.436C78.8917 123.286 78.8739 123.137 78.8358 122.992C78.7411 122.886 78.6513 122.811 78.5662 122.728C78.541 122.621 78.5182 122.515 78.4966 122.408L78.3456 122.118L78.3085 121.792C78.2641 121.692 78.2234 121.592 78.1886 121.49C78.1539 121.388 78.1131 121.285 78.0795 121.181C78.0592 121.106 78.0795 121.025 77.9944 120.961C77.9813 120.95 77.9729 120.882 77.8446 120.902L77.8051 120.912H77.8326C77.9288 120.899 78.0238 120.879 78.1167 120.851C78.2366 120.811 78.1503 120.787 78.1455 120.774L78.0724 120.572C78.0628 120.466 78.0568 120.361 78.052 120.255C78.0831 120.149 78.1175 120.045 78.1551 119.944C78.1335 119.842 78.1131 119.737 78.0987 119.633C78.1383 119.534 78.1838 119.438 78.2306 119.346C78.221 119.243 78.2158 119.141 78.215 119.038C78.2829 118.974 78.3541 118.914 78.4283 118.858C78.4607 118.768 78.4978 118.673 78.5422 118.571L78.7052 118.274C78.7603 118.17 78.8155 118.061 78.867 117.942C78.9402 117.818 78.9993 117.686 79.0432 117.549C79.0388 117.369 78.9937 117.193 78.9113 117.034C78.9267 116.844 78.892 116.655 78.8107 116.483C78.8885 116.32 78.9228 116.139 78.9101 115.958C78.9351 115.799 78.9311 115.637 78.8982 115.479C78.8498 115.354 78.7891 115.233 78.7172 115.119C78.6441 115.015 78.5674 114.923 78.4931 114.834L78.3049 114.572C78.2509 114.482 78.1958 114.392 78.1455 114.298C78.0951 114.205 78.0795 114.097 78.0484 113.996C78.0172 113.896 77.9573 113.808 77.9165 113.711C77.8758 113.614 77.8494 113.513 77.8195 113.413C77.8099 113.306 77.8035 113.201 77.8003 113.095C77.7703 112.997 77.7404 112.899 77.7176 112.798C77.6613 112.704 77.6097 112.607 77.5582 112.508C77.5486 112.404 77.5366 112.299 77.5342 112.195C77.5318 112.091 77.527 111.986 77.5258 111.882C77.5534 111.778 77.5774 111.676 77.6109 111.575C77.6109 111.473 77.6289 111.372 77.6409 111.27C77.6529 111.168 77.6541 111.064 77.6672 110.962C77.7032 110.865 77.7463 110.77 77.7871 110.676C77.7751 110.566 77.7631 110.453 77.7607 110.34C77.8111 110.246 77.8638 110.155 77.9189 110.066C77.9489 109.966 77.9849 109.866 78.0244 109.768C78.0939 109.688 78.161 109.606 78.2342 109.528C78.2821 109.436 78.3372 109.347 78.3924 109.259C78.4391 109.193 78.4847 109.127 78.535 109.062C78.5472 109.052 78.5566 109.039 78.5626 109.025L78.5781 109.004C78.6237 108.944 78.71 108.929 78.7172 108.829C78.7172 108.813 78.7735 108.775 78.6824 108.671L78.6513 108.64L78.6357 108.626L78.6057 108.599C78.6058 108.534 78.5998 108.468 78.5877 108.404C78.5638 108.294 78.523 108.361 78.5086 108.361C78.4942 108.361 78.2821 108.374 78.2821 108.381C78.1661 108.378 78.05 108.383 77.9345 108.394C77.8147 108.372 77.6948 108.349 77.575 108.332C77.4623 108.372 77.3508 108.415 77.2418 108.461C77.1219 108.451 77.0021 108.451 76.8822 108.447C76.7743 108.499 76.6688 108.559 76.5634 108.614C76.4435 108.608 76.3153 108.601 76.1894 108.598C76.0828 108.651 75.9749 108.699 75.8706 108.756C75.7663 108.814 75.6537 108.847 75.5482 108.899C75.4427 108.95 75.3373 109.003 75.2342 109.06C75.1311 109.116 75.016 109.151 74.9082 109.197C74.8279 109.294 74.7524 109.399 74.6781 109.497C74.551 109.513 74.4228 109.531 74.2921 109.552C74.2166 109.653 74.1411 109.744 74.068 109.849C73.9801 109.929 73.8966 110.016 73.8175 110.109C73.7156 110.174 73.6221 110.25 73.5226 110.322C73.4435 110.413 73.3584 110.498 73.2829 110.595C73.1906 110.675 73.102 110.761 73.0169 110.85C72.9641 110.963 72.9222 111.082 72.879 111.197C72.8359 111.312 72.7879 111.423 72.7592 111.542C72.6773 111.638 72.6005 111.738 72.5291 111.843C72.5099 111.962 72.4967 112.094 72.4895 112.219C72.4296 112.332 72.3768 112.449 72.3313 112.569C72.3559 112.699 72.3879 112.827 72.4272 112.954C72.3856 113.078 72.3516 113.204 72.3253 113.332C72.361 113.455 72.4054 113.575 72.4583 113.692C72.4334 113.825 72.4158 113.959 72.4056 114.093C72.5004 114.192 72.6004 114.285 72.7052 114.373C72.7364 114.493 72.77 114.603 72.8083 114.714C72.8191 114.834 72.8347 114.964 72.8515 115.088C72.9414 115.172 73.0324 115.251 73.1235 115.328C73.1739 115.43 73.2206 115.529 73.2781 115.637C73.3172 115.764 73.3661 115.888 73.4244 116.008C73.5574 116.082 73.6986 116.142 73.8451 116.185L73.8762 116.209C73.8199 116.209 73.7564 116.209 73.7036 116.209C73.61 116.314 73.5231 116.425 73.4435 116.541C73.3256 116.588 73.2108 116.642 73.0996 116.703C72.9657 116.743 72.8351 116.794 72.7088 116.854C72.6401 116.976 72.5804 117.103 72.5303 117.234C72.4424 117.335 72.3623 117.443 72.2905 117.556C72.1992 117.66 72.1166 117.771 72.0436 117.888C72.0533 118.031 72.075 118.172 72.1084 118.311C72.0782 118.432 72.055 118.555 72.0388 118.679C72.0089 118.799 71.9801 118.919 71.9609 119.047C71.9825 119.167 72.0149 119.287 72.046 119.407C72.0269 119.527 72.0089 119.646 71.9969 119.773C72.0101 119.893 72.0257 120.013 72.0448 120.126C72.1144 120.232 72.1851 120.334 72.257 120.435L72.1551 120.813L72.2869 121.131C72.3085 121.245 72.3321 121.359 72.3577 121.475C72.4344 121.576 72.5123 121.677 72.5974 121.774C72.5934 121.907 72.5966 122.039 72.607 122.172C72.7007 122.269 72.7999 122.361 72.9042 122.447C72.9602 122.566 73.0251 122.68 73.0984 122.789C73.1623 122.915 73.2368 123.035 73.3213 123.149C73.4417 123.214 73.5672 123.269 73.6964 123.314C73.7959 123.398 73.8978 123.473 74.0009 123.544C74.1207 123.59 74.2298 123.63 74.3401 123.664L74.6769 123.742L74.9969 123.845L75.0484 123.864L74.7596 123.834C74.6709 123.895 74.5822 123.96 74.4959 124.026C74.3904 124.014 74.2825 124.004 74.1699 124.001C74.0788 124.059 73.9889 124.121 73.9026 124.188C73.7824 124.184 73.6621 124.191 73.543 124.208C73.4751 124.318 73.4178 124.435 73.3716 124.556C73.2753 124.617 73.185 124.687 73.102 124.765C72.9939 124.828 72.8916 124.9 72.7963 124.98C72.7723 125.098 72.7583 125.219 72.7544 125.339C72.7086 125.437 72.6685 125.538 72.6345 125.64C72.5775 125.738 72.5259 125.838 72.4799 125.941C72.5183 126.055 72.564 126.167 72.6165 126.276C72.6034 126.379 72.5998 126.482 72.5962 126.586C72.5926 126.69 72.565 126.796 72.5602 126.902C72.5938 127.004 72.6357 127.101 72.6801 127.197C72.6801 127.303 72.6693 127.412 72.6717 127.52C72.6968 127.622 72.7304 127.72 72.7628 127.819C72.8443 127.9 72.9282 127.975 73.0145 128.045C73.0037 128.164 72.9977 128.284 72.9989 128.404C73.0648 128.488 73.1343 128.567 73.205 128.644C73.2578 128.733 73.3105 128.825 73.3704 128.909C73.4663 128.965 73.5658 129.014 73.6617 129.062C73.6952 129.166 73.73 129.274 73.7719 129.379C73.8738 129.422 73.9781 129.458 74.08 129.498C74.1471 129.574 74.2142 129.648 74.2861 129.72C74.358 129.792 74.406 129.889 74.4755 129.973C74.5746 130.007 74.6737 130.039 74.7727 130.068C74.8482 130.135 74.925 130.202 75.0029 130.266C75.094 130.306 75.1874 130.345 75.2797 130.385C75.372 130.426 75.4727 130.441 75.571 130.462C75.6693 130.484 75.758 130.524 75.8502 130.553C75.9425 130.582 76.036 130.618 76.1307 130.648C76.1691 130.669 76.211 130.687 76.2506 130.708C76.2186 130.748 76.1874 130.788 76.1571 130.828C76.0453 130.821 75.9332 130.821 75.8215 130.828C75.755 130.911 75.6938 130.998 75.6381 131.089C75.5689 131.159 75.5037 131.233 75.4427 131.311C75.3598 131.366 75.2798 131.426 75.203 131.49C75.141 131.567 75.083 131.647 75.0292 131.73C74.9597 131.801 74.8914 131.874 74.8291 131.951C74.8034 132.047 74.7826 132.145 74.7667 132.243C74.744 132.338 74.7248 132.431 74.7116 132.526C74.6517 132.605 74.5918 132.688 74.5426 132.773C74.5426 132.872 74.5486 132.971 74.5594 133.067C74.5163 133.155 74.4779 133.246 74.4395 133.34C74.4746 133.438 74.5146 133.534 74.5594 133.627C74.521 133.721 74.4887 133.816 74.4575 133.913C74.4911 134.005 74.5286 134.094 74.5702 134.181C74.5342 134.281 74.5019 134.383 74.4731 134.487C74.5534 134.566 74.6361 134.64 74.7212 134.711C74.7332 134.802 74.7452 134.894 74.7632 134.985C74.7524 135.087 74.7464 135.189 74.7428 135.293C74.8159 135.363 74.889 135.431 74.9657 135.495C74.9981 135.581 75.034 135.665 75.0712 135.749C75.0904 135.844 75.1095 135.939 75.1335 136.033C75.2306 136.081 75.3301 136.123 75.4272 136.164C75.4751 136.24 75.5218 136.316 75.5746 136.39C75.6273 136.464 75.6561 136.559 75.7016 136.643C75.7795 136.698 75.8598 136.75 75.9413 136.799C75.9857 136.885 76.0348 136.97 76.0888 137.057C76.1607 137.121 76.2338 137.185 76.3117 137.245C76.4176 137.263 76.5244 137.275 76.6317 137.282C76.686 137.386 76.749 137.485 76.8199 137.578C76.9226 137.605 77.0271 137.625 77.1327 137.637C77.2329 137.673 77.3359 137.702 77.4407 137.723C77.5541 137.695 77.6648 137.657 77.7715 137.609C77.8846 137.65 78.0014 137.68 78.1203 137.698C78.2158 137.63 78.3048 137.554 78.3864 137.47C78.4887 137.439 78.5881 137.399 78.6836 137.35C78.794 137.316 78.9005 137.269 79.0012 137.212C79.0337 137.163 79.0625 137.111 79.0875 137.058C79.1147 137.006 79.1379 136.952 79.157 136.896C79.2402 136.809 79.3115 136.712 79.3692 136.607C79.4508 136.37 79.447 136.111 79.3584 135.876L79.3524 135.868Z" fill="#F3A579"/>
<path opacity="0.3" d="M90.8942 108.911C90.8979 108.871 90.8947 108.83 90.8846 108.791C90.8774 108.755 90.8703 108.713 90.8595 108.671L90.8055 108.545C90.7679 108.474 90.7229 108.406 90.6713 108.344L90.6006 108.269C90.38 108.046 90.1209 107.865 89.8359 107.734C89.5785 107.583 89.3119 107.449 89.0377 107.331C88.7536 107.249 88.4696 107.178 88.1855 107.114C87.9106 107.018 87.6342 106.926 87.3561 106.84C87.0696 106.788 86.7844 106.743 86.4991 106.699L85.6721 106.429L85.2574 106.347C85.1208 106.32 85.0081 106.287 84.8583 106.245C84.5791 106.158 84.2998 106.081 84.0193 106.006L83.1935 105.773C82.9235 105.685 82.6578 105.591 82.3965 105.489C82.1232 105.422 81.8547 105.342 81.5911 105.249C81.4712 105.168 81.3585 105.094 81.2507 105.01C81.1428 104.926 81.0349 104.84 80.9366 104.747C80.8264 104.674 80.7065 104.608 80.5999 104.528C80.4932 104.448 80.3841 104.367 80.2882 104.274C80.1924 104.18 80.1037 104.078 80.0258 103.971C79.9478 103.863 79.8675 103.754 79.8016 103.636L79.6434 103.265L79.5319 102.875C79.4572 102.611 79.4031 102.342 79.3701 102.07C79.3507 101.795 79.3483 101.519 79.3629 101.244C79.3522 100.968 79.3558 100.689 79.3713 100.405C79.3869 100.121 79.4277 99.8452 79.4696 99.5659C79.5415 99.2915 79.623 99.0182 79.7093 98.7461C79.7597 98.4645 79.8148 98.1864 79.8723 97.9071L80.1456 97.0873C80.1924 96.8009 80.2367 96.5144 80.2774 96.2268C80.3685 95.9511 80.4548 95.673 80.5363 95.3878C80.5771 95.0989 80.6106 94.8077 80.6334 94.5164C80.7053 94.2312 80.7677 93.9411 80.8144 93.6463C80.792 93.3474 80.7519 93.05 80.6945 92.7558C80.6945 92.6071 80.673 92.4585 80.6622 92.3099C80.6514 92.1613 80.6154 92.0139 80.5927 91.8652C80.5519 91.5546 80.4713 91.2504 80.353 90.9603C80.3066 90.8878 80.2524 90.8207 80.1912 90.7602C80.1583 90.7273 80.1235 90.6965 80.0869 90.6679C80.0402 90.632 79.9905 90.6003 79.9383 90.5732C79.8795 90.5376 79.8139 90.5148 79.7457 90.506C79.6776 90.4972 79.6084 90.5028 79.5425 90.5223C79.4766 90.5418 79.4155 90.5749 79.3631 90.6193C79.3108 90.6638 79.2682 90.7187 79.2383 90.7805C79.2086 90.8338 79.1868 90.8912 79.1736 90.9507C79.1613 91.0049 79.1525 91.0597 79.1472 91.1149L79.1244 91.3307L79.0789 91.7586C79.0333 92.0414 78.9866 92.3231 78.9339 92.5976C78.9339 92.8828 78.9339 93.1669 78.9159 93.4497C78.8634 93.7249 78.7958 93.997 78.7133 94.2647C78.6221 94.5262 78.5144 94.7816 78.3909 95.0294C78.2873 95.2862 78.1672 95.536 78.0314 95.7773C77.8668 96.0014 77.6891 96.2155 77.4992 96.4185C77.323 96.6331 77.1312 96.8356 76.9371 97.0358C76.7621 97.2563 76.5775 97.4721 76.3845 97.6878C76.1448 97.8532 75.9051 98.0186 75.6654 98.1936C75.4605 98.4033 75.2591 98.6203 75.0661 98.8504C74.8601 99.0746 74.6725 99.3151 74.5052 99.5695C74.3649 99.8438 74.2556 100.133 74.1792 100.431C74.0466 100.715 73.9534 101.015 73.9023 101.324C73.9057 101.645 73.967 101.963 74.0833 102.263C74.171 102.567 74.3154 102.851 74.5088 103.102C74.6826 103.356 74.8756 103.581 75.0578 103.802C75.2625 103.983 75.4544 104.178 75.6319 104.385C75.7676 104.574 75.8398 104.8 75.838 105.033C75.8424 105.085 75.8387 105.137 75.8272 105.188C75.8202 105.241 75.8073 105.292 75.7889 105.342C75.7451 105.449 75.6861 105.549 75.6139 105.639C75.4375 105.85 75.2482 106.05 75.047 106.238C74.8037 106.454 74.6137 106.723 74.492 107.025C74.4353 107.191 74.4146 107.367 74.4314 107.542C74.4481 107.717 74.5019 107.886 74.5891 108.039C74.7445 108.334 74.98 108.581 75.2687 108.749C75.4153 108.829 75.5716 108.888 75.7337 108.927C75.8913 108.961 76.0519 108.981 76.2132 108.985C76.5194 108.996 76.8258 108.971 77.1265 108.912C77.4237 108.875 77.709 108.821 77.9894 108.778C78.2651 108.712 78.5419 108.65 78.82 108.592C79.0933 108.512 79.3685 108.436 79.6458 108.363C79.9271 108.321 80.2095 108.284 80.4932 108.252C80.7768 108.22 81.0601 108.191 81.343 108.166C81.6282 108.16 81.9135 108.16 82.1987 108.166C82.4824 108.15 82.7664 108.139 83.0509 108.133C83.3354 108.128 83.6194 108.118 83.9031 108.106C84.1871 108.122 84.4724 108.144 84.7492 108.172C85.0309 108.154 85.3162 108.137 85.6014 108.137C85.8811 108.184 86.1607 108.239 86.4404 108.303C86.7209 108.341 87.0013 108.39 87.2794 108.44C87.5515 108.524 87.8235 108.61 88.0932 108.704C88.3697 108.77 88.6461 108.84 88.9226 108.915L89.7496 109.145C89.945 109.2 90.1296 109.315 90.3489 109.292C90.3848 109.292 90.5646 109.346 90.5982 109.183C90.6 109.166 90.6 109.148 90.5982 109.13H90.6042L90.6198 109.138C90.6487 109.154 90.6807 109.164 90.7138 109.167C90.7469 109.17 90.7802 109.165 90.8115 109.154C90.8332 109.142 90.8517 109.125 90.8657 109.104C90.8796 109.083 90.8885 109.059 90.8918 109.035C90.9026 108.985 90.8942 108.937 90.8942 108.911Z" fill="#F3A579"/>
<path d="M86.2051 108.23H77.5656C75.7437 108.23 72.2762 109.429 72.9814 114.225C73.1488 114.922 73.6074 115.461 74.2594 115.863M88.5854 116.165C86.881 116.282 82.8199 116.57 80.2105 116.782C77.9806 116.962 75.6683 116.731 74.2594 115.863M74.2594 115.863C73.3339 116.992 71.9061 119.885 73.5987 122.424C73.8891 122.859 74.3687 123.225 74.9846 123.529M89.555 123.746C88.1099 124.887 78.8562 125.437 74.9846 123.529M74.9846 123.529C74.5947 123.907 74.0896 124.538 73.7193 125.301M89.9958 129.829C84.8299 131.074 79.4761 131.396 76.2869 130.547M76.2869 130.547C74.9588 130.193 74.0061 129.637 73.5987 128.859C72.9578 127.636 73.2121 126.345 73.7193 125.301M76.2869 130.547C75.2435 131.747 73.7828 134.607 76.2869 136.441C78.7909 138.274 86.4695 137.205 89.9958 136.441M68.1328 121.278C68.3014 122.461 69.6548 124.922 73.7193 125.301" stroke="#F3A579" stroke-linecap="round"/>
<path d="M68.3926 129.303C68.1281 131.36 68.7274 135.791 73.2411 137.061" stroke="#F3A579" stroke-linecap="round"/>
</svg>
