<?xml version="1.0" encoding="utf-8"?>
<!-- Generator: Adobe Illustrator 23.0.3, SVG Export Plug-In . SVG Version: 6.00 Build 0)  -->
<svg version="1.1" id="Layer_1" xmlns="http://www.w3.org/2000/svg" xmlns:xlink="http://www.w3.org/1999/xlink" x="0px" y="0px"
	 viewBox="0 0 1366 768" style="enable-background:new 0 0 1366 768;" xml:space="preserve">
<style type="text/css">
	.st0{fill:#00B4E5;}
	.st1{fill:#FFFFFF;}
</style>
<g>
	<path class="st0" d="M1281.08,107.87c-43.44,0-78.63,35.88-78.63,79.47c0,44.93,28.79,74.21,75.41,74.21c1.25,0,1.91,0,3.21,0
		v50.16c49.79-44.93,77.92-80.12,77.92-121.75C1359,143.74,1324.52,107.87,1281.08,107.87z"/>
	<path class="st1" d="M498.6,290.06c-11.31-9.22-34.6-25.72-101.15-25.72c-2.31,0-4.6,0.05-6.87,0.09v-0.11
		c-2.4-0.02-4.72,0.07-7.1,0.07c-66.55,0-89.84,16.49-101.16,25.73c-29.95,24.43-30.62,55.4-30.62,78.47v161.34
		c0,11.89,4.01,13.89,14.65,13.89h53.24c13.31,0,14.63-5.3,14.63-15.18V376.52c0-26.26,0.71-66.81,56.43-67.23v-0.04
		c55.33,0.56,56.04,41,56.04,67.18v151.91c0,9.92,1.32,15.19,14.64,15.19h53.25c10.63,0,14.63-1.98,14.63-13.89V368.52
		C529.2,345.44,528.56,314.48,498.6,290.06z"/>
	<path class="st1" d="M908.84,524.03c11.32,9.22,34.62,25.71,101.15,25.71c2.31,0,4.59-0.07,6.89-0.13v0.15
		c2.37,0.04,4.71-0.09,7.08-0.09c66.57,0,89.85-16.47,101.17-25.74c29.97-24.39,30.65-55.37,30.65-78.45V284.13
		c0-11.88-4.02-13.84-14.67-13.84h-53.22c-13.32,0-14.66,5.29-14.66,15.15v152.11c0,26.24-0.73,66.83-56.4,67.24v0.04
		c-55.35-0.59-56.06-41.03-56.06-67.23V285.38c0-9.88-1.31-15.2-14.62-15.2h-53.28c-10.64,0-14.62,2.03-14.62,13.9v161.46
		C878.24,468.63,878.92,499.58,908.84,524.03z"/>
	<path class="st1" d="M841.33,451.58c0-1.41-0.07-2.51-0.17-3.42v-96.59v-11.19v-0.49c0-26.3-1.31-41.39-31.15-55.19
		c-35.15-15.74-73.6-20.38-112.07-20.38c-66.32,0-89.54,16.42-100.81,25.63c-29.86,24.32-30.5,55.23-30.5,78.21v67.46
		c0,1.23,0.07,2.35,0.15,3.42v5.31c0,22.96,0.64,53.87,30.48,78.21c11.27,9.21,34.5,25.63,100.84,25.63
		c20.45,0,40.89-1.38,60.82-4.98v6.08c0,26.32-0.64,67.06-57.01,67.06c-53.09,0-53.09-40.61-53.09-40.61
		c0-13.14-3.28-15.82-15.89-15.82h-52.37c-10.63,0-13.92,2.67-13.92,13.82c0,0,3.61,48.86,31.14,66.91
		c32.63,21.36,73.63,20.39,112.08,20.39c66.3,0,89.54-16.45,100.8-25.65c29.85-24.34,30.52-55.23,30.52-78.25v-74.15
		c0.13-3.26,0.17-6.71,0.17-10.42V451.58z M706.04,503.5c-56.38,0-57.01-40.73-57.01-67.04v-58.24c0-1.53-0.07-2.86-0.15-4.15
		c0.03-26.32,2-65.07,57-65.07c49.57,0,52.82,35.42,53.04,40.07v107.21C757.98,474.25,751.39,503.5,706.04,503.5z"/>
	<path class="st1" d="M176.79,218.3c27.9,0,50.82-22.92,50.82-51.43c0-28.53-22.92-50.8-50.82-50.8c-28.5,0-51.41,22.28-51.41,50.8
		C125.37,195.38,148.29,218.3,176.79,218.3z"/>
	<path class="st1" d="M214.83,284.41c0-11.89-4.01-13.89-14.65-13.89h-53.26c-13.3,0-14.63,5.31-14.63,15.2l-0.09,244.12
		c0,11.89,3.99,13.88,14.63,13.88h53.25c13.31,0,14.65-5.29,14.65-15.18L214.83,284.41z"/>
	<path class="st1" d="M95.54,385.77V126.03c0-11.89-4.01-13.88-14.65-13.88H27.65c-13.31,0-14.65,5.31-14.65,15.17v261.03h0.02
		v141.49c0,11.89,4.01,13.88,14.63,13.88H80.9c13.32,0,14.65-5.29,14.65-15.18V385.77H95.54z"/>
</g>
</svg>
