<?xml version="1.0" encoding="utf-8"?>
<svg width="176" height="16" viewBox="0 0 176 16" fill="none" xmlns="http://www.w3.org/2000/svg">
  <path fill-rule="evenodd" clip-rule="evenodd" d="M129.79 4.79297C129.051 4.79297 128.023 5.31497 127.733 6.1263H127.675V4.90164H126.4V11.999H127.733V8.18297C127.733 6.87897 128.66 6.11164 129.572 6.11164C129.862 6.11164 130.094 6.1403 130.282 6.21297L130.79 4.96764C130.514 4.85164 130.224 4.79297 129.79 4.79297Z" fill="#757575"/>
  <path fill-rule="evenodd" clip-rule="evenodd" d="M153.801 1.46094H155.133V12.0003H153.801V1.46094Z" fill="#757575"/>
  <path fill-rule="evenodd" clip-rule="evenodd" d="M149.657 4.79297C148.224 4.79297 146.891 5.59364 146.891 6.84364C146.891 8.0523 148.099 8.59964 148.731 8.7543L150.163 9.09164C150.894 9.2743 151.145 9.65364 151.145 10.005C151.145 10.5803 150.528 10.957 149.727 10.957C148.899 10.957 148.183 10.553 147.819 9.66364L146.666 10.1416C147.073 11.1423 148.056 12.1263 149.714 12.1263C151.329 12.1263 152.466 11.185 152.466 9.96297C152.466 9.11964 151.891 8.27697 150.528 7.95364L149.125 7.6303C148.577 7.5043 148.212 7.26564 148.212 6.82964C148.212 6.26764 148.885 5.9623 149.615 5.9623C150.289 5.9623 150.963 6.22964 151.23 6.87564L152.353 6.4123C151.932 5.3583 150.851 4.79297 149.657 4.79297Z" fill="#757575"/>
  <path fill-rule="evenodd" clip-rule="evenodd" d="M159.579 10.9276C158.904 10.9276 158.071 10.5803 158.071 9.8503C158.071 9.2183 158.679 8.52764 160.042 8.52764C161.138 8.52764 161.667 8.93697 161.667 8.93697C161.667 10.061 160.604 10.9276 159.579 10.9276ZM159.859 4.79297C158.131 4.79297 157.158 5.79897 156.919 6.43097L158.099 6.93697C158.338 6.29097 159.171 5.99097 159.887 5.99097C160.857 5.99097 161.667 6.59297 161.667 7.6843V7.88164C161.399 7.72697 160.745 7.45964 159.817 7.45964C158.202 7.45964 156.701 8.26297 156.701 9.8223C156.701 11.255 157.963 12.1263 159.367 12.1263C160.548 12.1263 161.231 11.4903 161.611 10.9143H161.667V11.999H162.922V7.74297C162.922 5.8043 161.545 4.79297 159.859 4.79297Z" fill="#757575"/>
  <path fill-rule="evenodd" clip-rule="evenodd" d="M134.322 10.9276C133.648 10.9276 132.815 10.5803 132.815 9.8503C132.815 9.2183 133.423 8.52764 134.786 8.52764C135.881 8.52764 136.411 8.93697 136.411 8.93697C136.411 10.061 135.348 10.9276 134.322 10.9276ZM134.603 4.79297C132.875 4.79297 131.901 5.79897 131.663 6.43097L132.843 6.93697C133.082 6.29097 133.915 5.99097 134.631 5.99097C135.601 5.99097 136.411 6.59297 136.411 7.6843V7.88164C136.143 7.72697 135.488 7.45964 134.561 7.45964C132.945 7.45964 131.445 8.26297 131.445 9.8223C131.445 11.255 132.707 12.1263 134.111 12.1263C135.291 12.1263 135.975 11.4903 136.354 10.9143H136.411V11.999H137.666V7.74297C137.666 5.8043 136.289 4.79297 134.603 4.79297Z" fill="#757575"/>
  <path fill-rule="evenodd" clip-rule="evenodd" d="M170.398 7.6223C170.655 6.61897 171.425 5.99097 172.396 5.99097C173.894 5.99097 174.407 7.0263 174.45 7.6223H170.398ZM172.424 4.79297C170.37 4.79297 169 6.5063 169 8.45964C169 10.539 170.427 12.1263 172.567 12.1263C174.179 12.1263 175.207 11.227 175.62 10.2436L174.45 9.7663C174.079 10.6376 173.309 10.9276 172.538 10.9276C171.454 10.9276 170.384 10.1596 170.313 8.7063H175.834C175.834 8.7063 175.849 8.55764 175.849 8.45964C175.849 6.23964 174.507 4.79297 172.424 4.79297Z" fill="#757575"/>
  <path fill-rule="evenodd" clip-rule="evenodd" d="M142.779 4.79297C141.809 4.79297 140.911 5.35764 140.534 6.00897H140.476V4.90164H139.201V11.999H140.534V8.1963C140.534 7.1103 141.244 6.00897 142.403 6.00897C143.417 6.00897 144.155 6.50164 144.155 7.97897V11.999H145.488V7.77697C145.488 6.0243 144.59 4.79297 142.779 4.79297Z" fill="#757575"/>
  <path fill-rule="evenodd" clip-rule="evenodd" d="M166.399 2.79297H165.066V4.90164H163.82V6.12897H165.066V9.8523C165.066 11.301 165.863 12.1263 167.355 12.1263C167.804 12.1263 168.122 12.0683 168.427 11.9383L167.964 10.7936C167.775 10.8803 167.601 10.9096 167.355 10.9096C166.732 10.9096 166.399 10.5476 166.399 9.7503V6.12897H168.137V4.90164H166.399V2.79297Z" fill="#757575"/>
  <path fill-rule="evenodd" clip-rule="evenodd" d="M125.951 1.46094H118.734V2.8276H121.668V11.9943H123.018V2.8276H125.951V1.46094Z" fill="#757575"/>
  <path fill-rule="evenodd" clip-rule="evenodd" d="M73.1603 5.58562V7.22429H77.0823C76.9649 8.14629 76.6576 8.81962 76.1896 9.28762C75.6183 9.85829 74.7256 10.4876 73.1603 10.4876C70.7449 10.4876 68.8576 8.54162 68.8576 6.12695C68.8576 3.71229 70.7449 1.76629 73.1603 1.76629C74.4623 1.76629 75.4136 2.27829 76.1163 2.93695L77.2723 1.78029C76.2916 0.844286 74.9896 0.126953 73.1603 0.126953C69.8529 0.126953 67.0723 2.81962 67.0723 6.12695C67.0723 9.43429 69.8529 12.127 73.1603 12.127C74.9449 12.127 76.2916 11.5416 77.3456 10.4443C78.4283 9.36095 78.7649 7.83895 78.7649 6.60962C78.7649 6.22962 78.7356 5.87829 78.6769 5.58562H73.1603Z" fill="#757575"/>
  <path fill-rule="evenodd" clip-rule="evenodd" d="M83.6666 4.25391C81.5253 4.25391 79.7793 5.88257 79.7793 8.12657C79.7793 10.3559 81.5253 11.9992 83.6666 11.9992C85.8086 11.9992 87.554 10.3559 87.554 8.12657C87.554 5.88257 85.8086 4.25391 83.6666 4.25391ZM83.6666 10.4732C82.4933 10.4732 81.4806 9.50524 81.4806 8.12657C81.4806 6.73324 82.4933 5.77924 83.6666 5.77924C84.84 5.77924 85.8526 6.73324 85.8526 8.12657C85.8526 9.50524 84.84 10.4732 83.6666 10.4732Z" fill="#757575"/>
  <path fill-rule="evenodd" clip-rule="evenodd" d="M102.72 5.11991H102.661C102.279 4.66457 101.546 4.25391 100.622 4.25391C98.686 4.25391 97 5.94057 97 8.12657C97 10.2972 98.686 11.9992 100.622 11.9992C101.546 11.9992 102.279 11.5886 102.661 11.1192H102.72V11.6606C102.72 13.1419 101.928 13.9339 100.651 13.9339C99.61 13.9339 98.9647 13.1859 98.7007 12.5552L97.2193 13.1712C97.6447 14.1979 98.774 15.4599 100.651 15.4599C102.647 15.4599 104.333 14.2866 104.333 11.4259V4.45324H102.72V5.11991ZM100.769 10.4732C99.596 10.4732 98.702 9.47591 98.702 8.12657C98.702 6.76257 99.596 5.77924 100.769 5.77924C101.929 5.77924 102.837 6.77724 102.837 8.14124C102.837 9.49057 101.929 10.4732 100.769 10.4732Z" fill="#757575"/>
  <path fill-rule="evenodd" clip-rule="evenodd" d="M92.3326 4.25391C90.1913 4.25391 88.4453 5.88257 88.4453 8.12657C88.4453 10.3559 90.1913 11.9992 92.3326 11.9992C94.4746 11.9992 96.22 10.3559 96.22 8.12657C96.22 5.88257 94.4746 4.25391 92.3326 4.25391ZM92.3326 10.4732C91.1593 10.4732 90.1473 9.50524 90.1473 8.12657C90.1473 6.73324 91.1593 5.77924 92.3326 5.77924C93.506 5.77924 94.5186 6.73324 94.5186 8.12657C94.5186 9.50524 93.506 10.4732 92.3326 10.4732Z" fill="#757575"/>
  <path fill-rule="evenodd" clip-rule="evenodd" d="M105.666 0.287109H107.339V11.9998H105.666V0.287109Z" fill="#757575"/>
  <path fill-rule="evenodd" clip-rule="evenodd" d="M112.509 10.4732C111.644 10.4732 111.028 10.0779 110.631 9.30057L115.809 7.15857L115.633 6.71857C115.311 5.85324 114.328 4.25391 112.319 4.25391C110.323 4.25391 108.666 5.82391 108.666 8.12657C108.666 10.2979 110.309 11.9992 112.509 11.9992C114.284 11.9992 115.311 10.9139 115.736 10.2826L114.416 9.40257C113.976 10.0486 113.375 10.4732 112.509 10.4732ZM112.383 5.70524C113.072 5.70524 113.655 6.05591 113.85 6.55924L110.353 8.00924C110.353 6.37657 111.507 5.70524 112.383 5.70524Z" fill="#757575"/>
  <path opacity="0.54" d="M6.17578 7.90039C6.17578 8.86523 5.95508 9.64258 5.51367 10.2324C5.07227 10.8223 4.47461 11.1172 3.7207 11.1172C2.95117 11.1172 2.3457 10.873 1.9043 10.3848V13.4375H0.820312V4.66016H1.81055L1.86328 5.36328C2.30469 4.81641 2.91797 4.54297 3.70312 4.54297C4.46484 4.54297 5.06641 4.83008 5.50781 5.4043C5.95312 5.97852 6.17578 6.77734 6.17578 7.80078V7.90039ZM5.0918 7.77734C5.0918 7.0625 4.93945 6.49805 4.63477 6.08398C4.33008 5.66992 3.91211 5.46289 3.38086 5.46289C2.72461 5.46289 2.23242 5.75391 1.9043 6.33594V9.36523C2.22852 9.94336 2.72461 10.2324 3.39258 10.2324C3.91211 10.2324 4.32422 10.0273 4.62891 9.61719C4.9375 9.20312 5.0918 8.58984 5.0918 7.77734ZM7.27148 7.77148C7.27148 7.15039 7.39258 6.5918 7.63477 6.0957C7.88086 5.59961 8.2207 5.2168 8.6543 4.94727C9.0918 4.67773 9.58984 4.54297 10.1484 4.54297C11.0117 4.54297 11.709 4.8418 12.2402 5.43945C12.7754 6.03711 13.043 6.83203 13.043 7.82422V7.90039C13.043 8.51758 12.9238 9.07227 12.6855 9.56445C12.4512 10.0527 12.1133 10.4336 11.6719 10.707C11.2344 10.9805 10.7305 11.1172 10.1602 11.1172C9.30078 11.1172 8.60352 10.8184 8.06836 10.2207C7.53711 9.62305 7.27148 8.83203 7.27148 7.84766V7.77148ZM8.36133 7.90039C8.36133 8.60352 8.52344 9.16797 8.84766 9.59375C9.17578 10.0195 9.61328 10.2324 10.1602 10.2324C10.7109 10.2324 11.1484 10.0176 11.4727 9.58789C11.7969 9.1543 11.959 8.54883 11.959 7.77148C11.959 7.07617 11.793 6.51367 11.4609 6.08398C11.1328 5.65039 10.6953 5.43359 10.1484 5.43359C9.61328 5.43359 9.18164 5.64648 8.85352 6.07227C8.52539 6.49805 8.36133 7.10742 8.36133 7.90039ZM20.0156 9.50586L21.2344 4.66016H22.3184L20.4727 11H19.5938L18.0527 6.19531L16.5527 11H15.6738L13.834 4.66016H14.9121L16.1602 9.40625L17.6367 4.66016H18.5098L20.0156 9.50586ZM26.0566 11.1172C25.1973 11.1172 24.498 10.8359 23.959 10.2734C23.4199 9.70703 23.1504 8.95117 23.1504 8.00586V7.80664C23.1504 7.17773 23.2695 6.61719 23.5078 6.125C23.75 5.62891 24.0859 5.24219 24.5156 4.96484C24.9492 4.68359 25.418 4.54297 25.9219 4.54297C26.7461 4.54297 27.3867 4.81445 27.8438 5.35742C28.3008 5.90039 28.5293 6.67773 28.5293 7.68945V8.14062H24.2344C24.25 8.76562 24.4316 9.27148 24.7793 9.6582C25.1309 10.041 25.5762 10.2324 26.1152 10.2324C26.498 10.2324 26.8223 10.1543 27.0879 9.99805C27.3535 9.8418 27.5859 9.63477 27.7852 9.37695L28.4473 9.89258C27.916 10.709 27.1191 11.1172 26.0566 11.1172ZM25.9219 5.43359C25.4844 5.43359 25.1172 5.59375 24.8203 5.91406C24.5234 6.23047 24.3398 6.67578 24.2695 7.25H27.4453V7.16797C27.4141 6.61719 27.2656 6.19141 27 5.89062C26.7344 5.58594 26.375 5.43359 25.9219 5.43359ZM32.8535 5.63281C32.6895 5.60547 32.5117 5.5918 32.3203 5.5918C31.6094 5.5918 31.127 5.89453 30.873 6.5V11H29.7891V4.66016H30.8438L30.8613 5.39258C31.2168 4.82617 31.7207 4.54297 32.373 4.54297C32.584 4.54297 32.7441 4.57031 32.8535 4.625V5.63281ZM36.3691 11.1172C35.5098 11.1172 34.8105 10.8359 34.2715 10.2734C33.7324 9.70703 33.4629 8.95117 33.4629 8.00586V7.80664C33.4629 7.17773 33.582 6.61719 33.8203 6.125C34.0625 5.62891 34.3984 5.24219 34.8281 4.96484C35.2617 4.68359 35.7305 4.54297 36.2344 4.54297C37.0586 4.54297 37.6992 4.81445 38.1562 5.35742C38.6133 5.90039 38.8418 6.67773 38.8418 7.68945V8.14062H34.5469C34.5625 8.76562 34.7441 9.27148 35.0918 9.6582C35.4434 10.041 35.8887 10.2324 36.4277 10.2324C36.8105 10.2324 37.1348 10.1543 37.4004 9.99805C37.666 9.8418 37.8984 9.63477 38.0977 9.37695L38.7598 9.89258C38.2285 10.709 37.4316 11.1172 36.3691 11.1172ZM36.2344 5.43359C35.7969 5.43359 35.4297 5.59375 35.1328 5.91406C34.8359 6.23047 34.6523 6.67578 34.582 7.25H37.7578V7.16797C37.7266 6.61719 37.5781 6.19141 37.3125 5.89062C37.0469 5.58594 36.6875 5.43359 36.2344 5.43359ZM39.8379 7.77734C39.8379 6.80469 40.0684 6.02344 40.5293 5.43359C40.9902 4.83984 41.5938 4.54297 42.3398 4.54297C43.082 4.54297 43.6699 4.79688 44.1035 5.30469V2H45.1875V11H44.1914L44.1387 10.3203C43.7051 10.8516 43.1016 11.1172 42.3281 11.1172C41.5938 11.1172 40.9941 10.8164 40.5293 10.2148C40.0684 9.61328 39.8379 8.82812 39.8379 7.85938V7.77734ZM40.9219 7.90039C40.9219 8.61914 41.0703 9.18164 41.3672 9.58789C41.6641 9.99414 42.0742 10.1973 42.5977 10.1973C43.2852 10.1973 43.7871 9.88867 44.1035 9.27148V6.35938C43.7793 5.76172 43.2812 5.46289 42.6094 5.46289C42.0781 5.46289 41.6641 5.66797 41.3672 6.07812C41.0703 6.48828 40.9219 7.0957 40.9219 7.90039ZM55.2188 7.90039C55.2188 8.86914 54.9961 9.64844 54.5508 10.2383C54.1055 10.8242 53.5078 11.1172 52.7578 11.1172C51.957 11.1172 51.3379 10.834 50.9004 10.2676L50.8477 11H49.8516V2H50.9355V5.35742C51.373 4.81445 51.9766 4.54297 52.7461 4.54297C53.5156 4.54297 54.1191 4.83398 54.5566 5.41602C54.998 5.99805 55.2188 6.79492 55.2188 7.80664V7.90039ZM54.1348 7.77734C54.1348 7.03906 53.9922 6.46875 53.707 6.06641C53.4219 5.66406 53.0117 5.46289 52.4766 5.46289C51.7617 5.46289 51.248 5.79492 50.9355 6.45898V9.20117C51.2676 9.86523 51.7852 10.1973 52.4883 10.1973C53.0078 10.1973 53.4121 9.99609 53.7012 9.59375C53.9902 9.19141 54.1348 8.58594 54.1348 7.77734ZM58.5938 9.41211L60.0703 4.66016H61.2305L58.6816 11.9785C58.2871 13.0332 57.6602 13.5605 56.8008 13.5605L56.5957 13.543L56.1914 13.4668V12.5879L56.4844 12.6113C56.8516 12.6113 57.1367 12.5371 57.3398 12.3887C57.5469 12.2402 57.7168 11.9688 57.8496 11.5742L58.0898 10.9297L55.8281 4.66016H57.0117L58.5938 9.41211Z" fill="black"/>
</svg>