<svg width="95" height="101" viewBox="0 0 95 101" fill="none" xmlns="http://www.w3.org/2000/svg">
<g filter="url(#filter0_d)">
<path d="M59.6829 17.1691C59.2748 18.7324 59.5642 20.4409 60.4652 22.1335L58.3628 18.1842C57.4617 16.4917 55.965 15.4277 54.3179 14.8579C52.5904 14.331 50.7983 14.4596 49.108 15.3618C45.808 17.1234 44.5677 21.2008 46.3269 24.5053L44.3103 20.7172C42.5511 17.4128 38.479 16.1709 35.1789 17.9325C31.8789 19.694 30.6386 23.7714 32.3978 27.0759L21.1133 5.87914C19.3165 2.69826 15.2873 1.53699 12.0677 3.25554C10.3775 4.15778 9.31481 5.65649 8.74575 7.30573C8.21959 9.03557 8.34801 10.83 9.24906 12.5225L23.6424 41.0298C16.7546 44.2924 17.1591 50.8498 18.2038 54.4701C26.2081 82.2074 46.6937 97.5868 74.4763 82.7569C92.1201 73.3391 94.3308 57.2053 85.5555 40.7219L72.2972 15.8178C70.538 12.5133 66.7879 11.0996 63.0048 13.1189C61.0731 14.1501 60.091 15.6058 59.6829 17.1691Z" fill="white" fill-opacity="0.9"/>
<path d="M34.8645 60.6383L23.6424 41.0298M23.6424 41.0298L9.24906 12.5225C8.34801 10.83 8.21959 9.03557 8.74575 7.30573C9.31481 5.65649 10.3775 4.15778 12.0677 3.25554C15.2873 1.53699 19.3165 2.69826 21.1133 5.87914L40.3356 41.9861L32.3978 27.0759C30.6386 23.7714 31.8789 19.694 35.1789 17.9325C38.479 16.1709 42.5511 17.4128 44.3103 20.7172L52.2481 35.6275L46.3269 24.5053C44.5677 21.2008 45.808 17.1234 49.108 15.3618C50.7983 14.4596 52.5904 14.331 54.3179 14.8579C55.965 15.4277 57.4617 16.4917 58.3628 18.1842L60.5081 22.214L64.241 29.2259L60.4652 22.1335C59.5642 20.4409 59.2748 18.7324 59.6829 17.1691C60.091 15.6058 61.0731 14.1501 63.0048 13.1189C66.7879 11.0996 70.538 12.5133 72.2972 15.8178L85.5555 40.7219C94.3308 57.2053 92.1201 73.3391 74.4763 82.7569C46.6937 97.5868 26.2081 82.2074 18.2038 54.4701C17.1591 50.8498 16.7546 44.2924 23.6424 41.0298Z" stroke="#2D2D3A" stroke-width="4" stroke-linecap="round" stroke-linejoin="round"/>
</g>
<defs>
<filter id="filter0_d" x="6.43652" y="0.460938" width="86.1217" height="100.055" filterUnits="userSpaceOnUse" color-interpolation-filters="sRGB">
<feFlood flood-opacity="0" result="BackgroundImageFix"/>
<feColorMatrix in="SourceAlpha" type="matrix" values="0 0 0 0 0 0 0 0 0 0 0 0 0 0 0 0 0 0 127 0"/>
<feOffset dy="10"/>
<feColorMatrix type="matrix" values="0 0 0 0 0 0 0 0 0 0 0 0 0 0 0 0 0 0 0.2 0"/>
<feBlend mode="normal" in2="BackgroundImageFix" result="effect1_dropShadow"/>
<feBlend mode="normal" in="SourceGraphic" in2="effect1_dropShadow" result="shape"/>
</filter>
</defs>
</svg>
