<svg width="264" height="268" viewBox="0 0 264 268" fill="none" xmlns="http://www.w3.org/2000/svg">
<path d="M108.559 150.043C130.508 140.225 128.39 95.6962 124.588 74.6589L160.22 51.0697C184.525 94.6599 220.994 182.457 172.428 184.922C123.862 187.387 99.9368 163.393 94.0451 151.088C96.719 152.469 103.365 154.193 108.559 150.043Z" fill="#231F20"/>
<path d="M132.864 226.922L138.3 227.943L137.062 241.035L127.662 232.415L132.864 226.922Z" fill="#F8C7AC"/>
<path d="M218.52 80.0801C218.52 80.0801 197.74 142.589 234.506 155.652C242.304 158.386 249.337 154.585 249.337 154.585C249.337 154.585 235.306 176.599 194.825 179.042C154.812 181.451 158.45 170.599 158.45 170.599L162.515 159.951L181.189 115.656L218.52 80.0801Z" fill="#231F20"/>
<path d="M143.305 149.787C144.475 152.939 151.038 152.775 157.03 152.52C177.936 151.545 183.466 146.499 183.466 146.499C183.466 146.499 184.844 138.633 186.078 124.659C186.473 120.336 191.417 96.5041 191.529 94.7898L194.358 91.5267L198.195 75.247C198.195 75.247 197.475 75.0635 196.269 74.6796C197.56 68.8796 198.801 63.2008 198.884 61.0767C199.179 56.172 210.418 27.2983 177.481 26.4916C141.943 25.5778 124.084 65.6362 124.084 65.6362C124.084 65.6362 120.922 74.1009 124.626 97.7219C127.367 115.352 139.829 130.959 143.305 149.787Z" fill="#F8C7AC"/>
<path fill-rule="evenodd" clip-rule="evenodd" d="M212.223 81.8283C212.271 85.7669 210.799 89.05 207.864 91.6735C206.035 93.276 203.942 94.4857 201.488 94.78C200.086 94.9398 198.587 94.577 197.209 94.2643C196.911 94.2268 196.559 93.4285 196.651 93.0688C196.952 91.5174 197.37 89.9576 197.73 88.402C198.185 86.5453 198.524 84.697 198.983 82.8988C199.213 81.9997 199.741 81.1381 200.213 80.3392C200.632 79.603 201.172 78.917 201.586 78.1223C202.573 76.2861 204.013 75.0058 205.96 74.2185C208.711 73.138 209.925 73.6389 211.254 76.544C211.606 77.3423 211.79 78.2704 211.971 79.14C212.151 80.0095 212.156 80.8918 212.223 81.8283ZM205.643 87.8324C206.489 87.3009 206.698 86.9328 206.129 86.3855C205.617 85.8339 205.219 85.2153 204.767 84.6595C204.314 84.1037 204.398 83.627 204.963 83.2922C205.813 82.8192 206.73 82.459 207.638 81.9818C207.923 81.8436 208.132 81.4755 208.346 81.166C208.044 81.07 207.726 80.7399 207.495 80.8153C206.52 81.1797 205.607 81.5984 204.695 82.0171C202.25 83.2521 201.648 85.5312 201.532 88.0107C201.49 88.249 201.745 88.5248 201.825 88.8133C201.942 88.8048 202.06 88.7964 202.181 88.8465C202.624 87.6379 203.005 86.3749 203.394 85.229C204.169 86.1735 204.877 87.0051 205.643 87.8324Z" fill="#F8C7AC"/>
<path fill-rule="evenodd" clip-rule="evenodd" d="M205.643 87.8323C204.935 87.0007 204.168 86.1733 203.397 85.2874C203.009 86.4333 202.569 87.7005 202.185 88.9049C202.067 88.9133 201.95 88.9218 201.829 88.8717C201.749 88.5832 201.494 88.3074 201.535 88.0691C201.652 85.5896 202.254 83.3105 204.698 82.0755C205.607 81.5982 206.519 81.1795 207.499 80.8737C207.729 80.7983 208.044 81.0699 208.349 81.2244C208.132 81.4754 207.922 81.8434 207.642 82.0401C206.792 82.5131 205.875 82.8733 204.967 83.3505C204.402 83.6854 204.318 84.1621 204.771 84.7179C205.223 85.2737 205.621 85.8923 206.132 86.4438C206.639 86.9369 206.484 87.2422 205.643 87.8323Z" fill="#F3A478" stroke="#F3A478" stroke-miterlimit="10"/>
<path d="M180.119 84.4322C180.365 91.9456 174.861 98.1665 167.865 98.3759C160.868 98.5852 154.965 92.7145 154.778 85.1969C154.532 77.6836 160.035 71.4627 167.032 71.2533C174.029 71.044 179.873 76.9189 180.119 84.4322Z" fill="white"/>
<path fill-rule="evenodd" clip-rule="evenodd" d="M136.091 77.7165C139.245 81.4315 141.699 91.7866 136.952 94.5994C127.918 100.074 120.265 82.1503 127.921 76.3629C130.378 74.4798 133.196 74.3358 136.091 77.7165Z" fill="white"/>
<path d="M167.187 76.6552C159.39 77.2163 155.468 80.0285 155.468 80.0285C157.229 75.0184 161.624 71.4072 166.975 71.2575C171.795 71.0871 176.058 73.8397 178.363 78.0278C178.43 78.1406 178.497 78.2535 178.564 78.3663C178.564 78.3663 175.218 76.0772 167.187 76.6552Z" fill="#F3A478"/>
<path d="M178.564 78.3666C177.651 77.9616 176.692 77.7364 175.733 77.5113C174.778 77.3446 173.769 77.2407 172.818 77.1326C170.863 76.9792 168.924 77.0599 166.931 77.2033C164.996 77.3425 163.016 77.6616 161.102 78.0935C159.193 78.5839 157.288 79.1328 155.522 79.966C157.079 78.6772 158.963 77.8356 160.859 77.1696C162.819 76.5579 164.795 76.1803 166.847 76.0327C168.84 75.8892 170.904 75.9172 172.931 76.242C173.944 76.4044 174.903 76.6296 175.871 76.9718C176.838 77.314 177.751 77.719 178.564 78.3666Z" fill="#231F20"/>
<path fill-rule="evenodd" clip-rule="evenodd" d="M137.21 79.3422C136.871 78.7195 136.477 78.1595 136.087 77.658C133.251 74.2731 130.378 74.4798 127.917 76.3043C126.799 77.1497 125.996 78.2665 125.444 79.6007C125.444 79.6007 127.684 78.7923 129.781 78.4648C131.883 78.1959 137.21 79.3422 137.21 79.3422Z" fill="#F3A478"/>
<path d="M125.447 79.6591C126.293 79.1275 127.264 78.7046 128.244 78.3988C128.704 78.2479 129.224 78.0929 129.747 77.9964C130.329 77.8957 130.861 77.9163 131.334 77.941C132.339 77.9864 133.352 78.1488 134.374 78.4283C135.333 78.6534 136.3 78.9957 137.276 79.455C135.216 79.4856 133.256 79.2736 131.305 79.1787C130.832 79.1539 130.359 79.1291 129.948 79.1586C129.479 79.1924 129.015 79.2847 128.487 79.3226C127.432 79.3986 126.498 79.5246 125.447 79.6591Z" fill="#231F20"/>
<path d="M135.77 106.805C135.77 106.805 137.833 114.187 147.857 113.466C147.857 113.466 138.706 118.949 135.77 106.805Z" fill="#F3A478"/>
<path d="M133.029 83.467C134.993 82.9138 137.041 84.355 137.674 86.604C138.308 88.8531 137.233 91.1074 135.269 91.6605C133.305 92.2137 131.257 90.7725 130.624 88.5235C129.991 86.2745 131.066 84.0201 133.029 83.467Z" fill="#231F20"/>
<path d="M136.574 87.751C137.542 87.477 138.083 86.3955 137.783 85.3353C137.482 84.2751 136.454 83.6377 135.485 83.9117C134.517 84.1856 133.976 85.2672 134.277 86.3274C134.578 87.3876 135.606 88.0249 136.574 87.751Z" fill="white"/>
<path d="M166.777 82.4504C169.469 81.3741 172.518 82.8021 173.666 85.6613C174.752 88.4661 173.447 91.6195 170.751 92.6373C168.059 93.7136 165.01 92.2856 163.861 89.4264C162.776 86.6216 164.081 83.4681 166.777 82.4504Z" fill="#231F20"/>
<path d="M172.592 87.1519C173.966 86.763 174.765 85.3356 174.376 83.9636C173.986 82.5915 172.557 81.7945 171.183 82.1834C169.809 82.5722 169.01 83.9997 169.399 85.3717C169.789 86.7437 171.218 87.5407 172.592 87.1519Z" fill="white"/>
<path d="M140.35 127.892C140.274 126.838 139.498 123.423 143.208 121.744C146.917 120.065 156.919 127.229 164.06 121.655C166.124 120.036 160.275 131.282 151.667 134.491C147.82 135.885 143.105 135.872 141.122 131.249C140.908 130.735 140.426 128.945 140.35 127.892Z" fill="#E55135"/>
<path d="M151.814 32.5173C147.957 39.5023 150.375 45.2707 138.49 51.2448C126.605 57.2189 122.901 72.0769 122.901 72.0769C122.901 72.0769 120.625 50.0906 126.01 41.4071C131.693 28.8373 142.588 28.7686 156.157 24.0853C166.109 20.6507 176.58 23.5792 176.58 23.5792C176.58 23.5792 155.672 25.5323 151.814 32.5173Z" fill="#231F20"/>
<path d="M143.441 128.257C143.441 128.257 143.653 126.3 144.993 126.086C148.083 125.629 150.086 128.073 153.058 127.624C153.465 127.536 151.229 129.227 146.247 129.585C143.667 129.771 143.441 128.257 143.441 128.257Z" fill="#231F20"/>
<path d="M170.105 76.2686C170.687 76.1679 171.265 76.0087 171.843 75.8494C172.421 75.6902 172.994 75.4724 173.505 75.2003C174.016 74.9282 174.581 74.5933 174.962 74.154C175.401 73.7106 175.719 73.217 175.853 72.619C175.719 73.217 175.464 73.7649 175.029 74.2669C174.652 74.7647 174.145 75.0953 173.58 75.4302C173.074 75.7608 172.504 76.0371 171.931 76.2549C171.357 76.4727 170.784 76.6905 170.147 76.854L170.105 76.2686Z" fill="#231F20"/>
<path d="M174.912 76.747C175.732 76.6879 176.603 76.5076 177.466 76.2101C177.867 76.0635 178.265 75.8584 178.604 75.6575C178.939 75.3981 179.27 75.0801 179.416 74.6577C179.328 75.0759 179.065 75.5067 178.73 75.7661C178.399 76.0841 178.002 76.2892 177.604 76.4944C176.808 76.9046 175.942 77.1435 175.012 77.3281L174.912 76.747Z" fill="#231F20"/>
<path d="M129.647 79.0631C129.287 78.9713 128.923 78.8211 128.558 78.6708C128.194 78.5205 127.888 78.366 127.578 78.1529C127.268 77.9399 126.958 77.7269 126.757 77.3883C126.502 77.1125 126.359 76.7698 126.271 76.3643C126.497 77.054 127.063 77.5428 127.733 77.8476C128.039 78.0021 128.403 78.1524 128.763 78.2442C129.123 78.3359 129.484 78.4277 129.781 78.4651L129.647 79.0631Z" fill="#231F20"/>
<path d="M126.842 79.382C126.302 79.2444 125.816 79.044 125.326 78.7851C125.083 78.6849 124.836 78.5262 124.644 78.3047C124.396 78.146 124.204 77.9245 124.183 77.6318C124.258 77.8618 124.451 78.0832 124.694 78.1834C124.941 78.3421 125.125 78.4466 125.364 78.4882C125.845 78.6301 126.381 78.7092 126.855 78.7339L126.842 79.382Z" fill="#231F20"/>
<path d="M137.609 73.4296L138.261 69.3819C138.261 69.3819 134.756 68.1632 131.976 68.834C128.27 69.7479 124.411 73.4381 124.411 73.4381C124.411 73.4381 134.132 69.326 137.609 73.4296Z" fill="#231F20"/>
<path d="M155.074 72.1141L153.409 67.8211C153.409 67.8211 157.96 65.552 163.29 65.1096C169.852 64.5786 175.393 67.8865 175.393 67.8865C175.393 67.8865 160.289 66.7965 155.074 72.1141Z" fill="#231F20"/>
<path d="M232.865 205.723C232.865 205.723 227.374 212.282 197.894 218.581C194.38 218.069 189.162 216.634 189.556 216.371C197.078 210.357 214.82 202.256 214.82 202.256C210.042 191.538 195.716 179.154 195.716 179.154C193.445 185.26 186.744 192.038 183.462 203.747C182.768 206.386 182.568 208.519 182.791 209.974C184.378 220.568 169.72 221.972 175.045 228.002C142.814 243.56 139.078 237.125 139.447 236.51C153.347 213.505 140.336 201.379 140.093 201.279C124.714 193.09 130.693 183.658 130.693 183.658L120.151 215.658C120.151 215.658 136.088 225.043 138.304 228.002C135.737 228.363 131.559 230.076 131.39 235.913C118.369 231.025 106.875 219.497 107.339 218.581C108.063 217.176 112.829 190.886 118.693 175.755C126.402 155.96 135.717 151.936 140.59 150.056C138.987 151.524 173.817 152.43 183.21 143.752C191.231 148.765 199.66 148.805 207.809 160.516C214.191 169.764 218.493 174.691 226.974 189.378C231.408 196.943 232.865 205.723 232.865 205.723Z" fill="#00A5D7"/>
<path opacity="0.3" d="M167.675 112.922C171.787 112.626 174.961 110.185 174.766 107.47C174.57 104.754 171.079 102.793 166.967 103.089C162.856 103.385 159.681 105.826 159.876 108.541C160.072 111.257 163.563 113.218 167.675 112.922Z" fill="#E55135"/>
<path opacity="0.5" d="M146.597 133.62C147.763 133.536 148.662 132.839 148.606 132.063C148.551 131.287 147.561 130.726 146.395 130.81C145.229 130.894 144.33 131.591 144.386 132.367C144.442 133.143 145.432 133.704 146.597 133.62Z" fill="white"/>
<path opacity="0.3" d="M134.781 108.642C134.91 106.338 132.233 104.353 128.799 104.13C127.736 104.089 126.739 104.16 125.818 104.462C126.364 107.129 127.022 109.729 127.681 112.33C127.861 112.376 128.095 112.359 128.275 112.405C131.768 112.624 134.652 110.945 134.781 108.642Z" fill="#E55135"/>
<path d="M142.609 229.692L138.299 227.943L137.061 241.035L145.507 249.488L145.815 247.23L139.674 239.67L148.616 244.381L148.874 242.244L139.555 236.384L150.075 239.275L150.354 237.431L139.495 232.27L150.625 234.646L150.688 233.053L142.609 229.692Z" fill="#F8C7AC"/>
<path d="M130.033 185.117L130.689 183.598C130.689 183.598 130.321 184.213 130.033 185.117Z" fill="#E55135"/>
<path d="M143.926 34.5419C141.875 36.0595 140.171 41.9296 145.807 46.8963C154.92 54.9286 174.037 65.8238 187.45 62.4045C192.495 91.9015 177.256 107.952 179.165 136.688C183.402 155.446 209.579 149.914 209.579 149.914C209.579 149.914 215.033 97.1571 217.695 84.198C220.357 71.239 222.112 33.6409 192.495 24.1227C174.642 18.406 150.803 29.3989 143.926 34.5419Z" fill="#231F20"/>
<path d="M205.141 196.352C205.141 196.352 164.95 176.004 198.144 150.643C208.269 158.105 239.196 183.413 239.975 199.725C240.572 212.203 207.859 223.361 185.148 223.361C186.286 213.696 183.79 205.755 180.16 202.465C197.886 200.593 205.141 196.352 205.141 196.352Z" fill="#E55135"/>
<path d="M192.893 250.679L33.0591 236.684C28.6633 236.299 25.4473 232.557 25.8232 228.264L33.9123 135.881C34.2882 131.589 38.1056 128.462 42.5014 128.847L202.159 142.827C206.555 143.212 209.771 146.954 209.395 151.247L201.306 243.629C200.93 247.922 197.113 251.049 192.893 250.679Z" fill="#5E5D71"/>
<path d="M197.092 149.241L45.2466 135.946C42.4957 135.705 40.0704 137.74 39.8295 140.49L32.4354 224.936C32.1945 227.687 34.2293 230.112 36.9802 230.353L188.825 243.648C191.576 243.889 194.001 241.855 194.242 239.104L201.636 154.658C201.877 151.908 199.842 149.482 197.092 149.241Z" fill="white"/>
<path d="M90.5175 198.865C90.6904 199.478 90.7531 200.035 90.7054 200.536C90.5928 201.719 90.1098 202.66 89.2565 203.359C88.4075 204.013 87.4786 204.292 86.4696 204.196C85.6441 204.118 84.9113 203.795 84.271 203.229C83.6766 202.668 83.2371 201.937 82.9526 201.037L80.1618 192.437L59.6619 190.485L55.2918 198.472C54.8885 199.307 54.319 199.941 53.5834 200.376C52.898 200.77 52.1655 200.93 51.3859 200.856C50.1935 200.742 49.3066 200.336 48.7252 199.638C48.1897 198.944 47.9739 198.051 48.0779 196.959C48.1169 196.549 48.2268 196.124 48.4078 195.682L69.4236 156.492C69.8771 155.617 70.4946 154.964 71.2761 154.533C72.0575 154.102 72.9025 153.976 73.8111 154.155C74.6366 154.233 75.3694 154.556 76.0097 155.122C76.7001 155.647 77.1647 156.357 77.4034 157.252L90.5175 198.865ZM77.5385 184.266L72.1114 167.631L63.7802 182.956L77.5385 184.266Z" fill="#D7E4FC"/>
<path d="M124.968 169.977C128.132 170.279 130.921 171.371 133.333 173.254C135.749 175.091 137.555 177.513 138.75 180.52C139.99 183.531 140.437 186.857 140.09 190.497C139.744 194.138 138.698 197.345 136.953 200.117C135.213 202.845 132.98 204.905 130.256 206.299C127.582 207.652 124.709 208.182 121.636 207.889C119.435 207.679 117.389 207.048 115.499 205.996C113.66 204.902 112.159 203.657 110.996 202.261L110.957 202.67C110.844 203.854 110.359 204.818 109.501 205.563C108.648 206.262 107.625 206.555 106.433 206.441C105.241 206.328 104.291 205.847 103.585 204.999C102.879 204.151 102.585 203.113 102.702 201.884L106.784 159.016C106.896 157.833 107.379 156.892 108.233 156.192C109.09 155.447 110.115 155.132 111.308 155.245C112.5 155.359 113.447 155.862 114.149 156.755C114.855 157.603 115.151 158.619 115.039 159.802L113.68 174.069C114.911 172.808 116.56 171.771 118.627 170.958C120.699 170.099 122.812 169.772 124.968 169.977ZM121.044 200.256C123.979 200.535 126.491 199.672 128.579 197.667C130.667 195.662 131.867 193.021 132.179 189.744C132.491 186.467 131.809 183.67 130.132 181.352C128.506 178.993 126.202 177.672 123.221 177.388C120.24 177.104 117.706 177.965 115.617 179.97C113.533 181.93 112.335 184.548 112.023 187.825C111.711 191.101 112.392 193.921 114.064 196.285C115.736 198.648 118.063 199.972 121.044 200.256Z" fill="#D7E4FC"/>
<path d="M171.681 174.425C175.579 174.796 178.662 175.71 180.93 177.166C183.202 178.576 184.243 180.282 184.052 182.284C183.957 183.286 183.574 184.145 182.904 184.862C182.239 185.533 181.424 185.823 180.461 185.731C179.727 185.661 179.14 185.513 178.699 185.288C178.262 185.016 177.829 184.7 177.401 184.338C177.023 183.934 176.638 183.599 176.247 183.332C175.81 183.061 175.142 182.791 174.242 182.521C173.388 182.256 172.686 182.098 172.135 182.045C168.696 181.718 165.888 182.53 163.712 184.481C161.587 186.391 160.362 189.052 160.037 192.465C159.725 195.742 160.451 198.566 162.215 200.938C163.983 203.265 166.404 204.575 169.476 204.867C171.724 205.081 173.423 204.967 174.576 204.526C174.864 204.416 175.253 204.223 175.742 203.948C176.281 203.632 176.766 203.403 177.196 203.26C177.626 203.117 178.139 203.074 178.735 203.131C179.882 203.24 180.741 203.69 181.314 204.479C181.933 205.273 182.188 206.238 182.079 207.376C181.975 208.468 181.236 209.431 179.861 210.264C178.486 211.098 176.715 211.71 174.549 212.1C172.388 212.446 170.114 212.505 167.73 212.278C164.198 211.941 161.158 210.825 158.608 208.93C156.104 207.038 154.255 204.589 153.06 201.582C151.87 198.53 151.444 195.229 151.782 191.679C152.133 187.993 153.201 184.789 154.988 182.066C156.82 179.347 159.188 177.323 162.091 175.992C164.999 174.615 168.195 174.093 171.681 174.425Z" fill="#D7E4FC"/>
<path fill-rule="evenodd" clip-rule="evenodd" d="M56.3113 217.251C53.7773 217.279 50.9582 218.26 47.7299 220.622C46.7588 221.332 45.3956 221.121 44.6851 220.15C43.9747 219.179 44.186 217.815 45.1571 217.105C48.8899 214.374 52.5733 212.934 56.2635 212.894C59.9651 212.853 63.3902 214.223 66.5908 216.587C69.9518 219.069 71.7422 219.128 73.1124 218.785C73.9406 218.578 74.7781 218.18 75.8871 217.606C76.0115 217.541 76.1392 217.475 76.2701 217.406C77.2511 216.895 78.4128 216.289 79.7298 215.785C82.8263 214.598 86.2514 214.291 89.7237 215.367C93.1857 216.439 96.5057 218.827 99.5166 222.705C100.255 223.655 100.082 225.024 99.1319 225.762C98.1815 226.5 96.8128 226.328 96.0749 225.377C93.4838 222.04 90.8634 220.281 88.4342 219.529C86.0152 218.779 83.5982 218.968 81.2892 219.853C80.2206 220.263 79.2863 220.749 78.2905 221.267C78.1585 221.336 78.0255 221.405 77.8909 221.475C76.793 222.044 75.5479 222.667 74.1703 223.012C71.1291 223.773 68.0158 223.057 64.0021 220.092C61.3549 218.137 58.834 217.223 56.3113 217.251Z" fill="#00A5D7"/>
<path d="M205.131 212.417C205.131 212.417 212.512 206.37 198.786 202.925C188.415 200.203 189.073 201.899 180.867 202.629C176.959 202.995 154.066 205.116 150.081 205.247C145.55 205.297 140.828 202.871 139.579 202.629C137.083 202.144 129.292 198.971 129.292 198.971C129.292 198.971 127.201 196.145 121.872 198.924C116.621 201.546 98.4782 204.869 96.5229 205.247C94.7234 205.704 96.8095 209.311 101.736 208.483C106.586 207.42 112.209 207.533 112.209 207.533C112.209 207.533 109.463 209.469 110.622 211.429C111.781 213.389 112.715 213.864 112.715 213.864C112.715 213.864 111.138 216.198 113.239 217.461C115.34 218.724 115.34 218.724 115.34 218.724C115.34 218.724 115.016 220.518 116.262 221.151C117.743 221.707 118.368 221.633 118.368 221.633C118.368 221.633 125.064 225.034 130.069 224.051C135.075 223.067 139.675 219.591 141.705 219.838C143.734 220.085 182.004 225.55 189.365 222.628C197.117 219.709 205.035 215.306 205.131 212.417Z" fill="#FCCBBD"/>
<path d="M205.141 196.353C205.141 196.353 219.57 202.466 225.597 194.16C235.722 201.622 234.564 183.808 235.343 200.12C235.94 212.598 207.859 223.362 185.148 223.362C186.286 213.698 183.79 205.756 180.16 202.466C197.886 200.595 205.141 196.353 205.141 196.353Z" fill="#E55135"/>
<rect x="184.046" y="63.5342" width="10.2402" height="4.42562" rx="2.21281" transform="rotate(-35.302 184.046 63.5342)" fill="#00A5D7"/>
<path d="M192.925 54.1221C190.136 54.1899 187.803 56.6389 187.871 59.4283C187.938 62.2177 189.979 64.1617 192.769 64.0939L193.167 64.0842L193.245 67.272C196.365 64.4051 198.299 61.9658 198.231 59.1764C198.163 56.387 196.113 54.0445 192.925 54.1221Z" fill="white"/>
</svg>
