<svg width="264" height="268" viewBox="0 0 264 268" fill="none" xmlns="http://www.w3.org/2000/svg">
<path d="M140.213 197.901C140.213 197.901 147.695 201.93 148.237 209.3C149.213 221.289 140.972 233.278 137.177 242.318C133.273 251.261 135.659 221.289 134.249 229.838C133.49 234.064 134.249 240.058 134.249 240.058L117.225 239.174C117.225 239.174 118.851 235.636 119.827 228.463C120.803 221.289 129.478 247.232 127.526 242.711C125.575 238.191 121.779 218.243 121.779 218.243L122.322 204.78L140.213 197.901Z" fill="#6B64B2"/>
<path d="M113.016 200.046C113.016 200.046 106.116 209.899 104.474 217.521C100.64 235.927 107.321 240.389 107.321 243.177C107.212 249.591 107.102 216.313 118.273 224.028C126.487 229.606 130.758 242.155 130.758 242.155C130.758 242.155 146.529 238.901 144.996 235.555C143.462 232.115 140.177 217.707 125.063 211.107C114.439 206.46 122.983 241.969 121.887 238.529C120.902 235.09 125.064 227.282 125.064 227.282L120.792 204.229L113.016 200.046Z" fill="#6B64B2"/>
<path d="M150.811 83.4779C150.811 83.4779 152.312 65.3587 151.347 57.8537C149.954 47.454 140.304 35.1243 127.224 32.9801C118.004 31.4791 104.816 33.7306 96.2393 38.7696C84.9818 45.3097 78.8706 60.2125 82.087 73.8287C84.1241 82.6202 90.6642 95.5931 90.6642 95.5931L150.811 83.4779Z" fill="#231F20"/>
<path d="M95.596 139.551C83.3735 117.893 88.091 91.5188 88.091 91.5188L121.542 112.962L123.9 116.5L124.973 113.391L151.776 83.585L165.821 113.176C175.899 134.297 162.498 159.171 139.339 162.28C139.018 162.28 138.696 162.387 138.374 162.387C132.585 163.138 128.082 163.352 124.437 163.352C123.472 163.567 122.399 163.674 121.327 163.888C90.6641 168.499 76.619 153.81 76.619 153.81C76.619 153.81 98.7052 145.126 95.596 139.551Z" fill="#231F20"/>
<path d="M143.414 137.299C143.092 139.872 136.338 144.054 131.835 145.019C110.07 149.95 110.821 141.48 110.821 141.48C110.821 141.48 108.355 134.94 104.388 124.648C101.815 117.786 96.99 104.277 96.6684 102.991L93.988 100.954L88.52 89.0527C88.52 89.0527 89.0561 88.8383 89.9138 88.3022C87.984 84.0137 86.2686 79.8323 85.8397 78.2241C84.8748 74.4716 87.984 50.5629 112.643 44.5589C139.125 38.126 146.952 68.4676 146.952 68.4676L147.166 83.1952L148.774 82.191C148.774 82.191 146.952 89.696 147.166 94.4135C147.809 108.566 145.772 121.753 143.414 137.299Z" fill="#F8C7AC"/>
<path fill-rule="evenodd" clip-rule="evenodd" d="M84.8745 95.4856C85.4106 98.5948 87.0188 100.846 89.6992 102.347C91.3074 103.312 93.13 103.848 94.9526 103.741C96.0248 103.634 97.0969 103.098 98.0619 102.669C98.2763 102.562 98.3835 101.918 98.2763 101.597C97.8474 100.417 97.2041 99.3453 96.7753 98.1659C96.132 96.7721 95.5959 95.4856 94.9526 94.0918C94.631 93.4485 94.0949 92.9124 93.666 92.2691C93.2372 91.7331 90.3424 88.6239 89.9135 88.195C88.8414 86.9084 89.9136 88.8383 88.4126 88.5166C86.1611 88.0878 85.3033 88.7311 84.7673 91.197C84.6601 91.8403 84.6601 92.5908 84.6601 93.3413C84.6601 94.0918 84.7673 94.8423 84.8745 95.4856ZM90.7713 99.1308C90.0208 98.8092 89.8063 98.5948 90.128 98.0587C90.4496 97.5226 90.6641 96.9866 90.8785 96.5577C91.0929 96.0216 90.9857 95.7 90.5569 95.5928C89.8064 95.3783 89.0559 95.2711 88.4126 95.0567C88.1982 94.9495 87.9837 94.7351 87.7693 94.5206C87.9837 94.4134 88.1982 94.0918 88.4126 94.0918C89.1631 94.199 89.9136 94.4134 90.6641 94.6279C92.7011 95.1639 93.5589 96.8793 93.9877 98.702C93.9877 98.9164 93.8805 99.1308 93.8805 99.3453C93.7733 99.3453 93.666 99.3453 93.666 99.4525C93.13 98.5948 92.7012 97.7371 92.1651 96.8794C91.629 97.6299 91.2002 98.3804 90.7713 99.1308Z" fill="#F8C7AC"/>
<path fill-rule="evenodd" clip-rule="evenodd" d="M90.7717 99.1309C91.2005 98.3804 91.6293 97.6299 92.0582 96.8794C92.4871 97.7371 93.0232 98.5948 93.5592 99.4525C93.6664 99.4525 93.7737 99.4525 93.7737 99.3453C93.7737 99.1309 93.8809 98.9164 93.8809 98.702C93.452 96.7721 92.5943 95.1639 90.5572 94.6279C89.8067 94.4134 89.0562 94.199 88.3057 94.0918C88.0913 94.0918 87.8769 94.3062 87.6625 94.5206C87.8769 94.7351 88.0913 94.9495 88.3057 95.0567C89.0562 95.2711 89.8067 95.3784 90.45 95.5928C90.9861 95.7 91.0933 96.1289 90.7717 96.5577C90.45 97.0938 90.3428 97.6299 90.0212 98.0587C89.914 98.5948 90.0212 98.8092 90.7717 99.1309Z" fill="#F3A478"/>
<path fill-rule="evenodd" clip-rule="evenodd" d="M155.207 83.5849C154.993 82.9416 154.886 82.1911 154.564 81.5479C153.385 79.2964 152.42 78.9747 150.383 79.9396C148.989 80.5829 147.917 81.7623 147.274 83.1561C147.166 83.4777 146.952 83.7994 146.738 84.121C146.63 84.3354 146.416 84.6571 146.309 84.9787C145.987 85.622 145.665 86.3725 145.558 87.0158C145.237 88.5168 145.129 89.9106 144.808 91.4116C144.593 92.6981 144.379 93.8775 144.164 95.1641C144.164 95.4857 144.486 96.0218 144.7 96.129C145.773 96.2362 146.952 96.4506 148.024 96.3434C149.847 96.0218 151.348 94.9496 152.742 93.6631C154.886 91.4116 155.851 88.8384 155.636 85.7292C155.422 84.9787 155.315 84.3354 155.207 83.5849ZM148.882 88.9456C148.667 89.9106 148.346 90.8755 148.131 91.8404C148.024 91.8404 147.917 91.8404 147.917 91.8404C147.81 91.626 147.702 91.4116 147.595 91.1971C147.595 89.2673 147.917 87.4446 149.74 86.3725C150.383 85.9436 151.133 85.622 151.777 85.3003C151.991 85.1931 152.205 85.4076 152.42 85.5148C152.205 85.7292 152.098 86.0509 151.884 86.1581C151.241 86.5869 150.597 86.9086 149.954 87.3374C149.525 87.6591 149.525 87.9807 149.847 88.4096C150.276 88.8384 150.597 89.2673 151.026 89.6961C151.455 90.125 151.348 90.3394 150.704 90.8755C150.168 90.125 149.525 89.5889 148.882 88.9456Z" fill="#F8C7AC"/>
<path fill-rule="evenodd" clip-rule="evenodd" d="M150.704 90.7684C150.061 90.1251 149.525 89.589 148.882 88.9457C148.667 89.9107 148.346 90.8756 148.131 91.8405C148.024 91.8405 147.917 91.8405 147.917 91.8405C147.81 91.6261 147.702 91.4117 147.595 91.1972C147.595 89.2674 147.917 87.4447 149.74 86.3726C150.383 85.9437 151.133 85.6221 151.777 85.3005C151.991 85.1932 152.205 85.4077 152.42 85.5149C152.205 85.7293 152.098 86.051 151.884 86.1582C151.241 86.587 150.597 86.9087 149.954 87.3375C149.525 87.6592 149.525 87.9808 149.847 88.4097C150.276 88.8385 150.597 89.2674 151.026 89.6962C151.455 90.0179 151.348 90.3395 150.704 90.7684Z" fill="#F3A478"/>
<path opacity="0.3" d="M129.369 104.813C129.369 104.813 128.94 110.817 121.328 111.89C121.435 111.89 129.154 114.57 129.369 104.813Z" fill="#E55135"/>
<path d="M120.899 51.4206C125.723 55.602 129.905 57.4246 138.375 63.107C147.059 69.0038 147.274 83.2632 147.274 83.2632C147.274 83.2632 154.135 65.8945 145.022 52.9216C133.336 36.089 113.93 43.3796 113.93 43.3796C113.93 43.3796 115.538 46.8104 120.899 51.4206Z" fill="#231F20"/>
<path d="M111.571 52.7073C106.961 60.9628 104.281 59.6762 97.6333 67.6101C90.7716 75.6511 91.2005 91.09 91.2005 91.09C91.2005 91.09 79.6214 77.9026 85.5182 61.1772C92.3799 41.7715 113.93 43.3797 113.93 43.3797C113.93 43.3797 114.573 47.3466 111.571 52.7073Z" fill="#231F20"/>
<path d="M98.8124 94.4137C99.6701 99.56 104.28 103.098 108.998 102.24C113.715 101.383 116.824 96.4508 115.967 91.3045C115.109 86.1582 110.499 82.6201 105.781 83.4778C100.957 84.3356 97.8475 89.2674 98.8124 94.4137Z" fill="white"/>
<path d="M106.317 87.1233C111.571 86.3728 114.573 87.7666 114.573 87.7666C112.75 84.5501 109.212 82.7275 105.674 83.3708C102.458 83.9068 99.9916 86.48 99.0267 89.5892C99.0267 89.6964 99.0267 89.8036 98.9195 89.9108C98.9195 89.9108 100.849 87.8738 106.317 87.1233Z" fill="#F3A478"/>
<path d="M98.9197 90.018C100.099 89.2675 101.386 88.8386 102.672 88.517C103.959 88.1954 105.245 87.8737 106.639 87.7665C107.926 87.5521 109.319 87.5521 110.606 87.5521C111.893 87.5521 113.286 87.6593 114.68 87.9809C113.501 87.2304 112.107 86.9088 110.713 86.6944C109.319 86.4799 107.926 86.5871 106.532 86.6944C105.138 86.9088 103.744 87.2304 102.458 87.7665C101.064 88.1954 99.8846 88.9459 98.9197 90.018Z" fill="#282832"/>
<path d="M105.996 92.162C104.066 91.8404 102.243 93.2342 101.815 95.3785C101.493 97.4155 102.78 99.4526 104.709 99.7742C106.639 100.096 108.462 98.7021 108.891 96.5578C109.212 94.4135 107.926 92.4837 105.996 92.162Z" fill="#262C42"/>
<path d="M101.719 98.5274C101.716 97.5208 102.482 96.7025 103.43 96.6999C104.377 96.6972 105.147 97.5111 105.15 98.5177C105.153 99.5243 104.387 100.343 103.44 100.345C102.492 100.348 101.722 99.534 101.719 98.5274Z" fill="white"/>
<path d="M104.281 87.2305C103.53 87.2305 102.673 87.2305 101.815 87.0161C101.064 86.8017 100.207 86.3728 99.885 85.6223C100.207 86.48 100.957 87.0161 101.708 87.2305C102.565 87.5522 103.316 87.6594 104.281 87.7666V87.2305Z" fill="#282832"/>
<path d="M101.171 88.3023C100.635 88.4095 99.9917 88.4095 99.4557 88.3023C98.9196 88.195 98.2763 88.0878 97.9546 87.5518C98.0619 87.8734 98.2763 88.0878 98.598 88.195C98.9196 88.3023 99.134 88.5167 99.4557 88.5167C100.099 88.7311 100.635 88.7311 101.278 88.7311L101.171 88.3023Z" fill="#282832"/>
<path d="M133.55 78.7603C128.833 79.1892 125.295 83.7994 125.831 89.0529C126.26 94.3064 130.548 98.1661 135.373 97.7372C140.09 97.3084 143.628 92.6982 143.092 87.4447C142.556 82.1912 138.375 78.3315 133.55 78.7603Z" fill="white"/>
<path d="M141.806 83.2632C141.806 83.156 141.698 83.0488 141.698 83.0488C139.983 80.2612 136.981 78.5458 133.657 78.8674C130.012 79.1891 127.225 81.9767 126.26 85.5147C126.26 85.5147 128.833 83.3704 134.086 82.6199C139.34 81.7622 141.806 83.2632 141.806 83.2632Z" fill="#F3A478"/>
<path d="M126.152 85.4074C127.332 84.7641 128.618 84.3353 129.905 83.9064C131.191 83.5848 132.478 83.2631 133.764 83.0487C135.051 82.8343 136.445 82.7271 137.731 82.7271C139.018 82.7271 140.412 82.7271 141.698 83.1559C140.519 82.2982 139.125 81.9766 137.731 81.7621C136.338 81.5477 134.944 81.6549 133.55 81.8694C132.156 82.0838 130.762 82.4054 129.476 82.9415C128.296 83.692 127.117 84.4425 126.152 85.4074Z" fill="#282832"/>
<path d="M129.261 93.0197C130.119 94.9496 132.263 95.8073 134.086 94.9496C135.908 94.0919 136.659 91.8404 135.801 89.9105C134.944 87.9807 132.799 87.123 130.977 87.9807C129.047 88.8384 128.296 91.0899 129.261 93.0197Z" fill="#262C42"/>
<path d="M131.609 96.2349C130.661 96.223 129.904 95.3974 129.916 94.3908C129.929 93.3843 130.707 92.5781 131.654 92.59C132.602 92.6019 133.359 93.4275 133.347 94.434C133.334 95.4405 132.556 96.2468 131.609 96.2349Z" fill="white"/>
<path d="M136.016 82.62C136.873 82.2984 137.624 81.9767 138.374 81.4407C139.018 80.9046 139.661 80.1541 139.768 79.2964C139.554 80.1541 138.91 80.7974 138.267 81.119C137.517 81.5479 136.766 81.8695 136.016 81.9767V82.62Z" fill="#282832"/>
<path d="M139.34 82.7273C139.983 82.5129 140.519 82.2984 141.055 81.9768C141.377 81.8696 141.591 81.6551 141.806 81.4407C142.02 81.2263 142.234 80.9047 142.234 80.583C142.02 81.2263 141.484 81.5479 140.948 81.7624C140.412 81.9768 139.768 82.084 139.232 82.1912L139.34 82.7273Z" fill="#282832"/>
<path opacity="0.3" d="M104.407 111.094C104.101 108.984 106.37 106.909 109.476 106.458C112.581 106.007 115.347 107.352 115.653 109.462C115.959 111.571 113.69 113.647 110.584 114.097C107.479 114.548 104.713 113.203 104.407 111.094Z" fill="#E55135"/>
<path opacity="0.3" d="M133.091 106.479C132.785 104.37 135.055 102.294 138.16 101.844C141.266 101.393 144.032 102.738 144.338 104.847C144.644 106.957 142.374 109.032 139.269 109.483C136.163 109.933 133.397 108.589 133.091 106.479Z" fill="#E55135"/>
<path d="M94.9527 150.487C96.132 133.332 103.744 136.549 109.212 137.299C108.891 137.514 112.429 142.66 126.259 143.625C136.123 144.375 143.842 137.514 143.521 137.299C147.38 138.479 157.995 140.73 157.995 156.276L150.275 165.604C150.811 168.284 150.275 172.894 143.092 177.505C142.877 177.612 134.408 185.117 146.201 202.378C146.416 202.7 142.127 208.168 129.69 209.991C117.253 211.92 105.245 209.669 105.46 209.347C117.36 192.086 110.07 177.612 109.963 177.505C102.779 172.787 102.243 168.284 102.779 165.604L94.9527 150.487Z" fill="#434CBA"/>
<path d="M117.897 169.142L116.825 168.07C116.61 167.855 116.503 167.426 116.717 167.212L125.83 147.914C125.938 147.699 125.938 147.485 125.83 147.377C125.294 145.662 120.148 140.409 120.577 138.371C120.577 138.371 120.577 136.763 121.756 137.514L127.439 140.945C127.653 141.481 128.404 141.588 128.725 141.159C131.513 137.728 140.948 126.363 143.628 126.042C146.737 125.72 139.554 135.048 139.554 135.048L144.7 132.475C145.236 132.153 145.88 132.689 145.772 133.332L145.343 135.584C145.343 135.691 145.236 135.906 145.129 136.013L143.521 137.621L142.234 138.908L140.841 140.301C140.626 140.516 140.519 140.945 140.733 141.266C141.377 142.446 142.663 145.448 140.412 147.056C137.946 148.878 133.979 151.988 133.228 152.631C133.121 152.738 133.014 152.845 133.014 152.953L124.008 174.181C123.793 174.717 123.15 174.824 122.721 174.395L117.897 169.142Z" fill="#FABAA4"/>
<path opacity="0.3" d="M120.684 138.157C120.684 138.157 120.684 136.549 121.864 137.299L127.546 140.73C128.189 141.159 128.511 141.373 128.833 140.945C131.62 137.514 141.055 126.149 143.735 125.827C143.735 125.827 130.119 142.553 128.189 143.089C126.152 143.625 120.684 138.157 120.684 138.157Z" fill="#E55135"/>
<path d="M117.897 169.142L116.825 168.07C116.61 167.855 116.503 167.426 116.717 167.212L125.831 147.914C125.938 147.699 125.938 147.485 125.831 147.377C125.831 147.377 126.688 147.699 126.474 149.093C126.367 150.487 117.897 169.142 117.897 169.142Z" fill="#EF8F60"/>
<path d="M131.191 180.828L120.041 175.253L115.967 180.828L128.082 187.476L131.191 180.828Z" fill="#F3A478"/>
<path d="M127.743 177.397L139 181.043C139 181.043 140.501 176.432 141.788 174.503C143.396 171.929 148.113 170.321 149.293 165.068C149.722 163.245 149.186 159.6 148.757 157.563C148.65 157.027 148.542 156.598 148.435 156.169C147.792 153.06 147.577 139.658 144.683 137.406C148.542 138.586 161.086 138.371 159.156 156.383C159.156 156.383 152.938 181.793 146.612 190.799C142.217 197.125 122.918 185.331 122.918 185.331L127.743 177.397Z" fill="#6B64B2"/>
<path d="M105.031 183.83L116.396 164.961L126.045 173.109C126.045 173.109 115.752 192.086 111.571 193.265C104.388 195.088 105.031 183.83 105.031 183.83Z" fill="#E55135"/>
<path d="M94.9527 151.452C95.5959 133.976 103.315 136.549 108.783 137.299C108.783 137.299 107.39 138.05 106.853 143.839C106.21 150.272 106.532 157.992 107.604 163.138C108.998 170.214 112.107 185.01 113.179 188.869C113.715 190.585 113.286 191.871 112.321 192.622C110.499 194.123 106.532 193.587 103.744 190.477C93.8805 179.863 94.9527 151.452 94.9527 151.452Z" fill="#E55135"/>
<path d="M190.695 213.85C190.695 213.85 186.621 219.532 185.87 220.926C185.87 220.926 189.516 228.11 191.124 229.289C191.124 229.289 187.05 229.611 186.514 231.755C185.978 233.899 190.052 237.437 195.305 235.293L196.592 234.542L190.695 213.85Z" fill="#FFD9D8"/>
<path d="M180.295 155.311L178.151 159.921C178.151 159.921 175.578 191.978 178.473 202.164C181.367 212.349 188.98 226.072 188.98 226.072L196.377 223.07L180.295 155.311Z" fill="#6FCCDD"/>
<path d="M232.294 176.325C229.828 208.168 242.051 234.436 242.051 234.436C218.785 253.52 196.056 237.545 196.056 237.545C196.056 237.545 194.233 234.436 188.015 210.098C181.046 182.973 180.295 155.311 180.295 155.311L181.689 151.345L228.327 146.734L228.971 150.272L228.006 151.345C228.435 151.023 228.649 150.916 228.649 150.916" fill="#27C1DD"/>
<path d="M220.286 38.2336C189.087 34.9099 180.403 62.3567 180.403 62.3567L179.759 69.5401C178.044 72.1132 177.937 90.9829 177.937 90.9829L180.403 92.4839C179.652 92.1623 179.009 91.9478 178.258 91.6262C177.829 91.519 177.508 91.1973 177.186 91.0901C175.042 90.2324 173.97 91.1973 174.184 93.5561C175.149 106.1 182.44 106.636 183.083 107.279C182.976 107.387 182.976 107.494 182.868 107.601C181.046 107.494 179.866 106.422 178.794 105.135C179.009 111.246 179.866 137.728 182.44 151.237C182.547 151.344 182.761 151.452 182.976 151.452C183.297 151.559 183.726 151.559 184.048 151.666C185.87 151.988 187.693 152.417 189.623 152.738C192.089 153.06 194.662 153.274 197.128 153.382C199.594 153.489 202.06 153.596 204.526 153.489C206.884 153.382 209.35 153.167 211.709 152.738C214.389 152.202 217.07 151.452 219.857 150.808C222.216 150.272 224.682 149.736 226.826 148.557C227.791 148.021 227.898 147.378 228.006 146.52C228.327 143.518 228.649 140.623 228.971 137.621C229.399 134.083 230.686 130.759 230.9 127.114C231.115 124.112 231.973 121.217 232.509 118.323C232.723 117.143 233.152 115.964 233.366 114.677C233.795 112.426 234.117 110.174 234.546 107.923C234.867 106.207 235.403 104.492 235.725 102.776C236.261 100.311 236.69 97.8446 237.226 95.2715C237.44 93.9849 237.655 92.5911 237.869 91.1973L240.55 88.6242L244.945 75.1152C244.945 75.1152 244.302 74.9008 243.23 74.5791C244.731 69.7545 246.125 65.0371 246.339 63.2144C246.875 59.0331 251.378 41.5572 220.286 38.2336Z" fill="#FFC2AD"/>
<path fill-rule="evenodd" clip-rule="evenodd" d="M256.632 74.7934C256.524 73.9357 256.417 72.9708 256.095 72.1131C255.023 69.1111 253.844 68.4678 251.056 69.3255C249.127 69.9688 247.626 71.1482 246.446 72.9708C246.017 73.7213 245.374 74.3646 244.945 75.1151C244.409 75.9728 243.873 76.7233 243.551 77.6882C242.908 79.5109 242.479 81.3335 241.836 83.2634C241.407 84.8716 240.764 86.3726 240.442 87.9808C240.335 88.3024 240.657 89.1602 240.978 89.2674C242.372 89.6962 243.766 90.1251 245.16 90.1251C247.626 90.0179 249.77 88.9457 251.7 87.4447C254.809 84.9788 256.524 81.7624 256.739 77.6882C256.632 76.6161 256.739 75.6512 256.632 74.7934Z" fill="#FFC2AD"/>
<path fill-rule="evenodd" clip-rule="evenodd" d="M249.662 83.156C249.019 82.2983 248.376 81.3333 247.625 80.3684C247.197 81.5478 246.66 82.7271 246.124 84.0137C246.017 84.0137 245.91 84.0137 245.803 84.0137C245.696 83.6921 245.481 83.4776 245.588 83.156C245.91 80.5828 246.66 78.3314 249.126 77.2592C250.091 76.8304 251.056 76.5087 252.021 76.1871C252.236 76.0799 252.557 76.4015 252.879 76.6159C252.664 76.8304 252.45 77.2592 252.128 77.3664C251.271 77.7953 250.306 78.1169 249.448 78.5458C248.805 78.8674 248.698 79.2963 249.126 79.9396C249.555 80.5828 249.877 81.2261 250.413 81.7622C250.735 82.2983 250.627 82.6199 249.662 83.156Z" fill="#F69676"/>
<path d="M214.925 70.0761C209.136 69.8616 204.311 74.7935 203.99 81.1191C203.775 87.4448 208.171 92.8055 213.96 93.0199C219.75 93.2343 224.575 88.3025 224.896 81.9768C225.111 75.6512 220.715 70.3977 214.925 70.0761Z" fill="white"/>
<path fill-rule="evenodd" clip-rule="evenodd" d="M189.194 73.6141C191.553 76.9378 192.946 85.8365 188.872 87.8736C181.153 91.9477 175.899 76.4017 182.547 71.8987C184.691 70.6121 187.05 70.6121 189.194 73.6141Z" fill="white"/>
<path d="M174.506 95.2715C174.506 95.2715 176.757 106.743 191.66 106.743C191.66 106.851 177.508 114.141 174.506 95.2715Z" fill="#F69676"/>
<path fill-rule="evenodd" clip-rule="evenodd" d="M256.846 64.5009C258.883 59.6762 262.207 52.064 262.207 51.2063C262.207 49.9198 253.094 30.2996 251.164 29.8707C249.341 29.3346 240.657 29.7635 240.657 29.7635C237.869 25.6894 237.012 23.5451 237.012 23.5451C215.891 18.3988 204.633 19.8998 200.237 21.0791C199.808 21.1864 199.272 21.2936 198.843 21.4008C198.522 21.508 198.2 21.6152 197.986 21.8296C181.368 16.2545 175.9 41.021 164.106 33.6232C162.927 54.53 188.015 49.8125 188.015 49.8125C188.015 49.8125 188.658 49.062 192.625 45.9528C206.456 35.1242 224.682 39.1983 228.649 41.1282C240.657 47.025 243.981 53.029 243.981 53.029C243.981 53.029 241.622 56.7815 239.799 62.4638C237.977 68.1462 239.692 74.7934 239.692 74.7934L245.91 76.1872C248.912 72.2203 254.166 70.076 254.166 70.076L255.238 68.1462C255.238 68.1462 255.453 67.5029 255.881 66.5379C256.203 66.0019 256.525 65.2514 256.846 64.5009Z" fill="#FED065"/>
<path fill-rule="evenodd" clip-rule="evenodd" d="M245.803 76.2943L239.585 74.9006C239.585 74.9006 237.869 68.2533 239.692 62.5709C241.515 56.8886 243.873 53.1361 243.873 53.1361C243.873 53.1361 240.657 47.0249 228.542 41.2353C224.575 39.3055 206.134 34.8025 192.518 46.0599C187.908 49.9197 187.908 49.9197 187.908 49.9197C187.908 49.9197 164.428 57.103 163.999 33.7303C167.751 43.3796 192.84 37.6972 192.84 37.6972C192.84 37.6972 201.953 32.3365 214.282 32.7654C226.612 33.3015 243.445 46.7032 243.766 53.2433C243.873 54.5299 246.447 60.2122 252.129 58.8184C257.275 57.6391 261.885 48.8475 262.1 51.2062C262.207 52.7072 255.238 68.3605 253.952 70.2903C250.414 75.8655 245.803 76.2943 245.803 76.2943Z" fill="#F5BA66"/>
<path d="M182.439 83.5851C182.761 85.5149 184.477 86.8015 186.085 86.4798C187.693 86.1582 188.765 84.3356 188.336 82.4057C188.015 80.4759 186.299 79.1893 184.691 79.5109C183.083 79.8326 182.118 81.6552 182.439 83.5851Z" fill="#00A6D2"/>
<path d="M185.565 81.9334C185.41 80.9988 185.947 80.1312 186.765 79.9956C187.583 79.8599 188.371 80.5077 188.526 81.4423C188.681 82.3769 188.144 83.2445 187.326 83.3801C186.509 83.5157 185.72 82.868 185.565 81.9334Z" fill="white"/>
<path d="M208.064 86.4797C208.814 88.9457 211.28 90.3395 213.532 89.589C215.783 88.8385 217.07 86.2653 216.319 83.9066C215.569 81.4407 213.103 80.0469 210.851 80.7974C208.492 81.5479 207.313 84.121 208.064 86.4797Z" fill="#00A6D2"/>
<path d="M214.893 85.1957C213.708 85.1862 212.756 84.2184 212.766 83.0342C212.775 81.8499 213.743 80.8976 214.927 80.9071C216.111 80.9166 217.064 81.8843 217.054 83.0686C217.045 84.2529 216.077 85.2052 214.893 85.1957Z" fill="white"/>
<path d="M205.384 65.466C204.847 65.8949 206.992 55.1734 216.855 56.1384C226.719 57.8538 227.47 68.8969 227.041 68.3608C227.041 68.7896 225.325 63.7506 220.072 61.7135C215.462 59.462 207.206 60.2125 205.384 65.466Z" fill="#FBD065"/>
<path d="M195.52 63.6431C195.842 64.072 195.734 55.7093 188.229 55.066C180.617 54.9588 178.58 62.9998 178.902 62.7854C178.794 63.1071 180.832 59.569 185.013 58.8185C188.873 57.7464 194.877 59.4618 195.52 63.6431Z" fill="#FBD065"/>
<path d="M106.746 72.9709C109.319 72.8637 111.464 73.6142 113.179 74.5791L112.858 77.9028C110.713 75.9729 106.746 75.2224 103.744 76.0801C99.6702 76.8306 96.9899 80.3687 97.0971 80.1543C96.7754 80.3687 99.4558 73.3998 106.746 72.9709Z" fill="#262C42"/>
<path d="M131.835 71.0411C129.261 71.1483 127.224 72.1132 125.616 73.1854L126.259 76.4018C128.189 74.2575 132.049 73.0782 135.158 73.7214C139.339 74.1503 142.341 77.3667 142.127 77.1523C142.449 77.3667 139.232 70.7195 131.835 71.0411Z" fill="#262C42"/>
<path d="M121.542 118.751C122.185 118.108 123.043 117.572 124.008 117.357C124.115 117.357 124.222 117.357 124.33 117.357C124.437 117.357 124.544 117.357 124.651 117.357C125.616 117.357 126.581 117.572 127.332 118.001C128.94 118.858 130.655 121.968 130.119 124.755C129.583 127.757 127.868 129.044 125.831 129.258C123.901 129.58 121.864 128.937 120.577 126.149C119.398 123.469 120.255 120.038 121.542 118.751Z" fill="#E96E52"/>
<path d="M121.971 122.933C121.971 122.933 122.829 122.718 123.258 121.753C123.579 121.003 124.008 120.467 124.651 120.359C125.295 120.252 126.045 120.681 126.796 121.539C127.546 122.397 127.975 122.289 127.975 122.289C127.975 122.289 127.117 122.933 126.903 124.219C126.581 125.827 124.223 125.935 123.472 124.755C122.936 123.683 121.971 122.933 121.971 122.933Z" fill="#753528"/>
<path fill-rule="evenodd" clip-rule="evenodd" d="M210.529 118.859C209.886 122.182 203.775 134.19 198.092 136.763C194.126 138.479 192.517 136.978 190.373 133.976C187.157 129.58 187.693 125.184 187.585 124.648C189.086 113.391 198.414 114.677 210.529 118.859Z" fill="#85322C"/>
<path d="M200.452 125.506C203.132 123.683 206.134 122.933 208.814 123.254C206.456 128.079 202.167 134.833 198.093 136.656C196.914 137.192 196.056 137.407 195.198 137.407C194.126 133.44 196.163 128.508 200.452 125.506Z" fill="#E78482"/>
<path d="M85.0889 217.067L77.2622 219.211C73.617 219.211 85.0889 217.067 85.0889 217.067Z" fill="#B4CAD1"/>
<path d="M85.1963 216.745L77.3697 218.889C73.7244 218.889 85.1963 216.745 85.1963 216.745Z" fill="#F1F9FB"/>
<path d="M183.619 181.043L178.366 175.789L176.114 171.072C176.114 171.072 171.718 167.212 170.217 166.354C168.824 165.389 165.607 163.567 165.714 166.783C165.822 169.785 169.038 173.645 169.038 173.645C169.038 173.645 156.708 171.393 154.242 171.608C148.775 172.037 149.203 174.717 149.203 174.717L154.35 176.647C154.35 176.647 152.205 179.435 152.313 180.828C152.527 183.294 155.1 184.474 155.1 184.474C155.1 184.474 155.529 186.725 157.566 188.333C159.71 190.049 180.188 191.014 180.188 191.014L183.619 181.043Z" fill="#FABAA4"/>
<path d="M228.971 150.165C228.971 150.165 232.83 154.775 237.226 160.779C241.622 166.783 239.799 210.848 239.799 210.848L235.94 213.85L174.72 190.478L180.188 177.183L220.715 189.941V160.779L228.971 150.165Z" fill="#6FCCDD"/>
<path d="M25.5403 249.322H257.123C257.23 249.322 257.445 249.322 257.552 249.322C259.803 249.108 260.983 246.427 259.911 244.39L259.374 243.211L23.8249 242.889L22.9672 244.283C21.7879 246.32 22.86 249.108 25.2187 249.322C25.2187 249.322 25.3259 249.322 25.5403 249.322Z" fill="#D3D2DC"/>
<path d="M24.8972 243.526H258.517C259.267 243.526 259.696 242.561 259.053 242.025L239.218 222.405C238.897 222.083 238.361 221.869 237.824 221.869H44.6246C44.0885 221.869 43.6596 222.083 43.2308 222.405L23.9322 241.489C23.2889 242.239 23.825 243.526 24.8972 243.526Z" fill="#F3F3F4"/>
<path d="M27.684 208.415L130.181 216.885C134.684 217.099 139.83 212.811 139.83 208.951L133.719 135.295C133.397 131.435 129.538 128.54 125.035 128.862L18.7853 134.973C15.6761 135.187 11.8164 137.975 12.0308 141.084L22.2161 202.411C22.1089 205.627 24.5748 208.308 27.684 208.415Z" fill="#D3D2DC"/>
<path d="M23.1807 210.773L129.859 216.885C134.362 217.099 138.114 214.204 138.114 210.452L132.003 136.796C131.681 132.936 127.822 130.041 123.319 130.363L17.0695 136.474C13.9603 136.688 11.7088 139.262 12.0304 142.371L17.7127 204.769C17.6055 207.986 20.0715 210.559 23.1807 210.773Z" fill="#F3F3F7"/>
<path d="M57.275 233.181L64.5656 231.894C66.0666 231.894 71.3201 228.249 78.7178 228.678C100.053 230.072 82.6848 238.863 82.6848 238.863L53.8441 234.682L57.275 233.181Z" fill="#D3D2DC"/>
<path d="M57.0605 232.645L64.4583 231.358C65.9593 231.358 69.6046 227.713 77.0023 228.035C100.375 229.107 82.5775 238.327 82.5775 238.327L53.5225 234.468L57.0605 232.645Z" fill="#F1F9FB"/>
<path d="M54.3802 234.468L83.0063 238.542L82.8991 185.685C82.8991 178.287 76.7879 172.498 69.6046 173.141C63.815 173.57 59.2048 178.287 58.6687 184.291L54.3802 234.468Z" fill="#D3D2DC"/>
<path d="M53.7372 234.789L82.3633 238.864V185.578C82.3633 178.288 76.3593 172.605 69.2832 173.141C63.4936 173.57 58.9906 178.288 58.3474 184.184L53.7372 234.789Z" fill="#FDFEFE"/>
<path d="M69.2283 147.542C65.6902 146.684 62.1522 149.257 61.9377 153.439C61.7233 157.727 64.2965 160.408 68.2634 160.3H68.4778L68.2634 164.482C72.0159 160.622 73.9458 157.942 74.1602 154.833C74.3746 151.509 72.3375 148.293 69.2283 147.542Z" fill="#00A5D7"/>
<path d="M167.921 220.985C167.707 225.702 172.531 231.384 174.676 228.061C177.356 224.094 183.36 224.308 183.36 219.698C183.36 213.051 176.927 212.836 174.783 214.552C171.781 217.125 168.135 216.374 167.921 220.985Z" stroke="#00A5D7" stroke-width="3.2835" stroke-miterlimit="10"/>
<path d="M164.598 235.458C158.084 235.458 152.804 233.826 152.804 231.813C152.804 229.8 158.084 228.168 164.598 228.168C171.111 228.168 176.391 229.8 176.391 231.813C176.391 233.826 171.111 235.458 164.598 235.458Z" fill="#00A5D7"/>
<path d="M152.804 209.405H176.284V231.706H152.804V209.405Z" fill="#00A5D7"/>
<path d="M164.544 213.051C158.06 213.051 152.804 211.419 152.804 209.406C152.804 207.392 158.06 205.76 164.544 205.76C171.028 205.76 176.284 207.392 176.284 209.406C176.284 211.419 171.028 213.051 164.544 213.051Z" fill="#00A5D7"/>
<path d="M164.544 212.274C158.532 212.274 153.658 210.934 153.658 209.281C153.658 207.629 158.532 206.289 164.544 206.289C170.557 206.289 175.431 207.629 175.431 209.281C175.431 210.934 170.557 212.274 164.544 212.274Z" fill="#A4E7FC"/>
<path d="M165.257 218.733C162.899 218.197 160.647 219.912 160.433 222.593C160.218 225.38 162.041 227.203 164.614 227.096H164.828L164.721 229.883C167.187 227.31 168.474 225.595 168.581 223.558C168.581 221.199 167.294 219.162 165.257 218.733Z" fill="white"/>
</svg>
