<svg width="80" height="80" viewBox="0 0 80 80" fill="none" xmlns="http://www.w3.org/2000/svg">
<g opacity="0.8">
<rect width="80" height="80" rx="10" fill="#E6E6F0"/>
<rect width="80" height="80" rx="10" fill="url(#paint0_linear)"/>
<rect width="80" height="80" rx="10" fill="url(#paint1_linear)"/>
</g>
<g clip-path="url(#clip0)">
<path opacity="0.5" d="M39.711 3C19.4566 3 3 18.8 3 38C3 57.8 16.5028 70.8 38.2341 70.8H39.711V93C62.9191 73.2 76 57.6 76 39.2C76 18.8 59.9653 3 39.711 3Z" stroke="white" stroke-width="2"/>
<path opacity="0.1" d="M8.61271 -17C-2.2081 -17 -11 -8.39778 -11 2.05556C-11 12.8356 -3.78615 19.9133 7.82368 19.9133H8.61271V32C21.0116 21.22 28 12.7267 28 2.70889C28 -8.39778 19.4335 -17 8.61271 -17Z" fill="white"/>
</g>
<path d="M24.8086 49.9509C25.5377 52.199 27.7538 53.6336 30.1183 53.6336H30.2111C30.6432 55.7703 32.5369 57.3838 34.8069 57.3838C35.5782 57.3838 36.2989 57.1897 36.9369 56.8555C37.482 56.5686 37.8061 55.9829 37.8061 55.3669V25.3618C37.8061 24.5669 37.2593 23.8597 36.4812 23.7028C35.7099 23.5458 34.8508 23.6285 33.985 24.042C32.7293 24.6429 31.9934 25.9846 31.9934 27.3804V27.4732C31.693 27.4158 31.3723 27.3804 31.055 27.3804C28.4677 27.3804 26.3681 29.48 26.3681 32.0673C26.3681 33.1559 26.7428 34.1669 27.3622 34.9551C24.6803 35.3686 22.6162 37.6926 22.6162 40.5061C22.6162 42.4943 23.6474 44.2378 25.2036 45.2521C24.4778 46.5534 24.2398 48.199 24.8086 49.9509ZM51.6255 34.9551C52.2466 34.1669 52.6196 33.1559 52.6196 32.0673C52.6196 29.48 50.52 27.3804 47.9327 27.3804C47.6154 27.3804 47.2947 27.4158 46.9943 27.4732V27.3804C46.9943 25.9863 46.2567 24.6429 45.001 24.042C44.1369 23.6285 43.2778 23.5458 42.5065 23.7028C41.7284 23.8614 41.1816 24.5686 41.1816 25.3618V55.3652C41.1816 55.9812 41.5057 56.5669 42.0525 56.8538C42.6905 57.1897 43.4095 57.3838 44.1808 57.3838C46.4508 57.3838 48.3445 55.7703 48.7766 53.6319H48.8711C51.2339 53.6319 53.4517 52.1973 54.1808 49.9492C54.7495 48.1973 54.5116 46.5517 53.7858 45.2504C55.3403 44.2378 56.3715 42.4943 56.3715 40.5061C56.3715 37.6926 54.3074 35.3686 51.6255 34.9551Z" fill="white"/>
<defs>
<linearGradient id="paint0_linear" x1="-3.05511e-06" y1="-16.7089" x2="94.6835" y2="139.747" gradientUnits="userSpaceOnUse">
<stop stop-color="#0BB4E1"/>
<stop offset="1" stop-color="#0D82C3"/>
</linearGradient>
<linearGradient id="paint1_linear" x1="40" y1="0" x2="40" y2="80" gradientUnits="userSpaceOnUse">
<stop stop-color="#F256A0"/>
<stop offset="1" stop-color="#E3237D"/>
</linearGradient>
<clipPath id="clip0">
<rect width="80" height="80" rx="10" fill="white"/>
</clipPath>
</defs>
</svg>
