<svg width="80" height="81" viewBox="0 0 80 81" fill="none" xmlns="http://www.w3.org/2000/svg">
<g opacity="0.8">
<rect y="0.378143" width="80" height="80" rx="10" fill="#E6E6F0"/>
<rect y="0.378143" width="80" height="80" rx="10" fill="url(#paint0_linear)"/>
<rect y="0.378143" width="80" height="80" rx="10" fill="url(#paint1_linear)"/>
</g>
<g clip-path="url(#clip0)">
<path opacity="0.1" d="M65.6358 -17.6219C52.5954 -17.6219 42 -7.26408 42 5.32259C42 18.3026 50.6936 26.8248 64.6849 26.8248H65.6358V41.3781C80.578 28.3981 89 18.1715 89 6.10925C89 -7.26408 78.6763 -17.6219 65.6358 -17.6219Z" fill="white"/>
<path opacity="0.5" d="M2.71097 22.3781C-17.5434 22.3781 -34 38.1781 -34 57.3781C-34 77.1781 -20.4972 90.1781 1.23406 90.1781H2.71097V112.378C25.9191 92.5781 39 76.9781 39 58.5781C39 38.1781 22.9653 22.3781 2.71097 22.3781Z" stroke="white" stroke-width="2"/>
</g>
<path d="M40.0002 25.7115C30.8102 25.7115 23.3335 33.1882 23.3335 42.3782C23.3335 51.5682 30.8102 59.0448 40.0002 59.0448C49.1902 59.0448 56.6668 51.5682 56.6668 42.3782C56.6668 33.1882 49.1902 25.7115 40.0002 25.7115ZM40.0002 55.7115C32.6485 55.7115 26.6668 49.7298 26.6668 42.3782C26.6668 35.0265 32.6485 29.0448 40.0002 29.0448C47.3518 29.0448 53.3335 35.0265 53.3335 42.3782C53.3335 49.7298 47.3518 55.7115 40.0002 55.7115Z" fill="white"/>
<path d="M41.6668 35.7115C41.6668 34.791 40.9206 34.0448 40.0002 34.0448C39.0797 34.0448 38.3335 34.791 38.3335 35.7115V43.0681L42.6435 47.3781C43.2943 48.0289 44.3494 48.0289 45.0002 47.3781C45.6509 46.7274 45.6509 45.6722 45.0002 45.0215L41.6668 41.6881V35.7115Z" fill="white"/>
<defs>
<linearGradient id="paint0_linear" x1="-3.05511e-06" y1="-16.3307" x2="94.6835" y2="140.125" gradientUnits="userSpaceOnUse">
<stop stop-color="#0BB4E1"/>
<stop offset="1" stop-color="#0D82C3"/>
</linearGradient>
<linearGradient id="paint1_linear" x1="4.55696" y1="-13.7991" x2="40" y2="80.3781" gradientUnits="userSpaceOnUse">
<stop stop-color="#FB765C"/>
<stop offset="1" stop-color="#F03A27"/>
</linearGradient>
<clipPath id="clip0">
<rect y="0.378143" width="80" height="80" rx="10" fill="white"/>
</clipPath>
</defs>
</svg>
