<svg width="590" height="444" viewBox="0 0 590 444" fill="none" xmlns="http://www.w3.org/2000/svg">
<g clip-path="url(#clip0)">
<g opacity="0.1" filter="url(#filter0_f)">
<rect width="269.975" height="186.061" rx="20" transform="matrix(0.994522 -0.104528 0.103204 0.99466 222 88.22)" fill="url(#paint0_linear)" fill-opacity="0.8"/>
<rect x="1.09773" y="0.890132" width="267.975" height="184.061" rx="19" transform="matrix(0.994522 -0.104528 0.103204 0.99466 221.914 88.3395)" stroke="url(#paint1_linear)" stroke-opacity="0.8" stroke-width="2"/>
<rect x="1.09773" y="0.890132" width="267.975" height="184.061" rx="19" transform="matrix(0.994522 -0.104528 0.103204 0.99466 221.914 88.3395)" stroke="url(#paint2_linear)" stroke-width="2"/>
</g>
<mask id="mask0" mask-type="alpha" maskUnits="userSpaceOnUse" x="139" y="38" width="485" height="418">
<path fill-rule="evenodd" clip-rule="evenodd" d="M143.431 91.2142C138.21 97.6531 139.183 107.031 141.129 125.786L171.515 418.647C173.461 437.402 174.434 446.78 180.865 451.994C187.295 457.208 196.671 456.223 215.424 454.252L278.861 447.585C260.46 449.518 251.2 450.436 244.83 445.271C238.4 440.057 237.427 430.679 235.481 411.924L214.504 209.749C212.558 190.993 211.585 181.616 216.806 175.177C222.027 168.738 231.403 167.752 250.156 165.781L579.354 131.181C598.107 129.21 607.484 128.225 613.914 133.439C620.282 138.603 621.298 147.85 623.207 166.247L613.854 76.1009C611.908 57.3454 610.935 47.9677 604.505 42.7534C598.074 37.5391 588.698 38.5246 569.945 40.4956L176.781 81.8188C158.028 83.7898 148.652 84.7753 143.431 91.2142Z" fill="#C4C4C4"/>
</mask>
<g mask="url(#mask0)">
<rect x="1.09773" y="0.890132" width="487.713" height="459.161" rx="19" transform="matrix(0.994522 -0.104528 0.103204 0.99466 169.914 314.308)" fill="url(#paint3_linear)" fill-opacity="0.1"/>
<rect x="1.09773" y="0.890132" width="487.713" height="459.161" rx="19" transform="matrix(0.994522 -0.104528 0.103204 0.99466 169.914 314.308)" stroke="url(#paint4_linear)" stroke-opacity="0.1" stroke-width="2"/>
<rect x="1.09773" y="0.890132" width="487.713" height="459.161" rx="19" transform="matrix(0.994522 -0.104528 0.103204 0.99466 169.914 314.308)" stroke="url(#paint5_linear)" stroke-width="2"/>
<rect x="1.09773" y="0.890132" width="487.713" height="459.161" rx="19" transform="matrix(0.994522 -0.104528 0.103204 0.99466 221.914 87.3085)" fill="url(#paint6_linear)" fill-opacity="0.1"/>
<rect x="1.09773" y="0.890132" width="487.713" height="459.161" rx="19" transform="matrix(0.994522 -0.104528 0.103204 0.99466 221.914 87.3085)" stroke="url(#paint7_linear)" stroke-opacity="0.1" stroke-width="2"/>
<rect x="1.09773" y="0.890132" width="487.713" height="459.161" rx="19" transform="matrix(0.994522 -0.104528 0.103204 0.99466 221.914 87.3085)" stroke="url(#paint8_linear)" stroke-width="2"/>
</g>
<mask id="mask1" mask-type="alpha" maskUnits="userSpaceOnUse" x="212" y="129" width="434" height="321">
<rect width="411.011" height="283.26" rx="20" transform="matrix(0.994522 -0.104528 0.103204 0.99466 210.375 169.962)" fill="#C4C4C4"/>
</mask>
<g mask="url(#mask1)">
<g filter="url(#filter1_f)">
<rect x="1.09773" y="0.890132" width="487.713" height="459.161" rx="19" transform="matrix(0.994522 -0.104528 0.103204 0.99466 169.914 314.308)" fill="url(#paint9_linear)" fill-opacity="0.1"/>
<rect x="1.09773" y="0.890132" width="487.713" height="459.161" rx="19" transform="matrix(0.994522 -0.104528 0.103204 0.99466 169.914 314.308)" stroke="url(#paint10_linear)" stroke-opacity="0.1" stroke-width="2"/>
<rect x="1.09773" y="0.890132" width="487.713" height="459.161" rx="19" transform="matrix(0.994522 -0.104528 0.103204 0.99466 169.914 314.308)" stroke="url(#paint11_linear)" stroke-width="2"/>
<rect x="1.09773" y="0.890132" width="487.713" height="459.161" rx="19" transform="matrix(0.994522 -0.104528 0.103204 0.99466 221.914 87.3085)" fill="url(#paint12_linear)" fill-opacity="0.1"/>
<rect x="1.09773" y="0.890132" width="487.713" height="459.161" rx="19" transform="matrix(0.994522 -0.104528 0.103204 0.99466 221.914 87.3085)" stroke="url(#paint13_linear)" stroke-opacity="0.1" stroke-width="2"/>
<rect x="1.09773" y="0.890132" width="487.713" height="459.161" rx="19" transform="matrix(0.994522 -0.104528 0.103204 0.99466 221.914 87.3085)" stroke="url(#paint14_linear)" stroke-width="2"/>
</g>
</g>
<rect x="1.09773" y="0.890132" width="409.011" height="281.26" rx="19" transform="matrix(0.994522 -0.104528 0.103204 0.99466 210.289 170.082)" fill="url(#paint15_linear)" fill-opacity="0.8"/>
<rect x="1.09773" y="0.890132" width="409.011" height="281.26" rx="19" transform="matrix(0.994522 -0.104528 0.103204 0.99466 210.289 170.082)" stroke="url(#paint16_linear)" stroke-opacity="0.8" stroke-width="2"/>
<rect x="1.09773" y="0.890132" width="409.011" height="281.26" rx="19" transform="matrix(0.994522 -0.104528 0.103204 0.99466 210.289 170.082)" stroke="url(#paint17_linear)" stroke-width="2"/>
<g opacity="0.99">
<g opacity="0.96" filter="url(#filter2_d)">
<rect width="100.568" height="100" rx="20" transform="matrix(0.994522 -0.104528 0.103204 0.99466 239.176 200.742)" fill="url(#paint18_linear)"/>
<rect x="1.09773" y="0.890132" width="98.5678" height="98" rx="19" transform="matrix(0.994522 -0.104528 0.103204 0.99466 239.09 200.862)" stroke="url(#paint19_linear)" stroke-width="2"/>
<rect x="1.09773" y="0.890132" width="98.5678" height="98" rx="19" transform="matrix(0.994522 -0.104528 0.103204 0.99466 239.09 200.862)" stroke="url(#paint20_linear)" stroke-width="2"/>
</g>
<g filter="url(#filter3_i)">
<path fill-rule="evenodd" clip-rule="evenodd" d="M322.113 221.406C320.26 219.751 317.419 219.914 315.767 221.771L310.418 227.787L288.327 252.63C288.052 252.94 287.858 253.313 287.762 253.716L285.446 263.463C280.228 264.673 276.209 264.784 273.323 264.288C269.999 263.717 268.508 262.422 267.995 261.43C267.544 260.556 267.531 259.283 268.769 257.721C270.036 256.122 272.54 254.405 276.548 253.307C281.2 252.032 284.426 249.888 285.719 246.829C287.052 243.673 285.949 240.5 284.109 238.124C282.258 235.734 279.418 233.765 276.277 232.603C273.126 231.437 269.465 231.008 265.957 231.969C264.625 232.334 263.842 233.709 264.206 235.041C264.57 236.374 265.945 237.158 267.276 236.793C269.571 236.164 272.148 236.408 274.543 237.295C276.95 238.185 278.967 239.649 280.159 241.189C281.362 242.743 281.489 243.996 281.115 244.881C280.701 245.862 279.282 247.372 275.229 248.483C270.532 249.77 266.97 251.942 264.853 254.613C262.707 257.32 261.99 260.696 263.555 263.727C265.059 266.638 268.304 268.501 272.477 269.218C276.168 269.852 280.851 269.654 286.491 268.354C287.048 268.574 287.676 268.589 288.257 268.378L299.562 264.26C299.95 264.118 300.298 263.882 300.573 263.573L322.664 238.73L328.013 232.714C329.665 230.857 329.502 228.009 327.649 226.353L322.113 221.406ZM315.807 229.25L319.163 225.476L323.953 229.757L320.597 233.53L315.807 229.25ZM312.484 232.987L317.274 237.267L298.506 258.373L293.716 254.093L312.484 232.987ZM291.651 258.954L293.926 260.986L290.907 262.086L291.651 258.954Z" fill="url(#paint21_linear)"/>
</g>
</g>
<g opacity="0.99">
<g opacity="0.96" filter="url(#filter4_d)">
<rect width="100.568" height="100" rx="20" transform="matrix(0.994522 -0.104528 0.103204 0.99466 367.113 301.526)" fill="url(#paint22_linear)"/>
<rect x="1.09773" y="0.890132" width="98.5678" height="98" rx="19" transform="matrix(0.994522 -0.104528 0.103204 0.99466 367.027 301.645)" stroke="url(#paint23_linear)" stroke-width="2"/>
<rect x="1.09773" y="0.890132" width="98.5678" height="98" rx="19" transform="matrix(0.994522 -0.104528 0.103204 0.99466 367.027 301.645)" stroke="url(#paint24_linear)" stroke-width="2"/>
</g>
<g filter="url(#filter5_i)">
<path fill-rule="evenodd" clip-rule="evenodd" d="M419.461 322.67C406.811 324 397.613 335.36 398.93 348.055C400.247 360.75 411.579 369.953 424.229 368.623C427.687 368.26 430.88 367.15 433.671 365.471C434.109 365.208 434.616 365.085 435.126 365.119C437.243 365.259 442.169 365.146 447.729 363.976C447.02 363.259 446.418 362.479 445.914 361.691C444.344 359.238 443.592 356.522 443.367 354.694C443.319 354.302 443.365 353.904 443.5 353.533C444.66 350.345 445.134 346.849 444.76 343.238C443.443 330.543 432.111 321.341 419.461 322.67ZM393.958 348.578C392.357 333.147 403.538 319.316 418.945 317.697C434.352 316.077 448.131 327.285 449.732 342.716C450.163 346.864 449.669 350.903 448.414 354.62C448.639 355.832 449.175 357.505 450.126 358.992C451.207 360.681 452.693 361.946 454.739 362.291C455.866 362.481 456.719 363.411 456.812 364.551C456.905 365.69 456.213 366.748 455.132 367.121C447.293 369.823 439.35 370.275 435.572 370.147C432.33 371.976 428.672 373.184 424.745 373.597C409.338 375.216 395.559 364.009 393.958 348.578ZM408.073 344.232C407.931 342.859 408.929 341.629 410.302 341.484L430.146 339.399C431.519 339.254 432.748 340.251 432.891 341.624C433.033 342.997 432.035 344.228 430.662 344.372L410.818 346.458C409.445 346.602 408.216 345.606 408.073 344.232ZM415.894 351.439C414.52 351.583 413.523 352.813 413.665 354.187C413.808 355.56 415.036 356.556 416.41 356.412L430.698 354.91C432.071 354.766 433.068 353.536 432.926 352.162C432.783 350.789 431.555 349.793 430.182 349.937L415.894 351.439Z" fill="url(#paint25_linear)"/>
</g>
</g>
<g opacity="0.99">
<g opacity="0.96" filter="url(#filter6_d)">
<rect width="100.568" height="100" rx="20" transform="matrix(0.994522 -0.104528 0.103204 0.99466 251.025 313.484)" fill="url(#paint26_linear)"/>
<rect x="1.09773" y="0.890132" width="98.5678" height="98" rx="19" transform="matrix(0.994522 -0.104528 0.103204 0.99466 250.94 313.603)" stroke="url(#paint27_linear)" stroke-width="2"/>
<rect x="1.09773" y="0.890132" width="98.5678" height="98" rx="19" transform="matrix(0.994522 -0.104528 0.103204 0.99466 250.94 313.603)" stroke="url(#paint28_linear)" stroke-width="2"/>
</g>
<g filter="url(#filter7_i)">
<path d="M300.957 371.496C301.126 371.831 301.226 372.146 301.257 372.441C301.329 373.138 301.163 373.739 300.76 374.242C300.353 374.719 299.858 374.988 299.274 375.049C298.796 375.099 298.343 374.998 297.915 374.744C297.513 374.488 297.179 374.117 296.914 373.629L294.339 368.979L282.478 370.226L280.918 375.351C280.785 375.881 280.535 376.314 280.167 376.65C279.824 376.958 279.426 377.135 278.975 377.182C278.286 377.255 277.735 377.123 277.325 376.786C276.941 376.447 276.716 375.956 276.649 375.312C276.624 375.071 276.637 374.812 276.689 374.535L284.103 349.435C284.26 348.876 284.535 348.427 284.929 348.088C285.323 347.748 285.788 347.577 286.324 347.575C286.802 347.525 287.255 347.626 287.684 347.879C288.136 348.103 288.482 348.46 288.72 348.95L300.957 371.496ZM291.909 364.557L286.912 355.566L283.949 365.394L291.909 364.557Z" fill="url(#paint29_linear)"/>
<path d="M318.489 361.691C320.319 361.498 322.028 361.807 323.614 362.616C325.197 363.399 326.501 364.59 327.526 366.191C328.577 367.788 329.213 369.66 329.436 371.806C329.659 373.951 329.434 375.927 328.763 377.733C328.09 379.512 327.06 380.962 325.674 382.084C324.312 383.176 322.742 383.816 320.965 384.002C319.691 384.136 318.457 384.008 317.263 383.619C316.093 383.199 315.098 382.653 314.277 381.98L314.302 382.222C314.374 382.919 314.21 383.533 313.809 384.063C313.405 384.566 312.858 384.854 312.168 384.927C311.479 384.999 310.884 384.831 310.386 384.423C309.888 384.014 309.601 383.448 309.526 382.724L306.904 357.459C306.832 356.761 306.998 356.161 307.401 355.657C307.802 355.127 308.348 354.826 309.038 354.753C309.728 354.681 310.323 354.862 310.824 355.298C311.323 355.706 311.608 356.259 311.68 356.957L312.553 365.365C313.106 364.493 313.923 363.703 315.002 362.993C316.079 362.256 317.241 361.822 318.489 361.691ZM319.749 379.656C321.447 379.478 322.774 378.688 323.728 377.286C324.682 375.884 325.059 374.218 324.859 372.287C324.658 370.356 323.949 368.817 322.73 367.671C321.535 366.495 320.075 365.998 318.351 366.179C316.626 366.36 315.286 367.152 314.332 368.553C313.375 369.928 312.997 371.581 313.197 373.512C313.397 375.444 314.108 376.996 315.33 378.169C316.551 379.342 318.024 379.838 319.749 379.656Z" fill="url(#paint30_linear)"/>
<path d="M321.415 333.277C323.67 333.04 325.525 333.211 326.98 333.791C328.432 334.343 329.22 335.209 329.342 336.389C329.403 336.979 329.285 337.52 328.988 338.013C328.687 338.478 328.258 338.74 327.701 338.799C327.277 338.843 326.926 338.826 326.65 338.746C326.37 338.64 326.088 338.507 325.803 338.347C325.542 338.158 325.285 338.009 325.033 337.9C324.754 337.793 324.343 337.715 323.801 337.663C323.286 337.609 322.869 337.598 322.551 337.632C320.561 337.841 319.06 338.636 318.05 340.016C317.064 341.367 316.675 343.048 316.884 345.06C317.084 346.991 317.822 348.54 319.096 349.708C320.368 350.848 321.893 351.325 323.67 351.139C324.971 351.002 325.922 350.739 326.526 350.35C326.677 350.253 326.875 350.097 327.121 349.881C327.391 349.636 327.639 349.447 327.867 349.315C328.095 349.182 328.381 349.098 328.726 349.062C329.389 348.992 329.929 349.152 330.345 349.542C330.787 349.93 331.043 350.459 331.113 351.129C331.18 351.773 330.871 352.415 330.186 353.057C329.502 353.698 328.567 354.257 327.383 354.734C326.196 355.184 324.912 355.482 323.533 355.627C321.489 355.841 319.635 355.548 317.969 354.747C316.33 353.944 314.998 352.741 313.974 351.141C312.947 349.514 312.325 347.654 312.108 345.562C311.882 343.389 312.12 341.412 312.82 339.631C313.547 337.846 314.657 336.401 316.152 335.295C317.644 334.162 319.398 333.489 321.415 333.277Z" fill="url(#paint31_linear)"/>
</g>
</g>
<g opacity="0.96" filter="url(#filter8_d)">
<rect width="100.568" height="100" rx="20" transform="matrix(0.994522 -0.104528 0.103204 0.99466 483.112 288.726)" fill="url(#paint32_linear)"/>
<rect x="1.09773" y="0.890132" width="98.5679" height="98.0001" rx="19" transform="matrix(0.994522 -0.104528 0.103204 0.99466 483.026 288.845)" stroke="url(#paint33_linear)" stroke-width="2"/>
<rect x="1.09773" y="0.890132" width="98.5679" height="98.0001" rx="19" transform="matrix(0.994522 -0.104528 0.103204 0.99466 483.026 288.845)" stroke="url(#paint34_linear)" stroke-width="2"/>
</g>
<g clip-path="url(#clip1)">
<g filter="url(#filter9_i)">
<path fill-rule="evenodd" clip-rule="evenodd" d="M507.175 319.196C506.874 315.657 509.372 312.555 512.756 312.267L546.946 309.356C550.039 309.093 552.8 311.272 553.482 314.351L521.895 317.04C517.983 317.373 515.081 320.814 515.415 324.727L517.603 350.437L516.016 350.572C512.633 350.86 509.646 348.225 509.345 344.686L507.175 319.196ZM519.231 326.609C518.93 323.068 521.428 319.964 524.811 319.676L559.002 316.766C562.385 316.478 565.372 319.115 565.673 322.656L567.844 348.161C568.146 351.702 565.648 354.806 562.264 355.094L528.074 358.004C524.691 358.292 521.704 355.655 521.402 352.114L519.231 326.609ZM551.76 335.542L538.509 329.899C537.143 329.317 536.46 329.026 536.002 329.358C535.544 329.689 535.607 330.429 535.733 331.909L536.877 345.354C537.003 346.834 537.066 347.573 537.574 347.823C538.081 348.072 538.705 347.67 539.953 346.865L552.06 339.064C553.454 338.165 554.151 337.716 554.1 337.116C554.049 336.517 553.286 336.192 551.76 335.542Z" fill="url(#paint35_linear)"/>
</g>
</g>
<g opacity="0.98" filter="url(#filter10_d)">
<rect width="372.85" height="316.49" rx="20" transform="matrix(0.994522 -0.104528 0.103112 0.99467 251.448 26.9734)" fill="url(#paint36_linear)"/>
<rect x="1.09763" y="0.890141" width="370.85" height="314.49" rx="19" transform="matrix(0.994522 -0.104528 0.103112 0.99467 251.362 27.0929)" stroke="url(#paint37_linear)" stroke-width="2"/>
<rect x="1.09763" y="0.890141" width="370.85" height="314.49" rx="19" transform="matrix(0.994522 -0.104528 0.103112 0.99467 251.362 27.0929)" stroke="url(#paint38_linear)" stroke-width="2"/>
</g>
<path opacity="0.1" d="M83.6926 112.013C38.0691 123.182 10.1077 169.459 21.1752 214.664C32.5887 261.283 70.4979 284.445 119.448 272.461L122.775 271.646L135.572 323.915C176.435 264.498 196.908 220.554 186.302 177.232C174.542 129.201 129.316 100.843 83.6926 112.013Z" fill="url(#paint39_linear)"/>
<path opacity="0.1" d="M38.304 347.028C17.7225 352.067 5.10863 372.943 10.1014 393.336C15.2502 414.367 32.3517 424.815 54.434 419.409L55.9348 419.042L61.7076 442.621C80.1419 415.817 89.3775 395.993 84.5928 376.45C79.288 354.782 58.8856 341.989 38.304 347.028Z" fill="url(#paint40_linear)"/>
</g>
<defs>
<filter id="filter0_f" x="220.567" y="58.5938" width="290.562" height="216.1" filterUnits="userSpaceOnUse" color-interpolation-filters="sRGB">
<feFlood flood-opacity="0" result="BackgroundImageFix"/>
<feBlend mode="normal" in="SourceGraphic" in2="BackgroundImageFix" result="shape"/>
<feGaussianBlur stdDeviation="2" result="effect1_foregroundBlur"/>
</filter>
<filter id="filter1_f" x="168.567" y="34.594" width="589.488" height="739.699" filterUnits="userSpaceOnUse" color-interpolation-filters="sRGB">
<feFlood flood-opacity="0" result="BackgroundImageFix"/>
<feBlend mode="normal" in="SourceGraphic" in2="BackgroundImageFix" result="shape"/>
<feGaussianBlur stdDeviation="2" result="effect1_foregroundBlur"/>
</filter>
<filter id="filter2_d" x="181.743" y="192.824" width="185.202" height="184.79" filterUnits="userSpaceOnUse" color-interpolation-filters="sRGB">
<feFlood flood-opacity="0" result="BackgroundImageFix"/>
<feColorMatrix in="SourceAlpha" type="matrix" values="0 0 0 0 0 0 0 0 0 0 0 0 0 0 0 0 0 0 127 0"/>
<feOffset dx="-20" dy="40"/>
<feGaussianBlur stdDeviation="20"/>
<feColorMatrix type="matrix" values="0 0 0 0 0.163472 0 0 0 0 0.0910662 0 0 0 0 0.344488 0 0 0 0.2 0"/>
<feBlend mode="normal" in2="BackgroundImageFix" result="effect1_dropShadow"/>
<feBlend mode="normal" in="SourceGraphic" in2="effect1_dropShadow" result="shape"/>
</filter>
<filter id="filter3_i" x="261.712" y="220.264" width="67.441" height="50.3027" filterUnits="userSpaceOnUse" color-interpolation-filters="sRGB">
<feFlood flood-opacity="0" result="BackgroundImageFix"/>
<feBlend mode="normal" in="SourceGraphic" in2="BackgroundImageFix" result="shape"/>
<feColorMatrix in="SourceAlpha" type="matrix" values="0 0 0 0 0 0 0 0 0 0 0 0 0 0 0 0 0 0 127 0" result="hardAlpha"/>
<feOffset dx="-1" dy="1"/>
<feGaussianBlur stdDeviation="1"/>
<feComposite in2="hardAlpha" operator="arithmetic" k2="-1" k3="1"/>
<feColorMatrix type="matrix" values="0 0 0 0 0.779653 0 0 0 0 0.822019 0 0 0 0 0.858333 0 0 0 1 0"/>
<feBlend mode="normal" in2="shape" result="effect1_innerShadow"/>
</filter>
<filter id="filter4_d" x="309.681" y="293.607" width="185.202" height="184.79" filterUnits="userSpaceOnUse" color-interpolation-filters="sRGB">
<feFlood flood-opacity="0" result="BackgroundImageFix"/>
<feColorMatrix in="SourceAlpha" type="matrix" values="0 0 0 0 0 0 0 0 0 0 0 0 0 0 0 0 0 0 127 0"/>
<feOffset dx="-20" dy="40"/>
<feGaussianBlur stdDeviation="20"/>
<feColorMatrix type="matrix" values="0 0 0 0 0.163472 0 0 0 0 0.0910662 0 0 0 0 0.344488 0 0 0 0.2 0"/>
<feBlend mode="normal" in2="BackgroundImageFix" result="effect1_dropShadow"/>
<feBlend mode="normal" in="SourceGraphic" in2="effect1_dropShadow" result="shape"/>
</filter>
<filter id="filter5_i" x="392.805" y="317.542" width="64.0153" height="57.211" filterUnits="userSpaceOnUse" color-interpolation-filters="sRGB">
<feFlood flood-opacity="0" result="BackgroundImageFix"/>
<feBlend mode="normal" in="SourceGraphic" in2="BackgroundImageFix" result="shape"/>
<feColorMatrix in="SourceAlpha" type="matrix" values="0 0 0 0 0 0 0 0 0 0 0 0 0 0 0 0 0 0 127 0" result="hardAlpha"/>
<feOffset dx="-1" dy="1"/>
<feGaussianBlur stdDeviation="1"/>
<feComposite in2="hardAlpha" operator="arithmetic" k2="-1" k3="1"/>
<feColorMatrix type="matrix" values="0 0 0 0 0.779653 0 0 0 0 0.822019 0 0 0 0 0.858333 0 0 0 1 0"/>
<feBlend mode="normal" in2="shape" result="effect1_innerShadow"/>
</filter>
<filter id="filter6_d" x="193.593" y="305.565" width="185.202" height="184.79" filterUnits="userSpaceOnUse" color-interpolation-filters="sRGB">
<feFlood flood-opacity="0" result="BackgroundImageFix"/>
<feColorMatrix in="SourceAlpha" type="matrix" values="0 0 0 0 0 0 0 0 0 0 0 0 0 0 0 0 0 0 127 0"/>
<feOffset dx="-20" dy="40"/>
<feGaussianBlur stdDeviation="20"/>
<feColorMatrix type="matrix" values="0 0 0 0 0.163472 0 0 0 0 0.0910662 0 0 0 0 0.344488 0 0 0 0.2 0"/>
<feBlend mode="normal" in2="BackgroundImageFix" result="effect1_dropShadow"/>
<feBlend mode="normal" in="SourceGraphic" in2="effect1_dropShadow" result="shape"/>
</filter>
<filter id="filter7_i" x="275.637" y="333.174" width="55.4853" height="52.7691" filterUnits="userSpaceOnUse" color-interpolation-filters="sRGB">
<feFlood flood-opacity="0" result="BackgroundImageFix"/>
<feBlend mode="normal" in="SourceGraphic" in2="BackgroundImageFix" result="shape"/>
<feColorMatrix in="SourceAlpha" type="matrix" values="0 0 0 0 0 0 0 0 0 0 0 0 0 0 0 0 0 0 127 0" result="hardAlpha"/>
<feOffset dx="-1" dy="1"/>
<feGaussianBlur stdDeviation="1"/>
<feComposite in2="hardAlpha" operator="arithmetic" k2="-1" k3="1"/>
<feColorMatrix type="matrix" values="0 0 0 0 0.779653 0 0 0 0 0.822019 0 0 0 0 0.858333 0 0 0 1 0"/>
<feBlend mode="normal" in2="shape" result="effect1_innerShadow"/>
</filter>
<filter id="filter8_d" x="425.68" y="280.807" width="185.202" height="184.79" filterUnits="userSpaceOnUse" color-interpolation-filters="sRGB">
<feFlood flood-opacity="0" result="BackgroundImageFix"/>
<feColorMatrix in="SourceAlpha" type="matrix" values="0 0 0 0 0 0 0 0 0 0 0 0 0 0 0 0 0 0 127 0"/>
<feOffset dx="-20" dy="40"/>
<feGaussianBlur stdDeviation="20"/>
<feColorMatrix type="matrix" values="0 0 0 0 0.163472 0 0 0 0 0.0910662 0 0 0 0 0.344488 0 0 0 0.2 0"/>
<feBlend mode="normal" in2="BackgroundImageFix" result="effect1_dropShadow"/>
<feBlend mode="normal" in="SourceGraphic" in2="effect1_dropShadow" result="shape"/>
</filter>
<filter id="filter9_i" x="506.15" y="309.334" width="61.7184" height="49.6912" filterUnits="userSpaceOnUse" color-interpolation-filters="sRGB">
<feFlood flood-opacity="0" result="BackgroundImageFix"/>
<feBlend mode="normal" in="SourceGraphic" in2="BackgroundImageFix" result="shape"/>
<feColorMatrix in="SourceAlpha" type="matrix" values="0 0 0 0 0 0 0 0 0 0 0 0 0 0 0 0 0 0 127 0" result="hardAlpha"/>
<feOffset dx="-1" dy="1"/>
<feGaussianBlur stdDeviation="1"/>
<feComposite in2="hardAlpha" operator="arithmetic" k2="-1" k3="1"/>
<feColorMatrix type="matrix" values="0 0 0 0 0.779653 0 0 0 0 0.822019 0 0 0 0 0.858333 0 0 0 1 0"/>
<feBlend mode="normal" in2="shape" result="effect1_innerShadow"/>
</filter>
<filter id="filter10_d" x="184.015" y="-19.4062" width="498.31" height="448.589" filterUnits="userSpaceOnUse" color-interpolation-filters="sRGB">
<feFlood flood-opacity="0" result="BackgroundImageFix"/>
<feColorMatrix in="SourceAlpha" type="matrix" values="0 0 0 0 0 0 0 0 0 0 0 0 0 0 0 0 0 0 127 0"/>
<feOffset dx="-20" dy="40"/>
<feGaussianBlur stdDeviation="25"/>
<feColorMatrix type="matrix" values="0 0 0 0 0.496667 0 0 0 0 0.550472 0 0 0 0 0.620833 0 0 0 0.2 0"/>
<feBlend mode="normal" in2="BackgroundImageFix" result="effect1_dropShadow"/>
<feBlend mode="normal" in="SourceGraphic" in2="effect1_dropShadow" result="shape"/>
</filter>
<linearGradient id="paint0_linear" x1="288.608" y1="199.749" x2="151.719" y2="-73.5866" gradientUnits="userSpaceOnUse">
<stop stop-color="#EBF2F9"/>
<stop offset="1" stop-color="#F8FAFD"/>
</linearGradient>
<linearGradient id="paint1_linear" x1="261.693" y1="-5.33714e-07" x2="162.361" y2="190.96" gradientUnits="userSpaceOnUse">
<stop stop-color="white"/>
<stop offset="1" stop-color="white" stop-opacity="0"/>
</linearGradient>
<linearGradient id="paint2_linear" x1="5.79701" y1="186.061" x2="71.7524" y2="30.3341" gradientUnits="userSpaceOnUse">
<stop stop-color="#C9D3DF"/>
<stop offset="1" stop-color="white" stop-opacity="0"/>
</linearGradient>
<linearGradient id="paint3_linear" x1="523.512" y1="495.088" x2="128.573" y2="-82.0462" gradientUnits="userSpaceOnUse">
<stop stop-color="#EBF2F9"/>
<stop offset="1" stop-color="#F8FAFD"/>
</linearGradient>
<linearGradient id="paint4_linear" x1="474.691" y1="-2.45478e-06" x2="176.31" y2="491.958" gradientUnits="userSpaceOnUse">
<stop stop-color="white"/>
<stop offset="1" stop-color="white" stop-opacity="0"/>
</linearGradient>
<linearGradient id="paint5_linear" x1="10.5153" y1="461.161" x2="207.861" y2="120.156" gradientUnits="userSpaceOnUse">
<stop stop-color="#C9D3DF"/>
<stop offset="1" stop-color="white" stop-opacity="0"/>
</linearGradient>
<linearGradient id="paint6_linear" x1="523.512" y1="495.088" x2="128.573" y2="-82.0462" gradientUnits="userSpaceOnUse">
<stop stop-color="#EBF2F9"/>
<stop offset="1" stop-color="#F8FAFD"/>
</linearGradient>
<linearGradient id="paint7_linear" x1="474.691" y1="-2.45478e-06" x2="176.31" y2="491.958" gradientUnits="userSpaceOnUse">
<stop stop-color="white"/>
<stop offset="1" stop-color="white" stop-opacity="0"/>
</linearGradient>
<linearGradient id="paint8_linear" x1="10.5153" y1="461.161" x2="207.861" y2="120.156" gradientUnits="userSpaceOnUse">
<stop stop-color="#C9D3DF"/>
<stop offset="1" stop-color="white" stop-opacity="0"/>
</linearGradient>
<linearGradient id="paint9_linear" x1="523.512" y1="495.088" x2="128.573" y2="-82.0462" gradientUnits="userSpaceOnUse">
<stop stop-color="#EBF2F9"/>
<stop offset="1" stop-color="#F8FAFD"/>
</linearGradient>
<linearGradient id="paint10_linear" x1="474.691" y1="-2.45478e-06" x2="176.31" y2="491.958" gradientUnits="userSpaceOnUse">
<stop stop-color="white"/>
<stop offset="1" stop-color="white" stop-opacity="0"/>
</linearGradient>
<linearGradient id="paint11_linear" x1="10.5153" y1="461.161" x2="207.861" y2="120.156" gradientUnits="userSpaceOnUse">
<stop stop-color="#C9D3DF"/>
<stop offset="1" stop-color="white" stop-opacity="0"/>
</linearGradient>
<linearGradient id="paint12_linear" x1="523.512" y1="495.088" x2="128.573" y2="-82.0462" gradientUnits="userSpaceOnUse">
<stop stop-color="#EBF2F9"/>
<stop offset="1" stop-color="#F8FAFD"/>
</linearGradient>
<linearGradient id="paint13_linear" x1="474.691" y1="-2.45478e-06" x2="176.31" y2="491.958" gradientUnits="userSpaceOnUse">
<stop stop-color="white"/>
<stop offset="1" stop-color="white" stop-opacity="0"/>
</linearGradient>
<linearGradient id="paint14_linear" x1="10.5153" y1="461.161" x2="207.861" y2="120.156" gradientUnits="userSpaceOnUse">
<stop stop-color="#C9D3DF"/>
<stop offset="1" stop-color="white" stop-opacity="0"/>
</linearGradient>
<linearGradient id="paint15_linear" x1="439.379" y1="304.1" x2="230.977" y2="-112.029" gradientUnits="userSpaceOnUse">
<stop stop-color="#EBF2F9"/>
<stop offset="1" stop-color="#F8FAFD"/>
</linearGradient>
<linearGradient id="paint16_linear" x1="398.404" y1="-8.12529e-07" x2="247.18" y2="290.718" gradientUnits="userSpaceOnUse">
<stop stop-color="white"/>
<stop offset="1" stop-color="white" stop-opacity="0"/>
</linearGradient>
<linearGradient id="paint17_linear" x1="8.82541" y1="283.26" x2="109.236" y2="46.1809" gradientUnits="userSpaceOnUse">
<stop stop-color="#C9D3DF"/>
<stop offset="1" stop-color="white" stop-opacity="0"/>
</linearGradient>
<linearGradient id="paint18_linear" x1="98.9715" y1="1.93799" x2="3.30186" y2="93.8851" gradientUnits="userSpaceOnUse">
<stop stop-color="#E5E6F4"/>
<stop offset="1" stop-color="white"/>
</linearGradient>
<linearGradient id="paint19_linear" x1="97.4829" y1="-5.32304e-07" x2="31.2116" y2="103.479" gradientUnits="userSpaceOnUse">
<stop stop-color="white"/>
<stop offset="1" stop-color="white" stop-opacity="0"/>
</linearGradient>
<linearGradient id="paint20_linear" x1="2.15943" y1="100" x2="-1.56222" y2="6.18907" gradientUnits="userSpaceOnUse">
<stop stop-color="#C9D3DF"/>
<stop offset="1" stop-color="white"/>
</linearGradient>
<linearGradient id="paint21_linear" x1="327.233" y1="217.994" x2="263.605" y2="268.464" gradientUnits="userSpaceOnUse">
<stop stop-color="#CECEE8"/>
<stop offset="1" stop-color="#DDDEED" stop-opacity="0.58"/>
</linearGradient>
<linearGradient id="paint22_linear" x1="98.9715" y1="1.93799" x2="3.30186" y2="93.8851" gradientUnits="userSpaceOnUse">
<stop stop-color="#E5E6F4"/>
<stop offset="1" stop-color="white"/>
</linearGradient>
<linearGradient id="paint23_linear" x1="97.4829" y1="-5.32304e-07" x2="31.2116" y2="103.479" gradientUnits="userSpaceOnUse">
<stop stop-color="white"/>
<stop offset="1" stop-color="white" stop-opacity="0"/>
</linearGradient>
<linearGradient id="paint24_linear" x1="2.15943" y1="100" x2="46.0788" y2="28.128" gradientUnits="userSpaceOnUse">
<stop stop-color="#CBC9DF"/>
<stop offset="1" stop-color="white"/>
</linearGradient>
<linearGradient id="paint25_linear" x1="448.42" y1="309.358" x2="399.767" y2="377.16" gradientUnits="userSpaceOnUse">
<stop stop-color="#DDDEED"/>
<stop offset="1" stop-color="#DDDEED" stop-opacity="0.58"/>
</linearGradient>
<linearGradient id="paint26_linear" x1="98.9715" y1="1.93799" x2="3.30186" y2="93.8851" gradientUnits="userSpaceOnUse">
<stop stop-color="#E5E6F4"/>
<stop offset="1" stop-color="white"/>
</linearGradient>
<linearGradient id="paint27_linear" x1="97.4829" y1="-5.32304e-07" x2="31.2116" y2="103.479" gradientUnits="userSpaceOnUse">
<stop stop-color="white"/>
<stop offset="1" stop-color="white" stop-opacity="0"/>
</linearGradient>
<linearGradient id="paint28_linear" x1="2.15943" y1="100" x2="46.0788" y2="28.128" gradientUnits="userSpaceOnUse">
<stop stop-color="#CBC9DF"/>
<stop offset="1" stop-color="white"/>
</linearGradient>
<linearGradient id="paint29_linear" x1="322.262" y1="324.017" x2="269.926" y2="381.679" gradientUnits="userSpaceOnUse">
<stop stop-color="#DDDEED"/>
<stop offset="1" stop-color="#DDDEED" stop-opacity="0.58"/>
</linearGradient>
<linearGradient id="paint30_linear" x1="322.262" y1="324.017" x2="269.926" y2="381.679" gradientUnits="userSpaceOnUse">
<stop stop-color="#DDDEED"/>
<stop offset="1" stop-color="#DDDEED" stop-opacity="0.58"/>
</linearGradient>
<linearGradient id="paint31_linear" x1="322.262" y1="324.017" x2="269.926" y2="381.679" gradientUnits="userSpaceOnUse">
<stop stop-color="#DDDEED"/>
<stop offset="1" stop-color="#DDDEED" stop-opacity="0.58"/>
</linearGradient>
<linearGradient id="paint32_linear" x1="98.9716" y1="1.93799" x2="3.30187" y2="93.8852" gradientUnits="userSpaceOnUse">
<stop stop-color="#E5E6F4"/>
<stop offset="1" stop-color="white"/>
</linearGradient>
<linearGradient id="paint33_linear" x1="97.483" y1="-5.32304e-07" x2="31.2117" y2="103.479" gradientUnits="userSpaceOnUse">
<stop stop-color="white"/>
<stop offset="1" stop-color="white" stop-opacity="0"/>
</linearGradient>
<linearGradient id="paint34_linear" x1="2.15944" y1="100" x2="46.0788" y2="28.128" gradientUnits="userSpaceOnUse">
<stop stop-color="#CBC9DF"/>
<stop offset="1" stop-color="white"/>
</linearGradient>
<linearGradient id="paint35_linear" x1="560.375" y1="305.187" x2="522.255" y2="363.828" gradientUnits="userSpaceOnUse">
<stop stop-color="#CECEE8"/>
<stop offset="1" stop-color="#DDDEED" stop-opacity="0.58"/>
</linearGradient>
<linearGradient id="paint36_linear" x1="398.584" y1="339.774" x2="138.73" y2="-81.4981" gradientUnits="userSpaceOnUse">
<stop stop-color="#EBF2F9"/>
<stop offset="1" stop-color="#F8FAFD"/>
</linearGradient>
<linearGradient id="paint37_linear" x1="361.413" y1="-1.68469e-06" x2="167.028" y2="355.554" gradientUnits="userSpaceOnUse">
<stop stop-color="white"/>
<stop offset="1" stop-color="white" stop-opacity="0"/>
</linearGradient>
<linearGradient id="paint38_linear" x1="8.00601" y1="316.49" x2="-68.624" y2="22.0204" gradientUnits="userSpaceOnUse">
<stop stop-color="#B0B2DB"/>
<stop offset="1" stop-color="white" stop-opacity="0"/>
</linearGradient>
<linearGradient id="paint39_linear" x1="56.9608" y1="92" x2="152.815" y2="301.438" gradientUnits="userSpaceOnUse">
<stop stop-color="white"/>
<stop offset="1" stop-color="white" stop-opacity="0.25"/>
</linearGradient>
<linearGradient id="paint40_linear" x1="26.2449" y1="338" x2="69.4862" y2="432.481" gradientUnits="userSpaceOnUse">
<stop stop-color="white"/>
<stop offset="1" stop-color="white" stop-opacity="0.25"/>
</linearGradient>
<clipPath id="clip0">
<rect width="590" height="444" fill="white"/>
</clipPath>
<clipPath id="clip1">
<rect width="59.8042" height="59.8042" fill="white" transform="translate(506.01 305.494) rotate(-4.86566)"/>
</clipPath>
</defs>
</svg>
