<svg width="590" height="444" fill="none" xmlns="http://www.w3.org/2000/svg" xmlns:xlink="http://www.w3.org/1999/xlink"><g clip-path="url(#clip0)"><path d="M162.076 168.182c-42.525 16.846-63.34 65.207-46.648 107.343 17.213 43.452 56.864 60.751 102.49 42.677l3.1-1.229 19.3 48.719c31.513-62.754 45.415-107.869 29.419-148.249-17.735-44.769-65.136-66.107-107.661-49.261z" fill="url(#paint0_linear)"/><path opacity=".23" d="M164.763-26.6c-32.78 12.985-48.825 50.264-35.958 82.744 13.268 33.495 43.834 46.83 79.004 32.897l2.39-.947 14.877 37.556c24.292-48.375 35.008-83.151 22.678-114.278-13.671-34.51-50.21-50.958-82.991-37.973z" fill="url(#paint1_linear)"/><path opacity=".5" d="M101.425 340.354c-27.27 10.802-40.617 41.814-29.913 68.833 11.037 27.864 36.464 38.956 65.721 27.366l1.988-.787 12.376 31.241c20.208-40.242 29.122-69.171 18.865-95.065-11.373-28.708-41.769-42.39-69.037-31.588z" fill="url(#paint2_linear)"/><rect x="1.224" y=".707" width="487.713" height="459.161" rx="19" transform="rotate(-15.038 462.927 -955.089) skewX(-.076)" fill="url(#paint3_linear)" fill-opacity=".1"/><rect x="1.224" y=".707" width="487.713" height="459.161" rx="19" transform="rotate(-15.038 462.927 -955.089) skewX(-.076)" stroke="url(#paint4_linear)" stroke-opacity=".1" stroke-width="2"/><rect x="1.224" y=".707" width="487.713" height="459.161" rx="19" transform="rotate(-15.038 462.927 -955.089) skewX(-.076)" stroke="url(#paint5_linear)" stroke-width="2"/><g filter="url(#filter0_b)"><rect width="237.727" height="326.413" rx="20" transform="rotate(-15.038 787.478 -751.958) skewX(-.076)" fill="url(#paint6_linear)" fill-opacity=".7"/><rect x="1.224" y=".707" width="235.727" height="324.413" rx="19" transform="rotate(-15.038 788.703 -751.257) skewX(-.076)" stroke="url(#paint7_linear)" stroke-opacity=".8" stroke-width="2"/><rect x="1.224" y=".707" width="235.727" height="324.413" rx="19" transform="rotate(-15.038 788.703 -751.257) skewX(-.076)" stroke="url(#paint8_linear)" stroke-width="2"/></g><g opacity=".9" transform="rotate(-15.038 326.94 -1570.425) skewX(-.076)"><rect x="1.224" y=".707" width="235.727" height="439.709" rx="19" fill="url(#paint9_linear)"/><rect x="1.224" y=".707" width="235.727" height="439.709" rx="19" stroke="url(#paint10_linear)" stroke-width="2"/><rect x="1.224" y=".707" width="235.727" height="439.709" rx="19" stroke="url(#paint11_linear)" stroke-width="2"/></g><g opacity=".99"><g opacity=".96" filter="url(#filter1_d)"><rect width="126.023" height="125.311" rx="20" transform="rotate(-15.038 902.425 -882.205) skewX(-.076)" fill="url(#paint12_linear)"/><rect x="1.224" y=".707" width="124.023" height="123.311" rx="19" transform="rotate(-15.038 903.646 -881.5) skewX(-.076)" stroke="url(#paint13_linear)" stroke-width="2"/><rect x="1.224" y=".707" width="124.023" height="123.311" rx="19" transform="rotate(-15.038 903.646 -881.5) skewX(-.076)" stroke="url(#paint14_linear)" stroke-width="2"/></g><g filter="url(#filter2_i)"><path fill-rule="evenodd" clip-rule="evenodd" d="M365.746 213.438a4.488 4.488 0 00-6.21 1.357l-5.709 8.925-22.448 35.093a2.506 2.506 0 00-.388 1.161l-.976 12.907c-6.443 2.659-11.602 3.651-15.449 3.604-4.335-.054-6.666-1.399-7.658-2.747-.912-1.239-1.13-3.09.186-5.428 1.339-2.379 4.222-5.074 9.048-7.26 5.435-2.461 8.792-5.634 9.721-9.398.954-3.865-.875-7.354-3.524-9.841-2.662-2.501-6.452-4.331-10.47-5.132-4.03-.803-8.505-.612-12.513 1.203a2.501 2.501 0 002.061 4.557c2.862-1.296 6.238-1.5 9.477-.855 3.251.648 6.147 2.11 8.025 3.873 1.891 1.777 2.455 3.524 2.092 4.995-.389 1.573-2.061 3.836-6.93 6.041-5.476 2.48-9.333 5.792-11.342 9.363-2.033 3.612-2.206 7.654.145 10.848 2.272 3.087 6.425 4.718 11.621 4.782 4.631.057 10.369-1.107 17.121-3.86a2.487 2.487 0 001.927-.208l13.18-7.321c.361-.2.667-.488.89-.837l22.449-35.093 5.709-8.925a4.513 4.513 0 00-1.36-6.225l-8.675-5.579zm-6.367 10.88l4.093-6.397 7.834 5.038-4.092 6.397-7.835-5.038zm-2.694 4.212l7.835 5.039-19.754 30.881-7.835-5.039 19.754-30.881zm-21.03 36.006l4.998 3.214-5.471 3.039.473-6.253z" fill="url(#paint15_linear)"/></g></g><g opacity=".99"><g opacity=".96" filter="url(#filter3_d)"><rect width="126.023" height="125.311" rx="20" transform="rotate(-15.038 1434.185 -958.474) skewX(-.076)" fill="url(#paint16_linear)"/><rect x="1.224" y=".707" width="124.023" height="123.311" rx="19" transform="rotate(-15.038 1435.406 -957.77) skewX(-.076)" stroke="url(#paint17_linear)" stroke-width="2"/><rect x="1.224" y=".707" width="124.023" height="123.311" rx="19" transform="rotate(-15.038 1435.406 -957.77) skewX(-.076)" stroke="url(#paint18_linear)" stroke-width="2"/></g><g filter="url(#filter4_i)"><path fill-rule="evenodd" clip-rule="evenodd" d="M366.585 354.544c-15.733 4.226-25.078 20.444-20.859 36.232 4.219 15.788 20.4 25.148 36.132 20.921a29.346 29.346 0 0011.308-5.886c.391-.329.873-.53 1.381-.577 2.847-.262 9.522-1.495 16.666-4.376-1.388-.859-2.578-1.921-3.574-3.041-2.353-2.645-3.777-5.769-4.394-7.913a2.504 2.504 0 01-.051-1.167 29.551 29.551 0 00-.477-13.272c-4.219-15.788-20.4-25.148-36.132-20.921zm-25.688 37.53c-4.929-18.446 5.987-37.415 24.397-42.361 18.409-4.946 37.322 6.01 42.251 24.455a34.53 34.53 0 01.672 14.882c.525 1.537 1.573 3.658 3.157 5.439 1.75 1.968 3.996 3.362 6.825 3.388a2.496 2.496 0 012.403 1.905 2.505 2.505 0 01-1.256 2.802c-9.208 4.908-19.006 7.004-23.567 7.548a34.365 34.365 0 01-12.63 6.396c-18.41 4.946-37.322-6.009-42.252-24.454zm16.612-8.156a2.503 2.503 0 011.769-3.064l24.148-6.488a2.497 2.497 0 013.06 1.767 2.504 2.504 0 01-1.769 3.063l-24.148 6.488a2.495 2.495 0 01-3.06-1.766zm10.65 8.154a2.503 2.503 0 00-1.769 3.064 2.494 2.494 0 003.059 1.766l17.387-4.671a2.504 2.504 0 001.769-3.064 2.495 2.495 0 00-3.06-1.766l-17.386 4.671z" fill="url(#paint19_linear)"/></g></g><g opacity=".99"><g opacity=".96" filter="url(#filter5_d)"><rect width="126.023" height="125.311" rx="20" transform="rotate(-15.038 1371.713 -1509.903) skewX(-.076)" fill="url(#paint20_linear)"/><rect x="1.224" y=".707" width="124.023" height="123.311" rx="19" transform="rotate(-15.038 1372.938 -1509.202) skewX(-.076)" stroke="url(#paint21_linear)" stroke-width="2"/><rect x="1.224" y=".707" width="124.023" height="123.311" rx="19" transform="rotate(-15.038 1372.938 -1509.202) skewX(-.076)" stroke="url(#paint22_linear)" stroke-width="2"/></g><g filter="url(#filter6_i)"><path d="M511.954 366.163c.275.381.46.751.556 1.11.227.849.14 1.624-.26 2.327-.41.67-.969 1.1-1.68 1.291a2.714 2.714 0 01-1.742-.109c-.548-.238-1.034-.632-1.458-1.183l-4.102-5.248-14.433 3.877-.922 6.651c-.06.681-.285 1.266-.673 1.755a2.598 2.598 0 01-1.37.893c-.84.226-1.547.171-2.121-.165-.542-.344-.917-.908-1.127-1.692a3.39 3.39 0 01-.103-.969l4.234-32.522c.084-.722.336-1.332.757-1.83a2.609 2.609 0 011.626-.909 2.707 2.707 0 011.742.109c.604.187 1.102.561 1.494 1.121l19.582 25.493zm-12.564-6.806l-7.954-10.144-1.733 12.746 9.687-2.602z" fill="url(#paint23_linear)"/><path d="M531.72 350.577c2.227-.599 4.403-.553 6.525.136 2.113.657 3.961 1.875 5.544 3.654 1.615 1.77 2.772 3.961 3.47 6.573.698 2.611.809 5.1.334 7.467-.483 2.334-1.472 4.332-2.966 5.993-1.471 1.62-3.288 2.72-5.451 3.301-1.55.417-3.102.501-4.656.254-1.531-.288-2.87-.768-4.019-1.439l.079.293c.227.849.144 1.641-.248 2.376-.4.703-1.02 1.166-1.86 1.392-.839.226-1.608.135-2.305-.273-.697-.407-1.163-1.052-1.399-1.933l-8.218-30.751c-.227-.849-.14-1.625.261-2.327.392-.735 1.007-1.215 1.847-1.441.839-.225 1.612-.118 2.318.322.697.407 1.159 1.036 1.386 1.884l2.735 10.234c.513-1.187 1.368-2.327 2.565-3.418 1.187-1.124 2.54-1.889 4.058-2.297zm5.096 21.985c2.067-.555 3.552-1.794 4.457-3.716.906-1.923 1.044-4.059.416-6.41-.628-2.35-1.809-4.115-3.543-5.293-1.71-1.22-3.615-1.548-5.714-.985-2.098.564-3.6 1.808-4.505 3.73-.914 1.89-1.057 4.01-.429 6.361.628 2.35 1.814 4.131 3.556 5.342 1.743 1.211 3.663 1.535 5.762.971z" fill="url(#paint24_linear)"/><path d="M529.748 314.838c2.744-.737 5.074-.891 6.988-.461 1.906.398 3.051 1.315 3.435 2.752a3.185 3.185 0 01-.12 2.078c-.28.635-.759 1.044-1.437 1.226-.516.139-.954.187-1.311.143a7.96 7.96 0 01-1.126-.328 5.095 5.095 0 00-1.042-.402c-.367-.076-.89-.093-1.571-.05-.648.034-1.166.103-1.554.207-2.421.651-4.121 1.93-5.1 3.837-.954 1.866-1.105 4.023-.45 6.471.628 2.351 1.845 4.123 3.652 5.317 1.799 1.161 3.78 1.451 5.943.87 1.582-.425 2.708-.938 3.379-1.537.167-.15.382-.383.644-.698.285-.357.556-.64.811-.848.256-.209.594-.37 1.014-.482.807-.217 1.506-.125 2.098.276.624.392 1.045.996 1.263 1.812.209.784-.047 1.64-.767 2.568-.721.928-1.768 1.804-3.14 2.628-1.38.791-2.91 1.411-4.589 1.863-2.486.667-4.839.67-7.058.006-2.187-.672-4.071-1.897-5.654-3.676-1.592-1.812-2.728-3.991-3.408-6.537-.707-2.644-.802-5.138-.286-7.481.548-2.351 1.638-4.358 3.27-6.022 1.623-1.695 3.662-2.873 6.116-3.532z" fill="url(#paint25_linear)"/></g></g><mask id="a" maskUnits="userSpaceOnUse" x="333" y="40" width="313" height="353"><rect opacity=".98" width="251.035" height="308.331" rx="20" transform="matrix(.96547 -.25939 .25825 .96638 328.528 100.11)" fill="#C4C4C4"/></mask><g filter="url(#filter7_f)" mask="url(#a)"><path fill="url(#pattern0)" d="M215.528 49.032h398v377.003h-398z"/></g><g opacity=".98" filter="url(#filter8_d)"><rect width="333.807" height="308.42" rx="20" transform="rotate(-15.038 543.493 -1194.448) skewX(-.076)" fill="url(#paint26_linear)"/><rect x="1.224" y=".707" width="331.807" height="306.42" rx="19" transform="rotate(-15.038 544.714 -1193.747) skewX(-.076)" stroke="url(#paint27_linear)" stroke-width="2"/><rect x="1.224" y=".707" width="331.807" height="306.42" rx="19" transform="rotate(-15.038 544.714 -1193.747) skewX(-.076)" stroke="url(#paint28_linear)" stroke-width="2"/></g><rect opacity=".98" x="1.224" y=".707" width="335.761" height="306.42" rx="19" transform="rotate(-15.038 544.714 -1193.747) skewX(-.076)" stroke="url(#paint29_linear)" stroke-width="2"/></g><defs><linearGradient id="paint0_linear" x1="161.633" y1="168.358" x2="277.509" y2="455.463" gradientUnits="userSpaceOnUse"><stop stop-color="#00A5D7"/><stop offset="1" stop-color="#8ED7ED" stop-opacity=".442"/></linearGradient><linearGradient id="paint1_linear" x1="164.422" y1="-26.466" x2="253.745" y2="194.849" gradientUnits="userSpaceOnUse"><stop stop-color="#00A5D7"/><stop offset="1" stop-color="#8ED7ED" stop-opacity=".442"/></linearGradient><linearGradient id="paint2_linear" x1="101.141" y1="340.467" x2="175.445" y2="524.572" gradientUnits="userSpaceOnUse"><stop stop-color="#00A5D7"/><stop offset="1" stop-color="#8ED7ED" stop-opacity=".442"/></linearGradient><linearGradient id="paint3_linear" x1="523.512" y1="495.088" x2="128.573" y2="-82.046" gradientUnits="userSpaceOnUse"><stop stop-color="#EBF2F9"/><stop offset="1" stop-color="#F8FAFD"/></linearGradient><linearGradient id="paint4_linear" x1="474.691" y1="0" x2="176.31" y2="491.958" gradientUnits="userSpaceOnUse"><stop stop-color="#fff"/><stop offset="1" stop-color="#fff" stop-opacity="0"/></linearGradient><linearGradient id="paint5_linear" x1="10.515" y1="461.161" x2="207.861" y2="120.156" gradientUnits="userSpaceOnUse"><stop stop-color="#C9D3DF"/><stop offset="1" stop-color="#fff" stop-opacity="0"/></linearGradient><linearGradient id="paint6_linear" x1="254.134" y1="350.427" x2="-45.761" y2="49.862" gradientUnits="userSpaceOnUse"><stop stop-color="#EBF2F9"/><stop offset="1" stop-color="#F8FAFD"/></linearGradient><linearGradient id="paint7_linear" x1="230.435" y1="0" x2="17.743" y2="205.231" gradientUnits="userSpaceOnUse"><stop stop-color="#fff"/><stop offset="1" stop-color="#fff" stop-opacity="0"/></linearGradient><linearGradient id="paint8_linear" x1="5.105" y1="326.413" x2="163.91" y2="138.212" gradientUnits="userSpaceOnUse"><stop stop-color="#C9D3DF"/><stop offset="1" stop-color="#fff" stop-opacity="0"/></linearGradient><linearGradient id="paint9_linear" x1="254.134" y1="474.205" x2="-134.061" y2="186.696" gradientUnits="userSpaceOnUse"><stop stop-color="#EBF2F9"/><stop offset="1" stop-color="#F8FAFD"/></linearGradient><linearGradient id="paint10_linear" x1="230.435" y1="0" x2="-86.711" y2="265.014" gradientUnits="userSpaceOnUse"><stop stop-color="#fff"/><stop offset="1" stop-color="#fff" stop-opacity="0"/></linearGradient><linearGradient id="paint11_linear" x1="5.105" y1="441.709" x2="221.206" y2="252.455" gradientUnits="userSpaceOnUse"><stop stop-color="#C9D3DF"/><stop offset="1" stop-color="#fff" stop-opacity="0"/></linearGradient><linearGradient id="paint12_linear" x1="124.022" y1="2.429" x2="4.138" y2="117.648" gradientUnits="userSpaceOnUse"><stop stop-color="#E5EDF4"/><stop offset="1" stop-color="#F8FAFD"/></linearGradient><linearGradient id="paint13_linear" x1="122.157" y1="0" x2="39.112" y2="129.67" gradientUnits="userSpaceOnUse"><stop stop-color="#fff"/><stop offset="1" stop-color="#fff" stop-opacity="0"/></linearGradient><linearGradient id="paint14_linear" x1="2.706" y1="125.311" x2="57.742" y2="35.247" gradientUnits="userSpaceOnUse"><stop stop-color="#C9D3DF"/><stop offset="1" stop-color="#fff" stop-opacity="0"/></linearGradient><linearGradient id="paint15_linear" x1="371.788" y1="208.451" x2="304.034" y2="282.402" gradientUnits="userSpaceOnUse"><stop stop-color="#CEDCE8"/><stop offset="1" stop-color="#DDE6ED" stop-opacity=".58"/></linearGradient><linearGradient id="paint16_linear" x1="124.022" y1="2.429" x2="4.138" y2="117.648" gradientUnits="userSpaceOnUse"><stop stop-color="#E5EDF4"/><stop offset="1" stop-color="#F8FAFD"/></linearGradient><linearGradient id="paint17_linear" x1="122.157" y1="0" x2="39.112" y2="129.67" gradientUnits="userSpaceOnUse"><stop stop-color="#fff"/><stop offset="1" stop-color="#fff" stop-opacity="0"/></linearGradient><linearGradient id="paint18_linear" x1="2.706" y1="125.311" x2="57.742" y2="35.247" gradientUnits="userSpaceOnUse"><stop stop-color="#C9D3DF"/><stop offset="1" stop-color="#fff" stop-opacity="0"/></linearGradient><linearGradient id="paint19_linear" x1="399.602" y1="333.854" x2="353.615" y2="425.749" gradientUnits="userSpaceOnUse"><stop stop-color="#CEDCE8"/><stop offset="1" stop-color="#DDE6ED" stop-opacity=".58"/></linearGradient><linearGradient id="paint20_linear" x1="124.022" y1="2.429" x2="4.138" y2="117.648" gradientUnits="userSpaceOnUse"><stop stop-color="#E5EDF4"/><stop offset="1" stop-color="#F8FAFD"/></linearGradient><linearGradient id="paint21_linear" x1="122.157" y1="0" x2="39.112" y2="129.67" gradientUnits="userSpaceOnUse"><stop stop-color="#fff"/><stop offset="1" stop-color="#fff" stop-opacity="0"/></linearGradient><linearGradient id="paint22_linear" x1="2.706" y1="125.311" x2="57.742" y2="35.247" gradientUnits="userSpaceOnUse"><stop stop-color="#C9D3DF"/><stop offset="1" stop-color="#fff" stop-opacity="0"/></linearGradient><linearGradient id="paint23_linear" x1="528.973" y1="303.211" x2="475.555" y2="384.874" gradientUnits="userSpaceOnUse"><stop stop-color="#CEDCE8"/><stop offset="1" stop-color="#DDE6ED" stop-opacity=".58"/></linearGradient><linearGradient id="paint24_linear" x1="528.973" y1="303.211" x2="475.555" y2="384.874" gradientUnits="userSpaceOnUse"><stop stop-color="#CEDCE8"/><stop offset="1" stop-color="#DDE6ED" stop-opacity=".58"/></linearGradient><linearGradient id="paint25_linear" x1="528.973" y1="303.211" x2="475.555" y2="384.874" gradientUnits="userSpaceOnUse"><stop stop-color="#CEDCE8"/><stop offset="1" stop-color="#DDE6ED" stop-opacity=".58"/></linearGradient><linearGradient id="paint26_linear" x1="356.846" y1="331.11" x2="94.57" y2="-59.524" gradientUnits="userSpaceOnUse"><stop stop-color="#EBF2F9"/><stop offset="1" stop-color="#F8FAFD"/></linearGradient><linearGradient id="paint27_linear" x1="323.567" y1="0" x2="125.788" y2="332.354" gradientUnits="userSpaceOnUse"><stop stop-color="#fff"/><stop offset="1" stop-color="#fff" stop-opacity="0"/></linearGradient><linearGradient id="paint28_linear" x1="7.168" y1="308.42" x2="137.887" y2="78.202" gradientUnits="userSpaceOnUse"><stop stop-color="#C9D3DF"/><stop offset="1" stop-color="#fff" stop-opacity="0"/></linearGradient><linearGradient id="paint29_linear" x1="327.4" y1="0" x2="130.739" y2="334.39" gradientUnits="userSpaceOnUse"><stop stop-color="#fff"/><stop offset="1" stop-color="#fff" stop-opacity="0"/></linearGradient><filter id="filter0_b" x="219.132" y="113.963" width="319.743" height="382.877" filterUnits="userSpaceOnUse" color-interpolation-filters="sRGB"><feFlood flood-opacity="0" result="BackgroundImageFix"/><feGaussianBlur in="BackgroundImage" stdDeviation="4"/><feComposite in2="SourceAlpha" operator="in" result="effect1_backgroundBlur"/><feBlend in="SourceGraphic" in2="effect1_backgroundBlur" result="shape"/></filter><filter id="filter1_d" x="204.862" y="176.31" width="223.945" height="223.61" filterUnits="userSpaceOnUse" color-interpolation-filters="sRGB"><feFlood flood-opacity="0" result="BackgroundImageFix"/><feColorMatrix in="SourceAlpha" values="0 0 0 0 0 0 0 0 0 0 0 0 0 0 0 0 0 0 127 0"/><feOffset dx="-20" dy="40"/><feGaussianBlur stdDeviation="20"/><feColorMatrix values="0 0 0 0 0.496667 0 0 0 0 0.550472 0 0 0 0 0.620833 0 0 0 0.2 0"/><feBlend in2="BackgroundImageFix" result="effect1_dropShadow"/><feBlend in="SourceGraphic" in2="effect1_dropShadow" result="shape"/></filter><filter id="filter2_i" x="296.887" y="212.723" width="79.605" height="69.765" filterUnits="userSpaceOnUse" color-interpolation-filters="sRGB"><feFlood flood-opacity="0" result="BackgroundImageFix"/><feBlend in="SourceGraphic" in2="BackgroundImageFix" result="shape"/><feColorMatrix in="SourceAlpha" values="0 0 0 0 0 0 0 0 0 0 0 0 0 0 0 0 0 0 127 0" result="hardAlpha"/><feOffset dx="-1" dy="1"/><feGaussianBlur stdDeviation="1"/><feComposite in2="hardAlpha" operator="arithmetic" k2="-1" k3="1"/><feColorMatrix values="0 0 0 0 0.779653 0 0 0 0 0.822019 0 0 0 0 0.858333 0 0 0 1 0"/><feBlend in2="shape" result="effect1_innerShadow"/></filter><filter id="filter3_d" x="242.862" y="311.67" width="223.945" height="223.61" filterUnits="userSpaceOnUse" color-interpolation-filters="sRGB"><feFlood flood-opacity="0" result="BackgroundImageFix"/><feColorMatrix in="SourceAlpha" values="0 0 0 0 0 0 0 0 0 0 0 0 0 0 0 0 0 0 127 0"/><feOffset dx="-20" dy="40"/><feGaussianBlur stdDeviation="20"/><feColorMatrix values="0 0 0 0 0.496667 0 0 0 0 0.550472 0 0 0 0 0.620833 0 0 0 0.2 0"/><feBlend in2="BackgroundImageFix" result="effect1_dropShadow"/><feBlend in="SourceGraphic" in2="effect1_dropShadow" result="shape"/></filter><filter id="filter4_i" x="338.714" y="348.526" width="81.959" height="70.19" filterUnits="userSpaceOnUse" color-interpolation-filters="sRGB"><feFlood flood-opacity="0" result="BackgroundImageFix"/><feBlend in="SourceGraphic" in2="BackgroundImageFix" result="shape"/><feColorMatrix in="SourceAlpha" values="0 0 0 0 0 0 0 0 0 0 0 0 0 0 0 0 0 0 127 0" result="hardAlpha"/><feOffset dx="-1" dy="1"/><feGaussianBlur stdDeviation="1"/><feComposite in2="hardAlpha" operator="arithmetic" k2="-1" k3="1"/><feColorMatrix values="0 0 0 0 0.779653 0 0 0 0 0.822019 0 0 0 0 0.858333 0 0 0 1 0"/><feBlend in2="shape" result="effect1_innerShadow"/></filter><filter id="filter5_d" x="383.799" y="276.576" width="223.945" height="223.61" filterUnits="userSpaceOnUse" color-interpolation-filters="sRGB"><feFlood flood-opacity="0" result="BackgroundImageFix"/><feColorMatrix in="SourceAlpha" values="0 0 0 0 0 0 0 0 0 0 0 0 0 0 0 0 0 0 127 0"/><feOffset dx="-20" dy="40"/><feGaussianBlur stdDeviation="20"/><feColorMatrix values="0 0 0 0 0.496667 0 0 0 0 0.550472 0 0 0 0 0.620833 0 0 0 0.2 0"/><feBlend in2="BackgroundImageFix" result="effect1_dropShadow"/><feBlend in="SourceGraphic" in2="effect1_dropShadow" result="shape"/></filter><filter id="filter6_i" x="481.518" y="314.14" width="66.364" height="67.558" filterUnits="userSpaceOnUse" color-interpolation-filters="sRGB"><feFlood flood-opacity="0" result="BackgroundImageFix"/><feBlend in="SourceGraphic" in2="BackgroundImageFix" result="shape"/><feColorMatrix in="SourceAlpha" values="0 0 0 0 0 0 0 0 0 0 0 0 0 0 0 0 0 0 127 0" result="hardAlpha"/><feOffset dx="-1" dy="1"/><feGaussianBlur stdDeviation="1"/><feComposite in2="hardAlpha" operator="arithmetic" k2="-1" k3="1"/><feColorMatrix values="0 0 0 0 0.779653 0 0 0 0 0.822019 0 0 0 0 0.858333 0 0 0 1 0"/><feBlend in2="shape" result="effect1_innerShadow"/></filter><filter id="filter7_f" x="211.528" y="45.032" width="406" height="385.003" filterUnits="userSpaceOnUse" color-interpolation-filters="sRGB"><feFlood flood-opacity="0" result="BackgroundImageFix"/><feBlend in="SourceGraphic" in2="BackgroundImageFix" result="shape"/><feGaussianBlur stdDeviation="2" result="effect1_foregroundBlur"/></filter><filter id="filter8_d" x="263.586" y="8.574" width="491.887" height="474.423" filterUnits="userSpaceOnUse" color-interpolation-filters="sRGB"><feFlood flood-opacity="0" result="BackgroundImageFix"/><feColorMatrix in="SourceAlpha" values="0 0 0 0 0 0 0 0 0 0 0 0 0 0 0 0 0 0 127 0"/><feOffset dx="-20" dy="40"/><feGaussianBlur stdDeviation="25"/><feColorMatrix values="0 0 0 0 0.496667 0 0 0 0 0.550472 0 0 0 0 0.620833 0 0 0 0.2 0"/><feBlend in2="BackgroundImageFix" result="effect1_dropShadow"/><feBlend in="SourceGraphic" in2="effect1_dropShadow" result="shape"/></filter><clipPath id="clip0"><path fill="#fff" d="M0 0h590v444H0z"/></clipPath><pattern id="pattern0" patternContentUnits="objectBoundingBox" width="1" height="1"><use xlink:href="#image0" transform="matrix(.00252 0 0 .00266 -.001 0)"/></pattern></defs></svg>