<svg width="390" height="263" viewBox="0 0 390 263" fill="none" xmlns="http://www.w3.org/2000/svg">
<g clip-path="url(#clip0)">
<path opacity="0.1" d="M359.551 150.126C337.721 148.441 318.61 164.873 316.94 186.503C315.219 208.81 328.642 224.579 352.064 226.387L353.656 226.51L351.726 251.52C378.461 231.144 393.917 214.657 395.517 193.928C397.29 170.945 381.382 151.811 359.551 150.126Z" fill="url(#paint0_linear)"/>
<path opacity="0.1" d="M68.9858 186.997C54.7129 185.895 42.218 196.638 41.1266 210.78C40.001 225.364 48.7773 235.674 64.0909 236.856L65.1317 236.936L63.8697 253.288C81.3496 239.966 91.4543 229.187 92.5003 215.634C93.66 200.608 83.2588 188.098 68.9858 186.997Z" fill="url(#paint1_linear)"/>
<path d="M104.256 36.1737C81.5673 34.4227 61.705 51.5 59.97 73.981C58.1808 97.1646 72.1318 113.553 96.4748 115.432L98.1293 115.56L96.1231 141.553C123.91 120.376 139.973 103.241 141.635 81.6971C143.479 57.811 126.945 37.9248 104.256 36.1737Z" fill="url(#paint2_linear)"/>
<g filter="url(#filter0_b)">
<rect width="233.082" height="221.161" rx="20" transform="matrix(0.829256 0.558868 -0.559972 0.828511 90.8438 -67)" fill="url(#paint3_linear)" fill-opacity="0.1"/>
<rect x="0.134642" y="0.69369" width="232.082" height="220.161" rx="19.5" transform="matrix(0.829256 0.558868 -0.559972 0.828511 91.2552 -66.9563)" stroke="url(#paint4_linear)" stroke-opacity="0.2"/>
</g>
<g filter="url(#filter1_b)">
<rect width="233.082" height="221.161" rx="20" transform="matrix(0.955168 0.296065 -0.297336 0.954773 61.7588 -43)" fill="url(#paint5_linear)" fill-opacity="0.2"/>
<rect x="0.328916" y="0.625419" width="232.082" height="220.161" rx="19.5" transform="matrix(0.955168 0.296065 -0.297336 0.954773 61.9595 -43.0691)" stroke="url(#paint6_linear)" stroke-opacity="0.2"/>
</g>
<g filter="url(#filter2_b)">
<rect width="255.638" height="221.161" rx="20" transform="matrix(0.990812 0.135248 -0.136568 0.990631 59.8545 -28.0507)" fill="url(#paint7_linear)" fill-opacity="0.4"/>
<rect x="0.427122" y="0.56294" width="254.638" height="220.161" rx="19.5" transform="matrix(0.990812 0.135248 -0.136568 0.990631 59.9353 -28.1032)" stroke="url(#paint8_linear)" stroke-opacity="0.3"/>
</g>
<g opacity="0.6" filter="url(#filter3_b)">
<rect width="291.232" height="221.161" rx="20" transform="matrix(0.999952 -0.00977636 0.00844486 0.999964 39.8525 -17.1528)" fill="url(#paint9_linear)" fill-opacity="0.7"/>
<rect x="0.504199" y="0.495094" width="290.232" height="220.161" rx="19.5" transform="matrix(0.999952 -0.00977636 0.00844486 0.999964 39.8484 -17.1479)" stroke="url(#paint10_linear)" stroke-opacity="0.4"/>
</g>
<g filter="url(#filter4_b)">
<rect width="183.011" height="275.111" rx="20" transform="matrix(0.981627 -0.190809 0.189502 0.98188 215 -71.0798)" fill="url(#paint11_linear)" fill-opacity="0.7"/>
<rect x="0.585564" y="0.395536" width="182.011" height="274.111" rx="19.5" transform="matrix(0.981627 -0.190809 0.189502 0.98188 214.936 -70.9609)" stroke="url(#paint12_linear)" stroke-opacity="0.8"/>
<rect x="0.585564" y="0.395536" width="182.011" height="274.111" rx="19.5" transform="matrix(0.981627 -0.190809 0.189502 0.98188 214.936 -70.9609)" stroke="url(#paint13_linear)"/>
</g>
<g opacity="0.98" filter="url(#filter5_d)">
<rect width="273.835" height="233.689" rx="20" transform="matrix(0.981627 -0.190809 0.189502 0.98188 82.3057 -18.7499)" fill="url(#paint14_linear)"/>
<rect x="1.17113" y="0.791071" width="271.835" height="231.689" rx="19" transform="matrix(0.981627 -0.190809 0.189502 0.98188 82.1773 -18.5121)" stroke="url(#paint15_linear)" stroke-width="2"/>
<rect x="1.17113" y="0.791071" width="271.835" height="231.689" rx="19" transform="matrix(0.981627 -0.190809 0.189502 0.98188 82.1773 -18.5121)" stroke="url(#paint16_linear)" stroke-width="2"/>
</g>
<g opacity="0.98" filter="url(#filter6_bd)">
<rect width="114.304" height="234.437" rx="20" transform="matrix(0.981627 -0.190809 0.189502 0.98188 -50 3.81018)" fill="url(#paint17_linear)" fill-opacity="0.88"/>
<rect x="1.17113" y="0.791071" width="112.304" height="232.437" rx="19" transform="matrix(0.981627 -0.190809 0.189502 0.98188 -50.1284 4.04798)" stroke="url(#paint18_linear)" stroke-width="2"/>
<rect x="1.17113" y="0.791071" width="112.304" height="232.437" rx="19" transform="matrix(0.981627 -0.190809 0.189502 0.98188 -50.1284 4.04798)" stroke="url(#paint19_linear)" stroke-width="2"/>
</g>
<g opacity="0.99">
<g opacity="0.96" filter="url(#filter7_d)">
<rect width="75.2958" height="74.8707" rx="20" transform="matrix(0.981627 -0.190809 0.189502 0.98188 -6 139.367)" fill="url(#paint20_linear)"/>
<rect x="1.17113" y="0.791071" width="73.2958" height="72.8707" rx="19" transform="matrix(0.981627 -0.190809 0.189502 0.98188 -6.12839 139.605)" stroke="url(#paint21_linear)" stroke-width="2"/>
<rect x="1.17113" y="0.791071" width="73.2958" height="72.8707" rx="19" transform="matrix(0.981627 -0.190809 0.189502 0.98188 -6.12839 139.605)" stroke="url(#paint22_linear)" stroke-width="2"/>
</g>
<g filter="url(#filter8_i)">
<path fill-rule="evenodd" clip-rule="evenodd" d="M57.3862 149.967C55.8382 148.809 53.648 149.129 52.4941 150.68L49.1967 155.113L34.341 175.083C34.1927 175.283 34.0962 175.516 34.06 175.762L32.9353 183.411C28.987 184.722 25.8737 185.096 23.5852 184.906C21.0047 184.691 19.6743 183.792 19.1414 182.95C18.6514 182.175 18.5989 181.066 19.4803 179.729C20.3773 178.369 22.2078 176.885 25.1756 175.785C28.5189 174.547 30.6551 172.796 31.3682 170.589C32.1006 168.323 31.1556 166.164 29.6809 164.569C28.1985 162.966 26.0157 161.715 23.6537 161.068C21.2846 160.42 18.608 160.346 16.1416 161.259C15.3649 161.547 14.9683 162.41 15.2557 163.187C15.5431 163.964 16.4057 164.361 17.1823 164.074C18.941 163.422 20.9604 163.443 22.8626 163.963C24.7719 164.486 26.4357 165.478 27.4797 166.607C28.5313 167.745 28.7923 168.807 28.5149 169.666C28.2181 170.584 27.1286 171.862 24.1347 172.971C20.7653 174.219 18.3261 176.031 16.9774 178.076C15.6131 180.145 15.3389 182.549 16.6076 184.555C17.8333 186.492 20.2419 187.64 23.3372 187.897C26.0955 188.126 29.5639 187.673 33.7028 186.317C34.0741 186.457 34.492 186.446 34.8619 186.273L43.0248 182.464C43.2497 182.359 43.445 182.2 43.5933 182.001L58.449 162.03L61.7465 157.597C62.9003 156.046 62.5807 153.85 61.0328 152.693L57.3862 149.967ZM54.8966 152.476C55.0614 152.254 55.3743 152.209 55.5955 152.374L59.242 155.1C59.4632 155.266 59.5088 155.579 59.344 155.801L56.9419 159.03L52.4945 155.705L54.8966 152.476ZM50.7038 158.112L55.1512 161.437L42.0862 179.001L37.6388 175.676L50.7038 158.112ZM36.6585 178.689L39.485 180.802L36.1167 182.374L36.6585 178.689Z" fill="url(#paint23_linear)"/>
</g>
</g>
<g opacity="0.99">
<g opacity="0.96" filter="url(#filter9_d)">
<rect width="75.2959" height="74.8708" rx="20" transform="matrix(0.981627 -0.190809 0.189502 0.98188 -24.9023 55.3671)" fill="url(#paint24_linear)"/>
<rect x="1.17113" y="0.791071" width="73.2959" height="72.8708" rx="19" transform="matrix(0.981627 -0.190809 0.189502 0.98188 -25.0307 55.6049)" stroke="url(#paint25_linear)" stroke-width="2"/>
<rect x="1.17113" y="0.791071" width="73.2959" height="72.8708" rx="19" transform="matrix(0.981627 -0.190809 0.189502 0.98188 -25.0307 55.6049)" stroke="url(#paint26_linear)" stroke-width="2"/>
</g>
</g>
<g clip-path="url(#clip1)">
<g filter="url(#filter10_i)">
<path fill-rule="evenodd" clip-rule="evenodd" d="M-4.45056 89.2495C-6.84791 76.9163 2.35132 64.7123 16.0566 62.0482C29.7619 59.3842 42.863 67.2535 45.2603 79.5867C45.4159 80.3871 45.5203 81.1896 45.58 81.988C46.7666 96.0011 34.5463 108.441 32.0834 110.793L30.9084 111.914C28.9603 113.535 28.3852 111.799 28.2422 111.368C28.2222 111.308 28.2106 111.273 28.205 111.276L27.216 106.188C12.6703 110.447 -1.90972 102.321 -4.45056 89.2495ZM31.413 77.9211C30.3691 77.5049 29.2755 77.408 28.1322 77.6302C27.3534 77.7816 26.6447 78.1171 26.0063 78.6367C25.3646 79.1398 24.8933 79.6785 24.5922 80.2529L23.5825 75.0581C23.4987 74.6273 23.2886 74.2984 22.9522 74.0715C22.6125 73.828 22.2272 73.7481 21.7964 73.8318C21.3656 73.9156 21.0383 74.134 20.8146 74.487C20.5877 74.8234 20.5161 75.2071 20.5998 75.6379L23.6339 91.2471C23.7209 91.6945 23.9326 92.0317 24.269 92.2586C24.6055 92.4856 24.9891 92.5572 25.42 92.4734C25.8508 92.3897 26.1797 92.1796 26.4066 91.8431C26.6303 91.4901 26.7003 91.0982 26.6166 90.6674L26.5876 90.5182C27.1417 90.892 27.799 91.177 28.5594 91.3731C29.3331 91.5494 30.1176 91.5603 30.913 91.4057C32.0232 91.1899 32.9776 90.7034 33.7763 89.9463C34.5883 89.1694 35.1579 88.2075 35.4853 87.0605C35.8094 85.8969 35.8426 84.6523 35.5849 83.3267C35.3272 82.001 34.8235 80.8694 34.0738 79.9318C33.3406 78.9909 32.4537 78.3207 31.413 77.9211ZM32.2872 87.063C31.7624 87.9904 30.9698 88.5572 29.9093 88.7634C28.8322 88.9727 27.8767 88.7458 27.0427 88.0824C26.2087 87.4191 25.6758 86.4909 25.4439 85.2979C25.212 84.1048 25.36 83.0529 25.888 82.142C26.4128 81.2146 27.2137 80.6462 28.2908 80.4368C29.3679 80.2274 30.3151 80.456 31.1325 81.1226C31.9633 81.7693 32.4946 82.6892 32.7265 83.8823C32.9584 85.0753 32.812 86.1356 32.2872 87.063ZM22.2605 91.4367C22.2251 91.2544 22.145 91.0636 22.0203 90.8643L13.0747 77.4876C12.8975 77.1953 12.6602 76.992 12.3629 76.8779C12.0789 76.7439 11.7878 76.7059 11.4895 76.7639C11.1517 76.7952 10.8679 76.9277 10.6382 77.1615C10.4085 77.3953 10.2596 77.6908 10.1914 78.048L6.89161 94.1146C6.87411 94.2899 6.87985 94.4522 6.90884 94.6013C6.98614 94.999 7.15505 95.2929 7.41555 95.483C7.69263 95.6699 8.04658 95.7215 8.47741 95.6377C8.75911 95.583 8.99984 95.4502 9.19962 95.2394C9.41274 95.0088 9.5467 94.7248 9.60149 94.3875L10.3045 91.1039L17.7115 89.6641L19.5885 92.4204C19.7823 92.7094 20.0129 92.9226 20.2803 93.0598C20.5643 93.1937 20.8554 93.2317 21.1537 93.1737C21.5182 93.1029 21.8156 92.9075 22.0457 92.5876C22.2727 92.2512 22.3443 91.8675 22.2605 91.4367ZM12.297 81.7143L15.9379 87.0425L10.9668 88.0088L12.297 81.7143Z" fill="url(#paint27_linear)"/>
</g>
</g>
<g opacity="0.99">
<g opacity="0.96" filter="url(#filter11_d)">
<rect width="75.2958" height="74.8707" rx="20" transform="matrix(0.981627 -0.190809 0.189502 0.98188 -42 -24.6329)" fill="url(#paint28_linear)"/>
<rect x="1.17113" y="0.791071" width="73.2958" height="72.8707" rx="19" transform="matrix(0.981627 -0.190809 0.189502 0.98188 -42.1284 -24.3951)" stroke="url(#paint29_linear)" stroke-width="2"/>
<rect x="1.17113" y="0.791071" width="73.2958" height="72.8707" rx="19" transform="matrix(0.981627 -0.190809 0.189502 0.98188 -42.1284 -24.3951)" stroke="url(#paint30_linear)" stroke-width="2"/>
</g>
<g filter="url(#filter12_i)">
<path fill-rule="evenodd" clip-rule="evenodd" d="M-1.65347 -12.6433C-11.2042 -10.7868 -17.4541 -1.5175 -15.6045 8.06607C-13.7549 17.6496 -4.50841 23.9067 5.04235 22.0503C7.65217 21.543 10.0116 20.4841 12.0271 19.0186C12.2749 18.8385 12.5717 18.7384 12.8778 18.7319C14.5838 18.6958 18.6073 18.2424 22.9813 16.8292C22.1941 16.2599 21.5323 15.5793 20.9877 14.8724C19.696 13.1959 18.9783 11.2734 18.701 9.96896C18.6518 9.73737 18.6581 9.49734 18.7193 9.2685C19.3906 6.76145 19.5193 4.06577 18.9934 1.34091C17.1438 -8.24266 7.89729 -14.4998 -1.65347 -12.6433ZM-18.5494 8.63849C-20.7118 -2.5655 -13.4055 -13.4151 -2.22197 -15.5889C8.96159 -17.7628 19.7759 -10.4355 21.9383 0.768483C22.5261 3.81437 22.414 6.83751 21.7128 9.66748C21.9607 10.6051 22.4959 11.9118 23.364 13.0386C24.3235 14.2839 25.6017 15.2077 27.2847 15.3421C27.9681 15.3966 28.527 15.908 28.642 16.5841C28.757 17.2603 28.399 17.9289 27.7724 18.2081C22.0782 20.7457 16.151 21.5827 13.408 21.7153C11.1305 23.2935 8.49814 24.4347 5.61085 24.9959C-5.57272 27.1698 -16.3871 19.8425 -18.5494 8.63849ZM-8.30587 4.47636C-8.46286 3.66294 -7.93089 2.87539 -7.11769 2.71732L7.54747 -0.133296C8.36068 -0.291368 9.14718 0.239895 9.30417 1.05331C9.46116 1.86673 8.92919 2.65427 8.11598 2.81234L-6.54918 5.66296C-7.36239 5.82103 -8.14889 5.28977 -8.30587 4.47636ZM-2.29503 9.77699C-3.10823 9.93506 -3.6402 10.7226 -3.48321 11.536C-3.32623 12.3494 -2.53973 12.8807 -1.72652 12.7226L8.8324 10.6702C9.6456 10.5121 10.1776 9.72457 10.0206 8.91115C9.86359 8.09773 9.0771 7.56647 8.26389 7.72454L-2.29503 9.77699Z" fill="url(#paint31_linear)"/>
</g>
</g>
</g>
<defs>
<filter id="filter0_b" x="-29.1367" y="-63.1486" width="309.402" height="305.793" filterUnits="userSpaceOnUse" color-interpolation-filters="sRGB">
<feFlood flood-opacity="0" result="BackgroundImageFix"/>
<feGaussianBlur in="BackgroundImage" stdDeviation="2"/>
<feComposite in2="SourceAlpha" operator="in" result="effect1_backgroundBlur"/>
<feBlend mode="normal" in="SourceGraphic" in2="effect1_backgroundBlur" result="shape"/>
</filter>
<filter id="filter1_b" x="-2.44434" y="-41.4606" width="285.279" height="277.087" filterUnits="userSpaceOnUse" color-interpolation-filters="sRGB">
<feFlood flood-opacity="0" result="BackgroundImageFix"/>
<feGaussianBlur in="BackgroundImage" stdDeviation="2"/>
<feComposite in2="SourceAlpha" operator="in" result="effect1_backgroundBlur"/>
<feBlend mode="normal" in="SourceGraphic" in2="effect1_backgroundBlur" result="shape"/>
</filter>
<filter id="filter2_b" x="28.8418" y="-28.8835" width="285.11" height="255.329" filterUnits="userSpaceOnUse" color-interpolation-filters="sRGB">
<feFlood flood-opacity="0" result="BackgroundImageFix"/>
<feGaussianBlur in="BackgroundImage" stdDeviation="2"/>
<feComposite in2="SourceAlpha" operator="in" result="effect1_backgroundBlur"/>
<feBlend mode="normal" in="SourceGraphic" in2="effect1_backgroundBlur" result="shape"/>
</filter>
<filter id="filter3_b" x="36.1436" y="-23.6666" width="300.504" height="231.333" filterUnits="userSpaceOnUse" color-interpolation-filters="sRGB">
<feFlood flood-opacity="0" result="BackgroundImageFix"/>
<feGaussianBlur in="BackgroundImage" stdDeviation="2"/>
<feComposite in2="SourceAlpha" operator="in" result="effect1_backgroundBlur"/>
<feBlend mode="normal" in="SourceGraphic" in2="effect1_backgroundBlur" result="shape"/>
</filter>
<filter id="filter4_b" x="215.07" y="-105.909" width="231.642" height="304.864" filterUnits="userSpaceOnUse" color-interpolation-filters="sRGB">
<feFlood flood-opacity="0" result="BackgroundImageFix"/>
<feGaussianBlur in="BackgroundImage" stdDeviation="2"/>
<feComposite in2="SourceAlpha" operator="in" result="effect1_backgroundBlur"/>
<feBlend mode="normal" in="SourceGraphic" in2="effect1_backgroundBlur" result="shape"/>
</filter>
<filter id="filter5_d" x="56.376" y="-76.9088" width="344.947" height="313.523" filterUnits="userSpaceOnUse" color-interpolation-filters="sRGB">
<feFlood flood-opacity="0" result="BackgroundImageFix"/>
<feColorMatrix in="SourceAlpha" type="matrix" values="0 0 0 0 0 0 0 0 0 0 0 0 0 0 0 0 0 0 127 0"/>
<feOffset dx="-10" dy="10"/>
<feGaussianBlur stdDeviation="10"/>
<feColorMatrix type="matrix" values="0 0 0 0 0 0 0 0 0 0 0 0 0 0 0 0 0 0 0.1 0"/>
<feBlend mode="normal" in2="BackgroundImageFix" result="effect1_dropShadow"/>
<feBlend mode="normal" in="SourceGraphic" in2="effect1_dropShadow" result="shape"/>
</filter>
<filter id="filter6_bd" x="-75.9297" y="-23.9088" width="188.489" height="283.817" filterUnits="userSpaceOnUse" color-interpolation-filters="sRGB">
<feFlood flood-opacity="0" result="BackgroundImageFix"/>
<feGaussianBlur in="BackgroundImage" stdDeviation="4"/>
<feComposite in2="SourceAlpha" operator="in" result="effect1_backgroundBlur"/>
<feColorMatrix in="SourceAlpha" type="matrix" values="0 0 0 0 0 0 0 0 0 0 0 0 0 0 0 0 0 0 127 0"/>
<feOffset dx="-10" dy="10"/>
<feGaussianBlur stdDeviation="10"/>
<feColorMatrix type="matrix" values="0 0 0 0 0 0 0 0 0 0 0 0 0 0 0 0 0 0 0.06 0"/>
<feBlend mode="normal" in2="effect1_backgroundBlur" result="effect2_dropShadow"/>
<feBlend mode="normal" in="SourceGraphic" in2="effect2_dropShadow" result="shape"/>
</filter>
<filter id="filter7_d" x="-62.0859" y="128.941" width="160.273" height="160" filterUnits="userSpaceOnUse" color-interpolation-filters="sRGB">
<feFlood flood-opacity="0" result="BackgroundImageFix"/>
<feColorMatrix in="SourceAlpha" type="matrix" values="0 0 0 0 0 0 0 0 0 0 0 0 0 0 0 0 0 0 127 0"/>
<feOffset dx="-20" dy="40"/>
<feGaussianBlur stdDeviation="20"/>
<feColorMatrix type="matrix" values="0 0 0 0 0.496667 0 0 0 0 0.550472 0 0 0 0 0.620833 0 0 0 0.2 0"/>
<feBlend mode="normal" in2="BackgroundImageFix" result="effect1_dropShadow"/>
<feBlend mode="normal" in="SourceGraphic" in2="effect1_dropShadow" result="shape"/>
</filter>
<filter id="filter8_i" x="14.1621" y="149.271" width="48.2775" height="39.6825" filterUnits="userSpaceOnUse" color-interpolation-filters="sRGB">
<feFlood flood-opacity="0" result="BackgroundImageFix"/>
<feBlend mode="normal" in="SourceGraphic" in2="BackgroundImageFix" result="shape"/>
<feColorMatrix in="SourceAlpha" type="matrix" values="0 0 0 0 0 0 0 0 0 0 0 0 0 0 0 0 0 0 127 0" result="hardAlpha"/>
<feOffset dx="-1" dy="1"/>
<feGaussianBlur stdDeviation="1"/>
<feComposite in2="hardAlpha" operator="arithmetic" k2="-1" k3="1"/>
<feColorMatrix type="matrix" values="0 0 0 0 0.779653 0 0 0 0 0.822019 0 0 0 0 0.858333 0 0 0 1 0"/>
<feBlend mode="normal" in2="shape" result="effect1_innerShadow"/>
</filter>
<filter id="filter9_d" x="-80.9883" y="44.9406" width="160.273" height="160" filterUnits="userSpaceOnUse" color-interpolation-filters="sRGB">
<feFlood flood-opacity="0" result="BackgroundImageFix"/>
<feColorMatrix in="SourceAlpha" type="matrix" values="0 0 0 0 0 0 0 0 0 0 0 0 0 0 0 0 0 0 127 0"/>
<feOffset dx="-20" dy="40"/>
<feGaussianBlur stdDeviation="20"/>
<feColorMatrix type="matrix" values="0 0 0 0 0.496667 0 0 0 0 0.550472 0 0 0 0 0.620833 0 0 0 0.2 0"/>
<feBlend mode="normal" in2="BackgroundImageFix" result="effect1_dropShadow"/>
<feBlend mode="normal" in="SourceGraphic" in2="effect1_dropShadow" result="shape"/>
</filter>
<filter id="filter10_i" x="-5.83008" y="61.5299" width="51.4914" height="52.0628" filterUnits="userSpaceOnUse" color-interpolation-filters="sRGB">
<feFlood flood-opacity="0" result="BackgroundImageFix"/>
<feBlend mode="normal" in="SourceGraphic" in2="BackgroundImageFix" result="shape"/>
<feColorMatrix in="SourceAlpha" type="matrix" values="0 0 0 0 0 0 0 0 0 0 0 0 0 0 0 0 0 0 127 0" result="hardAlpha"/>
<feOffset dx="-1" dy="1"/>
<feGaussianBlur stdDeviation="1"/>
<feComposite in2="hardAlpha" operator="arithmetic" k2="-1" k3="1"/>
<feColorMatrix type="matrix" values="0 0 0 0 0.779653 0 0 0 0 0.822019 0 0 0 0 0.858333 0 0 0 1 0"/>
<feBlend mode="normal" in2="shape" result="effect1_innerShadow"/>
</filter>
<filter id="filter11_d" x="-98.0859" y="-35.0594" width="160.273" height="160" filterUnits="userSpaceOnUse" color-interpolation-filters="sRGB">
<feFlood flood-opacity="0" result="BackgroundImageFix"/>
<feColorMatrix in="SourceAlpha" type="matrix" values="0 0 0 0 0 0 0 0 0 0 0 0 0 0 0 0 0 0 127 0"/>
<feOffset dx="-20" dy="40"/>
<feGaussianBlur stdDeviation="20"/>
<feColorMatrix type="matrix" values="0 0 0 0 0.496667 0 0 0 0 0.550472 0 0 0 0 0.620833 0 0 0 0.2 0"/>
<feBlend mode="normal" in2="BackgroundImageFix" result="effect1_dropShadow"/>
<feBlend mode="normal" in="SourceGraphic" in2="effect1_dropShadow" result="shape"/>
</filter>
<filter id="filter12_i" x="-19.9287" y="-15.9708" width="48.5919" height="42.3487" filterUnits="userSpaceOnUse" color-interpolation-filters="sRGB">
<feFlood flood-opacity="0" result="BackgroundImageFix"/>
<feBlend mode="normal" in="SourceGraphic" in2="BackgroundImageFix" result="shape"/>
<feColorMatrix in="SourceAlpha" type="matrix" values="0 0 0 0 0 0 0 0 0 0 0 0 0 0 0 0 0 0 127 0" result="hardAlpha"/>
<feOffset dx="-1" dy="1"/>
<feGaussianBlur stdDeviation="1"/>
<feComposite in2="hardAlpha" operator="arithmetic" k2="-1" k3="1"/>
<feColorMatrix type="matrix" values="0 0 0 0 0.779653 0 0 0 0 0.822019 0 0 0 0 0.858333 0 0 0 1 0"/>
<feBlend mode="normal" in2="shape" result="effect1_innerShadow"/>
</filter>
<linearGradient id="paint0_linear" x1="359.324" y1="150.109" x2="348.87" y2="297.947" gradientUnits="userSpaceOnUse">
<stop stop-color="white"/>
<stop offset="1" stop-color="white" stop-opacity="0.442288"/>
</linearGradient>
<linearGradient id="paint1_linear" x1="68.8372" y1="186.985" x2="62.0022" y2="283.643" gradientUnits="userSpaceOnUse">
<stop stop-color="white"/>
<stop offset="1" stop-color="white" stop-opacity="0.442288"/>
</linearGradient>
<linearGradient id="paint2_linear" x1="104.02" y1="36.1555" x2="93.1546" y2="189.805" gradientUnits="userSpaceOnUse">
<stop stop-color="white"/>
<stop offset="1" stop-color="white" stop-opacity="0.442288"/>
</linearGradient>
<linearGradient id="paint3_linear" x1="249.169" y1="237.431" x2="59.2515" y2="-38.007" gradientUnits="userSpaceOnUse">
<stop stop-color="#EBF2F9"/>
<stop offset="1" stop-color="#F8FAFD"/>
</linearGradient>
<linearGradient id="paint4_linear" x1="11.9344" y1="221.357" x2="157.509" y2="3.07121" gradientUnits="userSpaceOnUse">
<stop stop-color="white"/>
<stop offset="1" stop-color="white" stop-opacity="0"/>
</linearGradient>
<linearGradient id="paint5_linear" x1="249.169" y1="237.431" x2="59.2515" y2="-38.007" gradientUnits="userSpaceOnUse">
<stop stop-color="#EBF2F9"/>
<stop offset="1" stop-color="#F8FAFD"/>
</linearGradient>
<linearGradient id="paint6_linear" x1="11.9344" y1="221.357" x2="157.509" y2="3.07121" gradientUnits="userSpaceOnUse">
<stop stop-color="white"/>
<stop offset="1" stop-color="white" stop-opacity="0"/>
</linearGradient>
<linearGradient id="paint7_linear" x1="273.281" y1="237.431" x2="90.1681" y2="-53.8387" gradientUnits="userSpaceOnUse">
<stop stop-color="#EBF2F9"/>
<stop offset="1" stop-color="#F8FAFD"/>
</linearGradient>
<linearGradient id="paint8_linear" x1="13.0893" y1="221.357" x2="153.089" y2="-8.88456" gradientUnits="userSpaceOnUse">
<stop stop-color="white"/>
<stop offset="1" stop-color="white" stop-opacity="0"/>
</linearGradient>
<linearGradient id="paint9_linear" x1="311.333" y1="237.431" x2="139.423" y2="-74.0913" gradientUnits="userSpaceOnUse">
<stop stop-color="#EBF2F9"/>
<stop offset="1" stop-color="#F8FAFD"/>
</linearGradient>
<linearGradient id="paint10_linear" x1="14.9119" y1="221.357" x2="145.917" y2="-24.09" gradientUnits="userSpaceOnUse">
<stop stop-color="white"/>
<stop offset="1" stop-color="white" stop-opacity="0"/>
</linearGradient>
<linearGradient id="paint11_linear" x1="195.642" y1="295.351" x2="-56.1364" y2="64.8643" gradientUnits="userSpaceOnUse">
<stop stop-color="#EBF2F9"/>
<stop offset="1" stop-color="#F8FAFD"/>
</linearGradient>
<linearGradient id="paint12_linear" x1="177.397" y1="-7.89154e-07" x2="-0.55886" y2="156.843" gradientUnits="userSpaceOnUse">
<stop stop-color="white"/>
<stop offset="1" stop-color="white" stop-opacity="0"/>
</linearGradient>
<linearGradient id="paint13_linear" x1="3.92969" y1="275.111" x2="139.286" y2="128.593" gradientUnits="userSpaceOnUse">
<stop stop-color="white"/>
<stop offset="1" stop-color="white" stop-opacity="0"/>
</linearGradient>
<linearGradient id="paint14_linear" x1="292.734" y1="250.882" x2="100.404" y2="-59.2562" gradientUnits="userSpaceOnUse">
<stop stop-color="#EBF2F9"/>
<stop offset="1" stop-color="#F8FAFD"/>
</linearGradient>
<linearGradient id="paint15_linear" x1="265.435" y1="-1.24394e-06" x2="121.491" y2="261.884" gradientUnits="userSpaceOnUse">
<stop stop-color="white"/>
<stop offset="1" stop-color="white" stop-opacity="0"/>
</linearGradient>
<linearGradient id="paint16_linear" x1="5.87989" y1="233.689" x2="100.761" y2="52.7748" gradientUnits="userSpaceOnUse">
<stop stop-color="#C9D3DF"/>
<stop offset="1" stop-color="white" stop-opacity="0"/>
</linearGradient>
<linearGradient id="paint17_linear" x1="122.193" y1="251.684" x2="-77.1179" y2="117.956" gradientUnits="userSpaceOnUse">
<stop stop-color="#EBF2F9"/>
<stop offset="1" stop-color="#F8FAFD"/>
</linearGradient>
<linearGradient id="paint18_linear" x1="110.798" y1="-1.24792e-06" x2="-53.829" y2="124.624" gradientUnits="userSpaceOnUse">
<stop stop-color="white"/>
<stop offset="1" stop-color="white" stop-opacity="0"/>
</linearGradient>
<linearGradient id="paint19_linear" x1="2.45438" y1="234.437" x2="115.129" y2="145.043" gradientUnits="userSpaceOnUse">
<stop stop-color="#C9D3DF"/>
<stop offset="1" stop-color="white" stop-opacity="0"/>
</linearGradient>
<linearGradient id="paint20_linear" x1="74.1006" y1="1.45098" x2="2.47213" y2="70.2925" gradientUnits="userSpaceOnUse">
<stop stop-color="#E5EDF4"/>
<stop offset="1" stop-color="#F8FAFD"/>
</linearGradient>
<linearGradient id="paint21_linear" x1="72.9861" y1="-3.9854e-07" x2="23.3684" y2="77.4754" gradientUnits="userSpaceOnUse">
<stop stop-color="white"/>
<stop offset="1" stop-color="white" stop-opacity="0"/>
</linearGradient>
<linearGradient id="paint22_linear" x1="1.61678" y1="74.8707" x2="34.4995" y2="21.0596" gradientUnits="userSpaceOnUse">
<stop stop-color="#C9D3DF"/>
<stop offset="1" stop-color="white" stop-opacity="0"/>
</linearGradient>
<linearGradient id="paint23_linear" x1="60.2454" y1="147.056" x2="17.0522" y2="188.022" gradientUnits="userSpaceOnUse">
<stop stop-color="#CEDCE8"/>
<stop offset="1" stop-color="#DDE6ED" stop-opacity="0.58"/>
</linearGradient>
<linearGradient id="paint24_linear" x1="74.1007" y1="1.45098" x2="2.47213" y2="70.2925" gradientUnits="userSpaceOnUse">
<stop stop-color="#E5EDF4"/>
<stop offset="1" stop-color="#F8FAFD"/>
</linearGradient>
<linearGradient id="paint25_linear" x1="72.9862" y1="-3.9854e-07" x2="23.3684" y2="77.4754" gradientUnits="userSpaceOnUse">
<stop stop-color="white"/>
<stop offset="1" stop-color="white" stop-opacity="0"/>
</linearGradient>
<linearGradient id="paint26_linear" x1="1.61678" y1="74.8708" x2="34.4996" y2="21.0596" gradientUnits="userSpaceOnUse">
<stop stop-color="#C9D3DF"/>
<stop offset="1" stop-color="white" stop-opacity="0"/>
</linearGradient>
<linearGradient id="paint27_linear" x1="37.0165" y1="54.5538" x2="-1.93783" y2="112.776" gradientUnits="userSpaceOnUse">
<stop stop-color="#CEDCE8"/>
<stop offset="1" stop-color="#DDE6ED" stop-opacity="0.58"/>
</linearGradient>
<linearGradient id="paint28_linear" x1="74.1006" y1="1.45098" x2="2.47213" y2="70.2925" gradientUnits="userSpaceOnUse">
<stop stop-color="#E5EDF4"/>
<stop offset="1" stop-color="#F8FAFD"/>
</linearGradient>
<linearGradient id="paint29_linear" x1="72.9861" y1="-3.9854e-07" x2="23.3684" y2="77.4754" gradientUnits="userSpaceOnUse">
<stop stop-color="white"/>
<stop offset="1" stop-color="white" stop-opacity="0"/>
</linearGradient>
<linearGradient id="paint30_linear" x1="1.61678" y1="74.8707" x2="34.4995" y2="21.0596" gradientUnits="userSpaceOnUse">
<stop stop-color="#C9D3DF"/>
<stop offset="1" stop-color="white" stop-opacity="0"/>
</linearGradient>
<linearGradient id="paint31_linear" x1="18.8981" y1="-23.5996" x2="-12.3859" y2="29.2498" gradientUnits="userSpaceOnUse">
<stop stop-color="#CEDCE8"/>
<stop offset="1" stop-color="#DDE6ED" stop-opacity="0.58"/>
</linearGradient>
<clipPath id="clip0">
<rect width="390" height="263" rx="18" fill="white"/>
</clipPath>
<clipPath id="clip1">
<rect width="54.5419" height="54.5419" fill="white" transform="translate(-11.0684 65.4153) rotate(-11)"/>
</clipPath>
</defs>
</svg>
