<svg width="1500" height="1025" viewBox="0 0 1500 1025" fill="none" opacity="0.4" xmlns="http://www.w3.org/2000/svg">
<path d="M1642.99 14.9422L1052.65 -455.838C964.515 -526.097 845.507 -543.997 740.369 -502.827L37.7314 -226.937C-67.1833 -185.766 -142.346 -91.5652 -159.123 20.0886L-271.42 766.759C-288.198 878.412 -244.129 990.29 -155.992 1060.77L434.125 1531.33C522.263 1601.59 641.27 1619.49 746.409 1578.32L1449.05 1302.43C1553.96 1261.26 1629.12 1167.06 1645.9 1055.4L1758.42 308.732C1775.2 197.302 1731.13 85.2012 1642.99 14.9422ZM1485.51 1202.19L841.033 1529.32C744.619 1578.09 629.638 1571.83 539.264 1512.98L-66.2885 1118.05C-156.663 1058.98 -208.785 956.279 -202.968 848.429L-163.821 126.596C-158.005 18.746 -94.922 -77.9161 1.26846 -126.695L645.968 -453.824C742.382 -502.603 857.363 -496.338 947.737 -437.49L1553.07 -42.5628C1643.44 16.5085 1695.56 119.212 1689.75 227.062L1650.6 948.895C1644.78 1056.97 1581.92 1153.41 1485.51 1202.19Z" fill="#1376A4"/>
<path d="M1615.48 156.356C1611.23 53.2052 1552.4 -39.8768 1460.9 -87.7604L849.311 -408.177C757.818 -456.061 647.982 -451.586 560.74 -396.318L-22.6664 -26.899C-109.909 28.3684 -160.912 125.926 -156.662 229.077L-128.476 919.137C-124.226 1022.29 -65.3928 1115.37 26.0999 1163.25L637.692 1483.67C729.185 1531.55 839.021 1527.08 926.263 1471.81L1509.67 1102.39C1596.91 1047.12 1647.92 949.567 1643.66 846.416L1615.48 156.356ZM1521.75 1004.16L1001.65 1407.82C924.026 1468.23 820.006 1482.33 728.961 1445.18L119.159 1196.37C28.1132 1159.23 -36.312 1076.21 -49.5102 978.655L-138.766 326.41C-152.188 228.853 -112.37 131.743 -34.7461 71.3293L485.353 -332.101C562.977 -392.515 666.997 -406.611 758.042 -369.468L1367.62 -120.652C1458.67 -83.509 1523.09 -0.495972 1536.29 97.0612L1625.55 749.53C1638.97 846.64 1599.37 943.75 1521.75 1004.16Z" fill="#1376A4"/>
<path opacity="0.7" d="M1454.42 48.506C1432.94 -42.5623 1364.49 -115.283 1275.01 -142.357L675.497 -322.703C586.018 -349.554 488.709 -326.731 420.704 -262.737L-35.4172 166.648C-103.645 230.866 -132.279 326.409 -110.804 417.478L32.8109 1026.99C54.2859 1118.05 122.738 1190.77 212.217 1217.85L811.729 1398.2C901.209 1425.05 998.518 1402.22 1066.52 1338.23L1522.42 909.067C1590.65 844.849 1619.28 749.306 1597.81 658.238L1454.42 48.506ZM1512.35 817.999L1120.66 1264.39C1062.05 1331.07 972.345 1361.5 885.326 1344.05L303.039 1227.69C216.02 1210.24 144.884 1147.81 116.474 1063.68L-74.1171 501.162C-102.527 417.03 -83.9598 324.172 -25.5745 257.493L366.346 -188.898C424.955 -255.577 514.658 -286.008 601.676 -268.555L1183.96 -152.202C1270.98 -134.749 1342.12 -72.3217 1370.53 11.8102L1561.12 574.33C1589.53 658.462 1570.96 751.32 1512.35 817.999Z" fill="#1376A4"/>
<path opacity="0.6" d="M1286.64 -13.9214C1252.19 -90.4456 1179.71 -143.028 1096.27 -151.531L537.475 -208.588C454.035 -217.091 372.385 -180.395 323.171 -112.374L-5.66582 342.968C-54.8795 410.989 -63.8275 500.044 -29.6016 576.791L200.361 1089.41C234.81 1165.94 307.289 1218.52 390.728 1227.02L949.528 1284.08C1032.97 1292.58 1114.62 1255.89 1163.83 1187.87L1492.67 732.525C1541.88 664.503 1550.83 575.449 1516.6 498.701L1286.64 -13.9214ZM1463.81 653.316L1196.04 1110.22C1156 1178.47 1082.63 1220.31 1003.44 1219.64L474.168 1216.06C394.978 1215.61 322.276 1172.87 283.129 1103.96L21.4017 643.47C-17.7456 574.778 -17.0745 490.198 22.9676 421.953L290.735 -34.7306C330.777 -102.976 404.15 -144.818 483.339 -144.147L1012.83 -140.567C1092.02 -140.119 1164.73 -97.382 1203.87 -28.4655L1465.6 432.022C1504.52 500.715 1503.85 585.07 1463.81 653.316Z" fill="#1376A4"/>
<path opacity="0.5" d="M1123.12 -32.717C1080.39 -93.5783 1008.58 -126.918 934.539 -120.429L439.27 -76.3491C365.225 -69.8603 300.353 -24.2142 269.035 43.136L59.4293 494.226C28.1115 561.576 35.0462 640.561 77.7726 701.423L363.436 1108.43C406.162 1169.29 477.97 1202.63 552.014 1196.14L1047.28 1152.07C1121.33 1145.58 1186.2 1099.93 1217.52 1032.58L1427.35 581.49C1458.66 514.14 1451.73 435.154 1409 374.293L1123.12 -32.717ZM1383.95 517.72L1228.93 956.28C1205.66 1021.84 1149.51 1069.95 1081.06 1082.7L623.821 1167.73C555.593 1180.48 485.575 1155.65 440.388 1102.84L138.171 749.306C92.9841 696.5 79.5622 623.556 102.603 557.996L257.626 119.436C280.891 53.8762 337.039 5.76888 405.491 -6.98515L862.731 -92.012C930.959 -104.766 1000.98 -79.9292 1046.16 -27.1231L1348.38 326.41C1393.57 379.216 1407.21 452.16 1383.95 517.72Z" fill="#1376A4"/>
<path opacity="0.4" d="M1285.3 288.371L974.133 -12.5791C927.604 -57.5538 860.718 -74.3354 798.53 -56.435L382.45 62.8263C320.262 80.7267 272.391 130.176 256.732 193.052L151.817 613.039C136.158 675.915 155.172 742.146 201.702 787.121L512.867 1087.85C559.396 1132.82 626.282 1149.6 688.47 1131.7L1104.55 1012.44C1166.74 994.542 1214.61 945.092 1230.27 882.217L1335.18 462.229C1350.84 399.577 1331.83 333.346 1285.3 288.371ZM1222.44 812.629C1213.49 871.924 1173.67 921.821 1117.97 943.749L745.066 1090.08C689.365 1112.01 626.282 1102.39 579.305 1065.02L266.127 815.314C219.374 777.947 195.886 718.428 204.834 659.357L264.561 263.087C273.509 203.792 313.327 153.895 369.028 131.967L741.934 -14.5929C797.635 -36.5209 860.718 -26.8994 907.695 10.4677L1220.87 260.178C1267.63 297.545 1291.11 357.064 1282.17 416.135L1222.44 812.629Z" fill="#1376A4"/>
<path opacity="0.3" d="M1156.23 242.053L847.745 40.6738C801.663 10.6906 743.054 7.33429 693.84 32.3948L365.227 199.092C316.237 223.929 284.024 273.155 281.116 328.199L261.207 696.052C258.299 751.095 284.695 803.454 331.001 833.437L639.481 1034.82C685.563 1064.8 744.172 1068.16 793.386 1043.1L1122 876.398C1170.99 851.562 1203.2 802.335 1206.11 747.292L1226.02 379.439C1228.93 324.395 1202.31 272.036 1156.23 242.053ZM1116.41 812.628L832.31 992.527C789.807 1019.38 736.343 1021.62 691.827 998.345L394.084 842.164C349.568 818.893 320.934 773.471 318.921 723.35L305.052 387.27C303.038 337.149 327.869 289.489 370.372 262.639L654.469 82.7397C696.972 55.8891 750.436 53.6515 794.952 76.922L1092.69 233.103C1137.21 256.374 1165.84 301.796 1167.86 351.917L1181.73 687.997C1183.74 738.341 1158.91 785.778 1116.41 812.628Z" fill="#1376A4"/>
<path opacity="0.2" d="M1031.63 233.551L750.213 118.765C708.157 101.536 660.062 108.249 624.27 135.994L384.018 322.382C348.226 350.128 329.883 395.103 335.923 440.077L377.083 741.251C383.347 786.226 412.875 824.488 454.93 841.717L736.343 956.503C778.399 973.733 826.494 967.02 862.286 939.274L1102.54 752.887C1138.33 725.141 1156.67 680.166 1150.63 635.192L1109.7 334.241C1103.43 289.043 1073.68 250.781 1031.63 233.551ZM1081.51 698.962L883.761 885.126C854.233 912.871 811.953 922.94 773.03 911.305L512.868 832.991C473.945 821.356 444.193 789.806 435.021 750.201L372.609 485.499C363.214 445.895 375.741 404.5 405.269 376.531L603.243 190.143C632.771 162.397 675.05 152.328 713.973 163.964L974.135 242.278C1013.06 253.913 1042.81 285.463 1051.98 325.067L1114.39 589.769C1123.57 629.598 1111.26 670.992 1081.51 698.962Z" fill="#1376A4"/>
<path opacity="0.1" d="M921.119 259.507L686.235 212.518C651.114 205.582 614.875 217.665 591.387 244.739L433.232 424.861C409.52 451.712 402.138 489.303 413.546 523.09L490.499 749.977C501.907 783.988 530.764 809.048 565.885 816.209L800.769 863.197C835.889 870.134 872.128 858.051 895.617 830.977L1053.77 650.854C1077.48 624.003 1084.87 586.412 1073.46 552.625L996.505 325.514C984.873 291.727 956.239 266.443 921.119 259.507ZM1019.99 609.683L898.525 777.723C880.405 802.783 850.206 816.432 819.336 813.3L613.085 792.267C582.215 789.134 555.371 769.668 542.844 741.475L458.062 552.178C445.312 523.985 448.667 491.093 466.787 465.809L588.255 297.769C606.374 272.708 636.574 259.059 667.444 262.192L873.694 283.225C904.565 286.357 931.409 305.824 943.936 334.017L1028.72 523.314C1041.47 551.73 1038.11 584.622 1019.99 609.683Z" fill="#1376A4"/>
</svg>
