<svg width="27" height="24" viewBox="0 0 27 24" fill="none" xmlns="http://www.w3.org/2000/svg">
<path d="M11.2776 21.8353H16.1238V23.4506H11.2776V21.8353ZM17.6632 16.7565C18.4951 15.7824 19.3545 14.7753 19.3545 12.9507C19.3545 9.83382 16.8176 7.29688 13.7007 7.29688C10.5838 7.29688 8.04688 9.83382 8.04688 12.9507C8.04688 14.7963 8.90868 15.8002 9.74383 16.7711C10.033 17.1087 10.3326 17.4584 10.6194 17.8606C10.7357 18.027 10.9263 18.6651 11.0967 19.4122H10.4699V21.0276H11.4085H15.9921H16.9314V19.4122H16.3063C16.4783 18.6635 16.6698 18.0238 16.7852 17.8574C17.0696 17.4511 17.3716 17.0982 17.6632 16.7565ZM15.4631 16.9286C15.1125 17.4269 14.8201 18.6045 14.6505 19.4122H12.7517C12.5828 18.6029 12.2897 17.4229 11.9351 16.9245C11.6064 16.4625 11.2679 16.0676 10.9691 15.7194C10.1824 14.8035 9.66225 14.1978 9.66225 12.9507C9.66225 10.7239 11.4739 8.91225 13.7007 8.91225C15.9275 8.91225 17.7391 10.7239 17.7391 12.9507C17.7391 14.1792 17.2198 14.7874 16.4347 15.7073C16.1334 16.0611 15.7918 16.4609 15.4631 16.9286Z" fill="white"/>
<path d="M14.5078 4.87347L14.5078 0.0273438L12.8924 0.0273437L12.8924 4.87347L14.5078 4.87347Z" fill="white"/>
<path d="M26.6215 12.1426L21.7754 12.1426L21.7754 13.758L26.6215 13.758L26.6215 12.1426Z" fill="white"/>
<path d="M5.62347 12.1426L0.777344 12.1426L0.777344 13.758L5.62347 13.758L5.62347 12.1426Z" fill="white"/>
<path d="M8.56149 6.66696L5.13477 3.24023L3.99252 4.38248L7.41925 7.80921L8.56149 6.66696Z" fill="white"/>
<path d="M22.2685 3.24124L18.8418 6.66797L19.984 7.81021L23.4108 4.38348L22.2685 3.24124Z" fill="white"/>
</svg>
