<svg width="42" height="42" viewBox="0 0 42 42" fill="none" xmlns="http://www.w3.org/2000/svg">
<path fill-rule="evenodd" clip-rule="evenodd" d="M31.0639 14.5099C29.3422 14.6391 27.8026 15.755 26.9087 16.8975C25.7334 15.5363 23.7864 14.6026 21.545 14.4706V9.55298C26.029 9.70241 29.9617 11.6794 32.3172 14.619C31.9191 14.5186 31.5007 14.4772 31.0639 14.5099ZM15.091 16.8975C14.1966 15.755 12.6575 14.6391 10.9358 14.5099C10.4995 14.4772 10.0812 14.5186 9.68253 14.6195C12.038 11.6799 15.9701 9.70187 20.4548 9.55298V14.4706C18.2133 14.6026 16.2663 15.5363 15.091 16.8975ZM33.636 16.7336C33.6447 16.7397 33.6534 16.7458 33.6615 16.753C34.2871 18.0657 34.6339 19.4962 34.6339 20.9944C34.6339 24.3261 32.9302 27.3294 30.2175 29.4242C30.3904 27.6174 29.7081 26.2818 29.0433 25.4386C28.3409 24.5486 27.3477 23.857 26.3393 23.4835C27.4263 22.5252 28.0894 21.2752 28.0894 19.9036C28.0894 19.1761 27.9029 18.4829 27.5664 17.8492C28.2596 16.8103 29.6961 15.707 31.1446 15.5979C32.1138 15.5281 32.934 15.8968 33.5993 16.7028C33.6101 16.7156 33.623 16.7246 33.636 16.7336ZM15.6533 23.478C14.6465 23.8521 13.6572 24.5491 12.9559 25.4386C12.291 26.2818 11.6088 27.6179 11.7817 29.4242C9.06898 27.3294 7.36523 24.3261 7.36523 20.9944C7.36523 19.4962 7.71209 18.0652 8.33764 16.7525C8.34563 16.7451 8.35444 16.739 8.36325 16.7328C8.37608 16.7239 8.38892 16.7149 8.39926 16.7023C9.06462 15.8968 9.89141 15.5259 10.854 15.5974C12.3025 15.7064 13.739 16.8103 14.4327 17.8487C14.0962 18.4829 13.9097 19.1761 13.9097 19.9036C13.9097 21.2725 14.5702 22.5203 15.6533 23.478ZM28.1864 26.1143C28.8147 26.9105 29.4642 28.2549 28.9919 30.1326C28.9831 30.1678 28.984 30.2024 28.9849 30.2371C28.9851 30.2475 28.9854 30.2579 28.9854 30.2684C26.7395 31.6373 23.9805 32.4472 20.9995 32.4472C18.0185 32.4472 15.2594 31.6373 13.013 30.2684C13.013 30.2579 13.0133 30.2475 13.0136 30.2371C13.0144 30.2024 13.0153 30.1678 13.0065 30.1326C12.5347 28.2549 13.1843 26.9105 13.812 26.1143C14.6573 25.0426 15.8779 24.4144 16.7979 24.2895C17.9748 24.9576 19.4244 25.3573 20.9995 25.3573C22.5696 25.3573 24.0154 24.9597 25.1901 24.2955C26.1129 24.4296 27.3378 25.0383 28.1864 26.1143Z" fill="white"/>
<path fill-rule="evenodd" clip-rule="evenodd" d="M31.0639 14.5099C29.3422 14.6391 27.8026 15.755 26.9087 16.8975C25.7334 15.5363 23.7864 14.6026 21.545 14.4706V9.55298C26.029 9.70241 29.9617 11.6794 32.3172 14.619C31.9191 14.5186 31.5007 14.4772 31.0639 14.5099ZM15.091 16.8975C14.1966 15.755 12.6575 14.6391 10.9358 14.5099C10.4995 14.4772 10.0812 14.5186 9.68253 14.6195C12.038 11.6799 15.9701 9.70187 20.4548 9.55298V14.4706C18.2133 14.6026 16.2663 15.5363 15.091 16.8975ZM33.636 16.7336C33.6447 16.7397 33.6534 16.7458 33.6615 16.753C34.2871 18.0657 34.6339 19.4962 34.6339 20.9944C34.6339 24.3261 32.9302 27.3294 30.2175 29.4242C30.3904 27.6174 29.7081 26.2818 29.0433 25.4386C28.3409 24.5486 27.3477 23.857 26.3393 23.4835C27.4263 22.5252 28.0894 21.2752 28.0894 19.9036C28.0894 19.1761 27.9029 18.4829 27.5664 17.8492C28.2596 16.8103 29.6961 15.707 31.1446 15.5979C32.1138 15.5281 32.934 15.8968 33.5993 16.7028C33.6101 16.7156 33.623 16.7246 33.636 16.7336ZM15.6533 23.478C14.6465 23.8521 13.6572 24.5491 12.9559 25.4386C12.291 26.2818 11.6088 27.6179 11.7817 29.4242C9.06898 27.3294 7.36523 24.3261 7.36523 20.9944C7.36523 19.4962 7.71209 18.0652 8.33764 16.7525C8.34563 16.7451 8.35444 16.739 8.36325 16.7328C8.37608 16.7239 8.38892 16.7149 8.39926 16.7023C9.06462 15.8968 9.89141 15.5259 10.854 15.5974C12.3025 15.7064 13.739 16.8103 14.4327 17.8487C14.0962 18.4829 13.9097 19.1761 13.9097 19.9036C13.9097 21.2725 14.5702 22.5203 15.6533 23.478ZM28.1864 26.1143C28.8147 26.9105 29.4642 28.2549 28.9919 30.1326C28.9831 30.1678 28.984 30.2024 28.9849 30.2371C28.9851 30.2475 28.9854 30.2579 28.9854 30.2684C26.7395 31.6373 23.9805 32.4472 20.9995 32.4472C18.0185 32.4472 15.2594 31.6373 13.013 30.2684C13.013 30.2579 13.0133 30.2475 13.0136 30.2371C13.0144 30.2024 13.0153 30.1678 13.0065 30.1326C12.5347 28.2549 13.1843 26.9105 13.812 26.1143C14.6573 25.0426 15.8779 24.4144 16.7979 24.2895C17.9748 24.9576 19.4244 25.3573 20.9995 25.3573C22.5696 25.3573 24.0154 24.9597 25.1901 24.2955C26.1129 24.4296 27.3378 25.0383 28.1864 26.1143Z" fill="url(#paint0_linear)"/>
<defs>
<linearGradient id="paint0_linear" x1="20.9996" y1="9.55298" x2="20.6562" y2="32.4472" gradientUnits="userSpaceOnUse">
<stop stop-color="#1DA1CB"/>
<stop offset="0.763368" stop-color="#52C7ED"/>
</linearGradient>
</defs>
</svg>
