<svg width="42" height="42" viewBox="0 0 42 42" fill="none" xmlns="http://www.w3.org/2000/svg">
<path fill-rule="evenodd" clip-rule="evenodd" d="M24.1055 24.7724L25.286 28.1266C25.3964 29.2085 23.5809 29.9577 22.6302 29.0319L21.4497 25.6777C21.4312 25.6253 21.4482 25.5899 21.4822 25.519C21.4822 25.519 22.0226 24.6224 22.0041 24.57L18.1345 13.2763C18.0607 13.0666 18.0916 12.702 18.4461 12.5773C18.7654 12.4649 19.0351 12.7235 19.1089 12.9332L22.9786 24.2269C23.0325 24.2963 23.9808 24.6691 23.9808 24.6691C24.0332 24.6506 24.0871 24.72 24.1055 24.7724ZM29.0072 26.2936C28.1553 26.2936 26.9647 26.1083 25.8573 25.5684L25.415 24.3116C25.3428 24.1064 25.2157 23.8848 25.0211 23.6965C24.9592 23.6367 24.8317 23.5275 24.6514 23.4352C24.9264 23.2892 25.2724 23.3261 25.5113 23.5462C26.5087 24.465 28.0058 24.7936 29.0072 24.7936C30.0086 24.7936 31.5056 24.465 32.5022 23.5464C32.7894 23.2816 33.2317 23.2816 33.5189 23.5464C34.5154 24.465 36.0131 24.7936 37.0146 24.7936C37.46 24.7936 37.7948 24.7103 38.064 24.5998C38.4471 24.4423 38.8853 24.6253 39.0428 25.0084C39.2002 25.3915 39.0172 25.8297 38.6341 25.9872C38.189 26.1701 37.6608 26.2936 37.0146 26.2936C35.9374 26.2936 34.3178 25.9973 33.0105 25.0621C31.7035 25.9973 30.0845 26.2936 29.0072 26.2936ZM20.3148 24.7674L20.3255 24.7493C19.402 24.6329 18.2955 24.2755 17.5039 23.5462C17.2167 23.2816 16.7745 23.2817 16.4874 23.5464C15.4908 24.465 13.9938 24.7936 12.9924 24.7936C11.991 24.7936 10.4939 24.465 9.49736 23.5464C9.21018 23.2816 8.76789 23.2816 8.4807 23.5464C7.48417 24.465 5.98648 24.7936 4.98497 24.7936C4.5405 24.7936 4.15248 24.7469 3.78351 24.6804C3.37586 24.607 2.98586 24.8779 2.9124 25.2855C2.83895 25.6932 3.10988 26.0832 3.51753 26.1566C3.95097 26.2347 4.4304 26.2936 4.98497 26.2936C6.06219 26.2936 7.68178 25.9973 8.98902 25.0621C10.2961 25.9973 11.9151 26.2936 12.9924 26.2936C14.0697 26.2936 15.6887 25.9973 16.9958 25.062C18.0014 25.7813 19.1911 26.1226 20.1771 26.2419L20.1407 26.1385C20.0376 25.8456 20.0299 25.5437 20.1016 25.2624C20.1299 25.1511 20.1656 25.0639 20.1859 25.0169C20.2037 24.9756 20.2226 24.9363 20.2294 24.9221L20.2595 24.8593L20.2938 24.8023L20.2988 24.7941L20.3148 24.7674ZM25.0031 22.1704C24.6669 22.4109 24.3101 22.6092 23.9472 22.771L23.4583 21.3443C23.8319 21.1655 24.1872 20.9382 24.495 20.6547C24.7821 20.3901 25.2241 20.3901 25.5113 20.6547C26.5087 21.5735 28.0058 21.902 29.0072 21.902C30.0086 21.902 31.5056 21.5735 32.5022 20.6548C32.7894 20.3901 33.2317 20.3901 33.5189 20.6548C34.5154 21.5734 36.0131 21.902 37.0146 21.902C37.46 21.902 37.7948 21.8188 38.064 21.7082C38.4471 21.5508 38.8853 21.7337 39.0428 22.1169C39.2002 22.5 39.0172 22.9382 38.6341 23.0956C38.189 23.2785 37.6608 23.402 37.0146 23.402C35.9374 23.402 34.3178 23.1058 33.0105 22.1705C31.7035 23.1058 30.0845 23.402 29.0072 23.402C27.9297 23.402 26.3107 23.1057 25.0031 22.1704ZM20.1168 23.3429L19.5576 21.7109C18.8346 21.5245 18.0846 21.1896 17.5039 20.6547C17.2167 20.3901 16.7745 20.3901 16.4874 20.6548C15.4908 21.5735 13.9938 21.902 12.9924 21.902C11.991 21.902 10.4939 21.5735 9.49736 20.6548C9.21018 20.3901 8.76789 20.3901 8.4807 20.6548C7.48417 21.5734 5.98648 21.902 4.98497 21.902C4.5405 21.902 4.15248 21.8553 3.78351 21.7889C3.37586 21.7154 2.98586 21.9863 2.9124 22.394C2.83895 22.8016 3.10988 23.1916 3.51753 23.2651C3.95097 23.3432 4.4304 23.402 4.98497 23.402C6.06219 23.402 7.68178 23.1058 8.98902 22.1705C10.2961 23.1058 11.9151 23.402 12.9924 23.402C14.0697 23.402 15.6887 23.1058 16.9958 22.1705C17.9809 22.8751 19.1429 23.2171 20.1168 23.3429ZM23.6383 19.9097C23.4807 20.0547 23.2968 20.1813 23.0972 20.2904L22.25 17.8178C32.5094 17.5596 35.5236 15.2367 35.5236 15.2367C35.79 15.8228 35.6673 18.6514 35.1358 19.9672C35.1275 19.9605 35.1189 19.954 35.1102 19.9474L35.1102 19.9474L35.1101 19.9474L35.1101 19.9473C35.0936 19.9348 35.0772 19.9223 35.0625 19.909C34.6446 19.5227 34.0992 19.31 33.5289 19.31C32.9586 19.31 32.4139 19.5227 31.9945 19.9097C31.3171 20.5343 30.1493 20.8187 29.3511 20.8187C28.553 20.8187 27.3852 20.5336 26.7063 19.909C26.2884 19.5227 25.743 19.31 25.1727 19.31C24.6024 19.31 24.0577 19.5227 23.6383 19.9097ZM19.1082 20.3991L18.2129 17.7864C10.9365 17.4141 6.56612 15.2677 6.56612 15.2677C6.24452 15.9402 6.19862 18.8727 6.87039 19.9587C6.8893 19.9427 6.9078 19.9264 6.92584 19.9097C7.34527 19.5227 7.88993 19.31 8.46099 19.31C9.03206 19.31 9.57671 19.5227 9.99464 19.909C10.6728 20.5343 11.8406 20.8187 12.6387 20.8187C13.4369 20.8187 14.6046 20.5343 15.2813 19.9097C15.7007 19.5227 16.2461 19.31 16.8165 19.31C17.3868 19.31 17.9322 19.5227 18.3493 19.909C18.5628 20.1054 18.8246 20.2682 19.1082 20.3991Z" fill="white"/>
</svg>
