<svg width="42" height="42" viewBox="0 0 42 42" fill="none" xmlns="http://www.w3.org/2000/svg">
<path d="M25.2865 28.1265L24.106 24.7724C24.0876 24.72 24.0337 24.6506 23.9813 24.669C23.9813 24.669 23.033 24.2963 22.9791 24.2269L19.1094 12.9331C19.0357 12.7235 18.7659 12.4648 18.4466 12.5772C18.0921 12.702 18.0612 13.0666 18.135 13.2762L22.0047 24.5699C22.0231 24.6223 21.4827 25.519 21.4827 25.519C21.4487 25.5898 21.4317 25.6253 21.4502 25.6777L22.6307 29.0318C23.5814 29.9577 25.397 29.2084 25.2865 28.1265Z" fill="#E5A25E"/>
<path d="M25.2865 28.1265L24.106 24.7724C24.0876 24.72 24.0337 24.6506 23.9813 24.669C23.9813 24.669 23.033 24.2963 22.9791 24.2269L19.1094 12.9331C19.0357 12.7235 18.7659 12.4648 18.4466 12.5772C18.0921 12.702 18.0612 13.0666 18.135 13.2762L22.0047 24.5699C22.0231 24.6223 21.4827 25.519 21.4827 25.519C21.4487 25.5898 21.4317 25.6253 21.4502 25.6777L22.6307 29.0318C23.5814 29.9577 25.397 29.2084 25.2865 28.1265Z" fill="url(#paint0_linear)"/>
<path fill-rule="evenodd" clip-rule="evenodd" d="M25.8573 25.5684C26.9647 26.1083 28.1553 26.2936 29.0072 26.2936C30.0845 26.2936 31.7035 25.9973 33.0105 25.0621C34.3178 25.9974 35.9374 26.2936 37.0146 26.2936C37.6608 26.2936 38.189 26.1701 38.6341 25.9872C39.0172 25.8298 39.2002 25.3916 39.0428 25.0084C38.8853 24.6253 38.4471 24.4423 38.064 24.5998C37.7948 24.7104 37.46 24.7936 37.0146 24.7936C36.0131 24.7936 34.5154 24.465 33.5189 23.5464C33.2317 23.2817 32.7894 23.2817 32.5022 23.5464C31.5056 24.465 30.0086 24.7936 29.0072 24.7936C28.0058 24.7936 26.5087 24.4651 25.5113 23.5462C25.2724 23.3262 24.9264 23.2892 24.6514 23.4353C24.8317 23.5276 24.9592 23.6368 25.0211 23.6965C25.2157 23.8848 25.3428 24.1064 25.415 24.3116L25.8573 25.5684ZM20.3255 24.7494L20.3148 24.7674L20.2988 24.7941L20.2938 24.8023L20.2595 24.8593L20.2294 24.9221C20.2226 24.9363 20.2037 24.9756 20.1859 25.0169C20.1656 25.0639 20.1299 25.1512 20.1016 25.2625C20.0299 25.5438 20.0376 25.8457 20.1407 26.1385L20.1771 26.242C19.1911 26.1227 18.0014 25.7813 16.9958 25.062C15.6887 25.9973 14.0697 26.2936 12.9924 26.2936C11.9151 26.2936 10.2961 25.9973 8.98902 25.0621C7.68178 25.9974 6.06219 26.2936 4.98497 26.2936C4.4304 26.2936 3.95097 26.2348 3.51753 26.1567C3.10988 26.0832 2.83895 25.6932 2.91241 25.2856C2.98586 24.8779 3.37586 24.607 3.78351 24.6804C4.15248 24.7469 4.5405 24.7936 4.98497 24.7936C5.98648 24.7936 7.48417 24.465 8.4807 23.5464C8.76789 23.2817 9.21018 23.2817 9.49736 23.5464C10.4939 24.465 11.991 24.7936 12.9924 24.7936C13.9938 24.7936 15.4908 24.465 16.4874 23.5464C16.7745 23.2817 17.2167 23.2817 17.5039 23.5462C18.2955 24.2755 19.402 24.633 20.3255 24.7494ZM23.9472 22.7711C24.3101 22.6092 24.6669 22.411 25.0031 22.1704C26.3107 23.1057 27.9297 23.4021 29.0072 23.4021C30.0845 23.4021 31.7035 23.1058 33.0105 22.1706C34.3178 23.1058 35.9374 23.4021 37.0146 23.4021C37.6608 23.4021 38.189 23.2786 38.6341 23.0957C39.0172 22.9382 39.2002 22.5 39.0428 22.1169C38.8853 21.7338 38.4471 21.5508 38.064 21.7082C37.7948 21.8188 37.46 21.9021 37.0146 21.9021C36.0131 21.9021 34.5154 21.5735 33.5189 20.6548C33.2317 20.3901 32.7894 20.3901 32.5022 20.6548C31.5056 21.5735 30.0086 21.9021 29.0072 21.9021C28.0058 21.9021 26.5087 21.5735 25.5113 20.6547C25.2241 20.3902 24.7821 20.3902 24.495 20.6547C24.1872 20.9382 23.8319 21.1655 23.4583 21.3443L23.9472 22.7711ZM19.5576 21.7109L20.1168 23.3429C19.1429 23.2171 17.9809 22.8751 16.9958 22.1705C15.6887 23.1058 14.0697 23.4021 12.9924 23.4021C11.9151 23.4021 10.2961 23.1058 8.98902 22.1706C7.68178 23.1058 6.06219 23.4021 4.98497 23.4021C4.4304 23.4021 3.95097 23.3432 3.51753 23.2651C3.10988 23.1917 2.83895 22.8017 2.91241 22.394C2.98586 21.9864 3.37586 21.7154 3.78351 21.7889C4.15248 21.8554 4.5405 21.9021 4.98497 21.9021C5.98648 21.9021 7.48417 21.5735 8.4807 20.6548C8.76789 20.3901 9.21018 20.3901 9.49736 20.6548C10.4939 21.5735 11.991 21.9021 12.9924 21.9021C13.9938 21.9021 15.4908 21.5735 16.4874 20.6548C16.7745 20.3902 17.2167 20.3901 17.5039 20.6547C18.0846 21.1896 18.8346 21.5245 19.5576 21.7109Z" fill="url(#paint1_linear)"/>
<path fill-rule="evenodd" clip-rule="evenodd" d="M23.0968 20.2902C23.2963 20.1811 23.4803 20.0545 23.6378 19.9096C24.0573 19.5226 24.6019 19.3098 25.1722 19.3098C25.7425 19.3098 26.2879 19.5226 26.7059 19.9088C27.3848 20.5334 28.5526 20.8186 29.3507 20.8186C30.1488 20.8186 31.3166 20.5342 31.994 19.9096C32.4135 19.5226 32.9581 19.3098 33.5284 19.3098C34.0987 19.3098 34.6441 19.5226 35.0621 19.9088C35.0767 19.9221 35.0932 19.9346 35.1096 19.9471L35.1097 19.9472L35.1097 19.9472L35.1098 19.9473C35.1184 19.9538 35.127 19.9604 35.1354 19.967C35.6669 18.6512 35.7896 15.8226 35.5232 15.2366C35.5232 15.2366 32.5089 17.5595 22.2496 17.8177L23.0968 20.2902ZM18.2125 17.7862L19.1077 20.399C18.8242 20.268 18.5623 20.1052 18.3489 19.9088C17.9317 19.5226 17.3863 19.3098 16.816 19.3098C16.2457 19.3098 15.7003 19.5226 15.2809 19.9096C14.6042 20.5342 13.4364 20.8186 12.6383 20.8186C11.8401 20.8186 10.6724 20.5342 9.99419 19.9088C9.57627 19.5226 9.03161 19.3098 8.46054 19.3098C7.88948 19.3098 7.34482 19.5226 6.92539 19.9096C6.90735 19.9262 6.88885 19.9425 6.86994 19.9586C6.19817 18.8725 6.24407 15.94 6.56568 15.2676C6.56568 15.2676 10.936 17.414 18.2125 17.7862Z" fill="url(#paint2_linear)"/>
<defs>
<linearGradient id="paint0_linear" x1="24.3094" y1="15.236" x2="27.4583" y2="32.4691" gradientUnits="userSpaceOnUse">
<stop stop-color="#E7AA72"/>
<stop offset="1" stop-color="#DF8B28"/>
</linearGradient>
<linearGradient id="paint1_linear" x1="20.9998" y1="28.6645" x2="20.9998" y2="18.6829" gradientUnits="userSpaceOnUse">
<stop stop-color="#1DA1CB"/>
<stop offset="0.78647" stop-color="#52C7ED"/>
</linearGradient>
<linearGradient id="paint2_linear" x1="20.999" y1="15.2366" x2="19.7679" y2="24.1916" gradientUnits="userSpaceOnUse">
<stop stop-color="#E7AA72"/>
<stop offset="1" stop-color="#DF8B28"/>
</linearGradient>
</defs>
</svg>
