<svg width="42" height="42" viewBox="0 0 42 42" fill="none" xmlns="http://www.w3.org/2000/svg">
<path d="M32.9636 28.9351C34.2128 29.7185 35.8004 30.0065 36.9517 30.0065C37.5227 30.0065 38.0353 29.9237 38.5192 29.753C38.8936 29.6213 39.0909 29.2101 38.9591 28.835C38.8274 28.4599 38.4162 28.2619 38.0411 28.3951C37.7135 28.5103 37.3564 28.5665 36.951 28.5665C35.9466 28.5665 34.4166 28.2849 33.4086 27.4908C33.1472 27.2841 32.7786 27.2841 32.5172 27.4908C31.5092 28.2842 29.9792 28.5665 28.9755 28.5665C27.9718 28.5665 26.4418 28.2849 25.4324 27.49C25.1724 27.2848 24.8023 27.2848 24.5424 27.49C23.533 28.2842 22.0037 28.5665 21 28.5665C19.9963 28.5665 18.4663 28.2849 17.4568 27.49C17.1955 27.2841 16.8268 27.2841 16.5662 27.4908C15.5582 28.2842 14.0282 28.5665 13.0245 28.5665C12.0215 28.5665 10.4915 28.2849 9.48277 27.49C9.2214 27.2848 8.85276 27.2841 8.59212 27.4908C7.58339 28.2842 6.05338 28.5665 5.04969 28.5665C4.65008 28.5665 4.26272 28.5355 3.82927 28.4693C3.44119 28.4102 3.06895 28.6788 3.00847 29.0719C2.94799 29.465 3.21799 29.8329 3.61111 29.8927C4.11872 29.9705 4.57592 30.0065 5.04969 30.0065C6.20098 30.0065 7.78859 29.7185 9.0378 28.9351C10.287 29.7185 11.8746 30.0065 13.0252 30.0065C14.1765 30.0065 15.7634 29.7185 17.0126 28.9351C18.2625 29.7185 19.8501 30.0065 21.0007 30.0065C22.1513 30.0065 23.7389 29.7185 24.9881 28.9344C26.2373 29.7185 27.8249 30.0065 28.9762 30.0065C30.1275 30.0065 31.7144 29.7185 32.9636 28.9351Z" fill="white"/>
<path d="M32.9636 31.8151C34.2128 32.5985 35.8004 32.8865 36.9517 32.8865C37.5227 32.8865 38.0353 32.8037 38.5192 32.6331C38.8936 32.5013 39.0909 32.0902 38.9591 31.715C38.8274 31.3399 38.4162 31.1412 38.0411 31.2751C37.7135 31.3903 37.3564 31.4465 36.951 31.4465C35.9466 31.4465 34.4166 31.165 33.4086 30.3708C33.1472 30.1641 32.7786 30.1641 32.5172 30.3708C31.5092 31.1642 29.9792 31.4465 28.9755 31.4465C27.9718 31.4465 26.4418 31.165 25.4324 30.3701C25.1724 30.1649 24.8023 30.1649 24.5424 30.3701C23.533 31.1642 22.0037 31.4465 21 31.4465C19.9963 31.4465 18.4663 31.165 17.4568 30.3701C17.1955 30.1649 16.8268 30.1641 16.5662 30.3708C15.5582 31.1642 14.0282 31.4465 13.0245 31.4465C12.0215 31.4465 10.4915 31.165 9.48277 30.3701C9.2214 30.1649 8.85276 30.1641 8.59212 30.3708C7.58339 31.1642 6.05338 31.4465 5.04969 31.4465C4.65008 31.4465 4.26272 31.4155 3.82927 31.3493C3.44119 31.2902 3.06895 31.5588 3.00847 31.9519C2.94799 32.3451 3.21799 32.713 3.61111 32.7727C4.11872 32.8505 4.57592 32.8865 5.04969 32.8865C6.20098 32.8865 7.78859 32.5985 9.0378 31.8151C10.287 32.5985 11.8746 32.8865 13.0252 32.8865C14.1765 32.8865 15.7634 32.5985 17.0126 31.8151C18.2625 32.5985 19.8501 32.8865 21.0007 32.8865C22.1513 32.8865 23.7389 32.5985 24.9881 31.8144C26.2373 32.5985 27.8249 32.8865 28.9762 32.8865C30.1275 32.8865 31.7144 32.5985 32.9636 31.8151Z" fill="white"/>
<path d="M28.1099 14.5713C28.1099 15.558 28.9768 16.3893 30.0059 16.3893C31.035 16.3893 31.9019 15.558 31.9019 14.5713C31.9019 13.5845 31.035 12.7532 30.0059 12.7532C28.9768 12.7532 28.1099 13.5845 28.1099 14.5713ZM18.917 25.934C21.7255 14.9939 24.7918 9.11353 24.7918 9.11353C24.7918 9.11353 13.1209 10.3934 10.0977 22.2979L18.917 25.934Z" fill="white"/>
<path fill-rule="evenodd" clip-rule="evenodd" d="M30.4432 19.425C30.5055 19.2691 30.5398 19.1005 30.5398 18.9255C30.5398 18.1644 29.89 17.5238 29.1178 17.5238C29.115 17.5238 29.1121 17.5238 29.1093 17.5238H25.7995L23.9878 16.3063C23.8301 16.191 23.6365 16.1221 23.4297 16.1221C22.915 16.1221 22.4817 16.5491 22.4817 17.0565C22.4817 17.3996 22.6797 17.7059 22.9671 17.8683L24.9795 19.2287C25.1374 19.3357 25.3241 19.3927 25.5156 19.3927H27.2216L26.0489 22.6634H23.4366C23.4343 22.6634 23.432 22.6633 23.4297 22.6633C23.1746 22.6633 22.9395 22.7682 22.7673 22.9358L22.7583 22.9395L20.1411 25.2185C19.8386 25.4324 19.6377 25.7815 19.6377 26.1676C19.6377 26.8016 20.1795 27.3357 20.8227 27.3357C21.1271 27.3357 21.4089 27.2161 21.6212 27.0228L21.6245 27.0269L24.0808 24.9995H27.4586L27.4586 24.9995C27.4587 24.9995 27.4587 24.9995 27.4588 24.9995C28.2236 24.9995 28.8858 24.4605 29.0682 23.7543L30.4432 19.425Z" fill="white"/>
</svg>
