<svg width="42" height="42" viewBox="0 0 42 42" fill="none" xmlns="http://www.w3.org/2000/svg">
<path fill-rule="evenodd" clip-rule="evenodd" d="M19.3066 9.20687C18.9745 9.2035 18.4943 9.30712 17.7738 9.74197C17.4191 9.95599 16.9581 9.84199 16.7441 9.48735C16.5301 9.13271 16.6441 8.67172 16.9987 8.4577C17.8794 7.92627 18.6323 7.69996 19.3218 7.70694C20.0117 7.71393 20.5444 7.95539 20.9551 8.17016C21.0562 8.22304 21.1458 8.27129 21.227 8.31507C21.508 8.46644 21.6896 8.56427 21.9061 8.61481C22.1124 8.66296 22.3798 8.66794 22.8179 8.43662C23.1842 8.24321 23.6379 8.38336 23.8313 8.74964C24.0247 9.11593 23.8846 9.56965 23.5183 9.76306C22.7957 10.1446 22.1602 10.2144 21.5652 10.0755C21.1326 9.97457 20.7298 9.75466 20.4313 9.59174L20.4313 9.5917C20.3695 9.55797 20.3122 9.52668 20.26 9.4994C19.9157 9.31937 19.6383 9.21022 19.3066 9.20687ZM16.6641 22.8315H27.5853C27.9654 22.8315 28.2798 22.538 28.3051 22.1593C28.4915 19.5351 27.4342 16.8473 25.3311 14.5895C23.0769 12.1705 19.8846 10.5451 17.3869 10.5451C17.1672 10.5451 16.959 10.6448 16.8224 10.8169C16.6851 10.9881 16.6338 11.2129 16.6822 11.4276C18.3004 18.5666 16.1091 21.644 16.0903 21.6693C15.9233 21.8869 15.8952 22.1817 16.0166 22.4289C16.138 22.6753 16.3895 22.8315 16.6641 22.8315ZM9.50009 28.6556C9.2129 28.3909 8.77062 28.3909 8.48343 28.6556C7.48715 29.574 5.98984 29.9025 4.98858 29.9025C4.54422 29.9025 4.15629 29.8558 3.78742 29.7894C3.37977 29.7159 2.98976 29.9868 2.91631 30.3945C2.84286 30.8021 3.11378 31.1921 3.52143 31.2656C3.95478 31.3437 4.43412 31.4025 4.98858 31.4025C6.06556 31.4025 7.68478 31.1064 8.99175 30.1713C10.2985 31.1063 11.9172 31.4025 12.9942 31.4025C14.0713 31.4025 15.69 31.1063 16.9968 30.1712C18.304 31.1063 19.9227 31.4025 20.9999 31.4025C22.0771 31.4025 23.6952 31.1062 25.0023 30.1712C26.3096 31.1063 27.9283 31.4025 29.0055 31.4025C30.0826 31.4025 31.7012 31.1063 33.008 30.1713C34.3149 31.1064 35.9342 31.4025 37.0111 31.4025C37.6572 31.4025 38.1854 31.279 38.6304 31.0962C39.0135 30.9387 39.1964 30.5005 39.039 30.1174C38.8816 29.7343 38.4434 29.5513 38.0602 29.7087C37.7912 29.8193 37.4564 29.9025 37.0111 29.9025C36.0099 29.9025 34.5126 29.574 33.5163 28.6556C33.2291 28.3909 32.7868 28.3909 32.4996 28.6556C31.5033 29.574 30.0067 29.9025 29.0055 29.9025C28.0044 29.9025 26.5076 29.5741 25.5105 28.6555C25.2233 28.3909 24.7813 28.3909 24.4942 28.6555C23.497 29.5741 22.0009 29.9025 20.9999 29.9025C19.9988 29.9025 18.502 29.5741 17.5048 28.6555C17.2176 28.3909 16.7755 28.3909 16.4883 28.6556C15.492 29.574 13.9954 29.9025 12.9942 29.9025C11.993 29.9025 10.4964 29.574 9.50009 28.6556ZM17.5048 31.5464C17.2176 31.2818 16.7755 31.2818 16.4883 31.5465C15.492 32.4649 13.9954 32.7934 12.9942 32.7934C11.993 32.7934 10.4964 32.4649 9.50009 31.5465C9.2129 31.2818 8.77062 31.2818 8.48343 31.5465C7.48715 32.4649 5.98984 32.7934 4.98858 32.7934C4.54422 32.7934 4.15629 32.7467 3.78742 32.6803C3.37977 32.6068 2.98976 32.8777 2.91631 33.2854C2.84286 33.693 3.11378 34.0831 3.52143 34.1565C3.95478 34.2346 4.43412 34.2934 4.98858 34.2934C6.06556 34.2934 7.68478 33.9973 8.99175 33.0622C10.2985 33.9972 11.9172 34.2934 12.9942 34.2934C14.0713 34.2934 15.69 33.9972 16.9968 33.0622C18.304 33.9972 19.9227 34.2934 20.9999 34.2934C22.0771 34.2934 23.6952 33.9971 25.0023 33.0621C26.3096 33.9972 27.9283 34.2934 29.0055 34.2934C30.0826 34.2934 31.7012 33.9972 33.008 33.0622C34.3149 33.9973 35.9342 34.2934 37.0111 34.2934C37.6572 34.2934 38.1854 34.1699 38.6304 33.9871C39.0135 33.8296 39.1964 33.3914 39.039 33.0083C38.8816 32.6252 38.4434 32.4422 38.0602 32.5996C37.7912 32.7102 37.4564 32.7934 37.0111 32.7934C36.0099 32.7934 34.5126 32.4649 33.5163 31.5465C33.2291 31.2818 32.7868 31.2818 32.4996 31.5465C31.5033 32.4649 30.0067 32.7934 29.0055 32.7934C28.0044 32.7934 26.5076 32.465 25.5105 31.5464C25.2233 31.2818 24.7813 31.2818 24.4942 31.5464C23.497 32.465 22.0009 32.7934 20.9999 32.7934C19.9988 32.7934 18.502 32.465 17.5048 31.5464ZM12.994 28.4842C12.2294 28.4842 11.1106 28.2117 10.4609 27.6126C10.2556 27.4232 10.0178 27.2787 9.76197 27.1811C9.5466 26.501 9.43603 25.7313 9.43603 24.8706C9.43603 24.4709 9.75981 24.1478 10.1588 24.1478H31.8405C32.0501 24.1478 32.2482 24.2389 32.3862 24.3979C32.5235 24.5562 32.5857 24.7651 32.556 24.9725C32.4223 25.9192 32.1578 26.7215 31.808 27.4073C31.7141 27.4695 31.6216 27.536 31.5377 27.6133C30.8887 28.2117 29.7692 28.4842 29.0053 28.4842C28.2414 28.4842 27.1219 28.211 26.4707 27.6126C26.071 27.2426 25.5485 27.0387 25.0021 27.0387C24.4557 27.0387 23.9346 27.2426 23.5321 27.6133C22.8823 28.211 21.765 28.4842 20.9996 28.4842C20.235 28.4842 19.1155 28.211 18.465 27.6126C18.0654 27.2426 17.5428 27.0387 16.9965 27.0387C16.4501 27.0387 15.9276 27.2426 15.5257 27.6133C14.8774 28.2117 13.7587 28.4842 12.994 28.4842Z" fill="white"/>
</svg>
