<svg width="42" height="42" viewBox="0 0 42 42" fill="none" xmlns="http://www.w3.org/2000/svg">
<path d="M38.3452 33.2933C37.9881 33.44 37.5567 33.5434 37.011 33.5434C35.8995 33.5434 34.1909 33.1885 33.0078 32.0979C31.8247 33.1885 30.1169 33.5434 29.0054 33.5434C27.8938 33.5434 26.186 33.1885 25.0022 32.0979C23.8184 33.1885 22.1113 33.5434 20.9997 33.5434C19.8882 33.5434 18.1804 33.1885 16.9965 32.0979C15.8134 33.1885 14.1056 33.5434 12.9941 33.5434C11.8825 33.5434 10.1747 33.1885 8.99163 32.0979C7.80853 33.1885 6.1 33.5434 4.98845 33.5434C4.48905 33.5434 4.05541 33.4906 3.6543 33.4184M38.3452 30.4024C37.9881 30.5491 37.5567 30.6525 37.011 30.6525C35.8995 30.6525 34.1909 30.2976 33.0078 29.207C31.8247 30.2976 30.1169 30.6525 29.0054 30.6525C27.8938 30.6525 26.186 30.2976 25.0022 29.207C23.8184 30.2976 22.1113 30.6525 20.9997 30.6525C19.8882 30.6525 18.1804 30.2976 16.9965 29.207C15.8134 30.2976 14.1056 30.6525 12.9941 30.6525C11.8825 30.6525 10.1747 30.2976 8.99163 29.207C7.80853 30.2976 6.1 30.6525 4.98845 30.6525C4.48905 30.6525 4.05541 30.5997 3.6543 30.5275" stroke="url(#paint0_linear)" stroke-width="1.5" stroke-miterlimit="10" stroke-linecap="round" stroke-linejoin="round"/>
<path d="M27.5847 22.8315H16.6636C16.389 22.8315 16.1375 22.6754 16.0161 22.429C15.8946 22.1818 15.9228 21.8869 16.0898 21.6694C16.1086 21.6441 18.2999 18.5667 16.6817 11.4276C16.6333 11.213 16.6846 10.9882 16.8219 10.8169C16.9585 10.6449 17.1666 10.5452 17.3863 10.5452C19.8841 10.5452 23.0764 12.1706 25.3306 14.5895C27.4337 16.8473 28.491 19.5352 28.3046 22.1594C28.2793 22.5381 27.9649 22.8315 27.5847 22.8315Z" fill="url(#paint1_linear)"/>
<path d="M17.3857 9.09984C20.5881 7.16727 20.8462 10.3256 23.1676 9.09984" stroke="url(#paint2_linear)" stroke-width="1.5" stroke-miterlimit="10" stroke-linecap="round" stroke-linejoin="round"/>
<path d="M10.4604 27.6127C11.1101 28.2118 12.2289 28.4843 12.9935 28.4843C13.7582 28.4843 14.877 28.2118 15.5252 27.6134C15.9271 27.2427 16.4496 27.0389 16.996 27.0389C17.5424 27.0389 18.0649 27.2427 18.4646 27.6127C19.115 28.2111 20.2345 28.4843 20.9992 28.4843C21.7645 28.4843 22.8819 28.2111 23.5316 27.6134C23.9342 27.2427 24.4552 27.0389 25.0016 27.0389C25.548 27.0389 26.0705 27.2427 26.4702 27.6127C27.1214 28.2111 28.2409 28.4843 29.0048 28.4843C29.7687 28.4843 30.8882 28.2118 31.5372 27.6134C31.6211 27.5361 31.7136 27.4696 31.8075 27.4074C32.1573 26.7216 32.4219 25.9194 32.5556 24.9726C32.5852 24.7652 32.523 24.5563 32.3857 24.398C32.2477 24.239 32.0497 24.1479 31.8401 24.1479H10.1583C9.75933 24.1479 9.43555 24.471 9.43555 24.8707C9.43555 25.7314 9.54612 26.5011 9.7615 27.1812C10.0173 27.2788 10.2551 27.4233 10.4604 27.6127Z" fill="url(#paint3_linear)"/>
<defs>
<linearGradient id="paint0_linear" x1="20.9997" y1="35.3046" x2="20.9997" y2="27.8896" gradientUnits="userSpaceOnUse">
<stop stop-color="#1DA1CB"/>
<stop offset="0.78647" stop-color="#52C7ED"/>
</linearGradient>
<linearGradient id="paint1_linear" x1="27.5954" y1="12.04" x2="16.2793" y2="22.8315" gradientUnits="userSpaceOnUse">
<stop stop-color="#FEA5A5"/>
<stop offset="1" stop-color="#E33434"/>
</linearGradient>
<linearGradient id="paint2_linear" x1="22.8266" y1="8.5705" x2="14.5819" y2="10.9084" gradientUnits="userSpaceOnUse">
<stop stop-color="#FEA5A5"/>
<stop offset="1" stop-color="#E33434"/>
</linearGradient>
<linearGradient id="paint3_linear" x1="30.118" y1="22.6752" x2="14.5705" y2="28.4843" gradientUnits="userSpaceOnUse">
<stop stop-color="#8C89AD"/>
<stop offset="1" stop-color="#3B4662"/>
</linearGradient>
</defs>
</svg>
