<svg width="42" height="42" viewBox="0 0 42 42" fill="none" xmlns="http://www.w3.org/2000/svg">
<path fill-rule="evenodd" clip-rule="evenodd" d="M16.4178 7.70198C16.0859 7.69862 15.6059 7.80218 14.8856 8.23685C14.531 8.45087 14.07 8.33687 13.856 7.98223C13.6419 7.62759 13.7559 7.1666 14.1106 6.95259C14.9909 6.42133 15.7437 6.19508 16.433 6.20206C17.1227 6.20904 17.6552 6.45044 18.0657 6.66514C18.1668 6.71801 18.2564 6.76624 18.3376 6.81C18.6185 6.96131 18.8 7.05909 19.0164 7.10961C19.2225 7.15772 19.4897 7.16271 19.9276 6.9315C20.2939 6.73809 20.7476 6.87824 20.941 7.24452C21.1344 7.61081 20.9943 8.06453 20.628 8.25794C19.9056 8.63938 19.2703 8.7092 18.6754 8.57034C18.243 8.46939 17.8402 8.24954 17.5419 8.08668L17.5418 8.08662L17.5417 8.08655C17.48 8.05287 17.4228 8.02162 17.3707 7.99437C17.0265 7.81443 16.7493 7.70534 16.4178 7.70198ZM13.7764 23.4888H25.4159C25.7418 23.4888 26.0264 23.2713 26.1124 22.9585C27.0234 19.6525 26.5466 16.6471 24.7325 14.2665C22.5839 11.4461 18.7584 9.762 14.4988 9.762C14.2792 9.762 14.0711 9.8617 13.9353 10.0344C13.798 10.2056 13.7467 10.4303 13.7951 10.6448C15.4373 17.8897 13.1601 22.387 13.1377 22.4296C13.0199 22.6536 13.0272 22.9231 13.1579 23.1398C13.2887 23.3558 13.5228 23.4888 13.7764 23.4888ZM28.5005 23.489C28.309 23.489 28.1226 23.4131 27.9839 23.2715C27.7961 23.0794 27.7296 22.7991 27.8134 22.5433C27.8705 22.3649 29.1673 18.1038 25.2566 12.7207C25.0652 12.4585 25.0731 12.1016 25.2747 11.8473C25.4763 11.593 25.8252 11.5063 26.1207 11.6298C29.7323 13.1506 33.9493 16.6003 33.9493 21.3216C33.9493 21.6388 33.7419 21.9198 33.4378 22.0123L28.7114 23.4572C28.6421 23.4782 28.5713 23.489 28.5005 23.489ZM8.4883 30.1619C8.77549 29.8972 9.21778 29.8972 9.50497 30.1619C10.5009 31.0799 11.9969 31.4083 12.9976 31.4083C13.9984 31.4083 15.4944 31.0799 16.4903 30.1619C16.7774 29.8972 17.2196 29.8972 17.5068 30.1618C18.5035 31.08 19.9996 31.4083 21.0003 31.4083C22.0009 31.4083 23.4964 31.08 24.4931 30.1618C24.7803 29.8972 25.2223 29.8972 25.5095 30.1618C26.5062 31.08 28.0023 31.4083 29.003 31.4083C30.0038 31.4083 31.4998 31.0799 32.4957 30.1619C32.7829 29.8972 33.2252 29.8972 33.5123 30.1619C34.5082 31.0799 36.0049 31.4083 37.0057 31.4083C37.4508 31.4083 37.7854 31.3251 38.0543 31.2146C38.4374 31.0572 38.8757 31.2401 39.0331 31.6232C39.1905 32.0064 39.0076 32.4446 38.6245 32.602C38.1796 32.7848 37.6516 32.9083 37.0057 32.9083C35.9291 32.9083 34.3106 32.6122 33.004 31.6776C31.6977 32.6122 30.0797 32.9083 29.003 32.9083C27.9262 32.9083 26.3081 32.6121 25.0013 31.6775C23.6947 32.6121 22.0772 32.9083 21.0003 32.9083C19.9235 32.9083 18.3055 32.6122 16.9987 31.6775C15.6924 32.6122 14.0743 32.9083 12.9976 32.9083C11.921 32.9083 10.303 32.6122 8.99662 31.6776C7.6901 32.6122 6.07151 32.9083 4.99492 32.9083C4.44065 32.9083 3.96147 32.8495 3.52827 32.7714C3.12062 32.698 2.8497 32.3079 2.92315 31.9003C2.9966 31.4927 3.38661 31.2217 3.79426 31.2952C4.16298 31.3616 4.55075 31.4083 4.99492 31.4083C5.99578 31.4083 7.49247 31.0799 8.4883 30.1619ZM16.4903 33.0518C16.7774 32.7871 17.2196 32.787 17.5068 33.0516C18.5035 33.9698 19.9996 34.2981 21.0003 34.2981C22.0009 34.2981 23.4964 33.9698 24.4931 33.0516C24.7803 32.7871 25.2223 32.7871 25.5095 33.0516C26.5062 33.9698 28.0023 34.2981 29.003 34.2981C30.0038 34.2981 31.4998 33.9698 32.4957 33.0518C32.7829 32.787 33.2252 32.787 33.5123 33.0518C34.5082 33.9697 36.0049 34.2981 37.0057 34.2981C37.4508 34.2981 37.7854 34.2149 38.0543 34.1044C38.4374 33.947 38.8757 34.13 39.0331 34.5131C39.1905 34.8962 39.0076 35.3344 38.6245 35.4919C38.1796 35.6747 37.6516 35.7981 37.0057 35.7981C35.9291 35.7981 34.3106 35.5021 33.004 34.5674C31.6977 35.5021 30.0797 35.7981 29.003 35.7981C27.9262 35.7981 26.3081 35.502 25.0013 34.5673C23.6947 35.502 22.0772 35.7981 21.0003 35.7981C19.9235 35.7981 18.3055 35.502 16.9987 34.5674C15.6924 35.502 14.0743 35.7981 12.9976 35.7981C11.921 35.7981 10.303 35.5021 8.99662 34.5674C7.6901 35.5021 6.07151 35.7981 4.99492 35.7981C4.44065 35.7981 3.96147 35.7393 3.52827 35.6613C3.12062 35.5878 2.8497 35.1978 2.92315 34.7901C2.9966 34.3825 3.38661 34.1116 3.79426 34.185C4.16298 34.2515 4.55075 34.2981 4.99492 34.2981C5.99578 34.2981 7.49247 33.9697 8.4883 33.0518C8.77549 32.787 9.21778 32.787 9.50497 33.0518C10.5009 33.9698 11.9969 34.2981 12.9976 34.2981C13.9984 34.2981 15.4944 33.9698 16.4903 33.0518ZM8.99662 28.546C8.44972 28.546 7.9281 28.7498 7.52641 29.1204C7.40648 29.2309 7.2656 29.3277 7.11822 29.4166C6.38709 28.2946 5.82863 26.828 5.82863 24.9337C5.82863 24.5342 6.15229 24.2113 6.55109 24.2113H35.4495C35.6655 24.2113 35.87 24.3081 36.0073 24.475C36.1438 24.6411 36.2002 24.8607 36.1583 25.0732C35.8267 26.7572 35.2191 28.1118 34.5508 29.1818C34.5404 29.1732 34.5294 29.1648 34.5184 29.1565C34.5026 29.1445 34.4868 29.1324 34.4728 29.1197C34.0725 28.7498 33.5502 28.546 33.004 28.546C32.4578 28.546 31.9362 28.7498 31.5345 29.1204C30.8857 29.7186 29.7674 29.9909 29.003 29.9909C28.2386 29.9909 27.1203 29.7179 26.4701 29.1197C26.0698 28.7498 25.5475 28.546 25.0013 28.546C24.4551 28.546 23.9335 28.7498 23.5318 29.1204C22.8823 29.7179 21.7647 29.9909 21.0003 29.9909C20.2359 29.9909 19.1169 29.7179 18.4666 29.1197C18.0671 28.7498 17.5448 28.546 16.9986 28.546C16.4524 28.546 15.9301 28.7498 15.5284 29.1204C14.8803 29.7186 13.762 29.9909 12.9976 29.9909C12.2332 29.9909 11.1149 29.7186 10.4654 29.1197C10.0651 28.7498 9.54352 28.546 8.99662 28.546Z" fill="white"/>
</svg>
