<svg width="42" height="42" viewBox="0 0 42 42" fill="none" xmlns="http://www.w3.org/2000/svg">
<path d="M38.3393 34.7982C37.9824 34.9448 37.5511 35.0481 37.0056 35.0481C35.8945 35.0481 34.1866 34.6934 33.0039 33.6032C31.8212 34.6934 30.114 35.0481 29.0029 35.0481C27.8918 35.0481 26.1846 34.6934 25.0012 33.6032C23.8178 34.6934 22.1113 35.0481 21.0002 35.0481C19.8891 35.0481 18.1819 34.6934 16.9985 33.6032C15.8158 34.6934 14.1086 35.0481 12.9975 35.0481C11.8864 35.0481 10.1792 34.6934 8.99651 33.6032C7.81384 34.6934 6.10594 35.0481 4.9948 35.0481C4.49558 35.0481 4.0621 34.9954 3.66113 34.9232M38.3393 31.9083C37.9824 32.055 37.5511 32.1583 37.0056 32.1583C35.8945 32.1583 34.1866 31.8036 33.0039 30.7134C31.8212 31.8036 30.114 32.1583 29.0029 32.1583C27.8918 32.1583 26.1846 31.8036 25.0012 30.7134C23.8178 31.8036 22.1113 32.1583 21.0002 32.1583C19.8891 32.1583 18.1819 31.8036 16.9985 30.7134C15.8158 31.8036 14.1086 32.1583 12.9975 32.1583C11.8864 32.1583 10.1792 31.8036 8.99651 30.7134C7.81384 31.8036 6.10594 32.1583 4.9948 32.1583C4.49558 32.1583 4.0621 32.1056 3.66113 32.0333" stroke="url(#paint0_linear)" stroke-width="1.5" stroke-miterlimit="10" stroke-linecap="round" stroke-linejoin="round"/>
<path d="M28.5005 23.489C28.3091 23.489 28.1227 23.4131 27.984 23.2715C27.7961 23.0794 27.7297 22.799 27.8135 22.5433C27.8705 22.3648 29.1674 18.1038 25.2567 12.7207C25.0652 12.4585 25.0732 12.1016 25.2747 11.8473C25.4763 11.593 25.8253 11.5063 26.1207 11.6298C29.7323 13.1506 33.9493 16.6003 33.9493 21.3216C33.9493 21.6388 33.742 21.9198 33.4378 22.0123L28.7115 23.4572C28.6421 23.4782 28.5713 23.489 28.5005 23.489Z" fill="#84EFE8"/>
<path d="M28.5005 23.489C28.3091 23.489 28.1227 23.4131 27.984 23.2715C27.7961 23.0794 27.7297 22.799 27.8135 22.5433C27.8705 22.3648 29.1674 18.1038 25.2567 12.7207C25.0652 12.4585 25.0732 12.1016 25.2747 11.8473C25.4763 11.593 25.8253 11.5063 26.1207 11.6298C29.7323 13.1506 33.9493 16.6003 33.9493 21.3216C33.9493 21.6388 33.742 21.9198 33.4378 22.0123L28.7115 23.4572C28.6421 23.4782 28.5713 23.489 28.5005 23.489Z" fill="url(#paint1_linear)"/>
<path d="M25.4153 23.4887H13.7757C13.5221 23.4887 13.2881 23.3558 13.1573 23.1398C13.0265 22.923 13.0193 22.6536 13.1371 22.4296C13.1595 22.387 15.4367 17.8896 13.7945 10.6448C13.7461 10.4302 13.7974 10.2056 13.9347 10.0343C14.0705 9.86166 14.2786 9.76196 14.4982 9.76196C18.7578 9.76196 22.5833 11.446 24.7319 14.2665C26.546 16.647 27.0228 19.6525 26.1118 22.9584C26.0258 23.2713 25.7411 23.4887 25.4153 23.4887Z" fill="#84EFE8"/>
<path d="M25.4153 23.4887H13.7757C13.5221 23.4887 13.2881 23.3558 13.1573 23.1398C13.0265 22.923 13.0193 22.6536 13.1371 22.4296C13.1595 22.387 15.4367 17.8896 13.7945 10.6448C13.7461 10.4302 13.7974 10.2056 13.9347 10.0343C14.0705 9.86166 14.2786 9.76196 14.4982 9.76196C18.7578 9.76196 22.5833 11.446 24.7319 14.2665C26.546 16.647 27.0228 19.6525 26.1118 22.9584C26.0258 23.2713 25.7411 23.4887 25.4153 23.4887Z" fill="url(#paint2_linear)"/>
<path d="M14.498 7.59472C17.6993 5.66286 17.9572 8.82001 20.2777 7.59472" stroke="url(#paint3_linear)" stroke-width="1.5" stroke-miterlimit="10" stroke-linecap="round" stroke-linejoin="round"/>
<path d="M7.52591 29.1203C7.9276 28.7497 8.44921 28.5459 8.99612 28.5459C9.54302 28.5459 10.0646 28.7497 10.4649 29.1196C11.1144 29.7185 12.2327 29.9909 12.9971 29.9909C13.7615 29.9909 14.8798 29.7185 15.5279 29.1203C15.9296 28.7497 16.4519 28.5459 16.9981 28.5459C17.5443 28.5459 18.0666 28.7497 18.4661 29.1196C19.1164 29.7178 20.2354 29.9909 20.9998 29.9909C21.7642 29.9909 22.8818 29.7178 23.5313 29.1203C23.933 28.7497 24.4546 28.5459 25.0008 28.5459C25.547 28.5459 26.0693 28.7497 26.4696 29.1196C27.1198 29.7178 28.2381 29.9909 29.0025 29.9909C29.7669 29.9909 30.8852 29.7185 31.534 29.1203C31.9357 28.7497 32.4573 28.5459 33.0035 28.5459C33.5497 28.5459 34.072 28.7497 34.4723 29.1196C34.4961 29.1413 34.525 29.1608 34.5503 29.1817C35.2186 28.1117 35.8261 26.7571 36.1578 25.0731C36.1997 24.8607 36.1433 24.641 36.0068 24.4749C35.8695 24.308 35.665 24.2112 35.449 24.2112H6.55059C6.15179 24.2112 5.82812 24.5341 5.82812 24.9336C5.82812 26.8279 6.38659 28.2945 7.11772 29.4165C7.2651 29.3277 7.40598 29.2308 7.52591 29.1203Z" fill="black"/>
<path d="M7.52591 29.1203C7.9276 28.7497 8.44921 28.5459 8.99612 28.5459C9.54302 28.5459 10.0646 28.7497 10.4649 29.1196C11.1144 29.7185 12.2327 29.9909 12.9971 29.9909C13.7615 29.9909 14.8798 29.7185 15.5279 29.1203C15.9296 28.7497 16.4519 28.5459 16.9981 28.5459C17.5443 28.5459 18.0666 28.7497 18.4661 29.1196C19.1164 29.7178 20.2354 29.9909 20.9998 29.9909C21.7642 29.9909 22.8818 29.7178 23.5313 29.1203C23.933 28.7497 24.4546 28.5459 25.0008 28.5459C25.547 28.5459 26.0693 28.7497 26.4696 29.1196C27.1198 29.7178 28.2381 29.9909 29.0025 29.9909C29.7669 29.9909 30.8852 29.7185 31.534 29.1203C31.9357 28.7497 32.4573 28.5459 33.0035 28.5459C33.5497 28.5459 34.072 28.7497 34.4723 29.1196C34.4961 29.1413 34.525 29.1608 34.5503 29.1817C35.2186 28.1117 35.8261 26.7571 36.1578 25.0731C36.1997 24.8607 36.1433 24.641 36.0068 24.4749C35.8695 24.308 35.665 24.2112 35.449 24.2112H6.55059C6.15179 24.2112 5.82812 24.5341 5.82812 24.9336C5.82812 26.8279 6.38659 28.2945 7.11772 29.4165C7.2651 29.3277 7.40598 29.2308 7.52591 29.1203Z" fill="url(#paint4_linear)"/>
<defs>
<linearGradient id="paint0_linear" x1="21.0002" y1="36.8087" x2="21.0002" y2="29.3965" gradientUnits="userSpaceOnUse">
<stop stop-color="#1DA1CB"/>
<stop offset="0.78647" stop-color="#52C7ED"/>
</linearGradient>
<linearGradient id="paint1_linear" x1="33.4286" y1="13.0238" x2="23.0997" y2="20.267" gradientUnits="userSpaceOnUse">
<stop stop-color="#FEA5A5"/>
<stop offset="1" stop-color="#E33434"/>
</linearGradient>
<linearGradient id="paint2_linear" x1="25.7656" y1="11.432" x2="13.1408" y2="23.1864" gradientUnits="userSpaceOnUse">
<stop stop-color="#FEA5A5"/>
<stop offset="1" stop-color="#E33434"/>
</linearGradient>
<linearGradient id="paint3_linear" x1="19.9369" y1="7.06558" x2="11.6952" y2="9.40258" gradientUnits="userSpaceOnUse">
<stop stop-color="#FEA5A5"/>
<stop offset="1" stop-color="#E33434"/>
</linearGradient>
<linearGradient id="paint4_linear" x1="32.9638" y1="22.2483" x2="12.4875" y2="29.7793" gradientUnits="userSpaceOnUse">
<stop stop-color="#8C89AD"/>
<stop offset="1" stop-color="#3B4662"/>
</linearGradient>
</defs>
</svg>
