<svg width="42" height="42" viewBox="0 0 42 42" fill="none" xmlns="http://www.w3.org/2000/svg">
<path fill-rule="evenodd" clip-rule="evenodd" d="M30.5807 20.1082C30.7118 20.2205 30.8781 20.2802 31.048 20.2802C31.0883 20.2802 31.1279 20.2766 31.1697 20.2702L38.3697 19.0462C38.6289 19.0022 38.8434 18.8201 38.9291 18.571C39.0148 18.3226 38.9579 18.0468 38.7815 17.8517C38.5447 17.591 32.9258 11.4278 28.6 8.18424C28.3185 7.97184 27.9247 7.99704 27.6698 8.24184C27.4149 8.48664 27.376 8.88048 27.5762 9.17064C27.6043 9.21168 30.3964 13.3301 30.328 19.553C30.3259 19.7662 30.418 19.9692 30.5807 20.1082ZM14.7026 23.6729C14.8379 23.8061 15.0201 23.8802 15.208 23.8802C15.2361 23.8802 15.2642 23.8788 15.293 23.8759L27.533 22.4359C27.8419 22.3992 28.0924 22.1681 28.1543 21.8628C28.2429 21.4222 30.2589 11.0174 24.3103 6.048C24.1454 5.90976 23.9272 5.85432 23.7155 5.8932L12.1955 8.0532C11.9335 8.10288 11.7196 8.29368 11.6404 8.54856C11.5619 8.80344 11.6311 9.08136 11.8197 9.27C15.4903 12.9406 14.5024 22.9853 14.4923 23.0868C14.4693 23.3035 14.5471 23.5195 14.7026 23.6729ZM16.648 3.00024V5.88024C20.4301 5.88024 21.4899 5.11033 22.5804 4.31817C23.2545 3.82849 23.9403 3.33031 25.288 3.00024C23.1387 3.00024 21.9767 3.31328 21.0781 3.55533C19.7794 3.90519 19.0312 4.10673 16.648 3.00024ZM32.992 35.0604C34.211 35.8351 35.7928 36.1202 36.952 36.1202C37.546 36.1202 38.0723 36.0302 38.5159 35.8531C38.8852 35.7048 39.0645 35.2858 38.9169 34.9164C38.7686 34.547 38.3488 34.3678 37.9802 34.5154C37.708 34.6248 37.3617 34.6802 36.952 34.6802C35.9383 34.6802 34.4119 34.4016 33.4463 33.6168C33.1821 33.4015 32.8034 33.4015 32.5377 33.6168C31.5715 34.4016 30.0451 34.6802 29.032 34.6802C28.0183 34.6802 26.4919 34.4016 25.5263 33.6168C25.2621 33.4015 24.8834 33.4015 24.6177 33.6168C23.6515 34.4016 22.1251 34.6802 21.112 34.6802C20.0983 34.6802 18.5719 34.4016 17.6063 33.6168C17.3414 33.4015 16.9627 33.4015 16.6984 33.6168C15.7322 34.4016 14.2058 34.6802 13.192 34.6802C12.1783 34.6802 10.6519 34.4016 9.68633 33.6168C9.42137 33.4015 9.04265 33.4015 8.77841 33.6168C7.81217 34.4016 6.28577 34.6802 5.27201 34.6802C5.02585 34.6802 4.79765 34.6609 4.58876 34.6432L4.57577 34.6421C4.35905 34.6234 4.15889 34.6082 3.97601 34.6082C3.57857 34.6082 3.25601 34.9301 3.25601 35.3282C3.25601 35.7264 3.57857 36.0482 3.97601 36.0482C4.11185 36.0482 4.25877 36.0606 4.41677 36.0738L4.45553 36.077C4.70465 36.0986 4.97681 36.1202 5.27201 36.1202C6.43193 36.1202 8.01233 35.8351 9.23201 35.0604C10.4517 35.8351 12.0321 36.1202 13.192 36.1202C14.3519 36.1202 15.9323 35.8351 17.152 35.0604C18.3717 35.8351 19.9521 36.1202 21.112 36.1202C22.2719 36.1202 23.8523 35.8351 25.072 35.0604C26.291 35.8351 27.8721 36.1202 29.032 36.1202C30.1919 36.1202 31.7723 35.8351 32.992 35.0604ZM32.992 37.9404C34.211 38.7151 35.7928 39.0002 36.952 39.0002C37.546 39.0002 38.0723 38.9102 38.5159 38.7331C38.8852 38.5848 39.0645 38.1658 38.9169 37.7964C38.7686 37.427 38.3488 37.2478 37.9802 37.3954C37.708 37.5048 37.3617 37.5602 36.952 37.5602C35.9383 37.5602 34.4119 37.2816 33.4463 36.4968C33.1821 36.2815 32.8034 36.2815 32.5377 36.4968C31.5715 37.2816 30.0451 37.5602 29.032 37.5602C28.0183 37.5602 26.4919 37.2816 25.5263 36.4968C25.2621 36.2815 24.8834 36.2815 24.6177 36.4968C23.6515 37.2816 22.1251 37.5602 21.112 37.5602C20.0983 37.5602 18.5719 37.2816 17.6063 36.4968C17.3414 36.2815 16.9627 36.2815 16.6984 36.4968C15.7322 37.2816 14.2058 37.5602 13.192 37.5602C12.1783 37.5602 10.6519 37.2816 9.68633 36.4968C9.42137 36.2815 9.04265 36.2815 8.77841 36.4968C7.81217 37.2816 6.28577 37.5602 5.27201 37.5602C5.02582 37.5602 4.7976 37.5409 4.58871 37.5232L4.57577 37.5221C4.35905 37.5034 4.15889 37.4882 3.97601 37.4882C3.57857 37.4882 3.25601 37.8101 3.25601 38.2082C3.25601 38.6064 3.57857 38.9282 3.97601 38.9282C4.11178 38.9282 4.25862 38.9405 4.41654 38.9538L4.45553 38.957C4.70465 38.9786 4.97681 39.0002 5.27201 39.0002C6.43193 39.0002 8.01233 38.7151 9.23201 37.9404C10.4517 38.7151 12.0321 39.0002 13.192 39.0002C14.3519 39.0002 15.9323 38.7151 17.152 37.9404C18.3717 38.7151 19.9521 39.0002 21.112 39.0002C22.2719 39.0002 23.8523 38.7151 25.072 37.9404C26.291 38.7151 27.8721 39.0002 29.032 39.0002C30.1919 39.0002 31.7723 38.7151 32.992 37.9404ZM5.63143 27.7682C4.73215 27.7682 4.00567 27.1865 3.78103 26.2865L3.04663 21.3213C2.98183 20.8663 3.11143 20.4149 3.40231 20.0793C3.68887 19.7496 4.10719 19.5602 4.55143 19.5602H10.7434C11.5009 19.5602 12.1964 20.0585 12.4347 20.7727L13.9359 24.7039C14.0619 25.0783 14.432 25.3202 14.8474 25.3202H26.2227C26.3573 25.3202 26.5755 25.2108 26.6547 25.1042L28.5253 22.5871C28.9234 22.0889 29.4915 21.7656 30.1374 21.659L38.1891 21.0031C38.4289 20.9822 38.647 21.0787 38.7961 21.2544C38.9466 21.4308 39.002 21.6684 38.9466 21.8937C38.8515 22.2782 37.3042 28.3853 34.3126 32.472C33.9361 32.1797 33.4702 32.0155 32.9921 32.0155C32.4982 32.0155 32.0151 32.1869 31.6306 32.4979C31.0021 33.0084 29.8436 33.2402 29.0314 33.2402C28.2193 33.2402 27.0601 33.0084 26.4344 32.5001C26.0506 32.1876 25.5675 32.0155 25.0722 32.0155C24.5782 32.0155 24.0951 32.1869 23.7106 32.4979C23.0821 33.0084 21.9236 33.2402 21.1114 33.2402C20.2993 33.2402 19.1401 33.0084 18.5144 32.5001C18.1292 32.1876 17.6461 32.0155 17.1514 32.0155C16.6561 32.0155 16.1722 32.1876 15.7885 32.5008C15.1628 33.0084 14.0036 33.2402 13.1914 33.2402C12.3793 33.2402 11.2201 33.0084 10.5944 32.4993C10.2092 32.1869 9.72607 32.0148 9.23143 32.0148C8.88295 32.0148 8.54167 32.1048 8.23495 32.2646C7.17439 30.5157 6.52351 28.7417 6.39175 28.3658C6.27151 28.0044 5.96695 27.7682 5.63143 27.7682ZM33.8518 23.8845L32.4838 24.0285C32.0878 24.0703 31.8013 24.4245 31.8438 24.8198C31.8826 25.1899 32.1944 25.4649 32.5587 25.4649C32.5839 25.4649 32.6091 25.4635 32.6343 25.4606L34.0023 25.3166C34.3983 25.2749 34.6856 24.9206 34.6431 24.5253C34.6013 24.1293 34.2428 23.8392 33.8518 23.8845Z" fill="white"/>
</svg>
