<svg width="42" height="42" viewBox="0 0 42 42" fill="none" xmlns="http://www.w3.org/2000/svg">
<path d="M15.2078 23.8802C15.0199 23.8802 14.8378 23.8061 14.7024 23.6729C14.5469 23.5195 14.4691 23.3035 14.4922 23.0868C14.5022 22.9853 15.4901 12.9406 11.8195 9.27C11.6309 9.08136 11.5618 8.80344 11.6402 8.54856C11.7194 8.29368 11.9333 8.10288 12.1954 8.0532L23.7154 5.8932C23.927 5.85432 24.1452 5.90976 24.3101 6.048C30.2587 11.0174 28.2427 21.4222 28.1542 21.8628C28.0922 22.1681 27.8417 22.3992 27.5328 22.4359L15.2928 23.8759C15.264 23.8788 15.2359 23.8802 15.2078 23.8802ZM16.6478 5.88024V3.00024C20.6798 4.87224 20.0318 3.00024 25.2878 3.00024C21.7598 3.86424 22.7678 5.88024 16.6478 5.88024Z" fill="black"/>
<path d="M15.2078 23.8802C15.0199 23.8802 14.8378 23.8061 14.7024 23.6729C14.5469 23.5195 14.4691 23.3035 14.4922 23.0868C14.5022 22.9853 15.4901 12.9406 11.8195 9.27C11.6309 9.08136 11.5618 8.80344 11.6402 8.54856C11.7194 8.29368 11.9333 8.10288 12.1954 8.0532L23.7154 5.8932C23.927 5.85432 24.1452 5.90976 24.3101 6.048C30.2587 11.0174 28.2427 21.4222 28.1542 21.8628C28.0922 22.1681 27.8417 22.3992 27.5328 22.4359L15.2928 23.8759C15.264 23.8788 15.2359 23.8802 15.2078 23.8802ZM16.6478 5.88024V3.00024C20.6798 4.87224 20.0318 3.00024 25.2878 3.00024C21.7598 3.86424 22.7678 5.88024 16.6478 5.88024Z" fill="url(#paint0_linear)"/>
<path d="M31.0475 20.2803C30.8776 20.2803 30.7113 20.2206 30.5803 20.1083C30.4175 19.9693 30.3254 19.7663 30.3275 19.5531C30.3959 13.3302 27.6038 9.21178 27.5757 9.17074C27.3755 8.88058 27.4144 8.48674 27.6693 8.24194C27.9242 7.99714 28.318 7.97194 28.5995 8.18434C32.9253 11.4279 38.5442 17.5911 38.781 17.8518C38.9574 18.0469 39.0143 18.3227 38.9287 18.5711C38.843 18.8202 38.6284 19.0023 38.3692 19.0463L31.1692 20.2703C31.1274 20.2767 31.0878 20.2803 31.0475 20.2803Z" fill="black"/>
<path d="M31.0475 20.2803C30.8776 20.2803 30.7113 20.2206 30.5803 20.1083C30.4175 19.9693 30.3254 19.7663 30.3275 19.5531C30.3959 13.3302 27.6038 9.21178 27.5757 9.17074C27.3755 8.88058 27.4144 8.48674 27.6693 8.24194C27.9242 7.99714 28.318 7.97194 28.5995 8.18434C32.9253 11.4279 38.5442 17.5911 38.781 17.8518C38.9574 18.0469 39.0143 18.3227 38.9287 18.5711C38.843 18.8202 38.6284 19.0023 38.3692 19.0463L31.1692 20.2703C31.1274 20.2767 31.0878 20.2803 31.0475 20.2803Z" fill="url(#paint1_linear)"/>
<path d="M32.9919 34.468L33.2601 34.6384C34.3745 35.3467 35.854 35.6202 36.9519 35.6202C37.4972 35.6202 37.9581 35.5374 38.3303 35.3888L38.5157 35.8531M32.9919 34.468L17.2909 34.0048C18.3847 34.8939 20.0467 35.1802 21.1119 35.1802C22.1764 35.1802 23.8383 34.8938 24.9328 34.0049L24.6175 33.6168L24.9323 34.0053C25.015 33.9383 25.1305 33.9394 25.2104 34.0044L25.2108 34.0048C26.3047 34.8939 27.9667 35.1802 29.0319 35.1802C30.0964 35.1802 31.7583 34.8938 32.8528 34.0049L32.5375 33.6168L32.8523 34.0053C32.935 33.9383 33.0505 33.9394 33.1304 34.0044L33.1308 34.0048C34.2247 34.8939 35.8867 35.1802 36.9519 35.1802C37.4018 35.1802 37.8165 35.12 38.1666 34.9792L37.98 34.5153M32.9919 34.468L32.7238 34.6383M32.9919 34.468L32.7238 34.6383M38.5157 35.8531L38.3294 35.3891C38.4427 35.3436 38.4975 35.2154 38.4526 35.1023C38.4069 34.9891 38.278 34.9346 38.1659 34.9795L37.98 34.5153M38.5157 35.8531C38.8851 35.7048 39.0643 35.2857 38.9167 34.9164C38.7684 34.547 38.3487 34.3677 37.98 34.5153M38.5157 35.8531C38.0722 36.0302 37.5459 36.1202 36.9519 36.1202C35.7927 36.1202 34.2108 35.8351 32.9919 35.0604C31.7722 35.8351 30.1918 36.1202 29.0319 36.1202C27.8719 36.1202 26.2908 35.8351 25.0719 35.0604C23.8522 35.8351 22.2718 36.1202 21.1119 36.1202C19.9519 36.1202 18.3715 35.8351 17.1519 35.0604C15.9322 35.8351 14.3518 36.1202 13.1919 36.1202C12.0319 36.1202 10.4515 35.8351 9.23186 35.0604C8.01218 35.8351 6.43178 36.1202 5.27186 36.1202C4.97666 36.1202 4.7045 36.0986 4.45538 36.077C4.44238 36.0759 4.42944 36.0749 4.41659 36.0738C4.2586 36.0605 4.11169 36.0482 3.97586 36.0482C3.57842 36.0482 3.25586 35.7264 3.25586 35.3282C3.25586 34.9301 3.57842 34.6082 3.97586 34.6082C4.15874 34.6082 4.3589 34.6233 4.57562 34.6421L4.58859 34.6432C4.79748 34.6609 5.02568 34.6802 5.27186 34.6802C6.28562 34.6802 7.81202 34.4016 8.77826 33.6168C9.0425 33.4015 9.42122 33.4015 9.68618 33.6168C10.6517 34.4016 12.1781 34.6802 13.1919 34.6802C14.2056 34.6802 15.732 34.4016 16.6983 33.6168C16.9625 33.4015 17.3412 33.4015 17.6062 33.6168C18.5717 34.4016 20.0981 34.6802 21.1119 34.6802C22.1249 34.6802 23.6513 34.4016 24.6175 33.6168H33.4462C34.4117 34.4016 35.9381 34.6802 36.9519 34.6802C37.3615 34.6802 37.7079 34.6248 37.98 34.5153M32.7238 34.6383C31.6085 35.3468 30.1303 35.6202 29.0319 35.6202C27.9333 35.6202 26.4545 35.3467 25.3401 34.6384L25.0719 34.468M32.7238 34.6383L25.0719 34.468M25.0719 34.468L24.8038 34.6383M25.0719 34.468L24.8038 34.6383M24.8038 34.6383C23.6885 35.3468 22.2103 35.6202 21.1119 35.6202C20.0134 35.6202 18.5353 35.3468 17.4199 34.6383L17.1519 34.468M24.8038 34.6383L17.1519 34.468M17.1519 34.468L16.8838 34.6383M17.1519 34.468L16.8838 34.6383M16.8838 34.6383C15.7685 35.3468 14.2903 35.6202 13.1919 35.6202C12.0934 35.6202 10.6153 35.3468 9.49994 34.6383L9.23186 34.468M16.8838 34.6383L9.23186 34.468M9.23186 34.468L8.96378 34.6383M9.23186 34.468L8.96378 34.6383M8.96378 34.6383C7.84847 35.3468 6.37032 35.6202 5.27186 35.6202C4.99987 35.6202 4.74612 35.6004 4.49857 35.5789L4.4969 35.5788M8.96378 34.6383L4.4969 35.5788M4.4969 35.5788C4.48295 35.5776 4.46886 35.5764 4.45463 35.5752C4.30159 35.5623 4.13381 35.5482 3.97586 35.5482C3.85424 35.5482 3.75586 35.4499 3.75586 35.3282C3.75586 35.2065 3.85424 35.1082 3.97586 35.1082C4.13486 35.1082 4.31568 35.1215 4.53259 35.1402L4.5334 35.1403M4.4969 35.5788L4.5334 35.1403M4.5334 35.1403C4.53953 35.1408 4.54569 35.1413 4.55189 35.1418C4.7578 35.1593 5.00421 35.1802 5.27186 35.1802C6.33711 35.1802 7.999 34.8939 9.09349 34.0049L9.09407 34.0044M4.5334 35.1403L9.09407 34.0044M9.09407 34.0044C9.17417 33.9392 9.28937 33.9386 9.37088 34.0048C10.4647 34.8939 12.1267 35.1802 13.1919 35.1802C14.2571 35.1802 15.919 34.8939 17.0135 34.0049L17.0141 34.0044M9.09407 34.0044L17.0141 34.0044M17.0141 34.0044C17.0941 33.9392 17.2093 33.9386 17.2908 34.0048L17.0141 34.0044ZM38.5157 38.7331L38.3303 38.2688C37.9581 38.4174 37.4972 38.5002 36.9519 38.5002C35.854 38.5002 34.3745 38.2267 33.2601 37.5184L32.9919 37.348L32.7238 37.5183C31.6085 38.2268 30.1303 38.5002 29.0319 38.5002C27.9333 38.5002 26.4545 38.2267 25.3401 37.5184L25.0719 37.348L24.8038 37.5183C23.6885 38.2268 22.2103 38.5002 21.1119 38.5002C20.0134 38.5002 18.5353 38.2268 17.4199 37.5183L17.1519 37.348L16.8838 37.5183C15.7685 38.2268 14.2903 38.5002 13.1919 38.5002C12.0934 38.5002 10.6153 38.2268 9.49994 37.5183L9.23186 37.348L8.96378 37.5183C7.84847 38.2268 6.37032 38.5002 5.27186 38.5002C4.99987 38.5002 4.74612 38.4804 4.49857 38.4589L4.4969 38.4587C4.48295 38.4576 4.46886 38.4564 4.45463 38.4552C4.30159 38.4423 4.13381 38.4282 3.97586 38.4282C3.85423 38.4282 3.75586 38.3299 3.75586 38.2082C3.75586 38.0865 3.85424 37.9882 3.97586 37.9882C4.13486 37.9882 4.31568 38.0015 4.53259 38.0202L4.5334 38.0203L4.55193 38.0218C4.75782 38.0393 5.00422 38.0602 5.27186 38.0602C6.33711 38.0602 7.999 37.7739 9.09349 36.8849L9.09407 36.8844C9.17417 36.8192 9.28937 36.8186 9.37088 36.8848C10.4647 37.7739 12.1267 38.0602 13.1919 38.0602C14.2571 38.0602 15.919 37.7739 17.0135 36.8849L17.0141 36.8844C17.0942 36.8192 17.2094 36.8186 17.2909 36.8848C18.3847 37.7739 20.0467 38.0602 21.1119 38.0602C22.1764 38.0602 23.8383 37.7738 24.9328 36.8849L24.6175 36.4968M38.5157 38.7331L38.3294 38.2691C38.4427 38.2236 38.4976 38.0954 38.4526 37.9823C38.4069 37.8691 38.278 37.8146 38.1659 37.8595L37.98 37.3953M38.5157 38.7331C38.0722 38.9102 37.5459 39.0002 36.9519 39.0002C35.7927 39.0002 34.2108 38.7151 32.9919 37.9404L33.4462 36.4968C34.4117 37.2816 35.9381 37.5602 36.9519 37.5602C37.3615 37.5602 37.7079 37.5048 37.98 37.3953M38.5157 38.7331C38.8851 38.5848 39.0643 38.1657 38.9167 37.7964C38.7684 37.427 38.3487 37.2477 37.98 37.3953M37.98 37.3953L38.1666 37.8592C37.8165 38 37.4018 38.0602 36.9519 38.0602C35.8867 38.0602 34.2247 37.7739 33.1308 36.8848L33.1304 36.8844C33.0505 36.8194 32.935 36.8183 32.8523 36.8853L32.5375 36.4968L32.8528 36.8849C31.7583 37.7738 30.0964 38.0602 29.0319 38.0602C27.9667 38.0602 26.3047 37.7739 25.2108 36.8848L25.2104 36.8844C25.1305 36.8194 25.015 36.8183 24.9323 36.8853L24.6175 36.4968M24.6175 36.4968C23.6513 37.2816 22.1249 37.5602 21.1119 37.5602C20.0981 37.5602 18.5717 37.2816 17.6062 36.4968L29.0319 37.5602C28.0181 37.5602 26.4917 37.2816 25.5262 36.4968C25.2619 36.2815 24.8832 36.2815 24.6175 36.4968Z" fill="black" stroke="url(#paint2_linear)"/>
<path d="M3.78103 26.2865C4.00567 27.1865 4.73215 27.7683 5.63143 27.7683C5.96695 27.7683 6.27151 28.0045 6.39175 28.3659C6.52351 28.7417 7.17439 30.5158 8.23495 32.2647C8.54167 32.1049 8.88295 32.0149 9.23143 32.0149C9.72607 32.0149 10.2092 32.1869 10.5944 32.4994C11.2201 33.0085 12.3793 33.2403 13.1914 33.2403C14.0036 33.2403 15.1628 33.0085 15.7885 32.5009C16.1722 32.1877 16.6561 32.0156 17.1514 32.0156C17.6461 32.0156 18.1292 32.1877 18.5144 32.5001C19.1401 33.0085 20.2993 33.2403 21.1114 33.2403C21.9236 33.2403 23.0821 33.0085 23.7106 32.498C24.0951 32.1869 24.5782 32.0156 25.0722 32.0156C25.5675 32.0156 26.0506 32.1877 26.4344 32.5001C27.0601 33.0085 28.2193 33.2403 29.0314 33.2403C29.8436 33.2403 31.0021 33.0085 31.6306 32.498C32.0151 32.1869 32.4982 32.0156 32.9921 32.0156C33.4702 32.0156 33.9361 32.1797 34.3126 32.4721C37.3042 28.3853 38.8515 22.2783 38.9466 21.8938C39.002 21.6685 38.9466 21.4309 38.7961 21.2545C38.647 21.0788 38.4289 20.9823 38.1891 21.0032L30.1374 21.6591C29.4915 21.7657 28.9234 22.0889 28.5253 22.5872L26.6547 25.1043C26.5755 25.2109 26.3573 25.3203 26.2227 25.3203H14.8474C14.432 25.3203 14.0619 25.0784 13.9359 24.704L12.4347 20.7728C12.1964 20.0585 11.5009 19.5603 10.7434 19.5603H4.55143C4.10719 19.5603 3.68887 19.7497 3.40231 20.0794C3.11143 20.4149 2.98183 20.8664 3.04663 21.3214L3.78103 26.2865ZM32.4838 24.0286L33.8518 23.8846C34.2428 23.8393 34.6013 24.1294 34.6431 24.5254C34.6856 24.9207 34.3983 25.2749 34.0023 25.3167L32.6343 25.4607C32.6091 25.4636 32.5839 25.465 32.5587 25.465C32.1944 25.465 31.8826 25.19 31.8438 24.8199C31.8013 24.4246 32.0878 24.0704 32.4838 24.0286Z" fill="black"/>
<path d="M3.78103 26.2865C4.00567 27.1865 4.73215 27.7683 5.63143 27.7683C5.96695 27.7683 6.27151 28.0045 6.39175 28.3659C6.52351 28.7417 7.17439 30.5158 8.23495 32.2647C8.54167 32.1049 8.88295 32.0149 9.23143 32.0149C9.72607 32.0149 10.2092 32.1869 10.5944 32.4994C11.2201 33.0085 12.3793 33.2403 13.1914 33.2403C14.0036 33.2403 15.1628 33.0085 15.7885 32.5009C16.1722 32.1877 16.6561 32.0156 17.1514 32.0156C17.6461 32.0156 18.1292 32.1877 18.5144 32.5001C19.1401 33.0085 20.2993 33.2403 21.1114 33.2403C21.9236 33.2403 23.0821 33.0085 23.7106 32.498C24.0951 32.1869 24.5782 32.0156 25.0722 32.0156C25.5675 32.0156 26.0506 32.1877 26.4344 32.5001C27.0601 33.0085 28.2193 33.2403 29.0314 33.2403C29.8436 33.2403 31.0021 33.0085 31.6306 32.498C32.0151 32.1869 32.4982 32.0156 32.9921 32.0156C33.4702 32.0156 33.9361 32.1797 34.3126 32.4721C37.3042 28.3853 38.8515 22.2783 38.9466 21.8938C39.002 21.6685 38.9466 21.4309 38.7961 21.2545C38.647 21.0788 38.4289 20.9823 38.1891 21.0032L30.1374 21.6591C29.4915 21.7657 28.9234 22.0889 28.5253 22.5872L26.6547 25.1043C26.5755 25.2109 26.3573 25.3203 26.2227 25.3203H14.8474C14.432 25.3203 14.0619 25.0784 13.9359 24.704L12.4347 20.7728C12.1964 20.0585 11.5009 19.5603 10.7434 19.5603H4.55143C4.10719 19.5603 3.68887 19.7497 3.40231 20.0794C3.11143 20.4149 2.98183 20.8664 3.04663 21.3214L3.78103 26.2865ZM32.4838 24.0286L33.8518 23.8846C34.2428 23.8393 34.6013 24.1294 34.6431 24.5254C34.6856 24.9207 34.3983 25.2749 34.0023 25.3167L32.6343 25.4607C32.6091 25.4636 32.5839 25.465 32.5587 25.465C32.1944 25.465 31.8826 25.19 31.8438 24.8199C31.8013 24.4246 32.0878 24.0704 32.4838 24.0286Z" fill="url(#paint3_linear)"/>
<defs>
<linearGradient id="paint0_linear" x1="27.5542" y1="5.5406" x2="8.95443" y2="19.8216" gradientUnits="userSpaceOnUse">
<stop stop-color="#FEA5A5"/>
<stop offset="1" stop-color="#E33434"/>
</linearGradient>
<linearGradient id="paint1_linear" x1="38.2887" y1="9.52946" x2="27.0781" y2="19.5117" gradientUnits="userSpaceOnUse">
<stop stop-color="#FEA5A5"/>
<stop offset="1" stop-color="#E33434"/>
</linearGradient>
<linearGradient id="paint2_linear" x1="21.1121" y1="41.2523" x2="21.1121" y2="31.7708" gradientUnits="userSpaceOnUse">
<stop stop-color="#1DA1CB"/>
<stop offset="0.78647" stop-color="#52C7ED"/>
</linearGradient>
<linearGradient id="paint3_linear" x1="20.9989" y1="19.5603" x2="15.284" y2="40.3505" gradientUnits="userSpaceOnUse">
<stop stop-color="#E7AA72"/>
<stop offset="1" stop-color="#DF8B28"/>
</linearGradient>
</defs>
</svg>
