<svg xmlns="http://www.w3.org/2000/svg" viewBox="0 0 1000 1000" width="1000" height="1000" preserveAspectRatio="xMidYMid meet"><defs><clipPath id="__lottie_element_2"><rect width="1000" height="1000" x="0" y="0"></rect></clipPath><clipPath id="__lottie_element_4"><path d="M0,0 L1000,0 L1000,1000 L0,1000z"></path></clipPath><mask id="__lottie_element_7" mask-type="alpha"><g transform="matrix(1,0,0,1,500,500)" opacity="1" style="display: block;"><g opacity="1" transform="matrix(1,0,0,1,0,0)"><path stroke-linecap="round" stroke-linejoin="miter" fill-opacity="0" stroke-miterlimit="4" stroke="rgb(147,147,147)" stroke-opacity="1" stroke-width="84" d=" M-161,-38 C-161,-38 -41,79 -41,79 C-41,79 162,-115 162,-115"></path></g></g></mask><linearGradient id="__lottie_element_13" spreadMethod="pad" gradientUnits="userSpaceOnUse" x1="-4.060999870300293" y1="11.637999534606934" x2="-4.060999870300293" y2="-12.102999687194824"><stop offset="0%" stop-color="rgb(57,181,74)"></stop><stop offset="50%" stop-color="rgb(48,175,65)"></stop><stop offset="100%" stop-color="rgb(39,169,57)"></stop></linearGradient><clipPath id="__lottie_element_15"><path d="M0,0 L1000,0 L1000,1000 L0,1000z"></path></clipPath><filter id="__lottie_element_20" filterUnits="objectBoundingBox" x="0%" y="0%" width="100%" height="100%"><feGaussianBlur in="SourceAlpha" result="drop_shadow_1" stdDeviation="0"></feGaussianBlur><feOffset dx="5.817072295949927e-16" dy="9.5" in="drop_shadow_1" result="drop_shadow_2"></feOffset><feFlood flood-color="#000000" flood-opacity="0.3" result="drop_shadow_3"></feFlood><feComposite in="drop_shadow_3" in2="drop_shadow_2" operator="in" result="drop_shadow_4"></feComposite><feMerge><feMergeNode></feMergeNode><feMergeNode in="SourceGraphic"></feMergeNode></feMerge><feGaussianBlur in="SourceAlpha" result="drop_shadow_1" stdDeviation="23.5"></feGaussianBlur><feOffset dx="1.1634144591899855e-15" dy="19" in="drop_shadow_1" result="drop_shadow_2"></feOffset><feFlood flood-color="#000000" flood-opacity="0.2" result="drop_shadow_3"></feFlood><feComposite in="drop_shadow_3" in2="drop_shadow_2" operator="in" result="drop_shadow_4"></feComposite><feMerge><feMergeNode></feMergeNode><feMergeNode in="SourceGraphic"></feMergeNode></feMerge></filter><linearGradient id="__lottie_element_21" spreadMethod="pad" gradientUnits="userSpaceOnUse" x1="4.264999866485596" y1="-385.5249938964844" x2="0" y2="398.32000732421875"><stop offset="0%" stop-color="rgb(232,238,253)"></stop><stop offset="50%" stop-color="rgb(244,247,254)"></stop><stop offset="100%" stop-color="rgb(255,255,255)"></stop></linearGradient></defs><g clip-path="url(#__lottie_element_2)"><g clip-path="url(#__lottie_element_15)" transform="matrix(0.4000000059604645,0,0,0.4000000059604645,300,300)" opacity="1" style="display: block;"><g transform="matrix(1,0,0,1,500,500)" opacity="0.3" style="display: block;"><g opacity="1" transform="matrix(0.9378700256347656,0,0,0.9378700256347656,0,0)"><path fill="rgb(87,76,167)" fill-opacity="1" d=" M0,-400 C220.75999450683594,-400 400,-220.75999450683594 400,0 C400,220.75999450683594 220.75999450683594,400 0,400 C-220.75999450683594,400 -400,220.75999450683594 -400,0 C-400,-220.75999450683594 -220.75999450683594,-400 0,-400z"></path></g></g><g filter="url(#__lottie_element_20)" style="display: block;" transform="matrix(1,0,0,1,500,500)" opacity="0.9"><g opacity="1" transform="matrix(0.9378700256347656,0,0,0.9378700256347656,0,0)"><path fill="rgb(196,196,196)" fill-opacity="1" d=" M0,-400 C220.75999450683594,-400 400,-220.75999450683594 400,0 C400,220.75999450683594 220.75999450683594,400 0,400 C-220.75999450683594,400 -400,220.75999450683594 -400,0 C-400,-220.75999450683594 -220.75999450683594,-400 0,-400z"></path><path fill="url(#__lottie_element_21)" fill-opacity="1" d=" M0,-400 C220.75999450683594,-400 400,-220.75999450683594 400,0 C400,220.75999450683594 220.75999450683594,400 0,400 C-220.75999450683594,400 -400,220.75999450683594 -400,0 C-400,-220.75999450683594 -220.75999450683594,-400 0,-400z"></path></g></g></g><g clip-path="url(#__lottie_element_4)" transform="matrix(0.4007466435432434,0,0,0.4007466435432434,299.6266784667969,299.6266784667969)" opacity="1" style="display: block;"><g mask="url(#__lottie_element_7)" style="display: block;"><g transform="matrix(10,0,0,10,500,500)" opacity="1"><g opacity="1" transform="matrix(0.9378700256347656,0,0,0.9378700256347656,0,0)"><path fill="rgb(51,57,99)" fill-opacity="1" d=" M-17.945999145507812,0.6880000233650208 C-17.945999145507812,0.6880000233650208 -5.642000198364258,12.947999954223633 -5.642000198364258,12.947999954223633 C-4.9029998779296875,13.6850004196167 -3.7039999961853027,13.6850004196167 -2.9649999141693115,12.947999954223633 C-2.9649999141693115,12.947999954223633 17.945999145507812,-7.61299991607666 17.945999145507812,-7.61299991607666 C18.684999465942383,-8.350000381469727 18.684999465942383,-9.543000221252441 17.945999145507812,-10.279999732971191 C17.945999145507812,-10.279999732971191 15.269000053405762,-12.947999954223633 15.269000053405762,-12.947999954223633 C14.529999732971191,-13.6850004196167 13.331000328063965,-13.6850004196167 12.592000007629395,-12.947999954223633 C12.592000007629395,-12.947999954223633 -4.302999973297119,3.611999988555908 -4.302999973297119,3.611999988555908 C-4.302999973297119,3.611999988555908 -12.592000007629395,-4.646999835968018 -12.592000007629395,-4.646999835968018 C-13.331000328063965,-5.383999824523926 -14.529999732971191,-5.383999824523926 -15.269000053405762,-4.646999835968018 C-15.269000053405762,-4.646999835968018 -17.945999145507812,-1.9800000190734863 -17.945999145507812,-1.9800000190734863 C-18.684999465942383,-1.2430000305175781 -18.684999465942383,-0.04899999871850014 -17.945999145507812,0.6880000233650208z"></path><path fill="url(#__lottie_element_13)" fill-opacity="1" d=" M-17.945999145507812,0.6880000233650208 C-17.945999145507812,0.6880000233650208 -5.642000198364258,12.947999954223633 -5.642000198364258,12.947999954223633 C-4.9029998779296875,13.6850004196167 -3.7039999961853027,13.6850004196167 -2.9649999141693115,12.947999954223633 C-2.9649999141693115,12.947999954223633 17.945999145507812,-7.61299991607666 17.945999145507812,-7.61299991607666 C18.684999465942383,-8.350000381469727 18.684999465942383,-9.543000221252441 17.945999145507812,-10.279999732971191 C17.945999145507812,-10.279999732971191 15.269000053405762,-12.947999954223633 15.269000053405762,-12.947999954223633 C14.529999732971191,-13.6850004196167 13.331000328063965,-13.6850004196167 12.592000007629395,-12.947999954223633 C12.592000007629395,-12.947999954223633 -4.302999973297119,3.611999988555908 -4.302999973297119,3.611999988555908 C-4.302999973297119,3.611999988555908 -12.592000007629395,-4.646999835968018 -12.592000007629395,-4.646999835968018 C-13.331000328063965,-5.383999824523926 -14.529999732971191,-5.383999824523926 -15.269000053405762,-4.646999835968018 C-15.269000053405762,-4.646999835968018 -17.945999145507812,-1.9800000190734863 -17.945999145507812,-1.9800000190734863 C-18.684999465942383,-1.2430000305175781 -18.684999465942383,-0.04899999871850014 -17.945999145507812,0.6880000233650208z"></path></g></g></g></g></g></svg>
