<svg width="4579" height="1135" viewBox="0 0 4579 1135" fill="none" xmlns="http://www.w3.org/2000/svg">
<g opacity="0.1">
<path fill-rule="evenodd" clip-rule="evenodd" d="M2208.19 51.2875C2241.69 45.0746 2315.17 0.38916 2315.17 0.38916H294.501C294.501 0.38916 164.5 62.5185 251 154.996C326.658 235.883 278.5 301.232 278.5 301.232C278.5 301.232 283.718 301.325 293.267 301.493C303.571 306.634 324.009 313.514 346.169 320.973C391.15 336.116 443.222 353.644 432 363.856C408 385.696 427.5 408.686 476.5 419.62C504.99 425.977 515.563 439.39 527.874 455.007C536.737 466.25 546.501 478.636 564.5 490.356L564.631 490.441C607.55 518.389 632.042 534.337 673 515.356C692.917 506.126 733.719 513.888 779.472 522.59C827.901 531.802 881.877 542.069 922.5 534.356C969.279 525.474 1002.21 538.681 1030.94 550.206C1050.73 558.144 1068.53 565.284 1087.5 563.856C1134 560.356 1190.63 545.856 1226 521.856C1244.37 509.396 1266.84 505.696 1284.56 502.779C1300.97 500.078 1313.3 498.049 1314.5 490.356C1315.82 481.927 1296.87 486.126 1268.78 492.352C1243.55 497.945 1210.94 505.173 1179 506.356C1144.29 507.642 1114.21 503.375 1082.85 498.926C1053.21 494.723 1022.42 490.356 985.501 490.356C924.701 490.356 971.336 464.744 1002.25 451.938C1008.24 456.717 1103.03 455.522 1153.29 451.938C1167.13 450.95 1178.07 449.419 1188.08 448.019C1214.41 444.333 1234.3 441.549 1283.73 451.938C1333.98 462.501 1343.31 455.552 1355.75 446.288C1360.19 442.979 1365.03 439.374 1372.28 436.166C1379.75 432.857 1385.19 429.954 1389.88 427.455C1402.45 420.751 1409.55 416.964 1435.7 416.094C1452.42 415.537 1463.94 419.643 1475.35 423.708C1488.45 428.374 1501.4 432.985 1521.86 430.431C1551.95 426.676 1564.31 428.085 1591.45 431.18C1598.85 432.023 1607.34 432.992 1617.59 434.016C1665.46 438.795 1748.5 419.62 1748.5 419.62C1748.5 419.62 1678.62 419.678 1639.13 408.686C1620.59 403.525 1611.28 396.414 1602.66 389.828C1592.92 382.388 1584.06 375.616 1563.74 373.081C1525.45 368.302 1509.65 357.549 1499.84 342.016C1492.54 330.456 1430.75 326.838 1378.41 323.773C1360.42 322.72 1343.55 321.732 1330.4 320.51C1305.27 318.176 1281.28 313.564 1258.47 309.176C1252.18 307.966 1245.97 306.772 1239.86 305.649C1300.75 300.487 1327.57 300.719 1366.03 301.052C1376.43 301.142 1387.68 301.239 1400.68 301.239C1402.31 301.239 1403.91 301.24 1405.47 301.24C1474.45 301.25 1481.65 301.251 1553.5 281.389C1619.84 263.051 1655.05 264.205 1704.77 265.833C1710.12 266.008 1715.64 266.189 1721.39 266.351C1780.5 268.024 1869.77 263.245 1860.2 252.014C1856.08 247.178 1827.99 245.044 1794.81 242.523C1750.92 239.189 1698.11 235.176 1679.98 223.338C1658.81 209.673 1719.46 207.078 1778.44 204.555C1808.16 203.284 1837.45 202.031 1855.65 199.389C1878.3 196.101 1872.62 193.944 1862.23 190C1847.71 184.486 1823.98 175.477 1855.65 154.996C1887.38 134.388 1911.55 137.599 1943.5 141.844C1966.01 144.835 1992.39 148.34 2028 144.389C2081.26 138.48 2060.7 134.159 2040.23 129.857C2027.59 127.201 2014.99 124.552 2019.83 121.542C2025.06 118.351 2035.23 117.233 2045.69 116.084C2061.08 114.393 2077.1 112.633 2078.95 104.098C2080.47 97.1021 2099.7 96.1716 2119.92 95.1935C2141.15 94.1669 2163.46 93.0878 2167.5 84.8891C2171.93 75.9078 2138.48 71.9936 2114.17 69.1488C2095.14 66.9225 2081.71 65.3511 2096.42 62.5186C2114.99 58.9434 2123.78 60.2842 2132.81 61.6621C2140.09 62.7709 2147.51 63.9037 2160.32 62.5186C2175.19 60.7869 2178.51 59.5034 2182.9 57.8064C2187 56.225 2192.02 54.2845 2208.19 51.2875Z" fill="url(#paint0_linear)"/>
<path d="M2801.11 294.186C2743.64 295.86 2703.33 318.531 2703.33 318.531C2724.19 308.58 2780.01 295.543 2831.5 310.134C2882.99 324.725 2877.58 337.817 2929.34 339.927C2981.1 342.037 3009.73 305.636 3045.5 318.531C3081.27 331.425 3059.35 361.332 3098.91 360.763C3138.46 360.193 3194.25 367.992 3194.25 367.992C3256.5 374.24 3315 360.763 3380.5 350.134C3446 339.506 3446.5 382.634 3526.5 357.134C3606.5 331.634 3629 289.634 3583 285.449C3537 281.264 3490.5 254.634 3455.5 247.656C3420.5 240.677 3364.5 264.134 3320 266.134C3284.4 267.734 3215.32 254.482 3185.23 247.656C3185.23 247.656 3112.97 231.005 3075.89 232.587C3038.8 234.169 3022.62 242.767 2989.39 247.655C2956.15 252.543 2940.78 268.379 2914.46 285.449C2888.14 302.519 2858.59 292.513 2801.11 294.186Z" fill="#FD9EAD"/>
<path d="M2684 98.1331C2631.77 102.398 2568.66 96.6797 2647.97 89.4848C2718.13 83.1209 2841.71 70.3591 2966.27 68.3819C3050.55 67.0441 3178.03 71.7706 3182.08 72.3043C3288.6 77.9294 3470.46 90.5798 3345.66 96.1798C3189.66 103.18 3193.66 128.091 3250.66 128.091C3307.66 128.091 3349.66 123.269 3365.66 125.68C3381.66 128.091 3410.66 135.68 3426.66 133.68C3442.66 131.68 3449.66 128.68 3477.16 131.18C3504.66 133.68 3500.16 138.981 3458.66 141.58C3417.16 144.18 3427.16 151.68 3388.66 149.18C3350.16 146.68 3326.16 139.58 3311.16 147.18C3296.16 154.779 3333.16 163.733 3367.66 161.68C3402.16 159.626 3418 162.633 3436 166.633C3454 170.633 3498.66 169.733 3515.16 164.68C3531.66 159.626 3561.66 171.18 3477.16 180.18C3392.66 189.18 3356.16 170.18 3341.16 175.18C3326.16 180.18 3266.66 166.68 3250.66 175.18C3234.66 183.68 3168.66 153.18 3147.16 157.68C3125.66 162.18 3073.66 177.18 3101.16 180.18C3128.66 183.18 3208.66 184.18 3167.66 189.18C3144.88 191.957 3202.66 202.063 3246.16 199.18C3289.66 196.297 3299.66 197.346 3319.16 204.18C3338.66 211.014 3331.66 215.68 3315.16 215.68C3298.66 215.68 3266.16 214.68 3234.16 218.18C3202.16 221.68 3170.66 207.18 3147.16 207.18C3137.14 207.013 2954.81 205.44 2916.1 211.014C2877.38 216.587 2868.08 189.643 2850.75 192.797C2833.42 195.95 2792.81 203.152 2778.58 192.571C2764.35 181.989 2807.18 185.663 2827.27 178.819C2847.37 171.975 2832.77 163.422 2912.69 159.626C2992.62 155.831 2957.83 137.592 2950.58 141.58C2943.33 145.569 2926.7 136.649 2897.07 128.091C2867.44 119.532 2846.19 123.948 2823.83 126.933C2801.48 129.918 2734.7 127.832 2802.72 118.311C2870.74 108.79 2749.29 92.8023 2684 98.1331Z" fill="#FD9EAD"/>
</g>
<g opacity="0.1" clip-path="url(#clip0)">
<path d="M1595.66 751.54C1559.64 756.992 1473.58 882.379 1473.58 882.379C1435.5 906.295 1351.96 954.125 1322.46 954.125C1285.57 954.125 1276.86 966.362 1237.93 938.125C1199 909.889 1161.6 873.889 1137.01 873.889C1112.42 873.889 1110.37 816.008 1079.64 795.699C1005.36 766.073 937.223 760.627 922.879 760.627C908.535 760.627 892.142 775.389 881.897 775.389C873.7 775.389 803.005 698.056 768.683 659.389C748.021 668.855 703.828 691.254 692.353 705.125C680.878 718.997 613.462 741.849 581.188 751.54C564.625 784.874 525.35 849.35 500.76 840.584C470.023 829.625 389.596 828.778 379.35 840.584C369.104 852.389 342.466 882.379 336.318 882.379C331.401 882.379 288.847 930.21 268.185 954.125L165.729 1006.63L100.67 1074.13L19.2172 1130.13L-261 1198.57H268.185H1473.58H3289.1H3301.28H4745C4728.37 1180.17 4656.47 1176.33 4613.5 1158.89C4577.93 1144.45 4572.29 1116.47 4543.67 1101.13C4496.11 1075.62 4485.79 1042.75 4485.79 1033.13C4485.79 1021.41 4470.92 990.199 4453 968.625C4436.67 948.954 4417.14 938.98 4417.14 925.625L4300.34 870.125L4259.87 806.625L4226.06 762.625L4164.59 729.125L4149.73 719.125L4153.83 708.625L4149.73 698.786C4131.8 692.119 4087.33 669.578 4052.91 659.389C4009.88 646.653 4009.88 610.125 4006.29 604.625C4002.71 599.125 3887.96 617.976 3879.25 617.976C3870.54 617.976 3837.24 635.125 3830.58 638.125C3823.92 641.125 3796.26 650.686 3768.08 650.686C3739.91 650.686 3698.92 709.125 3695.85 716.125C3692.78 723.125 3634.38 728.825 3612.86 722.465C3591.35 716.105 3585.71 710.125 3562.15 709.125C3543.29 708.325 3503.06 717.685 3485.3 722.465L3376.7 806.057L3289.1 777.125C3289.1 777.125 3255.71 740.637 3239.7 728.825C3223.69 717.014 3189.67 650.686 3189.67 650.686C3189.67 650.686 3164.65 628.879 3141.64 617.976C3118.62 607.073 3087.6 549.831 3087.6 549.831L3037.22 468.389L2962.52 522.573C2962.52 522.573 2938.6 545.288 2927.59 549.831C2916.58 554.374 2882.51 588.889 2882.51 588.889L2841.44 653.411L2820.23 650.686C2820.23 650.686 2808.45 656.663 2796.45 659.389C2784.44 662.115 2773.2 682.487 2773.2 682.487C2773.2 682.487 2755.19 698.842 2747.18 722.465C2739.18 746.089 2636.65 795.699 2636.65 795.699H2620.04L2586.42 806.057L2558.8 840.584L2458.34 909.889L2373.82 873.889L2298 856.389C2298 856.389 2277.63 849.596 2247.8 852.389C2234.01 853.68 2222.48 872.303 2204.76 873.889C2086.78 884.454 1895.74 891.003 1866.03 882.379C1838.95 874.519 1782.97 813.817 1732.79 775.389C1724.23 768.83 1701.41 771.569 1694.37 766.073C1675.91 751.663 1663.8 741.889 1663.8 741.889C1663.8 741.889 1631.68 746.089 1595.66 751.54Z" fill="url(#paint1_linear)"/>
<path opacity="0.3" d="M2883.46 588.889L2842.39 653.411L2813.19 691.889V748.389L2745.57 828.389L2832.66 748.389V691.889L2868.52 632.889L2901.82 600.389C2907.11 593.389 2918.21 578.889 2920.26 576.889C2922.31 574.889 2939.55 565.056 2947.92 560.389C2955.26 556.056 2970.46 547.289 2972.51 546.889C2975.07 546.389 2991.98 524.125 2994.03 520.625C2995.67 517.825 3027.84 489.125 3038.17 468.389L2963.47 522.573C2963.47 522.573 2939.55 545.288 2928.54 549.831C2917.53 554.374 2883.46 588.889 2883.46 588.889Z" fill="white"/>
<path opacity="0.3" d="M1509.44 882.379L1464.87 927.625L1433.62 961.125C1414.5 962.459 1373.07 966.725 1360.37 973.125C1347.66 979.525 1330.14 986.459 1322.97 989.125L1310.68 1016.13C1300.43 1024.46 1277.89 1041.73 1269.69 1044.13C1261.5 1046.53 1236.22 1057.13 1224.61 1062.13C1206.51 1077.79 1169.29 1110.13 1165.19 1114.13C1161.09 1118.13 1099.96 1129.13 1069.9 1134.13L1117.03 1109.13L1245.62 1025.63C1253.13 1022.96 1270.51 1017.33 1279.94 1016.13C1289.36 1014.93 1299.23 993.292 1302.99 982.625L1360.37 945.125L1427.99 910.125L1473.93 882.379C1473.93 882.379 1559.99 756.992 1596.01 751.541C1604.62 750.268 1614.05 748.253 1622.65 747.889L1544.27 820.625L1509.44 882.379Z" fill="white"/>
<path d="M2551.22 1064.63C2578.44 1073.35 3044.23 1198.19 3044.23 1198.19H1494.58L270.746 1190.55H55.0762L144.213 1131.05L219.518 1124.05L270.746 1071.05L312.753 1036.28L336.83 1014.55L366.03 972.316L429.041 962.685L481.293 956.688C511.005 969.954 572.172 996.485 579.139 996.485C586.106 996.485 648.467 1026.53 688.767 1078.05L766.633 1103.05H797.882L924.928 1078.05H1022.77L1155.45 1111.55H1217.44C1234.86 1111.55 1272.25 1113.05 1279.43 1111.55C1285.16 1110.35 1315.28 1099.05 1329.63 1093.55L1351.14 1103.05L1494.58 1036.28L1547.35 1030.32L1582.7 983.817L1619.22 975.224L1668.66 943.786C1668.66 943.786 1714.08 922.525 1732.7 912.894C1751.31 903.262 1772.72 843.84 1772.72 843.84L1803.34 817.127L1880.79 824.396L1990.26 862.012L2081.12 899.628C2081.12 899.628 2125.15 906.897 2150.16 911.803C2175.38 916.71 2217.81 919.072 2217.81 919.072L2261.44 956.688L2278.65 962.685L2322.07 972.316L2344.69 989.216C2344.69 989.216 2397.12 989.216 2416.13 996.485C2435.15 1003.75 2524 1055.91 2551.22 1064.63Z" fill="url(#paint2_linear)"/>
<path opacity="0.3" d="M1690.07 943.786L1762.12 915.256L1803.54 843.84L1880.99 824.396L1803.54 817.127L1772.72 843.84C1772.72 843.84 1751.31 903.262 1732.7 912.894C1714.08 922.525 1668.66 943.786 1668.66 943.786L1619.22 975.224L1646.22 962.817L1690.07 943.786Z" fill="white"/>
<path d="M1866.66 1052.41C1868.66 1051.14 1886.68 1052.95 1892.68 1052.41C1898.68 1051.86 1947.32 1030.6 1950.12 1029.33C1952.72 1028.06 1968.13 1029.87 1980.14 1038.42C1992.14 1046.96 1996.75 1034.78 1998.75 1036.6C2000.75 1038.42 2019.36 1057.13 2020.76 1054.77C2022.16 1052.41 2031.37 1056.04 2035.37 1054.77C2039.37 1053.5 2067.99 1037.87 2082.8 1031.15C2097.41 1024.42 2109.42 1026.97 2136.24 1023.88C2162.85 1020.79 2202.28 1008.8 2208.88 1006.98C2215.49 1005.16 2222.1 1020.97 2242.51 1023.88C2262.72 1026.97 2264.78 1006.43 2274.79 1006.98C2296.8 1008.25 2305.09 1016.75 2312.69 1014.39C2320.3 1012.03 2362.39 1014.39 2362.39 1014.39L2480.72 955.245L2499.68 932.201L2523.24 924.263H2542.71L2657.17 867.053L2702.6 830.891C2702.6 830.891 2742.46 862.234 2762.48 854.965C2782.49 847.697 2820.88 830.891 2820.88 830.891C2820.88 830.891 2866.15 847.697 2891.57 854.965C2916.99 862.234 2949.97 904.465 2949.97 904.465L3018.8 921.933H3090.85L3163.59 904.465L3217.89 867.053C3233.94 870.578 3270.15 877.927 3286.54 879.127C3307.03 880.627 3336.74 879.127 3346.99 879.127C3355.18 879.127 3393.43 871.078 3411.53 867.053L3462.25 792.127L3536.53 731.127H3592.88L3629.25 768.627L3721.98 792.127L3738.37 904.465L3824.94 955.245C3830.92 957.206 3850.97 964.327 3883.34 977.127C3915.72 989.927 3965.48 1007.3 3986.31 1014.39L4018.07 1054.77L4090.82 1091.63L4118.99 1130.63V1198.15H3090.85H1302.99L1756.87 1066.13C1857.43 1040.15 1865.9 1052.89 1866.66 1052.41Z" fill="url(#paint3_linear)"/>
</g>
<defs>
<linearGradient id="paint0_linear" x1="1082.5" y1="402.889" x2="265.466" y2="403.171" gradientUnits="userSpaceOnUse">
<stop stop-color="#FD9EAD"/>
<stop offset="1" stop-color="#FD9EAD" stop-opacity="0"/>
</linearGradient>
<linearGradient id="paint1_linear" x1="1598.31" y1="1125.88" x2="1598.31" y2="702.474" gradientUnits="userSpaceOnUse">
<stop offset="0.00614984" stop-color="#846DC2"/>
<stop offset="0.0941332" stop-color="#7760B9"/>
<stop offset="0.3223" stop-color="#5B44A4"/>
<stop offset="0.5506" stop-color="#463096"/>
<stop offset="0.7771" stop-color="#3A248D"/>
<stop offset="1" stop-color="#36208A"/>
</linearGradient>
<linearGradient id="paint2_linear" x1="1425.33" y1="1081.71" x2="1425.33" y2="847.293" gradientUnits="userSpaceOnUse">
<stop stop-color="#5741A2"/>
<stop offset="0.6176" stop-color="#38267A"/>
<stop offset="1" stop-color="#281866"/>
</linearGradient>
<linearGradient id="paint3_linear" x1="2701.55" y1="1135.02" x2="2701.55" y2="698.944" gradientUnits="userSpaceOnUse">
<stop offset="0.2014" stop-color="#32226F"/>
<stop offset="0.4" stop-color="#352470"/>
<stop offset="0.7653" stop-color="#26185A"/>
<stop offset="1" stop-color="#201352"/>
</linearGradient>
<clipPath id="clip0">
<rect width="4579" height="666" fill="white" transform="translate(0 468.389)"/>
</clipPath>
</defs>
</svg>
