<svg width="16" height="16" viewBox="0 0 16 16" fill="none" xmlns="http://www.w3.org/2000/svg">
<path opacity="0.5" fill-rule="evenodd" clip-rule="evenodd" d="M12.1159 0.413818C11.0113 0.413818 10.1159 1.30925 10.1159 2.41382V13.5862C10.1159 14.6908 11.0113 15.5862 12.1159 15.5862H13.5862C14.6908 15.5862 15.5862 14.6908 15.5862 13.5862V2.41382C15.5862 1.30925 14.6908 0.413818 13.5862 0.413818H12.1159ZM2.41357 0.413831C1.309 0.413831 0.413574 1.30926 0.413574 2.41383V13.5862C0.413574 14.6908 1.309 15.5862 2.41357 15.5862H3.88388C4.98845 15.5862 5.88388 14.6908 5.88388 13.5862V2.41383C5.88388 1.30926 4.98845 0.413831 3.88388 0.413831H2.41357Z" fill="#5E5D71"/>
</svg>
