<svg width="25" height="24" viewBox="0 0 25 24" fill="none" xmlns="http://www.w3.org/2000/svg">
<g clip-path="url(#clip0)">
<path fill-rule="evenodd" clip-rule="evenodd" d="M22.0028 12.0004C22.0028 16.9499 17.9904 20.9622 13.0409 20.9622C8.09145 20.9622 4.0791 16.9499 4.0791 12.0004C4.0791 7.05092 8.09145 3.03857 13.0409 3.03857C17.9904 3.03857 22.0028 7.05092 22.0028 12.0004ZM24.0028 12.0004C24.0028 18.0545 19.095 22.9622 13.0409 22.9622C6.98688 22.9622 2.0791 18.0545 2.0791 12.0004C2.0791 5.94635 6.98688 1.03857 13.0409 1.03857C19.095 1.03857 24.0028 5.94635 24.0028 12.0004ZM12.3645 5.32943C11.9971 5.33386 11.6956 5.63533 11.6912 6.00276L11.6917 13.6646C11.698 14.0304 11.9987 14.3299 12.3649 14.3343L13.6956 14.3503C14.063 14.3547 14.3573 14.0605 14.3529 13.6931L14.3524 5.97072C14.3568 5.60328 14.0625 5.309 13.6951 5.31342L12.3645 5.32943ZM12.3647 15.5472C11.9973 15.5516 11.6958 15.8531 11.6914 16.2205L11.6919 17.2854C11.6979 17.6516 11.9987 17.9515 12.3652 17.9559L13.6958 17.9719C14.0632 17.9763 14.3576 17.6821 14.3532 17.3147L14.3526 16.1885C14.357 15.821 14.0628 15.5268 13.6953 15.5312L12.3647 15.5472Z" fill="#FCB428"/>
</g>
<defs>
<clipPath id="clip0">
<rect width="24" height="24" fill="white" transform="translate(0.810547)"/>
</clipPath>
</defs>
</svg>
