<svg width="20" height="20" viewBox="0 0 20 20" fill="none" xmlns="http://www.w3.org/2000/svg">
<path d="M15.8334 8.33341V5.83341C15.8334 4.91425 15.0859 4.16675 14.1667 4.16675H11.6667C11.6667 2.78841 10.5451 1.66675 9.16673 1.66675C7.78839 1.66675 6.66673 2.78841 6.66673 4.16675H4.16673C3.24756 4.16675 2.50006 4.91425 2.50006 5.83341V9.16675H3.33339C4.25339 9.16675 5.00006 9.91341 5.00006 10.8334C5.00006 11.7534 4.25339 12.5001 3.33339 12.5001H2.50006L2.50006 15.8334C2.50006 16.7526 3.24756 17.5001 4.16673 17.5001H7.50006V16.6667C7.50006 15.7467 8.24673 15.0001 9.16673 15.0001C10.0867 15.0001 10.8334 15.7467 10.8334 16.6667V17.5001H14.1667C15.0859 17.5001 15.8334 16.7526 15.8334 15.8334V13.3334C17.2117 13.3334 18.3334 12.2117 18.3334 10.8334C18.3334 9.45508 17.2117 8.33341 15.8334 8.33341Z" fill="#807F91"/>
</svg>
