<svg width="25" height="25" viewBox="0 0 25 25" fill="none" xmlns="http://www.w3.org/2000/svg">
<g clip-path="url(#clip0)">
<path fill-rule="evenodd" clip-rule="evenodd" d="M22.0028 12.5635C22.0028 17.513 17.9904 21.5253 13.0409 21.5253C8.09145 21.5253 4.0791 17.513 4.0791 12.5635C4.0791 7.61403 8.09145 3.60168 13.0409 3.60168C17.9904 3.60168 22.0028 7.61403 22.0028 12.5635ZM24.0028 12.5635C24.0028 18.6176 19.095 23.5253 13.0409 23.5253C6.98688 23.5253 2.0791 18.6176 2.0791 12.5635C2.0791 6.50946 6.98688 1.60168 13.0409 1.60168C19.095 1.60168 24.0028 6.50946 24.0028 12.5635ZM12.3645 5.89254C11.9971 5.89697 11.6956 6.19844 11.6912 6.56587L11.6917 14.2277C11.698 14.5935 11.9987 14.893 12.3649 14.8974L13.6956 14.9134C14.063 14.9179 14.3573 14.6236 14.3529 14.2562L14.3524 6.53383C14.3568 6.16639 14.0625 5.87211 13.6951 5.87653L12.3645 5.89254ZM12.3647 16.1103C11.9973 16.1147 11.6958 16.4162 11.6914 16.7836L11.6919 17.8485C11.6979 18.2147 11.9987 18.5146 12.3652 18.519L13.6958 18.535C14.0632 18.5394 14.3576 18.2452 14.3532 17.8778L14.3526 16.7516C14.357 16.3841 14.0628 16.0899 13.6953 16.0943L12.3647 16.1103Z" fill="#00A5D7"/>
</g>
<defs>
<clipPath id="clip0">
<rect width="24" height="24" fill="white" transform="translate(0.810547 0.563232)"/>
</clipPath>
</defs>
</svg>
