<svg width="54" height="53" viewBox="0 0 54 53" fill="none" xmlns="http://www.w3.org/2000/svg">
<path d="M23.8289 9.63836C25.3157 6.64378 26.0591 5.14648 27.2421 5.14648C28.4251 5.14648 29.1685 6.64378 30.6552 9.63836L34.4696 17.3212C34.9034 18.1949 35.1203 18.6318 35.5003 18.9063C35.8804 19.1808 36.3654 19.2508 37.3354 19.391L51.2818 20.1913C51.2818 20.1913 51.3663 21.228 51.2818 22.4371C51.2818 23.8032 50.3797 24.7456 47.974 27.0765L41.8023 33.0568C41.1004 33.7369 40.7494 34.077 40.6042 34.5211C40.4591 34.9652 40.5419 35.4454 40.7076 36.4057L42.6726 45.8176C42.6726 45.8176 43.0164 49.787 42.0593 50.4782C41.1023 51.1695 39.6155 50.3925 36.642 48.8385L29.0132 44.8517C28.1457 44.3983 27.7119 44.1716 27.2421 44.1716C26.7723 44.1716 26.3385 44.3983 25.4709 44.8517L17.8421 48.8385C14.8686 50.3925 13.3819 51.1695 12.4248 50.4782C11.5139 49.4477 11.8625 47.676 11.7883 46.4479C11.7141 45.2198 13.7765 36.4057 13.7765 36.4057C13.9422 35.4454 14.0251 34.9652 13.8799 34.5211C13.7347 34.077 13.3838 33.7369 12.6819 33.0568L6.51009 27.0765C4.10448 24.7456 3.32033 23.2055 3.26724 22.4617C3.20341 21.5671 3.20356 21.3161 3.20362 20.0665L17.1487 19.391C18.1187 19.2508 18.6037 19.1808 18.9838 18.9063C19.3639 18.6318 19.5808 18.1949 20.0146 17.3212L23.8289 9.63836Z" fill="url(#paint0_linear)"/>
<path fill-rule="evenodd" clip-rule="evenodd" d="M27.2618 44.1721C27.2553 44.1721 27.2488 44.172 27.2423 44.172C26.7726 44.172 26.3387 44.3987 25.4711 44.8521L17.8424 48.839C14.8689 50.3929 13.3821 51.1699 12.4251 50.4787C11.7403 49.704 11.7673 48.5105 11.7914 47.4439C11.7993 47.0917 11.807 46.7533 11.7885 46.4483C11.7501 45.8126 12.2843 43.1438 12.8086 40.7173H27.2618V44.1721Z" fill="url(#paint1_linear)"/>
<path fill-rule="evenodd" clip-rule="evenodd" d="M38.3658 19.4497L51.2819 20.1909C51.2819 20.1909 51.3664 21.2276 51.2819 22.4367C51.2819 23.8028 50.3798 24.7452 47.9742 27.0762L41.8024 33.0564C41.1005 33.7365 40.7496 34.0766 40.6044 34.5207C40.5617 34.6512 40.5388 34.7849 40.5318 34.9329H38.3658V19.4497Z" fill="url(#paint2_linear)"/>
<path fill-rule="evenodd" clip-rule="evenodd" d="M13.9525 34.9326C13.9455 34.7849 13.9225 34.6514 13.8799 34.5211C13.7347 34.077 13.3838 33.7369 12.6819 33.0568L12.6819 33.0568L6.5101 27.0766C4.10448 24.7456 3.32033 23.2056 3.26724 22.4617C3.20355 21.5692 3.20356 21.3173 3.20362 20.0752L3.20362 20.0665L16.2286 19.4355V34.9326H13.9525Z" fill="url(#paint3_linear)"/>
<path fill-rule="evenodd" clip-rule="evenodd" d="M41.6081 40.7163L42.6731 45.817C42.6731 45.817 43.0169 49.7865 42.0598 50.4777C41.1027 51.169 39.616 50.392 36.6425 48.838L31.5372 46.17V40.7163H41.6081Z" fill="url(#paint4_linear)"/>
<path d="M23.8287 6.75945C25.3155 3.76487 26.0588 2.26758 27.2418 2.26758C28.4249 2.26758 29.1682 3.76487 30.655 6.75945L34.4694 14.4423C34.9032 15.316 35.1201 15.7529 35.5001 16.0274C35.8802 16.3019 36.3652 16.3719 37.3352 16.512L45.8644 17.744C49.1889 18.2242 50.8511 18.4643 51.2167 19.5828C51.5822 20.7012 50.3794 21.8667 47.9738 24.1976L41.802 30.1779C41.1001 30.858 40.7492 31.1981 40.604 31.6422C40.4588 32.0863 40.5417 32.5665 40.7074 33.5268L42.1643 41.9711C42.7322 45.2624 43.0162 46.9081 42.0591 47.5993C41.102 48.2906 39.6153 47.5136 36.6418 45.9596L29.013 41.9728C28.1454 41.5194 27.7116 41.2927 27.2418 41.2927C26.7721 41.2927 26.3383 41.5194 25.4707 41.9728L17.8419 45.9596C14.8684 47.5136 13.3817 48.2906 12.4246 47.5993C11.4675 46.9081 11.7515 45.2624 12.3193 41.9711L13.7763 33.5268C13.942 32.5665 14.0248 32.0863 13.8797 31.6422C13.7345 31.1981 13.3836 30.858 12.6817 30.1779L6.50987 24.1976C4.10425 21.8667 2.90144 20.7012 3.26701 19.5828C3.63258 18.4643 5.29482 18.2242 8.61931 17.744L17.1485 16.512C18.1185 16.3719 18.6035 16.3019 18.9836 16.0274C19.3636 15.7529 19.5805 15.316 20.0143 14.4423L23.8287 6.75945Z" fill="white"/>
<path d="M23.8287 6.75945C25.3155 3.76487 26.0588 2.26758 27.2418 2.26758C28.4249 2.26758 29.1682 3.76487 30.655 6.75945L34.4694 14.4423C34.9032 15.316 35.1201 15.7529 35.5001 16.0274C35.8802 16.3019 36.3652 16.3719 37.3352 16.512L45.8644 17.744C49.1889 18.2242 50.8511 18.4643 51.2167 19.5828C51.5822 20.7012 50.3794 21.8667 47.9738 24.1976L41.802 30.1779C41.1001 30.858 40.7492 31.1981 40.604 31.6422C40.4588 32.0863 40.5417 32.5665 40.7074 33.5268L42.1643 41.9711C42.7322 45.2624 43.0162 46.9081 42.0591 47.5993C41.102 48.2906 39.6153 47.5136 36.6418 45.9596L29.013 41.9728C28.1454 41.5194 27.7116 41.2927 27.2418 41.2927C26.7721 41.2927 26.3383 41.5194 25.4707 41.9728L17.8419 45.9596C14.8684 47.5136 13.3817 48.2906 12.4246 47.5993C11.4675 46.9081 11.7515 45.2624 12.3193 41.9711L13.7763 33.5268C13.942 32.5665 14.0248 32.0863 13.8797 31.6422C13.7345 31.1981 13.3836 30.858 12.6817 30.1779L6.50987 24.1976C4.10425 21.8667 2.90144 20.7012 3.26701 19.5828C3.63258 18.4643 5.29482 18.2242 8.61931 17.744L17.1485 16.512C18.1185 16.3719 18.6035 16.3019 18.9836 16.0274C19.3636 15.7529 19.5805 15.316 20.0143 14.4423L23.8287 6.75945Z" fill="url(#paint5_linear)"/>
<g filter="url(#filter0_i)">
<path fill-rule="evenodd" clip-rule="evenodd" d="M28.0441 9.21681L31.5959 16.3709L31.6276 16.4347C31.8012 16.7847 32.0018 17.1892 32.2131 17.5315C32.466 17.9414 32.8229 18.4164 33.3787 18.8178C33.9337 19.2187 34.4963 19.4083 34.9634 19.5199C35.3546 19.6135 35.8021 19.678 36.191 19.734L36.2615 19.7442L44.2036 20.8914C44.9039 20.9925 45.4744 21.0762 45.9438 21.1524C45.6113 21.4859 45.2027 21.8835 44.701 22.3697L38.954 27.9384L38.9027 27.988C38.6215 28.2603 38.2969 28.5746 38.035 28.8797C37.7219 29.2444 37.3764 29.7296 37.1629 30.3829C36.9492 31.0367 36.9415 31.6326 36.9793 32.1126C37.0109 32.5135 37.0878 32.9585 37.1543 33.3429L37.1665 33.4132L38.5231 41.2762C38.6433 41.9726 38.7397 42.5389 38.8118 43.0063C38.3819 42.7916 37.863 42.5219 37.2239 42.1879L30.1202 38.4755L30.0572 38.4425C29.7094 38.2606 29.309 38.0512 28.9369 37.8981C28.4922 37.7152 27.9258 37.5404 27.2421 37.5404C26.5585 37.5404 25.992 37.7152 25.5473 37.8981C25.1752 38.0512 24.7748 38.2606 24.4271 38.4425L24.364 38.4755L17.2603 42.1879C16.6212 42.5219 16.1023 42.7916 15.6724 43.0063C15.7445 42.5389 15.8409 41.9726 15.9611 41.2762L17.3177 33.4132L17.3299 33.3429C17.3964 32.9585 17.4733 32.5136 17.5049 32.1126C17.5427 31.6326 17.535 31.0367 17.3213 30.3829C17.1078 29.7296 16.7623 29.2444 16.4492 28.8797C16.1873 28.5746 15.8627 28.2603 15.5814 27.988L15.5302 27.9384L9.78321 22.3697C9.28148 21.8835 8.87289 21.4859 8.54041 21.1524C9.00985 21.0762 9.5803 20.9925 10.2806 20.8914L18.2227 19.7442L18.2932 19.734C18.6821 19.678 19.1296 19.6135 19.5208 19.5199C19.9879 19.4083 20.5505 19.2187 21.1055 18.8178C21.6613 18.4164 22.0182 17.9414 22.2711 17.5315C22.4824 17.1892 22.683 16.7847 22.8566 16.4347L22.8883 16.3709L26.4401 9.21681C26.7606 8.57136 27.0213 8.04932 27.2421 7.62451C27.4629 8.04932 27.7236 8.57136 28.0441 9.21681Z" fill="black"/>
<path fill-rule="evenodd" clip-rule="evenodd" d="M28.0441 9.21681L31.5959 16.3709L31.6276 16.4347C31.8012 16.7847 32.0018 17.1892 32.2131 17.5315C32.466 17.9414 32.8229 18.4164 33.3787 18.8178C33.9337 19.2187 34.4963 19.4083 34.9634 19.5199C35.3546 19.6135 35.8021 19.678 36.191 19.734L36.2615 19.7442L44.2036 20.8914C44.9039 20.9925 45.4744 21.0762 45.9438 21.1524C45.6113 21.4859 45.2027 21.8835 44.701 22.3697L38.954 27.9384L38.9027 27.988C38.6215 28.2603 38.2969 28.5746 38.035 28.8797C37.7219 29.2444 37.3764 29.7296 37.1629 30.3829C36.9492 31.0367 36.9415 31.6326 36.9793 32.1126C37.0109 32.5135 37.0878 32.9585 37.1543 33.3429L37.1665 33.4132L38.5231 41.2762C38.6433 41.9726 38.7397 42.5389 38.8118 43.0063C38.3819 42.7916 37.863 42.5219 37.2239 42.1879L30.1202 38.4755L30.0572 38.4425C29.7094 38.2606 29.309 38.0512 28.9369 37.8981C28.4922 37.7152 27.9258 37.5404 27.2421 37.5404C26.5585 37.5404 25.992 37.7152 25.5473 37.8981C25.1752 38.0512 24.7748 38.2606 24.4271 38.4425L24.364 38.4755L17.2603 42.1879C16.6212 42.5219 16.1023 42.7916 15.6724 43.0063C15.7445 42.5389 15.8409 41.9726 15.9611 41.2762L17.3177 33.4132L17.3299 33.3429C17.3964 32.9585 17.4733 32.5136 17.5049 32.1126C17.5427 31.6326 17.535 31.0367 17.3213 30.3829C17.1078 29.7296 16.7623 29.2444 16.4492 28.8797C16.1873 28.5746 15.8627 28.2603 15.5814 27.988L15.5302 27.9384L9.78321 22.3697C9.28148 21.8835 8.87289 21.4859 8.54041 21.1524C9.00985 21.0762 9.5803 20.9925 10.2806 20.8914L18.2227 19.7442L18.2932 19.734C18.6821 19.678 19.1296 19.6135 19.5208 19.5199C19.9879 19.4083 20.5505 19.2187 21.1055 18.8178C21.6613 18.4164 22.0182 17.9414 22.2711 17.5315C22.4824 17.1892 22.683 16.7847 22.8566 16.4347L22.8883 16.3709L26.4401 9.21681C26.7606 8.57136 27.0213 8.04932 27.2421 7.62451C27.4629 8.04932 27.7236 8.57136 28.0441 9.21681Z" fill="url(#paint6_linear)"/>
</g>
<defs>
<filter id="filter0_i" x="8.54041" y="7.62451" width="37.4034" height="35.3818" filterUnits="userSpaceOnUse" color-interpolation-filters="sRGB">
<feFlood flood-opacity="0" result="BackgroundImageFix"/>
<feBlend mode="normal" in="SourceGraphic" in2="BackgroundImageFix" result="shape"/>
<feColorMatrix in="SourceAlpha" type="matrix" values="0 0 0 0 0 0 0 0 0 0 0 0 0 0 0 0 0 0 127 0" result="hardAlpha"/>
<feOffset dy="2"/>
<feComposite in2="hardAlpha" operator="arithmetic" k2="-1" k3="1"/>
<feColorMatrix type="matrix" values="0 0 0 0 0.964706 0 0 0 0 0.607843 0 0 0 0 0.0862745 0 0 0 0.48 0"/>
<feBlend mode="normal" in2="shape" result="effect1_innerShadow"/>
</filter>
<linearGradient id="paint0_linear" x1="17.5975" y1="-25.0886" x2="43.5267" y2="52.4114" gradientUnits="userSpaceOnUse">
<stop offset="0.320209" stop-color="#FED02D"/>
<stop offset="1" stop-color="#F99F18"/>
</linearGradient>
<linearGradient id="paint1_linear" x1="11.7822" y1="45.6973" x2="27.262" y2="45.6973" gradientUnits="userSpaceOnUse">
<stop stop-color="#EC7304" stop-opacity="0.32"/>
<stop offset="0.0708122" stop-color="white" stop-opacity="0.21"/>
<stop offset="0.280715" stop-color="#EC7304" stop-opacity="0.35"/>
<stop offset="1" stop-color="#EC7304" stop-opacity="0.2"/>
</linearGradient>
<linearGradient id="paint2_linear" x1="38.3658" y1="27.1485" x2="51.3196" y2="27.1485" gradientUnits="userSpaceOnUse">
<stop stop-color="#EC7304" stop-opacity="0.51"/>
<stop offset="0.280715" stop-color="#EC7304" stop-opacity="0.35"/>
<stop offset="0.732413" stop-color="#EC7304" stop-opacity="0.2"/>
<stop offset="1" stop-color="white" stop-opacity="0.21"/>
</linearGradient>
<linearGradient id="paint3_linear" x1="3.20361" y1="27.1412" x2="16.2287" y2="27.1412" gradientUnits="userSpaceOnUse">
<stop offset="0.0639681" stop-color="white" stop-opacity="0.21"/>
<stop offset="0.318262" stop-color="#EC7304" stop-opacity="0.2"/>
<stop offset="0.736541" stop-color="#EC7304" stop-opacity="0.35"/>
<stop offset="1" stop-color="#EC7304" stop-opacity="0.51"/>
</linearGradient>
<linearGradient id="paint4_linear" x1="31.5372" y1="45.6963" x2="42.7333" y2="45.6963" gradientUnits="userSpaceOnUse">
<stop stop-color="#EC7304" stop-opacity="0"/>
<stop offset="0.278612" stop-color="#EC7304" stop-opacity="0.07"/>
<stop offset="0.906649" stop-color="white" stop-opacity="0.21"/>
<stop offset="1" stop-color="#EC7304" stop-opacity="0.2"/>
</linearGradient>
<linearGradient id="paint5_linear" x1="22.677" y1="4.51809" x2="85.4703" y2="114.143" gradientUnits="userSpaceOnUse">
<stop stop-color="#FEE92D"/>
<stop offset="0.255078" stop-color="#FED02D"/>
<stop offset="0.58806" stop-color="#FEAB2D"/>
</linearGradient>
<linearGradient id="paint6_linear" x1="29.2319" y1="61.5572" x2="14.7181" y2="-58.6024" gradientUnits="userSpaceOnUse">
<stop stop-color="#FEE92D"/>
<stop offset="0.255078" stop-color="#FED02D"/>
<stop offset="0.58806" stop-color="#FEAB2D"/>
</linearGradient>
</defs>
</svg>
