<svg width="53" height="53" viewBox="0 0 53 53" fill="none" xmlns="http://www.w3.org/2000/svg">
<g filter="url(#filter0_d)">
<path d="M25.759 2.2085C12.9688 2.2085 2.56323 11.5749 2.56323 23.0847C2.56323 35.2833 14.2539 45.1392 28.0786 43.8518V48.6C28.1249 48.5837 28.0786 50.9196 30.3981 49.6461L31.6507 48.8435C34.2765 47.1595 47.44 38.1085 48.8225 25.2999C48.9083 24.5715 48.9547 23.8316 48.9547 23.0847C48.9547 11.5749 38.5491 2.2085 25.759 2.2085Z" fill="#5E5D71"/>
<path d="M25.759 2.2085C12.9688 2.2085 2.56323 11.5749 2.56323 23.0847C2.56323 35.2833 14.2539 45.1392 28.0786 43.8518V48.6C28.1249 48.5837 28.0786 50.9196 30.3981 49.6461L31.6507 48.8435C34.2765 47.1595 47.44 38.1085 48.8225 25.2999C48.9083 24.5715 48.9547 23.8316 48.9547 23.0847C48.9547 11.5749 38.5491 2.2085 25.759 2.2085Z" fill="url(#paint0_linear)"/>
<path d="M25.759 2.2085C12.9688 2.2085 2.56323 11.5749 2.56323 23.0847C2.56323 35.2833 14.2539 45.1392 28.0786 43.8518V48.6C28.1249 48.5837 28.0786 50.9196 30.3981 49.6461L31.6507 48.8435C34.2765 47.1595 47.44 38.1085 48.8225 25.2999C48.9083 24.5715 48.9547 23.8316 48.9547 23.0847C48.9547 11.5749 38.5491 2.2085 25.759 2.2085Z" fill="url(#paint1_linear)"/>
</g>
<g filter="url(#filter1_i)">
<path d="M26.5104 30.0102C26.5939 30.2247 26.6356 30.4226 26.6356 30.6041C26.6356 31.033 26.4937 31.3877 26.2098 31.6681C25.9258 31.9321 25.6002 32.064 25.2327 32.064C24.9321 32.064 24.6566 31.9733 24.406 31.7918C24.1722 31.6104 23.9885 31.3629 23.8549 31.0495L22.5522 28.0554H15.0867L13.784 31.0742C13.6671 31.3877 13.4834 31.6351 13.2329 31.8166C12.9991 31.9815 12.7402 32.064 12.4563 32.064C12.0221 32.064 11.688 31.9485 11.4542 31.7176C11.2371 31.4866 11.1285 31.1732 11.1285 30.7773C11.1285 30.6288 11.1536 30.4721 11.2037 30.3072L17.4416 15.51C17.5752 15.18 17.7756 14.9244 18.0429 14.7429C18.3101 14.5614 18.6107 14.4872 18.9447 14.5202C19.2453 14.5202 19.5209 14.6109 19.7714 14.7924C20.0387 14.9573 20.2307 15.1965 20.3476 15.51L26.5104 30.0102ZM21.3247 25.2098L18.7944 19.4196L16.3143 25.2098H21.3247Z" fill="white"/>
<path d="M34.9447 18.4546C36.097 18.4546 37.1409 18.7515 38.0761 19.3454C39.0114 19.9227 39.7463 20.7311 40.2807 21.7703C40.8318 22.8096 41.1074 23.9891 41.1074 25.3088C41.1074 26.6285 40.8402 27.8162 40.3058 28.872C39.7713 29.9113 39.0365 30.7278 38.1012 31.3217C37.1826 31.8991 36.1638 32.1877 35.0449 32.1877C34.2432 32.1877 33.4833 32.031 32.7651 31.7176C32.0637 31.3877 31.4791 30.9918 31.0115 30.5299V30.6783C31.0115 31.1072 30.8695 31.4702 30.5856 31.7671C30.3017 32.0475 29.9426 32.1877 29.5084 32.1877C29.0742 32.1877 28.7151 32.0475 28.4312 31.7671C28.1472 31.4867 28.0053 31.1237 28.0053 30.6783V15.1388C28.0053 14.7099 28.1472 14.3552 28.4312 14.0748C28.7151 13.7779 29.0742 13.6294 29.5084 13.6294C29.9426 13.6294 30.3017 13.7779 30.5856 14.0748C30.8695 14.3552 31.0115 14.7099 31.0115 15.1388V20.3104C31.4123 19.8155 31.9718 19.3866 32.69 19.0237C33.4081 18.6443 34.1597 18.4546 34.9447 18.4546ZM34.5689 29.4659C35.6378 29.4659 36.5146 29.0699 37.1993 28.2781C37.8841 27.4863 38.2264 26.4965 38.2264 25.3088C38.2264 24.121 37.8841 23.1395 37.1993 22.3642C36.5313 21.5724 35.6545 21.1765 34.5689 21.1765C33.4833 21.1765 32.5981 21.5724 31.9134 22.3642C31.2286 23.1395 30.8862 24.121 30.8862 25.3088C30.8862 26.4965 31.2286 27.4863 31.9134 28.2781C32.5981 29.0699 33.4833 29.4659 34.5689 29.4659Z" fill="white"/>
</g>
<defs>
<filter id="filter0_d" x="2.56323" y="2.2085" width="46.3915" height="49.8177" filterUnits="userSpaceOnUse" color-interpolation-filters="sRGB">
<feFlood flood-opacity="0" result="BackgroundImageFix"/>
<feColorMatrix in="SourceAlpha" type="matrix" values="0 0 0 0 0 0 0 0 0 0 0 0 0 0 0 0 0 0 127 0"/>
<feOffset dy="2"/>
<feColorMatrix type="matrix" values="0 0 0 0 0.384314 0 0 0 0 0.768627 0 0 0 0 0.286275 0 0 0 1 0"/>
<feBlend mode="normal" in2="BackgroundImageFix" result="effect1_dropShadow"/>
<feBlend mode="normal" in="SourceGraphic" in2="effect1_dropShadow" result="shape"/>
</filter>
<filter id="filter1_i" x="11.1285" y="13.6294" width="29.9789" height="18.5583" filterUnits="userSpaceOnUse" color-interpolation-filters="sRGB">
<feFlood flood-opacity="0" result="BackgroundImageFix"/>
<feBlend mode="normal" in="SourceGraphic" in2="BackgroundImageFix" result="shape"/>
<feColorMatrix in="SourceAlpha" type="matrix" values="0 0 0 0 0 0 0 0 0 0 0 0 0 0 0 0 0 0 127 0" result="hardAlpha"/>
<feOffset dy="0.5"/>
<feComposite in2="hardAlpha" operator="arithmetic" k2="-1" k3="1"/>
<feColorMatrix type="matrix" values="0 0 0 0 0 0 0 0 0 0 0 0 0 0 0 0 0 0 0.12 0"/>
<feBlend mode="normal" in2="shape" result="effect1_innerShadow"/>
</filter>
<linearGradient id="paint0_linear" x1="34.2605" y1="-2.58191" x2="34.2605" y2="50.0262" gradientUnits="userSpaceOnUse">
<stop stop-color="#E3348B"/>
<stop offset="1" stop-color="#CD1F75"/>
</linearGradient>
<linearGradient id="paint1_linear" x1="25.4043" y1="63.5938" x2="35.4025" y2="-11.4488" gradientUnits="userSpaceOnUse">
<stop stop-color="#F3FB45"/>
<stop offset="1" stop-color="#39B54A"/>
</linearGradient>
</defs>
</svg>
