<svg width="20" height="20" viewBox="0 0 20 20" fill="none" xmlns="http://www.w3.org/2000/svg">
<path d="M2.74917 14.6633C3.10917 15.7733 4.20333 16.4817 5.37083 16.4817H5.41667C5.63 17.5367 6.565 18.3333 7.68583 18.3333C8.06667 18.3333 8.4225 18.2375 8.7375 18.0725C9.00667 17.9308 9.16667 17.6417 9.16667 17.3375V2.5225C9.16667 2.13 8.89667 1.78084 8.5125 1.70334C8.13167 1.62584 7.7075 1.66667 7.28 1.87084C6.66 2.1675 6.29667 2.83 6.29667 3.51917V3.565C6.14833 3.53667 5.99 3.51917 5.83333 3.51917C4.55583 3.51917 3.51917 4.55584 3.51917 5.83334C3.51917 6.37084 3.70417 6.87 4.01 7.25917C2.68583 7.46334 1.66667 8.61084 1.66667 10C1.66667 10.9817 2.17583 11.8425 2.94417 12.3433C2.58583 12.9858 2.46833 13.7983 2.74917 14.6633ZM15.99 7.25917C16.2967 6.87 16.4808 6.37084 16.4808 5.83334C16.4808 4.55584 15.4442 3.51917 14.1667 3.51917C14.01 3.51917 13.8517 3.53667 13.7033 3.565V3.51917C13.7033 2.83084 13.3392 2.1675 12.7192 1.87084C12.2925 1.66667 11.8683 1.62584 11.4875 1.70334C11.1033 1.78167 10.8333 2.13084 10.8333 2.5225V17.3367C10.8333 17.6408 10.9933 17.93 11.2633 18.0717C11.5783 18.2375 11.9333 18.3333 12.3142 18.3333C13.435 18.3333 14.37 17.5367 14.5833 16.4808H14.63C15.7967 16.4808 16.8917 15.7725 17.2517 14.6625C17.5325 13.7975 17.415 12.985 17.0567 12.3425C17.8242 11.8425 18.3333 10.9817 18.3333 10C18.3333 8.61084 17.3142 7.46334 15.99 7.25917Z" fill="#807F91"/>
</svg>
