<svg width="20" height="20" viewBox="0 0 20 20" fill="none" xmlns="http://www.w3.org/2000/svg">
<path d="M3.33333 10.8333H8.33333C8.79333 10.8333 9.16667 10.4608 9.16667 10V3.33333C9.16667 2.8725 8.79333 2.5 8.33333 2.5H3.33333C2.87333 2.5 2.5 2.8725 2.5 3.33333V10C2.5 10.4608 2.87333 10.8333 3.33333 10.8333ZM2.5 16.6667C2.5 17.1275 2.87333 17.5 3.33333 17.5H8.33333C8.79333 17.5 9.16667 17.1275 9.16667 16.6667V13.3333C9.16667 12.8725 8.79333 12.5 8.33333 12.5H3.33333C2.87333 12.5 2.5 12.8725 2.5 13.3333V16.6667ZM10.8333 16.6667C10.8333 17.1275 11.2058 17.5 11.6667 17.5H16.6667C17.1275 17.5 17.5 17.1275 17.5 16.6667V10.8333C17.5 10.3725 17.1275 10 16.6667 10H11.6667C11.2058 10 10.8333 10.3725 10.8333 10.8333V16.6667ZM11.6667 8.33333H16.6667C17.1275 8.33333 17.5 7.96083 17.5 7.5V3.33333C17.5 2.8725 17.1275 2.5 16.6667 2.5H11.6667C11.2058 2.5 10.8333 2.8725 10.8333 3.33333V7.5C10.8333 7.96083 11.2058 8.33333 11.6667 8.33333Z" fill="#807F91"/>
</svg>
