<svg width="48" height="48" viewBox="0 0 48 48" fill="none" xmlns="http://www.w3.org/2000/svg">
<path d="M12 4C9.792 4 8 5.792 8 8V40C8 42.208 9.792 44 12 44H36C38.208 44 40 42.208 40 40V16L28 4H12ZM28 18C26.894 18 26 18 26 18V8L36 18H28Z" fill="#00A5D7"/>
<path d="M12.9326 31.808C13.4355 31.808 13.8659 31.3904 13.8701 30.8705C13.8659 30.3592 13.4355 29.9416 12.9326 29.9416C12.4128 29.9416 11.9909 30.3592 11.9951 30.8705C11.9909 31.3904 12.4128 31.808 12.9326 31.808Z" fill="#F8F8FA"/>
<path d="M18.3179 31.8421C19.9628 31.8421 21.0111 30.8663 21.1219 29.4771H19.6475C19.5154 30.1802 19.0083 30.585 18.3307 30.585C17.3677 30.585 16.7455 29.7796 16.7455 28.4416C16.7455 27.1205 17.3804 26.3279 18.3307 26.3279C19.0722 26.3279 19.5282 26.8052 19.6475 27.4359H21.1219C21.0154 26.0169 19.9074 25.0836 18.3094 25.0836C16.3918 25.0836 15.1816 26.4686 15.1816 28.4671C15.1816 30.4487 16.362 31.8421 18.3179 31.8421Z" fill="#F8F8FA"/>
<path d="M27.5619 26.899C27.3488 25.791 26.4625 25.0836 24.9284 25.0836C23.3517 25.0836 22.2778 25.8592 22.2821 27.0694C22.2778 28.024 22.8659 28.6546 24.123 28.9146L25.2395 29.149C25.8403 29.2811 26.1216 29.524 26.1216 29.8947C26.1216 30.3421 25.6358 30.6788 24.9028 30.6788C24.1954 30.6788 23.7352 30.372 23.6031 29.7839L22.0988 29.9288C22.2906 31.1305 23.3005 31.8421 24.9071 31.8421C26.5434 31.8421 27.6983 30.9941 27.7025 29.7541C27.6983 28.8208 27.0974 28.2498 25.8616 27.9813L24.7452 27.7427C24.0804 27.5936 23.8162 27.3634 23.8204 26.9842C23.8162 26.541 24.3062 26.2342 24.9497 26.2342C25.6613 26.2342 26.0363 26.622 26.1557 27.0524L27.5619 26.899Z" fill="#F8F8FA"/>
<path d="M34.8211 25.1688H33.1805L31.672 30.0311H31.6038L30.0996 25.1688H28.4547L30.7856 31.7143H32.4902L34.8211 25.1688Z" fill="#F8F8FA"/>
</svg>
