<svg width="56" height="56" viewBox="0 0 56 56" fill="none" xmlns="http://www.w3.org/2000/svg">
<g opacity="0.5">
<path d="M14.0002 4.66663C11.4242 4.66663 9.3335 6.75729 9.3335 9.33329V46.6666C9.3335 49.2426 11.4242 51.3333 14.0002 51.3333H42.0002C44.5762 51.3333 46.6668 49.2426 46.6668 46.6666V18.6666L32.6668 4.66663H14.0002ZM32.6668 21C31.3765 21 30.3335 21 30.3335 21V9.33329L42.0002 21H32.6668Z" fill="#807F91"/>
<path d="M15.0881 37.1094C14.7865 37.1094 14.5279 37.0033 14.3125 36.7912C14.0971 36.5791 13.991 36.3205 13.9943 36.0156C13.991 35.7173 14.0971 35.4621 14.3125 35.25C14.5279 35.0379 14.7865 34.9318 15.0881 34.9318C15.3797 34.9318 15.6333 35.0379 15.8487 35.25C16.0675 35.4621 16.1785 35.7173 16.1818 36.0156C16.1785 36.2178 16.1255 36.4018 16.0227 36.5675C15.9233 36.7332 15.7907 36.8658 15.625 36.9652C15.4626 37.0613 15.2836 37.1094 15.0881 37.1094ZM21.3709 37.1491C20.6086 37.1491 19.954 36.9818 19.4071 36.647C18.8636 36.3123 18.4443 35.8499 18.1493 35.2599C17.8577 34.6667 17.7118 33.9839 17.7118 33.2116C17.7118 32.4361 17.861 31.7517 18.1593 31.1584C18.4576 30.5618 18.8785 30.0978 19.4221 29.7663C19.9689 29.4316 20.6152 29.2642 21.361 29.2642C21.9808 29.2642 22.5293 29.3786 23.0066 29.6072C23.4872 29.8326 23.87 30.1525 24.155 30.5668C24.44 30.9777 24.6025 31.4583 24.6422 32.0085H22.9221C22.8525 31.6406 22.6867 31.334 22.4249 31.0888C22.1664 30.8402 21.82 30.7159 21.3858 30.7159C21.0179 30.7159 20.6948 30.8153 20.4164 31.0142C20.138 31.2098 19.9209 31.4915 19.7651 31.8594C19.6126 32.2273 19.5364 32.6681 19.5364 33.1818C19.5364 33.7022 19.6126 34.1496 19.7651 34.5241C19.9176 34.8954 20.1313 35.1821 20.4064 35.3842C20.6848 35.5831 21.0113 35.6825 21.3858 35.6825C21.651 35.6825 21.888 35.6328 22.0968 35.5334C22.3089 35.4306 22.4862 35.2831 22.6287 35.0909C22.7712 34.8987 22.869 34.665 22.9221 34.3899H24.6422C24.5991 34.9302 24.44 35.4091 24.165 35.8267C23.8899 36.241 23.5153 36.5658 23.0414 36.8011C22.5674 37.0331 22.0106 37.1491 21.3709 37.1491ZM32.1555 31.3821L30.5149 31.5611C30.4685 31.3954 30.3873 31.2396 30.2713 31.0938C30.1586 30.9479 30.0062 30.8303 29.8139 30.7408C29.6217 30.6513 29.3864 30.6065 29.108 30.6065C28.7334 30.6065 28.4186 30.6877 28.1634 30.8501C27.9115 31.0125 27.7872 31.223 27.7905 31.4815C27.7872 31.7036 27.8684 31.8842 28.0341 32.0234C28.2031 32.1626 28.4815 32.277 28.8693 32.3665L30.1719 32.6449C30.8944 32.8007 31.4313 33.0476 31.7827 33.3857C32.1373 33.7237 32.3163 34.1662 32.3196 34.7131C32.3163 35.1937 32.1754 35.6179 31.897 35.9858C31.6219 36.3504 31.2391 36.6354 30.7486 36.8409C30.258 37.0464 29.6946 37.1491 29.0582 37.1491C28.1236 37.1491 27.3712 36.9536 26.8011 36.5625C26.2311 36.1681 25.8913 35.6196 25.782 34.9169L27.5369 34.7479C27.6165 35.0926 27.7855 35.3527 28.044 35.5284C28.3026 35.7041 28.639 35.7919 29.0533 35.7919C29.4808 35.7919 29.8239 35.7041 30.0824 35.5284C30.3442 35.3527 30.4751 35.1357 30.4751 34.8771C30.4751 34.6584 30.3906 34.4777 30.2216 34.3352C30.0559 34.1927 29.7973 34.0833 29.446 34.0071L28.1435 33.7337C27.411 33.5812 26.8691 33.3243 26.5178 32.9631C26.1664 32.5985 25.9924 32.1378 25.9957 31.581C25.9924 31.1103 26.12 30.7027 26.3786 30.358C26.6404 30.0099 27.0033 29.7415 27.4673 29.5526C27.9347 29.3603 28.4732 29.2642 29.0831 29.2642C29.978 29.2642 30.6823 29.4548 31.196 29.8359C31.7131 30.2171 32.0329 30.7325 32.1555 31.3821ZM40.6246 29.3636L37.9052 37H35.9165L33.1971 29.3636H35.1161L36.8711 35.0362H36.9506L38.7106 29.3636H40.6246Z" fill="#F8F8FA"/>
</g>
</svg>
