<svg width="20" height="20" viewBox="0 0 20 20" fill="none" xmlns="http://www.w3.org/2000/svg">
<circle cx="9.99984" cy="9.99996" r="8.33333" stroke="#807F91" stroke-width="1.6" stroke-linecap="round" stroke-linejoin="round"/>
<path d="M8.92977 10.6096C8.92977 10.4199 8.98847 10.2619 9.10589 10.1354C9.23233 10.009 9.38587 9.94577 9.56651 9.94577C10.1716 9.9277 10.6639 9.76061 11.0432 9.4445C11.4316 9.11935 11.6258 8.65873 11.6258 8.06263C11.6258 7.54782 11.4496 7.12333 11.0974 6.78915C10.7452 6.44594 10.3116 6.27434 9.79682 6.27434C9.5078 6.27434 9.22781 6.33756 8.95686 6.46401C8.69494 6.58142 8.46463 6.74399 8.26593 6.95172C8.08529 7.1143 7.90466 7.19558 7.72402 7.19558C7.59757 7.19558 7.48016 7.15494 7.37178 7.07365C7.17308 6.92914 7.07373 6.76206 7.07373 6.57239C7.07373 6.40981 7.14147 6.26079 7.27695 6.12531C7.58403 5.77307 7.95433 5.4976 8.38786 5.2989C8.83042 5.1002 9.30007 5.00085 9.79682 5.00085C10.3749 5.00085 10.8987 5.13182 11.3684 5.39374C11.847 5.65566 12.2264 6.02145 12.5064 6.4911C12.7863 6.95172 12.9263 7.47557 12.9263 8.06263C12.9263 8.60454 12.8044 9.08774 12.5605 9.51224C12.3257 9.9277 12.0006 10.2664 11.5851 10.5283C11.1697 10.7812 10.7 10.9347 10.1762 10.9889C10.1671 10.9889 10.1626 10.9935 10.1626 11.0025C10.1716 11.0025 10.1852 10.998 10.2032 10.9889V11.8831C10.2032 12.0637 10.14 12.2173 10.0136 12.3437C9.89617 12.4702 9.74714 12.5334 9.56651 12.5334C9.37684 12.5334 9.21878 12.4702 9.09234 12.3437C8.97492 12.2173 8.92073 12.0637 8.92977 11.8831V10.6096ZM9.52586 14.9991C9.3091 14.9991 9.14201 14.9403 9.0246 14.8229C8.90719 14.6965 8.84848 14.5249 8.84848 14.3081V14.0507C8.84848 13.834 8.90719 13.6669 9.0246 13.5495C9.14201 13.423 9.3091 13.3598 9.52586 13.3598H9.66134C9.8781 13.3598 10.0452 13.423 10.1626 13.5495C10.28 13.6669 10.3387 13.834 10.3387 14.0507V14.3081C10.3387 14.5249 10.28 14.6965 10.1626 14.8229C10.0452 14.9403 9.8781 14.9991 9.66134 14.9991H9.52586Z" fill="#807F91"/>
</svg>
