<svg width="20" height="20" viewBox="0 0 20 20" fill="none" xmlns="http://www.w3.org/2000/svg">
<path d="M2.74917 14.6634C3.10917 15.7734 4.20334 16.4817 5.37084 16.4817H5.41667C5.63001 17.5367 6.565 18.3334 7.68584 18.3334C8.06667 18.3334 8.4225 18.2375 8.7375 18.0725C9.00667 17.9309 9.16667 17.6417 9.16667 17.3375V2.52253C9.16667 2.13003 8.89667 1.78087 8.51251 1.70337C8.13167 1.62587 7.70751 1.6667 7.28001 1.87087C6.66001 2.16753 6.29667 2.83003 6.29667 3.5192V3.56503C6.14834 3.5367 5.99001 3.5192 5.83334 3.5192C4.55584 3.5192 3.51917 4.55587 3.51917 5.83337C3.51917 6.37087 3.70417 6.87003 4.01 7.2592C2.68584 7.46337 1.66667 8.61087 1.66667 10C1.66667 10.9817 2.17584 11.8425 2.94417 12.3434C2.58584 12.9859 2.46834 13.7984 2.74917 14.6634ZM15.99 7.2592C16.2967 6.87003 16.4808 6.37087 16.4808 5.83337C16.4808 4.55587 15.4442 3.5192 14.1667 3.5192C14.01 3.5192 13.8517 3.5367 13.7033 3.56503V3.5192C13.7033 2.83087 13.3392 2.16753 12.7192 1.87087C12.2925 1.6667 11.8683 1.62587 11.4875 1.70337C11.1033 1.7817 10.8333 2.13087 10.8333 2.52253V17.3367C10.8333 17.6409 10.9933 17.93 11.2633 18.0717C11.5783 18.2375 11.9333 18.3334 12.3142 18.3334C13.435 18.3334 14.37 17.5367 14.5833 16.4809H14.63C15.7967 16.4809 16.8917 15.7725 17.2517 14.6625C17.5325 13.7975 17.415 12.985 17.0567 12.3425C17.8242 11.8425 18.3333 10.9817 18.3333 10C18.3333 8.61087 17.3142 7.46337 15.99 7.2592Z" fill="#807F91"/>
</svg>
