<svg width="24" height="24" viewBox="0 0 24 24" fill="none" xmlns="http://www.w3.org/2000/svg">
<path d="M9.85142 17.4696C9.85142 17.4696 9.85142 17.0053 9.85142 16.6712V6.14354C9.85142 5.99077 9.92508 5.84467 10.055 5.7625C11.9383 4.57164 14.9889 4.24412 16.5237 4.15414C17.0396 4.12405 17.4698 4.52998 17.4695 5.04237V7.75374M9.85142 17.4696C7.91384 16.4616 4.47689 15.7795 3.09079 15.7043C2.61774 15.6788 2.25 15.287 2.25 14.8172V5.04237C2.25 4.52998 2.6802 4.12405 3.1961 4.15414C4.73092 4.24441 7.78152 4.57164 9.66448 5.7625C9.79472 5.84495 9.8681 5.98528 9.8681 6.13833V16.6732C9.8681 17.0065 9.85142 17.4696 9.85142 17.4696Z" stroke="#2D2D3A" stroke-width="1.4" stroke-linecap="round" stroke-linejoin="round"/>
<path d="M17.2318 10.8111V19.8477" stroke="#2D2D3A" stroke-width="1.4" stroke-linecap="round" stroke-linejoin="round"/>
<path d="M12.7135 15.3294L21.7501 15.3294" stroke="#2D2D3A" stroke-width="1.4" stroke-linecap="round" stroke-linejoin="round"/>
</svg>
