<svg width="16" height="16" viewBox="0 0 16 16" fill="none" xmlns="http://www.w3.org/2000/svg">
<path d="M14.0002 7.66669C14.0025 8.5466 13.797 9.41461 13.4002 10.2C12.9299 11.1412 12.2067 11.9328 11.3119 12.4862C10.417 13.0396 9.38574 13.3329 8.33358 13.3334C7.45367 13.3356 6.58565 13.1301 5.80024 12.7334L2.00024 14L3.26691 10.2C2.8702 9.41461 2.66462 8.5466 2.66691 7.66669C2.66732 6.61452 2.96065 5.58325 3.51406 4.68839C4.06746 3.79352 4.85908 3.0704 5.80024 2.60002C6.58565 2.20331 7.45367 1.99772 8.33358 2.00002H8.66691C10.0565 2.07668 11.3689 2.66319 12.353 3.64726C13.3371 4.63132 13.9236 5.94379 14.0002 7.33335V7.66669Z" stroke="#5E5D71" stroke-width="1.4" stroke-linecap="round" stroke-linejoin="round"/>
</svg>
