<svg width="19" height="19" viewBox="0 0 19 19" fill="none" xmlns="http://www.w3.org/2000/svg">
<path d="M16.7189 7.12658C16.7072 7.05162 16.7017 7.01105 16.7017 7.01105L16.6839 7.01518C16.3854 5.6171 15.1455 4.56769 13.6587 4.56769C11.9498 4.56769 10.5641 5.95338 10.5641 7.66229C10.5641 9.3712 11.9498 10.7569 13.6587 10.7569C13.8121 10.7569 13.9592 10.7335 14.1057 10.7122C14.0583 10.8717 14.0094 11.034 13.931 11.1798C13.8526 11.3916 13.7302 11.5752 13.6085 11.7602C13.5067 11.9604 13.3272 12.0958 13.1952 12.2671C13.057 12.4335 12.8686 12.5442 12.7193 12.6824C12.5728 12.8268 12.381 12.8991 12.2283 13.0008C12.0688 13.0923 11.9299 13.1934 11.7813 13.2415C11.6383 13.3007 11.5131 13.3516 11.4106 13.3942C11.203 13.4802 11.0847 13.5297 11.0847 13.5297L11.4175 14.8631C11.4175 14.8631 11.5674 14.8273 11.8281 14.7641C11.9594 14.7311 12.1197 14.6925 12.3019 14.6465C12.4883 14.6121 12.687 14.5179 12.9084 14.4319C13.1264 14.3336 13.3802 14.2682 13.6154 14.1108C13.8519 13.9608 14.125 13.8357 14.3657 13.6349C14.5988 13.4279 14.88 13.2484 15.0877 12.9857C15.3147 12.7395 15.5389 12.4809 15.7128 12.1866C15.9143 11.906 16.0512 11.5979 16.1956 11.2933C16.3263 10.9886 16.4315 10.6771 16.5174 10.3745C16.6804 9.768 16.7533 9.19172 16.7815 8.69864C16.8049 8.20488 16.7911 7.79433 16.7623 7.49725C16.7519 7.35696 16.7334 7.22011 16.7189 7.12658ZM9.15434 7.12658C9.14265 7.05162 9.13715 7.01105 9.13715 7.01105L9.11927 7.01518C8.82081 5.6171 7.5809 4.56769 6.09412 4.56769C4.38521 4.56769 2.99951 5.95338 2.99951 7.66229C2.99951 9.3712 4.38521 10.7569 6.09412 10.7569C6.24747 10.7569 6.39464 10.7335 6.54112 10.7122C6.49366 10.8717 6.44484 11.034 6.36644 11.1798C6.28805 11.3916 6.16564 11.5752 6.04392 11.7602C5.94214 11.9604 5.76265 12.0958 5.63061 12.2671C5.49239 12.4335 5.30396 12.5442 5.15473 12.6824C5.00825 12.8268 4.81639 12.8991 4.66372 13.0008C4.50418 13.0923 4.36526 13.1934 4.21672 13.2415C4.07368 13.3007 3.94852 13.3516 3.84606 13.3942C3.63906 13.4788 3.52078 13.5283 3.52078 13.5283L3.85362 14.8617C3.85362 14.8617 4.00354 14.826 4.26417 14.7627C4.39552 14.7297 4.55575 14.6912 4.73799 14.6451C4.92436 14.6107 5.1231 14.5165 5.34453 14.4305C5.56253 14.3322 5.81629 14.2669 6.05148 14.1094C6.28805 13.9595 6.56106 13.8343 6.80175 13.6335C7.03488 13.4265 7.31614 13.247 7.52382 12.9843C7.75076 12.7381 7.97495 12.4796 8.14893 12.1852C8.35043 11.9047 8.48728 11.5966 8.63169 11.2919C8.76235 10.9873 8.86757 10.6758 8.95353 10.3732C9.11651 9.76663 9.18941 9.19034 9.2176 8.69727C9.24099 8.20351 9.22723 7.79295 9.19835 7.49587C9.18735 7.35696 9.16878 7.22011 9.15434 7.12658Z" fill="#2D2D3A"/>
</svg>
