<svg width="80" height="80" viewBox="0 0 80 80" fill="none" xmlns="http://www.w3.org/2000/svg">
<g opacity="0.8">
<rect width="80" height="80" rx="10" fill="#E6E6F0"/>
<rect width="80" height="80" rx="10" fill="url(#paint0_linear)"/>
</g>
<g clip-path="url(#clip0)">
<path opacity="0.1" d="M65.6358 -18C52.5954 -18 42 -7.64222 42 4.94444C42 17.9244 50.6936 26.4467 64.6849 26.4467H65.6358V41C80.578 28.02 89 17.7933 89 5.73111C89 -7.64222 78.6763 -18 65.6358 -18Z" fill="white"/>
<path opacity="0.5" d="M2.71097 22C-17.5434 22 -34 37.8 -34 57C-34 76.8 -20.4972 89.8 1.23406 89.8H2.71097V112C25.9191 92.2 39 76.6 39 58.2C39 37.8 22.9653 22 2.71097 22Z" stroke="white" stroke-width="2"/>
<path d="M39.7143 22.1518C39.8976 21.7796 40.4283 21.7796 40.6115 22.1518L45.6464 32.3805C45.7192 32.5283 45.86 32.6307 46.023 32.6545L57.2835 34.295C57.6932 34.3547 57.857 34.858 57.5609 35.1474L49.411 43.1125C49.2935 43.2273 49.24 43.3925 49.2677 43.5544L51.1914 54.7999C51.2613 55.2086 50.8321 55.5199 50.4654 55.3266L40.3961 50.0189C40.2502 49.942 40.0757 49.942 39.9298 50.0189L29.8605 55.3266C29.4937 55.5199 29.0646 55.2086 29.1345 54.7999L31.0582 43.5544C31.0859 43.3925 31.0323 43.2273 30.9148 43.1125L22.7649 35.1474C22.4688 34.858 22.6326 34.3547 23.0423 34.295L34.3029 32.6545C34.4659 32.6307 34.6067 32.5283 34.6794 32.3805L39.7143 22.1518Z" fill="white"/>
</g>
<defs>
<linearGradient id="paint0_linear" x1="4.55696" y1="-14.1772" x2="40" y2="80" gradientUnits="userSpaceOnUse">
<stop stop-color="#FB765C"/>
<stop offset="1" stop-color="#F03A27"/>
</linearGradient>
<clipPath id="clip0">
<rect width="80" height="80" rx="10" fill="white"/>
</clipPath>
</defs>
</svg>
