<svg width="16" height="15" viewBox="0 0 16 15" fill="none" xmlns="http://www.w3.org/2000/svg">
<path d="M7.67762 0.78317C7.87568 0.40561 8.43024 0.40561 8.62831 0.78317L10.5892 4.52109C10.6668 4.6689 10.8123 4.77175 10.9807 4.79782L15.241 5.45696C15.6713 5.52353 15.8427 6.03662 15.5348 6.33654L12.4864 9.30584C12.3659 9.42326 12.3103 9.58967 12.3369 9.75359L13.009 13.8989C13.0769 14.3176 12.6282 14.6347 12.2398 14.4425L8.39494 12.5397C8.24289 12.4645 8.06303 12.4645 7.91099 12.5397L4.06608 14.4425C3.67772 14.6347 3.22906 14.3176 3.29695 13.8989L3.96905 9.75359C3.99563 9.58967 3.94005 9.42326 3.8195 9.30584L0.77112 6.33654C0.463209 6.03662 0.634579 5.52353 1.0649 5.45696L5.32519 4.79782C5.49366 4.77175 5.63917 4.6689 5.71671 4.52109L7.67762 0.78317Z" fill="#FED02D"/>
</svg>
