<svg width="20" height="20" viewBox="0 0 20 20" fill="none" xmlns="http://www.w3.org/2000/svg">
<path fill-rule="evenodd" clip-rule="evenodd" d="M5.0547 2.40015C3.95013 2.40015 3.0547 3.29557 3.0547 4.40014V5.8991C3.75113 5.27554 4.67093 4.89635 5.67929 4.89635C7.8531 4.89635 9.61532 6.65857 9.61532 8.83237C9.61532 9.70579 9.33083 10.5128 8.84946 11.1657C9.03997 11.269 9.22131 11.3829 9.39357 11.5069C10.3403 12.1885 10.9051 13.0992 11.2382 13.988C11.257 14.0382 11.2746 14.0883 11.2909 14.1384H16.5752C17.6798 14.1384 18.5752 13.2429 18.5752 12.1384V4.40015C18.5752 3.29558 17.6798 2.40015 16.5752 2.40015H5.0547Z" fill="#807F91"/>
<circle cx="5.67935" cy="8.83229" r="2.62453" fill="#807F91"/>
<path d="M5.69184 12.0388C2.5001 12.0388 1.42509 13.9532 1.08222 15.7034C0.925263 16.5045 1.42509 17.2693 2.21246 17.4851C3.9217 17.9535 6.53711 18.2709 9.1522 17.5067C9.93584 17.2778 10.4338 16.5047 10.2797 15.703C9.9432 13.9529 8.88335 12.0388 5.69184 12.0388Z" fill="#807F91"/>
</svg>
