<svg width="20" height="21" viewBox="0 0 20 21" fill="none" xmlns="http://www.w3.org/2000/svg">
<path d="M16.2265 5.7071V18.0562C16.2265 18.5241 16.0391 18.9729 15.7054 19.3037C15.3718 19.6345 14.9193 19.8204 14.4475 19.8204H5.55255C5.08073 19.8204 4.62824 19.6345 4.29461 19.3037C3.96099 18.9729 3.77356 18.5241 3.77356 18.0562V5.7071M16.2265 5.7071H3.77356M16.2265 5.7071H18.5001M3.77356 5.7071H1.50012M6.44204 5.7071V3.23049C6.44204 2.7626 6.62947 2.31388 6.9631 1.98304C7.29672 1.65219 7.74921 1.46632 8.22103 1.46632H11.779C12.2508 1.46632 12.7033 1.65219 13.0369 1.98304C13.3706 2.31388 13.558 2.7626 13.558 3.23049V5.7071" stroke="#2D2D3A" stroke-width="1.6" stroke-linecap="round" stroke-linejoin="round"/>
<path d="M8.15515 10.9995V15.1611" stroke="#2D2D3A" stroke-width="1.6" stroke-linecap="round" stroke-linejoin="round"/>
<path d="M11.8451 10.9995V15.1611" stroke="#2D2D3A" stroke-width="1.6" stroke-linecap="round" stroke-linejoin="round"/>
</svg>
