<svg width="77" height="77" viewBox="0 0 77 77" fill="none" xmlns="http://www.w3.org/2000/svg">
<g filter="url(#filter0_d)">
<path fill-rule="evenodd" clip-rule="evenodd" d="M66.9258 38.4297C66.9258 53.8936 54.3898 66.4297 38.9258 66.4297C23.4618 66.4297 10.9258 53.8936 10.9258 38.4297C10.9258 22.9657 23.4618 10.4297 38.9258 10.4297C54.3898 10.4297 66.9258 22.9657 66.9258 38.4297ZM25.3037 29.586C24.5343 29.8931 24.1596 30.7658 24.4667 31.5352L26.8445 37.4919C27.1516 38.2614 28.0243 38.6361 28.7937 38.329L34.7505 35.9512C35.5199 35.6441 35.8946 34.7714 35.5875 34.002C35.2804 33.2326 34.4077 32.8578 33.6383 33.165L31.1164 34.1717C32.6983 31.0437 35.9716 28.8867 39.7646 28.8867C45.1152 28.8867 49.4256 33.1743 49.4256 38.4299C49.4256 43.6855 45.1152 47.9731 39.7646 47.9731C37.2952 47.9731 35.0473 47.06 33.3405 45.5577C32.7187 45.0103 31.7709 45.0707 31.2235 45.6926C30.6761 46.3144 30.7365 47.2622 31.3584 47.8096C33.5946 49.7779 36.5415 50.9731 39.7646 50.9731C46.742 50.9731 52.4256 45.3723 52.4256 38.4299C52.4256 31.4875 46.742 25.8867 39.7646 25.8867C34.7123 25.8867 30.3416 28.821 28.3119 33.076L27.2529 30.423C26.9458 29.6536 26.0731 29.2788 25.3037 29.586Z" fill="#FBFCFF"/>
</g>
<defs>
<filter id="filter0_d" x="0.925781" y="0.429688" width="76" height="76" filterUnits="userSpaceOnUse" color-interpolation-filters="sRGB">
<feFlood flood-opacity="0" result="BackgroundImageFix"/>
<feColorMatrix in="SourceAlpha" type="matrix" values="0 0 0 0 0 0 0 0 0 0 0 0 0 0 0 0 0 0 127 0"/>
<feOffset/>
<feGaussianBlur stdDeviation="5"/>
<feColorMatrix type="matrix" values="0 0 0 0 0 0 0 0 0 0 0 0 0 0 0 0 0 0 0.25 0"/>
<feBlend mode="normal" in2="BackgroundImageFix" result="effect1_dropShadow"/>
<feBlend mode="normal" in="SourceGraphic" in2="effect1_dropShadow" result="shape"/>
</filter>
</defs>
</svg>
