<svg width="20" height="14" viewBox="0 0 20 14" fill="none" xmlns="http://www.w3.org/2000/svg">
<mask id="mask0" mask-type="alpha" maskUnits="userSpaceOnUse" x="0" y="0" width="20" height="14">
<rect width="20" height="14" rx="2" fill="#C4C4C4"/>
</mask>
<g mask="url(#mask0)">
<path d="M13.4284 0H6.57129V14H13.4284V0Z" fill="#F54747"/>
<path d="M6.57143 0H0V14H6.57143V0Z" fill="#434A54"/>
<path d="M20.0001 0H13.4287V14H20.0001V0Z" fill="#57A863"/>
<path d="M12.0288 4.46826L11.4859 5.03422C11.8574 5.42145 12.0859 5.95762 12.0859 6.55337C12.0859 7.74486 11.1431 8.72784 10.0002 8.72784C8.85735 8.72784 7.9145 7.74486 7.9145 6.55337C7.9145 5.95762 8.14307 5.42145 8.51449 5.03422L7.97164 4.46826C7.45735 5.00443 7.14307 5.74911 7.14307 6.55337C7.14307 8.19167 8.42878 9.53209 10.0002 9.53209C11.5716 9.53209 12.8574 8.19167 12.8574 6.55337C12.8574 5.74911 12.5431 5.00443 12.0288 4.46826ZM10.6002 5.7789H10.8288V5.36188H10.6002V5.7789ZM10.8288 5.24273H10.6002V5.3023H10.8288V5.24273ZM10.7145 5.00443C10.6574 5.00443 10.6002 5.09379 10.6002 5.18316H10.8288C10.8288 5.09379 10.7716 5.00443 10.7145 5.00443ZM9.17164 5.74911H9.40021V5.33209H9.17164V5.74911ZM9.40021 5.24273H9.17164V5.3023H9.40021V5.24273ZM9.28592 5.00443C9.22878 5.00443 9.17164 5.09379 9.17164 5.18316H9.40021C9.42878 5.09379 9.34307 5.00443 9.28592 5.00443ZM10.8574 5.98741L11.0002 5.83848H10.5716L10.3716 5.68954H9.68592L9.48592 5.83848H9.02878L9.17164 5.98741H10.8574ZM9.71449 5.60018H10.3145C10.4002 5.57039 10.4288 5.42145 10.4288 5.33209C10.4288 5.09379 10.2859 5.00443 10.1145 4.97465C10.0859 4.97465 10.0574 4.94486 10.0574 4.94486C10.0002 4.88528 10.0288 4.76613 10.0002 4.76613C9.97164 4.76613 10.0002 4.88528 9.97164 4.94486C9.97164 4.97465 9.94307 5.00443 9.91449 5.00443C9.71449 5.00443 9.60021 5.15337 9.60021 5.36188C9.60021 5.45124 9.62878 5.5406 9.71449 5.60018ZM8.74307 7.83422H11.2859L11.0574 7.6555H8.97164L8.74307 7.83422ZM10.6002 6.13635V7.56614H10.8288V6.13635H10.6002ZM9.17164 6.13635V7.56614H9.40021V6.13635H9.17164ZM10.9145 7.44699L11.2574 6.91082C11.2859 6.9406 11.3716 7.00018 11.4288 7.02996C11.4288 7.02996 11.4288 7.02997 11.4574 7.05975C11.5145 7.14911 11.5145 7.23848 11.5431 7.32784C11.5431 7.32784 11.5431 7.32784 11.5431 7.35762C11.5716 7.44699 11.6002 7.62571 11.6288 7.59592C11.6574 7.56614 11.7431 7.44699 11.8288 7.38741C11.8574 7.35762 11.8288 7.26826 11.8002 7.23848C11.8002 7.20869 11.8002 7.1789 11.8002 7.14911C11.8002 7.14911 11.8002 7.14911 11.8002 7.11933C11.8002 7.08954 11.8002 7.05975 11.8002 7.05975C11.8002 6.97039 11.7431 6.82145 11.6859 6.79167C11.5716 6.7023 11.5145 6.58316 11.4859 6.58316L11.5145 6.55337C11.5145 6.55337 11.5145 6.55337 11.5431 6.55337C11.5716 6.55337 11.6002 6.52358 11.6002 6.49379C11.6002 6.46401 11.5716 6.43422 11.5431 6.43422C11.5145 6.43422 11.4859 6.46401 11.4859 6.49379C11.4859 6.52358 11.4859 6.52358 11.5145 6.52358L10.9145 7.44699ZM8.54307 6.46401C8.54307 6.43422 8.5145 6.40443 8.48592 6.40443C8.45735 6.40443 8.42878 6.43422 8.42878 6.46401C8.42878 6.49379 8.45735 6.52358 8.48592 6.52358C8.48592 6.52358 8.48592 6.52358 8.51449 6.52358L8.54307 6.55337C8.5145 6.55337 8.45735 6.67252 8.34307 6.76188C8.28592 6.82145 8.22878 6.9406 8.22878 7.02996C8.22878 7.05975 8.22878 7.08954 8.22878 7.08954C8.22878 7.08954 8.22878 7.08954 8.22878 7.11933C8.22878 7.14911 8.22878 7.1789 8.22878 7.20869C8.22878 7.23848 8.20021 7.32784 8.20021 7.35762C8.25735 7.4172 8.34307 7.53635 8.40021 7.56614C8.42878 7.59592 8.45735 7.4172 8.48592 7.32784C8.48592 7.32784 8.48592 7.32784 8.48592 7.29805C8.5145 7.20869 8.51449 7.08954 8.57164 7.02996C8.57164 7.02996 8.57164 7.02996 8.60021 7.00018C8.62878 6.9406 8.74307 6.91082 8.77164 6.88103L9.08592 7.44699L9.1145 7.4172L8.60021 6.46401C8.54307 6.49379 8.54307 6.49379 8.54307 6.46401Z" fill="white"/>
</g>
</svg>
