<svg width="20" height="14" viewBox="0 0 20 14" fill="none" xmlns="http://www.w3.org/2000/svg">
<mask id="mask0" mask-type="alpha" maskUnits="userSpaceOnUse" x="0" y="0" width="20" height="14">
<rect width="20" height="14" rx="2" fill="#C4C4C4"/>
</mask>
<g mask="url(#mask0)">
<path d="M20 0H0V14H20V0Z" fill="#F54747"/>
<path d="M13.143 8.72772C13.0573 8.63836 12.9715 8.63836 12.8573 8.75751C12.743 8.75751 12.5715 8.7873 12.343 8.7873C12.4001 8.72772 12.5144 8.66815 12.6287 8.57879C12.743 8.60857 12.8573 8.57879 12.8858 8.48942C12.9715 8.40006 13.0573 8.42985 13.1715 8.45964C13.1715 8.28091 13.0287 8.25113 12.8573 8.34049C12.743 8.28091 12.5715 8.34049 12.5715 8.48942C12.5144 8.60857 12.3715 8.66815 12.2001 8.7873C12.0001 8.69794 11.743 8.60857 11.4858 8.45964C11.543 8.40006 11.6001 8.34049 11.6573 8.28091C11.2573 8.0724 10.9715 7.83411 10.8287 7.3873C10.7715 7.23836 10.8573 7.26815 10.8858 7.35751C10.943 7.53623 11.0573 7.65538 11.2287 7.74474C11.343 7.80432 11.4287 7.65538 11.3144 7.56602C11.2287 7.47666 11.143 7.32772 11.143 7.149C11.143 7.02985 11.2573 7.02985 11.2858 7.11921C11.4858 7.68517 11.7144 8.04262 11.9144 7.95325C12.1144 7.86389 12.0287 7.74474 11.9144 7.68517C11.7144 7.56602 11.6001 7.26815 11.6001 7.08943C11.6001 6.9107 11.6858 6.94049 11.743 7.05964C11.8001 7.17879 11.9715 7.41708 12.2573 7.77453C12.543 8.10219 12.943 8.19155 13.143 7.98304C13.343 7.80432 13.143 7.68517 12.9715 7.74474C12.6001 7.83411 12.2287 7.44687 12.0001 6.82134C11.9715 6.73198 12.0287 6.70219 12.0573 6.76176C12.5715 7.41708 13.0001 7.47666 13.2287 7.26815C13.3144 7.17879 13.4001 6.94049 13.0287 7.02985C12.6001 7.11921 12.343 6.76176 12.0573 6.31496C11.9144 6.10644 12.0573 6.10645 12.1715 6.22559C12.2858 6.34474 12.4573 6.49368 12.6573 6.61283C12.8573 6.73198 13.2573 6.73198 13.3144 6.46389C13.3715 6.19581 13.2001 6.22559 13.0001 6.28517C12.6573 6.40432 12.4287 6.16602 12.1715 5.86815C12.0573 5.749 12.1144 5.65964 12.2001 5.68942C12.2858 5.749 12.5144 5.83836 12.6573 5.92772C12.8001 6.01708 13.1144 6.07666 13.2858 5.83836C13.4287 5.60006 13.2001 5.48091 13.0001 5.62985C12.8001 5.77879 12.343 5.62985 12.143 5.39155C11.943 5.12347 12.1715 5.18304 12.2858 5.24262C12.5715 5.39155 12.943 5.42134 13.2573 5.18304C13.4001 5.06389 13.3715 5.00432 13.3144 4.91496C13.2858 4.85538 13.2001 4.85538 13.0573 4.94474C12.6287 5.21283 12.3144 5.15325 12.0573 4.79581C11.9715 4.64687 12.0858 4.64687 12.2001 4.70645C12.6858 4.94474 13.1715 4.79581 13.3144 4.43836C13.3715 4.25964 13.2287 4.05113 13.0573 4.28943C12.8573 4.5873 12.5144 4.5873 12.2001 4.52772C12.0287 4.49793 12.0287 4.28943 12.2001 4.25964C12.5715 4.20006 13.143 3.96176 13.3144 3.6341C13.4573 3.36602 13.1715 3.06815 13.0001 3.36602C12.8573 3.69368 12.5144 3.8724 12.1715 3.99155C12.0573 4.02134 12.0001 4.02134 12.0001 3.99155C12.0001 3.93198 11.943 3.81283 11.9144 3.84262C11.8287 3.90219 11.4573 4.02134 11.2858 4.1107C11.1144 4.17028 11.0287 4.349 11.0287 4.49793C11.0287 4.64687 11.0858 4.94474 10.8287 4.94474C10.4287 4.94474 10.6001 4.22985 10.8287 4.02134C11.0287 3.84262 11.2287 3.78304 11.3715 3.78304C11.5144 3.78304 11.7144 3.72347 11.7144 3.57453C11.743 3.57453 11.8287 3.54474 11.8858 3.54474C11.943 3.54474 12.0573 3.48517 12.0858 3.42559C12.143 3.36602 12.2001 3.30645 12.143 3.24687C12.0858 3.1873 12.0001 3.27666 11.9715 3.33623C11.943 3.39581 11.8858 3.45538 11.8287 3.45538C11.7715 3.45538 11.6858 3.48517 11.6287 3.48517C11.5715 3.48517 11.5144 3.48517 11.4858 3.45538C11.4573 3.39581 11.4858 3.36602 11.543 3.36602C11.6001 3.33623 11.6573 3.33623 11.6858 3.39581C11.6858 3.4256 11.7144 3.45538 11.7715 3.45538C11.8287 3.15751 11.5715 3.1873 11.343 3.1873C11.2287 2.97879 10.8858 3.12772 10.6573 3.24687C10.543 3.27666 10.3715 3.24687 10.2858 3.21709C10.2001 3.1873 10.2001 3.21708 10.2287 3.27666C10.2573 3.33623 10.3715 3.39581 10.4287 3.42559C10.4858 3.42559 10.4573 3.45538 10.4573 3.48517C10.4001 3.54474 10.2858 3.60432 10.2573 3.6341C10.2001 3.6341 10.2001 3.66389 10.2287 3.69368C10.2573 3.72347 10.2858 3.75325 10.343 3.75325C10.3715 3.75325 10.3715 3.78304 10.343 3.81283C10.2858 3.8724 10.1715 3.96176 10.1144 3.93198C10.0573 3.93198 10.0573 3.96177 10.0858 3.96177C10.1144 3.99155 10.1715 4.02134 10.2001 4.02134C10.2287 4.02134 10.2287 4.02134 10.2001 4.05113C10.1715 4.08091 10.1144 4.17028 10.0573 4.17028C9.97155 4.14049 9.97155 4.17028 9.97155 4.20006C10.0287 4.28942 10.0287 4.31921 9.91441 4.349C9.80012 4.31921 9.80012 4.28942 9.85726 4.20006C9.88583 4.17028 9.85726 4.14049 9.77155 4.17028C9.71441 4.20006 9.65726 4.1107 9.62869 4.05113C9.60012 4.02134 9.60012 4.02134 9.62869 4.02134C9.65726 4.02134 9.71441 3.99155 9.74298 3.96177C9.77155 3.93198 9.74298 3.90219 9.71441 3.93198C9.65726 3.93198 9.54298 3.8724 9.48583 3.81283C9.45726 3.78304 9.45726 3.75325 9.48583 3.75325C9.51441 3.75325 9.57155 3.72347 9.60012 3.69368C9.62869 3.66389 9.60012 3.6341 9.57155 3.6341C9.51441 3.6341 9.40012 3.57453 9.37155 3.48517C9.34298 3.45538 9.34298 3.42559 9.40012 3.42559C9.45726 3.42559 9.57155 3.33623 9.60012 3.27666C9.62869 3.21708 9.62869 3.1873 9.54298 3.21709C9.45726 3.24687 9.25726 3.27666 9.17155 3.24687C8.94298 3.12772 8.62869 2.97879 8.48583 3.1873C8.28583 3.1873 8.02869 3.15751 8.05726 3.45538C8.08583 3.45538 8.11441 3.4256 8.14298 3.39581C8.17155 3.36602 8.22869 3.33623 8.28583 3.36602C8.34298 3.39581 8.37155 3.42559 8.34298 3.45538C8.31441 3.48517 8.25726 3.48517 8.20012 3.48517C8.14298 3.48517 8.05726 3.45538 8.00012 3.45538C7.97155 3.45538 7.88583 3.39581 7.85726 3.33623C7.82869 3.27666 7.74298 3.1873 7.68583 3.24687C7.62869 3.30645 7.68583 3.36602 7.74298 3.42559C7.80012 3.48517 7.88583 3.54474 7.94298 3.54474C8.02869 3.54474 8.08583 3.57453 8.11441 3.57453C8.14298 3.72347 8.31441 3.78304 8.45726 3.78304C8.60012 3.78304 8.82869 3.8724 9.00012 4.02134C9.25726 4.22985 9.42869 4.94474 9.00012 4.94474C8.74298 4.94474 8.77155 4.67666 8.80012 4.49793C8.80012 4.349 8.74298 4.17028 8.54298 4.1107C8.34298 4.05113 8.00012 3.90219 7.91441 3.84262C7.88583 3.81283 7.82869 3.93198 7.82869 3.99155C7.82869 4.02134 7.77155 4.05113 7.65726 3.99155C7.31441 3.8724 6.97155 3.66389 6.82869 3.36602C6.68583 3.03836 6.37155 3.36602 6.51441 3.6341C6.68583 3.96176 7.25726 4.20006 7.62869 4.25964C7.80012 4.28943 7.80012 4.49793 7.62869 4.52772C7.42869 4.46815 7.11441 4.46815 6.91441 4.17028C6.74298 3.96176 6.60012 4.14049 6.65726 4.31921C6.80012 4.70645 7.31441 4.85538 7.77155 4.5873C7.88583 4.52772 8.00012 4.52772 7.91441 4.67666C7.65726 5.0341 7.34298 5.09368 6.91441 4.82559C6.80012 4.73623 6.68583 4.76602 6.65726 4.79581C6.60012 4.88517 6.60012 4.97453 6.71441 5.06389C7.05726 5.36176 7.42869 5.36177 7.71441 5.18304C7.82869 5.12347 8.02869 5.06389 7.85726 5.33198C7.65726 5.60006 7.20012 5.71921 7.00012 5.57027C6.80012 5.42134 6.57155 5.57028 6.71441 5.77879C6.85726 6.01708 7.20012 5.95751 7.34298 5.86815C7.48583 5.77879 7.71441 5.65964 7.80012 5.62985C7.88583 5.57028 7.94298 5.65964 7.82869 5.80857C7.60012 6.10645 7.34298 6.34474 7.00012 6.22559C6.80012 6.16602 6.62869 6.13623 6.68583 6.40432C6.74298 6.6724 7.14298 6.6724 7.34298 6.55325C7.54298 6.43411 7.71441 6.28517 7.82869 6.16602C7.94298 6.04687 8.05726 6.04687 7.94298 6.25538C7.65726 6.73198 7.40012 7.05964 6.97155 6.97028C6.57155 6.88091 6.68583 7.149 6.77155 7.20857C7.00012 7.44687 7.42869 7.3873 7.94298 6.70219C7.97155 6.64262 8.05726 6.6724 8.00012 6.76176C7.77155 7.3873 7.40012 7.80432 7.02869 7.68517C6.82869 7.6256 6.65726 7.74474 6.85726 7.92347C7.08583 8.13198 7.45726 8.04262 7.74298 7.71496C8.02869 7.3873 8.20012 7.11921 8.25726 7.00006C8.31441 6.88091 8.42869 6.88091 8.40012 7.02985C8.40012 7.20857 8.28583 7.50645 8.08583 7.62559C7.97155 7.68517 7.88583 7.80432 8.08583 7.89368C8.28583 7.98304 8.51441 7.59581 8.71441 7.05964C8.74298 7.00006 8.85726 6.97028 8.85726 7.08943C8.85726 7.26815 8.77155 7.41708 8.68583 7.50644C8.60012 7.59581 8.65726 7.74474 8.77155 7.68517C8.94298 7.59581 9.02869 7.47666 9.11441 7.29794C9.14298 7.20857 9.22869 7.17879 9.17155 7.32772C9.02869 7.77453 8.74298 8.01283 8.34298 8.22134C8.40012 8.28091 8.45726 8.37028 8.51441 8.40006C8.25726 8.549 8.02869 8.63836 7.80012 8.72772C7.62869 8.60857 7.48583 8.549 7.42869 8.42985C7.40012 8.28091 7.22869 8.22134 7.14298 8.28091C6.97155 8.19155 6.82869 8.22134 6.82869 8.40006C6.94298 8.37028 7.02869 8.37028 7.11441 8.42985C7.14298 8.51921 7.25726 8.57879 7.37155 8.51921C7.48583 8.60857 7.60012 8.66815 7.65726 8.72772C7.42869 8.72772 7.25726 8.69793 7.14298 8.69793C7.02869 8.63836 6.94298 8.63836 6.85726 8.72772C6.71441 8.69794 6.60012 8.75751 6.57155 8.90645C6.68583 8.90645 6.77155 8.84687 6.82869 8.90645C6.88583 9.0256 7.02869 9.02559 7.14298 8.93623C7.28583 8.93623 7.60012 8.93623 7.65726 8.93623C7.57155 8.99581 7.42869 9.08517 7.37155 9.11496C7.14298 9.05538 7.00012 9.17453 7.02869 9.35325C6.97155 9.44262 6.97155 9.59155 7.05726 9.65113C7.08583 9.56177 7.11441 9.4724 7.17155 9.41283C7.31441 9.44262 7.42869 9.38304 7.45726 9.23411C7.54298 9.17453 7.65726 9.08517 7.71441 9.05538C7.77155 9.0256 7.80012 8.99581 7.91441 9.0256C8.02869 9.08517 8.11441 9.11496 8.17155 9.14474C8.20012 9.29368 8.34298 9.29368 8.42869 9.23411C8.48583 9.26389 8.54298 9.32347 8.57155 9.38304C8.62869 9.29368 8.60012 9.14474 8.48583 9.11496C8.45726 8.99581 8.31441 8.96602 8.22869 9.0256C8.14298 8.99581 8.05726 8.93623 8.00012 8.90645C8.14298 8.84687 8.54298 8.69794 8.68583 8.63836C8.82869 8.75751 8.97155 8.84687 9.05726 8.81708C9.08583 8.72772 9.11441 8.63836 9.20012 8.48942C9.31441 8.25113 9.42869 8.04262 9.54298 7.89368C9.65726 7.74474 9.77155 7.83411 9.74298 8.01283C9.71441 8.45964 9.42869 9.11496 8.97155 9.14474C8.82869 9.14474 8.74298 9.17453 8.82869 9.32347C8.91441 9.44262 9.14298 9.44262 9.28583 9.35325C9.42869 9.23411 9.45726 9.26389 9.42869 9.38304C9.40012 9.53198 9.25726 9.59155 9.14298 9.59155C8.97155 9.59155 8.80012 9.68091 8.94298 9.82985C9.08583 9.97879 9.34298 9.88942 9.54298 9.68091C9.60012 9.59155 9.65726 9.59155 9.65726 9.7107C9.65726 9.91921 9.51441 10.0681 9.40012 10.0979C9.28583 10.1277 9.14298 10.1575 9.17155 10.2469C9.22869 10.366 9.42869 10.3958 9.54298 10.3362C9.65726 10.2767 9.77155 10.1575 9.80012 10.0681C9.82869 10.0086 9.88583 10.0384 9.85726 10.1277C9.82869 10.3362 9.68583 10.3362 9.68583 10.515C9.68583 10.6937 9.82869 10.8724 9.97155 11.0511C10.143 10.8724 10.2573 10.6937 10.2573 10.515C10.2573 10.3362 10.1144 10.3362 10.0858 10.1277C10.0858 10.0384 10.1144 9.97879 10.143 10.0681C10.1715 10.1277 10.2858 10.2469 10.4001 10.3362C10.5144 10.3958 10.7144 10.366 10.7715 10.2469C10.8001 10.1575 10.6858 10.1277 10.543 10.0979C10.4287 10.0681 10.2858 9.91921 10.2858 9.7107C10.2858 9.59155 10.343 9.59155 10.4001 9.68091C10.6001 9.91921 10.8287 10.0086 11.0001 9.82985C11.143 9.68091 10.9715 9.62134 10.8001 9.59155C10.6858 9.59155 10.543 9.53198 10.5144 9.38304C10.4858 9.23411 10.543 9.23411 10.6573 9.35325C10.8001 9.4724 11.0287 9.44262 11.1144 9.32347C11.2001 9.20432 11.143 9.17453 10.9715 9.14474C10.5144 9.11496 10.2001 8.45964 10.2001 8.01283C10.2001 7.83411 10.3144 7.74474 10.4001 7.89368C10.5144 8.04262 10.6287 8.25113 10.743 8.48942C10.8001 8.63836 10.8573 8.72772 10.8858 8.81708C11.0001 8.84687 11.143 8.75751 11.2573 8.63836C11.4001 8.69794 11.8001 8.84687 11.943 8.90645C11.8858 8.93623 11.8001 8.99581 11.7144 9.0256C11.6287 8.96602 11.4858 8.99581 11.4573 9.11496C11.3715 9.14474 11.343 9.29368 11.3715 9.38304C11.4001 9.32347 11.4573 9.26389 11.5144 9.23411C11.6001 9.29368 11.743 9.29368 11.7715 9.14474C11.8287 9.11496 11.943 9.05538 12.0287 9.0256C12.143 8.96602 12.1715 9.0256 12.2287 9.05538C12.2858 9.08517 12.4001 9.17453 12.4858 9.23411C12.543 9.41283 12.6287 9.44262 12.7715 9.41283C12.8287 9.4724 12.8573 9.56177 12.8858 9.65113C12.943 9.59155 12.943 9.4724 12.9144 9.35325C12.943 9.17453 12.8001 9.08517 12.5715 9.11496C12.5144 9.08517 12.4001 8.99581 12.2858 8.93623C12.343 8.93623 12.6573 8.93623 12.8001 8.93623C12.8858 9.02559 13.0573 9.0256 13.1144 8.90645C13.1715 8.87666 13.2858 8.90645 13.3715 8.90645C13.4001 8.75751 13.2858 8.69794 13.143 8.72772Z" fill="white"/>
</g>
</svg>
