<svg width="20" height="14" viewBox="0 0 20 14" fill="none" xmlns="http://www.w3.org/2000/svg">
<mask id="mask0" mask-type="alpha" maskUnits="userSpaceOnUse" x="0" y="0" width="20" height="14">
<rect width="20" height="14" rx="2" fill="#C4C4C4"/>
</mask>
<g mask="url(#mask0)">
<path d="M20 0H10V14H20V0Z" fill="white"/>
<path d="M10 0H0V14H10V0Z" fill="#57A863"/>
<path d="M13.5998 6.8214C13.7426 6.70225 13.7141 6.61289 13.5141 6.58311L12.8284 6.55332C12.6569 6.55332 12.4569 6.40438 12.3998 6.22566L12.1712 5.51076C12.1141 5.33204 12.0284 5.33204 11.9712 5.51076L11.7426 6.22566C11.6855 6.40438 11.5141 6.55332 11.3141 6.55332H10.6569C10.4855 6.55332 10.4569 6.67247 10.5712 6.79162L11.0284 7.20864C11.1712 7.32779 11.2284 7.56608 11.1998 7.74481L11.0284 8.40013C10.9712 8.57885 11.0569 8.63842 11.2284 8.54906L11.7712 8.16183C11.9141 8.07246 12.1712 8.04268 12.3141 8.16183L12.8569 8.51928C12.9998 8.60864 13.0855 8.54906 13.0569 8.37034L12.8855 7.7746C12.8284 7.59587 12.9141 7.35757 13.0569 7.23843L13.5998 6.8214ZM12.1998 9.68098C12.0569 9.77034 11.9141 9.82991 11.7426 9.88949C10.2569 10.4257 8.62836 9.59162 8.11407 8.04268C8.02836 7.74481 7.97122 7.44693 7.94264 7.14906C7.94264 6.85119 7.97122 6.55332 8.02836 6.25545C8.42836 4.67672 9.99979 3.75332 11.5426 4.20013C11.7141 4.2597 11.8569 4.28949 11.9998 4.37885C12.0569 4.37885 12.1141 4.34906 12.1141 4.31928C12.1141 4.28949 12.1141 4.22992 12.0855 4.20013C11.7141 3.90226 11.2855 3.66395 10.8284 3.54481C8.91407 3.00864 6.94264 4.17034 6.42836 6.1363C6.34264 6.49375 6.2855 6.88098 6.31407 7.23843C6.31407 7.59587 6.39979 7.95332 6.51407 8.34055C7.17122 10.2767 9.19979 11.3193 11.0855 10.664C11.5426 10.4852 11.9712 10.2469 12.3141 9.91928C12.3426 9.88949 12.3712 9.8597 12.3426 9.80012C12.3141 9.68098 12.2569 9.65119 12.1998 9.68098Z" fill="#F54747"/>
</g>
</svg>
