<svg width="20" height="14" viewBox="0 0 20 14" fill="none" xmlns="http://www.w3.org/2000/svg">
<mask id="mask0" mask-type="alpha" maskUnits="userSpaceOnUse" x="0" y="0" width="20" height="14">
<rect width="20" height="14" rx="2" fill="#C4C4C4"/>
</mask>
<g mask="url(#mask0)">
<path d="M20 0H0V14H20V0Z" fill="#4758A9"/>
<mask id="mask1" mask-type="alpha" maskUnits="userSpaceOnUse" x="0" y="0" width="8" height="8">
<rect width="7.14286" height="7.14893" fill="#C4C4C4"/>
</mask>
<g mask="url(#mask1)">
<path d="M-0.0306352 -1.16568L-1.12157 -0.028328L6.87876 8.31243L7.96969 7.17508L-0.0306352 -1.16568Z" fill="white"/>
<path d="M6.88022 -1.16304L-1.12013 7.17774L-0.0291706 8.31512L7.97118 -0.0256623L6.88022 -1.16304Z" fill="white"/>
<path d="M7.06203 -0.636643L-0.635249 7.38818L-0.231192 7.80943L7.46609 -0.215392L7.06203 -0.636643Z" fill="#F54747"/>
<path d="M-0.231197 -0.657091L-0.635254 -0.23584L7.06203 7.78899L7.46609 7.36774L-0.231197 -0.657091Z" fill="#F54747"/>
<path d="M4.00028 0H2.85742V7.14893H4.00028V0Z" fill="white"/>
<path d="M7.14286 2.97852H0V4.17H7.14286V2.97852Z" fill="white"/>
<path d="M3.71449 0H3.14307V7.14893H3.71449V0Z" fill="#F54747"/>
<path d="M7.14286 3.27637H0V3.87211H7.14286V3.27637Z" fill="#F54747"/>
</g>
<path d="M13.4284 3.66406C14.3426 4.20023 15.4284 4.20023 15.9998 3.75343C15.9998 5.42151 15.9998 6.52364 15.9998 7.14917C15.9998 8.34066 15.2569 9.6513 13.4284 10.3364C11.5998 9.6513 10.8569 8.31087 10.8569 7.14917C10.8569 6.49385 10.8569 5.42151 10.8569 3.75343C11.4284 4.20023 12.5141 4.20023 13.4284 3.66406Z" fill="white"/>
<path d="M15.714 8.34082C15.3997 9.23444 14.6854 9.91954 13.4283 10.3961C12.1711 9.91954 11.4854 9.23444 11.1426 8.34082H15.714Z" fill="#75B1F2"/>
<path d="M13.3715 4.43847C12.1429 4.73635 12 6.464 13.1143 6.67252C13.1143 6.49379 13 6.37464 12.9714 6.19592C13.0286 6.19592 13.0857 6.22571 13.1429 6.2555C13.1143 6.04699 12.9429 6.01719 12.9714 5.74911C12.9714 5.24273 13.2286 4.91507 13.6572 4.88528C13.8572 4.8555 14.1429 4.94486 14.2286 5.15337C14.2572 5.21294 14.3429 5.33209 14.3715 5.36188C14.4286 5.42145 14.4286 5.39167 14.4286 5.33209C14.4572 5.18315 14.7143 5.12359 15 5.27252C15.0857 5.30231 15.0857 5.27252 15.0286 5.24273C14.7429 4.97465 14.4 5.09379 14.1143 4.85549C13.8857 4.64698 13.5429 4.55762 13.2857 4.58741C13.3429 4.52784 13.3715 4.46826 13.3715 4.43847Z" fill="#FFCE54"/>
<path d="M12.1141 7.44704C13.0855 7.68534 14.057 7.26831 13.9998 6.19597C13.9141 6.25555 13.7998 6.46406 13.5998 6.49384C13.5998 6.43427 13.5998 6.31513 13.5998 6.25555C13.4855 6.43427 13.4569 6.64278 13.1998 6.82151C12.9141 7.03002 12.3713 7.08959 12.0855 6.79172C11.9427 6.64278 11.857 6.40449 11.9427 6.10661C11.9998 5.8981 12.1712 5.8981 12.257 5.80874C12.2855 5.77896 12.257 5.77895 12.2284 5.77895C12.057 5.74917 11.9998 5.51087 12.1427 5.15342C12.1712 5.06406 12.1427 5.06406 12.0284 5.24279C11.8855 5.48109 11.9141 5.71938 11.8284 5.92789C11.657 6.40449 11.7427 7.0896 12.1712 7.35768C12.1712 7.35768 12.1427 7.41725 12.1141 7.44704Z" fill="#FFCE54"/>
<path d="M14.1425 5.98761C14.514 6.40463 14.6568 6.79186 14.5425 7.14931C14.4854 7.32803 14.3425 7.53654 14.114 7.59612C13.7997 7.68548 13.714 7.44718 13.4282 7.47697C13.3997 7.47697 13.4282 7.50676 13.4568 7.50676C13.6282 7.59612 13.5711 7.80463 13.2283 7.95357C13.1997 7.95357 13.1997 7.95356 13.2568 7.98335C13.4568 8.01314 13.714 7.92378 13.8568 7.8642C14.0282 7.77484 14.2282 7.71527 14.3997 7.62591C14.7425 7.44718 14.9425 7.14931 14.9711 6.73229C15.0282 6.79187 15.0568 6.82165 15.0854 6.88123C15.2283 6.19612 14.7711 5.33229 13.7425 5.36208C13.7997 5.48123 13.9711 5.57059 14.0282 5.71953C13.9711 5.71953 13.8854 5.74931 13.8568 5.7791C13.9425 5.86846 13.9997 5.89825 14.1425 5.98761Z" fill="#FFCE54"/>
<path d="M12.7139 6.22559C12.7425 6.22559 12.771 6.19581 12.771 6.16602C12.771 6.13624 12.7425 6.10645 12.7139 6.10645C12.6853 6.10645 12.6568 6.13624 12.6568 6.16602C12.6568 6.19581 12.6853 6.22559 12.7139 6.22559Z" fill="white"/>
<path d="M13.7993 6.67237C13.8279 6.67237 13.8565 6.64259 13.8565 6.6128C13.8565 6.58301 13.8279 6.55322 13.7993 6.55322C13.7708 6.55322 13.7422 6.58301 13.7422 6.6128C13.7422 6.64259 13.7708 6.67237 13.7993 6.67237Z" fill="white"/>
<path d="M14.2569 5.65968C14.2854 5.65968 14.314 5.62989 14.314 5.6001C14.314 5.57031 14.2854 5.54053 14.2569 5.54053C14.2283 5.54053 14.1997 5.57031 14.1997 5.6001C14.1997 5.62989 14.2283 5.65968 14.2569 5.65968Z" fill="white"/>
</g>
</svg>
