<svg width="20" height="14" viewBox="0 0 20 14" fill="none" xmlns="http://www.w3.org/2000/svg">
<mask id="mask0" mask-type="alpha" maskUnits="userSpaceOnUse" x="0" y="0" width="20" height="14">
<rect width="20" height="14" rx="2" fill="#C4C4C4"/>
</mask>
<g mask="url(#mask0)">
<path d="M20 0H0V14H20V0Z" fill="#F5F7FA"/>
<path d="M20 0H0V3.87234H20V0Z" fill="#8CBAE2"/>
<path d="M20 10.1274H0V13.9998H20V10.1274Z" fill="#8CBAE2"/>
<path d="M11.8285 6.88086L11.7142 6.67235C11.6856 6.61277 11.657 6.49363 11.657 6.40426V6.16597C11.657 6.07661 11.5999 5.98724 11.5427 5.95746L11.3427 5.83831C11.2856 5.80852 11.1999 5.71916 11.1427 5.65958L11.0285 5.45107C10.9999 5.39149 10.8856 5.33192 10.8285 5.33192H10.5713C10.4856 5.33192 10.3713 5.30214 10.3142 5.27235L10.1142 5.1532C10.057 5.12341 9.94275 5.12341 9.8856 5.1532L9.6856 5.27235C9.62846 5.30214 9.51417 5.33192 9.42846 5.33192H9.19989C9.11417 5.33192 9.02846 5.39149 8.99989 5.45107L8.8856 5.65958C8.85703 5.71916 8.77132 5.80852 8.71417 5.8681L8.51417 5.98724C8.45703 6.01703 8.39989 6.13617 8.39989 6.19575V6.43405C8.39989 6.52341 8.37132 6.64256 8.34275 6.70214L8.22846 6.91065C8.19989 6.97022 8.19989 7.08937 8.22846 7.14894L8.34275 7.35746C8.37132 7.41703 8.39989 7.53618 8.39989 7.62554V7.86384C8.39989 7.9532 8.45703 8.04256 8.51417 8.07235L8.71417 8.1915C8.77132 8.22128 8.85703 8.31065 8.91417 8.37022L9.02846 8.57873C9.05703 8.6383 9.17132 8.69788 9.22846 8.69788H9.42846C9.51417 8.69788 9.62846 8.72767 9.6856 8.75745L9.8856 8.8766C9.94275 8.90639 10.057 8.90639 10.1142 8.8766L10.3142 8.75745C10.3713 8.72767 10.4856 8.69788 10.5713 8.69788H10.7999C10.8856 8.69788 10.9713 8.6383 10.9999 8.57873L11.1142 8.37022C11.1427 8.31065 11.2285 8.22128 11.2856 8.16171L11.4856 8.04256C11.5427 8.01277 11.5999 7.89362 11.5999 7.83405V7.59575C11.5999 7.50639 11.6285 7.38724 11.657 7.32767L11.7713 7.11916C11.857 7.05958 11.857 6.94044 11.8285 6.88086Z" fill="#F6BB42"/>
</g>
</svg>
