<svg width="20" height="14" viewBox="0 0 20 14" fill="none" xmlns="http://www.w3.org/2000/svg">
<mask id="mask0" mask-type="alpha" maskUnits="userSpaceOnUse" x="0" y="0" width="20" height="14">
<rect width="20" height="14" rx="2" fill="#C4C4C4"/>
</mask>
<g mask="url(#mask0)">
<path d="M20 4.76611H0V9.2342H20V4.76611Z" fill="#F54747"/>
<path d="M20 0H0V4.76596H20V0Z" fill="#4758A9"/>
<path d="M20 9.23389H0V13.9998H20V9.23389Z" fill="#57A863"/>
<path d="M11.0857 8.34034C11 8.37013 10.9428 8.42971 10.8571 8.4595C10.1143 8.72758 9.28569 8.31056 9.02854 7.5063C8.9714 7.35737 8.94283 7.17863 8.94283 7.0297C8.94283 6.88076 8.94283 6.70204 8.99997 6.55311C9.19997 5.71906 9.99997 5.24247 10.7714 5.48077C10.8571 5.51056 10.9143 5.54034 11 5.57013C11.0285 5.57013 11.0571 5.57012 11.0571 5.54033C11.0571 5.51055 11.0571 5.48077 11.0285 5.48077C10.8571 5.33184 10.6285 5.21268 10.4 5.12332C9.42854 4.82545 8.45711 5.45098 8.1714 6.46375C8.11426 6.64247 8.11426 6.85097 8.11426 7.0297C8.11426 7.20842 8.14283 7.41694 8.19997 7.59566C8.51426 8.60843 9.5714 9.1446 10.5143 8.78715C10.7428 8.69779 10.9428 8.57864 11.1428 8.39992C11.1714 8.39992 11.1714 8.37013 11.1714 8.34034C11.1428 8.37013 11.1143 8.34034 11.0857 8.34034ZM11.8285 7.26801L11.6 7.05949L11.8 6.88076C11.8571 6.82118 11.8571 6.76162 11.7714 6.76162H11.5428L11.6285 6.46375C11.6571 6.37439 11.6 6.3446 11.5428 6.40417L11.2571 6.61268H11.2285L11.1143 6.25523C11.0857 6.16587 11.0285 6.16587 11 6.25523L10.9143 6.55311L10.6571 6.37439C10.5714 6.31482 10.5428 6.34459 10.5714 6.43395L10.6857 6.7914C10.6857 6.7914 10.6857 6.7914 10.6571 6.7914H10.3143C10.2285 6.7914 10.2 6.85098 10.2857 6.91056L10.5143 7.11907L10.3428 7.26801C10.2571 7.32758 10.2857 7.38715 10.3714 7.38715L10.6 7.41694L10.5143 7.77438C10.4857 7.86374 10.5428 7.89353 10.6 7.83395L10.8857 7.62544L11 7.95311C11.0285 8.04247 11.0857 8.04247 11.1143 7.95311L11.2 7.68502L11.4285 7.7446C11.5143 7.80417 11.5428 7.77439 11.5143 7.65524L11.4285 7.35737C11.4285 7.35737 11.4285 7.35737 11.4571 7.35737H11.7714C11.8857 7.38715 11.9143 7.32758 11.8285 7.26801Z" fill="white"/>
</g>
</svg>
