<svg width="20" height="14" viewBox="0 0 20 14" fill="none" xmlns="http://www.w3.org/2000/svg">
<mask id="mask0" mask-type="alpha" maskUnits="userSpaceOnUse" x="0" y="0" width="20" height="14">
<rect width="20" height="14" rx="2" fill="#C4C4C4"/>
</mask>
<g mask="url(#mask0)">
<path d="M20 0H0V14H20V0Z" fill="#4758A9"/>
<path d="M13.4284 0H6.57129V14H13.4284V0Z" fill="#F6D660"/>
<path d="M10.9999 5.77892C11.1141 5.74913 11.257 5.74913 11.3713 5.77892C11.057 6.37466 10.857 7.23849 10.7713 8.01296C10.6284 7.98318 10.4284 7.95339 10.2856 7.95339V5.62998C10.4284 5.62998 10.5713 5.68956 10.7141 5.74913C10.457 5.30232 10.1999 4.76615 9.99986 4.20019C9.79986 4.76615 9.54272 5.27254 9.28557 5.74913C9.42843 5.68956 9.57129 5.62998 9.71415 5.62998V7.95339C9.57129 7.95339 9.34272 7.98318 9.22843 8.01296C9.14272 7.26828 8.94272 6.40445 8.62843 5.77892C8.74272 5.77892 8.88557 5.77892 8.99986 5.77892C8.62843 5.30232 8.17129 5.03424 7.57129 5.00445C8.457 5.98743 8.74272 7.35764 8.79986 8.57892C9.08558 8.51935 9.42843 8.42998 9.71415 8.42998V9.82998H10.2856V8.42998C10.5713 8.45977 10.9141 8.51935 11.1999 8.57892C11.257 7.35764 11.5713 5.98743 12.4284 5.00445C11.8284 5.00445 11.3713 5.30232 10.9999 5.77892Z" fill="#434A54"/>
</g>
</svg>
