<svg width="20" height="14" viewBox="0 0 20 14" fill="none" xmlns="http://www.w3.org/2000/svg">
<mask id="mask0" mask-type="alpha" maskUnits="userSpaceOnUse" x="0" y="0" width="20" height="14">
<rect width="20" height="14" rx="2" fill="#C4C4C4"/>
</mask>
<g mask="url(#mask0)">
<path d="M20 0.00634766H4V14.0063H20V0.00634766Z" fill="#F54747"/>
<path d="M4 0.00634766H0V14.0063H4V0.00634766Z" fill="white"/>
<path d="M20 10.4321H4V14.0066H20V10.4321Z" fill="#57A863"/>
<path d="M1.14272 12.8149H0.571289V13.4107H1.14272V12.8149Z" fill="#F54747"/>
<path d="M1.14272 11.6235H0.571289V12.2193H1.14272V11.6235Z" fill="#F54747"/>
<path d="M1.14272 10.4321H0.571289V11.0279H1.14272V10.4321Z" fill="#F54747"/>
<path d="M1.14272 9.24023H0.571289V9.83598H1.14272V9.24023Z" fill="#F54747"/>
<path d="M1.14272 8.04883H0.571289V8.64457H1.14272V8.04883Z" fill="#F54747"/>
<path d="M1.14272 6.85742H0.571289V7.45317H1.14272V6.85742Z" fill="#F54747"/>
<path d="M1.14272 5.66602H0.571289V6.26176H1.14272V5.66602Z" fill="#F54747"/>
<path d="M1.14272 4.47461H0.571289V5.07035H1.14272V4.47461Z" fill="#F54747"/>
<path d="M1.14272 3.2832H0.571289V3.87895H1.14272V3.2832Z" fill="#F54747"/>
<path d="M1.14272 2.09131H0.571289V2.68705H1.14272V2.09131Z" fill="#F54747"/>
<path d="M1.14272 0.899902H0.571289V1.49565H1.14272V0.899902Z" fill="#F54747"/>
<path d="M3.42836 12.8149H2.85693V13.4107H3.42836V12.8149Z" fill="#F54747"/>
<path d="M3.42836 11.6235H2.85693V12.2193H3.42836V11.6235Z" fill="#F54747"/>
<path d="M3.42836 10.4321H2.85693V11.0279H3.42836V10.4321Z" fill="#F54747"/>
<path d="M3.42836 9.24023H2.85693V9.83598H3.42836V9.24023Z" fill="#F54747"/>
<path d="M3.42836 8.04883H2.85693V8.64457H3.42836V8.04883Z" fill="#F54747"/>
<path d="M3.42836 6.85742H2.85693V7.45317H3.42836V6.85742Z" fill="#F54747"/>
<path d="M3.42836 5.66602H2.85693V6.26176H3.42836V5.66602Z" fill="#F54747"/>
<path d="M3.42836 4.47461H2.85693V5.07035H3.42836V4.47461Z" fill="#F54747"/>
<path d="M3.42836 3.2832H2.85693V3.87895H3.42836V3.2832Z" fill="#F54747"/>
<path d="M3.42836 2.09131H2.85693V2.68705H3.42836V2.09131Z" fill="#F54747"/>
<path d="M3.42836 0.899902H2.85693V1.49565H3.42836V0.899902Z" fill="#F54747"/>
<path d="M3.42836 -0.291504H2.85693V0.304241H3.42836V-0.291504Z" fill="#F54747"/>
<path d="M2.57157 1.19775H1.42871V2.38924H2.57157V1.19775Z" fill="#F54747"/>
<path d="M2.57157 -0.291504H1.42871V0.899986H2.57157V-0.291504Z" fill="#F54747"/>
<path d="M2.57157 2.68701H1.42871V3.8785H2.57157V2.68701Z" fill="#F54747"/>
<path d="M2.57157 4.17676H1.42871V5.36825H2.57157V4.17676Z" fill="#F54747"/>
<path d="M2.57157 5.66602H1.42871V6.8575H2.57157V5.66602Z" fill="#F54747"/>
<path d="M2.57157 7.15527H1.42871V8.34676H2.57157V7.15527Z" fill="#F54747"/>
<path d="M2.57157 8.64453H1.42871V9.83602H2.57157V8.64453Z" fill="#F54747"/>
<path d="M2.57157 10.1338H1.42871V11.3253H2.57157V10.1338Z" fill="#F54747"/>
<path d="M2.57157 11.6235H1.42871V12.815H2.57157V11.6235Z" fill="#F54747"/>
<path d="M2.57157 13.1128H1.42871V14.3043H2.57157V13.1128Z" fill="#F54747"/>
</g>
</svg>
