<svg width="20" height="14" viewBox="0 0 20 14" fill="none" xmlns="http://www.w3.org/2000/svg">
<mask id="mask0" mask-type="alpha" maskUnits="userSpaceOnUse" x="0" y="0" width="20" height="14">
<rect width="20" height="14" rx="2" fill="#C4C4C4"/>
</mask>
<g mask="url(#mask0)">
<path d="M20 1.19141H0V12.8084H20V1.19141Z" fill="#4758A9"/>
<path d="M20 0H0V1.19149H20V0Z" fill="#F54747"/>
<path d="M20 12.8086H0V14.0001H20V12.8086Z" fill="#F54747"/>
<path d="M10.8538 11.5579C13.2681 11.1494 14.9076 8.7778 14.5158 6.26078C14.124 3.74377 11.8492 2.03447 9.43492 2.44297C7.02064 2.85147 5.38111 5.22306 5.77293 7.74008C6.16476 10.2571 8.43955 11.9664 10.8538 11.5579Z" fill="#F5F7FA"/>
<path d="M10.1428 11.0211C12.273 11.0211 13.9999 9.22068 13.9999 6.99979C13.9999 4.7789 12.273 2.97852 10.1428 2.97852C8.01255 2.97852 6.28564 4.7789 6.28564 6.99979C6.28564 9.22068 8.01255 11.0211 10.1428 11.0211Z" fill="#57A863"/>
<path d="M11.4021 10.1657C13.0787 9.4417 13.8748 7.43782 13.1803 5.68992C12.4859 3.94202 10.5638 3.112 8.88723 3.83602C7.21068 4.56004 6.41454 6.56392 7.10901 8.31182C7.80347 10.0597 9.72556 10.8897 11.4021 10.1657Z" fill="#F5F7FA"/>
<path d="M10.7998 5.68948C10.3712 5.68948 10.1712 5.36182 10.1712 5.36182C10.1712 5.36182 9.94265 5.68948 9.51408 5.68948C9.14265 5.68948 8.85693 5.42139 8.85693 5.42139V7.23841C8.85693 8.4299 10.1426 8.93628 10.1426 8.93628C10.1426 8.93628 11.4284 8.4299 11.4284 7.23841V5.42139C11.4284 5.42139 11.1712 5.68948 10.7998 5.68948Z" fill="#F6D660"/>
</g>
</svg>
