<svg width="20" height="14" viewBox="0 0 20 14" fill="none" xmlns="http://www.w3.org/2000/svg">
<mask id="mask0" mask-type="alpha" maskUnits="userSpaceOnUse" x="0" y="0" width="20" height="14">
<rect width="20" height="14" rx="2" fill="#C4C4C4"/>
</mask>
<g mask="url(#mask0)">
<path d="M20 0H0V14H20V0Z" fill="#F54747"/>
<path d="M15.9715 3.60449C15.9715 3.60449 15.9715 7.56619 15.9715 8.16194C15.9715 8.84704 15.9143 9.11513 15.4286 9.47257C15 9.80023 14.1715 10.2173 13.4286 10.396C12.6857 10.1875 11.8572 9.80023 11.4286 9.47257C10.9429 9.11513 10.8857 8.84704 10.8857 8.16194C10.8857 7.56619 10.8857 3.60449 10.8857 3.60449H15.9715Z" fill="white"/>
<path d="M11.6855 8.31093C11.6569 8.22157 11.6283 8.19178 11.5998 8.162C11.6283 8.22157 11.6283 8.28115 11.6283 8.34072C11.6283 8.31093 11.6283 8.25136 11.5998 8.22157C11.5998 8.28115 11.5712 8.31094 11.5712 8.37051C11.5426 8.34072 11.5141 8.25136 11.5141 8.19178C11.3998 8.28115 11.4284 8.48965 11.5141 8.57901C11.3426 8.45987 11.3426 8.25136 11.3712 8.07264C11.3426 8.10242 11.2855 8.22157 11.2855 8.31093C11.2855 8.22157 11.2855 8.13221 11.3141 8.04285C11.2569 8.07264 11.2283 8.162 11.1998 8.22157C11.1998 8.162 11.1998 8.10242 11.1998 8.07264C11.114 8.162 11.0569 8.37051 11.0855 8.45987C11.0284 8.37051 11.0283 8.162 11.0569 8.10243C10.9712 8.162 10.914 8.31094 10.914 8.51945C10.9426 8.96625 11.0569 9.17476 11.4569 9.47263C11.8855 9.80029 12.7141 10.2173 13.4569 10.396C14.1998 10.1875 15.0283 9.80029 15.4569 9.47263C15.7998 9.23433 15.9141 9.02583 15.9712 8.69817C15.9712 8.60881 15.9426 8.45987 15.9426 8.4003C15.9141 8.48966 15.8855 8.54923 15.8284 8.6088C15.8569 8.54923 15.8855 8.4003 15.8284 8.34072C15.8284 8.4003 15.7712 8.48966 15.7141 8.54923C15.7141 8.48966 15.7141 8.3705 15.6855 8.28114C15.6855 8.45987 15.5712 8.57902 15.4855 8.63859C15.5426 8.57902 15.5998 8.45987 15.6283 8.37051C15.5998 8.4003 15.5712 8.45987 15.5141 8.48966C15.5141 8.43008 15.5426 8.37051 15.5712 8.31093C15.5141 8.31093 15.4855 8.34072 15.4569 8.4003C15.4855 8.34072 15.5141 8.28115 15.5426 8.25136C15.3998 8.28115 15.3712 8.48966 15.1998 8.51945C15.2855 8.43008 15.3426 8.31094 15.4283 8.22157C15.3712 8.22157 15.3141 8.28114 15.2569 8.31093C15.2569 8.28114 15.2855 8.22157 15.3141 8.162C15.2569 8.162 15.1998 8.22157 15.1141 8.28114C15.1426 8.25136 15.1712 8.13221 15.1998 8.04285C15.1712 8.07264 15.1426 8.10243 15.1141 8.10243C15.0284 8.07264 14.9426 8.13221 14.7998 8.19178C14.6569 8.25136 12.1712 7.98327 12.0855 8.01306C11.9998 8.04285 11.9712 8.10242 11.9426 8.13221C11.9426 8.10242 11.9426 8.10242 11.914 8.07264C11.9426 8.10242 11.8283 8.13221 11.8569 8.28114C11.7712 8.19178 11.8283 8.10242 11.8855 8.01306C11.7712 8.19178 11.7141 8.22157 11.6855 8.31093Z" fill="#74B85B"/>
<path d="M14.2857 5.60022C14.3143 5.27256 14.0857 5.24277 14.0857 5.00448C14.1714 4.88533 14.1429 4.7364 14.0286 4.64704C14.0286 4.58746 14 4.55767 13.9143 4.46831C13.8286 4.37895 13.9143 4.23001 13.8286 4.17044C13.8572 4.17044 13.8857 4.14065 13.9143 4.11086C13.9428 4.05128 13.8857 3.96193 13.9143 3.90235C13.8571 3.93214 13.8 3.90235 13.7143 3.96192C13.7143 3.90235 13.6572 3.90235 13.6572 3.84278C13.6286 3.87256 13.6286 3.84278 13.6 3.87256C13.6 3.84278 13.6286 3.81299 13.6 3.78321C13.6 3.81299 13.5429 3.81299 13.5429 3.87256C13.5429 3.84278 13.5429 3.81299 13.5143 3.81299C13.5143 3.84277 13.4571 3.84278 13.4571 3.87256C13.4571 3.84278 13.4286 3.81299 13.4286 3.81299C13.4286 3.84277 13.3714 3.87257 13.3714 3.90235C13.3714 3.87257 13.3714 3.84277 13.3428 3.81299C13.3428 3.84277 13.2857 3.87257 13.3143 3.90235C13.3143 3.87257 13.2857 3.84277 13.2857 3.81299C13.2857 3.84277 13.2286 3.87257 13.2286 3.90235C13.2286 3.87257 13.2286 3.84278 13.2 3.84278C13.2 3.87256 13.1714 3.87257 13.1714 3.90235C13.1714 3.87257 13.1429 3.84278 13.1429 3.84278C13.1429 3.87256 13.1143 3.90235 13.1143 3.96192C13.0857 3.84277 13 3.90235 12.9429 3.87256C12.9714 3.93214 12.8857 4.08107 13.0571 4.14065C12.9143 4.23001 13 4.43853 12.8857 4.52789C12.7714 4.58746 12.7143 4.61724 12.7143 4.7066C12.7429 4.67682 12.7714 4.64704 12.8 4.64704C12.7429 4.76618 12.8 4.85555 12.7429 4.94491C12.6857 5.03427 12.6572 5.06406 12.6572 5.12363C12.7143 5.06406 12.7714 5.03427 12.8286 4.94491C12.8286 4.97469 12.8 5.00448 12.8 5.03427C12.7429 5.21299 12.3143 5.36192 12.7143 5.74916C12.8857 5.86831 14.1429 6.16618 14.2857 5.60022Z" fill="#DB2F34"/>
<path d="M14.0855 8.78762C14.1426 8.81741 14.1712 8.78762 14.1712 8.81741C14.1712 8.8472 14.1711 8.87698 14.1997 8.87698C14.1997 8.90677 14.2283 8.93656 14.2569 8.93656C14.2569 8.96634 14.2855 8.96635 14.2855 8.96635C14.314 8.8472 14.4283 8.87698 14.3712 8.96635C14.3426 8.99613 14.3426 9.0557 14.3997 9.08549C14.4855 9.17485 14.6283 9.0855 14.5712 8.99613C14.514 8.90677 14.5426 8.87698 14.6283 8.93656C14.6854 8.99613 14.6283 9.0855 14.7426 9.14507C14.8283 9.17486 14.914 9.08549 14.914 9.02591C15.0283 9.0557 15.114 8.99613 15.114 8.90677C15.2283 8.78762 15.114 8.63869 14.9997 8.63869C14.8855 8.63869 14.8569 8.69826 14.7426 8.69826C14.714 8.63869 14.6283 8.57911 14.5426 8.54933C14.514 8.48975 14.514 8.45996 14.4569 8.43017C14.2854 8.43017 14.1426 8.54932 14.0855 8.78762Z" fill="#DB2F34"/>
<path d="M12.1141 6.79175C12.0284 6.73217 11.9427 6.76196 11.8855 6.82154C11.6855 6.73217 11.4284 6.82154 11.3713 6.97047C11.3141 7.1492 11.457 7.20878 11.3713 7.35771C11.2284 7.68537 11.4284 7.80452 11.4284 7.95346C11.3998 8.10239 11.457 8.16196 11.5141 8.19175C11.5141 8.13218 11.457 8.04281 11.5427 7.98324C11.5713 8.04281 11.5998 8.10239 11.6284 8.13217C11.6284 8.10239 11.6284 7.98324 11.657 7.92367C11.6856 7.98324 11.7141 8.10239 11.7713 8.13217C11.7427 8.0726 11.7713 7.98324 11.7713 7.92367C11.7998 8.01303 11.7998 8.0726 11.857 8.13217C11.857 8.0726 11.857 8.01303 11.8855 7.95346C12.1427 7.44707 12.4284 7.00026 12.1141 6.79175Z" fill="#DB2F34"/>
<path d="M14.7427 6.85131C14.8569 6.82152 15.0284 6.82153 15.1141 6.91089C15.3141 6.85131 15.4569 7.00025 15.4855 7.17897C15.4855 7.3577 15.3998 7.44705 15.4855 7.71514C15.5141 7.83429 15.5141 7.98323 15.4855 8.07259C15.4855 8.01302 15.457 7.95344 15.4284 7.92365C15.4284 7.98323 15.3713 8.07259 15.3713 8.16195C15.3427 8.10237 15.3427 7.86408 15.3141 7.80451C15.2855 7.89387 15.2284 8.0428 15.2855 8.13216C15.1998 8.13216 15.1141 7.89387 15.0855 7.80451C15.0855 7.89387 15.0284 7.92365 15.0855 8.0428C15.057 8.0428 14.9998 7.95344 14.9998 7.86408C14.857 7.77471 14.1998 7.05982 14.7427 6.85131Z" fill="#DB2F34"/>
<path d="M12.7712 8.78762C12.7141 8.81741 12.6855 8.78762 12.6855 8.81741C12.6855 8.8472 12.6855 8.87698 12.657 8.87698C12.657 8.90677 12.6284 8.93656 12.5998 8.93656C12.5998 8.96635 12.5712 8.96635 12.5712 8.96635C12.5427 8.8472 12.4284 8.87699 12.4855 8.96635C12.5141 8.99613 12.5141 9.05571 12.4569 9.08549C12.3712 9.17486 12.2569 9.0855 12.3141 8.99614C12.3712 8.90677 12.2855 8.87698 12.2284 8.93656C12.1712 8.99613 12.1998 9.11528 12.0855 9.14507C11.9998 9.14507 11.9141 9.11528 11.9427 9.02592C11.8284 9.0557 11.7426 8.99613 11.7426 8.90677C11.6284 8.78762 11.7427 8.63869 11.8569 8.63869C11.9712 8.63869 11.9998 8.69826 12.1141 8.69826C12.1427 8.63869 12.2284 8.57912 12.3141 8.54933C12.3426 8.48975 12.3427 8.45996 12.3998 8.43017C12.5712 8.43017 12.7141 8.54932 12.7712 8.78762Z" fill="#DB2F34"/>
<path d="M14.1139 5.51071C14.2568 5.42135 14.3139 5.57028 14.5139 5.45113C14.6282 5.51071 14.8568 5.33199 15.0282 5.36177C14.8853 6.07667 14.0282 5.86816 14.1139 5.51071Z" fill="#DB2F34"/>
<path d="M12.7429 5.51071C12.6 5.42135 12.5429 5.57028 12.3429 5.45113C12.2286 5.51071 12 5.33199 11.8286 5.36177C11.9715 6.07667 12.7143 5.83837 12.7429 5.51071Z" fill="#DB2F34"/>
<path d="M13.4284 5.8384C13.7427 5.8384 13.6284 5.45116 14.1999 5.74903C14.657 5.98733 14.8284 5.77883 14.9999 5.54053C15.1427 5.57032 15.1427 5.71925 15.1999 5.74903C15.1713 5.8384 15.1142 5.89797 15.0856 5.95755C15.1142 5.98734 15.1427 6.0767 15.1142 6.10649C15.2285 6.0767 15.257 6.22563 15.3427 6.22563C15.3427 6.28521 15.3142 6.40436 15.3142 6.43415C15.3142 6.46393 15.257 6.58308 15.1713 6.55329C15.2284 6.43414 15.2285 6.22563 14.9713 6.34478C14.7142 6.46393 14.5999 7.2384 14.9999 7.53627C15.1713 8.01287 14.6856 8.48946 14.2856 8.42989C14.2284 8.72776 13.9141 8.81712 13.7713 8.8767C13.6284 8.93627 13.657 9.14479 13.7427 9.115C13.7427 9.14479 13.6856 9.17457 13.657 9.17457C13.6285 9.17457 13.5142 9.14479 13.4284 9.14479C13.3142 9.14479 13.2284 9.17457 13.1999 9.17457C13.1713 9.17457 13.1142 9.14479 13.1142 9.115C13.1999 9.14479 13.2285 8.93627 13.0856 8.8767C12.9427 8.81712 12.6284 8.72776 12.5713 8.42989C12.1713 8.48946 11.6856 8.04265 11.857 7.53627C12.2856 7.26818 12.1713 6.46393 11.8856 6.34478C11.6284 6.22563 11.6285 6.43414 11.6856 6.55329C11.5999 6.58308 11.5142 6.49372 11.5427 6.43415C11.5427 6.37457 11.5142 6.25542 11.5142 6.22563C11.5713 6.19585 11.6284 6.0767 11.7427 6.10649C11.7142 6.04691 11.7141 5.98734 11.7713 5.95755C11.7141 5.89797 11.6856 5.8384 11.657 5.74903C11.7142 5.71925 11.7142 5.54053 11.857 5.54053C11.9999 5.80861 12.1999 5.98733 12.657 5.74903C13.2285 5.45116 13.1142 5.8384 13.4284 5.8384Z" fill="#3D97D3"/>
<path d="M13.2573 4.52784C13.2859 4.58741 13.4002 4.58741 13.4573 4.52784C13.5145 4.55762 13.6002 4.58741 13.6573 4.52784C13.6573 4.55762 13.6288 4.6172 13.6573 4.64698C13.5716 4.6172 13.343 4.6172 13.2859 4.64698C13.2573 4.58741 13.2573 4.55762 13.2573 4.52784Z" fill="black"/>
<path d="M13.6001 4.49805C13.6001 4.49805 13.6001 4.52784 13.6001 4.49805C13.6287 4.52784 13.6287 4.49805 13.6001 4.49805Z" fill="black"/>
<path d="M13.543 4.49805C13.543 4.49805 13.543 4.52784 13.543 4.49805C13.5715 4.52784 13.5715 4.49805 13.543 4.49805Z" fill="black"/>
<path d="M13.543 4.43847C13.543 4.43847 13.543 4.46826 13.543 4.43847C13.5715 4.46826 13.5715 4.43847 13.543 4.43847Z" fill="black"/>
<path d="M13.3428 4.40857C13.3713 4.37878 13.4285 4.37878 13.4285 4.40857C13.4285 4.43835 13.4285 4.46814 13.3999 4.43836C13.3999 4.43836 13.3713 4.43836 13.3428 4.43836L13.3714 4.40857H13.3428Z" fill="black"/>
<path d="M13.4858 4.43861C13.4858 4.40882 13.5144 4.37903 13.543 4.40882C13.5716 4.40882 13.5716 4.40882 13.543 4.40882C13.5144 4.40882 13.4858 4.40882 13.4858 4.43861C13.4858 4.46839 13.4858 4.46839 13.4858 4.43861Z" fill="black"/>
<path d="M13.3999 4.49805C13.3999 4.49805 13.3999 4.52784 13.3999 4.49805C13.4285 4.52784 13.4285 4.49805 13.3999 4.49805Z" fill="black"/>
<path d="M13.8858 3.96191C13.8286 3.96191 13.8287 4.02149 13.8001 4.02149C13.743 4.05128 13.7715 4.08106 13.8001 4.11085C13.8287 4.05127 13.8858 4.08106 13.8858 4.02149C13.8858 3.9917 13.8858 3.96191 13.8858 3.96191Z" fill="black"/>
<path d="M13.0857 3.9917C13.0857 3.93213 13.0286 3.96192 13 3.93213C13 3.99171 13.0286 4.05128 13.0571 4.08107C13.0571 4.08107 13.0571 4.05128 13.0571 4.02149C13.0571 3.9917 13.0286 3.9917 13.0286 3.96191C13.0571 3.96191 13.0572 3.96191 13.0857 3.9917Z" fill="black"/>
<path d="M13.3142 4.08106C13.3428 4.11085 13.3428 4.17042 13.2856 4.17042C13.2285 4.17042 13.2285 4.11085 13.2571 4.08106H13.3142Z" fill="black"/>
<path d="M13.6286 4.08106C13.6572 4.11085 13.6572 4.17042 13.6001 4.17042C13.5429 4.17042 13.5429 4.11085 13.5715 4.08106C13.5715 4.08106 13.6001 4.08106 13.6286 4.08106Z" fill="black"/>
<path d="M11.9715 6.37457C11.9715 6.34479 12.0286 6.315 12.0286 6.28522C12.0286 6.25543 12.0286 6.19586 12.0286 6.16607C12.0572 6.16607 12.0857 6.16607 12.1143 6.16607V6.19585C12.1429 6.19585 12.2286 6.19585 12.2572 6.19585C12.2572 6.13627 12.2857 6.10649 12.2857 6.10649V6.0767L12.3429 6.04691L12.3715 6.0767L12.4286 6.04691C12.4286 6.01713 12.4572 6.01713 12.4572 6.01713C12.4857 6.01713 12.5143 6.01713 12.5429 6.01713V6.04691C12.6 6.04691 12.6286 5.98735 12.6572 6.01713C12.8 6.10649 12.8 6.13628 12.8857 6.31501C13 6.61288 13.2286 7.17883 13.3715 7.38734C13.0286 7.65542 12.3429 8.04266 11.8857 7.92352C11.8 7.65543 11.8572 7.53628 12.0572 7.29798C12.2857 7.05968 12.0857 6.49372 11.9715 6.37457Z" fill="#F2E7CC"/>
<path d="M14.7142 6.85108C14.6285 6.70215 14.4856 6.70215 14.3999 6.76172C14.3428 6.61279 14.0856 6.55321 13.9713 6.64257C13.8856 6.58299 13.6856 6.61279 13.657 6.73194C13.5713 6.64257 13.3713 6.67236 13.3142 6.7915C13.1999 6.88087 13.2285 7.14896 13.3999 7.20853C13.5713 7.26811 14.6285 8.54896 14.857 8.19151C14.9142 8.07236 15.057 7.83406 14.9713 7.56598C14.8285 7.41704 14.657 7.17874 14.7142 6.85108Z" fill="white"/>
<path d="M13.057 7.59577L13.0285 7.35748L13.1999 7.08938L14.057 6.64257L14.0856 6.85109L14.1142 6.8213V6.91067H14.0856L14.1142 7.02981C14.1428 7.02981 14.1428 7.00003 14.1713 7.00003V7.08938C14.1999 7.11917 14.3142 7.20853 14.3713 7.23832L14.3427 8.10216C13.457 8.28088 12.6856 8.54896 12.857 7.62556C12.9428 7.65535 13.0285 7.62556 13.057 7.59577Z" fill="#D7B37E"/>
<path d="M13.4288 7.00006L13.1145 6.22559H13.086V6.10645L13.1716 6.1958L13.1431 6.22559L13.5145 6.97027L13.4288 7.00006Z" fill="#D7B37E"/>
<path d="M13.086 6.28516L13.2002 6.1958L13.2288 6.25538L13.1145 6.34473L13.086 6.28516Z" fill="#D7B37E"/>
<path d="M13.0572 7.35751L12.6573 6.28517L12.6287 6.25538L12.6001 6.10645L12.7144 6.22559L12.6858 6.25538L13.143 7.23836L13.0572 7.35751Z" fill="#D7B37E"/>
<path d="M12.6001 6.31495L12.7429 6.22558L12.8001 6.28516L12.6287 6.40431L12.6001 6.31495Z" fill="#D7B37E"/>
<path d="M11.8286 7.71515C11.8 8.13217 12.2 8.48962 12.5715 8.43005C12.6286 8.72792 12.9429 8.81728 13.0858 8.87686C13.2286 8.93643 13.2 9.14495 13.1143 9.11516C13.1143 9.14495 13.1714 9.17473 13.2 9.17473C13.2286 9.17473 13.3429 9.14495 13.4286 9.14495C13.5429 9.14495 13.6286 9.17473 13.6572 9.17473C13.6858 9.17473 13.7429 9.14495 13.7429 9.11516C13.6572 9.14495 13.6286 8.93643 13.7714 8.87686C13.9143 8.81728 14.2286 8.72792 14.2857 8.43005C14.6572 8.48962 15.0857 8.10239 15.0286 7.68536C15 7.65558 14.8572 7.6258 14.8 7.65558C14.7715 7.56622 14.6572 7.50664 14.5715 7.56622C14.3715 7.44707 14.2 7.53643 14.2 7.77473C14.0572 7.62579 13.8857 7.71515 13.8857 7.89388C13.8572 8.16196 13.3429 8.34069 13.2286 8.04281C13.3143 8.04281 13.3715 7.89388 13.2857 7.80452C13.2 7.71516 13.0572 7.80452 13.0572 7.92367C12.9429 7.83431 12.9429 7.74494 12.9429 7.68536C12.9429 7.56621 12.7715 7.50665 12.6857 7.65558C12.6572 7.65558 12.6 7.68537 12.5715 7.74494C12.5143 7.59601 12.3715 7.53643 12.2857 7.56622C12.2 7.596 12.1143 7.71516 12.1429 7.80452C12.0286 7.68537 11.9143 7.68537 11.8286 7.71515Z" fill="white"/>
<path d="M13.4288 5.89796C13.4573 5.89796 13.543 5.89796 13.6002 5.92775V5.77881C13.5716 5.74902 13.4859 5.74902 13.4288 5.74902C13.3716 5.74902 13.2859 5.77881 13.2573 5.77881V5.92775C13.3145 5.89796 13.4002 5.89796 13.4288 5.89796Z" fill="#FFD750"/>
<path d="M11.8286 5.51074C11.8858 5.77883 12.0572 5.86819 12.2572 5.89797C12.4 5.89797 12.5715 5.8384 12.6858 5.77883C12.8572 5.65968 13.0857 5.68947 13.2 5.80862C13.1429 5.77883 13.0858 5.8384 13.0858 5.89797C13.0858 5.95755 13.1143 5.98734 13.2 5.98734C13.2572 5.98734 13.3143 5.92777 13.3143 5.83841C13.3143 5.60011 12.9715 5.51074 12.7143 5.65968C12.5715 5.74904 12.4 5.80862 12.2572 5.80862C12.0858 5.80862 11.9715 5.71925 11.9143 5.48096L11.8286 5.51074Z" fill="#FFD750"/>
<path d="M15.0287 5.51074C14.9715 5.77883 14.8001 5.86819 14.6001 5.89797C14.4572 5.89797 14.2858 5.8384 14.1715 5.77883C14.0001 5.65968 13.7716 5.68947 13.6573 5.80862C13.7144 5.77883 13.7715 5.8384 13.7715 5.89797C13.7715 5.95755 13.743 5.98734 13.6573 5.98734C13.6001 5.98734 13.543 5.92777 13.543 5.83841C13.543 5.60011 13.8858 5.51074 14.143 5.65968C14.2858 5.74904 14.4572 5.80862 14.6001 5.80862C14.7715 5.80862 14.8858 5.71925 14.943 5.48096L15.0287 5.51074Z" fill="#FFD750"/>
<path d="M13.2858 9.02582C13.2858 9.14496 13.2001 9.17475 13.1715 9.17475C13.0572 9.17475 13.0572 9.02582 13.143 8.99604C13.1144 8.8471 12.6287 8.90667 12.543 8.48965C12.0001 8.51944 11.743 8.04284 11.8001 7.50667C12.2001 7.26838 12.1144 6.79177 12.0001 6.52369C11.9144 6.34497 11.7715 6.34497 11.7144 6.37475C11.8287 6.40454 11.7715 6.58327 11.6573 6.55348C11.6001 6.52369 11.6001 6.49391 11.6001 6.46412C11.6001 6.34497 11.6858 6.22582 11.8572 6.25561C12.0858 6.28539 12.2287 6.55347 12.2287 6.94071C12.2287 7.26837 12.1144 7.44709 11.943 7.56624C11.943 8.04284 12.1144 8.34071 12.543 8.3705C12.4572 8.34071 12.4572 8.19178 12.5715 8.19178C12.6287 8.19178 12.6573 8.25135 12.6573 8.31092C12.6858 8.28114 12.7144 8.28114 12.7429 8.31092C12.8572 8.34071 12.8001 8.51944 12.6858 8.48965C12.743 8.8471 13.2858 8.75773 13.2858 9.02582Z" fill="#FFD750"/>
<path d="M13.5713 9.02582C13.5713 9.14496 13.657 9.17475 13.6856 9.17475C13.7999 9.17475 13.7999 9.02582 13.7141 8.99604C13.7427 8.8471 14.2284 8.90667 14.3141 8.48965C14.857 8.51944 15.1141 8.04284 15.057 7.50667C14.657 7.26838 14.7427 6.79177 14.857 6.52369C14.9427 6.34497 15.0856 6.34497 15.1427 6.37475C15.0284 6.40454 15.0856 6.58327 15.1998 6.55348C15.257 6.52369 15.257 6.49391 15.257 6.46412C15.257 6.34497 15.1713 6.22582 14.9999 6.25561C14.7713 6.28539 14.6284 6.55347 14.6284 6.94071C14.6284 7.26837 14.7427 7.44709 14.9141 7.56624C14.9141 8.04284 14.7427 8.34071 14.3141 8.3705C14.3999 8.34071 14.3999 8.19178 14.2856 8.19178C14.2284 8.19178 14.1998 8.25135 14.1998 8.31092C14.1713 8.28114 14.1427 8.28114 14.1142 8.31092C13.9999 8.34071 14.057 8.51944 14.1713 8.48965C14.1141 8.8471 13.5713 8.75773 13.5713 9.02582Z" fill="#FFD750"/>
<path d="M15.0574 5.30224C15.2003 5.30224 15.286 5.54055 15.0288 5.54055C14.886 5.54055 14.8574 5.30224 15.0574 5.30224Z" fill="#DB2F34"/>
<path d="M14.7431 5.1831C14.8859 5.1831 14.9431 5.45119 14.7431 5.45119C14.5717 5.45119 14.6002 5.1831 14.7431 5.1831Z" fill="#DB2F34"/>
<path d="M14.9431 5.39162C14.8002 5.39162 14.8002 5.15332 14.9145 5.15332C15.0859 5.15332 15.0859 5.39162 14.9431 5.39162Z" fill="#DB2F34"/>
<path d="M14.7145 5.74918C14.5431 5.77897 14.5146 5.48109 14.686 5.45131C14.886 5.42152 14.9431 5.71939 14.7145 5.74918Z" fill="#DB2F34"/>
<path d="M11.8001 5.30224C11.6572 5.30224 11.5715 5.54055 11.8286 5.54055C11.9715 5.54055 12.0001 5.30224 11.8001 5.30224Z" fill="#DB2F34"/>
<path d="M12.1143 5.1831C11.9715 5.1831 11.9143 5.45119 12.1143 5.45119C12.2858 5.45119 12.2572 5.1831 12.1143 5.1831Z" fill="#DB2F34"/>
<path d="M11.9143 5.39162C12.0572 5.39162 12.0572 5.15332 11.9429 5.15332C11.7715 5.15332 11.7715 5.39162 11.9143 5.39162Z" fill="#DB2F34"/>
<path d="M12.1429 5.74918C12.3144 5.77897 12.3429 5.48109 12.1715 5.45131C12.0001 5.42152 11.9429 5.71939 12.1429 5.74918Z" fill="#DB2F34"/>
<path d="M14.9429 5.30224C15 5.33203 14.9715 5.4214 14.9429 5.4214C14.9143 5.4214 14.8857 5.45118 14.8857 5.48097C14.8572 5.42139 14.8857 5.39161 14.8857 5.36182C14.8572 5.33203 14.8858 5.30224 14.9429 5.30224Z" fill="#003671"/>
<path d="M15.0569 5.4513C15.114 5.48109 15.0569 5.63003 14.914 5.54067C14.9426 5.54067 14.9712 5.51088 14.9712 5.48109C14.9998 5.4513 15.0283 5.42151 15.0569 5.4513Z" fill="#003671"/>
<path d="M14.7429 5.62989C14.7429 5.68946 14.8286 5.65967 14.8572 5.65967C14.8857 5.62989 14.8857 5.6001 14.9143 5.6001C14.8857 5.57031 14.8 5.57032 14.7714 5.57032C14.7143 5.57032 14.7143 5.6001 14.7429 5.62989Z" fill="#003671"/>
<path d="M14.7998 5.48096H14.8284C14.7713 5.45118 14.8284 5.36182 14.7427 5.36182C14.6855 5.36182 14.6856 5.45117 14.6856 5.45117C14.7427 5.45117 14.7713 5.45118 14.7998 5.48096Z" fill="#003671"/>
<path d="M11.9143 5.33185C11.8572 5.36163 11.8858 5.42121 11.9143 5.45099C11.9715 5.48078 11.9715 5.48079 11.9715 5.51057C12.0001 5.451 11.9715 5.42121 11.9715 5.39143C12.0001 5.36164 11.9715 5.30206 11.9143 5.33185Z" fill="#003671"/>
<path d="M11.8002 5.45081C11.7431 5.4806 11.8002 5.62954 11.9431 5.54018C11.9145 5.54018 11.8859 5.51039 11.8859 5.4806C11.8574 5.45081 11.8288 5.42102 11.8002 5.45081Z" fill="#003671"/>
<path d="M12.1431 5.62989C12.1431 5.68946 12.0574 5.65967 12.0288 5.65967C12.0002 5.62989 12.0003 5.6001 11.9717 5.6001C12.0003 5.57031 12.086 5.57032 12.1145 5.57032C12.1431 5.57032 12.1431 5.6001 12.1431 5.62989Z" fill="#003671"/>
<path d="M12.1429 5.45117C12.1714 5.45117 12.1714 5.36182 12.0857 5.36182C12.0286 5.36182 12.0571 5.45118 12 5.48096C12.0286 5.48096 12.0286 5.48096 12.0286 5.48096C12.0857 5.45118 12.0857 5.45117 12.1429 5.45117Z" fill="#003671"/>
<path d="M15.086 8.84712C15.1717 8.75776 15.2574 8.87691 15.2288 8.99606C15.2002 8.99606 15.1717 8.90669 15.1145 8.93648C15.1145 8.87691 15.1145 8.84712 15.086 8.84712Z" fill="#003671"/>
<path d="M15.0287 8.96628C15.0573 8.93649 15.143 8.96627 15.143 9.02585C15.143 9.11521 15.1144 9.17478 15.0573 9.17478C15.0859 9.05563 14.943 9.05564 15.0287 8.96628Z" fill="#003671"/>
<path d="M14.8286 9.05566C14.9143 9.05566 14.9429 9.2046 14.8286 9.26418C14.8001 9.14503 14.7715 9.17482 14.7715 9.14503C14.7715 9.08545 14.8001 9.05566 14.8286 9.05566Z" fill="#003671"/>
<path d="M14.4859 9.08509C14.4287 9.11488 14.4288 9.23403 14.5716 9.23403C14.543 9.17445 14.5716 9.14467 14.543 9.11488C14.543 9.08509 14.5145 9.0553 14.4859 9.08509Z" fill="#003671"/>
<path d="M11.7715 8.84712C11.6858 8.75776 11.6001 8.87691 11.6286 8.99606C11.6572 8.99606 11.6858 8.90669 11.7429 8.93648C11.7429 8.87691 11.7429 8.84712 11.7715 8.84712Z" fill="#003671"/>
<path d="M11.8003 8.96606C11.7718 8.93627 11.686 8.93627 11.686 9.02563C11.686 9.0852 11.7146 9.17456 11.7717 9.17456C11.7432 9.05541 11.886 9.05542 11.8003 8.96606Z" fill="#003671"/>
<path d="M12.0002 9.05528C11.9145 9.05528 11.8859 9.20423 12.0002 9.2638C12.0288 9.14465 12.0573 9.17444 12.0573 9.14465C12.0573 9.08508 12.0288 9.0255 12.0002 9.05528Z" fill="#003671"/>
<path d="M12.3999 9.08509C12.4571 9.11488 12.457 9.23403 12.3428 9.23403C12.3713 9.17445 12.3428 9.14467 12.3428 9.11488C12.3428 9.08509 12.3714 9.0553 12.3999 9.08509Z" fill="#003671"/>
<path d="M7.14286 0H0V7.14894H7.14286V0Z" fill="#4758A9"/>
<mask id="mask1" mask-type="alpha" maskUnits="userSpaceOnUse" x="0" y="0" width="8" height="8">
<rect width="7.14286" height="7.14894" fill="#C4C4C4"/>
</mask>
<g mask="url(#mask1)">
<path d="M-0.0306352 -1.16569L-1.12157 -0.028328L6.87876 8.31244L7.96969 7.17508L-0.0306352 -1.16569Z" fill="white"/>
<path d="M6.87973 -1.16305L-1.12062 7.17774L-0.0296585 8.31513L7.97069 -0.0256664L6.87973 -1.16305Z" fill="white"/>
<path d="M7.06203 -0.636648L-0.635249 7.38818L-0.231192 7.80943L7.46609 -0.215397L7.06203 -0.636648Z" fill="#F54747"/>
<path d="M-0.231197 -0.657091L-0.635254 -0.23584L7.06203 7.78899L7.46609 7.36774L-0.231197 -0.657091Z" fill="#F54747"/>
<path d="M4.00028 0H2.85742V7.14894H4.00028V0Z" fill="white"/>
<path d="M7.14334 2.979H0.000488281V4.17049H7.14334V2.979Z" fill="white"/>
<path d="M3.71449 0H3.14307V7.14894H3.71449V0Z" fill="#F54747"/>
<path d="M7.14334 3.27686H0.000488281V3.8726H7.14334V3.27686Z" fill="#F54747"/>
</g>
</g>
</svg>
