<svg width="20" height="14" viewBox="0 0 20 14" fill="none" xmlns="http://www.w3.org/2000/svg">
<mask id="mask0" mask-type="alpha" maskUnits="userSpaceOnUse" x="0" y="0" width="20" height="14">
<rect width="20" height="14" rx="2" fill="#C4C4C4"/>
</mask>
<g mask="url(#mask0)">
<path d="M0 14V0H20L0 14Z" fill="#F6D660"/>
<path d="M0 14H20V0L0 14Z" fill="#F54747"/>
<path d="M16.543 3.45519C16.3716 3.48498 16.2002 3.36582 16.0002 3.39561C15.8859 3.39561 15.8002 3.45518 15.7145 3.51476L15.543 3.54455L15.7145 3.36582C15.8287 3.27646 16.0287 3.27647 16.143 3.1871L16.2287 2.9488L16.1145 3.03817C16.0287 3.06796 15.9145 3.06795 15.8287 3.06795L15.5716 3.09774L15.4002 3.24667L15.4573 3.06795L15.5716 2.82965V2.59136L15.6573 2.41263C15.7145 2.32327 15.8287 2.2637 15.8573 2.14455L15.8002 1.90625H15.7716L15.743 2.05518C15.6859 2.14455 15.6002 2.20412 15.5145 2.2637L15.4002 2.44242L15.3716 2.65093L15.2573 2.79987C15.1716 2.85944 15.1145 2.97859 15.1145 3.06795L15.0573 3.30625L14.9145 3.33604H14.6573C14.5716 3.24668 14.4287 3.21688 14.3145 3.21688C14.2859 3.12752 14.2287 3.03816 14.143 2.97859L13.943 2.9488L13.8859 2.97859C13.8002 2.91902 13.7145 2.85944 13.6287 2.85944C13.5145 2.82966 13.4287 2.85944 13.343 2.91901C13.2859 2.82965 13.1716 2.77008 13.0859 2.7403C12.9716 2.71051 12.8573 2.68071 12.7716 2.62114C12.6573 2.50199 12.543 2.44242 12.4287 2.38285C12.2859 2.32327 12.1145 2.2637 11.9716 2.2637L11.7716 2.29349L11.6287 2.38285H11.8573C11.9716 2.38285 12.0859 2.44242 12.1716 2.50199L11.943 2.44242L11.8002 2.50199L12.0002 2.53178L12.143 2.62114L12.1145 2.71051C11.9716 2.59136 11.8002 2.50199 11.6002 2.50199C11.4859 2.50199 11.3716 2.502 11.3145 2.59136C11.2002 2.56157 11.0573 2.56157 10.943 2.62114L10.8287 2.79987L11.0002 2.7403H11.2287V2.77008L11.2573 2.7403L11.4287 2.79987L11.4002 2.82965C11.3145 2.79987 11.2002 2.79987 11.1145 2.85944L10.9716 3.00838L11.1145 2.9488H11.3145L11.2859 3.12753C11.0859 3.03816 10.8573 2.97859 10.6287 3.00838C10.5145 3.00838 10.4002 3.03816 10.3145 3.12753C10.2287 3.1871 10.2002 3.33604 10.2287 3.4254C10.2859 3.54455 10.4002 3.60412 10.5145 3.57434L10.6287 3.4254L10.5145 3.45519L10.4002 3.39561L10.4859 3.27646C10.6002 3.24668 10.7145 3.27646 10.8573 3.27646V3.51476C10.6859 3.54454 10.4859 3.60412 10.343 3.72327C10.2287 3.72327 10.1145 3.72327 10.0002 3.75306C9.88588 3.78285 9.7716 3.81263 9.71445 3.87221L9.62874 4.08072L9.80017 3.96157C9.94303 3.90199 10.1145 3.902 10.2859 3.93179C10.4002 3.93179 10.5145 3.96157 10.6573 3.96157L10.6287 4.05093C10.543 4.11051 10.4859 4.25944 10.5145 4.34881L10.4573 4.55731C10.2573 4.64667 10.1145 4.8254 10.0287 5.03391L10.0859 5.0637C10.1716 4.97434 10.2859 4.88497 10.4287 4.85518L10.3716 5.0637C10.3145 5.15306 10.2573 5.21263 10.2287 5.30199C10.2002 5.39135 10.2573 5.5105 10.3145 5.59986V5.57008C10.3145 5.48072 10.3716 5.36157 10.4573 5.30199L10.7145 5.24242C10.7145 5.33178 10.743 5.42114 10.8002 5.51051L10.943 5.57008C10.9145 5.68923 10.9716 5.86795 11.0859 5.92753L11.0287 5.9871C10.943 6.01689 10.8287 5.95732 10.743 6.01689L10.6287 6.16583L10.7716 6.13604L10.943 6.2254C11.0287 6.28497 11.143 6.28498 11.2287 6.28498L11.2573 6.4637H11.0859L10.9145 6.40412L10.8573 6.31476L10.8287 6.4637L10.9145 6.58285H10.8859L10.743 6.43391C10.6573 6.40412 10.543 6.37434 10.4573 6.40412C10.4287 6.25519 10.2573 6.19561 10.143 6.2254L10.1145 6.16583L10.0002 6.07646L9.91445 5.86796L9.74302 5.7488V5.62965L9.68588 5.80838L9.74302 5.95731V6.04667L9.54302 6.01689H9.51445L9.25731 5.9871L9.00017 5.95731C8.94302 5.86795 8.88588 5.77859 8.77159 5.77859L8.54302 5.71902L8.45731 5.57008L8.42874 5.7488L8.5716 5.89774L8.60017 5.9871H8.3716C8.28588 6.01689 8.22874 6.13604 8.22874 6.2254L7.9716 6.25519L7.91445 6.40412C7.82874 6.34455 7.68588 6.31476 7.5716 6.40412L7.3716 6.49348L7.22874 6.55306L7.20017 6.702L7.31445 6.64242L7.45731 6.67221H7.60017L7.54302 6.79135V6.97008C7.45731 6.99987 7.37159 7.08923 7.34302 7.17859L7.3716 7.41689C7.22874 7.47646 7.11445 7.59561 6.9716 7.68497L6.77159 7.74455L6.65731 7.71476L6.82874 7.8637C6.9716 7.89348 7.08588 7.83391 7.22874 7.80413L7.1716 8.07221L7.20017 8.22115C7.11445 8.28072 7.05731 8.39987 7.02874 8.48923C6.91445 8.51902 6.85731 8.60838 6.77159 8.63817H6.62874L6.68588 8.72752L6.85731 8.81689L6.74302 8.90625H6.62874L6.68588 9.08497C6.5716 9.08497 6.45731 9.14455 6.34302 9.08497L6.3716 9.2637C6.25731 9.23391 6.14302 9.23391 6.00017 9.23391L5.82874 9.32327L5.80017 9.38285H5.91445H5.77159C5.68588 9.38285 5.57159 9.41263 5.48588 9.38285C5.37159 9.32327 5.25731 9.23391 5.11445 9.23391H4.91445L4.74302 9.17433C4.62874 9.14455 4.51445 9.14455 4.45731 9.23391L4.42874 9.38285L4.5716 9.32327C4.68588 9.35306 4.74302 9.44242 4.85731 9.4722H5.11445C5.25731 9.4722 5.3716 9.53178 5.51445 9.62114C5.40017 9.62114 5.28588 9.65093 5.1716 9.68072L4.9716 9.77008C4.85731 9.79986 4.71445 9.79987 4.60017 9.82966L4.45731 9.91901L4.42874 10.0382L4.51445 10.0084C4.65731 9.97859 4.80017 10.0382 4.94303 10.0084C5.02874 9.94881 5.14302 9.91901 5.25731 9.91901C5.1716 10.0084 5.08588 10.0679 4.9716 10.0679C4.85731 10.0977 4.74303 10.0977 4.65731 10.1573L4.48588 10.3063C4.3716 10.3658 4.22874 10.336 4.11445 10.3956L3.9716 10.5148L3.7716 10.6637L3.60017 10.6935L3.82874 10.7829C4.00017 10.7531 4.11445 10.6339 4.25731 10.5743L4.45731 10.5445C4.54302 10.5445 4.65731 10.5148 4.74302 10.4552L4.62874 10.5445C4.54302 10.5743 4.42874 10.6041 4.31445 10.6339C4.20017 10.6935 4.08588 10.7531 4.00017 10.8424C3.88588 10.9616 3.80017 11.0807 3.65731 11.1701C3.54303 11.2297 3.42874 11.2594 3.31445 11.2892L3.42874 11.3786L3.65731 11.3488C3.82874 11.2892 3.9716 11.1701 4.1716 11.1403C4.25731 11.1105 4.3716 11.1403 4.45731 11.1105C4.5716 11.0807 4.65731 11.0211 4.74302 10.9616L4.91445 10.8126L5.08588 10.7829C5.22874 10.7531 5.28588 10.6041 5.40017 10.5445L5.5716 10.485L5.65731 10.3956L5.51445 10.5445L5.34302 10.6041C5.42874 10.6339 5.51445 10.6935 5.60017 10.6339C5.74302 10.5743 5.82874 10.4552 5.9716 10.3658L6.1716 10.3063L6.00017 10.4254L5.77159 10.5445L5.68588 10.7531L5.85731 10.6339C5.94302 10.5743 6.05731 10.5743 6.14302 10.5445C6.22874 10.5148 6.34302 10.485 6.40017 10.3956C6.45731 10.3062 6.54303 10.2169 6.65731 10.1275C6.74303 10.068 6.85731 10.0084 6.94303 9.91901L7.02874 9.77008L7.22874 9.62114C7.34303 9.56157 7.45731 9.502 7.5716 9.41264H7.71445L7.88588 9.44242L7.85731 9.65093L7.65731 9.62114L7.54302 9.71051L7.62874 9.77008L7.71445 9.85944L7.60017 9.88923L7.51445 10.0382L7.40017 10.0679L7.51445 10.1573C7.60017 10.1871 7.71445 10.1275 7.77159 10.0977L7.82874 10.2169L7.80017 10.3063L7.91445 10.2765L8.02874 10.0679L8.11445 10.2169L8.1716 10.336L8.20017 10.4552L8.1716 10.6041C8.05731 10.6339 7.94302 10.6935 7.85731 10.7829C7.80017 10.8722 7.7716 11.0211 7.80017 11.1403L7.82874 11.2892C7.85731 11.3786 7.94303 11.4382 7.94303 11.5275C7.94303 11.6467 8.00017 11.7658 8.08588 11.885C8.1716 12.0041 8.31445 12.0637 8.45731 12.0637H8.5716C8.71445 12.0637 8.82874 11.9743 8.94303 11.885C9.02874 11.7658 9.08588 11.6467 9.08588 11.4977L9.1716 11.3488C9.22874 11.2594 9.20017 11.1701 9.1716 11.0807C9.1716 10.9914 9.14302 10.8722 9.08588 10.8126L9.1716 10.7829L9.34302 10.8722L9.48588 11.0509C9.51445 11.1701 9.48588 11.2892 9.48588 11.4084C9.54302 11.319 9.60017 11.2297 9.62874 11.1403C9.65731 11.0211 9.62874 10.902 9.60017 10.7829L9.54302 10.5445L9.34302 10.4254H9.02874L8.85731 10.3658C8.85731 10.2765 8.82874 10.1871 8.74302 10.1573C8.74302 10.0382 8.65731 9.94881 8.54302 9.88923C8.48588 9.71051 8.54302 9.50199 8.5716 9.32327L8.80017 9.35306L9.02874 9.50199L9.1716 9.59136C9.28588 9.62115 9.37159 9.62115 9.48588 9.59136H9.62874C9.77159 9.56157 9.88588 9.502 9.9716 9.38285C10.0573 9.2637 10.0859 9.08497 10.0287 8.93604C10.0002 8.84668 9.94302 8.75732 9.85731 8.69774L9.82874 8.54881C9.7716 8.42966 9.68588 8.37008 9.5716 8.37008H9.48588L9.25731 8.39987L9.11445 8.42965V8.34029L9.22874 8.19136L9.40017 8.16157H9.51445L9.3716 8.01263C9.25731 7.95306 9.14302 7.95306 9.02874 7.95306C8.94302 7.95306 8.85731 8.04242 8.82874 8.13178L8.80017 8.22115C8.71445 8.28072 8.71445 8.39987 8.71445 8.51902L8.62874 8.57859L8.54302 8.54881L8.45731 8.34029C8.45731 8.25093 8.51445 8.16157 8.51445 8.07221V7.95306L8.54302 7.74455L8.62874 7.59561L8.80017 7.41689C8.88588 7.44667 9.02874 7.41689 9.05731 7.32753C9.14302 7.35732 9.25731 7.35732 9.34302 7.32753L9.40017 7.3871C9.48588 7.44667 9.60017 7.41689 9.68588 7.41689L9.91445 7.47647L10.0573 7.53603L10.2573 7.56582C10.3716 7.6254 10.5145 7.68498 10.6573 7.65519C10.8002 7.74455 10.9716 7.77434 11.1145 7.77434C11.2002 7.83391 11.2859 7.83391 11.3716 7.80413L11.5145 7.83391L11.4859 7.98284L11.3716 8.01263L11.2859 8.04242L11.0859 7.98284L11.0002 8.07221L11.1145 8.102L11.2573 8.19136L11.143 8.3105L11.0573 8.45944H10.9145L11.1145 8.57859C11.2287 8.5488 11.2859 8.42966 11.4002 8.39987L11.4287 8.54881L11.3716 8.69774L11.4859 8.66795L11.6287 8.45944C11.6573 8.57859 11.7716 8.63817 11.8573 8.63817C11.9145 8.75731 12.0287 8.7871 12.143 8.7871C12.2287 8.87646 12.343 8.90625 12.4573 8.87646C12.543 8.96582 12.6573 8.99562 12.743 8.99562L12.9145 8.96583L13.1145 9.08497L13.0573 9.23391L13.143 9.44242L13.2287 9.68072L13.4002 9.77008L13.543 9.91901C13.6573 9.97859 13.7716 9.97859 13.8859 9.9488C14.0573 10.0382 14.2859 10.0382 14.4573 9.91901C14.6287 9.79986 14.743 9.59136 14.743 9.41264C14.743 9.2637 14.6859 9.14455 14.6002 9.0254C14.6859 8.87646 14.6287 8.69774 14.5145 8.60838L14.4287 8.48923L14.2573 8.45944H14.0002L14.0573 8.3105L14.1716 8.28071L14.3145 8.16157L14.4859 8.19136L14.3145 8.04242C14.2002 7.98285 14.0287 7.98285 13.9145 8.07221L13.7145 8.13178L13.6573 8.3105C13.543 8.28072 13.4573 8.37008 13.4287 8.48923L13.2287 8.57859C13.1716 8.51901 13.0573 8.48923 12.9716 8.48923L12.8859 8.42965L12.6859 8.39987H12.6287H12.4859C12.4287 8.31051 12.343 8.28071 12.2287 8.28071L12.2859 8.04242L12.4002 7.89348L12.543 7.65519C12.7716 7.32753 12.8859 6.9105 12.8573 6.52327C12.9716 6.43391 13.1145 6.40413 13.2573 6.4637L13.2287 6.67221L13.0859 6.76157L13.2002 6.82114L13.3716 6.76157C13.3716 6.88072 13.3716 6.97008 13.4287 7.05945L13.6287 7.17859L13.6002 7.05945L13.6859 6.82114L13.8002 6.99987V7.1488L13.8859 6.97008C13.8859 6.85093 13.8002 6.73179 13.7716 6.61264C13.9145 6.61264 14.0287 6.61263 14.1716 6.52327C14.2859 6.4637 14.3716 6.37434 14.4859 6.31476L14.6002 6.28498L14.8002 6.43391L14.943 6.49348C15.0287 6.55306 15.143 6.55306 15.2573 6.55306C15.3716 6.55306 15.4573 6.49349 15.543 6.43391L15.6859 6.40412C15.8002 6.34455 15.8859 6.25519 15.9145 6.13604L16.0573 5.9871C16.0859 5.89774 16.0287 5.77859 15.943 5.71902L15.8573 5.54029L15.6859 5.42115C15.6573 5.24242 15.5145 5.06369 15.343 5.00412C15.1716 4.94454 15.0002 5.00413 14.8573 5.12328C14.7716 5.18285 14.7145 5.302 14.7145 5.42115C14.6573 5.51051 14.6002 5.59987 14.543 5.68923L14.4287 5.65944C14.2859 5.65944 14.143 5.71901 14.0002 5.7488C13.9145 5.77859 13.8287 5.7488 13.743 5.7488C13.6287 5.71901 13.5145 5.71902 13.4002 5.65944L13.2573 5.57008L13.0287 5.42115C12.9145 5.36157 12.8002 5.33178 12.6859 5.30199C12.5716 5.24242 12.4859 5.12327 12.4287 5.03391L12.5716 5.0637L12.6859 5.09349C12.7716 5.12327 12.8573 5.21264 12.943 5.27221L13.1145 5.39136L13.343 5.36157L13.1716 5.30199C13.0573 5.21263 13.0287 5.09348 12.9145 5.00412L12.743 4.91476C12.8287 4.79561 13.0002 4.73604 13.1145 4.79561C13.2287 4.8254 13.3145 4.8254 13.4287 4.8254L13.5145 4.79561C13.6573 4.8254 13.8002 4.91476 13.9145 5.03391L14.0287 5.18284L13.8859 5.36157L13.743 5.39136L13.8573 5.45093C13.943 5.5105 14.0573 5.48072 14.143 5.42115L14.1716 5.57008L14.343 5.65944L14.2859 5.54029L14.3716 5.42115L14.4573 5.51051L14.4287 5.62965L14.5716 5.57008L14.6287 5.39136L14.8002 5.24242C14.8573 5.15306 14.8573 5.03391 14.8573 4.94455C15.0859 5.00412 15.3145 5.00412 15.543 4.94455C15.6859 4.91476 15.8573 4.88497 16.0287 4.88497L16.2573 5.00412L16.2859 5.21263L16.4002 5.03391L16.3145 4.8254C16.2002 4.73604 16.0859 4.70625 15.943 4.70625C15.943 4.55731 15.8287 4.43816 15.6859 4.43816L15.4859 4.52753H15.2287L15.2573 4.37859L15.2002 4.22966L15.2287 4.14029L15.2573 4.05093L15.3145 3.99135C15.543 3.96157 15.7716 3.902 15.9716 3.75306C16.1716 3.6637 16.3716 3.72327 16.6002 3.69348L16.7716 3.60412L16.8287 3.48498L16.543 3.45519Z" fill="white"/>
</g>
</svg>
