<svg width="20" height="14" viewBox="0 0 20 14" fill="none" xmlns="http://www.w3.org/2000/svg">
<mask id="mask0" mask-type="alpha" maskUnits="userSpaceOnUse" x="0" y="0" width="20" height="14">
<rect width="20" height="14" rx="2" fill="#C4C4C4"/>
</mask>
<g mask="url(#mask0)">
<path d="M20 4.46826H0V9.53209H20V4.46826Z" fill="#F6D660"/>
<path d="M20 9.53174H0V13.9998H20V9.53174Z" fill="#52C162"/>
<path d="M20 0H0V4.46808H20V0Z" fill="#F54747"/>
<path d="M11.9713 6.88086L11.857 6.67235C11.8284 6.61277 11.7998 6.49363 11.7998 6.40426V6.16597C11.7998 6.07661 11.7427 5.98724 11.6856 5.95746L11.4856 5.83831C11.4284 5.80852 11.3427 5.71916 11.2856 5.65958L11.1713 5.45107C11.1427 5.39149 11.0284 5.33192 10.9713 5.33192H10.7427C10.657 5.33192 10.5427 5.30214 10.4856 5.27235L10.2856 5.1532C10.2284 5.12341 10.1141 5.12341 10.057 5.1532L9.85699 5.27235C9.79985 5.30214 9.68556 5.33192 9.59985 5.33192H9.37128C9.28556 5.33192 9.19985 5.39149 9.17127 5.45107L9.05699 5.65958C9.02842 5.71916 8.9427 5.80852 8.88556 5.8681L8.68556 5.98724C8.62842 6.01703 8.57128 6.13617 8.57128 6.19575V6.43405C8.57128 6.52341 8.5427 6.64256 8.51413 6.70214L8.39985 6.91065C8.37128 6.97022 8.37128 7.08937 8.39985 7.14894L8.51413 7.35746C8.5427 7.41703 8.57128 7.53618 8.57128 7.62554V7.86384C8.57128 7.9532 8.62842 8.04256 8.68556 8.07235L8.88556 8.1915C8.9427 8.22128 9.02842 8.31065 9.08556 8.37022L9.19985 8.57873C9.22842 8.6383 9.3427 8.69788 9.39985 8.69788H9.62842C9.71413 8.69788 9.82842 8.72767 9.88556 8.75745L10.0856 8.8766C10.1427 8.90639 10.257 8.90639 10.3141 8.8766L10.5141 8.75745C10.5713 8.72767 10.6856 8.69788 10.7713 8.69788H10.9998C11.0856 8.69788 11.1713 8.6383 11.1998 8.57873L11.3141 8.37022C11.3427 8.31065 11.4284 8.22128 11.4856 8.16171L11.6856 8.04256C11.7427 8.01277 11.7998 7.89362 11.7998 7.83405V7.59575C11.7998 7.50639 11.8284 7.38724 11.857 7.32767L11.9713 7.11916C11.9998 7.05958 11.9998 6.94044 11.9713 6.88086Z" fill="#F54747"/>
</g>
</svg>
