<svg width="20" height="14" viewBox="0 0 20 14" fill="none" xmlns="http://www.w3.org/2000/svg">
<mask id="mask0" mask-type="alpha" maskUnits="userSpaceOnUse" x="0" y="0" width="20" height="14">
<rect width="20" height="14" rx="2" fill="#C4C4C4"/>
</mask>
<g mask="url(#mask0)">
<path d="M20 0H0V14H20V0Z" fill="#4758A9"/>
<path d="M3.71436 0L14.2858 14V0H3.71436Z" fill="#F6D660"/>
<path d="M3.40014 1.66806L3.20013 1.42975C3.14299 1.37018 3.14299 1.25103 3.20013 1.19146L3.37156 0.893587C3.42871 0.834013 3.40013 0.804222 3.31442 0.834009L3.00013 0.953165C2.91442 0.982952 2.82871 0.953162 2.77156 0.893587L2.57156 0.655293C2.51442 0.595718 2.48585 0.595711 2.45728 0.685073V0.982945C2.45728 1.07231 2.40013 1.16167 2.31442 1.19146L2.02871 1.31061C1.94299 1.34039 1.97156 1.39997 2.02871 1.42975L2.31442 1.51912C2.40013 1.54891 2.45728 1.63826 2.45728 1.72763L2.48585 2.0255C2.48585 2.11486 2.54299 2.11486 2.60013 2.05529L2.74299 1.81699C2.80013 1.75742 2.88585 1.69784 2.97156 1.72763L3.28585 1.7872C3.42871 1.7872 3.45728 1.72763 3.40014 1.66806Z" fill="white"/>
<path d="M4.65697 3.30624L4.45697 3.06794C4.39983 3.00836 4.39983 2.88922 4.45697 2.82964L4.6284 2.53177C4.68554 2.4722 4.65697 2.44241 4.57126 2.47219L4.25697 2.59135C4.17126 2.62114 4.08554 2.59135 4.0284 2.53177L3.8284 2.29348C3.77126 2.2339 3.74269 2.23389 3.71411 2.32326V2.62113C3.71411 2.71049 3.65697 2.79986 3.57126 2.82964L3.28554 2.94879C3.19983 2.97858 3.2284 3.03815 3.28554 3.06794L3.57126 3.1573C3.65697 3.18709 3.71411 3.27645 3.71411 3.36581L3.74268 3.66368C3.74268 3.75304 3.79983 3.75305 3.85697 3.69347L3.99983 3.45518C4.05697 3.3956 4.14269 3.33602 4.2284 3.36581L4.54269 3.42539C4.65697 3.42539 4.68554 3.36582 4.65697 3.30624Z" fill="white"/>
<path d="M5.88549 4.94491L5.68549 4.70661C5.62834 4.64703 5.62834 4.52789 5.68549 4.46831L5.85692 4.17044C5.88549 4.11087 5.88549 4.08108 5.79977 4.11086L5.48549 4.23002C5.39977 4.25981 5.31406 4.23002 5.25692 4.17044L5.05691 3.93215C4.99977 3.87257 4.9712 3.87257 4.94263 3.96193V4.2598C4.94263 4.34916 4.88549 4.43853 4.79977 4.46831L4.51406 4.58746C4.42834 4.61725 4.45692 4.67682 4.51406 4.70661L4.79977 4.79598C4.88549 4.82576 4.94263 4.91512 4.94263 5.00448L4.9712 5.30235C4.9712 5.39172 5.02834 5.39172 5.08549 5.33214L5.22835 5.09385C5.28549 5.03427 5.3712 4.97469 5.45692 5.00448L5.7712 5.06406C5.91406 5.06406 5.94263 5.00449 5.88549 4.94491Z" fill="white"/>
<path d="M7.11449 6.5831L6.91449 6.34479C6.85735 6.28522 6.85735 6.16607 6.91449 6.1065L7.08592 5.80863C7.14306 5.74905 7.11449 5.71926 7.02877 5.74905L6.71449 5.8682C6.62878 5.89799 6.54306 5.8682 6.48592 5.80863L6.28592 5.57033C6.22878 5.51076 6.2002 5.51075 6.17163 5.60011V5.89798C6.17163 5.98735 6.11449 6.07671 6.02878 6.1065L5.74306 6.22565C5.65735 6.25543 5.68592 6.31501 5.74306 6.34479L6.02878 6.43416C6.11449 6.46395 6.17163 6.5533 6.17163 6.64267L6.2002 6.94054C6.2002 7.0299 6.25735 7.0299 6.31449 6.97033L6.45735 6.73203C6.51449 6.67246 6.6002 6.61288 6.68592 6.64267L7.0002 6.70224C7.14306 6.70224 7.17163 6.64267 7.11449 6.5831Z" fill="white"/>
<path d="M8.34301 8.22128L8.14301 7.98298C8.08586 7.9234 8.08586 7.80426 8.14301 7.74468L8.31443 7.44681C8.37158 7.38724 8.34301 7.35744 8.25729 7.38723L7.94301 7.50639C7.85729 7.53618 7.77158 7.50638 7.71443 7.44681L7.51444 7.20852C7.45729 7.14894 7.42872 7.14893 7.40015 7.2383V7.53617C7.40015 7.62553 7.34301 7.7149 7.25729 7.74468L6.97158 7.86383C6.88586 7.89362 6.91443 7.95319 6.97158 7.98298L7.25729 8.07234C7.34301 8.10213 7.40015 8.19149 7.40015 8.28085L7.42872 8.57872C7.42872 8.66808 7.48586 8.66808 7.54301 8.60851L7.68586 8.37022C7.74301 8.31064 7.82872 8.25106 7.91443 8.28085L8.22872 8.34043C8.37158 8.34043 8.40015 8.28085 8.34301 8.22128Z" fill="white"/>
<path d="M9.59984 9.85946L9.39984 9.62116C9.3427 9.56159 9.3427 9.44244 9.39984 9.38287L9.57127 9.08499C9.62841 9.02542 9.59984 8.99563 9.51413 9.02542L9.19984 9.14457C9.11413 9.17436 9.02841 9.14457 8.97127 9.08499L8.77127 8.8467C8.71413 8.78712 8.68556 8.78712 8.65699 8.87648V9.17435C8.65699 9.26371 8.59984 9.35308 8.51413 9.38287L8.22841 9.50201C8.1427 9.5318 8.17127 9.59137 8.22841 9.62116L8.51413 9.71053C8.59984 9.74031 8.65699 9.82967 8.65699 9.91903L8.68556 10.2169C8.68556 10.3063 8.7427 10.3063 8.79984 10.2467L8.9427 10.0084C8.99984 9.94883 9.08555 9.88925 9.17127 9.91903L9.48555 9.97861C9.62841 9.97861 9.62841 9.91904 9.59984 9.85946Z" fill="white"/>
<path d="M10.8284 11.4981L10.6284 11.2598C10.5712 11.2003 10.5712 11.0811 10.6284 11.0215L10.7998 10.7237C10.8569 10.6641 10.8284 10.6343 10.7426 10.6641L10.4284 10.7832C10.3426 10.813 10.2569 10.7832 10.1998 10.7237L9.99979 10.4854C9.94264 10.4258 9.91407 10.4258 9.8855 10.5152V10.813C9.8855 10.9024 9.82836 10.9918 9.74264 11.0215L9.45693 11.1407C9.37121 11.1705 9.39979 11.23 9.45693 11.2598L9.74264 11.3492C9.82836 11.379 9.8855 11.4683 9.8855 11.5577L9.91407 11.8556C9.91407 11.9449 9.97121 11.9449 10.0284 11.8854L10.1712 11.6471C10.2284 11.5875 10.3141 11.5279 10.3998 11.5577L10.7141 11.6173C10.8569 11.6173 10.8855 11.5577 10.8284 11.4981Z" fill="white"/>
<path d="M11.8855 12.898L11.6855 12.6597C11.6283 12.6002 11.6283 12.481 11.6855 12.4214L11.8569 12.1236C11.9141 12.064 11.8855 12.0342 11.7998 12.064L11.4855 12.1831C11.3998 12.2129 11.3141 12.1831 11.2569 12.1236L11.0569 11.8853C10.9998 11.8257 10.9712 11.8257 10.9426 11.9151V12.2129C10.9426 12.3023 10.8855 12.3917 10.7998 12.4214L10.5141 12.5406C10.4283 12.5704 10.4569 12.63 10.5141 12.6597L10.7998 12.7491C10.8855 12.7789 10.9426 12.8682 10.9426 12.9576L10.9712 13.2555C10.9712 13.3448 11.0283 13.3448 11.0855 13.2853L11.2283 13.047C11.2855 12.9874 11.3712 12.9278 11.4569 12.9576L11.7712 13.0172C11.9141 13.0172 11.9426 12.9874 11.8855 12.898Z" fill="white"/>
</g>
</svg>
