<svg width="20" height="14" viewBox="0 0 20 14" fill="none" xmlns="http://www.w3.org/2000/svg">
<mask id="mask0" mask-type="alpha" maskUnits="userSpaceOnUse" x="0" y="0" width="20" height="14">
<rect width="20" height="14" rx="2" fill="#C4C4C4"/>
</mask>
<g mask="url(#mask0)">
<path d="M20 0H0V14H20V0Z" fill="#52C162"/>
<path d="M10.0001 0.297852L1.65723 6.99998L10.0001 13.7021L18.3429 6.99998L10.0001 0.297852Z" fill="#F6D660"/>
<path d="M13.9709 8.55792C14.8767 6.27805 13.8383 3.66429 11.6515 2.71992C9.46467 1.77555 6.95759 2.85818 6.05176 5.13805C5.14594 7.41792 6.18438 10.0317 8.37119 10.976C10.558 11.9204 13.0651 10.8378 13.9709 8.55792Z" fill="#4758A9"/>
<path d="M8.68578 4.46826C7.71436 4.46826 6.7715 4.73635 5.9715 5.18316C5.88578 5.39167 5.80007 5.62997 5.71436 5.86826C6.51436 5.45124 7.40007 5.21294 8.34293 5.21294C10.7715 5.21294 12.8572 6.76187 13.7144 8.96613C13.8286 8.69804 13.9429 8.42996 14.0001 8.13209C13.1144 5.95762 11.0572 4.46826 8.68578 4.46826Z" fill="#F5F7FA"/>
</g>
</svg>
