<svg width="20" height="14" viewBox="0 0 20 14" fill="none" xmlns="http://www.w3.org/2000/svg">
<mask id="mask0" mask-type="alpha" maskUnits="userSpaceOnUse" x="0" y="0" width="20" height="14">
<rect width="20" height="14" rx="2" fill="#C4C4C4"/>
</mask>
<g mask="url(#mask0)">
<path d="M20 0H0V14H20V0Z" fill="#4758A9"/>
<mask id="mask1" mask-type="alpha" maskUnits="userSpaceOnUse" x="0" y="0" width="8" height="8">
<rect width="7.14286" height="7.14894" fill="#C4C4C4"/>
</mask>
<g mask="url(#mask1)">
<path d="M-0.0306352 -1.16617L-1.12157 -0.0288163L6.87876 8.31195L7.96969 7.17459L-0.0306352 -1.16617Z" fill="white"/>
<path d="M6.87973 -1.16354L-1.12062 7.17725L-0.0296585 8.31464L7.97069 -0.0261548L6.87973 -1.16354Z" fill="white"/>
<path d="M7.06155 -0.636648L-0.635737 7.38818L-0.23168 7.80943L7.4656 -0.215397L7.06155 -0.636648Z" fill="#F54747"/>
<path d="M-0.231197 -0.657579L-0.635254 -0.236328L7.06203 7.7885L7.46609 7.36725L-0.231197 -0.657579Z" fill="#F54747"/>
<path d="M4.00028 0H2.85742V7.14894H4.00028V0Z" fill="white"/>
<path d="M7.14334 2.97852H0.000488281V4.17001H7.14334V2.97852Z" fill="white"/>
<path d="M3.71449 0H3.14307V7.14894H3.71449V0Z" fill="#F54747"/>
<path d="M7.14334 3.27637H0.000488281V3.87211H7.14334V3.27637Z" fill="#F54747"/>
</g>
<path d="M16.0004 3.87256C16.0004 3.87256 16.0004 6.49384 16.0004 7.47682C16.0004 8.45979 15.9147 8.75767 15.3718 9.08532C14.8004 9.3832 14.0575 9.80022 13.7147 9.94915C13.3718 9.80022 12.629 9.3832 12.0861 9.08532C11.5147 8.78745 11.4575 8.45979 11.4575 7.47682C11.4575 6.49384 11.4575 3.87256 11.4575 3.87256H16.0004Z" fill="#008766"/>
<path d="M13.7144 10.7235C14.8573 10.7235 15.6287 10.098 16.143 9.59162C16.2573 9.65119 16.2859 9.8597 16.4573 9.8597C16.6573 9.8597 16.8002 9.71077 16.8287 9.56183C16.8573 9.38311 16.743 9.29374 16.6287 9.17459C16.543 9.08523 16.343 8.84694 16.2859 8.78736C16.2002 8.66821 16.0859 8.63843 15.8859 8.84694C15.5716 9.26396 14.743 10.0682 13.6859 10.0682C12.6287 10.0682 11.8001 9.23417 11.4859 8.84694C11.3144 8.60864 11.1716 8.66821 11.0859 8.78736C11.0287 8.87672 10.8573 9.08523 10.743 9.17459C10.6287 9.26395 10.5145 9.35332 10.543 9.56183C10.5716 9.71077 10.7144 9.8597 10.9144 9.8597C11.0859 9.8597 11.143 9.65119 11.2287 9.59162C11.8002 10.098 12.5716 10.7235 13.7144 10.7235Z" fill="#FFEB95"/>
<path d="M11.7717 9.38331C11.7717 9.35352 11.7717 9.32373 11.7717 9.32373L11.9432 9.47266C11.9146 9.44288 11.886 9.44288 11.886 9.47266L11.8003 9.71097L12.0289 9.59182C12.086 9.56203 12.0575 9.53224 12.0289 9.50245L12.1432 9.59182C12.1146 9.56203 12.1146 9.56203 12.086 9.59182L11.7146 9.77054H11.686L11.7717 9.38331Z" fill="black"/>
<path d="M12.2002 10.128C12.1717 10.1577 12.2003 10.1875 12.2288 10.2173L12.0288 10.0982C12.0574 10.0982 12.086 10.128 12.1145 10.0982L12.286 9.83008C12.3145 9.8003 12.286 9.77051 12.2574 9.74073L12.4574 9.85987C12.4288 9.85987 12.4003 9.83009 12.3717 9.85987L12.2002 10.128Z" fill="black"/>
<path d="M12.7148 10.4555C12.6005 10.396 12.5148 10.3066 12.5719 10.1577C12.629 10.0385 12.7433 9.97894 12.8576 10.0385C12.9148 10.0683 12.9433 10.0683 12.9433 10.0981C12.9719 10.1279 12.9719 10.0981 13.0005 10.0981H13.029L12.9719 10.247H12.9433C12.9433 10.1279 12.8862 10.0981 12.829 10.0683C12.8005 10.0683 12.7148 10.0385 12.6576 10.2172C12.6291 10.3662 12.6862 10.396 12.7148 10.4555C12.7433 10.4555 12.7719 10.4555 12.8005 10.4257C12.8005 10.396 12.829 10.3662 12.829 10.3364C12.829 10.3066 12.8291 10.2768 12.8005 10.2768L13.0005 10.3364C12.9719 10.3364 12.9433 10.3364 12.9433 10.3662C12.9433 10.396 12.9147 10.4555 12.9147 10.4555C12.829 10.4853 12.7719 10.4555 12.7148 10.4555Z" fill="black"/>
<path d="M13.3716 10.5449C13.3716 10.5747 13.4002 10.6045 13.4288 10.6045L13.2002 10.5747C13.2288 10.5747 13.2573 10.5747 13.2573 10.5449L13.2859 10.2173C13.2859 10.1875 13.2574 10.1577 13.2288 10.1577L13.4573 10.1875C13.4288 10.1875 13.4002 10.1875 13.4002 10.2173L13.3716 10.5449Z" fill="black"/>
<path d="M13.9146 10.1875C13.886 10.2173 13.8575 10.2173 13.8575 10.2471L13.886 10.5449C13.886 10.5747 13.9146 10.6045 13.9146 10.6045C13.9432 10.6045 13.9432 10.6045 13.9718 10.6045C14.0289 10.6045 14.086 10.5449 14.086 10.4556H14.1146L14.086 10.6045L13.7146 10.6343C13.7432 10.6343 13.7717 10.6045 13.7717 10.5747L13.7432 10.2471C13.7432 10.2173 13.7146 10.2173 13.686 10.1875H13.9146Z" fill="black"/>
<path d="M14.6004 10.3067L14.4861 10.3364C14.4861 10.2173 14.4861 10.1577 14.4861 10.1577C14.4861 10.1577 14.4861 10.1875 14.6004 10.3067C14.629 10.3364 14.6575 10.3662 14.6575 10.396C14.6861 10.4258 14.6575 10.4556 14.6289 10.4556L14.829 10.396C14.7718 10.396 14.7718 10.396 14.7432 10.3662C14.4861 10.0684 14.4861 10.0684 14.4861 10.0684H14.4575C14.4575 10.0684 14.4575 10.0684 14.429 10.4854C14.429 10.5152 14.4004 10.545 14.4004 10.545L14.5147 10.5152C14.4861 10.5152 14.4575 10.5152 14.4575 10.4556C14.4575 10.4258 14.4575 10.4258 14.4575 10.396L14.6004 10.3067Z" fill="black"/>
<path d="M15.1719 10.2471C15.1719 10.2173 15.2005 10.1875 15.1719 10.1578L15.0005 9.85988H14.972C14.9434 9.88967 14.9148 9.94924 14.9434 10.0088L14.8862 9.88967L15.2005 9.68115L15.2577 9.8003C15.2291 9.74073 15.1434 9.74072 15.1148 9.77051H15.0862L15.2577 10.0684C15.2862 10.0982 15.3148 10.0982 15.3148 10.0982L15.1719 10.2471Z" fill="black"/>
<path d="M15.4573 9.59182C15.4287 9.56203 15.4002 9.59182 15.3716 9.59182L15.6573 9.32373L15.743 9.44288C15.6859 9.38331 15.6002 9.4131 15.5716 9.44288C15.543 9.44288 15.543 9.47266 15.5145 9.47266C15.5145 9.47266 15.5145 9.50245 15.5145 9.53224C15.543 9.56203 15.6001 9.65139 15.6001 9.65139C15.6287 9.6216 15.6859 9.59181 15.6287 9.50245L15.7716 9.68118C15.6859 9.59182 15.6573 9.65139 15.6287 9.68118L15.7144 9.80033C15.743 9.83011 15.743 9.83011 15.7716 9.83011C15.7716 9.83011 15.8002 9.80033 15.8287 9.80033C15.8573 9.77054 15.8859 9.71096 15.8573 9.6216H15.8859L15.943 9.74076L15.6573 10.0088C15.6859 9.97905 15.6859 9.94926 15.6859 9.91947L15.4573 9.59182Z" fill="black"/>
<path d="M11.8291 3.9917C11.8862 4.02148 11.8576 4.05127 11.8862 4.11084C11.9148 4.17042 11.8576 4.20021 11.8862 4.25978C11.8862 4.28957 11.9148 4.34915 11.8862 4.34915C11.8291 4.37893 11.8576 4.40872 11.8291 4.43851C11.8005 4.46829 11.8005 4.46829 11.8005 4.46829C11.8005 4.43851 11.7433 4.40872 11.7719 4.34915C11.8005 4.31936 11.8005 4.28957 11.7719 4.25978C11.7433 4.22999 11.7433 4.17042 11.7719 4.11084C11.829 4.11084 11.8576 4.02148 11.8291 3.9917Z" fill="#F7AD4C"/>
<path d="M12.1718 4.08106C12.1432 4.08106 12.1432 4.14063 12.1718 4.14063C12.229 4.14063 12.229 4.08106 12.1718 4.08106Z" fill="#FFE000"/>
<path d="M12.143 4.14062C12.1144 4.14062 12.1144 4.2002 12.143 4.2002C12.2002 4.17041 12.2002 4.14062 12.143 4.14062Z" fill="#FFE000"/>
<path d="M12.1147 4.17041C12.0861 4.17041 12.0861 4.22999 12.1147 4.22999C12.1718 4.22999 12.1433 4.17041 12.1147 4.17041Z" fill="#FFE000"/>
<path d="M12.0859 4.22998C12.0573 4.22998 12.0573 4.28955 12.0859 4.28955C12.1145 4.28955 12.1145 4.22998 12.0859 4.22998Z" fill="#FFE000"/>
<path d="M12.0575 4.25976C12.029 4.25976 12.029 4.31934 12.0575 4.31934C12.0861 4.31934 12.0861 4.25976 12.0575 4.25976Z" fill="#FFE000"/>
<path d="M12.0004 4.31934C11.9719 4.31934 11.9719 4.37891 12.0004 4.37891C12.0576 4.37891 12.0576 4.31934 12.0004 4.31934Z" fill="#FFE000"/>
<path d="M11.9716 4.34912C11.9431 4.34912 11.9431 4.40869 11.9716 4.40869C12.0288 4.40869 12.0288 4.34912 11.9716 4.34912Z" fill="#FFE000"/>
<path d="M11.9433 4.40869C11.9147 4.40869 11.9147 4.46827 11.9433 4.46827C12.0005 4.46827 11.9719 4.40869 11.9433 4.40869Z" fill="#FFE000"/>
<path d="M12.286 4.08106C12.3146 4.08106 12.3146 4.14063 12.286 4.14063C12.2289 4.14063 12.2289 4.08106 12.286 4.08106Z" fill="#FFE000"/>
<path d="M12.3147 4.14062C12.3433 4.14062 12.3433 4.2002 12.3147 4.2002C12.2576 4.17041 12.2862 4.14062 12.3147 4.14062Z" fill="#FFE000"/>
<path d="M12.3432 4.17041C12.3718 4.17041 12.3718 4.22999 12.3432 4.22999C12.3146 4.22999 12.3146 4.17041 12.3432 4.17041Z" fill="#FFE000"/>
<path d="M12.3715 4.22998C12.4001 4.22998 12.4001 4.28955 12.3715 4.28955C12.343 4.28955 12.343 4.22998 12.3715 4.22998Z" fill="#FFE000"/>
<path d="M12.4003 4.25976C12.4289 4.25976 12.4289 4.31934 12.4003 4.31934C12.3718 4.31934 12.3718 4.25976 12.4003 4.25976Z" fill="#FFE000"/>
<path d="M12.4574 4.31934C12.486 4.31934 12.486 4.37891 12.4574 4.37891C12.4003 4.37891 12.4003 4.31934 12.4574 4.31934Z" fill="#FFE000"/>
<path d="M12.4863 4.34912C12.5148 4.34912 12.5148 4.40869 12.4863 4.40869C12.4577 4.40869 12.4577 4.34912 12.4863 4.34912Z" fill="#FFE000"/>
<path d="M12.5146 4.40869C12.5432 4.40869 12.5432 4.46827 12.5146 4.46827C12.486 4.46827 12.486 4.40869 12.5146 4.40869Z" fill="#FFE000"/>
<path d="M12.6576 4.55761C12.629 4.55761 12.6004 4.5874 12.629 4.61719L12.6576 4.55761Z" fill="#FFE000"/>
<path d="M12.3432 4.61719C12.3718 4.64697 12.4004 4.67677 12.4004 4.67677C12.4004 4.70655 12.4004 4.73633 12.2289 4.73633C12.0575 4.73633 12.0289 4.70655 12.0575 4.67677C12.0575 4.64698 12.0861 4.64697 12.1147 4.61719" fill="#FFE000"/>
<path d="M12.3717 4.46827C12.286 4.43849 12.2288 4.31934 12.2288 4.28955C12.2288 4.31934 12.1717 4.43849 12.086 4.46827H12.3717Z" fill="#FFE000"/>
<path d="M11.9432 4.46826C11.886 4.46826 11.8003 4.46826 11.7432 4.46826C11.7432 4.52784 11.7717 4.55762 11.9717 4.55762C11.9717 4.52783 11.9432 4.49805 11.9432 4.46826Z" fill="#FFE000"/>
<path d="M11.9145 4.46851C11.9145 4.46851 12.4288 4.46851 12.486 4.46851C12.5431 4.46851 12.6003 4.43873 12.6288 4.37916C12.6574 4.31958 12.8003 4.28979 12.8003 4.37916C12.8289 4.46852 12.7146 4.52809 12.6574 4.52809C12.686 4.52809 12.686 4.58766 12.6574 4.58766C12.6289 4.61745 12.6003 4.58766 12.6003 4.55787C12.6003 4.52809 12.6003 4.4983 12.6574 4.46851C12.7146 4.43873 12.7717 4.40894 12.7717 4.34937C12.7431 4.31958 12.686 4.40894 12.6574 4.46851C12.6003 4.55788 12.5146 4.67703 12.4003 4.67703C12.3146 4.67703 12.286 4.67703 12.2289 4.67703C12.1146 4.76639 11.9145 4.46851 11.9145 4.46851Z" fill="#FFE000"/>
<path d="M11.8291 4.82569C11.8862 4.85547 11.8576 4.88526 11.8862 4.94483C11.9148 5.00441 11.8576 5.0342 11.8862 5.09377C11.8862 5.12356 11.9148 5.18313 11.8862 5.18313C11.8291 5.21292 11.8576 5.24271 11.8291 5.2725C11.8005 5.30228 11.8005 5.30228 11.8005 5.30228C11.8005 5.27249 11.7433 5.2427 11.7719 5.18313C11.8005 5.15334 11.8005 5.12356 11.7719 5.09377C11.7433 5.06398 11.7433 5.00441 11.7719 4.94483C11.829 4.94483 11.8576 4.85547 11.8291 4.82569Z" fill="#F7AD4C"/>
<path d="M12.1718 4.91504C12.1432 4.91504 12.1432 4.97462 12.1718 4.97462C12.229 4.97462 12.229 4.91504 12.1718 4.91504Z" fill="#FFE000"/>
<path d="M12.143 4.97461C12.1144 4.97461 12.1144 5.03418 12.143 5.03418C12.2002 5.00439 12.2002 4.97461 12.143 4.97461Z" fill="#FFE000"/>
<path d="M12.1147 5.00439C12.0861 5.00439 12.0861 5.06397 12.1147 5.06397C12.1718 5.06397 12.1433 5.00439 12.1147 5.00439Z" fill="#FFE000"/>
<path d="M12.0859 5.06396C12.0573 5.06396 12.0573 5.12354 12.0859 5.12354C12.1145 5.09376 12.1145 5.06396 12.0859 5.06396Z" fill="#FFE000"/>
<path d="M12.0575 5.09375C12.029 5.09375 12.029 5.15332 12.0575 5.15332C12.0861 5.15332 12.0861 5.09375 12.0575 5.09375Z" fill="#FFE000"/>
<path d="M12.0004 5.15332C11.9719 5.15332 11.9719 5.21289 12.0004 5.21289C12.0576 5.18311 12.0576 5.15332 12.0004 5.15332Z" fill="#FFE000"/>
<path d="M11.9716 5.1831C11.9431 5.1831 11.9431 5.24268 11.9716 5.24268C12.0288 5.24268 12.0288 5.1831 11.9716 5.1831Z" fill="#FFE000"/>
<path d="M11.9433 5.24268C11.9147 5.24268 11.9147 5.30225 11.9433 5.30225C12.0005 5.27246 11.9719 5.24268 11.9433 5.24268Z" fill="#FFE000"/>
<path d="M12.286 4.91504C12.3146 4.91504 12.3146 4.97462 12.286 4.97462C12.2289 4.97462 12.2289 4.91504 12.286 4.91504Z" fill="#FFE000"/>
<path d="M12.3147 4.97461C12.3433 4.97461 12.3433 5.03418 12.3147 5.03418C12.2576 5.00439 12.2862 4.97461 12.3147 4.97461Z" fill="#FFE000"/>
<path d="M12.3432 5.00439C12.3718 5.00439 12.3718 5.06397 12.3432 5.06397C12.3146 5.06397 12.3146 5.00439 12.3432 5.00439Z" fill="#FFE000"/>
<path d="M12.3715 5.06396C12.4001 5.06396 12.4001 5.12354 12.3715 5.12354C12.343 5.09376 12.343 5.06396 12.3715 5.06396Z" fill="#FFE000"/>
<path d="M12.4003 5.09375C12.4289 5.09375 12.4289 5.15332 12.4003 5.15332C12.3718 5.15332 12.3718 5.09375 12.4003 5.09375Z" fill="#FFE000"/>
<path d="M12.4574 5.15332C12.486 5.15332 12.486 5.21289 12.4574 5.21289C12.4003 5.18311 12.4003 5.15332 12.4574 5.15332Z" fill="#FFE000"/>
<path d="M12.4863 5.1831C12.5148 5.1831 12.5148 5.24268 12.4863 5.24268C12.4577 5.24268 12.4577 5.1831 12.4863 5.1831Z" fill="#FFE000"/>
<path d="M12.5146 5.24268C12.5432 5.24268 12.5432 5.30225 12.5146 5.30225C12.486 5.27246 12.486 5.24268 12.5146 5.24268Z" fill="#FFE000"/>
<path d="M12.6576 5.36182C12.629 5.36182 12.6004 5.39161 12.629 5.42139L12.6576 5.36182Z" fill="#FFE000"/>
<path d="M12.3432 5.45117C12.3718 5.48096 12.4004 5.51075 12.4004 5.51075C12.4004 5.54053 12.4004 5.57032 12.2289 5.57032C12.0575 5.57032 12.0289 5.54053 12.0575 5.51075C12.0575 5.48096 12.0861 5.48096 12.1147 5.45117" fill="#FFE000"/>
<path d="M12.3717 5.30226C12.286 5.27247 12.2288 5.15333 12.2288 5.12354C12.2288 5.15333 12.1717 5.27247 12.086 5.30226H12.3717Z" fill="#FFE000"/>
<path d="M11.9432 5.30224C11.886 5.30224 11.8003 5.30224 11.7432 5.30224C11.7432 5.36182 11.7717 5.39161 11.9717 5.39161C11.9717 5.36182 11.9432 5.33203 11.9432 5.30224Z" fill="#FFE000"/>
<path d="M11.9145 5.36207C11.9145 5.36207 12.4288 5.36207 12.486 5.36207C12.5431 5.36207 12.6003 5.27271 12.6288 5.24292C12.6574 5.18335 12.8003 5.15356 12.8003 5.24292C12.8289 5.33229 12.7146 5.36207 12.6574 5.39186C12.686 5.39186 12.686 5.45143 12.6574 5.45143C12.6289 5.48122 12.6003 5.45144 12.6003 5.42165C12.6003 5.39186 12.6003 5.36207 12.6574 5.33228C12.7146 5.3025 12.7717 5.27271 12.7717 5.21314C12.7431 5.18335 12.686 5.18335 12.6574 5.21314C12.6003 5.3025 12.5146 5.33228 12.4003 5.33228C12.3146 5.33228 12.286 5.33228 12.2289 5.33228C12.1146 5.36207 11.9145 5.36207 11.9145 5.36207Z" fill="#FFE000"/>
<path d="M11.8291 5.65967C11.8862 5.68946 11.8576 5.71924 11.8862 5.77882C11.9148 5.83839 11.8576 5.86818 11.8862 5.92775C11.8862 5.95754 11.9148 6.01712 11.8862 6.01712C11.8291 6.04691 11.8576 6.07669 11.8291 6.10648C11.8005 6.13626 11.8005 6.13627 11.8005 6.13627C11.8005 6.10648 11.7433 6.07669 11.7719 6.01712C11.8005 5.98733 11.8005 5.95754 11.7719 5.92775C11.7433 5.89796 11.7433 5.83839 11.7719 5.77882C11.829 5.74903 11.8576 5.68946 11.8291 5.65967Z" fill="#F7AD4C"/>
<path d="M12.1718 5.74902C12.1432 5.74902 12.1432 5.8086 12.1718 5.8086C12.229 5.8086 12.229 5.74902 12.1718 5.74902Z" fill="#FFE000"/>
<path d="M12.143 5.80841C12.1144 5.80841 12.1144 5.86799 12.143 5.86799C12.2002 5.8382 12.2002 5.77862 12.143 5.80841Z" fill="#FFE000"/>
<path d="M12.1147 5.83838C12.0861 5.83838 12.0861 5.89795 12.1147 5.89795C12.1718 5.89795 12.1433 5.83838 12.1147 5.83838Z" fill="#FFE000"/>
<path d="M12.0859 5.89776C12.0573 5.89776 12.0573 5.95734 12.0859 5.95734C12.1145 5.92755 12.1145 5.86798 12.0859 5.89776Z" fill="#FFE000"/>
<path d="M12.0575 5.92773C12.029 5.92773 12.029 5.98731 12.0575 5.98731C12.0861 5.98731 12.0861 5.92773 12.0575 5.92773Z" fill="#FFE000"/>
<path d="M12.0004 5.98712C11.9719 5.98712 11.9719 6.04669 12.0004 6.04669C12.0576 6.01691 12.0576 5.95734 12.0004 5.98712Z" fill="#FFE000"/>
<path d="M11.9716 6.01709C11.9431 6.01709 11.9431 6.07666 11.9716 6.07666C12.0288 6.07666 12.0288 6.01709 11.9716 6.01709Z" fill="#FFE000"/>
<path d="M11.9433 6.07648C11.9147 6.07648 11.9147 6.13605 11.9433 6.13605C12.0005 6.10627 11.9719 6.04669 11.9433 6.07648Z" fill="#FFE000"/>
<path d="M12.286 5.74902C12.3146 5.74902 12.3146 5.8086 12.286 5.8086C12.2289 5.8086 12.2289 5.74902 12.286 5.74902Z" fill="#FFE000"/>
<path d="M12.3147 5.80841C12.3433 5.80841 12.3433 5.86799 12.3147 5.86799C12.2576 5.8382 12.2862 5.77862 12.3147 5.80841Z" fill="#FFE000"/>
<path d="M12.3432 5.83838C12.3718 5.83838 12.3718 5.89795 12.3432 5.89795C12.3146 5.89795 12.3146 5.83838 12.3432 5.83838Z" fill="#FFE000"/>
<path d="M12.3715 5.89776C12.4001 5.89776 12.4001 5.95734 12.3715 5.95734C12.343 5.92755 12.343 5.86798 12.3715 5.89776Z" fill="#FFE000"/>
<path d="M12.4003 5.92773C12.4289 5.92773 12.4289 5.98731 12.4003 5.98731C12.3718 5.98731 12.3718 5.92773 12.4003 5.92773Z" fill="#FFE000"/>
<path d="M12.4574 5.98712C12.486 5.98712 12.486 6.04669 12.4574 6.04669C12.4003 6.01691 12.4003 5.95734 12.4574 5.98712Z" fill="#FFE000"/>
<path d="M12.4863 6.01709C12.5148 6.01709 12.5148 6.07666 12.4863 6.07666C12.4577 6.07666 12.4577 6.01709 12.4863 6.01709Z" fill="#FFE000"/>
<path d="M12.5146 6.07648C12.5432 6.07648 12.5432 6.13605 12.5146 6.13605C12.486 6.10627 12.486 6.04669 12.5146 6.07648Z" fill="#FFE000"/>
<path d="M12.6576 6.1958C12.629 6.1958 12.6004 6.22559 12.629 6.25538L12.6576 6.1958Z" fill="#FFE000"/>
<path d="M12.3432 6.28516C12.3718 6.31495 12.4004 6.34473 12.4004 6.34473C12.4004 6.37451 12.4004 6.4043 12.2289 6.4043C12.0575 6.4043 12.0289 6.37451 12.0575 6.34473C12.0575 6.31494 12.0861 6.31495 12.1147 6.28516" fill="#FFE000"/>
<path d="M12.3717 6.13624C12.286 6.10646 12.2288 5.98731 12.2288 5.95752C12.2288 5.98731 12.1717 6.10646 12.086 6.13624H12.3717Z" fill="#FFE000"/>
<path d="M11.9432 6.10645C11.886 6.10645 11.8003 6.10645 11.7432 6.10645C11.7432 6.16602 11.7717 6.1958 11.9717 6.1958C11.9717 6.1958 11.9432 6.16602 11.9432 6.10645Z" fill="#FFE000"/>
<path d="M11.9145 6.25554C11.9145 6.25554 12.4288 6.25554 12.486 6.25554C12.5431 6.25554 12.6003 6.13639 12.6288 6.10661C12.6574 6.04703 12.8003 5.98746 12.8003 6.07682C12.8289 6.16618 12.7146 6.19597 12.6574 6.22575C12.686 6.22575 12.686 6.25554 12.6574 6.28533C12.6289 6.31512 12.6003 6.28533 12.6003 6.25554C12.6003 6.22576 12.6003 6.19597 12.6574 6.16618C12.7146 6.1364 12.7717 6.1066 12.7717 6.04703C12.7431 6.01724 12.686 6.04703 12.6574 6.10661C12.6003 6.19597 12.5146 6.25554 12.4003 6.25554C12.3146 6.25554 12.286 6.25554 12.2289 6.25554C12.1146 6.25554 11.9145 6.25554 11.9145 6.25554Z" fill="#FFE000"/>
<path d="M11.8291 7.32813C11.8862 7.35791 11.8576 7.3877 11.8862 7.44727C11.9148 7.50685 11.8576 7.53664 11.8862 7.59621C11.8862 7.626 11.9148 7.68557 11.8862 7.68557C11.8291 7.71535 11.8576 7.74515 11.8291 7.77493C11.8005 7.80472 11.8005 7.80472 11.8005 7.80472C11.8005 7.77494 11.7433 7.74514 11.7719 7.68557C11.8005 7.65578 11.8005 7.626 11.7719 7.59621C11.7433 7.56642 11.7433 7.50685 11.7719 7.44727C11.829 7.41749 11.8576 7.35791 11.8291 7.32813Z" fill="#F7AD4C"/>
<path d="M12.1718 7.41748C12.1432 7.41748 12.1432 7.47706 12.1718 7.47706C12.229 7.47706 12.229 7.41748 12.1718 7.41748Z" fill="#FFE000"/>
<path d="M12.143 7.44727C12.1144 7.44727 12.1144 7.50684 12.143 7.50684C12.2002 7.50684 12.2002 7.44727 12.143 7.44727Z" fill="#FFE000"/>
<path d="M12.1147 7.50684C12.0861 7.50684 12.0861 7.56641 12.1147 7.56641C12.1718 7.56641 12.1433 7.50684 12.1147 7.50684Z" fill="#FFE000"/>
<path d="M12.0859 7.53662C12.0573 7.53662 12.0573 7.5962 12.0859 7.5962C12.1145 7.5962 12.1145 7.53662 12.0859 7.53662Z" fill="#FFE000"/>
<path d="M12.0575 7.59619C12.029 7.59619 12.029 7.65577 12.0575 7.65577C12.0861 7.65577 12.0861 7.59619 12.0575 7.59619Z" fill="#FFE000"/>
<path d="M12.0004 7.62598C11.9719 7.62598 11.9719 7.68555 12.0004 7.68555C12.0576 7.68555 12.0576 7.62598 12.0004 7.62598Z" fill="#FFE000"/>
<path d="M11.9716 7.68554C11.9431 7.68554 11.9431 7.74512 11.9716 7.74512C12.0288 7.74512 12.0288 7.68554 11.9716 7.68554Z" fill="#FFE000"/>
<path d="M11.9433 7.71533C11.9147 7.71533 11.9147 7.77491 11.9433 7.77491C12.0005 7.77491 11.9719 7.71533 11.9433 7.71533Z" fill="#FFE000"/>
<path d="M12.286 7.41748C12.3146 7.41748 12.3146 7.47706 12.286 7.47706C12.2289 7.47706 12.2289 7.41748 12.286 7.41748Z" fill="#FFE000"/>
<path d="M12.3147 7.44727C12.3433 7.44727 12.3433 7.50684 12.3147 7.50684C12.2576 7.50684 12.2862 7.44727 12.3147 7.44727Z" fill="#FFE000"/>
<path d="M12.3432 7.50684C12.3718 7.50684 12.3718 7.56641 12.3432 7.56641C12.3146 7.56641 12.3146 7.50684 12.3432 7.50684Z" fill="#FFE000"/>
<path d="M12.3715 7.53662C12.4001 7.53662 12.4001 7.5962 12.3715 7.5962C12.343 7.5962 12.343 7.53662 12.3715 7.53662Z" fill="#FFE000"/>
<path d="M12.4003 7.59619C12.4289 7.59619 12.4289 7.65577 12.4003 7.65577C12.3718 7.65577 12.3718 7.59619 12.4003 7.59619Z" fill="#FFE000"/>
<path d="M12.4574 7.62598C12.486 7.62598 12.486 7.68555 12.4574 7.68555C12.4003 7.68555 12.4003 7.62598 12.4574 7.62598Z" fill="#FFE000"/>
<path d="M12.4863 7.68554C12.5148 7.68554 12.5148 7.74512 12.4863 7.74512C12.4577 7.74512 12.4577 7.68554 12.4863 7.68554Z" fill="#FFE000"/>
<path d="M12.5146 7.71533C12.5432 7.71533 12.5432 7.77491 12.5146 7.77491C12.486 7.77491 12.486 7.71533 12.5146 7.71533Z" fill="#FFE000"/>
<path d="M12.6576 7.86426C12.629 7.86426 12.6004 7.89405 12.629 7.92384L12.6576 7.86426Z" fill="#FFE000"/>
<path d="M12.3432 7.95362C12.3718 7.9834 12.4004 8.01318 12.4004 8.01318C12.4004 8.04297 12.4004 8.07276 12.2289 8.07276C12.0575 8.07276 12.0289 8.04297 12.0575 8.01318C12.0575 7.9834 12.0861 7.9834 12.1147 7.95362" fill="#FFE000"/>
<path d="M12.3717 7.8047C12.286 7.77492 12.2288 7.65577 12.2288 7.62598C12.2288 7.65577 12.1717 7.77492 12.086 7.8047H12.3717Z" fill="#FFE000"/>
<path d="M11.9432 7.7749C11.886 7.7749 11.8003 7.7749 11.7432 7.7749C11.7432 7.83448 11.7717 7.86426 11.9717 7.86426C11.9717 7.86426 11.9432 7.83448 11.9432 7.7749Z" fill="#FFE000"/>
<path d="M11.9145 7.74514C11.9145 7.74514 12.4288 7.74514 12.486 7.74514C12.5431 7.74514 12.6003 7.71535 12.6288 7.68556C12.6574 7.62598 12.8003 7.62599 12.8003 7.71535C12.8289 7.80471 12.7146 7.86429 12.6574 7.89407C12.686 7.89407 12.686 7.95365 12.6574 7.95365C12.6289 7.98344 12.6003 7.95365 12.6003 7.95365C12.6003 7.92386 12.6003 7.89407 12.6574 7.86428C12.7146 7.8345 12.7717 7.80471 12.7717 7.74514C12.7431 7.71535 12.686 7.80471 12.6574 7.86428C12.6003 7.95365 12.5146 8.0728 12.4003 8.0728C12.3146 8.0728 12.286 8.0728 12.2289 8.0728C12.1146 8.04301 11.9145 7.74514 11.9145 7.74514Z" fill="#FFE000"/>
<path d="M11.8291 8.13232C11.8862 8.16211 11.8576 8.1919 11.8862 8.25148C11.9148 8.31105 11.8576 8.34084 11.8862 8.40041C11.8862 8.4302 11.9148 8.48977 11.8862 8.48977C11.8291 8.51956 11.8576 8.54934 11.8291 8.57913C11.8005 8.60891 11.8005 8.60892 11.8005 8.60892C11.8005 8.57913 11.7433 8.54934 11.7719 8.48977C11.8005 8.45998 11.8005 8.4302 11.7719 8.40041C11.7433 8.37062 11.7433 8.31105 11.7719 8.25148C11.829 8.25148 11.8576 8.19189 11.8291 8.13232Z" fill="#F7AD4C"/>
<path d="M12.1718 8.25147C12.1432 8.25147 12.1432 8.31104 12.1718 8.31104C12.229 8.28125 12.229 8.25147 12.1718 8.25147Z" fill="#FFE000"/>
<path d="M12.143 8.28125C12.1144 8.28125 12.1144 8.34082 12.143 8.34082C12.2002 8.34082 12.2002 8.28125 12.143 8.28125Z" fill="#FFE000"/>
<path d="M12.1147 8.34082C12.0861 8.34082 12.0861 8.4004 12.1147 8.4004C12.1718 8.37061 12.1433 8.34082 12.1147 8.34082Z" fill="#FFE000"/>
<path d="M12.0859 8.37061C12.0573 8.37061 12.0573 8.43018 12.0859 8.43018C12.1145 8.43018 12.1145 8.37061 12.0859 8.37061Z" fill="#FFE000"/>
<path d="M12.0575 8.43017C12.029 8.43017 12.029 8.48975 12.0575 8.48975C12.0861 8.45996 12.0861 8.43017 12.0575 8.43017Z" fill="#FFE000"/>
<path d="M12.0004 8.45996C11.9719 8.45996 11.9719 8.51954 12.0004 8.51954C12.0576 8.51954 12.0576 8.45996 12.0004 8.45996Z" fill="#FFE000"/>
<path d="M11.9716 8.51953C11.9431 8.51953 11.9431 8.5791 11.9716 8.5791C12.0288 8.54932 12.0288 8.51953 11.9716 8.51953Z" fill="#FFE000"/>
<path d="M11.9433 8.54932C11.9147 8.54932 11.9147 8.60889 11.9433 8.60889C11.9719 8.60889 11.9719 8.54932 11.9433 8.54932Z" fill="#FFE000"/>
<path d="M12.286 8.25147C12.3146 8.25147 12.3146 8.31104 12.286 8.31104C12.2289 8.28125 12.2289 8.25147 12.286 8.25147Z" fill="#FFE000"/>
<path d="M12.3147 8.28125C12.3433 8.28125 12.3433 8.34082 12.3147 8.34082C12.2576 8.34082 12.2862 8.28125 12.3147 8.28125Z" fill="#FFE000"/>
<path d="M12.3432 8.34082C12.3718 8.34082 12.3718 8.4004 12.3432 8.4004C12.3146 8.37061 12.3146 8.34082 12.3432 8.34082Z" fill="#FFE000"/>
<path d="M12.3715 8.37061C12.4001 8.37061 12.4001 8.43018 12.3715 8.43018C12.343 8.43018 12.343 8.37061 12.3715 8.37061Z" fill="#FFE000"/>
<path d="M12.4003 8.43017C12.4289 8.43017 12.4289 8.48975 12.4003 8.48975C12.3718 8.45996 12.3718 8.43017 12.4003 8.43017Z" fill="#FFE000"/>
<path d="M12.4574 8.45996C12.486 8.45996 12.486 8.51954 12.4574 8.51954C12.4003 8.51954 12.4003 8.45996 12.4574 8.45996Z" fill="#FFE000"/>
<path d="M12.4863 8.51953C12.5148 8.51953 12.5148 8.5791 12.4863 8.5791C12.4577 8.5791 12.4577 8.51953 12.4863 8.51953Z" fill="#FFE000"/>
<path d="M12.5146 8.54932C12.5432 8.54932 12.5432 8.60889 12.5146 8.60889C12.486 8.60889 12.486 8.54932 12.5146 8.54932Z" fill="#FFE000"/>
<path d="M12.6576 8.69825C12.629 8.69825 12.6004 8.72803 12.629 8.75782L12.6576 8.69825Z" fill="#FFE000"/>
<path d="M12.3432 8.7876C12.3718 8.81738 12.4004 8.84718 12.4004 8.84718C12.4004 8.87696 12.4004 8.90675 12.2289 8.90675C12.0575 8.90675 12.0289 8.87696 12.0575 8.84718C12.0575 8.81739 12.0861 8.81738 12.1147 8.7876" fill="#FFE000"/>
<path d="M12.3717 8.63868C12.286 8.6089 12.2288 8.48975 12.2288 8.45996C12.2288 8.48975 12.1717 8.6089 12.086 8.63868H12.3717Z" fill="#FFE000"/>
<path d="M11.9432 8.60888C11.886 8.60888 11.8003 8.60888 11.7432 8.60888C11.7432 8.66846 11.7717 8.69825 11.9717 8.69825C11.9717 8.69825 11.9432 8.66846 11.9432 8.60888Z" fill="#FFE000"/>
<path d="M11.9145 8.63892C11.9145 8.63892 12.4288 8.63892 12.486 8.63892C12.5431 8.63892 12.6003 8.57935 12.6288 8.54957C12.6574 8.48999 12.8003 8.4602 12.8003 8.54957C12.8289 8.63893 12.7146 8.6985 12.6574 8.6985C12.686 8.6985 12.686 8.75807 12.6574 8.75807C12.6289 8.78786 12.6003 8.75807 12.6003 8.72828C12.6003 8.6985 12.6003 8.66871 12.6574 8.63892C12.7146 8.60914 12.7717 8.57935 12.7717 8.51978C12.7431 8.48999 12.686 8.60914 12.6574 8.66871C12.6003 8.75808 12.5146 8.90701 12.4003 8.90701C12.3146 8.90701 12.286 8.90701 12.2289 8.90701C12.1146 8.9368 11.9145 8.63892 11.9145 8.63892Z" fill="#FFE000"/>
<path d="M14.8003 3.9917C14.8574 4.02148 14.8288 4.05127 14.8574 4.11084C14.886 4.17042 14.8288 4.20021 14.8574 4.25978C14.8574 4.28957 14.886 4.34915 14.8574 4.34915C14.8003 4.37893 14.8288 4.40872 14.8003 4.43851C14.7717 4.46829 14.7717 4.46829 14.7717 4.46829C14.7717 4.43851 14.7145 4.40872 14.7431 4.34915C14.7717 4.31936 14.7717 4.28957 14.7431 4.25978C14.7145 4.22999 14.7145 4.17042 14.7431 4.11084C14.8002 4.11084 14.8288 4.05127 14.8003 3.9917Z" fill="#F7AD4C"/>
<path d="M15.143 4.08106C15.1144 4.08106 15.1144 4.14063 15.143 4.14063C15.2002 4.14063 15.2002 4.08106 15.143 4.08106Z" fill="#FFE000"/>
<path d="M15.1142 4.14062C15.0856 4.14062 15.0856 4.2002 15.1142 4.2002C15.1714 4.2002 15.1714 4.14062 15.1142 4.14062Z" fill="#FFE000"/>
<path d="M15.0859 4.20001C15.0573 4.20001 15.0573 4.25958 15.0859 4.25958C15.143 4.2298 15.1145 4.17023 15.0859 4.20001Z" fill="#FFE000"/>
<path d="M15.0571 4.22998C15.0285 4.22998 15.0285 4.28955 15.0571 4.28955C15.0856 4.28955 15.0856 4.22998 15.0571 4.22998Z" fill="#FFE000"/>
<path d="M15.0287 4.28937C15.0002 4.28937 15.0002 4.34894 15.0287 4.34894C15.0573 4.31916 15.0573 4.25958 15.0287 4.28937Z" fill="#FFE000"/>
<path d="M14.9716 4.31934C14.9431 4.31934 14.9431 4.37891 14.9716 4.37891C15.0288 4.37891 15.0288 4.31934 14.9716 4.31934Z" fill="#FFE000"/>
<path d="M14.9428 4.37873C14.9143 4.37873 14.9143 4.4383 14.9428 4.4383C15 4.40851 15 4.34894 14.9428 4.37873Z" fill="#FFE000"/>
<path d="M14.9145 4.40869C14.8859 4.40869 14.8859 4.46827 14.9145 4.46827C14.9716 4.46827 14.9431 4.40869 14.9145 4.40869Z" fill="#FFE000"/>
<path d="M15.2572 4.08106C15.2858 4.08106 15.2858 4.14063 15.2572 4.14063C15.2001 4.14063 15.2001 4.08106 15.2572 4.08106Z" fill="#FFE000"/>
<path d="M15.2859 4.14062C15.3145 4.14062 15.3145 4.2002 15.2859 4.2002C15.2288 4.2002 15.2574 4.14062 15.2859 4.14062Z" fill="#FFE000"/>
<path d="M15.3144 4.20001C15.343 4.20001 15.343 4.25958 15.3144 4.25958C15.2858 4.2298 15.2858 4.17023 15.3144 4.20001Z" fill="#FFE000"/>
<path d="M15.3427 4.22998C15.3713 4.22998 15.3713 4.28955 15.3427 4.28955C15.3141 4.28955 15.3141 4.22998 15.3427 4.22998Z" fill="#FFE000"/>
<path d="M15.3715 4.28937C15.4001 4.28937 15.4001 4.34894 15.3715 4.34894C15.343 4.31916 15.343 4.25958 15.3715 4.28937Z" fill="#FFE000"/>
<path d="M15.4286 4.31934C15.4572 4.31934 15.4572 4.37891 15.4286 4.37891C15.3715 4.37891 15.3715 4.31934 15.4286 4.31934Z" fill="#FFE000"/>
<path d="M15.4573 4.37873C15.4859 4.37873 15.4859 4.4383 15.4573 4.4383C15.4002 4.40851 15.4287 4.34894 15.4573 4.37873Z" fill="#FFE000"/>
<path d="M15.4858 4.40869C15.5143 4.40869 15.5143 4.46827 15.4858 4.46827C15.4572 4.46827 15.4572 4.40869 15.4858 4.40869Z" fill="#FFE000"/>
<path d="M15.6288 4.55761C15.6002 4.55761 15.5716 4.5874 15.6002 4.61719L15.6288 4.55761Z" fill="#FFE000"/>
<path d="M15.3144 4.64697C15.343 4.67676 15.3716 4.70654 15.3716 4.70654C15.3716 4.73633 15.3715 4.76612 15.2001 4.76612C15.0287 4.76612 15.0001 4.73633 15.0287 4.70654C15.0287 4.67676 15.0573 4.67676 15.0859 4.64697" fill="#FFE000"/>
<path d="M15.3428 4.46827C15.2571 4.43849 15.2 4.31934 15.2 4.28955C15.2 4.31934 15.1428 4.43849 15.0571 4.46827H15.3428Z" fill="#FFE000"/>
<path d="M14.9143 4.46826C14.8572 4.46826 14.7715 4.46826 14.7144 4.46826C14.7144 4.52784 14.7429 4.55762 14.9429 4.55762C14.9429 4.52783 14.9143 4.49805 14.9143 4.46826Z" fill="#FFE000"/>
<path d="M14.8857 4.46815C14.8857 4.46815 15.4 4.46815 15.4572 4.46815C15.5143 4.46815 15.5715 4.43837 15.6 4.37879C15.6286 4.31922 15.7714 4.28942 15.7714 4.40857C15.8 4.49793 15.6857 4.55751 15.6286 4.55751C15.6572 4.55751 15.6572 4.61708 15.6286 4.61708C15.6 4.64687 15.5715 4.61708 15.5715 4.5873C15.5715 4.55751 15.5714 4.52773 15.6286 4.49794C15.6857 4.46815 15.7429 4.43837 15.7429 4.37879C15.7143 4.349 15.6572 4.43836 15.6286 4.49794C15.5714 4.5873 15.4858 4.70644 15.3715 4.70644C15.2858 4.70644 15.2572 4.70644 15.2 4.70644C15.0857 4.76602 14.8857 4.46815 14.8857 4.46815Z" fill="#FFE000"/>
<path d="M14.8003 4.82569C14.8574 4.85547 14.8288 4.88526 14.8574 4.94483C14.886 5.00441 14.8288 5.0342 14.8574 5.09377C14.8574 5.12356 14.886 5.18313 14.8574 5.18313C14.8003 5.21292 14.8288 5.24271 14.8003 5.2725C14.7717 5.30228 14.7717 5.30228 14.7717 5.30228C14.7717 5.27249 14.7145 5.2427 14.7431 5.18313C14.7717 5.15334 14.7717 5.12356 14.7431 5.09377C14.7145 5.06398 14.7145 5.00441 14.7431 4.94483C14.8002 4.94483 14.8288 4.88526 14.8003 4.82569Z" fill="#F7AD4C"/>
<path d="M15.143 4.91504C15.1144 4.91504 15.1144 4.97462 15.143 4.97462C15.2002 4.97462 15.2002 4.91504 15.143 4.91504Z" fill="#FFE000"/>
<path d="M15.1142 4.97461C15.0856 4.97461 15.0856 5.03418 15.1142 5.03418C15.1714 5.03418 15.1714 4.97461 15.1142 4.97461Z" fill="#FFE000"/>
<path d="M15.0859 5.00439C15.0573 5.00439 15.0573 5.06397 15.0859 5.06397C15.143 5.06397 15.1145 5.00439 15.0859 5.00439Z" fill="#FFE000"/>
<path d="M15.0571 5.06396C15.0285 5.06396 15.0285 5.12354 15.0571 5.12354C15.0856 5.12354 15.0856 5.06396 15.0571 5.06396Z" fill="#FFE000"/>
<path d="M15.0287 5.09375C15.0002 5.09375 15.0002 5.15332 15.0287 5.15332C15.0573 5.15332 15.0573 5.09375 15.0287 5.09375Z" fill="#FFE000"/>
<path d="M14.9716 5.15332C14.9431 5.15332 14.9431 5.21289 14.9716 5.21289C15.0288 5.21289 15.0288 5.15332 14.9716 5.15332Z" fill="#FFE000"/>
<path d="M14.9428 5.1831C14.9143 5.1831 14.9143 5.24268 14.9428 5.24268C15 5.24268 15 5.1831 14.9428 5.1831Z" fill="#FFE000"/>
<path d="M14.9145 5.24268C14.8859 5.24268 14.8859 5.30225 14.9145 5.30225C14.9716 5.30225 14.9431 5.24268 14.9145 5.24268Z" fill="#FFE000"/>
<path d="M15.2572 4.91504C15.2858 4.91504 15.2858 4.97462 15.2572 4.97462C15.2001 4.97462 15.2001 4.91504 15.2572 4.91504Z" fill="#FFE000"/>
<path d="M15.2859 4.97461C15.3145 4.97461 15.3145 5.03418 15.2859 5.03418C15.2288 5.03418 15.2574 4.97461 15.2859 4.97461Z" fill="#FFE000"/>
<path d="M15.3144 5.00439C15.343 5.00439 15.343 5.06397 15.3144 5.06397C15.2858 5.06397 15.2858 5.00439 15.3144 5.00439Z" fill="#FFE000"/>
<path d="M15.3427 5.06396C15.3713 5.06396 15.3713 5.12354 15.3427 5.12354C15.3141 5.12354 15.3141 5.06396 15.3427 5.06396Z" fill="#FFE000"/>
<path d="M15.3715 5.09375C15.4001 5.09375 15.4001 5.15332 15.3715 5.15332C15.343 5.15332 15.343 5.09375 15.3715 5.09375Z" fill="#FFE000"/>
<path d="M15.4286 5.15332C15.4572 5.15332 15.4572 5.21289 15.4286 5.21289C15.3715 5.21289 15.3715 5.15332 15.4286 5.15332Z" fill="#FFE000"/>
<path d="M15.4573 5.1831C15.4859 5.1831 15.4859 5.24268 15.4573 5.24268C15.4002 5.24268 15.4287 5.1831 15.4573 5.1831Z" fill="#FFE000"/>
<path d="M15.4858 5.24268C15.5143 5.24268 15.5143 5.30225 15.4858 5.30225C15.4572 5.30225 15.4572 5.24268 15.4858 5.24268Z" fill="#FFE000"/>
<path d="M15.6288 5.3916C15.6002 5.3916 15.5716 5.42139 15.6002 5.45117L15.6288 5.3916Z" fill="#FFE000"/>
<path d="M15.3144 5.45117C15.343 5.48096 15.3716 5.51075 15.3716 5.51075C15.3716 5.54053 15.3715 5.57032 15.2001 5.57032C15.0287 5.57032 15.0001 5.54053 15.0287 5.51075C15.0287 5.48096 15.0573 5.48096 15.0859 5.45117" fill="#FFE000"/>
<path d="M15.3428 5.30226C15.2571 5.27247 15.2 5.15333 15.2 5.12354C15.2 5.15333 15.1428 5.27247 15.0571 5.30226H15.3428Z" fill="#FFE000"/>
<path d="M14.9143 5.30224C14.8572 5.30224 14.7715 5.30224 14.7144 5.30224C14.7144 5.36182 14.7429 5.39161 14.9429 5.39161C14.9429 5.36182 14.9143 5.33203 14.9143 5.30224Z" fill="#FFE000"/>
<path d="M14.8857 5.36204C14.8857 5.36204 15.4 5.36204 15.4572 5.36204C15.5143 5.36204 15.5715 5.30247 15.6 5.2429C15.6286 5.18332 15.7714 5.15353 15.7714 5.2429C15.8 5.33226 15.6857 5.36204 15.6286 5.39183C15.6572 5.39183 15.6572 5.4514 15.6286 5.4514C15.6 5.48119 15.5715 5.45141 15.5715 5.42162C15.5715 5.39183 15.5714 5.36204 15.6286 5.33225C15.6857 5.30247 15.7429 5.27268 15.7429 5.21311C15.7143 5.18332 15.6572 5.15353 15.6286 5.21311C15.5714 5.30247 15.4858 5.30246 15.3715 5.30246C15.2858 5.30246 15.2572 5.30246 15.2 5.30246C15.0857 5.36204 14.8857 5.36204 14.8857 5.36204Z" fill="#FFE000"/>
<path d="M14.8003 5.65967C14.8574 5.68946 14.8288 5.71924 14.8574 5.77882C14.886 5.83839 14.8288 5.86818 14.8574 5.92775C14.8574 5.95754 14.886 6.01712 14.8574 6.01712C14.8003 6.04691 14.8288 6.07669 14.8003 6.10648C14.7717 6.13626 14.7717 6.13627 14.7717 6.13627C14.7717 6.10648 14.7145 6.07669 14.7431 6.01712C14.7717 5.98733 14.7717 5.95754 14.7431 5.92775C14.7145 5.89796 14.7145 5.83839 14.7431 5.77882C14.8002 5.77882 14.8288 5.68946 14.8003 5.65967Z" fill="#F7AD4C"/>
<path d="M15.143 5.74902C15.1144 5.74902 15.1144 5.8086 15.143 5.8086C15.2002 5.8086 15.2002 5.74902 15.143 5.74902Z" fill="#FFE000"/>
<path d="M15.1142 5.80859C15.0856 5.80859 15.0856 5.86817 15.1142 5.86817C15.1714 5.83838 15.1714 5.80859 15.1142 5.80859Z" fill="#FFE000"/>
<path d="M15.0859 5.83838C15.0573 5.83838 15.0573 5.89795 15.0859 5.89795C15.143 5.89795 15.1145 5.83838 15.0859 5.83838Z" fill="#FFE000"/>
<path d="M15.0571 5.89795C15.0285 5.89795 15.0285 5.95752 15.0571 5.95752C15.0856 5.95752 15.0856 5.89795 15.0571 5.89795Z" fill="#FFE000"/>
<path d="M15.0287 5.92773C15.0002 5.92773 15.0002 5.98731 15.0287 5.98731C15.0573 5.98731 15.0573 5.92773 15.0287 5.92773Z" fill="#FFE000"/>
<path d="M14.9716 5.98731C14.9431 5.98731 14.9431 6.04688 14.9716 6.04688C15.0288 6.04688 15.0288 5.98731 14.9716 5.98731Z" fill="#FFE000"/>
<path d="M14.9428 6.01709C14.9143 6.01709 14.9143 6.07666 14.9428 6.07666C15 6.07666 15 6.01709 14.9428 6.01709Z" fill="#FFE000"/>
<path d="M14.9145 6.07666C14.8859 6.07666 14.8859 6.13624 14.9145 6.13624C14.9716 6.13624 14.9431 6.07666 14.9145 6.07666Z" fill="#FFE000"/>
<path d="M15.2572 5.74902C15.2858 5.74902 15.2858 5.8086 15.2572 5.8086C15.2001 5.8086 15.2001 5.74902 15.2572 5.74902Z" fill="#FFE000"/>
<path d="M15.2859 5.80859C15.3145 5.80859 15.3145 5.86817 15.2859 5.86817C15.2288 5.83838 15.2574 5.80859 15.2859 5.80859Z" fill="#FFE000"/>
<path d="M15.3144 5.83838C15.343 5.83838 15.343 5.89795 15.3144 5.89795C15.2858 5.89795 15.2858 5.83838 15.3144 5.83838Z" fill="#FFE000"/>
<path d="M15.3427 5.89795C15.3713 5.89795 15.3713 5.95752 15.3427 5.95752C15.3141 5.95752 15.3141 5.89795 15.3427 5.89795Z" fill="#FFE000"/>
<path d="M15.3715 5.92773C15.4001 5.92773 15.4001 5.98731 15.3715 5.98731C15.343 5.98731 15.343 5.92773 15.3715 5.92773Z" fill="#FFE000"/>
<path d="M15.4286 5.98731C15.4572 5.98731 15.4572 6.04688 15.4286 6.04688C15.3715 6.04688 15.3715 5.98731 15.4286 5.98731Z" fill="#FFE000"/>
<path d="M15.4573 6.01709C15.4859 6.01709 15.4859 6.07666 15.4573 6.07666C15.4002 6.07666 15.4287 6.01709 15.4573 6.01709Z" fill="#FFE000"/>
<path d="M15.4858 6.07666C15.5143 6.07666 15.5143 6.13624 15.4858 6.13624C15.4572 6.13624 15.4572 6.07666 15.4858 6.07666Z" fill="#FFE000"/>
<path d="M15.6288 6.22558C15.6002 6.22558 15.5716 6.25538 15.6002 6.28516L15.6288 6.22558Z" fill="#FFE000"/>
<path d="M15.3144 6.28516C15.343 6.31495 15.3716 6.34473 15.3716 6.34473C15.3716 6.37451 15.3715 6.4043 15.2001 6.4043C15.0287 6.4043 15.0001 6.37451 15.0287 6.34473C15.0287 6.31494 15.0573 6.31495 15.0859 6.28516" fill="#FFE000"/>
<path d="M15.3428 6.13624C15.2571 6.10646 15.2 5.98731 15.2 5.95752C15.2 5.98731 15.1428 6.10646 15.0571 6.13624H15.3428Z" fill="#FFE000"/>
<path d="M14.9143 6.13623C14.8572 6.13623 14.7715 6.13623 14.7144 6.13623C14.7144 6.19581 14.7429 6.22559 14.9429 6.22559C14.9429 6.1958 14.9143 6.16602 14.9143 6.13623Z" fill="#FFE000"/>
<path d="M14.8857 6.25542C14.8857 6.25542 15.4 6.25542 15.4572 6.25542C15.5143 6.25542 15.5715 6.16606 15.6 6.10648C15.6286 6.04691 15.7714 5.98733 15.7714 6.07669C15.8 6.16606 15.6857 6.19584 15.6286 6.22563C15.6572 6.22563 15.6572 6.25542 15.6286 6.28521C15.6 6.315 15.5715 6.28521 15.5715 6.25542C15.5715 6.22563 15.5714 6.19585 15.6286 6.16606C15.6857 6.13627 15.7429 6.10648 15.7429 6.04691C15.7143 6.01712 15.6572 6.01712 15.6286 6.07669C15.5714 6.16606 15.4858 6.19584 15.3715 6.19584C15.2858 6.19584 15.2572 6.19584 15.2 6.19584C15.0857 6.25542 14.8857 6.25542 14.8857 6.25542Z" fill="#FFE000"/>
<path d="M14.8003 7.32813C14.8574 7.35791 14.8288 7.3877 14.8574 7.44727C14.886 7.50685 14.8288 7.53664 14.8574 7.59621C14.8574 7.626 14.886 7.68557 14.8574 7.68557C14.8003 7.71535 14.8288 7.74515 14.8003 7.77493C14.7717 7.80472 14.7717 7.80472 14.7717 7.80472C14.7717 7.77494 14.7145 7.74514 14.7431 7.68557C14.7717 7.65578 14.7717 7.626 14.7431 7.59621C14.7145 7.56642 14.7145 7.50685 14.7431 7.44727C14.8002 7.41749 14.8288 7.35791 14.8003 7.32813Z" fill="#F7AD4C"/>
<path d="M15.143 7.41748C15.1144 7.41748 15.1144 7.47706 15.143 7.47706C15.2002 7.47706 15.2002 7.41748 15.143 7.41748Z" fill="#FFE000"/>
<path d="M15.1142 7.47687C15.0856 7.47687 15.0856 7.53644 15.1142 7.53644C15.1714 7.50665 15.1714 7.44708 15.1142 7.47687Z" fill="#FFE000"/>
<path d="M15.0859 7.50684C15.0573 7.50684 15.0573 7.56641 15.0859 7.56641C15.143 7.56641 15.1145 7.50684 15.0859 7.50684Z" fill="#FFE000"/>
<path d="M15.0571 7.56622C15.0285 7.56622 15.0285 7.6258 15.0571 7.6258C15.0856 7.59601 15.0856 7.53643 15.0571 7.56622Z" fill="#FFE000"/>
<path d="M15.0287 7.59619C15.0002 7.59619 15.0002 7.65577 15.0287 7.65577C15.0573 7.65577 15.0573 7.59619 15.0287 7.59619Z" fill="#FFE000"/>
<path d="M14.9716 7.65558C14.9431 7.65558 14.9431 7.71515 14.9716 7.71515C15.0288 7.68536 15.0288 7.6258 14.9716 7.65558Z" fill="#FFE000"/>
<path d="M14.9428 7.68554C14.9143 7.68554 14.9143 7.74512 14.9428 7.74512C15 7.74512 15 7.68554 14.9428 7.68554Z" fill="#FFE000"/>
<path d="M14.9145 7.74493C14.8859 7.74493 14.8859 7.80451 14.9145 7.80451C14.9716 7.77473 14.9431 7.71515 14.9145 7.74493Z" fill="#FFE000"/>
<path d="M15.2572 7.41748C15.2858 7.41748 15.2858 7.47706 15.2572 7.47706C15.2001 7.47706 15.2001 7.41748 15.2572 7.41748Z" fill="#FFE000"/>
<path d="M15.2859 7.47687C15.3145 7.47687 15.3145 7.53644 15.2859 7.53644C15.2288 7.50665 15.2574 7.44708 15.2859 7.47687Z" fill="#FFE000"/>
<path d="M15.3144 7.50684C15.343 7.50684 15.343 7.56641 15.3144 7.56641C15.2858 7.56641 15.2858 7.50684 15.3144 7.50684Z" fill="#FFE000"/>
<path d="M15.3427 7.56622C15.3713 7.56622 15.3713 7.6258 15.3427 7.6258C15.3141 7.59601 15.3141 7.53643 15.3427 7.56622Z" fill="#FFE000"/>
<path d="M15.3715 7.59619C15.4001 7.59619 15.4001 7.65577 15.3715 7.65577C15.343 7.65577 15.343 7.59619 15.3715 7.59619Z" fill="#FFE000"/>
<path d="M15.4286 7.65558C15.4572 7.65558 15.4572 7.71515 15.4286 7.71515C15.3715 7.68536 15.3715 7.6258 15.4286 7.65558Z" fill="#FFE000"/>
<path d="M15.4573 7.68554C15.4859 7.68554 15.4859 7.74512 15.4573 7.74512C15.4002 7.74512 15.4287 7.68554 15.4573 7.68554Z" fill="#FFE000"/>
<path d="M15.4858 7.74493C15.5143 7.74493 15.5143 7.80451 15.4858 7.80451C15.4572 7.77473 15.4572 7.71515 15.4858 7.74493Z" fill="#FFE000"/>
<path d="M15.6288 7.86426C15.6002 7.86426 15.5716 7.89405 15.6002 7.92384L15.6288 7.86426Z" fill="#FFE000"/>
<path d="M15.3144 7.95362C15.343 7.9834 15.3716 8.01318 15.3716 8.01318C15.3716 8.04297 15.3715 8.07276 15.2001 8.07276C15.0287 8.07276 15.0001 8.04297 15.0287 8.01318C15.0287 7.9834 15.0573 7.9834 15.0859 7.95362" fill="#FFE000"/>
<path d="M15.3428 7.8047C15.2571 7.77492 15.2 7.65577 15.2 7.62598C15.2 7.65577 15.1428 7.77492 15.0571 7.8047H15.3428Z" fill="#FFE000"/>
<path d="M14.9143 7.7749C14.8572 7.7749 14.7715 7.7749 14.7144 7.7749C14.7144 7.83448 14.7429 7.86426 14.9429 7.86426C14.9429 7.86426 14.9143 7.83448 14.9143 7.7749Z" fill="#FFE000"/>
<path d="M14.8857 7.74514C14.8857 7.74514 15.4 7.74514 15.4572 7.74514C15.5143 7.74514 15.5715 7.71535 15.6 7.68556C15.6286 7.62598 15.7714 7.62599 15.7714 7.71535C15.8 7.80471 15.6857 7.86429 15.6286 7.89407C15.6572 7.89407 15.6572 7.95365 15.6286 7.95365C15.6 7.98344 15.5715 7.95365 15.5715 7.95365C15.5715 7.92386 15.5714 7.89407 15.6286 7.86428C15.6857 7.8345 15.7429 7.80471 15.7429 7.74514C15.7143 7.71535 15.6572 7.80471 15.6286 7.86428C15.5714 7.95365 15.4858 8.0728 15.3715 8.0728C15.2858 8.0728 15.2572 8.0728 15.2 8.0728C15.0857 8.04301 14.8857 8.04301 14.8857 7.74514Z" fill="#FFE000"/>
<path d="M14.8003 8.16211C14.8574 8.19189 14.8288 8.22168 14.8574 8.28125C14.886 8.34083 14.8288 8.37062 14.8574 8.43019C14.8574 8.45998 14.886 8.51956 14.8574 8.51956C14.8003 8.54935 14.8288 8.57913 14.8003 8.60892C14.7717 8.6387 14.7717 8.63871 14.7717 8.63871C14.7717 8.60892 14.7145 8.57913 14.7431 8.51956C14.7717 8.48977 14.7717 8.45998 14.7431 8.43019C14.7145 8.4004 14.7145 8.34083 14.7431 8.28125C14.8002 8.25147 14.8288 8.19189 14.8003 8.16211Z" fill="#F7AD4C"/>
<path d="M15.143 8.25147C15.1144 8.25147 15.1144 8.31104 15.143 8.31104C15.2002 8.31104 15.2002 8.25147 15.143 8.25147Z" fill="#FFE000"/>
<path d="M15.1142 8.28125C15.0856 8.28125 15.0856 8.34082 15.1142 8.34082C15.1714 8.34082 15.1714 8.28125 15.1142 8.28125Z" fill="#FFE000"/>
<path d="M15.0859 8.34082C15.0573 8.34082 15.0573 8.4004 15.0859 8.4004C15.143 8.4004 15.1145 8.34082 15.0859 8.34082Z" fill="#FFE000"/>
<path d="M15.0571 8.37061C15.0285 8.37061 15.0285 8.43018 15.0571 8.43018C15.0856 8.43018 15.0856 8.37061 15.0571 8.37061Z" fill="#FFE000"/>
<path d="M15.0287 8.43017C15.0002 8.43017 15.0002 8.48975 15.0287 8.48975C15.0573 8.48975 15.0573 8.43017 15.0287 8.43017Z" fill="#FFE000"/>
<path d="M14.9716 8.45996C14.9431 8.45996 14.9431 8.51954 14.9716 8.51954C15.0288 8.51954 15.0288 8.45996 14.9716 8.45996Z" fill="#FFE000"/>
<path d="M14.9428 8.51953C14.9143 8.51953 14.9143 8.5791 14.9428 8.5791C15 8.5791 15 8.51953 14.9428 8.51953Z" fill="#FFE000"/>
<path d="M14.9145 8.57892C14.8859 8.57892 14.8859 8.63849 14.9145 8.63849C14.9716 8.60871 14.9431 8.54913 14.9145 8.57892Z" fill="#FFE000"/>
<path d="M15.2572 8.25147C15.2858 8.25147 15.2858 8.31104 15.2572 8.31104C15.2001 8.31104 15.2001 8.25147 15.2572 8.25147Z" fill="#FFE000"/>
<path d="M15.2859 8.28125C15.3145 8.28125 15.3145 8.34082 15.2859 8.34082C15.2288 8.34082 15.2574 8.28125 15.2859 8.28125Z" fill="#FFE000"/>
<path d="M15.3144 8.34082C15.343 8.34082 15.343 8.4004 15.3144 8.4004C15.2858 8.4004 15.2858 8.34082 15.3144 8.34082Z" fill="#FFE000"/>
<path d="M15.3427 8.37061C15.3713 8.37061 15.3713 8.43018 15.3427 8.43018C15.3141 8.43018 15.3141 8.37061 15.3427 8.37061Z" fill="#FFE000"/>
<path d="M15.3715 8.43017C15.4001 8.43017 15.4001 8.48975 15.3715 8.48975C15.343 8.48975 15.343 8.43017 15.3715 8.43017Z" fill="#FFE000"/>
<path d="M15.4286 8.45996C15.4572 8.45996 15.4572 8.51954 15.4286 8.51954C15.3715 8.51954 15.3715 8.45996 15.4286 8.45996Z" fill="#FFE000"/>
<path d="M15.4573 8.51953C15.4859 8.51953 15.4859 8.5791 15.4573 8.5791C15.4002 8.5791 15.4287 8.51953 15.4573 8.51953Z" fill="#FFE000"/>
<path d="M15.4858 8.57892C15.5143 8.57892 15.5143 8.63849 15.4858 8.63849C15.4572 8.60871 15.4572 8.54913 15.4858 8.57892Z" fill="#FFE000"/>
<path d="M15.6288 8.69825C15.6002 8.69825 15.5716 8.72803 15.6002 8.75782L15.6288 8.69825Z" fill="#FFE000"/>
<path d="M15.3144 8.7876C15.343 8.81738 15.3716 8.84718 15.3716 8.84718C15.3716 8.87696 15.3715 8.90675 15.2001 8.90675C15.0287 8.90675 15.0001 8.87696 15.0287 8.84718C15.0287 8.81739 15.0573 8.81738 15.0859 8.7876" fill="#FFE000"/>
<path d="M15.3428 8.63868C15.2571 8.6089 15.2 8.48975 15.2 8.45996C15.2 8.48975 15.1428 8.6089 15.0571 8.63868H15.3428Z" fill="#FFE000"/>
<path d="M14.9143 8.60888C14.8572 8.60888 14.7715 8.60888 14.7144 8.60888C14.7144 8.66846 14.7429 8.69825 14.9429 8.69825C14.9429 8.69825 14.9143 8.66846 14.9143 8.60888Z" fill="#FFE000"/>
<path d="M14.8857 8.63892C14.8857 8.63892 15.4 8.63892 15.4572 8.63892C15.5143 8.63892 15.5715 8.57935 15.6 8.54957C15.6286 8.48999 15.7714 8.4602 15.7714 8.54957C15.8 8.63893 15.6857 8.6985 15.6286 8.6985C15.6572 8.6985 15.6572 8.75807 15.6286 8.75807C15.6 8.78786 15.5715 8.75807 15.5715 8.72828C15.5715 8.6985 15.5714 8.66871 15.6286 8.63892C15.6857 8.60914 15.7429 8.57935 15.7429 8.51978C15.7143 8.48999 15.6572 8.60914 15.6286 8.66871C15.5714 8.75808 15.4858 8.90701 15.3715 8.90701C15.2858 8.90701 15.2572 8.90701 15.2 8.90701C15.0857 8.9368 14.8857 8.63892 14.8857 8.63892Z" fill="#FFE000"/>
<path d="M12.3716 6.49365C12.4287 6.52344 12.4001 6.55323 12.4287 6.6128C12.4573 6.67238 12.4001 6.70217 12.4287 6.76174C12.4287 6.79153 12.4573 6.8511 12.4287 6.8511C12.3715 6.88089 12.4001 6.91067 12.3716 6.94046C12.343 6.97024 12.343 6.97025 12.343 6.97025C12.343 6.94046 12.2858 6.91067 12.3144 6.8511C12.343 6.82131 12.343 6.79153 12.3144 6.76174C12.2858 6.73195 12.2858 6.67238 12.3144 6.6128C12.343 6.58302 12.4001 6.52344 12.3716 6.49365Z" fill="#F7AD4C"/>
<path d="M12.8569 6.52344C12.5711 6.52344 12.5711 6.6128 12.8569 6.6128V6.52344Z" fill="#FFE000"/>
<path d="M12.7143 6.58301C12.6857 6.58301 12.6857 6.64258 12.7143 6.64258C12.7714 6.64258 12.7429 6.58301 12.7143 6.58301Z" fill="#FFE000"/>
<path d="M12.6855 6.6128C12.6569 6.6128 12.6569 6.67237 12.6855 6.67237C12.7141 6.67237 12.7141 6.6128 12.6855 6.6128Z" fill="#FFE000"/>
<path d="M12.6572 6.67236C12.6286 6.67236 12.6286 6.73194 12.6572 6.73194C12.6858 6.73194 12.6858 6.67236 12.6572 6.67236Z" fill="#FFE000"/>
<path d="M12.6283 6.70215C12.5998 6.70215 12.5998 6.76173 12.6283 6.76173C12.6569 6.76173 12.6569 6.70215 12.6283 6.70215Z" fill="#FFE000"/>
<path d="M12.5712 6.76172C12.5427 6.76172 12.5427 6.82129 12.5712 6.82129C12.6284 6.82129 12.6284 6.76172 12.5712 6.76172Z" fill="#FFE000"/>
<path d="M12.5429 6.7915C12.5143 6.7915 12.5143 6.85108 12.5429 6.85108C12.6001 6.85108 12.5715 6.7915 12.5429 6.7915Z" fill="#FFE000"/>
<path d="M12.5141 6.85107C12.4855 6.85107 12.4855 6.91065 12.5141 6.91065C12.5427 6.91065 12.5427 6.85107 12.5141 6.85107Z" fill="#FFE000"/>
<path d="M12.4858 6.91047C12.4572 6.91047 12.4572 6.97004 12.4858 6.97004C12.5143 6.94025 12.5143 6.88068 12.4858 6.91047Z" fill="#FFE000"/>
<path d="M12.7998 6.58301C12.8283 6.58301 12.8283 6.64258 12.7998 6.64258C12.7712 6.64258 12.7712 6.58301 12.7998 6.58301Z" fill="#FFE000"/>
<path d="M12.8573 6.6128C12.8859 6.6128 12.8859 6.67237 12.8573 6.67237C12.8002 6.67237 12.8002 6.6128 12.8573 6.6128Z" fill="#FFE000"/>
<path d="M12.8856 6.67236C12.9142 6.67236 12.9142 6.73194 12.8856 6.73194C12.8285 6.73194 12.8285 6.67236 12.8856 6.67236Z" fill="#FFE000"/>
<path d="M12.9143 6.70215C12.9429 6.70215 12.9429 6.76173 12.9143 6.76173C12.8572 6.76173 12.8858 6.70215 12.9143 6.70215Z" fill="#FFE000"/>
<path d="M12.9428 6.76172C12.9714 6.76172 12.9714 6.82129 12.9428 6.82129C12.9143 6.82129 12.9143 6.76172 12.9428 6.76172Z" fill="#FFE000"/>
<path d="M12.9711 6.7915C12.9997 6.7915 12.9997 6.85108 12.9711 6.85108C12.9426 6.85108 12.9426 6.7915 12.9711 6.7915Z" fill="#FFE000"/>
<path d="M13.0287 6.85107C13.0573 6.85107 13.0573 6.91065 13.0287 6.91065C12.9715 6.91065 12.9715 6.85107 13.0287 6.85107Z" fill="#FFE000"/>
<path d="M13.057 6.91047C13.0856 6.91047 13.0856 6.97004 13.057 6.97004C12.9999 6.94025 12.9999 6.88068 13.057 6.91047Z" fill="#FFE000"/>
<path d="M13.1713 7.02979C13.1427 7.02979 13.1141 7.05957 13.1427 7.08935L13.1713 7.02979Z" fill="#FFE000"/>
<path d="M12.8569 7.11914C12.8855 7.14893 12.914 7.17872 12.914 7.17872C12.914 7.20851 12.914 7.23829 12.7426 7.23829C12.5712 7.23829 12.5426 7.20851 12.5712 7.17872C12.5712 7.14893 12.5997 7.14893 12.6283 7.11914" fill="#FFE000"/>
<path d="M12.8569 6.73194C12.5711 6.73194 12.5711 6.82129 12.8569 6.82129V6.73194Z" fill="#FFE000"/>
<path d="M12.9141 6.97023C12.8284 6.94044 12.7713 6.82129 12.7713 6.7915C12.7713 6.82129 12.7141 6.94044 12.6284 6.97023H12.9141Z" fill="#FFE000"/>
<path d="M12.4856 6.94043C12.4285 6.94043 12.3428 6.94043 12.2856 6.94043C12.2856 7 12.3142 7.02979 12.5142 7.02979C12.5142 7.02979 12.4856 7 12.4856 6.94043Z" fill="#FFE000"/>
<path d="M12.457 6.85109C12.457 6.85109 12.9713 6.85109 13.0285 6.85109C13.0856 6.85109 13.1427 6.85109 13.1713 6.8213C13.1999 6.76173 13.3427 6.76173 13.3427 6.85109C13.3713 6.94045 13.257 7.00003 13.1999 7.02982C13.2284 7.02982 13.2284 7.08939 13.1999 7.08939C13.1713 7.11917 13.1427 7.08939 13.1427 7.08939C13.1427 7.0596 13.1427 7.02982 13.1999 7.00003C13.257 6.97024 13.3142 6.94046 13.3142 6.88088C13.2856 6.85109 13.2284 6.91066 13.1999 6.97024C13.1427 7.0596 13.057 7.14896 12.9428 7.14896C12.857 7.14896 12.8284 7.14896 12.7713 7.14896C12.6284 7.14896 12.457 7.14896 12.457 6.85109Z" fill="#FFE000"/>
<path d="M14.8003 6.49365C14.8574 6.52344 14.8288 6.55323 14.8574 6.6128C14.886 6.67238 14.8288 6.70217 14.8574 6.76174C14.8574 6.79153 14.886 6.8511 14.8574 6.8511C14.8003 6.88089 14.8288 6.91067 14.8003 6.94046C14.7717 6.97024 14.7717 6.97025 14.7717 6.97025C14.7717 6.94046 14.7145 6.91067 14.7431 6.8511C14.7717 6.82131 14.7717 6.79153 14.7431 6.76174C14.7145 6.73195 14.7145 6.67238 14.7431 6.6128C14.8002 6.6128 14.8288 6.52344 14.8003 6.49365Z" fill="#F7AD4C"/>
<path d="M15.143 6.58301C15.1144 6.58301 15.1144 6.64258 15.143 6.64258C15.2002 6.64258 15.2002 6.58301 15.143 6.58301Z" fill="#FFE000"/>
<path d="M15.1142 6.64257C15.0856 6.64257 15.0856 6.70215 15.1142 6.70215C15.1714 6.67237 15.1714 6.64257 15.1142 6.64257Z" fill="#FFE000"/>
<path d="M15.0859 6.67236C15.0573 6.67236 15.0573 6.73194 15.0859 6.73194C15.143 6.73194 15.1145 6.67236 15.0859 6.67236Z" fill="#FFE000"/>
<path d="M15.0571 6.73194C15.0285 6.73194 15.0285 6.7915 15.0571 6.7915C15.0856 6.76172 15.0856 6.73194 15.0571 6.73194Z" fill="#FFE000"/>
<path d="M15.0287 6.76172C15.0002 6.76172 15.0002 6.82129 15.0287 6.82129C15.0573 6.82129 15.0573 6.76172 15.0287 6.76172Z" fill="#FFE000"/>
<path d="M14.9716 6.82129C14.9431 6.82129 14.9431 6.88087 14.9716 6.88087C15.0288 6.85108 15.0288 6.82129 14.9716 6.82129Z" fill="#FFE000"/>
<path d="M14.9428 6.85107C14.9143 6.85107 14.9143 6.91065 14.9428 6.91065C15 6.91065 15 6.85107 14.9428 6.85107Z" fill="#FFE000"/>
<path d="M14.9145 6.91065C14.8859 6.91065 14.8859 6.97022 14.9145 6.97022C14.9716 6.94043 14.9431 6.91065 14.9145 6.91065Z" fill="#FFE000"/>
<path d="M15.2572 6.58301C15.2858 6.58301 15.2858 6.64258 15.2572 6.64258C15.2001 6.64258 15.2001 6.58301 15.2572 6.58301Z" fill="#FFE000"/>
<path d="M15.2859 6.64257C15.3145 6.64257 15.3145 6.70215 15.2859 6.70215C15.2288 6.67237 15.2574 6.64257 15.2859 6.64257Z" fill="#FFE000"/>
<path d="M15.3144 6.67236C15.343 6.67236 15.343 6.73194 15.3144 6.73194C15.2858 6.73194 15.2858 6.67236 15.3144 6.67236Z" fill="#FFE000"/>
<path d="M15.3427 6.73194C15.3713 6.73194 15.3713 6.7915 15.3427 6.7915C15.3141 6.76172 15.3141 6.73194 15.3427 6.73194Z" fill="#FFE000"/>
<path d="M15.3715 6.76172C15.4001 6.76172 15.4001 6.82129 15.3715 6.82129C15.343 6.82129 15.343 6.76172 15.3715 6.76172Z" fill="#FFE000"/>
<path d="M15.4286 6.82129C15.4572 6.82129 15.4572 6.88087 15.4286 6.88087C15.3715 6.85108 15.3715 6.82129 15.4286 6.82129Z" fill="#FFE000"/>
<path d="M15.4573 6.85107C15.4859 6.85107 15.4859 6.91065 15.4573 6.91065C15.4002 6.91065 15.4287 6.85107 15.4573 6.85107Z" fill="#FFE000"/>
<path d="M15.4858 6.91065C15.5143 6.91065 15.5143 6.97022 15.4858 6.97022C15.4572 6.94043 15.4572 6.91065 15.4858 6.91065Z" fill="#FFE000"/>
<path d="M15.6288 7.02979C15.6002 7.02979 15.5716 7.05957 15.6002 7.08935L15.6288 7.02979Z" fill="#FFE000"/>
<path d="M15.3144 7.11914C15.343 7.14893 15.3716 7.17872 15.3716 7.17872C15.3716 7.20851 15.3715 7.23829 15.2001 7.23829C15.0287 7.23829 15.0001 7.20851 15.0287 7.17872C15.0287 7.14893 15.0573 7.14893 15.0859 7.11914" fill="#FFE000"/>
<path d="M15.3428 6.97023C15.2571 6.94044 15.2 6.82129 15.2 6.7915C15.2 6.82129 15.1428 6.94044 15.0571 6.97023H15.3428Z" fill="#FFE000"/>
<path d="M14.9143 6.97021C14.8572 6.97021 14.7715 6.97021 14.7144 6.97021C14.7144 7.02979 14.7429 7.05958 14.9429 7.05958C14.9429 7.02979 14.9143 7 14.9143 6.97021Z" fill="#FFE000"/>
<path d="M14.8857 6.85109C14.8857 6.85109 15.4 6.85109 15.4572 6.85109C15.5143 6.85109 15.5715 6.85109 15.6 6.8213C15.6286 6.76173 15.7714 6.76173 15.7714 6.85109C15.8 6.94045 15.6857 7.00003 15.6286 7.02982C15.6572 7.02982 15.6572 7.08939 15.6286 7.11918C15.6 7.14896 15.5715 7.11918 15.5715 7.11918C15.5715 7.08939 15.5714 7.0596 15.6286 7.02982C15.6857 7.00003 15.7429 6.97024 15.7429 6.91067C15.7143 6.88088 15.6572 6.94045 15.6286 7.00003C15.5714 7.08939 15.4858 7.17875 15.3715 7.17875C15.2858 7.17875 15.2572 7.17875 15.2 7.17875C15.0857 7.14897 14.8857 7.14896 14.8857 6.85109Z" fill="#FFE000"/>
<path d="M14.3147 8.75781C14.3147 8.81739 14.2004 8.99611 14.1719 9.02589C14.1719 9.05568 14.229 9.08547 14.2576 9.05568C14.2862 9.0259 14.3433 8.96632 14.3433 8.87696C14.3433 8.81738 14.3147 8.7876 14.3147 8.75781Z" fill="#E48E00"/>
<path d="M13.6289 8.81738C13.5718 8.84717 13.3432 8.96632 13.3147 8.99611C13.2861 8.99611 13.2861 9.05568 13.3432 9.05568C13.4004 9.02589 13.5718 8.93654 13.6861 8.84717C13.6861 8.84717 13.6575 8.81738 13.6289 8.81738Z" fill="#E48E00"/>
<path d="M13.7145 5.24319C13.7145 5.15383 13.6288 5.12404 13.6288 5.00489C13.6288 4.9751 13.6574 4.94532 13.6859 4.88574C13.6288 4.88574 13.6002 4.91554 13.5716 4.94532C13.5431 4.97511 13.4859 4.94532 13.4859 5.00489C13.4573 5.06447 13.3716 5.21341 13.343 5.27298C13.2859 5.33256 13.2859 5.51128 13.4288 5.57086C13.4288 5.60064 13.4859 5.60064 13.4573 5.63043C13.4573 5.66021 13.4288 5.71979 13.4573 5.74957C13.4573 5.77936 13.4859 5.83894 13.4573 5.86873C13.4288 5.9283 13.4573 5.98787 13.4288 6.07723C13.3716 6.19638 13.343 6.37511 13.343 6.43468C13.3145 6.49426 13.3145 6.52404 13.343 6.55383C13.2859 7.00064 13.2859 7.41766 13.2288 7.5666C13.2002 7.71553 13.2002 7.8049 13.2573 7.77511C13.2859 8.07298 13.3145 8.37085 13.2573 8.46021C13.2002 8.51979 13.2002 8.54957 13.2288 8.60915C13.1431 8.7283 13.2002 8.84745 13.3145 8.78787C13.4288 8.7283 13.5145 8.66872 13.6288 8.75809C13.6859 8.78787 13.7716 8.84745 13.8002 8.69852C13.8574 8.7283 13.9145 8.7283 13.8859 8.78787C13.8859 8.81766 13.9431 8.87724 14.0288 8.84745C14.1145 8.81767 14.0288 8.7283 14.0859 8.75809C14.2002 8.78787 14.2859 8.69851 14.343 8.7283C14.4288 8.7283 14.4288 8.69852 14.4859 8.69852C14.543 8.69852 14.6002 8.63893 14.5716 8.57936C14.4859 8.40064 14.5716 8.34107 14.5431 8.22192C14.4859 8.10277 14.5145 7.92404 14.343 7.68574C14.4002 7.56659 14.3716 7.50702 14.343 7.41766C14.2002 7.14957 14.2573 6.6432 14.1431 6.46447C14.2002 6.49426 14.2573 6.3751 14.2002 6.19638C14.1716 6.07723 14.2002 6.01766 14.1431 5.95809C14.1145 5.89851 14.1145 5.86873 14.1145 5.83894C14.1145 5.80915 14.1145 5.77936 14.1145 5.77936C14.1145 5.74957 14.1145 5.71979 14.1431 5.69C14.0573 5.60064 14.0859 5.4517 14.1145 5.36234C14.2002 5.21341 14.2288 5.15383 14.2859 5.24319C14.3145 5.21341 14.2859 5.15384 14.2574 5.12405C14.2288 5.09426 14.1716 5.06447 14.1431 5.03468C14.1431 5.00489 14.0859 4.94532 14.0573 4.94532C14.0573 4.88575 14.0288 4.82618 13.9431 4.82618C13.9716 4.88575 13.9145 4.9751 13.8573 5.00489C13.8573 5.09425 13.7716 5.15383 13.7145 5.24319Z" fill="white"/>
<path d="M13.4861 5.00439C13.4004 5.03418 13.3432 5.09376 13.3432 5.24269C13.4004 5.21291 13.4575 5.12354 13.4861 5.00439Z" fill="#FDE7D4"/>
<path d="M13.9715 4.7067C13.9715 4.76628 13.9715 4.79606 14.0001 4.85564C14.0286 4.91521 14.0001 5.00458 13.9143 5.03436C13.8286 5.06415 13.7429 5.15352 13.7144 5.24288C13.7144 5.15352 13.6286 5.12372 13.6286 5.00457C13.6286 4.91521 13.7144 4.85564 13.7144 4.73649C13.6858 4.73649 13.6001 4.73649 13.5715 4.73649C13.5429 4.73649 13.5429 4.70671 13.5429 4.67692C13.5429 4.64713 13.5144 4.64713 13.5144 4.61734C13.4858 4.58756 13.5144 4.58755 13.5144 4.55777H13.4858C13.4572 4.55777 13.4572 4.52798 13.4858 4.4982C13.5143 4.46841 13.5144 4.46841 13.5429 4.43862C13.5715 4.40883 13.5715 4.40884 13.5715 4.37905C13.5715 4.34926 13.5715 4.28968 13.6001 4.25989C13.9429 3.99181 13.9715 4.40883 13.9715 4.7067Z" fill="#FDE7D4"/>
<path d="M14.0288 6.91076C14.0574 6.91076 14.086 6.88097 14.0574 6.88097C14.086 6.88097 14.086 6.88097 14.086 6.85118C14.1146 6.85118 14.1146 6.85118 14.1146 6.82139C14.1146 6.7916 14.1146 6.76182 14.0574 6.7916C14.086 6.76182 14.086 6.73203 14.086 6.70224C14.086 6.64267 14.086 6.55331 14.1431 6.46395C14.2288 6.31501 14.3717 6.1065 14.4003 6.01714C14.4574 5.86821 14.4003 5.77884 14.3717 5.71927C14.3431 5.54055 14.286 5.36182 14.2574 5.24267C14.2289 5.15331 14.1717 5.21288 14.086 5.36182C14.0289 5.45118 14.0289 5.60012 14.1146 5.68948C14.1431 5.71927 14.2003 5.77884 14.2003 5.80863C14.2288 5.80863 14.2003 5.83842 14.2003 5.86821C14.1717 5.92778 14.0574 6.16607 14.0288 6.34479C13.9717 6.52352 14.0003 6.55331 13.9146 6.67246C13.886 6.73203 13.8574 6.76182 13.8574 6.82139C13.8574 6.88097 13.8574 6.88096 13.886 6.94054C13.9146 6.94054 13.9146 6.97033 13.9431 6.97033C14.0574 6.97033 14.0574 6.94055 14.0288 6.91076Z" fill="#FDE7D4"/>
<path d="M13.4574 5.83841C13.4288 5.89798 13.3717 5.92776 13.1717 6.0767C13.086 6.16606 13.0288 6.19585 12.9717 6.22564C12.9146 6.25542 12.886 6.28521 12.886 6.34478C12.886 6.40436 12.8574 6.40436 12.886 6.46394C12.886 6.52351 12.8574 6.52351 12.8574 6.5533C12.8574 6.58308 12.8288 6.58309 12.8288 6.58309C12.8288 6.58309 12.8003 6.58308 12.8003 6.5533C12.8003 6.52351 12.8288 6.52351 12.8288 6.49372C12.8003 6.52351 12.8003 6.5533 12.8003 6.58309C12.8003 6.61287 12.7717 6.61287 12.8003 6.64266C12.8289 6.64266 12.8289 6.67244 12.8003 6.67244C12.7717 6.67244 12.7431 6.67244 12.7431 6.64266C12.7145 6.64266 12.7146 6.61287 12.7146 6.58309C12.686 6.58309 12.686 6.58308 12.686 6.5533V6.52351C12.6574 6.49372 12.6574 6.43415 12.686 6.40436C12.7146 6.37457 12.7145 6.34479 12.7431 6.28521C12.7717 6.22564 12.7717 6.25542 12.8003 6.19585C12.8289 6.13627 12.886 6.10649 12.9717 5.98734C13.0288 5.89798 13.1717 5.71926 13.2289 5.68947C13.286 5.65968 13.286 5.62989 13.286 5.6001C13.286 5.57032 13.3145 5.51074 13.3431 5.48096C13.3717 5.51074 13.3717 5.51075 13.4288 5.54053C13.4288 5.57032 13.4574 5.57032 13.4574 5.57032V5.6001C13.4574 5.62989 13.4288 5.65968 13.4574 5.68947C13.4574 5.77883 13.4574 5.80862 13.4574 5.83841Z" fill="#FDE7D4"/>
<path d="M13.6287 8.81714C13.5716 8.84693 13.343 8.96608 13.3145 8.99587C13.2573 9.02566 13.2573 8.96608 13.2573 8.96608C13.2573 8.96608 13.2573 8.93629 13.2573 8.9065C13.2859 8.9065 13.3145 8.84693 13.3716 8.81714C13.4573 8.75757 13.5145 8.72778 13.6287 8.81714Z" fill="#FDE7D4"/>
<path d="M14.2862 8.7876C14.2291 8.81738 14.1433 8.84717 14.0576 8.81739C14.0005 8.7876 14.0576 8.87696 14.0005 8.87696C14.0291 8.90674 14.0576 8.93653 14.0862 8.96632C14.1148 8.99611 14.1433 9.02589 14.1719 9.02589C14.2005 9.02589 14.229 8.99611 14.2005 8.93653C14.229 8.93653 14.2576 8.90674 14.2576 8.87696C14.2862 8.87696 14.2862 8.84717 14.2862 8.81739C14.3148 8.81739 14.3148 8.7876 14.2862 8.7876Z" fill="#FDE7D4"/>
<path d="M13.2861 8.87696C13.3147 8.87696 13.3718 8.87696 13.429 8.93653L13.4861 8.90674C13.4861 8.90674 13.4576 8.87696 13.429 8.87696C13.4576 8.84717 13.4861 8.81738 13.5147 8.7876C13.4861 8.7876 13.4576 8.7876 13.429 8.7876C13.4004 8.81738 13.3719 8.84718 13.3719 8.84718H13.3147C13.3147 8.84718 13.3147 8.84717 13.2861 8.87696Z" fill="#E48E00"/>
<path d="M14.2291 8.78773C14.1719 8.81752 14.1148 8.81752 14.0576 8.78773C14.0005 8.75795 14.0576 8.8473 14.0005 8.87709C14.0005 8.90688 14.029 8.93667 14.0576 8.93667H14.0862C14.0862 8.90688 14.1148 8.87709 14.1719 8.87709C14.1719 8.87709 14.2005 8.81752 14.2291 8.78773Z" fill="#E48E00"/>
<path d="M14.0001 4.61747C13.9715 4.64726 14.0001 4.67705 14.0001 4.67705C14.0287 4.70684 14.0573 4.70684 14.0858 4.67705C14.1144 4.67705 14.143 4.67705 14.143 4.61747C14.1715 4.61747 14.2001 4.58768 14.2001 4.5579C14.2001 4.52811 14.1715 4.46854 14.143 4.46854C14.1715 4.37918 14.143 4.26003 14.0858 4.20045C14.0573 4.11109 13.943 4.05152 13.8573 4.08131C13.8287 4.02173 13.743 3.99194 13.7144 4.05152C13.6573 4.02173 13.6001 4.05151 13.6287 4.11109C13.6001 4.11109 13.543 4.11109 13.543 4.17067C13.543 4.20045 13.5715 4.26002 13.6001 4.26002C13.6287 4.26002 13.6858 4.26003 13.743 4.20045C13.743 4.26003 13.7715 4.28981 13.8287 4.28981C13.8001 4.37917 13.8287 4.43875 13.9144 4.43875C13.9144 4.46854 13.9144 4.5579 13.943 4.5579C13.943 4.58768 13.9144 4.58768 13.9144 4.58768C13.9144 4.61747 13.943 4.67705 13.9715 4.67705C13.9715 4.70684 14.0001 4.76641 14.0287 4.73662C14.0572 4.73662 14.0858 4.70684 14.0858 4.67705" fill="#FFF498"/>
<path d="M13.6289 4.40918C13.6289 4.40918 13.6289 4.43897 13.6575 4.43897C13.6861 4.43897 13.686 4.43897 13.7146 4.43897C13.686 4.43897 13.6861 4.46875 13.6575 4.46875C13.6289 4.43897 13.6289 4.43896 13.6289 4.40918Z" fill="black"/>
</g>
</svg>
