<svg width="20" height="14" viewBox="0 0 20 14" fill="none" xmlns="http://www.w3.org/2000/svg">
<mask id="mask0" mask-type="alpha" maskUnits="userSpaceOnUse" x="0" y="0" width="20" height="14">
<rect width="20" height="14" rx="2" fill="#C4C4C4"/>
</mask>
<g mask="url(#mask0)">
<path d="M20 0H0V14H20V0Z" fill="#4758A9"/>
<mask id="mask1" mask-type="alpha" maskUnits="userSpaceOnUse" x="0" y="0" width="8" height="8">
<rect width="7.14286" height="7.14894" fill="#C4C4C4"/>
</mask>
<g mask="url(#mask1)">
<path d="M-0.0311234 -1.16617L-1.12206 -0.0288163L6.87827 8.31195L7.9692 7.17459L-0.0311234 -1.16617Z" fill="white"/>
<path d="M6.87925 -1.16305L-1.12111 7.17774L-0.0301468 8.31513L7.9702 -0.025667L6.87925 -1.16305Z" fill="white"/>
<path d="M7.06106 -0.636648L-0.636226 7.38818L-0.232168 7.80943L7.46511 -0.215397L7.06106 -0.636648Z" fill="#F54747"/>
<path d="M-0.232168 -0.657086L-0.636226 -0.235835L7.06106 7.78899L7.46511 7.36774L-0.232168 -0.657086Z" fill="#F54747"/>
<path d="M3.99979 0H2.85693V7.14894H3.99979V0Z" fill="white"/>
<path d="M7.14286 2.979H0V4.17049H7.14286V2.979Z" fill="white"/>
<path d="M3.71401 0H3.14258V7.14894H3.71401V0Z" fill="#F54747"/>
<path d="M7.14286 3.27686H0V3.8726H7.14286V3.27686Z" fill="#F54747"/>
</g>
<path d="M13.7717 10.1271C15.3494 10.0942 16.6027 8.73411 16.5711 7.08934C16.5395 5.44456 15.235 4.13791 13.6574 4.17084C12.0797 4.20377 10.8264 5.56382 10.858 7.2086C10.8896 8.85337 12.1941 10.16 13.7717 10.1271Z" fill="white"/>
<path d="M11.743 9.08504C11.7715 9.20418 12.0573 9.32334 12.3716 9.14461C12.6001 9.02546 12.743 8.84673 12.8573 8.51907C12.8858 8.42971 12.9144 8.34035 12.8287 8.28078C12.743 8.2212 12.6287 8.16163 12.6001 8.10206C12.5715 8.07227 12.543 8.04248 12.5144 8.04248C12.543 8.04248 12.543 8.07226 12.543 8.07226C12.6573 8.2212 12.543 8.45951 12.4001 8.60845C12.2858 8.69781 12.1144 8.96588 11.8287 8.72758C11.8287 8.6978 11.6858 8.90631 11.743 9.08504Z" fill="#FFEB95"/>
<path d="M15.6858 9.08504C15.6573 9.20418 15.3715 9.32334 15.0572 9.14461C14.8287 9.02546 14.6858 8.84673 14.5715 8.51907C14.543 8.42971 14.5144 8.34035 14.6001 8.28078C14.6858 8.2212 14.8001 8.16163 14.8287 8.10206C14.8573 8.07227 14.8858 8.04248 14.9144 8.04248C14.8858 8.04248 14.8858 8.07226 14.8858 8.07226C14.7715 8.2212 14.8858 8.45951 15.0287 8.60845C15.143 8.69781 15.3144 8.96588 15.6001 8.72758C15.6001 8.6978 15.743 8.90631 15.6858 9.08504Z" fill="#FFEB95"/>
<path d="M13.7146 9.651C14.2289 9.651 15.0289 9.41269 15.4574 8.57864C15.5146 8.42971 15.4575 8.37014 15.3717 8.31057C15.286 8.28078 15.1717 8.16163 15.1146 8.10205C15.2003 8.2212 15.2003 8.28078 15.1146 8.39993C14.7717 8.96588 14.3432 9.26375 13.7146 9.26375C13.086 9.26375 12.6289 8.96588 12.3146 8.39993C12.2574 8.28078 12.2289 8.19142 12.3146 8.10205C12.2574 8.16163 12.1431 8.25099 12.0574 8.31057C11.9717 8.34036 11.9146 8.42971 11.9717 8.57864C12.4003 9.41269 13.2003 9.651 13.7146 9.651Z" fill="#FFEB95"/>
<path d="M12.514 8.51934C12.514 8.45976 12.4283 8.48956 12.3997 8.54913C12.3712 8.48956 12.3426 8.45977 12.314 8.4002C12.2283 8.28105 12.2283 8.19167 12.3426 8.07253C12.3997 8.01295 12.4855 7.95339 12.5712 8.01297C12.714 8.19169 12.6283 8.40019 12.514 8.51934Z" fill="#DB2F34"/>
<path d="M14.9142 8.51934C14.9142 8.45976 14.9999 8.48956 15.0285 8.54913C15.0571 8.48956 15.0856 8.45977 15.1142 8.4002C15.1999 8.28105 15.1999 8.19167 15.0856 8.07253C15.0285 8.01295 14.9428 7.95339 14.8571 8.01297C14.7142 8.19169 14.7999 8.40019 14.9142 8.51934Z" fill="#DB2F34"/>
<path d="M11.7427 9.08547C11.6856 8.99611 11.6284 8.72802 11.6284 8.66844C11.5998 8.60887 11.5999 8.54929 11.6856 8.51951C11.7427 8.48972 11.8284 8.57908 11.857 8.66844C11.8856 8.7578 11.9427 8.87696 11.9998 9.02589C11.8284 8.93653 11.7141 8.99611 11.7427 9.08547Z" fill="#DB2F34"/>
<path d="M15.6854 9.08547C15.7425 8.99611 15.7997 8.72802 15.7997 8.66844C15.8282 8.60887 15.8282 8.54929 15.7425 8.51951C15.6854 8.48972 15.5997 8.57908 15.5711 8.66844C15.5425 8.7578 15.4854 8.87696 15.4282 9.02589C15.5997 8.93653 15.7139 8.99611 15.6854 9.08547Z" fill="#DB2F34"/>
<path d="M14.9146 6.04687C14.9146 6.31496 14.9146 7.05964 14.9146 7.35752C14.9146 8.48943 14.4004 8.87667 13.7146 9.20433C13.0289 8.90646 12.5147 8.51922 12.5147 7.35752C12.5147 7.05964 12.5147 6.31496 12.5147 6.04687H14.9146Z" fill="white"/>
<path d="M13.7144 7.149C13.7716 7.149 13.8573 7.08943 13.943 7.00007C14.0287 6.91071 14.1715 6.88092 14.3144 7.00007C14.4573 7.11922 14.543 7.05964 14.6287 7.00007C14.7144 6.94049 14.7715 6.91071 14.9144 6.91071C14.9144 6.58305 14.9144 6.2256 14.9144 6.01709H12.4858C12.4858 6.19582 12.4858 6.58305 12.4858 6.91071C12.6287 6.91071 12.6858 6.94049 12.7715 7.00007C12.8573 7.05964 12.943 7.11922 13.0859 7.00007C13.2287 6.88092 13.3715 6.91071 13.4573 7.00007C13.5715 7.11922 13.6573 7.149 13.7144 7.149Z" fill="#DB2F34"/>
<path d="M13.7146 7.83396C13.8003 7.83396 13.9432 7.74461 14.0003 7.71482C14.1432 7.62546 14.2575 7.71482 14.3432 7.7446C14.4289 7.77439 14.6003 7.83397 14.7146 7.7446C14.8289 7.65524 14.8861 7.65525 14.9432 7.65525C14.9432 7.56588 14.9718 7.44672 14.9718 7.32758C14.9718 7.29779 14.9718 7.268 14.9718 7.23822C14.8861 7.20843 14.8289 7.23821 14.7432 7.32758C14.6575 7.41694 14.5432 7.38715 14.4004 7.32758C14.2575 7.268 14.1432 7.14885 14.0003 7.32758C13.9718 7.38715 13.886 7.44673 13.7718 7.44673C13.686 7.44673 13.6004 7.38715 13.5432 7.32758C13.4004 7.14885 13.2861 7.268 13.1432 7.32758C13.0003 7.38715 12.8861 7.41694 12.8004 7.32758C12.7146 7.23821 12.6575 7.20843 12.5718 7.23822C12.5718 7.268 12.5718 7.29779 12.5718 7.32758C12.5718 7.44672 12.5718 7.5361 12.6003 7.65525C12.6861 7.65525 12.7146 7.65524 12.8289 7.7446C12.9432 7.83397 13.1146 7.77439 13.2003 7.7446C13.286 7.71482 13.4004 7.62546 13.5432 7.71482C13.4861 7.74461 13.6289 7.83396 13.7146 7.83396Z" fill="#76B1E0"/>
<path d="M13.7146 8.13166C13.8004 8.13166 13.9146 8.10187 14.0289 8.0423C14.1432 7.98273 14.2575 8.01251 14.3718 8.07208C14.5147 8.13165 14.6289 8.13165 14.6861 8.07208C14.7147 8.04229 14.7718 7.98273 14.8575 8.01252C14.8289 8.19124 14.7718 8.31039 14.6861 8.45933C14.5432 8.48911 14.4861 8.4891 14.3432 8.42953C14.2004 8.36995 14.0289 8.34016 13.9432 8.36995C13.8575 8.42953 13.7718 8.45933 13.6861 8.45933C13.6289 8.45933 13.5146 8.42953 13.4289 8.36995C13.3432 8.31038 13.1718 8.34017 13.0289 8.42953C12.8861 8.4891 12.8289 8.48911 12.6861 8.45933C12.6004 8.34018 12.5432 8.19124 12.5147 8.01252C12.6004 7.98273 12.6289 8.04229 12.6861 8.07208C12.7718 8.13165 12.8861 8.13165 13.0004 8.07208C13.1432 8.01251 13.2289 7.98273 13.3432 8.0423C13.5146 8.07209 13.6289 8.13166 13.7146 8.13166Z" fill="#76B1E0"/>
<path d="M13.7145 9.20417C13.9717 9.08503 14.2002 8.96587 14.4002 8.78715C14.3431 8.75736 14.3145 8.78715 14.2574 8.75737C14.2002 8.72758 14.086 8.72757 13.9717 8.78715C13.8574 8.84672 13.8002 8.84672 13.7145 8.84672C13.6288 8.84672 13.5717 8.84672 13.4574 8.78715C13.3431 8.72757 13.2002 8.72758 13.1717 8.75737C13.1145 8.78715 13.0859 8.78715 13.0288 8.78715C13.2288 8.96587 13.4574 9.08503 13.7145 9.20417Z" fill="#76B1E0"/>
<path d="M13.2289 6.04689C13.1431 6.07668 13.086 6.07668 13.0003 5.98731C12.9431 5.92774 12.9717 5.83839 13.0003 5.8086C13.0574 5.77881 13.1146 5.74902 13.1717 5.74902C13.2574 5.77881 13.4289 5.95753 13.3717 5.95753C13.3717 5.98732 13.286 6.01711 13.2289 6.04689Z" fill="white"/>
<path d="M13.4287 5.71924C13.4573 5.68946 13.4859 5.68945 13.5716 5.68945C13.6573 5.68945 13.7144 5.68945 13.7144 5.74902C13.743 5.8086 13.7716 5.92775 13.8002 5.95754C13.7716 5.98733 13.6001 5.98733 13.543 5.95754C13.4859 5.89796 13.4573 5.74903 13.4287 5.71924Z" fill="white"/>
<path d="M13.9717 5.71912C14.0003 5.68933 14.0288 5.68933 14.1145 5.71912C14.2003 5.71912 14.2288 5.74891 14.2574 5.7787C14.286 5.83827 14.2574 5.92762 14.286 5.9872C14.2574 6.01698 14.1146 5.9872 14.086 5.95742C14.0003 5.92763 14.0003 5.74891 13.9717 5.71912Z" fill="white"/>
<path d="M14.3716 5.7787C14.3145 5.74891 14.2859 5.74891 14.2573 5.7787C14.2859 5.80848 14.2573 5.9872 14.3145 6.04677C14.3716 6.07656 14.4859 6.07656 14.5145 6.01699C14.5145 5.92763 14.5145 5.80848 14.3716 5.7787Z" fill="#003671"/>
<path d="M13.686 5.68945C13.7146 5.65966 13.7432 5.65967 13.8289 5.65967C13.9146 5.65967 13.9718 5.65967 14.0003 5.71925C14.0289 5.77882 14.0289 5.86819 14.0575 5.92776C14.0289 5.95755 13.8575 5.95754 13.8003 5.89796C13.7432 5.89796 13.7432 5.71924 13.686 5.68945Z" fill="#003671"/>
<path d="M13.1431 5.74902C13.1431 5.71924 13.2002 5.71923 13.3145 5.68945C13.4288 5.68945 13.4288 5.68946 13.4859 5.77882C13.5145 5.80861 13.5431 5.89797 13.5716 5.92776C13.4288 5.95755 13.4002 5.98733 13.3145 5.92776C13.2573 5.89797 13.2002 5.80861 13.1716 5.77882C13.1716 5.77882 13.1716 5.77881 13.1431 5.74902Z" fill="#003671"/>
<path d="M13.4571 5.06398C13.3143 4.94483 13.1429 4.85547 13 4.82569C13.0857 4.88526 13.3714 5.12356 13.4286 5.18314" fill="#FFD750"/>
<path d="M13.5426 4.97463C13.3712 4.85548 13.1997 4.73633 13.0283 4.70654C13.1712 4.76611 13.3712 4.94483 13.4855 5.09377" fill="#FFD750"/>
<path d="M13.7427 4.79592C13.8284 4.58741 13.9427 4.46826 14.0569 4.34911C13.9998 4.49805 13.9141 4.76615 13.8855 4.8853" fill="#FFD750"/>
<path d="M13.8857 4.76614C13.9429 4.6172 14.0572 4.49805 14.2286 4.40869C14.1429 4.49805 14.0286 4.76615 13.9715 4.88529" fill="#FFD750"/>
<path d="M13.9429 4.88529C14.0286 4.76614 14.1714 4.55763 14.4572 4.43848C14.2857 4.61721 14.0572 4.91508 14 5.03423" fill="#FFD750"/>
<path d="M14.0286 5.03402C14.1428 4.97444 14.3714 4.85529 14.5429 4.88508C14.4286 4.91487 14.1143 5.0638 14 5.21273" fill="#FFD750"/>
<path d="M14 4.97464C14.1143 4.85549 14.3143 4.67676 14.5143 4.61719C14.3714 4.76612 14.0286 5.12358 14 5.18315" fill="#FFD750"/>
<path d="M13.6859 4.91508C13.6287 4.67678 13.4859 4.43848 13.3144 4.34911C13.4002 4.49805 13.543 4.70658 13.6002 5.03423" fill="#FFD750"/>
<path d="M13.5426 4.91506C13.3998 4.76613 13.2283 4.5874 13.0283 4.55761C13.1712 4.64698 13.3712 4.88527 13.4569 5.09378" fill="#FFD750"/>
<path d="M13.6285 4.91507C13.4571 4.6172 13.3428 4.55761 13.2856 4.49804C13.3428 4.61719 13.4856 4.91508 13.5714 5.03422" fill="#FFD750"/>
<path d="M13.686 4.67677C13.686 4.6172 13.7146 4.55761 13.7717 4.55761C13.8003 4.55761 13.8575 4.64698 13.8575 4.67677C13.8575 4.73634 13.8289 4.76613 13.7717 4.76613C13.7146 4.79591 13.686 4.73634 13.686 4.67677Z" fill="#FFD750"/>
<path d="M13.6001 4.73634C13.6001 4.67677 13.6572 4.61719 13.6858 4.61719C13.7144 4.61719 13.7429 4.70655 13.7429 4.76612C13.7429 4.8257 13.6858 4.85548 13.6573 4.85548C13.6287 4.85548 13.6001 4.79592 13.6001 4.73634Z" fill="#FFD750"/>
<path d="M13.7715 4.76612C13.7715 4.70655 13.8001 4.64697 13.8286 4.61719C13.8572 4.61719 13.9143 4.67677 13.9143 4.73634C13.9143 4.79592 13.8858 4.85548 13.8572 4.85548C13.8286 4.85548 13.7715 4.8257 13.7715 4.76612Z" fill="#FFD750"/>
<path d="M13.686 4.8257C13.686 4.76612 13.7146 4.70654 13.7717 4.70654C13.8003 4.70654 13.8575 4.79591 13.8575 4.8257C13.8575 4.88527 13.8289 4.91505 13.7717 4.91505C13.7146 4.91505 13.686 4.88527 13.686 4.8257Z" fill="#FFD750"/>
<path d="M13.5718 4.85547C13.5718 4.7959 13.6004 4.73634 13.6575 4.73634C13.6861 4.73634 13.7432 4.82569 13.7432 4.85547C13.7432 4.91505 13.7147 4.94483 13.6575 4.94483C13.6004 4.94483 13.5718 4.91505 13.5718 4.85547Z" fill="#FFD750"/>
<path d="M13.8003 4.8257C13.8003 4.76612 13.8289 4.70654 13.886 4.70654C13.9146 4.70654 13.9717 4.79591 13.9717 4.8257C13.9717 4.88527 13.9431 4.91505 13.886 4.91505C13.8289 4.91505 13.8003 4.88527 13.8003 4.8257Z" fill="#FFD750"/>
<path d="M13.7715 4.88527C13.7715 4.82569 13.8001 4.76611 13.8572 4.76611C13.8858 4.76611 13.9429 4.85548 13.9429 4.88527C13.9429 4.94484 13.9143 4.97463 13.8572 4.97463C13.8286 4.97463 13.7715 4.94484 13.7715 4.88527Z" fill="#FFD750"/>
<path d="M13.6572 4.94483C13.6572 4.88525 13.6858 4.82569 13.7429 4.82569C13.7715 4.82569 13.8287 4.91504 13.8287 4.94483C13.8287 5.0044 13.8001 5.0342 13.7429 5.0342C13.7144 5.0342 13.6572 5.0044 13.6572 4.94483Z" fill="#FFD750"/>
<path d="M13.5147 4.94483C13.5147 4.88525 13.5432 4.82569 13.5718 4.82569C13.6004 4.82569 13.6289 4.91504 13.6289 4.94483C13.6289 5.0044 13.6004 5.0342 13.5718 5.0342C13.5432 5.0342 13.5147 5.0044 13.5147 4.94483Z" fill="#FFD750"/>
<path d="M13.8574 4.91505C13.8574 4.85547 13.886 4.79589 13.9145 4.79589C13.9431 4.79589 13.9717 4.88526 13.9717 4.91505C13.9717 4.97462 13.9431 5.00441 13.9145 5.00441C13.9145 5.03419 13.8574 4.97462 13.8574 4.91505Z" fill="#FFD750"/>
<path d="M13.9147 5.0342C13.9432 4.97462 13.9718 4.91504 14.0004 4.91504C14.029 4.91504 14.0289 5.0044 14.0289 5.06397C14.0289 5.12355 13.9718 5.15333 13.9433 5.15333C13.9147 5.15333 13.8861 5.09377 13.9147 5.0342Z" fill="#FFD750"/>
<path d="M13.8003 5.0342C13.8003 4.97462 13.8574 4.91504 13.886 4.91504C13.9146 4.91504 13.9431 5.00441 13.9431 5.0342C13.9431 5.09377 13.9146 5.12355 13.8574 5.12355C13.8003 5.12355 13.7717 5.09377 13.8003 5.0342Z" fill="#FFD750"/>
<path d="M13.6001 5.0342C13.5715 4.97462 13.543 4.91504 13.5144 4.91504C13.4859 4.91504 13.4858 5.0044 13.4858 5.06397C13.4858 5.12355 13.543 5.15333 13.5716 5.15333C13.6001 5.15333 13.6287 5.09377 13.6001 5.0342Z" fill="#FFD750"/>
<path d="M13.5718 5.0342C13.5718 4.97462 13.6003 4.91504 13.6289 4.91504C13.6575 4.91504 13.6861 5.00441 13.6861 5.0342C13.6861 5.09377 13.6575 5.12355 13.6289 5.12355C13.6003 5.12355 13.5718 5.09377 13.5718 5.0342Z" fill="#FFD750"/>
<path d="M13.6572 5.06397C13.6572 5.0044 13.6858 4.94482 13.7429 4.94482C13.7715 4.94482 13.8287 5.03419 13.8287 5.06397C13.8287 5.12355 13.8001 5.15333 13.7429 5.15333C13.6858 5.15333 13.6572 5.12355 13.6572 5.06397Z" fill="#FFD750"/>
<path d="M13.6858 4.31934C13.6858 4.37891 13.6287 4.40869 13.6573 4.49805C13.6001 4.46826 13.543 4.46828 13.4858 4.52785C13.543 4.52785 13.6001 4.52785 13.6287 4.58743C13.5715 4.58743 13.543 4.6172 13.543 4.64699C13.6001 4.64699 13.6287 4.61721 13.6573 4.61721C13.6287 4.61721 13.6001 4.67678 13.6001 4.70657C13.6287 4.67678 13.6858 4.67679 13.7144 4.67679C13.6858 4.73636 13.743 4.76615 13.7715 4.82572C13.7715 4.76615 13.8001 4.70657 13.7715 4.67679C13.8287 4.70657 13.8287 4.73636 13.9144 4.73636C13.8858 4.70658 13.8573 4.64699 13.8287 4.64699C13.8573 4.64699 13.9144 4.64699 13.943 4.64699C13.943 4.6172 13.8858 4.58743 13.8573 4.58743C13.8858 4.55764 13.9144 4.49805 13.943 4.49805C13.9144 4.49805 13.8287 4.52784 13.8001 4.55763C13.8573 4.49806 13.8573 4.4087 13.9144 4.37891C13.8858 4.37891 13.8287 4.4087 13.7715 4.43849C13.7715 4.4087 13.8001 4.34912 13.8287 4.31934C13.7716 4.34912 13.7144 4.4087 13.6858 4.43849C13.7144 4.37892 13.7144 4.34912 13.6858 4.31934Z" fill="#FFD750"/>
<path d="M13.1715 5.15308C13.1143 5.15308 13.0857 5.12329 13.0572 5.0935C13 5.03393 12.8858 5.00415 12.8286 5.06372C12.8001 5.09351 12.8 5.0935 12.7715 5.0935C12.7429 5.0935 12.6858 5.1233 12.7143 5.18288C12.7429 5.15309 12.7429 5.18288 12.7715 5.18288C12.7715 5.18288 12.7715 5.18287 12.7715 5.21266C12.7715 5.24245 12.8572 5.30202 12.9143 5.30202C12.9715 5.30202 13.0286 5.33182 13.0286 5.33182C13.0572 5.3616 13.0286 5.3318 13.0572 5.39138C13.0572 5.42116 13.0857 5.42117 13.0572 5.45095C13 5.48074 12.9715 5.59989 13.0572 5.65947C13.1429 5.71904 13.3429 5.8382 13.6 5.62969C13.8286 5.45096 14.2001 5.54032 14.2286 5.59989C14.2572 5.65946 14.2572 5.71904 14.2858 5.74883C14.2858 5.77861 14.3143 5.8084 14.3715 5.8084C14.4286 5.8084 14.4572 5.83818 14.4857 5.83818C14.5143 5.86797 14.5715 5.8382 14.5429 5.77862C14.5143 5.5999 14.4 5.57011 14.4 5.48075C14.4572 5.48075 14.5143 5.48074 14.5429 5.45095C14.5715 5.42117 14.6 5.3616 14.6 5.3616C14.6286 5.3616 14.6286 5.33182 14.6 5.33182C14.5715 5.33182 14.5429 5.3616 14.4857 5.3616C14.1429 5.3616 13.3143 5.12329 13.1715 5.15308Z" fill="#319B32"/>
<path d="M14.4859 5.39146C14.4574 5.42125 14.4288 5.45104 14.3717 5.5404C14.3145 5.62976 14.1145 5.71914 13.8859 5.71914C13.6574 5.71914 13.5145 5.68934 13.4002 5.59998C13.3431 5.5404 13.286 5.51062 13.2574 5.51062C13.1717 5.48083 13.1717 5.39148 13.2002 5.3319C13.1717 5.36169 13.1717 5.39146 13.1431 5.39146C13.1145 5.39146 13.0574 5.39148 13.086 5.42126C13.086 5.42126 13.0859 5.39146 13.0574 5.39146C13.0574 5.39146 13.0574 5.39146 13.0288 5.39146C13.0574 5.42125 13.086 5.36168 13.1431 5.36168C13.1717 5.36168 13.2002 5.33189 13.2002 5.30211C13.2002 5.27232 13.2002 5.24254 13.1717 5.21275C13.2288 5.18296 13.9145 5.30212 14.0288 5.3319C14.1431 5.27233 14.5431 5.33189 14.4859 5.39146Z" fill="black"/>
<path d="M13.2574 5.12342C13.3145 5.06385 13.4002 5.03407 13.4859 5.03407H13.5145C13.5431 5.00428 13.6288 5.00428 13.6859 5.03407H13.7145C13.8002 5.00428 13.9431 5.03405 14.0002 5.09363H14.0288C14.2002 5.09363 14.3145 5.1532 14.4288 5.30214C14.4574 5.33193 14.4573 5.36172 14.4859 5.36172C14.5145 5.36172 14.5431 5.3915 14.4859 5.3915C14.4573 5.42129 14.4288 5.45108 14.3431 5.51065C14.2859 5.60002 14.0859 5.65959 13.8574 5.65959C13.6288 5.65959 13.4859 5.6298 13.4002 5.54043C13.3431 5.48086 13.3145 5.48086 13.2574 5.45108C13.2288 5.42129 13.1716 5.39151 13.1716 5.33194C13.1716 5.27236 13.1431 5.21278 13.1431 5.1532C13.1716 5.1532 13.2002 5.12342 13.2574 5.12342Z" fill="#319B32"/>
<path d="M14.4 5.30226C14.2857 5.18311 14.1714 5.09374 14 5.09374V5.12354C14.1143 5.15333 14.2571 5.27247 14.3143 5.36184C14.3428 5.36184 14.3714 5.33204 14.4 5.30226Z" fill="#00533D"/>
<path d="M13.9713 5.09371C13.9141 5.03414 13.7713 5.00437 13.6856 5.03415C13.6856 5.06394 13.6856 5.09372 13.6856 5.12351C13.7141 5.1533 13.7713 5.18308 13.7998 5.24265C13.8284 5.24265 13.8855 5.21287 13.9141 5.21287C13.9427 5.18308 13.9713 5.1235 13.9713 5.09371Z" fill="#00533D"/>
<path d="M13.657 5.03407C13.5999 5.00428 13.5142 5.00428 13.4856 5.03407C13.4856 5.06385 13.457 5.12342 13.457 5.1532C13.4856 5.1532 13.5142 5.183 13.5428 5.183C13.5713 5.15322 13.6285 5.15321 13.657 5.12342C13.657 5.09364 13.6856 5.06385 13.657 5.03407Z" fill="#00533D"/>
<path d="M13.2568 5.12355C13.314 5.06397 13.3997 5.03419 13.4854 5.03419C13.4854 5.06397 13.4568 5.09375 13.4568 5.15333C13.3997 5.15333 13.2854 5.15334 13.2568 5.18312C13.2568 5.18312 13.2568 5.15333 13.2568 5.12355Z" fill="#00533D"/>
<path d="M14.2855 5.42141C14.2283 5.33205 14.0855 5.24269 13.9998 5.18311C13.9998 5.18311 13.9712 5.21289 13.9712 5.24267C13.9998 5.30225 14.0855 5.45119 14.1141 5.51076C14.1426 5.48098 14.2283 5.45119 14.2855 5.42141Z" fill="#00533D"/>
<path d="M13.7715 5.57034C13.8 5.48098 13.8001 5.33203 13.8001 5.30224C13.8286 5.30224 13.8858 5.27246 13.9143 5.27246C13.9429 5.33204 14.0286 5.45118 14.0572 5.54054C14 5.54054 13.8572 5.57034 13.7715 5.57034Z" fill="#00533D"/>
<path d="M13.5713 5.24267C13.5999 5.21289 13.657 5.2129 13.6856 5.18311C13.7142 5.2129 13.7713 5.24268 13.7713 5.27247C13.7713 5.33204 13.7713 5.51077 13.7427 5.57034C13.6856 5.57034 13.5999 5.57033 13.5713 5.54054C13.5713 5.4214 13.5713 5.30225 13.5713 5.24267Z" fill="#00533D"/>
<path d="M13.2285 5.33177C13.2285 5.30198 13.2285 5.27218 13.2285 5.2424C13.2857 5.21261 13.4 5.18282 13.5142 5.2424C13.5142 5.30197 13.5142 5.4807 13.5142 5.51049C13.4285 5.42113 13.2857 5.33177 13.2285 5.33177Z" fill="#00533D"/>
<path d="M12.9143 5.18311C12.9143 5.18311 12.8858 5.15332 12.8572 5.15332H12.8286V5.18311C12.8572 5.2129 12.8857 5.18311 12.9143 5.18311Z" fill="black"/>
<path d="M13.5429 6.37454C13.5429 6.37454 13.5429 6.40431 13.5429 6.4341C13.5429 6.46389 13.5429 6.46389 13.5715 6.49368C13.6001 6.49368 13.6001 6.49368 13.6286 6.49368C13.7715 6.49368 13.943 6.4341 14.0858 6.4341C14.2287 6.4341 14.3144 6.49368 14.3715 6.49368C14.4287 6.49368 14.4572 6.46389 14.4572 6.4341C14.4572 6.40431 14.4001 6.37454 14.2858 6.37454C14.1429 6.37454 14.0572 6.40432 13.9144 6.40432C13.7144 6.40432 13.6858 6.34474 13.6858 6.28516C13.6858 6.25538 13.7144 6.19581 13.8287 6.19581C13.8572 6.19581 13.8858 6.19581 13.8858 6.16603C13.8858 6.16603 13.9144 6.13623 13.943 6.10645C13.9715 6.07666 14.0858 6.10645 14.1144 6.07667C14.1144 6.10645 14.0858 6.13624 14.0572 6.16603C14.1144 6.13624 14.2001 6.13623 14.2001 6.19581C14.1715 6.16602 14.1144 6.19581 14.0858 6.19581C14.0572 6.19581 14.0572 6.2256 14.0286 6.2256C14.0572 6.2256 14.0858 6.28516 14.1144 6.28516C14.0858 6.31495 14.0001 6.31495 13.943 6.28516C13.9144 6.28516 13.8858 6.25538 13.8287 6.25538C13.7715 6.25538 13.7429 6.25538 13.7429 6.28516C13.7429 6.31495 13.7715 6.34474 13.8858 6.34474C14.0001 6.34474 14.0572 6.31496 14.2287 6.31496C14.2001 6.28517 14.2286 6.28517 14.2001 6.25538C14.2572 6.25538 14.343 6.28517 14.3715 6.31496C14.3715 6.25539 14.4001 6.22559 14.4001 6.19581C14.4287 6.19581 14.4572 6.25538 14.4858 6.28516C14.4858 6.25538 14.5144 6.25538 14.5144 6.25538C14.5715 6.28517 14.5715 6.31497 14.5715 6.37454C14.6001 6.34475 14.6001 6.34475 14.6286 6.31496C14.6572 6.34475 14.6286 6.43411 14.6001 6.4639C14.6286 6.43411 14.6858 6.4341 14.7429 6.49368C14.7144 6.49368 14.6858 6.49369 14.6572 6.52348C14.5715 6.58305 14.4572 6.58304 14.3429 6.58304C14.2286 6.58304 14.2286 6.55326 14.1715 6.55326C14.2001 6.55326 14.2858 6.64261 14.3429 6.64261C14.4001 6.64261 14.4287 6.64261 14.4287 6.64261C14.4572 6.64261 14.4858 6.64263 14.5144 6.67241C14.543 6.7022 14.5715 6.70219 14.6001 6.70219C14.6001 6.73198 14.5715 6.73198 14.5715 6.76177C14.6001 6.79156 14.6001 6.79156 14.6286 6.82135C14.6286 6.82135 14.6001 6.82135 14.5715 6.82135C14.6001 6.85114 14.6001 6.88091 14.6001 6.88091H14.5715C14.6001 6.9107 14.5715 6.9405 14.6001 6.97028C14.6286 7.00007 14.5715 7.02985 14.5429 7.00006C14.5429 7.02985 14.5144 7.02984 14.5144 7.02984C14.4858 7.02984 14.4858 7.00006 14.4858 7.00006C14.4858 7.02985 14.4572 7.02985 14.4287 7.00006C14.4287 7.00006 14.4287 7.00007 14.4001 6.97028C14.3429 6.97028 14.3429 6.94049 14.3429 6.91071C14.3429 6.88092 14.3715 6.88091 14.4001 6.88091H14.4287C14.4572 6.88091 14.4572 6.85113 14.4572 6.85113C14.4572 6.82134 14.4286 6.76176 14.3429 6.79155C14.2572 6.79155 14.0858 6.76176 14.0286 6.73197C14.0286 6.73197 14.0287 6.73197 14.0001 6.73197C14.0001 6.76176 13.9715 6.76176 13.9715 6.79155C13.9715 6.82134 14.0001 6.85112 14.0286 6.88091C14.0001 6.9107 13.9715 6.9107 13.9715 6.88091C13.9715 6.9107 13.943 6.9107 13.943 6.94049C13.943 6.94049 13.9429 6.91071 13.9144 6.91071C13.8858 6.97028 13.8572 6.97028 13.8287 6.97028C13.8001 7.00007 13.7715 7.00007 13.7429 6.97028C13.7144 6.97028 13.6858 6.97028 13.6858 6.97028C13.6858 7.00007 13.6858 6.97028 13.6572 7.00006C13.6572 7.02985 13.6286 7.02984 13.6286 7.02984C13.6286 7.02984 13.6001 7.00006 13.6286 7.00006C13.6001 7.00006 13.5715 7.00006 13.5715 7.00006V6.97028C13.5715 6.97028 13.543 6.97028 13.5144 6.97028V6.94049C13.5144 6.94049 13.5429 6.9107 13.5429 6.94049V6.91071C13.5429 6.91071 13.5715 6.91071 13.6001 6.91071C13.6286 6.94049 13.6287 6.94049 13.6572 6.94049C13.6858 6.94049 13.7429 6.9107 13.7715 6.88091C13.6572 6.85112 13.7144 6.79156 13.7715 6.76177C13.7429 6.76177 13.7144 6.76177 13.6858 6.76177C13.5429 6.82134 13.4001 6.91071 13.3144 6.91071C13.3144 6.91071 13.3144 6.94049 13.3429 6.94049C13.3144 6.94049 13.2858 6.94049 13.2858 6.91071C13.2858 6.91071 13.2572 6.97028 13.2858 6.97028C13.2572 6.97028 13.2287 6.94049 13.2287 6.94049C13.2287 6.97027 13.2287 6.97028 13.2287 7.00006C13.2001 6.97028 13.1715 6.97028 13.1715 6.97028C13.1715 7.00007 13.1429 7.00007 13.1144 6.97028C13.1144 7.00007 13.0858 7.00006 13.0572 7.00006C13.0572 6.97028 13.0572 6.97027 13.0572 6.94049C13.0572 6.97027 13.0287 7.00006 13.0001 7.00006C13.0001 7.00006 13.0001 6.97027 13.0001 6.94049C13.0001 6.97027 12.943 6.97028 12.943 7.00006C12.943 6.97028 12.943 6.97027 12.943 6.94049C12.943 6.97027 12.9144 7.00006 12.8858 7.00006V6.97028C12.8858 7.00007 12.8287 7.00006 12.8001 7.00006C12.8001 7.00006 12.7715 7.02985 12.7429 7.00006C12.7144 7.00006 12.7144 6.97028 12.7144 6.97028C12.6858 6.97028 12.6572 6.94049 12.6858 6.91071C12.6572 6.88092 12.6572 6.85113 12.6858 6.85113H12.7144C12.7144 6.79155 12.7715 6.79156 12.7715 6.82135C12.7715 6.85114 12.8287 6.88091 12.8572 6.88091H12.8858C12.9144 6.88091 13.0001 6.82134 13.0572 6.79155C13.0572 6.76176 13.0572 6.76176 13.0572 6.73197C13.0286 6.76176 13.0001 6.76176 13.0001 6.79155V6.76177C12.9715 6.76177 12.943 6.76177 12.943 6.76177C12.943 6.76177 12.9429 6.73198 12.9715 6.70219C12.9429 6.70219 12.9144 6.70219 12.8858 6.70219C12.8858 6.70219 12.8858 6.6724 12.9144 6.64261C12.8858 6.64261 12.8572 6.64261 12.8287 6.64261C12.8287 6.61283 12.8287 6.58304 12.8572 6.58304C12.8287 6.58304 12.8001 6.58304 12.7715 6.58304C12.8001 6.58304 12.8001 6.55326 12.8287 6.55326C12.7715 6.55326 12.7715 6.52348 12.7429 6.52348C12.7715 6.52348 12.7715 6.49368 12.8001 6.49368C12.7715 6.49368 12.7429 6.46389 12.7715 6.4341C12.7715 6.4341 12.7715 6.43411 12.7429 6.4639C12.7429 6.4639 12.6858 6.46389 12.6858 6.4341C12.6858 6.40431 12.6858 6.37454 12.6858 6.37454C12.6572 6.37454 12.6572 6.34475 12.6572 6.31496C12.6572 6.31496 12.6858 6.28517 12.7144 6.31496C12.7144 6.31496 12.7144 6.34474 12.7429 6.34474C12.7429 6.31495 12.7429 6.31495 12.7429 6.28516C12.7429 6.25538 12.7715 6.25538 12.7715 6.25538C12.8001 6.25538 12.8001 6.28516 12.8001 6.28516C12.8001 6.31495 12.8001 6.31495 12.8001 6.34474V6.31496C12.8001 6.28517 12.8287 6.28516 12.8572 6.28516C12.8858 6.28516 12.8858 6.34474 12.8572 6.34474C12.8287 6.37453 12.8572 6.37453 12.8572 6.40432C12.9144 6.46389 12.9715 6.55326 13.0572 6.55326C13.0572 6.52347 13.0572 6.49369 13.0858 6.4639C13.0858 6.43411 13.0858 6.43411 13.1144 6.40432C13.1144 6.37453 13.1429 6.34474 13.1715 6.34474C13.1715 6.34474 13.1715 6.34475 13.1715 6.31496C13.1429 6.28517 13.1429 6.25539 13.1429 6.2256C13.1429 6.19582 13.2001 6.19582 13.2001 6.2256C13.2001 6.16603 13.2287 6.16601 13.2572 6.13623C13.2572 6.16601 13.2858 6.19581 13.2572 6.19581C13.2572 6.16602 13.3144 6.13623 13.3429 6.13623C13.3429 6.16601 13.3715 6.19581 13.3715 6.19581C13.3715 6.16602 13.4286 6.13623 13.4858 6.13623C13.4858 6.13623 13.4858 6.16602 13.4572 6.19581C13.4858 6.19581 13.5144 6.19581 13.5144 6.16603C13.5144 6.19581 13.5144 6.2256 13.4858 6.2256C13.4858 6.2256 13.5144 6.2256 13.5429 6.2256C13.5144 6.25539 13.543 6.25538 13.5144 6.28516C13.543 6.25538 13.5715 6.28516 13.5715 6.28516C13.5715 6.31495 13.5715 6.34474 13.5429 6.34474C13.5715 6.37453 13.5429 6.37454 13.5429 6.37454Z" fill="#FFD750"/>
<path d="M13.9713 6.64257C13.9428 6.64257 13.9427 6.64259 13.9142 6.67237C13.8856 6.70216 13.9142 6.70215 13.9428 6.70215C13.9428 6.73194 13.9428 6.73193 13.9713 6.73193C13.9713 6.76172 13.9999 6.76172 13.9999 6.79151C14.0285 6.76172 14.0285 6.73193 13.9999 6.73193C13.9713 6.67236 13.9428 6.64257 13.9713 6.64257Z" fill="black"/>
<path d="M13.3714 6.4043C13.3429 6.4043 13.3428 6.37451 13.3428 6.34472L13.3143 6.37452C13.2857 6.4341 13.2571 6.49366 13.2 6.49366C13.1428 6.49366 13.1714 6.55324 13.2 6.55324C13.2857 6.55324 13.3143 6.55324 13.3714 6.4043Z" fill="#003671"/>
<path d="M12.7429 6.25538C12.7715 6.22559 12.7429 6.22558 12.7429 6.1958C12.7144 6.1958 12.6858 6.19581 12.6572 6.2256C12.6858 6.2256 12.6858 6.2256 12.7144 6.2256C12.7144 6.25538 12.7144 6.28516 12.7429 6.25538Z" fill="#003671"/>
<path d="M12.7715 6.13622C12.8286 6.13622 12.8286 6.13623 12.8286 6.16602C12.8286 6.19581 12.8286 6.1958 12.8001 6.1958C12.7715 6.1958 12.7715 6.19581 12.7715 6.16602C12.8 6.16602 12.7715 6.13622 12.7715 6.13622Z" fill="#003671"/>
<path d="M12.886 6.25538C12.9146 6.25538 12.9146 6.2256 12.9146 6.2256C12.9146 6.19581 12.886 6.1958 12.8574 6.1958C12.886 6.1958 12.8574 6.22559 12.886 6.25538Z" fill="#003671"/>
<path d="M12.6572 6.3446C12.6858 6.37439 12.7144 6.3744 12.7144 6.3744C12.7429 6.3744 12.7429 6.3446 12.7429 6.3446C12.7429 6.31482 12.7144 6.31482 12.7144 6.3446C12.7144 6.37439 12.6572 6.37439 12.6572 6.3446Z" fill="#003671"/>
<path d="M12.7429 6.7616C12.7429 6.73181 12.6858 6.73181 12.6572 6.7616C12.6572 6.7616 12.6858 6.76159 12.7144 6.79138C12.7144 6.79138 12.7429 6.79139 12.7429 6.7616C12.7429 6.79139 12.7715 6.79139 12.7429 6.7616Z" fill="#003671"/>
<path d="M12.8001 6.73193C12.8001 6.70214 12.7429 6.70215 12.7144 6.70215C12.7429 6.70215 12.7429 6.70214 12.7429 6.73193C12.7715 6.73193 12.7715 6.76172 12.8001 6.73193Z" fill="#003671"/>
<path d="M12.7427 6.85107C12.7141 6.85107 12.6856 6.88087 12.6856 6.91065C12.6856 6.91065 12.7141 6.88085 12.7427 6.88085C12.7713 6.88085 12.7427 6.88086 12.7427 6.85107C12.7713 6.85107 12.7427 6.85107 12.7427 6.85107Z" fill="#003671"/>
<path d="M12.7432 6.97028C12.7717 6.97028 12.7717 6.97027 12.7717 6.94048C12.7717 6.91069 12.8003 6.94048 12.8003 6.94048C12.8003 6.94048 12.8003 6.97027 12.8003 7.00006C12.8003 7.00006 12.7717 7.00007 12.7432 6.97028Z" fill="#003671"/>
<path d="M13.6284 6.76178C13.6284 6.76178 13.5713 6.73199 13.5713 6.76178C13.5999 6.76178 13.5999 6.76177 13.5999 6.79156C13.6284 6.79156 13.6284 6.79156 13.6284 6.76178C13.657 6.79156 13.657 6.76178 13.6284 6.76178Z" fill="#003671"/>
<path d="M13.5713 6.7915C13.5427 6.7915 13.5142 6.82129 13.5142 6.85108C13.5142 6.85108 13.5427 6.8213 13.5713 6.8213C13.5713 6.85109 13.5999 6.85107 13.5713 6.7915C13.5999 6.82129 13.5999 6.82129 13.5713 6.7915Z" fill="#003671"/>
<path d="M13.6284 6.85107C13.5998 6.85107 13.5713 6.88087 13.5713 6.91065C13.5713 6.91065 13.5999 6.88087 13.5999 6.91065C13.6284 6.91065 13.6284 6.88086 13.6284 6.85107C13.6284 6.88086 13.6284 6.85107 13.6284 6.85107Z" fill="#003671"/>
<path d="M13.6858 6.91065C13.6858 6.91065 13.6572 6.91064 13.6572 6.94043C13.6572 6.97022 13.6572 6.97022 13.6572 7.00001L13.6858 6.97023C13.6858 6.94044 13.6858 6.94044 13.6858 6.91065Z" fill="#003671"/>
<path d="M14.4002 6.85107H14.3716C14.3716 6.85107 14.343 6.91065 14.3716 6.91065C14.3716 6.91065 14.3716 6.88085 14.4002 6.88085C14.4002 6.91064 14.4287 6.88086 14.4002 6.85107Z" fill="#003671"/>
<path d="M14.457 6.88085C14.4284 6.88085 14.4284 6.94044 14.457 6.97023C14.457 6.97023 14.457 6.94043 14.4855 6.94043C14.5141 6.94043 14.5141 6.91065 14.5141 6.91065C14.457 6.88086 14.457 6.88085 14.457 6.88085Z" fill="#003671"/>
<path d="M14.5144 6.91065C14.5144 6.91065 14.4858 6.91064 14.4858 6.94043C14.4858 6.94043 14.4859 6.97022 14.5144 7.00001V6.97023C14.543 6.94044 14.543 6.91065 14.5144 6.91065Z" fill="#003671"/>
<path d="M14.5713 6.91065C14.5713 6.91065 14.5427 6.94043 14.5713 6.94043C14.5713 6.97022 14.5998 6.97023 14.6284 6.97023C14.5998 6.94044 14.5999 6.94044 14.5713 6.91065C14.5999 6.91065 14.5999 6.91065 14.5713 6.91065Z" fill="#003671"/>
<path d="M13.1146 7.11915L13.0003 7.50638H12.5718L12.9146 7.77445L12.8004 8.1617L13.1146 7.92339L13.4289 8.1617L13.3146 7.77445L13.6289 7.53616H13.2289L13.1146 7.11915Z" fill="#FFD750"/>
<path d="M14.3146 7.11915L14.4574 7.50638H14.8574L14.5146 7.77445L14.6575 8.1617L14.3146 7.92339L14.0003 8.1617L14.1146 7.77445L13.8003 7.53616H14.2003L14.3146 7.11915Z" fill="#FFD750"/>
<path d="M13.7145 7.86378L13.6002 8.25101H13.2002L13.5145 8.4893L13.4002 8.90633L13.7145 8.63824L14.0288 8.90633L13.9145 8.4893L14.2288 8.25101H13.8288L13.7145 7.86378Z" fill="#FFD750"/>
<path d="M13.1146 7.23828L13.0003 7.56595H12.686L12.9432 7.74466L12.8575 8.07232L13.1146 7.86382L13.3718 8.07232L13.2575 7.74466L13.5146 7.56595H13.2003L13.1146 7.23828Z" fill="#319B32"/>
<path d="M14.3145 7.23828L14.4288 7.56595H14.7431L14.486 7.74466L14.5717 8.07232L14.3145 7.86382L14.0574 8.07232L14.1717 7.74466L13.9145 7.56595H14.2289L14.3145 7.23828Z" fill="#319B32"/>
<path d="M13.7145 7.98291L13.6287 8.28078H13.3144L13.5716 8.48929L13.4573 8.78716L13.7145 8.60845L13.9716 8.78716L13.8859 8.48929L14.1145 8.28078H13.8002L13.7145 7.98291Z" fill="#319B32"/>
<path d="M12.1145 8.48926L12.0574 8.51904V8.54884L12.0288 8.48926C12.0288 8.48926 12.0288 8.48926 12.0574 8.48926L12.1717 8.42969V8.39991L12.2002 8.45948C12.2002 8.45948 12.2002 8.45948 12.1717 8.45948L12.1145 8.48926L12.1431 8.51904L12.2002 8.48926V8.45948L12.2288 8.51904C12.2288 8.51904 12.2288 8.51904 12.2002 8.51904L12.086 8.57862V8.60842L12.0574 8.54884C12.0574 8.54884 12.0574 8.54884 12.086 8.54884L12.1431 8.51904L12.1145 8.48926Z" fill="#00533D"/>
<path d="M12.229 8.57861C12.2576 8.57861 12.2576 8.54882 12.229 8.57861V8.54883L12.2862 8.66797L12.229 8.69777C12.2576 8.66798 12.2576 8.63819 12.2576 8.63819C12.2576 8.63819 12.2576 8.6382 12.2576 8.60841C12.2862 8.60841 12.2576 8.6084 12.229 8.57861C12.229 8.6084 12.2004 8.63819 12.2004 8.63819C12.2004 8.63819 12.2005 8.66798 12.2576 8.63819L12.2004 8.69777C12.229 8.66798 12.229 8.63819 12.229 8.63819L12.1719 8.66797C12.1719 8.66797 12.1719 8.66798 12.1719 8.69777C12.1719 8.69777 12.1719 8.69776 12.1719 8.72755C12.1719 8.72755 12.2005 8.75734 12.229 8.72755L12.1719 8.75735L12.1148 8.63819H12.1433L12.229 8.57861Z" fill="#00533D"/>
<path d="M12.343 8.8169L12.3145 8.84669V8.87647L12.2573 8.8169H12.2859L12.3716 8.72754V8.69776L12.4288 8.75734H12.4002L12.343 8.8169L12.3716 8.84669L12.4002 8.8169V8.78712L12.4573 8.84669H12.4288L12.343 8.93605V8.96583L12.2859 8.90627H12.3145L12.343 8.87647V8.8169Z" fill="#00533D"/>
<path d="M12.4287 8.96582C12.4573 8.93603 12.4859 8.93604 12.4859 8.93604C12.4859 8.93604 12.4573 8.93603 12.4287 8.96582C12.4002 8.96582 12.4002 8.96582 12.4002 8.96582C12.3716 8.96582 12.4002 8.99562 12.4002 8.99562L12.3716 8.96582H12.4002C12.543 8.87646 12.543 8.87646 12.543 8.87646C12.543 8.87646 12.543 8.87646 12.4859 9.0254V9.0552L12.4287 8.99562H12.4573C12.4573 9.02541 12.4573 8.99561 12.4287 8.96582Z" fill="#00533D"/>
<path d="M12.4858 9.11475C12.5144 9.11475 12.5144 9.11475 12.4858 9.11475L12.6001 8.99561C12.6001 8.99561 12.5716 8.99561 12.543 8.99561L12.5716 8.96581L12.6573 9.05519L12.6287 9.08497C12.6573 9.05518 12.6287 9.05518 12.6287 9.02539L12.543 9.14455V9.17433L12.4858 9.11475Z" fill="#00533D"/>
<path d="M12.6575 9.11475L12.6289 9.17432V9.20412L12.5718 9.17432H12.6003L12.6575 9.05519V9.02539L12.7146 9.05519H12.6861L12.6575 9.11475L12.7146 9.14454L12.7432 9.08497V9.05519L12.8004 9.08497H12.7718L12.7146 9.20412V9.2339L12.6575 9.20412H12.6861L12.7146 9.14454L12.6575 9.11475Z" fill="#00533D"/>
<path d="M12.8003 9.32325L12.886 9.20411V9.17431L13.0003 9.23389L12.9717 9.29347C13.0003 9.26368 12.9717 9.23389 12.9717 9.23389C12.9717 9.23389 12.9717 9.23389 12.9432 9.23389L12.9146 9.29347C12.9146 9.29347 12.9432 9.32325 12.9717 9.26367L12.9432 9.35305C12.9717 9.32326 12.9432 9.29347 12.9432 9.29347L12.9146 9.35305V9.38283L12.8003 9.32325Z" fill="#00533D"/>
<path d="M12.9716 9.41257C12.943 9.41257 12.943 9.353 12.9716 9.32321C13.0001 9.29342 13.0287 9.26363 13.0287 9.26363C13.0573 9.26363 13.0573 9.32322 13.0287 9.35301C13.0287 9.3828 13.0001 9.41257 12.9716 9.41257C13.0001 9.44236 13.0573 9.41258 13.0573 9.35301C13.0858 9.29344 13.0573 9.26364 13.0287 9.23385C13.0001 9.20407 12.943 9.23386 12.943 9.29343C12.9144 9.35301 12.943 9.38278 12.9716 9.41257Z" fill="#00533D"/>
<path d="M13.1718 9.4126L13.2003 9.32324V9.29346H13.2289H13.2003L13.1718 9.4126C13.1718 9.44239 13.1432 9.47218 13.1146 9.47218C13.0861 9.47218 13.0575 9.44239 13.0861 9.38282L13.1146 9.29346V9.26366L13.1718 9.29346H13.1432L13.1146 9.38282C13.1146 9.41261 13.1146 9.4424 13.1146 9.4424C13.1432 9.47218 13.1718 9.47217 13.1718 9.4126Z" fill="#00533D"/>
<path d="M13.229 9.32324H13.2576L13.2862 9.4424L13.3147 9.35304V9.32324H13.3433C13.3433 9.32324 13.3147 9.32325 13.3147 9.35304L13.2862 9.50197L13.229 9.35304L13.2004 9.47218V9.50197H13.1719C13.1719 9.50197 13.2004 9.50196 13.2004 9.47218L13.229 9.32324Z" fill="#00533D"/>
<path d="M13.4573 9.47217C13.4573 9.53174 13.4287 9.53175 13.4002 9.53175L13.4287 9.38281C13.4287 9.38281 13.4573 9.4126 13.4573 9.47217C13.4859 9.4126 13.4573 9.38281 13.4287 9.38281C13.4002 9.38281 13.3716 9.38281 13.3716 9.38281C13.3716 9.38281 13.4002 9.38281 13.3716 9.41259L13.343 9.53175C13.343 9.53175 13.343 9.56153 13.3144 9.56153H13.3716C13.4288 9.56153 13.4573 9.56153 13.4573 9.47217Z" fill="#00533D"/>
<path d="M13.5147 9.41259C13.5147 9.41259 13.4861 9.41259 13.5147 9.41259H13.6289V9.47217C13.6289 9.44238 13.6004 9.41259 13.6004 9.41259C13.6004 9.41259 13.6004 9.41259 13.5718 9.41259C13.5718 9.41259 13.5718 9.4126 13.5718 9.44239V9.50197C13.5718 9.50197 13.6004 9.50196 13.6004 9.47217V9.56153C13.6004 9.50195 13.5718 9.53175 13.5718 9.50197V9.56153V9.59133C13.5718 9.59133 13.5718 9.59133 13.6004 9.59133C13.6289 9.59133 13.6289 9.59131 13.6575 9.56153L13.6289 9.62111H13.5147C13.5147 9.62111 13.5432 9.62111 13.5432 9.59133L13.5147 9.41259Z" fill="#00533D"/>
<path d="M13.9145 9.56153L13.8574 9.59132C13.8574 9.59132 13.886 9.59131 13.886 9.56153V9.44239C13.886 9.44239 13.886 9.41259 13.8574 9.41259H13.9145C13.9145 9.41259 13.886 9.4126 13.886 9.44239L13.9145 9.56153Z" fill="#00533D"/>
<path d="M13.9719 9.56153C13.9719 9.56153 14.0005 9.56153 13.9719 9.56153V9.38281C13.9719 9.38281 13.9434 9.41261 13.9434 9.44239V9.38281L14.0576 9.35303V9.41259C14.0576 9.38281 14.0291 9.38281 14.0291 9.38281L14.0576 9.53175C14.0576 9.56154 14.0577 9.56153 14.0862 9.56153H13.9719Z" fill="#00533D"/>
<path d="M14.2576 9.44239L14.229 9.35303C14.229 9.35303 14.229 9.35303 14.2004 9.35303H14.229C14.229 9.35303 14.229 9.35303 14.229 9.38281L14.2576 9.44239C14.2576 9.47218 14.2862 9.50196 14.229 9.53175C14.2005 9.53175 14.1719 9.53176 14.1719 9.50197L14.1433 9.41259C14.1433 9.41259 14.1433 9.41259 14.1148 9.41259L14.1719 9.38281C14.1719 9.38281 14.1433 9.38281 14.1719 9.41259L14.2004 9.50197C14.2004 9.53176 14.229 9.56154 14.2576 9.53175C14.2576 9.50196 14.2576 9.47218 14.2576 9.44239Z" fill="#00533D"/>
<path d="M14.3145 9.38282C14.343 9.38282 14.343 9.35303 14.343 9.32324C14.343 9.29345 14.3145 9.29346 14.3145 9.29346C14.3145 9.29346 14.3145 9.29345 14.3145 9.32324V9.38282L14.343 9.4424C14.343 9.4424 14.3431 9.4424 14.3716 9.4424L14.3145 9.47218C14.3145 9.47218 14.3145 9.47218 14.3145 9.4424L14.2859 9.32324H14.2573L14.3145 9.29346C14.343 9.29346 14.3716 9.29345 14.3716 9.32324C14.3716 9.35303 14.3716 9.38282 14.3145 9.38282C14.343 9.38282 14.3145 9.38282 14.3145 9.38282Z" fill="#00533D"/>
<path d="M14.4858 9.20411L14.6287 9.23389L14.6001 9.14454H14.5716L14.6001 9.11474C14.6001 9.11474 14.6001 9.11475 14.6001 9.14454L14.6573 9.29347L14.4858 9.20411L14.5716 9.32325H14.6001L14.5716 9.35305C14.5716 9.35305 14.5716 9.35304 14.5716 9.32325L14.4858 9.20411Z" fill="#00533D"/>
<path d="M14.7715 9.2339V9.20412L14.6858 9.08496C14.6858 9.08496 14.6572 9.11475 14.6858 9.14454L14.6572 9.11474L14.7429 9.05518L14.7715 9.08496C14.7715 9.05518 14.7429 9.05518 14.7144 9.05518L14.8001 9.17432H14.8287L14.7715 9.2339Z" fill="#00533D"/>
<path d="M14.8575 9.08497L14.886 9.14455H14.9146L14.8575 9.17433V9.14455L14.7717 9.05519H14.7432L14.8003 9.02539V9.05519L14.8575 9.08497L14.886 9.05519L14.8575 9.02539H14.8289L14.886 8.99561V9.02539L14.9717 9.11475H15.0003L14.9432 9.14455V9.11475L14.9146 9.05519L14.8575 9.08497Z" fill="#00533D"/>
<path d="M14.9143 8.93604C14.9143 8.93604 14.8857 8.93604 14.9143 8.93604H14.8857L14.9715 8.84668L15 8.87646C14.9715 8.84668 14.9429 8.84668 14.9429 8.87646C14.9143 8.90625 14.9143 8.90625 14.9143 8.93604C14.9429 8.90625 14.9715 8.96582 14.9715 8.96582C14.9715 8.96582 15 8.93605 14.9715 8.90626L15.0286 8.96582C15 8.93603 14.9715 8.96582 14.9715 8.96582L15 8.99562C15 8.99562 15 8.99562 15.0286 8.99562C15.0286 8.99562 15.0572 8.96583 15.0286 8.93604L15.0572 8.99562L14.9715 9.08498V9.0552L14.9143 8.93604Z" fill="#00533D"/>
<path d="M15.0574 8.75733V8.78711C15.0574 8.78711 15.086 8.78711 15.1145 8.78711C15.1431 8.78711 15.1431 8.78711 15.1717 8.78711C15.2002 8.8169 15.2002 8.84669 15.1717 8.84669L15.1431 8.87647L15.086 8.84669C15.1145 8.87648 15.1431 8.87648 15.1431 8.84669V8.81689C15.1431 8.81689 15.1145 8.81689 15.086 8.81689C15.0574 8.81689 15.0574 8.81689 15.0288 8.81689C15.0574 8.78711 15.0288 8.75733 15.0574 8.75733C15.0574 8.72755 15.0859 8.72755 15.0574 8.75733C15.0859 8.72755 15.086 8.72754 15.086 8.72754L15.1145 8.75733C15.086 8.72755 15.0574 8.72755 15.0574 8.75733Z" fill="#00533D"/>
<path d="M15.1145 8.69776H15.086L15.1431 8.60841L15.1716 8.63819C15.1431 8.6084 15.1145 8.63819 15.1145 8.63819C15.1145 8.63819 15.1145 8.63818 15.1145 8.66797C15.1431 8.66797 15.1431 8.66798 15.1145 8.69776C15.1431 8.66798 15.1716 8.69776 15.1716 8.69776C15.1716 8.69776 15.2002 8.66797 15.1716 8.63819L15.2288 8.69776C15.2002 8.66798 15.1716 8.69776 15.1716 8.69776L15.2288 8.72754H15.2574C15.2574 8.72754 15.2574 8.72755 15.2574 8.69776C15.2574 8.69776 15.2574 8.66797 15.2574 8.63819L15.2859 8.66797L15.2288 8.75734V8.72754L15.1145 8.69776Z" fill="#00533D"/>
<path d="M15.2862 8.57861L15.2576 8.60841C15.229 8.57862 15.229 8.54883 15.229 8.54883C15.229 8.54883 15.229 8.54883 15.2862 8.57861C15.3147 8.57861 15.3147 8.57861 15.3147 8.57861C15.3433 8.57861 15.3147 8.57862 15.3147 8.60841L15.3433 8.54883H15.3147C15.1719 8.51905 15.1719 8.51904 15.1719 8.51904C15.1719 8.51904 15.1719 8.51904 15.2862 8.63819V8.66797L15.3147 8.63819C15.3147 8.63819 15.3147 8.66798 15.2862 8.63819C15.2862 8.63819 15.2862 8.6382 15.2576 8.60841L15.2862 8.57861Z" fill="#00533D"/>
<path d="M15.2573 8.42969C15.2859 8.45947 15.3145 8.45947 15.3145 8.42969C15.343 8.42969 15.3431 8.3999 15.3716 8.42969C15.4002 8.45947 15.4002 8.48926 15.4002 8.48926C15.4002 8.48926 15.4002 8.51904 15.3716 8.51904L15.3145 8.48926C15.343 8.48926 15.3716 8.48927 15.3716 8.45948C15.3716 8.4297 15.3716 8.42969 15.3716 8.42969C15.3431 8.42969 15.343 8.4297 15.3145 8.45948C15.2859 8.45948 15.2859 8.48927 15.2573 8.45948C15.2573 8.45948 15.2288 8.42969 15.2573 8.42969C15.2573 8.3999 15.2573 8.3999 15.2573 8.42969C15.2859 8.3999 15.2859 8.39991 15.2573 8.39991L15.3145 8.42969C15.2859 8.3999 15.2573 8.3999 15.2573 8.42969Z" fill="#00533D"/>
<path d="M13.7146 9.50197C13.7146 9.56154 13.6861 9.59132 13.6861 9.59132V9.44239C13.7146 9.4126 13.7146 9.44239 13.7146 9.50197C13.7432 9.44239 13.7146 9.41259 13.6861 9.41259C13.6575 9.41259 13.6289 9.41259 13.6289 9.41259C13.6289 9.41259 13.6575 9.4126 13.6575 9.44239V9.56153C13.6575 9.59131 13.6575 9.59132 13.6289 9.59132H13.6861C13.7146 9.59132 13.7432 9.56154 13.7146 9.50197Z" fill="#00533D"/>
<path d="M14.4857 9.4126C14.4571 9.4126 14.4286 9.38283 14.4286 9.35304C14.4 9.32325 14.4 9.26366 14.4286 9.26366C14.4572 9.26366 14.4857 9.29346 14.4857 9.32324C14.4857 9.35303 14.5143 9.38281 14.4857 9.4126C14.5143 9.4126 14.5429 9.35303 14.5143 9.32324C14.4857 9.26367 14.4572 9.26366 14.4286 9.26366C14.4 9.29345 14.3715 9.32325 14.4 9.38282C14.4 9.38282 14.4571 9.4126 14.4857 9.4126Z" fill="#00533D"/>
</g>
</svg>
