<svg width="20" height="14" viewBox="0 0 20 14" fill="none" xmlns="http://www.w3.org/2000/svg">
<mask id="mask0" mask-type="alpha" maskUnits="userSpaceOnUse" x="0" y="0" width="20" height="14">
<rect width="20" height="14" rx="2" fill="#C4C4C4"/>
</mask>
<g mask="url(#mask0)">
<path d="M20.002 0H0.00195312V14H20.002V0Z" fill="#FFCE54"/>
<path d="M-0.929795 3.25979L-1.59082 5.54101L20.2903 12.4326L20.9513 10.1514L-0.929795 3.25979Z" fill="#434A54"/>
<path d="M-0.27306 1.24807L-0.934089 3.52929L20.9471 10.4209L21.6081 8.13964L-0.27306 1.24807Z" fill="#F5F7FA"/>
<path d="M12.3446 9.82956C12.4017 9.7402 12.4017 9.56147 12.3446 9.47211C12.316 9.56147 12.2017 9.62106 12.116 9.65084C12.116 9.62106 12.0874 9.62105 12.0588 9.59126C12.0017 9.5019 12.0017 9.41254 11.9731 9.29339C11.9731 9.23382 11.916 9.11466 11.8017 9.11466C12.116 8.69764 12.2874 8.19126 12.2874 7.65509C12.2874 7.08914 12.0874 6.55297 11.7731 6.16573C11.8017 6.13595 11.8303 6.10616 11.8303 6.07637C12.0303 6.07637 12.0874 6.01679 12.116 5.89764C12.316 5.80828 12.316 5.65934 12.1446 5.68913C11.6017 5.7487 11.3731 5.62956 11.0017 5.51041C10.6588 5.39126 10.3446 5.21254 10.0874 5.36147V5.09338C10.116 5.03381 10.1446 4.97425 10.1446 4.88489C10.1446 5.03382 10.2303 5.09338 10.2874 5.15296C10.3446 5.09338 10.4017 5.03381 10.4017 4.85509C10.4017 5.03381 10.4588 5.12318 10.5731 5.18276C10.6588 5.00403 10.5731 4.61679 10.4303 4.49764C10.4303 4.49764 10.4017 4.46786 10.3731 4.46786C10.2874 4.43807 10.2017 4.43808 10.0874 4.43808V4.25934C10.3446 4.25934 10.3731 4.46786 10.716 4.46786C10.5731 4.40828 10.6303 4.25935 10.5446 4.16998C10.6303 4.16998 10.716 4.08063 10.7731 3.99127C10.4303 3.99127 10.3731 3.72318 10.0874 3.6934V3.63382C10.1446 3.60403 10.2017 3.54445 10.2017 3.45508C10.2017 3.36572 10.116 3.27637 10.0303 3.27637C9.94455 3.27637 9.85884 3.36572 9.85884 3.45508C9.85884 3.54445 9.91598 3.60403 9.97312 3.63382V4.40828C9.85884 4.40828 9.74455 4.40829 9.68741 4.43808C9.65884 4.43808 9.65884 4.46786 9.63027 4.46786C9.48741 4.58701 9.40169 4.94445 9.48741 5.15296C9.60169 5.09338 9.65884 5.00403 9.65884 4.82531C9.65884 5.00403 9.71598 5.0636 9.77312 5.12318C9.85884 5.0636 9.91598 4.97424 9.91598 4.85509C9.91598 4.94445 9.94455 5.00403 9.97312 5.0636V5.33169C9.68741 5.18276 9.37312 5.36148 9.03027 5.48063C8.65884 5.59978 8.40169 5.71892 7.88741 5.65935C7.71598 5.62956 7.71598 5.7785 7.91598 5.86786C7.94455 5.95722 8.00169 6.01679 8.20169 6.04658C8.20169 6.10615 8.23027 6.13593 8.25884 6.13593C7.94455 6.55296 7.74455 7.05934 7.74455 7.6253C7.74455 8.19125 7.94455 8.69764 8.23027 9.08488C8.14455 9.08488 8.08741 9.17423 8.05884 9.26359C8.03027 9.38274 8.03027 9.47211 7.97312 9.56147C7.97312 9.59125 7.94455 9.59126 7.91598 9.62105C7.83026 9.59126 7.71598 9.53169 7.68741 9.44233C7.63027 9.53169 7.65884 9.71042 7.68741 9.79978C7.48741 9.76999 7.31598 9.88914 7.23027 10.0977C7.48741 10.0381 7.74455 9.97849 7.94455 10.1572C8.17312 10.3359 8.45884 10.5445 8.97312 10.4849C9.23027 10.6338 9.57312 10.7232 10.0303 10.7232C10.4588 10.7232 10.8303 10.6338 11.0874 10.4849C11.6303 10.5445 11.8874 10.3359 12.116 10.1572C12.316 10.0083 12.6017 10.0381 12.8303 10.0977C12.7446 9.88914 12.5446 9.79977 12.3446 9.82956ZM9.88741 6.61254C9.85884 6.7019 9.83027 6.79125 9.83027 6.88062C9.8017 6.73168 9.68741 6.55296 9.51598 6.58274C9.74455 6.9104 9.6017 7.20829 9.65884 7.50616C9.6017 7.44658 9.54455 7.41679 9.45884 7.44658C9.77312 7.83381 9.48741 8.19126 9.63027 8.54871C9.54455 8.51892 9.43027 8.5487 9.37312 8.51891C9.45884 8.66785 9.48741 8.78701 9.51598 8.90616C8.77312 8.69765 8.23027 7.98275 8.23027 7.14871C8.23027 6.82105 8.31598 6.52318 8.45884 6.25509C8.48741 6.25509 8.48741 6.25509 8.51598 6.25509C8.51598 6.43381 8.80169 6.40403 9.00169 6.37425C9.11598 6.4934 9.31598 6.4934 9.54455 6.37425C9.63027 6.40403 9.80169 6.37423 9.91598 6.28487L9.88741 6.61254ZM10.4874 8.84658C10.516 8.72744 10.5446 8.60829 10.6303 8.45935C10.5446 8.48914 10.4588 8.45935 10.3731 8.48913C10.516 8.13169 10.2588 7.77424 10.5446 7.387C10.4588 7.387 10.4017 7.41679 10.3446 7.44658C10.4017 7.14871 10.2303 6.85084 10.4874 6.52318C10.316 6.52318 10.2017 6.70191 10.1731 6.82106C10.1731 6.76148 10.1731 6.6721 10.1446 6.58274V6.19551C10.2588 6.28487 10.4017 6.31467 10.516 6.25509C10.7446 6.34445 10.9446 6.34445 11.0588 6.25509C11.2303 6.28488 11.516 6.31466 11.5446 6.13593C11.5731 6.13593 11.5731 6.13593 11.6017 6.13593C11.7446 6.40402 11.8303 6.70189 11.8303 7.02955C11.7731 7.92317 11.2303 8.63807 10.4874 8.84658ZM13.9446 6.19551C13.916 6.19551 13.8874 6.22531 13.8588 6.22531C13.8017 6.16574 13.716 6.19552 13.6588 6.25509C13.6303 6.2253 13.5731 6.25508 13.516 6.28487C13.4874 6.2253 13.4017 6.25509 13.3731 6.31467C13.3446 6.37424 13.3446 6.49338 13.3446 6.58274C13.3446 6.61253 13.316 6.64233 13.2874 6.67212C13.2303 6.70191 13.2017 6.76148 13.1446 6.82106C13.0874 6.9402 12.9731 6.99978 12.8303 7.11893C12.6017 7.26786 12.6874 7.53593 12.6874 7.77423C12.6874 7.92317 12.6874 8.31041 12.6588 8.69765C12.6303 8.69765 12.516 8.787 12.6303 8.87636C12.5731 8.90615 12.516 8.96574 12.6303 9.0551C12.5731 9.08489 12.516 9.17423 12.6588 9.26359C12.6588 9.29338 12.6588 9.35296 12.6588 9.38275C12.6588 9.44233 12.8303 9.47211 13.0303 9.47211C13.2017 9.47211 13.4017 9.44233 13.4017 9.38275C13.4017 9.35296 13.4017 9.32317 13.4017 9.26359C13.5446 9.17423 13.4874 9.08489 13.4303 9.0551C13.516 8.96574 13.4588 8.90615 13.4303 8.87636C13.5446 8.787 13.4303 8.69765 13.4017 8.69765C13.4017 8.28063 13.3731 7.83382 13.3731 7.65509C13.4874 7.56573 13.6588 7.41679 13.7446 7.29764C13.8303 7.20828 13.8588 7.1487 13.8874 7.02955C13.916 6.9104 13.9446 6.85083 13.9446 6.79126C13.9731 6.67211 14.0017 6.58276 14.0017 6.37425C14.0017 6.22531 13.9731 6.16573 13.9446 6.19551ZM7.31598 9.38275C7.31598 9.35296 7.31598 9.29338 7.31598 9.26359C7.45884 9.17423 7.40169 9.08489 7.34455 9.0551C7.45884 8.96574 7.37312 8.90615 7.34455 8.87636C7.45884 8.787 7.34455 8.69765 7.31598 8.69765C7.31598 8.31041 7.28741 7.92317 7.28741 7.77423C7.28741 7.53593 7.37312 7.29765 7.14455 7.11893C7.00169 6.99978 6.88741 6.9402 6.83027 6.82106C6.80169 6.73169 6.74455 6.67212 6.68741 6.67212C6.65884 6.64233 6.65884 6.61253 6.63026 6.58274C6.63026 6.49338 6.63027 6.40403 6.60169 6.31467C6.57312 6.25509 6.48741 6.2253 6.45884 6.28487C6.43027 6.25508 6.37312 6.2253 6.31598 6.25509C6.28741 6.19552 6.17312 6.16574 6.11598 6.22531C6.08741 6.19552 6.05884 6.19551 6.03027 6.19551C5.97312 6.19551 5.94455 6.22531 5.97312 6.37425C6.00169 6.61255 6.00169 6.7019 6.03027 6.79126C6.05884 6.85083 6.08741 6.9104 6.08741 7.02955C6.11598 7.1487 6.14455 7.20828 6.23027 7.29764C6.31598 7.38701 6.48741 7.56573 6.60169 7.65509C6.60169 7.83382 6.60169 8.31041 6.57312 8.69765C6.54455 8.69765 6.43027 8.787 6.54455 8.87636C6.48741 8.90615 6.43027 8.96574 6.54455 9.0551C6.48741 9.08489 6.43027 9.17423 6.57312 9.26359C6.57312 9.32317 6.57312 9.35296 6.57312 9.38275C6.57312 9.44233 6.74455 9.47211 6.94455 9.47211C7.14455 9.47211 7.31598 9.41254 7.31598 9.38275Z" fill="#F54747"/>
</g>
</svg>
