<svg width="20" height="14" viewBox="0 0 20 14" fill="none" xmlns="http://www.w3.org/2000/svg">
<mask id="mask0" mask-type="alpha" maskUnits="userSpaceOnUse" x="0" y="0" width="20" height="14">
<rect width="20" height="14" rx="2" fill="#C4C4C4"/>
</mask>
<g mask="url(#mask0)">
<path d="M20 0H0V6.85106H20V0Z" fill="#F54747"/>
<path d="M20 6.85107H0V14H20V6.85107Z" fill="#52C162"/>
<path d="M12.1716 6.64261C12.3716 6.46388 12.3144 6.28516 12.0573 6.28516H11.0287C10.743 6.28516 10.4573 6.04686 10.3716 5.77878L10.0001 4.67665C9.91443 4.40856 9.77157 4.40856 9.68586 4.67665L9.37157 5.80856C9.28586 6.07665 9.00014 6.31495 8.743 6.31495L7.71443 6.34474C7.42871 6.34474 7.40014 6.52346 7.60014 6.70218L8.31443 7.3575C8.51443 7.53622 8.62871 7.92346 8.57157 8.19154L8.28586 9.2341C8.22871 9.50218 8.343 9.59154 8.57157 9.44261L9.42871 8.81707C9.65729 8.63835 10.0287 8.63835 10.2573 8.78729L11.1144 9.32346C11.343 9.4724 11.4859 9.38303 11.4001 9.08516L11.143 8.16176C11.0573 7.89367 11.1716 7.50644 11.3716 7.32771L12.1716 6.64261Z" fill="#F6D660"/>
</g>
</svg>
