<svg width="20" height="14" viewBox="0 0 20 14" fill="none" xmlns="http://www.w3.org/2000/svg">
<mask id="mask0" mask-type="alpha" maskUnits="userSpaceOnUse" x="0" y="0" width="20" height="14">
<rect width="20" height="14" rx="2" fill="#C4C4C4"/>
</mask>
<g mask="url(#mask0)">
<path d="M10 6.99658L0 13.9966H20L10 6.99658Z" fill="#F54747"/>
<path d="M10 6.99658L20 13.9966V-0.00341797L10 6.99658Z" fill="#52C162"/>
<path d="M0 -0.00341797V13.9966L10 6.99658L0 -0.00341797Z" fill="#52C162"/>
<path d="M0 -0.00341797L10 6.99658L20 -0.00341797H0Z" fill="#F54747"/>
<path d="M19.6859 -0.688477L-0.571289 13.7285L0.257281 14.92L20.4859 0.503012L19.6859 -0.688477Z" fill="#F5F7FA"/>
<path d="M0.199901 -0.599121L-0.600099 0.592368L19.7999 14.5924L20.5999 13.4009L0.199901 -0.599121Z" fill="#F5F7FA"/>
<path d="M9.99979 11.3155C12.2878 11.3155 14.1426 9.38179 14.1426 6.9964C14.1426 4.61099 12.2878 2.67725 9.99979 2.67725C7.71175 2.67725 5.85693 4.61099 5.85693 6.9964C5.85693 9.38179 7.71175 11.3155 9.99979 11.3155Z" fill="#F5F7FA"/>
<path d="M11.2283 5.17927C11.3141 5.08991 11.2855 5.03033 11.1712 5.03033H10.6855C10.5712 5.03033 10.4283 4.91119 10.3712 4.79204L10.1998 4.25587C10.1426 4.13672 10.0855 4.13672 10.0569 4.25587L9.91405 4.79204C9.88548 4.91119 9.74262 5.03033 9.62834 5.03033H9.14263C9.02834 5.03033 8.99977 5.1197 9.08548 5.20906L9.42834 5.50693C9.51405 5.59629 9.5712 5.77502 9.54262 5.89416L9.42834 6.37076C9.39977 6.48991 9.45691 6.54948 9.5712 6.46012L9.9712 6.16225C10.0855 6.07289 10.2569 6.07289 10.3712 6.16225L10.7712 6.43034C10.8855 6.48991 10.9426 6.46012 10.9141 6.31118L10.7998 5.89416C10.7712 5.77502 10.7998 5.59629 10.9141 5.50693L11.2283 5.17927Z" fill="#F54747"/>
<path d="M9.79963 8.15827C9.88534 8.06891 9.85677 8.00934 9.74249 8.00934H9.25677C9.14248 8.00934 8.99963 7.89019 8.94249 7.77104L8.77106 7.23487C8.71391 7.11572 8.65677 7.11572 8.6282 7.23487L8.48534 7.77104C8.45677 7.89019 8.31391 8.00934 8.19963 8.00934H7.71391C7.59963 8.00934 7.57106 8.0987 7.65677 8.18806L7.99963 8.48593C8.08534 8.5753 8.14248 8.75402 8.11391 8.87317L7.99963 9.34976C7.97106 9.46891 8.0282 9.52849 8.14249 9.43912L8.54248 9.14125C8.65677 9.05189 8.8282 9.05189 8.94249 9.14125L9.34249 9.40934C9.45677 9.46891 9.51391 9.43912 9.48534 9.29019L9.37106 8.87317C9.34249 8.75402 9.37106 8.5753 9.48534 8.48593L9.79963 8.15827Z" fill="#F54747"/>
<path d="M12.6571 8.15827C12.7428 8.06891 12.7142 8.00934 12.5999 8.00934H12.1142C11.9999 8.00934 11.8571 7.89019 11.7999 7.77104L11.6285 7.23487C11.5713 7.11572 11.5142 7.11572 11.4856 7.23487L11.3428 7.77104C11.3142 7.89019 11.1713 8.00934 11.057 8.00934H10.5713C10.4571 8.00934 10.4285 8.0987 10.5142 8.18806L10.8571 8.48593C10.9428 8.5753 10.9999 8.75402 10.9713 8.87317L10.8571 9.34976C10.8285 9.46891 10.8856 9.52849 10.9999 9.43912L11.3999 9.14125C11.5142 9.05189 11.6856 9.05189 11.7999 9.14125L12.1999 9.40934C12.3142 9.46891 12.3713 9.43912 12.3428 9.29019L12.2285 8.87317C12.1999 8.75402 12.2285 8.5753 12.3428 8.48593L12.6571 8.15827Z" fill="#F54747"/>
</g>
</svg>
