<svg width="20" height="14" viewBox="0 0 20 14" fill="none" xmlns="http://www.w3.org/2000/svg">
<mask id="mask0" mask-type="alpha" maskUnits="userSpaceOnUse" x="0" y="0" width="20" height="14">
<rect width="20" height="14" rx="2" fill="#C4C4C4"/>
</mask>
<g mask="url(#mask0)">
<path d="M20 1.19141H0V12.8084H20V1.19141Z" fill="#4758A9"/>
<path d="M20 0H0V1.19149H20V0Z" fill="#F54747"/>
<path d="M20 12.8086H0V14.0001H20V12.8086Z" fill="#F54747"/>
<path d="M15.1141 9.97896V9.53215H14.8569V9.17471H14.6284V8.84705H14.4569V8.63854H14.2855C14.2569 8.63854 14.2284 8.60875 14.1998 8.57896L14.1426 7.41726C14.1712 7.35768 14.2284 7.3279 14.2569 7.29811V6.49386C14.2284 6.55343 14.1141 6.52364 14.1141 6.67258V6.25556H13.9998V6.67258H13.9712V6.52364H13.8569V6.46407H13.9712V6.34492H13.8569V6.01726C13.8569 5.95768 13.8569 5.95769 13.7998 5.95769C13.7426 5.98747 13.7141 6.04705 13.6855 6.10662C13.6569 6.1662 13.5712 6.13641 13.5712 6.10662C13.5712 5.9279 13.6569 5.98747 13.6569 5.83854C13.6569 5.77896 13.6284 5.80875 13.5712 5.83854C13.5141 5.86833 13.5141 5.80875 13.5141 5.74918C13.5141 5.65981 13.5712 5.6896 13.5712 5.57045C13.5712 5.51088 13.5141 5.54066 13.4855 5.57045C13.4569 5.60024 13.4284 5.60024 13.4284 5.51088C13.4284 5.42152 13.5141 5.42152 13.5141 5.36194C13.5141 5.30237 13.4855 5.33215 13.4569 5.36194C13.4284 5.39173 13.3712 5.39173 13.3712 5.36194C13.3998 5.213 13.3426 5.09385 13.2855 5.03428C13.2284 4.97471 13.2284 4.94492 13.2284 4.91513C13.2284 4.88535 13.2284 4.85556 13.1998 4.85556C13.1712 4.85556 13.1712 4.88535 13.1712 4.91513C13.1712 4.94492 13.1712 4.97471 13.1141 5.03428C13.0569 5.09385 12.9998 5.213 13.0284 5.36194C13.0284 5.39173 12.9712 5.42152 12.9426 5.36194C12.9141 5.33215 12.8855 5.30237 12.8855 5.36194C12.8855 5.4513 12.9712 5.4513 12.9712 5.51088C12.9712 5.60024 12.9426 5.60024 12.9141 5.57045C12.8855 5.54066 12.8284 5.51088 12.8284 5.57045C12.8284 5.6896 12.8855 5.65981 12.8855 5.74918C12.8855 5.80875 12.8855 5.86833 12.8284 5.83854C12.7712 5.80875 12.7426 5.77896 12.7426 5.83854C12.7426 5.98747 12.8284 5.9279 12.8284 6.10662C12.8284 6.13641 12.7712 6.1662 12.7141 6.10662C12.6855 6.04705 12.6569 5.98747 12.5998 5.95769C12.5712 5.95769 12.5426 5.95768 12.5426 6.01726V6.64279H12.3426V6.55343H12.2855V6.64279H11.2569V6.07683C11.2569 6.10662 11.1141 6.16619 11.1141 6.22577H10.9141V6.07683C10.9426 6.07683 10.9998 6.04705 10.9998 6.01726C10.9998 5.98747 10.9998 5.98747 10.9712 6.01726L10.8855 6.04705C10.8855 6.04705 10.8855 6.04705 10.9141 6.01726C10.9426 5.98747 10.9998 5.95768 11.0284 5.9279V5.89811C11.0284 5.86832 10.9998 5.86832 10.9998 5.86832C10.9712 5.89811 10.9426 5.89811 10.9141 5.9279C10.8855 5.9279 10.8569 5.95768 10.8569 5.9279C10.8569 5.89811 10.7998 5.86832 10.7712 5.86832V5.83854C10.7712 5.77896 10.7712 5.74918 10.8284 5.6896C10.8855 5.63003 10.8855 5.60024 10.8855 5.54067C10.8855 5.48109 10.8569 5.4513 10.7998 5.54067C10.7712 5.60024 10.7426 5.57045 10.7426 5.57045V5.48109C10.7426 5.4513 10.7712 5.36194 10.8284 5.33215C10.8855 5.27258 10.8855 5.27258 10.8855 5.24279V5.15343C10.8855 5.06407 10.7998 5.12364 10.7712 5.18322C10.7426 5.213 10.7141 5.18322 10.7141 5.15343V5.06407C10.7141 5.00449 10.7998 4.97471 10.7998 4.91513V4.7662C10.7998 4.67683 10.7141 4.73641 10.6855 4.7662C10.6569 4.85556 10.6284 4.82577 10.6284 4.7662C10.6284 4.73641 10.6284 4.67684 10.6569 4.64705C10.7141 4.58747 10.6855 4.5279 10.6855 4.49811C10.6855 4.37896 10.5998 4.46833 10.5712 4.49811C10.5426 4.5279 10.5141 4.55769 10.5141 4.49811C10.5141 4.40875 10.5712 4.37896 10.5712 4.31939C10.5712 4.25981 10.5141 4.25981 10.5141 4.2896C10.4855 4.31939 10.4284 4.34917 10.4284 4.2896C10.4284 4.23002 10.4569 4.23003 10.4569 4.17045C10.5141 4.17045 10.5141 4.02152 10.4569 4.02152H10.3712C10.3998 4.02152 10.3998 3.99173 10.3712 3.96194C10.3426 3.93215 10.3426 3.90237 10.2855 3.90237C10.3141 3.90237 10.3141 3.87258 10.2855 3.84279C10.2569 3.813 10.2569 3.78322 10.1998 3.78322H10.1712C10.1712 3.72364 10.1712 3.57471 10.0855 3.57471C9.99979 3.57471 9.99979 3.72364 9.99979 3.78322H9.97122C9.91407 3.78322 9.91408 3.78322 9.88551 3.84279C9.85694 3.87258 9.85694 3.90237 9.88551 3.90237C9.82836 3.90237 9.82836 3.90237 9.79979 3.96194C9.77122 3.99173 9.77122 4.02152 9.79979 4.02152H9.71408C9.65693 4.02152 9.65693 4.17045 9.71408 4.17045C9.71408 4.23003 9.74265 4.25981 9.74265 4.2896C9.74265 4.34917 9.68551 4.34917 9.65693 4.2896C9.65693 4.25981 9.59979 4.25981 9.59979 4.31939C9.59979 4.37896 9.65693 4.40875 9.65693 4.49811C9.65693 4.55769 9.62836 4.55769 9.59979 4.49811C9.57122 4.43854 9.4855 4.37896 9.4855 4.49811C9.4855 4.5279 9.48551 4.58747 9.51408 4.64705C9.57122 4.70662 9.54265 4.73641 9.54265 4.7662C9.54265 4.79598 9.51408 4.85556 9.4855 4.7662C9.4855 4.73641 9.37122 4.67683 9.37122 4.7662V4.88534C9.37122 4.94492 9.45693 4.97471 9.45693 5.03428V5.12364C9.45693 5.15343 9.42836 5.18322 9.39979 5.15343C9.37122 5.09386 9.2855 5.03428 9.2855 5.12364V5.213C9.2855 5.24279 9.2855 5.24279 9.34265 5.30237C9.39979 5.36194 9.42836 5.42152 9.42836 5.4513V5.54067C9.42836 5.57045 9.39979 5.60024 9.37122 5.51088C9.34265 5.4513 9.2855 5.48109 9.2855 5.51088C9.2855 5.54066 9.2855 5.60024 9.34265 5.65981C9.39979 5.71939 9.39979 5.74917 9.39979 5.80875V5.83854C9.34265 5.83854 9.31408 5.86832 9.31408 5.89811C9.31408 5.9279 9.2855 5.89811 9.25693 5.89811C9.22836 5.86832 9.19979 5.83854 9.17122 5.83854C9.17122 5.83854 9.14265 5.83854 9.14265 5.86832V5.89811C9.17122 5.89811 9.22836 5.95769 9.25693 5.98747C9.2855 6.01726 9.2855 6.01726 9.2855 6.01726C9.2855 6.04705 9.19979 6.01726 9.19979 5.98747H9.17122C9.17122 6.01726 9.22836 6.04705 9.25693 6.04705V6.19598H9.14265C9.14265 6.13641 9.02836 6.07684 9.02836 6.04705V6.613H7.99979V6.52364H7.91408V6.613H7.71408V5.98747C7.71408 5.9279 7.71408 5.9279 7.65693 5.9279C7.59979 5.95768 7.57122 6.01726 7.54265 6.07683C7.51407 6.13641 7.42836 6.10662 7.42836 6.07683C7.42836 5.89811 7.51408 5.95769 7.51408 5.80875C7.51408 5.74917 7.4855 5.77896 7.42836 5.80875C7.37122 5.83854 7.37122 5.77896 7.37122 5.71939C7.37122 5.63002 7.42836 5.65982 7.42836 5.54067C7.42836 5.48109 7.37122 5.51088 7.34265 5.54067C7.31408 5.57045 7.2855 5.57045 7.2855 5.48109C7.2855 5.39173 7.37122 5.39173 7.37122 5.33215C7.37122 5.27258 7.34265 5.30236 7.31408 5.33215C7.28551 5.36194 7.22836 5.36194 7.22836 5.33215C7.25693 5.18322 7.19979 5.06407 7.14265 5.0045C7.0855 4.94492 7.08551 4.91513 7.08551 4.88534C7.08551 4.85556 7.0855 4.82577 7.05693 4.82577C7.02836 4.82577 7.02836 4.85556 7.02836 4.88534C7.02836 4.91513 7.02836 4.94492 6.97122 5.0045C6.91407 5.06407 6.85694 5.18322 6.88551 5.33215C6.88551 5.36194 6.82836 5.39173 6.79979 5.33215C6.77122 5.30236 6.74265 5.27258 6.74265 5.33215C6.74265 5.42151 6.82836 5.42151 6.82836 5.48109C6.82836 5.57045 6.79979 5.57045 6.77122 5.54067C6.74265 5.51088 6.6855 5.48109 6.6855 5.54067C6.6855 5.65982 6.74265 5.63002 6.74265 5.71939C6.74265 5.77896 6.74265 5.83854 6.6855 5.80875C6.62836 5.77896 6.59979 5.74917 6.59979 5.80875C6.59979 5.95769 6.6855 5.89811 6.6855 6.07683C6.6855 6.10662 6.62836 6.13641 6.57122 6.07683C6.54265 6.01726 6.51408 5.95768 6.45694 5.9279C6.42836 5.9279 6.39979 5.9279 6.39979 5.98747V6.31513H6.2855V6.43428H6.39979V6.49386H6.2855V6.64279V6.25556H6.17122V6.67258C6.17122 6.55343 6.02836 6.55343 6.02836 6.49386V7.29811C6.08551 7.3279 6.11408 7.35768 6.14265 7.41726L6.08551 8.57896C6.05693 8.60875 6.02836 8.63854 5.99979 8.63854H5.82836V8.84705H5.65693V9.17471H5.42836V9.53215H5.17122V9.97896H4.85693V10.4258H15.4284V9.97896H15.1141Z" fill="#F5F7FA"/>
</g>
</svg>
