<svg width="20" height="14" viewBox="0 0 20 14" fill="none" xmlns="http://www.w3.org/2000/svg">
<mask id="mask0" mask-type="alpha" maskUnits="userSpaceOnUse" x="0" y="0" width="20" height="14">
<rect width="20" height="14" rx="2" fill="#C4C4C4"/>
</mask>
<g mask="url(#mask0)">
<path d="M14.2858 0H5.71436V14H14.2858V0Z" fill="#F54747"/>
<path d="M5.71429 0H0V14H5.71429V0Z" fill="#52C162"/>
<path d="M19.9999 0H14.2856V14H19.9999V0Z" fill="#FFCE54"/>
<path d="M11.7427 6.73217C11.8856 6.58324 11.857 6.46409 11.657 6.46409H10.857C10.657 6.46409 10.4285 6.28536 10.3427 6.07685L10.057 5.21302C9.99989 5.00451 9.8856 5.00451 9.82846 5.21302L9.57132 6.07685C9.51417 6.28536 9.2856 6.46409 9.0856 6.46409L8.31417 6.49387C8.11418 6.49387 8.05703 6.61303 8.22846 6.76196L8.77131 7.26834C8.94274 7.41728 9.02846 7.71515 8.97131 7.92366L8.79989 8.72791C8.74275 8.93642 8.85703 9.02578 9.02846 8.87685L9.6856 8.40026C9.85703 8.28111 10.1427 8.25132 10.3142 8.37047L10.9427 8.78749C11.1142 8.90664 11.2285 8.81728 11.1713 8.60877L10.9713 7.92366C10.9142 7.71515 10.9999 7.41728 11.1427 7.26834L11.7427 6.73217Z" fill="#F6BB42"/>
</g>
</svg>
