<svg width="20" height="14" viewBox="0 0 20 14" fill="none" xmlns="http://www.w3.org/2000/svg">
<mask id="mask0" mask-type="alpha" maskUnits="userSpaceOnUse" x="0" y="0" width="20" height="14">
<rect width="20" height="14" rx="2" fill="#C4C4C4"/>
</mask>
<g mask="url(#mask0)">
<path d="M13.7142 0H6.28564V14H13.7142V0Z" fill="#F5F7FA"/>
<path d="M6.28571 0H0V14H6.28571V0Z" fill="#F54747"/>
<path d="M20.0001 0H13.7144V14H20.0001V0Z" fill="#F54747"/>
<path d="M12.6856 6.85104C12.5999 6.82126 12.5142 6.76168 12.5142 6.7319C12.4856 6.70211 12.5714 6.31487 12.5999 6.10636V6.04678C12.6571 5.83827 12.5428 5.71912 12.3142 5.74891H12.2856C12.0856 5.80849 11.8856 5.80849 11.8571 5.80849C11.8285 5.80849 11.7714 5.65956 11.7428 5.54041C11.7142 5.45104 11.5714 5.48083 11.4571 5.65955L11.3428 5.80849C11.1999 5.95743 11.0285 6.13615 10.9713 6.16594C10.8856 6.19573 10.9142 5.77871 10.9713 5.5702L11.1142 4.82551C11.1428 4.617 11.1142 4.49786 10.9999 4.52764C10.9142 4.58722 10.7713 4.64679 10.7142 4.64679C10.6571 4.67658 10.4856 4.40849 10.3714 4.22977L10.2285 3.9319C10.1428 3.75317 9.97135 3.75317 9.88564 3.9319L9.74278 4.22977C9.65707 4.40849 9.54278 4.58721 9.48563 4.617C9.42849 4.64679 9.22849 4.55743 9.14278 4.49785C9.05706 4.43828 8.99992 4.55743 9.02849 4.79573L9.17135 5.54041C9.19992 5.74892 9.19992 5.98721 9.17135 6.04678C9.14278 6.13615 8.91421 5.92764 8.77135 5.7787L8.65706 5.62976C8.51421 5.48083 8.39992 5.42126 8.37135 5.51062C8.34278 5.59998 8.31421 5.71912 8.28564 5.74891C8.25706 5.7787 7.99992 5.74892 7.79992 5.68934H7.77135C7.57135 5.62977 7.42849 5.7787 7.48563 5.98721V6.04678C7.54278 6.25529 7.59992 6.46381 7.62849 6.55317C7.65706 6.61274 7.48563 6.76168 7.39992 6.79146C7.3142 6.82125 7.39992 6.97019 7.54278 7.11913L8.31421 7.77445C8.48564 7.92338 8.62849 8.04253 8.65706 8.07232C8.68564 8.10211 8.65706 8.31062 8.62849 8.39998C8.59992 8.51913 8.74278 8.57871 8.94278 8.54892L9.54278 8.48934C9.74278 8.45955 9.94278 8.45955 9.97135 8.45955C9.99992 8.45955 10.0285 8.69785 9.99992 8.90636L9.97135 9.65104C9.97135 9.85955 9.99992 10.0383 10.0571 10.0383C10.1142 10.0383 10.1714 9.85955 10.1714 9.65104L10.1428 8.90636C10.1428 8.69785 10.1428 8.48934 10.1714 8.45955C10.1999 8.42976 10.4285 8.42976 10.6285 8.45955L11.2285 8.51913C11.4285 8.54892 11.5713 8.45956 11.5428 8.37019C11.5142 8.25104 11.4856 8.1319 11.4856 8.10211C11.4856 8.07232 11.6856 7.86381 11.8285 7.74466L12.5999 7.08934C12.6856 7.02976 12.7713 6.88083 12.6856 6.85104Z" fill="#F54747"/>
</g>
</svg>
