<svg width="20" height="14" viewBox="0 0 20 14" fill="none" xmlns="http://www.w3.org/2000/svg">
<mask id="mask0" mask-type="alpha" maskUnits="userSpaceOnUse" x="0" y="0" width="20" height="14">
<rect width="20" height="14" rx="2" fill="#C4C4C4"/>
</mask>
<g mask="url(#mask0)">
<path d="M20 0H0V14H20V0Z" fill="#4758A9"/>
<path d="M20 6.25537H0V10.4256H20V6.25537Z" fill="#F5F7FA"/>
<path d="M20 7.14893H0V9.53191H20V7.14893Z" fill="#F54747"/>
<path d="M7.11417 5.24236C7.19988 5.18279 7.17131 5.12322 7.05703 5.12322H6.6856C6.59988 5.12322 6.4856 5.03385 6.45703 4.94449L6.31417 4.55725C6.2856 4.46789 6.22845 4.46789 6.19988 4.55725L6.0856 4.94449C6.05703 5.03385 5.94274 5.12322 5.85703 5.12322H5.4856C5.39988 5.12322 5.37131 5.18279 5.45703 5.24236L5.71417 5.48066C5.79988 5.54023 5.82846 5.68917 5.79989 5.77853L5.71417 6.13598C5.6856 6.22534 5.74274 6.25512 5.82845 6.19555L6.11417 5.98704C6.19988 5.92747 6.31417 5.92747 6.39988 5.98704L6.6856 6.16577C6.77131 6.22534 6.79988 6.19555 6.79988 6.0764L6.71417 5.74874C6.6856 5.65938 6.71417 5.51044 6.79988 5.45087L7.11417 5.24236Z" fill="#F6D660"/>
<path d="M7.11417 11.1999C7.19988 11.1403 7.17131 11.0807 7.05703 11.0807H6.6856C6.59988 11.0807 6.4856 10.9914 6.45703 10.902L6.31417 10.5148C6.2856 10.4254 6.22845 10.4254 6.19988 10.5148L6.0856 10.902C6.05703 10.9914 5.94274 11.0807 5.85703 11.0807H5.4856C5.39988 11.0807 5.37131 11.1403 5.45703 11.1999L5.71417 11.4382C5.79988 11.4978 5.82846 11.6467 5.79989 11.7361L5.71417 12.0935C5.6856 12.1829 5.74274 12.2126 5.82845 12.1531L6.11417 11.9446C6.19988 11.885 6.31417 11.885 6.39988 11.9446L6.6856 12.1233C6.77131 12.1829 6.79988 12.1531 6.79988 12.0339L6.71417 11.7063C6.6856 11.6169 6.71417 11.468 6.79988 11.4084L7.11417 11.1999Z" fill="#F6D660"/>
<path d="M9.97159 8.22088C10.0573 8.16131 10.0287 8.10173 9.91445 8.10173H9.54302C9.45731 8.10173 9.34302 8.01237 9.31445 7.92301L9.17159 7.53577C9.14302 7.44641 9.08588 7.44641 9.05731 7.53577L8.94302 7.92301C8.91445 8.01237 8.80016 8.10173 8.71445 8.10173H8.34302C8.25731 8.10173 8.22874 8.16131 8.31445 8.22088L8.57159 8.45917C8.65731 8.51875 8.68588 8.66768 8.65731 8.75705L8.57159 9.1145C8.54302 9.20386 8.60016 9.23364 8.68588 9.17407L8.97159 8.96556C9.05731 8.90599 9.17159 8.90599 9.25731 8.96556L9.54302 9.14429C9.62873 9.20386 9.65731 9.17407 9.65731 9.05492L9.57159 8.72726C9.54302 8.6379 9.57159 8.48896 9.65731 8.42938L9.97159 8.22088Z" fill="#F6D660"/>
<path d="M4.54288 8.22088C4.62859 8.16131 4.60002 8.10173 4.48574 8.10173H4.11431C4.02859 8.10173 3.91431 8.01237 3.88574 7.92301L3.74288 7.53577C3.71431 7.44641 3.65717 7.44641 3.62859 7.53577L3.51431 7.92301C3.48574 8.01237 3.37145 8.10173 3.28574 8.10173H2.91431C2.82859 8.10173 2.80003 8.16131 2.88574 8.22088L3.14288 8.45917C3.2286 8.51875 3.25717 8.66768 3.2286 8.75705L3.14288 9.1145C3.11431 9.20386 3.17145 9.23364 3.25717 9.17407L3.54288 8.96556C3.62859 8.90599 3.74288 8.90599 3.82859 8.96556L4.11431 9.14429C4.20002 9.20386 4.2286 9.17407 4.2286 9.05492L4.14288 8.72726C4.11431 8.6379 4.14288 8.48896 4.2286 8.42938L4.54288 8.22088Z" fill="#F6D660"/>
<path d="M5.11417 6.13592C5.19988 6.07634 5.17131 6.01677 5.05703 6.01677H4.6856C4.59988 6.01677 4.4856 5.92741 4.45703 5.83805L4.31417 5.45081C4.2856 5.36144 4.22846 5.36144 4.19988 5.45081L4.0856 5.83805C4.05703 5.92741 3.94274 6.01677 3.85703 6.01677H3.4856C3.39988 6.01677 3.37131 6.07634 3.45703 6.13592L3.71417 6.37421C3.79988 6.43379 3.82846 6.58272 3.79989 6.67209L3.71417 7.02954C3.6856 7.1189 3.74274 7.14868 3.82845 7.0891L4.11417 6.8806C4.19988 6.82102 4.31417 6.82102 4.39988 6.8806L4.6856 7.05932C4.77131 7.1189 4.79989 7.08911 4.79989 6.96996L4.71417 6.6423C4.6856 6.55293 4.71417 6.404 4.79989 6.34442L5.11417 6.13592Z" fill="#F6D660"/>
<path d="M9.11417 6.13592C9.19988 6.07634 9.17131 6.01677 9.05703 6.01677H8.6856C8.59988 6.01677 8.4856 5.92741 8.45703 5.83805L8.31417 5.45081C8.2856 5.36144 8.22846 5.36144 8.19988 5.45081L8.0856 5.83805C8.05703 5.92741 7.94274 6.01677 7.85703 6.01677H7.4856C7.39988 6.01677 7.37131 6.07634 7.45703 6.13592L7.71417 6.37421C7.79988 6.43379 7.82846 6.58272 7.79989 6.67209L7.71417 7.02954C7.6856 7.1189 7.74274 7.14868 7.82845 7.0891L8.11417 6.8806C8.19988 6.82102 8.31417 6.82102 8.39988 6.8806L8.6856 7.05932C8.77131 7.1189 8.79989 7.08911 8.79989 6.96996L8.71417 6.6423C8.6856 6.55293 8.71417 6.404 8.79989 6.34442L9.11417 6.13592Z" fill="#F6D660"/>
<path d="M5.11417 10.3063C5.19988 10.2468 5.17131 10.1872 5.05703 10.1872H4.6856C4.59988 10.1872 4.4856 10.0978 4.45703 10.0085L4.31417 9.62122C4.2856 9.53186 4.22846 9.53186 4.19988 9.62122L4.0856 10.0085C4.05703 10.0978 3.94274 10.1872 3.85703 10.1872H3.4856C3.39988 10.1872 3.37131 10.2468 3.45703 10.3063L3.71417 10.5446C3.79988 10.6042 3.82846 10.7531 3.79989 10.8425L3.71417 11.1999C3.6856 11.2893 3.74274 11.3191 3.82845 11.2595L4.11417 11.051C4.19988 10.9914 4.31417 10.9914 4.39988 11.051L4.6856 11.2297C4.77131 11.2893 4.79989 11.2595 4.79989 11.1404L4.71417 10.8127C4.6856 10.7233 4.71417 10.5744 4.79989 10.5148L5.11417 10.3063Z" fill="#F6D660"/>
<path d="M9.11417 10.3063C9.19988 10.2468 9.17131 10.1872 9.05703 10.1872H8.6856C8.59988 10.1872 8.4856 10.0978 8.45703 10.0085L8.31417 9.62122C8.2856 9.53186 8.22846 9.53186 8.19988 9.62122L8.0856 10.0085C8.05703 10.0978 7.94274 10.1872 7.85703 10.1872H7.4856C7.39988 10.1872 7.37131 10.2468 7.45703 10.3063L7.71417 10.5446C7.79988 10.6042 7.82846 10.7531 7.79989 10.8425L7.71417 11.1999C7.6856 11.2893 7.74274 11.3191 7.82845 11.2595L8.11417 11.051C8.19988 10.9914 8.31417 10.9914 8.39988 11.051L8.6856 11.2297C8.77131 11.2893 8.79989 11.2595 8.79989 11.1404L8.71417 10.8127C8.6856 10.7233 8.71417 10.5744 8.79989 10.5148L9.11417 10.3063Z" fill="#F6D660"/>
</g>
</svg>
