<svg width="20" height="14" viewBox="0 0 20 14" fill="none" xmlns="http://www.w3.org/2000/svg">
<mask id="mask0" mask-type="alpha" maskUnits="userSpaceOnUse" x="0" y="0" width="20" height="14">
<rect width="20" height="14" rx="2" fill="#C4C4C4"/>
</mask>
<g mask="url(#mask0)">
<path d="M20 3.57471H0V6.8513H20V3.57471Z" fill="white"/>
<path d="M20 0H0V3.57447H20V0Z" fill="#4758A9"/>
<path d="M20 10.4253H0V13.9998H20V10.4253Z" fill="#F6D660"/>
<path d="M20 6.85107H0V10.4255H20V6.85107Z" fill="#52C162"/>
<path d="M3.97159 1.66815C4.0573 1.60857 4.02873 1.549 3.91445 1.549H3.54302C3.4573 1.549 3.34302 1.45963 3.31445 1.37027L3.17159 0.983033C3.14302 0.893672 3.08588 0.893672 3.05731 0.983033L2.94302 1.37027C2.91445 1.45963 2.80016 1.549 2.71445 1.549H2.34302C2.25731 1.549 2.22874 1.60857 2.31445 1.66815L2.57159 1.90644C2.65731 1.96601 2.68588 2.11495 2.65731 2.20431L2.57159 2.56176C2.54302 2.65112 2.60016 2.68091 2.68588 2.62133L2.97159 2.41283C3.0573 2.35325 3.17159 2.35325 3.2573 2.41283L3.54302 2.59155C3.62873 2.65113 3.65731 2.62133 3.65731 2.50218L3.57159 2.17452C3.54302 2.08516 3.57159 1.93622 3.65731 1.87665L3.97159 1.66815Z" fill="#F6D660"/>
<path d="M11.7142 0H8.28564V14H11.7142V0Z" fill="#F54747"/>
</g>
</svg>
