<svg width="20" height="14" viewBox="0 0 20 14" fill="none" xmlns="http://www.w3.org/2000/svg">
<mask id="mask0" mask-type="alpha" maskUnits="userSpaceOnUse" x="0" y="0" width="20" height="14">
<rect width="20" height="14" rx="2" fill="#C4C4C4"/>
</mask>
<g mask="url(#mask0)">
<path d="M20.0001 0H7.71436V6.25532H20.0001V0Z" fill="#F5F7FA"/>
<path d="M7.71429 0H0V6.25532H7.71429V0Z" fill="#4758A9"/>
<path d="M5.08552 2.94918C5.1998 2.85982 5.17123 2.77045 5.02838 2.77045H4.48552C4.34266 2.77045 4.17123 2.65131 4.14266 2.50238L3.94266 1.90663C3.88552 1.7577 3.82837 1.7577 3.77123 1.90663L3.5998 2.50238C3.57123 2.65131 3.3998 2.77045 3.25694 2.77045L2.71409 2.80025C2.57123 2.80025 2.54266 2.8896 2.65695 2.97896L3.02838 3.33641C3.14266 3.42578 3.1998 3.63429 3.17123 3.78322L3.05694 4.31939C3.02837 4.46833 3.08552 4.52791 3.1998 4.43855L3.65695 4.11088C3.77123 4.02151 3.97123 4.02151 4.08552 4.11088L4.54266 4.40875C4.65694 4.49811 4.74266 4.43855 4.68552 4.28961L4.54266 3.813C4.51409 3.66407 4.57123 3.45556 4.65695 3.36619L5.08552 2.94918Z" fill="white"/>
<path d="M20 6.25537H0V14.0001H20V6.25537Z" fill="#F54747"/>
</g>
</svg>
