<svg width="20" height="14" viewBox="0 0 20 14" fill="none" xmlns="http://www.w3.org/2000/svg">
<mask id="mask0" mask-type="alpha" maskUnits="userSpaceOnUse" x="0" y="0" width="20" height="14">
<rect width="20" height="14" rx="2" fill="#C4C4C4"/>
</mask>
<g mask="url(#mask0)">
<path d="M20 0H0V14H20V0Z" fill="#F54747"/>
<path d="M6.71449 4.6764C6.94306 4.46789 6.88592 4.31895 6.60021 4.31895H5.51449C5.22878 4.31895 4.91449 4.08065 4.80021 3.78278L4.4002 2.59129C4.31449 2.29342 4.14306 2.32321 4.08592 2.59129L3.74306 3.78278C3.65735 4.08065 3.37163 4.31895 3.05735 4.31895L1.97163 4.34873C1.68592 4.34873 1.62878 4.52746 1.85735 4.73598L2.62878 5.42108C2.85735 5.62959 2.97163 6.01682 2.91449 6.3147L2.65735 7.41683C2.60021 7.7147 2.71449 7.80405 2.97163 7.62532L3.85735 6.97002C4.08592 6.79129 4.48592 6.79128 4.74306 6.94022L5.62878 7.50618C5.88592 7.65512 6.00021 7.56576 5.94306 7.26789L5.68592 6.3147C5.6002 6.01682 5.71449 5.62959 5.94306 5.42108L6.71449 4.6764Z" fill="#F6BB42"/>
<path d="M9.11417 1.99579C9.19988 1.93621 9.17131 1.87663 9.05703 1.87663H8.6856C8.59988 1.87663 8.4856 1.78728 8.45703 1.69791L8.31417 1.28088C8.2856 1.19152 8.22846 1.19152 8.19988 1.28088L8.0856 1.69791C8.05703 1.78728 7.94274 1.87663 7.85703 1.87663H7.4856C7.39988 1.87663 7.37131 1.93621 7.45703 1.99579L7.71417 2.23408C7.79988 2.29365 7.82846 2.44259 7.79989 2.53195L7.71417 2.91918C7.6856 3.00854 7.74274 3.06812 7.82845 3.00854L8.14274 2.77025C8.22846 2.71067 8.34274 2.71067 8.42846 2.77025L8.74274 2.97876C8.82846 3.03834 8.8856 3.00855 8.85703 2.8894L8.77131 2.56173C8.74274 2.47237 8.77131 2.32343 8.85703 2.26386L9.11417 1.99579Z" fill="#F6BB42"/>
<path d="M9.11417 7.5661C9.19988 7.50653 9.17131 7.44695 9.05703 7.44695H8.6856C8.59988 7.44695 8.4856 7.35759 8.45703 7.26823L8.31417 6.8512C8.2856 6.76184 8.22846 6.76184 8.19988 6.8512L8.0856 7.26823C8.05703 7.35759 7.94274 7.44695 7.85703 7.44695H7.4856C7.39988 7.44695 7.37131 7.50653 7.45703 7.5661L7.71417 7.8044C7.79988 7.86397 7.82846 8.01291 7.79989 8.10227L7.71417 8.4895C7.6856 8.57886 7.74274 8.63843 7.82845 8.57886L8.14274 8.34056C8.22846 8.28099 8.34274 8.28099 8.42846 8.34056L8.74274 8.54908C8.82846 8.60865 8.8856 8.57887 8.85703 8.45972L8.77131 8.13205C8.74274 8.04269 8.77131 7.89375 8.85703 7.83418L9.11417 7.5661Z" fill="#F6BB42"/>
<path d="M11.0859 5.98699C11.1716 5.92741 11.143 5.86785 11.0287 5.86785H10.6573C10.5716 5.86785 10.4573 5.77848 10.4287 5.68911L10.2859 5.2721C10.2573 5.18274 10.2001 5.18274 10.1716 5.2721L10.0573 5.68911C10.0287 5.77848 9.91442 5.86785 9.82871 5.86785H9.45728C9.37157 5.86785 9.34299 5.92741 9.42871 5.98699L9.68585 6.2253C9.77156 6.28487 9.80013 6.43381 9.77156 6.52317L9.68585 6.9104C9.65728 6.99976 9.71442 7.05933 9.80014 6.99976L10.1144 6.76147C10.2001 6.70189 10.3144 6.70189 10.4001 6.76147L10.7144 6.96998C10.8001 7.02955 10.8573 6.99975 10.8287 6.8806L10.743 6.55295C10.7144 6.46359 10.743 6.31465 10.8287 6.25508L11.0859 5.98699Z" fill="#F6BB42"/>
<path d="M11.0859 3.84247C11.1716 3.78289 11.143 3.72331 11.0287 3.72331H10.6573C10.5716 3.72331 10.4573 3.63396 10.4287 3.5446L10.2859 3.12757C10.2573 3.03821 10.2001 3.03821 10.1716 3.12757L10.0573 3.5446C10.0287 3.63396 9.91442 3.72331 9.82871 3.72331H9.45728C9.37157 3.72331 9.34299 3.78289 9.42871 3.84247L9.68585 4.08076C9.77156 4.14034 9.80013 4.28927 9.77156 4.37864L9.68585 4.76587C9.65728 4.85523 9.71442 4.9148 9.80014 4.85522L10.1144 4.61693C10.2001 4.55736 10.3144 4.55736 10.4001 4.61693L10.7144 4.82544C10.8001 4.88502 10.8573 4.85524 10.8287 4.73609L10.743 4.40842C10.7144 4.31905 10.743 4.17012 10.8287 4.11054L11.0859 3.84247Z" fill="#F6BB42"/>
</g>
</svg>
