<svg width="20" height="14" viewBox="0 0 20 14" fill="none" xmlns="http://www.w3.org/2000/svg">
<mask id="mask0" mask-type="alpha" maskUnits="userSpaceOnUse" x="0" y="0" width="20" height="14">
<rect width="20" height="14" rx="2" fill="#C4C4C4"/>
</mask>
<g mask="url(#mask0)">
<path d="M20 3.57471H0V6.8513H20V3.57471Z" fill="white"/>
<path d="M20 0H0V3.57447H20V0Z" fill="#F2D660"/>
<path d="M20 10.4253H0V13.9998H20V10.4253Z" fill="#4758A9"/>
<path d="M20 6.85107H0V10.4255H20V6.85107Z" fill="#F54747"/>
<path d="M0 0V14L11.7143 6.85106L0 0Z" fill="#52C162"/>
<path d="M4.54284 4.08073C4.59998 4.02116 4.59998 3.99137 4.51426 3.99137H4.19999C4.11427 3.99137 4.02855 3.9318 3.99998 3.84243L3.8857 3.51477C3.85713 3.42541 3.82855 3.42541 3.79998 3.51477L3.71427 3.84243C3.6857 3.9318 3.59998 3.99137 3.51426 3.99137H3.22855C3.14283 3.99137 3.14284 4.05095 3.19998 4.11052L3.39998 4.31903C3.45712 4.3786 3.4857 4.49775 3.4857 4.58712L3.42855 4.88499C3.39998 4.97435 3.45712 5.00414 3.51426 4.94456L3.77141 4.76584C3.82856 4.70626 3.94284 4.70626 4.02855 4.76584L4.2857 4.91478C4.34284 4.97435 4.39998 4.91477 4.37141 4.8552L4.2857 4.58712C4.25712 4.49775 4.2857 4.3786 4.34284 4.34882L4.54284 4.08073Z" fill="white"/>
<path d="M4.54284 5.83806C4.59998 5.77848 4.59998 5.7487 4.51426 5.71891H4.19999C4.11427 5.71891 4.02855 5.65934 3.99998 5.56997L3.8857 5.24231C3.85713 5.15295 3.82855 5.15295 3.79998 5.24231L3.71427 5.56997C3.6857 5.65934 3.59998 5.71891 3.51426 5.71891H3.22855C3.14283 5.71891 3.14284 5.77848 3.19998 5.83806L3.39998 6.04657C3.45712 6.10614 3.4857 6.22529 3.4857 6.31465L3.42855 6.61253C3.39998 6.70189 3.45712 6.73168 3.51426 6.6721L3.77141 6.49338C3.82856 6.4338 3.94284 6.4338 4.02855 6.49338L4.2857 6.64231C4.34284 6.70189 4.39998 6.64231 4.37141 6.58274L4.2857 6.31465C4.25712 6.22529 4.2857 6.10614 4.34284 6.07636L4.54284 5.83806Z" fill="white"/>
<path d="M4.54284 7.62565C4.59998 7.56608 4.59998 7.53629 4.51426 7.53629H4.19999C4.11427 7.53629 4.02855 7.47672 3.99998 7.38736L3.8857 7.0597C3.85713 6.97034 3.82855 6.97034 3.79998 7.0597L3.71427 7.38736C3.6857 7.47672 3.59998 7.53629 3.51426 7.53629H3.22855C3.14283 7.53629 3.14284 7.59587 3.19998 7.65544L3.39998 7.86395C3.45712 7.92353 3.4857 8.04268 3.4857 8.13204L3.42855 8.42991C3.39998 8.51927 3.45712 8.54906 3.51426 8.48948L3.77141 8.31076C3.82856 8.25119 3.94284 8.25119 4.02855 8.31076L4.2857 8.4597C4.34284 8.51927 4.39998 8.4597 4.37141 8.40012L4.2857 8.13204C4.25712 8.04268 4.2857 7.92353 4.34284 7.89374L4.54284 7.62565Z" fill="white"/>
<path d="M4.54284 9.41276C4.59998 9.35319 4.59998 9.3234 4.51426 9.3234H4.19999C4.11427 9.3234 4.02855 9.26383 3.99998 9.17447L3.8857 8.84681C3.85713 8.75744 3.82855 8.75744 3.79998 8.84681L3.71427 9.17447C3.6857 9.26383 3.59998 9.3234 3.51426 9.3234H3.22855C3.14283 9.3234 3.14284 9.38298 3.19998 9.44255L3.39998 9.65106C3.45712 9.71064 3.4857 9.82978 3.4857 9.91915L3.42855 10.217C3.39998 10.3064 3.45712 10.3362 3.51426 10.2766L3.77141 10.0979C3.82856 10.0383 3.94284 10.0383 4.02855 10.0979L4.2857 10.2468C4.34284 10.3064 4.39998 10.2468 4.37141 10.1872L4.2857 9.91915C4.25712 9.82978 4.2857 9.71064 4.34284 9.68085L4.54284 9.41276Z" fill="white"/>
<path d="M3.14265 10.4255C3.14265 10.3659 3.11407 10.3361 3.0855 10.3361C3.02836 10.4255 2.97122 10.5148 2.91408 10.6042C2.34265 11.2893 2.02836 10.217 1.82836 8.25101C1.79979 7.86377 1.77122 7.47654 1.77122 7.0893C1.77122 6.70207 1.77122 6.31484 1.79979 5.9276C1.94264 3.90207 2.25693 2.71058 2.85693 3.27654C2.91408 3.33611 2.97122 3.39569 3.02836 3.48505C3.05694 3.51484 3.05693 3.45526 3.0855 3.39569C3.0855 3.33611 3.08551 3.27654 3.05694 3.24675C2.91408 2.85952 2.74265 2.56165 2.57122 2.38292C1.85693 1.69782 1.0855 3.18718 0.914076 5.71909C0.885504 6.19569 0.856934 6.67228 0.856934 7.11909C0.856934 7.59569 0.885506 8.0425 0.942649 8.51909C1.19979 11.0212 1.97122 12.3319 2.6855 11.4978C2.85693 11.2893 3.02836 10.9616 3.14265 10.5446C3.14265 10.5148 3.14265 10.4553 3.14265 10.4255Z" fill="white"/>
</g>
</svg>
