<svg width="20" height="14" viewBox="0 0 20 14" fill="none" xmlns="http://www.w3.org/2000/svg">
<mask id="mask0" mask-type="alpha" maskUnits="userSpaceOnUse" x="0" y="0" width="20" height="14">
<rect width="20" height="14" rx="2" fill="#C4C4C4"/>
</mask>
<g mask="url(#mask0)">
<path d="M20.0024 0.00146484H0.00244141V14.0015H20.0024V0.00146484Z" fill="#4758A9"/>
<path d="M19.8487 -1.72468L-2.71582 12.3901L-0.95182 15.4552L21.6127 1.34043L19.8487 -1.72468Z" fill="#F2D660"/>
<path d="M19.8595 -0.862793L-2.71191 13.2861L-1.51191 14.8649L21.0595 0.715931L19.8595 -0.862793Z" fill="#F54747"/>
<path d="M4.77417 3.00963C4.91702 2.89048 4.88845 2.77133 4.68845 2.77133H3.94559C3.74559 2.77133 3.54559 2.62239 3.48845 2.41388L3.2313 1.63941C3.17416 1.46069 3.05988 1.46069 3.00273 1.63941L2.77417 2.44367C2.71702 2.65218 2.51702 2.80111 2.31702 2.80111L1.60274 2.8309C1.40274 2.8309 1.37416 2.95005 1.51702 3.0692L2.03131 3.54579C2.17416 3.66494 2.25988 3.93303 2.20274 4.14154L2.03131 4.88622C1.97416 5.09473 2.08845 5.15431 2.2313 5.03516L2.8313 4.58835C3.00273 4.4692 3.25988 4.4692 3.40273 4.55856L4.00273 4.9458C4.17416 5.06495 4.25988 4.97559 4.20274 4.79686L4.03131 4.14154C3.97416 3.93303 4.05988 3.69473 4.20274 3.54579L4.77417 3.00963Z" fill="#F6D660"/>
</g>
</svg>
