<svg width="20" height="14" viewBox="0 0 20 14" fill="none" xmlns="http://www.w3.org/2000/svg">
<mask id="mask0" mask-type="alpha" maskUnits="userSpaceOnUse" x="0" y="0" width="20" height="14">
<rect width="20" height="14" rx="2" fill="#C4C4C4"/>
</mask>
<g mask="url(#mask0)">
<path d="M20 4.46826H0V9.53209H20V4.46826Z" fill="#F5F7FA"/>
<path d="M20 9.53174H0V13.9998H20V9.53174Z" fill="#4758A9"/>
<path d="M20 0H0V4.46808H20V0Z" fill="#F54747"/>
<path d="M11.6571 3.48492C10.6857 3.48492 10.1428 2.68066 10.1428 2.68066C10.1428 2.68066 9.62855 3.48492 8.62855 3.48492C7.74283 3.48492 7.11426 2.79981 7.11426 2.79981V7.20833C7.14283 10.0977 10.1143 11.319 10.1143 11.319C10.1143 11.319 13.1143 10.1275 13.1143 7.20833V2.79981C13.1428 2.8296 12.5428 3.48492 11.6571 3.48492Z" fill="#F5F7FA"/>
<path d="M11.3713 4.25981C10.5713 4.25981 10.1427 3.57471 10.1427 3.57471C10.1427 3.57471 9.71412 4.25981 8.91412 4.25981C8.19984 4.25981 7.68555 3.69385 7.68555 3.69385V7.3279C7.71412 9.74067 10.1141 10.7236 10.1141 10.7236C10.1141 10.7236 12.5427 9.74067 12.5427 7.3279V3.69385C12.5713 3.69385 12.0855 4.25981 11.3713 4.25981Z" fill="#F54747"/>
</g>
</svg>
