<svg width="20" height="14" viewBox="0 0 20 14" fill="none" xmlns="http://www.w3.org/2000/svg">
<mask id="mask0" mask-type="alpha" maskUnits="userSpaceOnUse" x="0" y="0" width="20" height="14">
<rect width="20" height="14" rx="2" fill="#C4C4C4"/>
</mask>
<g mask="url(#mask0)">
<path d="M20 0H0V14H20V0Z" fill="white"/>
<path d="M10.2564 11.8254C10.2279 11.7956 10.2279 11.7956 10.1993 11.7658C10.1707 11.7361 10.1421 11.6765 10.085 11.6467C10.0279 11.5573 9.97071 11.468 9.94214 11.468L9.91357 11.4382L9.74215 11.3786L9.62786 11.319L9.685 11.2297L9.91357 11.319L10.085 11.3488L10.3993 11.5871C10.3993 11.5871 10.3421 11.6169 10.3136 11.6765C10.285 11.7063 10.2564 11.7063 10.2564 11.736C10.285 11.7956 10.285 11.7956 10.2564 11.8254C10.2564 11.7956 10.2564 11.8254 10.2564 11.8254H10.3136H10.2564ZM9.085 11.4382C8.94214 11.4382 8.79929 11.4084 8.65643 11.319C8.65643 11.319 8.685 11.2892 8.71358 11.2595C8.77072 11.2297 8.82786 11.1999 8.97072 11.1999C9.11357 11.1999 9.31357 11.2595 9.51357 11.3488C9.485 11.3488 9.31357 11.4382 9.085 11.4382ZM8.42786 11.2892C8.39929 11.2892 8.37071 11.2892 8.37071 11.2595C8.34214 11.2297 8.34214 11.2297 8.34214 11.1999C8.34214 11.1403 8.34214 11.1105 8.34214 11.1105H8.37071C8.42786 11.1105 8.45643 11.1701 8.485 11.1999C8.485 11.2297 8.485 11.2595 8.485 11.2595C8.45643 11.2892 8.45643 11.2892 8.42786 11.2892ZM9.57072 11.1701C9.17072 11.1105 9.02786 10.9616 8.94214 10.8424C8.85643 10.7233 8.88501 10.6041 8.88501 10.6041C8.88501 10.6041 8.91357 10.6041 8.94214 10.6041C9.05643 10.6041 9.31358 10.6637 9.57072 11.1701ZM8.77071 11.0807C8.59928 11.0807 8.485 11.0509 8.39929 10.9914C8.34214 10.9616 8.34215 10.9318 8.31358 10.902C8.31358 10.8722 8.31358 10.8722 8.31358 10.8424C8.31358 10.8424 8.39928 10.8126 8.485 10.8126H8.51357C8.62786 10.8126 8.82786 10.8424 9.02786 11.0509C8.94215 11.0807 8.85643 11.0807 8.77071 11.0807ZM7.97072 11.0509C7.79929 11.0509 7.57072 10.9914 7.39929 10.8424C7.39929 10.8424 7.57072 10.8126 7.74215 10.7829H7.77071C7.94214 10.7829 8.05643 10.8126 8.14215 10.8722C8.17072 10.902 8.19928 10.902 8.19928 10.9318C8.19928 10.9616 8.19929 10.9616 8.17072 10.9914C8.17072 11.0212 8.085 11.0509 7.97072 11.0509ZM7.42786 10.7531C7.39929 10.7531 7.39929 10.7531 7.37071 10.7233C7.37071 10.7233 7.34214 10.6935 7.34214 10.6637C7.34214 10.6339 7.34214 10.5743 7.34214 10.5743H7.37071C7.39929 10.5743 7.42786 10.5743 7.42786 10.6041C7.45643 10.6339 7.45643 10.6339 7.45643 10.6637C7.45643 10.6935 7.45643 10.6935 7.45643 10.7233L7.42786 10.7531ZM8.71358 10.7233C8.685 10.7233 8.65643 10.7233 8.65643 10.6935C8.62786 10.6637 8.62786 10.6637 8.62786 10.6339C8.62786 10.5744 8.62786 10.5446 8.62786 10.5446H8.65643C8.71357 10.5446 8.74214 10.6041 8.77071 10.6339C8.77071 10.6637 8.77071 10.6935 8.77071 10.6935C8.77071 10.6935 8.74215 10.7233 8.71358 10.7233ZM8.085 10.6935C7.74214 10.6935 7.54215 10.5744 7.45643 10.485C7.39929 10.4254 7.37071 10.3956 7.37071 10.3658C7.37071 10.336 7.34214 10.3063 7.34214 10.3063C7.34214 10.3063 7.37072 10.3063 7.42786 10.3063C7.57072 10.2765 7.79929 10.336 8.085 10.6935ZM8.45643 10.6339C8.17072 10.5744 8.02786 10.4552 7.94214 10.3658C7.85643 10.2765 7.82786 10.1573 7.82786 10.1573C7.82786 10.1573 7.85643 10.1573 7.91357 10.1573C8.085 10.1573 8.34215 10.2467 8.45643 10.6339ZM7.02786 10.5148C6.94215 10.5148 6.85643 10.5148 6.77071 10.485C6.62786 10.4552 6.57072 10.3956 6.54215 10.3361C6.51357 10.3063 6.51357 10.2765 6.51357 10.2765V10.2467C6.51357 10.2467 6.59929 10.2169 6.74215 10.2169C6.74215 10.2169 6.74214 10.2169 6.77071 10.2169C6.82786 10.2169 6.91357 10.2169 6.97072 10.2467C7.19929 10.3063 7.31358 10.485 7.31358 10.485C7.28501 10.485 7.17072 10.5148 7.02786 10.5148ZM7.685 10.2467C7.65643 10.2467 7.62786 10.2467 7.62786 10.2169C7.62786 10.1871 7.59929 10.1871 7.59929 10.1573C7.59929 10.0978 7.59929 10.068 7.59929 10.068H7.62786C7.685 10.068 7.71358 10.1275 7.74215 10.1573C7.74215 10.1871 7.74215 10.2169 7.74215 10.2169C7.71358 10.2467 7.71357 10.2467 7.685 10.2467ZM7.17072 10.1871C7.17072 10.1871 7.02786 10.1573 6.91357 10.068C6.79928 9.9786 6.62786 9.85945 6.62786 9.62115C6.62786 9.62115 6.62786 9.62115 6.65643 9.62115C6.685 9.62115 6.77072 9.62116 6.85643 9.71052C6.97072 9.79988 7.08501 9.94882 7.17072 10.1871ZM7.51357 10.1871C7.51357 10.1871 7.42786 10.1573 7.31358 10.0382C7.19929 9.94882 7.05643 9.77009 6.94214 9.50201C6.94214 9.50201 6.97072 9.502 6.99929 9.47222C7.05643 9.47222 7.14214 9.50201 7.22786 9.59137C7.34214 9.71052 7.42786 9.91903 7.51357 10.1871ZM6.685 10.1573C6.57072 10.1573 6.54215 10.0977 6.54215 10.068C6.51357 10.0382 6.54215 9.9786 6.54215 9.9786C6.57072 9.9786 6.57072 9.9786 6.59929 9.9786C6.68501 9.9786 6.74214 10.0382 6.77071 10.068C6.77071 10.068 6.79928 10.0978 6.77071 10.1275C6.74214 10.1275 6.71357 10.1573 6.685 10.1573ZM6.42786 9.82967C6.37072 9.82967 6.28501 9.82967 6.17072 9.79988C6.08501 9.77009 6.02786 9.71051 5.99929 9.62115C5.97072 9.56158 5.97072 9.47222 5.97072 9.47222C6.25643 9.47222 6.39929 9.56158 6.45643 9.65094C6.51358 9.7403 6.51357 9.79988 6.51357 9.79988C6.54214 9.82967 6.51358 9.82967 6.42786 9.82967ZM6.74215 9.50201C6.74215 9.50201 6.71357 9.47222 6.685 9.41265C6.65643 9.35307 6.62786 9.2935 6.62786 9.23392C6.62786 9.17435 6.62786 9.08498 6.59929 9.02541C6.59929 8.96583 6.57072 8.90626 6.57072 8.87647C6.57072 8.87647 6.74215 8.93605 6.74215 9.11478C6.77072 9.32329 6.74215 9.50201 6.74215 9.50201ZM6.51357 9.50201C6.45643 9.50201 6.37072 9.44243 6.25643 9.38286C6.14215 9.32328 6.05643 9.23392 5.99929 9.17434C5.94215 9.11477 5.91357 9.02541 5.91357 8.90626C5.91357 8.8169 5.91357 8.75732 5.91357 8.72754H5.94214C5.97072 8.72754 6.02786 8.75733 6.085 8.78711C6.14214 8.8169 6.17072 8.87647 6.22786 8.90626C6.31357 8.99562 6.39929 9.08499 6.39929 9.08499C6.39929 9.08499 6.45643 9.20414 6.485 9.2935C6.51357 9.35307 6.51357 9.38286 6.54215 9.44244C6.54215 9.47222 6.54214 9.47222 6.51357 9.50201C6.54214 9.47222 6.54214 9.50201 6.51357 9.50201Z" fill="#4E5B31"/>
<path d="M9.74295 11.8254C9.77152 11.7956 9.77153 11.7956 9.8001 11.7658C9.82867 11.7361 9.85724 11.6765 9.91438 11.6467C9.97153 11.5573 10.0287 11.468 10.0572 11.468L10.0858 11.4382L10.2572 11.3786L10.3715 11.319L10.3144 11.2297L10.0858 11.319L9.91438 11.3488L9.6001 11.5871C9.6001 11.5871 9.65724 11.6169 9.68582 11.6765C9.71439 11.7063 9.74295 11.7063 9.74295 11.736C9.71438 11.7956 9.71438 11.7956 9.74295 11.8254C9.74295 11.7956 9.74295 11.8254 9.74295 11.8254H9.68582H9.74295ZM10.9144 11.4382C11.0572 11.4382 11.2001 11.4084 11.343 11.319C11.343 11.319 11.3144 11.2892 11.2858 11.2595C11.2287 11.2297 11.1715 11.1999 11.0287 11.1999C10.8858 11.1999 10.6858 11.2595 10.4858 11.3488C10.5144 11.3488 10.6858 11.4382 10.9144 11.4382ZM11.5715 11.2892C11.6001 11.2892 11.6287 11.2892 11.6287 11.2595C11.6572 11.2297 11.6572 11.2297 11.6572 11.1999C11.6572 11.1403 11.6572 11.1105 11.6572 11.1105H11.6287C11.5715 11.1105 11.543 11.1701 11.5144 11.1999C11.5144 11.2297 11.5144 11.2595 11.5144 11.2595C11.543 11.2892 11.543 11.2892 11.5715 11.2892ZM10.4287 11.1701C10.8287 11.1105 10.9715 10.9616 11.0572 10.8424C11.143 10.7233 11.1144 10.6041 11.1144 10.6041C11.1144 10.6041 11.0858 10.6041 11.0572 10.6041C10.943 10.6041 10.6858 10.6637 10.4287 11.1701ZM11.2287 11.0807C11.4001 11.0807 11.5144 11.0509 11.6001 10.9914C11.6572 10.9616 11.6572 10.9318 11.6858 10.902C11.6858 10.8722 11.6858 10.8722 11.6858 10.8424C11.6858 10.8424 11.6001 10.8126 11.5144 10.8126H11.4858C11.3715 10.8126 11.1715 10.8424 10.9715 11.0509C11.0572 11.0807 11.143 11.0807 11.2287 11.0807ZM12.0287 11.0509C12.2001 11.0509 12.4287 10.9914 12.6001 10.8424C12.6001 10.8424 12.4287 10.8126 12.2572 10.7829H12.2287C12.0572 10.7829 11.943 10.8126 11.8572 10.8722C11.8287 10.902 11.8001 10.902 11.8001 10.9318C11.8001 10.9616 11.8001 10.9616 11.8287 10.9914C11.8287 11.0212 11.9144 11.0509 12.0287 11.0509ZM12.5715 10.7531C12.6001 10.7531 12.6001 10.7531 12.6287 10.7233C12.6287 10.7233 12.6572 10.6935 12.6572 10.6637C12.6572 10.6339 12.6572 10.5743 12.6572 10.5743H12.6287C12.6001 10.5743 12.5715 10.5743 12.5715 10.6041C12.543 10.6339 12.543 10.6339 12.543 10.6637C12.543 10.6935 12.543 10.6935 12.543 10.7233L12.5715 10.7531ZM11.2858 10.7233C11.3144 10.7233 11.343 10.7233 11.343 10.6935C11.3715 10.6637 11.3715 10.6637 11.3715 10.6339C11.3715 10.5744 11.3715 10.5446 11.3715 10.5446H11.343C11.2858 10.5446 11.2572 10.6041 11.2287 10.6339C11.2287 10.6637 11.2287 10.6935 11.2287 10.6935C11.2287 10.6935 11.2572 10.7233 11.2858 10.7233ZM11.9144 10.6935C12.2572 10.6935 12.4572 10.5744 12.543 10.485C12.6001 10.4254 12.6287 10.3956 12.6287 10.3658C12.6287 10.336 12.6572 10.3063 12.6572 10.3063C12.6572 10.3063 12.6287 10.3063 12.5715 10.3063C12.4287 10.2765 12.2001 10.336 11.9144 10.6935ZM11.543 10.6339C11.8287 10.5744 11.9715 10.4552 12.0572 10.3658C12.143 10.2765 12.1715 10.1573 12.1715 10.1573C12.1715 10.1573 12.143 10.1573 12.0858 10.1573C11.9144 10.1573 11.6572 10.2467 11.543 10.6339ZM12.9715 10.5148C13.0572 10.5148 13.143 10.5148 13.2287 10.485C13.3715 10.4552 13.4287 10.3956 13.4572 10.3361C13.4858 10.3063 13.4858 10.2765 13.4858 10.2765V10.2467C13.4858 10.2467 13.4001 10.2169 13.2572 10.2169C13.2572 10.2169 13.2572 10.2169 13.2287 10.2169C13.1715 10.2169 13.0858 10.2169 13.0287 10.2467C12.8001 10.3063 12.6858 10.485 12.6858 10.485C12.7144 10.485 12.8287 10.5148 12.9715 10.5148ZM12.3144 10.2467C12.343 10.2467 12.3715 10.2467 12.3715 10.2169C12.3715 10.1871 12.4001 10.1871 12.4001 10.1573C12.4001 10.0978 12.4001 10.068 12.4001 10.068H12.3715C12.3144 10.068 12.2858 10.1275 12.2572 10.1573C12.2572 10.1871 12.2572 10.2169 12.2572 10.2169C12.2858 10.2467 12.3144 10.2467 12.3144 10.2467ZM12.8287 10.1871C12.8287 10.1871 12.9715 10.1573 13.0858 10.068C13.2001 9.9786 13.3715 9.85945 13.3715 9.62115C13.3715 9.62115 13.3715 9.62115 13.343 9.62115C13.3144 9.62115 13.2287 9.62116 13.143 9.71052C13.0287 9.79988 12.9144 9.94882 12.8287 10.1871ZM12.4858 10.1871C12.4858 10.1871 12.5715 10.1573 12.6858 10.0382C12.8001 9.94882 12.943 9.77009 13.0572 9.50201C13.0572 9.50201 13.0287 9.502 13.0001 9.47222C12.943 9.47222 12.8572 9.50201 12.7715 9.59137C12.6572 9.71052 12.5715 9.91903 12.4858 10.1871ZM13.3144 10.1573C13.4287 10.1573 13.4572 10.0977 13.4572 10.068C13.4858 10.0382 13.4572 9.9786 13.4572 9.9786C13.4287 9.9786 13.4287 9.9786 13.4001 9.9786C13.3144 9.9786 13.2572 10.0382 13.2287 10.068C13.2287 10.068 13.2001 10.0978 13.2287 10.1275C13.2572 10.1275 13.2858 10.1573 13.3144 10.1573ZM13.5715 9.82967C13.6287 9.82967 13.7144 9.82967 13.8287 9.79988C13.9144 9.77009 13.9715 9.71051 14.0001 9.62115C14.0287 9.56158 14.0287 9.47222 14.0287 9.47222C13.743 9.47222 13.6001 9.56158 13.543 9.65094C13.4858 9.7403 13.4858 9.79988 13.4858 9.79988C13.4572 9.82967 13.5144 9.82967 13.5715 9.82967ZM13.2572 9.50201C13.2572 9.50201 13.2858 9.47222 13.3144 9.41265C13.343 9.35307 13.3715 9.2935 13.3715 9.23392C13.3715 9.17435 13.3715 9.08498 13.4001 9.02541C13.4001 8.96583 13.4287 8.90626 13.4287 8.87647C13.4287 8.87647 13.2572 8.93605 13.2572 9.11478C13.2287 9.32329 13.2572 9.50201 13.2572 9.50201ZM13.4858 9.50201C13.543 9.50201 13.6287 9.44243 13.743 9.38286C13.8572 9.32328 13.943 9.23392 14.0001 9.17434C14.0572 9.11477 14.0858 9.02541 14.0858 8.90626C14.0858 8.8169 14.0858 8.75732 14.0858 8.72754H14.0572C14.0287 8.72754 13.9715 8.75733 13.9144 8.78711C13.8572 8.8169 13.8287 8.87647 13.7715 8.90626C13.6858 8.99562 13.6001 9.08499 13.6001 9.08499C13.6001 9.08499 13.543 9.20414 13.5144 9.2935C13.4858 9.35307 13.4858 9.38286 13.4572 9.44244C13.4572 9.47222 13.4572 9.47222 13.4858 9.50201C13.4572 9.47222 13.4858 9.50201 13.4858 9.50201Z" fill="#4E5B31"/>
<path d="M16.7622 2.4126L16.7051 2.44239H16.6765H16.6194L16.5622 2.47217L16.4479 2.56154H16.4194L16.3908 2.53175H16.3622V2.59132L16.3337 2.6211L16.3051 2.65089H16.2194L16.1622 2.68068L16.0765 2.65089L16.048 2.68068L15.9622 2.77004L15.9051 2.79983H15.8765H15.8194H15.7908L15.7622 2.82962H15.6765L15.648 2.85941L15.6194 2.94877L15.5908 2.97856H15.5622H15.5337H15.5051V3.03813L15.4765 3.06791L15.4194 3.0977L15.3908 3.12749L15.3622 3.15728H15.3051L15.2479 3.18707H15.1622L15.1337 3.21685H15.1051L15.0765 3.24664H15.048L15.0194 3.27643L14.9908 3.24664L14.9622 3.27643H14.9337L14.8765 3.24664L14.8479 3.21685H14.8194V3.27643L14.7908 3.30622L14.7337 3.33601L14.6765 3.42536L14.5622 3.54451L14.4765 3.60409L14.3908 3.63388L14.3337 3.69345L14.1622 3.78281L13.9051 3.93175L13.8479 3.96153H13.7622L13.6194 4.02111L13.5051 4.0509H13.4765L13.3051 4.11047H13.2194L13.1622 4.14026H13.048H12.9622H12.9051L12.7908 4.19983L12.6194 4.28919L12.5622 4.34877L12.4765 4.40834L12.3622 4.43813V4.37856H12.3337H12.3051H12.2194H12.1622H12.1337L11.9622 4.43813L11.7622 4.46792L11.6765 4.49771H11.5908H11.5337H11.4479H11.4194H11.1622H11.048H10.9908L10.9051 4.46792L10.7622 4.43813H10.7337L10.648 4.40834L10.6194 4.43813H10.5908L10.5337 4.40834H10.5051L10.4479 4.43813H10.4194L10.3908 4.40834H10.3337L10.3051 4.37856L10.1051 4.40834L10.048 4.37856L9.84795 4.31898H9.81937L9.79081 4.34877L9.73366 4.37856H9.67652H9.61938L9.53366 4.34877L9.44795 4.31898H9.41938H9.36224H9.33367L9.21938 4.2594L9.07652 4.17005L8.96223 4.11047H8.93367V4.14026L8.96223 4.19983V4.2594V4.31898V4.34877V4.37856L8.9908 4.40834L9.01938 4.46792V4.58706V4.70621L8.9908 4.91473V4.94451L8.96223 5.03387L8.93367 5.12324L8.84795 5.36153L8.81937 5.39132L8.76224 5.42111L8.64795 5.51047L8.56223 5.57005H8.53366H8.44795H8.3908L8.33367 5.54026H8.27652L8.19081 5.48068L8.10509 5.45089L8.01938 5.39132L7.9908 5.36153H7.93367L7.87652 5.33175H7.84795H7.81937H7.73366L7.64795 5.30196H7.61938H7.56223L7.5051 5.33175H7.47652L7.44795 5.30196H7.41938L7.3908 5.36153H7.36224H7.33367H7.30509H7.27652H7.24795H7.21938H7.19081H7.16224L7.13366 5.33175H7.10509H7.07652H7.04795V5.39132V5.42111L6.9908 5.45089L6.93367 5.48068L6.90509 5.54026L6.81937 5.74876L6.76224 5.83813L6.73366 5.86792L6.67652 5.92749L6.61938 5.95728L6.5051 6.04664L6.3908 6.07643L6.30509 6.10622H6.24795H6.16223L6.07652 6.07643L5.9908 6.01686L5.90509 5.92749L5.76224 5.80834H5.73366L5.70509 5.77855H5.67652V5.80834V5.83813V5.86792L5.64795 6.01686V6.07643L5.73366 6.22536L5.76224 6.31473L5.79081 6.34451L5.81937 6.3743L5.84795 6.49345L5.81937 6.55302V6.58281L5.79081 6.6126V6.64238L5.87652 6.76154L5.90509 6.82111L5.87652 6.88069L5.84795 6.91047V6.94025L5.87652 6.97004L5.93367 7.02962L5.96223 7.11898L5.9908 7.14877H6.01938H6.04795H6.07652L6.10509 7.17856H6.13366H6.16223L6.19081 7.20835V7.29771L6.21938 7.41685V7.47643L6.24795 7.536V7.56579V7.65516L6.27652 7.68494H6.30509H6.33367L6.36224 7.71473L6.41938 7.7743H6.44795H6.47652L6.61938 7.89345L6.64795 7.92324H6.67652L6.70509 7.95303L6.73366 7.92324H6.79081H6.81937L6.84795 7.95303H6.90509L7.01938 7.98281H7.07652L7.16224 8.04239L7.19081 8.07218L7.21938 8.10196L7.24795 8.13174L7.30509 8.16153H7.36224H7.3908H7.41938L7.53366 8.22111L7.59081 8.2509L7.64795 8.28068L7.67652 8.31047H7.70509L7.76224 8.28068H7.81937H7.84795H7.87652L7.93367 8.2509V8.22111L7.96223 8.19132L8.10509 8.16153H8.13366L8.21938 8.10196L8.27652 8.13174L8.33367 8.10196L8.44795 8.13174L8.47652 8.16153L8.5051 8.22111H8.53366L8.5051 8.2509L8.56223 8.31047L8.61938 8.39984L8.64795 8.51898L8.67652 8.54877L8.70509 8.60834V8.63813L8.67652 8.66792V8.69771H8.70509H8.73366H8.79081H8.81937L8.87652 8.66792L8.90509 8.63813L8.96223 8.66792H9.01938H9.04795L9.10509 8.69771H9.13366V8.66792V8.63813L9.10509 8.60834L9.04795 8.54877L9.01938 8.51898L8.9908 8.45941V8.39984V8.37005V8.31047L9.01938 8.28068V8.22111L9.04795 8.19132L9.13366 8.13174L9.21938 8.04239L9.27652 7.98281L9.36224 7.95303L9.53366 7.89345L9.61938 7.86366L10.1622 7.89345H10.1908L10.2194 7.83387L10.2765 7.80409H10.3051L10.3908 7.83387H10.4194L10.4765 7.80409H10.5051L10.5908 7.7743H10.648H10.6765L10.7622 7.71473L10.8479 7.68494H10.8765L10.9622 7.62537L11.0194 7.56579L11.0765 7.536H11.1337H11.2765L11.3051 7.47643H11.3622L11.3908 7.44664L11.4194 7.41685L11.4479 7.35728L11.4765 7.32749L11.5051 7.29771H11.6194L11.7622 7.32749H11.7908L11.8194 7.20835L11.8479 7.17856L11.9337 7.05941V6.99983V6.97004V6.91047V6.82111V6.73175L11.9908 6.6126L12.048 6.55302L12.1337 6.49345L12.1622 6.46367H12.2194H12.4194H12.4765H12.5337L12.7051 6.49345L12.7622 6.52324L12.8194 6.58281L12.8765 6.64238L12.9051 6.67217H12.9337L12.9908 6.64238L13.0194 6.6126L13.0765 6.58281L13.1051 6.52324V6.49345L13.1908 6.46367H13.3051L13.3337 6.43388H13.3622L13.4194 6.46367H13.4765L13.5051 6.49345H13.5337H13.5908L13.648 6.55302H13.6765L13.7908 6.64238H13.8194H13.8479V6.67217H13.8765L13.9051 6.64238H13.8479L13.8194 6.58281L13.8479 6.55302L13.7908 6.46367L13.7622 6.43388L13.648 6.25515L13.5051 6.136L13.4479 6.10622H13.4194L13.3337 6.01686L13.2765 5.95728V5.92749V5.8977L13.2479 5.83813L13.1908 5.80834L13.1337 5.74876L13.048 5.62962L13.0194 5.59983H12.9908H12.9337L12.9622 5.57005H12.9908V5.54026L12.9337 5.39132V5.33175L12.9622 5.12324V5.09345L13.0194 4.94451L13.048 4.91473L13.1051 4.82537L13.1337 4.76579L13.1622 4.736L13.2194 4.70621H13.2765H13.3337L13.4194 4.736H13.5051H13.5337H13.5622L13.6194 4.70621L13.648 4.67643L13.6765 4.64664L13.7051 4.5275V4.49771L13.7337 4.46792L13.8479 4.31898L13.9337 4.22962L14.1337 4.08069L14.2194 4.02111L14.2765 3.99132L14.7337 3.78281L14.8479 3.66366L14.9051 3.60409L15.0194 3.51472L15.1337 3.45515L15.2479 3.36579L15.2765 3.33601L15.3051 3.24664H15.3337L15.3622 3.18707L15.4479 3.12749L15.7908 2.94877H15.8479L15.8765 2.91898L15.9622 2.8892H15.9908H16.0194L16.048 2.85941V2.77004L16.0765 2.74026V2.68068V2.65089V2.6211L16.7622 2.4126Z" fill="#D57800"/>
</g>
</svg>
