<svg width="20" height="14" viewBox="0 0 20 14" fill="none" xmlns="http://www.w3.org/2000/svg">
<mask id="mask0" mask-type="alpha" maskUnits="userSpaceOnUse" x="0" y="0" width="20" height="14">
<rect width="20" height="14" rx="2" fill="#C4C4C4"/>
</mask>
<g mask="url(#mask0)">
<path d="M20 0H0V7.14894H20V0Z" fill="#8CBAE2"/>
<path d="M20 7.14893H0V14H20V7.14893Z" fill="#52C162"/>
<path d="M0 0V14L7.14286 7.14894L0 0Z" fill="#F5F7FA"/>
<path d="M3.94294 6.82125C4.05722 6.73189 4.02865 6.64252 3.8858 6.64252H3.34294C3.20008 6.64252 3.02865 6.52338 3.00008 6.37445L2.80008 5.7787C2.74294 5.62977 2.6858 5.62977 2.62866 5.7787L2.45723 6.37445C2.42865 6.52338 2.25722 6.64252 2.11437 6.64252L1.57151 6.67232C1.42865 6.67232 1.40008 6.76167 1.51437 6.85103L1.8858 7.20848C2.00008 7.29785 2.05723 7.50636 2.02865 7.65529L1.91437 8.19146C1.8858 8.34039 1.94294 8.39998 2.05723 8.31061L2.51436 7.98294C2.62865 7.89358 2.82865 7.89358 2.94294 7.98294L3.40008 8.28082C3.51437 8.37018 3.60008 8.31061 3.54294 8.16168L3.40008 7.68507C3.37151 7.53614 3.42865 7.32763 3.51436 7.23826L3.94294 6.82125Z" fill="#F54747"/>
</g>
</svg>
