<svg width="20" height="14" viewBox="0 0 20 14" fill="none" xmlns="http://www.w3.org/2000/svg">
<mask id="mask0" mask-type="alpha" maskUnits="userSpaceOnUse" x="0" y="0" width="20" height="14">
<rect width="20" height="14" rx="2" fill="#C4C4C4"/>
</mask>
<g mask="url(#mask0)">
<path d="M8.85714 0H0V5.95745H8.85714V0Z" fill="#4758A9"/>
<path d="M20.0002 8.34033H11.1431V13.9999H20.0002V8.34033Z" fill="#4758A9"/>
<path d="M11.1426 0H8.85693V14H11.1426V0Z" fill="white"/>
<path d="M20 5.95752H0V8.3405H20V5.95752Z" fill="white"/>
<path d="M9.99979 5.95752C9.37122 5.95752 8.85693 6.49369 8.85693 7.14901C8.85693 7.80433 9.37122 8.3405 9.99979 8.3405C10.6284 8.3405 11.1426 7.80433 11.1426 7.14901C11.1426 6.49369 10.6284 5.95752 9.99979 5.95752Z" fill="#52C162"/>
<path d="M10.0002 6.25537C9.51449 6.25537 9.14307 6.64261 9.14307 7.14899C9.14307 7.65537 9.51449 8.0426 10.0002 8.0426C10.4859 8.0426 10.8574 7.65537 10.8574 7.14899C10.8574 6.64261 10.4859 6.25537 10.0002 6.25537Z" fill="white"/>
<path d="M20.0002 0H11.1431V5.95745H20.0002V0Z" fill="#F54747"/>
<path d="M8.85714 8.34033H0V13.9999H8.85714V8.34033Z" fill="#F54747"/>
</g>
</svg>
