<svg width="20" height="14" viewBox="0 0 20 14" fill="none" xmlns="http://www.w3.org/2000/svg">
<mask id="mask0" mask-type="alpha" maskUnits="userSpaceOnUse" x="0" y="0" width="20" height="14">
<rect width="20" height="14" rx="2" fill="#C4C4C4"/>
</mask>
<g mask="url(#mask0)">
<path d="M20 0H0V14H20V0Z" fill="#52C162"/>
<path d="M12.2855 0H10.8569V14H12.2855V0Z" fill="white"/>
<path d="M10.8573 0H9.42871V14H10.8573V0Z" fill="#434A54"/>
<path d="M9.42857 0H8V14H9.42857V0Z" fill="#F6BB42"/>
<path d="M20 7.74463H0V9.23399H20V7.74463Z" fill="white"/>
<path d="M20 6.25537H0V7.74473H20V6.25537Z" fill="#434A54"/>
<path d="M20 4.76611H0V6.25547H20V4.76611Z" fill="#F6BB42"/>
<path d="M10.8568 11.5589C13.271 11.1504 14.9106 8.77878 14.5188 6.26176C14.1269 3.74475 11.8521 2.03545 9.43785 2.44395C7.02357 2.85244 5.38404 5.22404 5.77586 7.74106C6.16769 10.2581 8.44248 11.9674 10.8568 11.5589Z" fill="#F54747"/>
</g>
</svg>
