<svg width="20" height="14" viewBox="0 0 20 14" fill="none" xmlns="http://www.w3.org/2000/svg">
<mask id="mask0" mask-type="alpha" maskUnits="userSpaceOnUse" x="0" y="0" width="20" height="14">
<rect width="20" height="14" rx="2" fill="#C4C4C4"/>
</mask>
<g mask="url(#mask0)">
<path d="M20 0H0V14H20V0Z" fill="#F54747"/>
<path d="M0 0V14L11.4286 7.14894L0 0Z" fill="#FFCE54"/>
<path d="M0 0V14L8.28571 7.14894L0 0Z" fill="#434A54"/>
<path d="M3.62834 7.14901L3.2569 6.9405C3.14262 6.88092 3.05691 6.7022 3.05691 6.58305L3.08547 6.07667C3.08547 5.95752 3.02833 5.89794 2.94262 6.01709L2.59976 6.37454C2.51405 6.4639 2.34262 6.49369 2.19977 6.43412L1.71405 6.19582C1.59976 6.13624 1.54262 6.19582 1.59976 6.31497L1.85691 6.79156C1.91405 6.91071 1.88547 7.08943 1.79976 7.1788L1.45691 7.53624C1.37119 7.6256 1.39976 7.71497 1.54262 7.68518L1.99976 7.65539C2.14262 7.65539 2.28547 7.71497 2.37119 7.83412L2.62834 8.25113C2.68548 8.37028 2.77119 8.3405 2.79976 8.22135L2.88548 7.71497C2.91405 7.59582 3.02834 7.44688 3.17119 7.41709L3.62834 7.29794C3.74262 7.29794 3.74262 7.20858 3.62834 7.14901Z" fill="#F5F7FA"/>
</g>
</svg>
