<svg width="20" height="14" viewBox="0 0 20 14" fill="none" xmlns="http://www.w3.org/2000/svg">
<mask id="mask0" mask-type="alpha" maskUnits="userSpaceOnUse" x="0" y="0" width="21" height="14">
<rect x="0.000976562" width="20" height="14" rx="2" fill="#C4C4C4"/>
</mask>
<g mask="url(#mask0)">
<path d="M20.001 0H0.000976562V8.04255H20.001V0Z" fill="#F2D660"/>
<path d="M20.001 8.04248H0.000976562V11.0212H20.001V8.04248Z" fill="#4758A9"/>
<path d="M20.001 11.0215H0.000976562V14.0002H20.001V11.0215Z" fill="#F54747"/>
<path d="M11.6583 3.48492C10.6869 3.48492 10.1726 2.68066 10.1726 2.68066C10.1726 2.68066 9.65833 3.48492 8.65833 3.48492C7.77261 3.48492 7.14404 2.79981 7.14404 2.79981V7.20832C7.17261 10.0977 10.144 11.319 10.144 11.319C10.144 11.319 13.144 10.1275 13.144 7.20832V2.79981C13.144 2.8296 12.544 3.48492 11.6583 3.48492Z" fill="#F5F7FA"/>
<path d="M11.3727 4.1104C10.5727 4.1104 10.1442 3.42529 10.1442 3.42529C10.1442 3.42529 9.71559 4.1104 8.91559 4.1104C8.2013 4.1104 7.68701 3.54444 7.68701 3.54444V7.17849C7.71558 9.59125 10.1156 10.5742 10.1156 10.5742C10.1156 10.5742 12.5442 9.59125 12.5442 7.17849V3.54444C12.5727 3.54444 12.087 4.1104 11.3727 4.1104Z" fill="#F2D660"/>
</g>
</svg>
