<svg width="21" height="14" viewBox="0 0 21 14" fill="none" xmlns="http://www.w3.org/2000/svg">
<mask id="mask0" mask-type="alpha" maskUnits="userSpaceOnUse" x="0" y="0" width="21" height="14">
<rect x="0.00976562" width="20" height="14" rx="2" fill="#C4C4C4"/>
</mask>
<g mask="url(#mask0)">
<path d="M20.0098 0H0.00976562V7.14894H20.0098V0Z" fill="#52C162"/>
<path d="M20.0098 7.14893H0.00976562V14H20.0098V7.14893Z" fill="#56A1E2"/>
<path d="M0.00976562 0V14L20.0098 7.14894L0.00976562 0Z" fill="#F54747"/>
<path d="M7.69553 7.50658C7.58125 7.89382 7.18125 8.22147 7.03839 8.31083C7.40982 7.74487 7.92411 7.14913 7.46697 6.67253C7.49554 6.94062 7.29554 7.23849 7.20983 7.26828C7.4384 6.67253 7.63839 5.89807 7.15268 5.39169C7.20982 5.57041 7.18125 6.07679 7.09553 6.10658C7.06696 5.68956 7.00982 4.82572 6.58125 4.85551C6.72411 4.97466 6.78125 5.30232 6.78125 5.65977C6.69554 5.42147 6.58125 5.24275 6.32411 5.09381C6.12411 4.70658 5.78125 4.40871 5.43839 4.2002C5.46696 4.46828 5.49554 4.67679 5.89554 4.97467C5.69554 4.97467 5.49554 4.58743 5.29554 4.58743C5.12411 4.58743 5.00982 4.73637 4.72411 4.64701C4.75268 4.73637 4.86697 4.76615 4.89554 4.85551C4.83839 4.8853 4.69554 4.85552 4.58125 4.79594C4.75268 5.00445 4.98125 5.15339 5.18125 5.09381C5.43839 5.03424 5.69553 5.06403 5.95268 5.21296C5.89553 5.24275 5.63839 5.24275 5.46697 5.21296C5.60982 5.3619 5.7241 5.45126 5.95268 5.45126C6.18125 5.45126 6.29554 5.33211 6.35268 5.39169C6.49554 5.57041 6.58125 5.71934 6.69553 5.92785C6.43839 5.95764 6.52411 5.62998 6.20983 5.45126C6.0384 5.8087 6.40982 6.19594 6.6384 6.37466C6.6384 6.64275 6.66697 6.85126 6.78125 7.05977C6.86697 7.20871 6.95268 7.32786 6.92411 7.65552C6.78125 7.53637 6.63839 7.17892 6.69553 6.91084C6.52411 6.97041 6.43839 7.26828 6.5241 7.447C6.58125 7.56615 6.63839 7.80445 6.55268 7.9236C6.49553 8.01296 6.46697 8.01296 6.46697 8.22147C6.46697 8.34062 6.40982 8.48955 6.29554 8.6087C6.32411 8.51934 6.35268 8.3704 6.32411 8.28104C6.23839 8.42998 6.00982 8.6087 5.95268 8.75764C5.89553 8.93636 5.86696 9.20445 5.5241 9.26403C5.09553 9.35339 4.95268 9.41296 4.66696 9.53211C4.63839 9.3236 4.72411 8.87679 4.89554 8.90658C5.06697 8.93636 5.58125 8.72785 5.40982 8.28104C5.38125 8.42998 5.23839 8.54913 5.12411 8.57892C5.26696 8.40019 5.52411 8.19168 5.40982 7.86402C5.35268 8.01296 5.2384 8.1619 5.06697 8.25126C5.2384 7.89382 5.09554 7.80445 4.86696 8.07254C4.78125 8.19169 4.75268 8.4002 4.69553 8.66828C4.60982 8.42998 4.60982 8.13211 4.5241 7.89381C4.40982 7.62573 4.66697 7.56615 4.78125 7.59594C5.06697 7.65551 5.52411 7.65552 5.49554 7.20871C5.38125 7.35765 5.18125 7.41722 4.95268 7.35765C5.20982 7.17892 5.40982 6.82147 5.12411 6.64274C5.12411 6.85126 4.95268 7.05977 4.78125 7.14913C4.72411 6.97041 4.72411 6.82148 4.78125 6.61296C4.66697 6.73211 4.58125 6.97041 4.5241 7.26828C4.5241 7.00019 4.58125 6.79168 4.60982 6.64274C4.66697 6.43423 4.80982 6.55339 5.03839 6.58318C5.23839 6.58318 5.55268 6.46402 5.49554 6.19594C5.40983 6.31509 5.26696 6.34487 5.12411 6.34487C5.29553 6.22572 5.63839 6.04701 5.43839 5.71935C5.35268 5.8385 5.35268 5.92785 5.12411 5.95764C5.18125 5.83849 5.18125 5.62999 5.35268 5.57041C5.06697 5.51084 4.89553 5.71935 4.80982 6.01722C4.78125 5.80871 4.72411 5.71935 4.72411 5.57041C4.89554 5.39169 4.89553 5.03424 4.55268 4.97467C4.52411 5.15339 4.52411 5.21296 4.58125 5.33211C4.40982 5.24275 4.18125 5.18317 4.03839 5.33211C4.15268 5.45126 4.29553 5.54062 4.55268 5.42148C4.49553 5.6002 4.35268 5.57041 4.12411 5.51083C4.23839 5.74913 4.40982 5.8087 4.58125 5.77892C4.66696 6.01721 4.66696 6.22573 4.40982 6.58318C4.40982 6.34488 4.40982 6.19594 4.23839 6.01722C4.09553 5.86828 3.95268 6.01721 4.20983 6.34487C4.06697 6.22572 3.89554 6.01722 3.86696 5.80871C3.80982 6.07679 3.86696 6.37466 4.00982 6.55339C3.95268 6.64275 3.86697 6.55339 3.75268 6.37466C3.80982 6.97041 4.03839 7.05977 4.38125 6.94062C4.38125 7.26828 4.38125 7.56616 4.40982 7.95339C4.20982 7.68531 3.98125 7.47679 3.83839 7.41721C3.80982 7.56615 3.95268 7.77466 4.03839 7.89381C3.89554 7.86402 3.60982 7.62573 3.60982 7.62573C3.58125 7.89381 3.92411 8.13211 4.12411 8.22147C3.86696 8.22147 3.75268 8.10233 3.60982 7.95339C3.60982 8.66828 4.38125 8.54913 4.5241 8.42998C4.55268 8.78743 4.58125 9.20445 4.58125 9.5619C4.35268 9.53211 4.38125 9.44275 4.20983 9.44275C3.69554 9.41296 3.29554 8.81722 3.15268 8.37041C3.12411 8.42998 3.15268 8.51934 3.09553 8.6087C3.00982 8.40019 2.89554 8.10232 2.75268 7.98317C2.78125 8.10232 2.78125 8.25126 2.78125 8.48956C2.72411 8.34062 2.69553 8.28105 2.69553 8.10233C2.69553 7.95339 2.83839 7.86403 2.80982 7.65552C2.80982 7.50658 2.66696 7.2087 2.66696 6.97041C2.60982 7.2087 2.55268 7.47679 2.46697 7.62573C2.52411 7.35764 2.49554 7.17892 2.58125 7.0002C2.66696 6.82147 2.75268 6.64275 2.69553 6.46403C2.63839 6.5236 2.66697 6.61296 2.49554 6.79168C2.46697 6.61296 2.69554 6.28531 2.89554 6.16616C3.03839 6.07679 3.23839 5.77892 3.12411 5.60019C2.98125 5.71934 2.92411 5.83849 2.72411 6.07679C2.86696 5.51083 3.23839 5.3619 3.69553 5.33211C3.80982 5.33211 4.00982 5.30232 4.06697 5.15338C3.95268 5.21296 3.78125 5.21296 3.66696 5.18317C3.75268 5.03424 3.98125 5.06403 4.15268 5.06403C4.29554 5.06403 4.55268 5.03424 4.6384 4.82573C4.46697 4.91509 4.18125 4.91509 3.98125 4.85551C4.26696 4.70657 4.7241 4.67679 4.95268 4.49807C4.69553 4.28956 4.03839 4.55765 3.60982 4.82573C3.72411 4.70658 3.89554 4.52786 4.00982 4.37892C3.78125 4.25977 3.20982 4.91509 3.00982 5.30232C2.80982 5.42147 2.75268 5.57041 2.66696 5.68956C2.78125 5.33211 2.78125 5.09382 2.86696 4.82573C2.20982 5.06403 2.49554 6.25551 2.35268 6.55339C2.38125 6.22573 2.35268 5.83849 2.23839 5.60019C2.03839 5.74913 2.00982 6.64275 2.20982 7.41721C2.15268 7.2087 2.00982 7.02998 1.98125 6.79168C1.69553 7.32785 2.15268 7.98317 2.55268 8.48956C2.26696 8.34062 1.98125 8.01296 1.78125 7.71509C1.8384 8.69807 2.83839 8.87679 2.98125 9.11509C2.78125 9.02573 2.38125 8.81721 2.20982 9.02572C2.49554 9.0853 2.72411 9.17467 2.89554 9.29382C3.15268 9.62148 3.6384 9.77041 4.49554 9.80019C4.26697 9.85977 4.15268 10.0385 4.15268 10.2172H5.26696C5.26696 10.0385 5.12411 9.85977 4.89554 9.80019C5.98125 9.77041 6.9241 9.35339 7.09553 9.0853C6.9241 8.99594 6.72411 9.14488 6.58125 9.11509C6.86696 8.87679 7.86696 8.22148 7.69553 7.50658Z" fill="#F6D660"/>
</g>
</svg>
