<svg width="20" height="14" viewBox="0 0 20 14" fill="none" xmlns="http://www.w3.org/2000/svg">
<mask id="mask0" mask-type="alpha" maskUnits="userSpaceOnUse" x="0" y="0" width="20" height="14">
<rect width="20" height="14" rx="2" fill="#C4C4C4"/>
</mask>
<g mask="url(#mask0)">
<path d="M20 9.53174H0V13.9998H20V9.53174Z" fill="#F54747"/>
<path d="M20 0H0V4.76596H20V0Z" fill="#52C162"/>
<path d="M20 4.76611H0V9.53207H20V4.76611Z" fill="#FFCE54"/>
<path d="M10.6673 11.2632C12.9258 10.881 14.4595 8.66243 14.093 6.3078C13.7265 3.95317 11.5984 2.35415 9.3399 2.73629C7.08138 3.11844 5.54763 5.33703 5.91417 7.69166C6.28072 10.0463 8.40875 11.6453 10.6673 11.2632Z" fill="#8CBAE2"/>
<path d="M12.8572 6.43409C13.0857 6.22558 13.0286 6.01707 12.7143 6.01707H11.4857C11.1714 6.01707 10.8 5.74899 10.7143 5.42133L10.2571 4.11068C10.1429 3.78302 9.97144 3.81281 9.88572 4.11068L9.51429 5.45111C9.42858 5.77876 9.08573 6.04685 8.77144 6.04685L7.57144 6.07664C7.25715 6.07664 7.20001 6.28515 7.42858 6.49366L8.28572 7.26813C8.54287 7.47664 8.65715 7.92345 8.60001 8.25111L8.3143 9.47238C8.22858 9.80004 8.4 9.91919 8.65715 9.71068L9.65715 8.966C9.91429 8.75749 10.3714 8.75749 10.6286 8.93621L11.6286 9.56175C11.9143 9.74047 12.0572 9.62132 11.9714 9.29366L11.6857 8.22132C11.6 7.89366 11.7143 7.44685 11.9714 7.23834L12.8572 6.43409Z" fill="#FFCE54"/>
<path d="M11.7712 6.64244C11.9141 6.52329 11.8855 6.40414 11.6855 6.40414H10.9427C10.7427 6.40414 10.5427 6.2552 10.4855 6.04669L10.2284 5.27223C10.1712 5.09351 10.0569 5.09351 9.99981 5.27223L9.77124 6.07648C9.71409 6.28499 9.51409 6.43393 9.31409 6.43393L8.59981 6.46372C8.39981 6.46372 8.37123 6.58286 8.51409 6.70201L9.02838 7.17861C9.17124 7.29776 9.25695 7.56585 9.19981 7.77436L9.02838 8.51904C8.97124 8.72755 9.08552 8.78712 9.22837 8.66797L9.82837 8.22116C9.9998 8.10202 10.2569 8.10201 10.3998 8.19138L10.9998 8.57861C11.1712 8.69775 11.257 8.60839 11.1998 8.42967L11.0284 7.77436C10.9712 7.56585 11.057 7.32755 11.1998 7.17861L11.7712 6.64244Z" fill="#8CBAE2"/>
</g>
</svg>
