<svg width="20" height="14" viewBox="0 0 20 14" fill="none" xmlns="http://www.w3.org/2000/svg">
<mask id="mask0" mask-type="alpha" maskUnits="userSpaceOnUse" x="0" y="0" width="20" height="14">
<rect width="20" height="14" rx="2" fill="#C4C4C4"/>
</mask>
<g mask="url(#mask0)">
<path d="M20 0H0V14H20V0Z" fill="#4758A9"/>
<path d="M9.51424 2.59142L9.99994 2.23397L10.4856 2.59142L10.2857 1.99567L10.7714 1.63823H10.1999L9.99994 1.04248L9.82852 1.63823H9.22853L9.71423 1.99567L9.51424 2.59142Z" fill="#784D5D"/>
<path d="M7.05695 3.30626L7.54268 2.91903L7.99982 3.30626L7.8284 2.71052L8.3141 2.32328H7.7141L7.54268 1.72754L7.34266 2.32328H6.74267L7.2284 2.71052L7.05695 3.30626Z" fill="#784D5D"/>
<path d="M5.7143 3.63379L5.54288 4.22953H4.94289L5.42859 4.58698L5.25716 5.18273L5.7143 4.82528L6.2 5.18273L6.02858 4.58698L6.51431 4.22953H5.91429L5.7143 3.63379Z" fill="#784D5D"/>
<path d="M5.05706 7.41708L5.54279 7.77452L5.37137 7.17878L5.85707 6.82133H5.25708L5.05706 6.22559L4.88564 6.82133H4.28564L4.77134 7.17878L4.59992 7.77452L5.05706 7.41708Z" fill="#784D5D"/>
<path d="M5.91429 9.41264L5.7143 8.81689L5.54288 9.41264H4.94289L5.42859 9.77009L5.25716 10.3658L5.7143 10.0084L6.2 10.3658L6.02858 9.77009L6.51431 9.41264H5.91429Z" fill="#784D5D"/>
<path d="M7.71434 11.3189L7.54292 10.7231L7.3429 11.3189H6.77147L7.22864 11.6763L7.05718 12.2721L7.54292 11.9146L8.02862 12.2721L7.82863 11.6763L8.31433 11.3189H7.71434Z" fill="#784D5D"/>
<path d="M10.1999 12.0039L9.99994 11.4082L9.82852 12.0039H9.22853L9.71423 12.3614L9.51424 12.9571L9.99994 12.5997L10.4856 12.9571L10.2857 12.3614L10.7714 12.0039H10.1999Z" fill="#784D5D"/>
<path d="M12.657 11.3189L12.457 10.7231L12.2855 11.3189H11.6856L12.1713 11.6763L11.9998 12.2721L12.457 11.9146L12.9427 12.2721L12.7712 11.6763L13.257 11.3189H12.657Z" fill="#784D5D"/>
<path d="M14.4573 9.41264L14.2858 8.81689L14.0859 9.41264H13.4858L13.9716 9.77009L13.8001 10.3658L14.2858 10.0084L14.743 10.3658L14.5716 9.77009L15.0573 9.41264H14.4573Z" fill="#784D5D"/>
<path d="M15.714 6.82133H15.114L14.9426 6.22559L14.7426 6.82133H14.1426L14.6283 7.17878L14.4569 7.77452L14.9426 7.41708L15.3997 7.77452L15.2283 7.17878L15.714 6.82133Z" fill="#784D5D"/>
<path d="M13.8001 5.18273L14.2858 4.82528L14.743 5.18273L14.5716 4.58698L15.0573 4.22953H14.4573L14.2858 3.63379L14.0859 4.22953H13.4858L13.9716 4.58698L13.8001 5.18273Z" fill="#784D5D"/>
<path d="M12.4855 1.72754L12.2855 2.32328H11.6856L12.1713 2.71052L11.9998 3.30626L12.4855 2.91903L12.9427 3.30626L12.7712 2.71052L13.257 2.32328H12.657L12.4855 1.72754Z" fill="#784D5D"/>
<path d="M9.51424 2.59142L9.99994 2.23397L10.4856 2.59142L10.2857 1.99567L10.7714 1.63823H10.1999L9.99994 1.04248L9.82852 1.63823H9.22853L9.71423 1.99567L9.51424 2.59142Z" fill="#F6D660"/>
<path d="M7.05695 3.30626L7.54268 2.91903L7.99982 3.30626L7.8284 2.71052L8.3141 2.32328H7.7141L7.54268 1.72754L7.34266 2.32328H6.74267L7.2284 2.71052L7.05695 3.30626Z" fill="#F6D660"/>
<path d="M5.7143 3.63379L5.54288 4.22953H4.94289L5.42859 4.58698L5.25716 5.18273L5.7143 4.82528L6.2 5.18273L6.02858 4.58698L6.51431 4.22953H5.91429L5.7143 3.63379Z" fill="#F6D660"/>
<path d="M5.05706 7.41708L5.54279 7.77452L5.37137 7.17878L5.85707 6.82133H5.25708L5.05706 6.22559L4.88564 6.82133H4.28564L4.77134 7.17878L4.59992 7.77452L5.05706 7.41708Z" fill="#F6D660"/>
<path d="M5.91429 9.41264L5.7143 8.81689L5.54288 9.41264H4.94289L5.42859 9.77009L5.25716 10.3658L5.7143 10.0084L6.2 10.3658L6.02858 9.77009L6.51431 9.41264H5.91429Z" fill="#F6D660"/>
<path d="M7.71434 11.3189L7.54292 10.7231L7.3429 11.3189H6.77147L7.22864 11.6763L7.05718 12.2721L7.54292 11.9146L8.02862 12.2721L7.82863 11.6763L8.31433 11.3189H7.71434Z" fill="#F6D660"/>
<path d="M10.1999 12.0039L9.99994 11.4082L9.82852 12.0039H9.22853L9.71423 12.3614L9.51424 12.9571L9.99994 12.5997L10.4856 12.9571L10.2857 12.3614L10.7714 12.0039H10.1999Z" fill="#F6D660"/>
<path d="M12.657 11.3189L12.457 10.7231L12.2855 11.3189H11.6856L12.1713 11.6763L11.9998 12.2721L12.457 11.9146L12.9427 12.2721L12.7712 11.6763L13.257 11.3189H12.657Z" fill="#F6D660"/>
<path d="M14.4573 9.41264L14.2858 8.81689L14.0859 9.41264H13.4858L13.9716 9.77009L13.8001 10.3658L14.2858 10.0084L14.743 10.3658L14.5716 9.77009L15.0573 9.41264H14.4573Z" fill="#F6D660"/>
<path d="M15.714 6.82133H15.114L14.9426 6.22559L14.7426 6.82133H14.1426L14.6283 7.17878L14.4569 7.77452L14.9426 7.41708L15.3997 7.77452L15.2283 7.17878L15.714 6.82133Z" fill="#F6D660"/>
<path d="M13.8001 5.18273L14.2858 4.82528L14.743 5.18273L14.5716 4.58698L15.0573 4.22953H14.4573L14.2858 3.63379L14.0859 4.22953H13.4858L13.9716 4.58698L13.8001 5.18273Z" fill="#F6D660"/>
<path d="M12.4855 1.72754L12.2855 2.32328H11.6856L12.1713 2.71052L11.9998 3.30626L12.4855 2.91903L12.9427 3.30626L12.7712 2.71052L13.257 2.32328H12.657L12.4855 1.72754Z" fill="#F6D660"/>
</g>
</svg>
