<svg width="20" height="14" viewBox="0 0 20 14" fill="none" xmlns="http://www.w3.org/2000/svg">
<mask id="mask0" mask-type="alpha" maskUnits="userSpaceOnUse" x="0" y="0" width="20" height="14">
<rect width="20" height="14" rx="2" fill="#C4C4C4"/>
</mask>
<g mask="url(#mask0)">
<path d="M20 0H0V14H20V0Z" fill="white"/>
<path d="M11.1426 0H8.85693V14H11.1426V0Z" fill="#F54747"/>
<path d="M20 5.95752H0V8.3405H20V5.95752Z" fill="#F54747"/>
<path d="M4.28585 0.893555H4.00014C3.68585 0.893555 3.42871 1.16164 3.42871 1.4893V4.17015C3.42871 4.49781 3.68585 4.7659 4.00014 4.7659H4.28585C4.60014 4.7659 4.85728 4.49781 4.85728 4.17015V1.4893C4.85728 1.16164 4.60014 0.893555 4.28585 0.893555Z" fill="#F54747"/>
<path d="M5.4285 2.08496H2.85707C2.54279 2.08496 2.28564 2.35305 2.28564 2.68071V2.97858C2.28564 3.30624 2.54279 3.57432 2.85707 3.57432H5.4285C5.74279 3.57432 5.99993 3.30624 5.99993 2.97858V2.68071C5.99993 2.35305 5.74279 2.08496 5.4285 2.08496Z" fill="#F54747"/>
<path d="M4.28585 9.53174H4.00014C3.68585 9.53174 3.42871 9.79982 3.42871 10.1275V12.8083C3.42871 13.136 3.68585 13.4041 4.00014 13.4041H4.28585C4.60014 13.4041 4.85728 13.136 4.85728 12.8083V10.1275C4.85728 9.79982 4.60014 9.53174 4.28585 9.53174Z" fill="#F54747"/>
<path d="M5.4285 10.7231H2.85707C2.54279 10.7231 2.28564 10.9912 2.28564 11.3189V11.6168C2.28564 11.9444 2.54279 12.2125 2.85707 12.2125H5.4285C5.74279 12.2125 5.99993 11.9444 5.99993 11.6168V11.3189C5.99993 10.9912 5.74279 10.7231 5.4285 10.7231Z" fill="#F54747"/>
<path d="M16.0002 9.53174H15.7145C15.4002 9.53174 15.1431 9.79982 15.1431 10.1275V12.8083C15.1431 13.136 15.4002 13.4041 15.7145 13.4041H16.0002C16.3145 13.4041 16.5716 13.136 16.5716 12.8083V10.1275C16.5716 9.79982 16.3145 9.53174 16.0002 9.53174Z" fill="#F54747"/>
<path d="M17.1429 10.7231H14.5714C14.2571 10.7231 14 10.9912 14 11.3189V11.6168C14 11.9444 14.2571 12.2125 14.5714 12.2125H17.1429C17.4571 12.2125 17.7143 11.9444 17.7143 11.6168V11.3189C17.7143 10.9912 17.4571 10.7231 17.1429 10.7231Z" fill="#F54747"/>
<path d="M16.0002 0.595703H15.7145C15.4002 0.595703 15.1431 0.863788 15.1431 1.19145V3.8723C15.1431 4.19996 15.4002 4.46804 15.7145 4.46804H16.0002C16.3145 4.46804 16.5716 4.19996 16.5716 3.8723V1.19145C16.5716 0.863788 16.3145 0.595703 16.0002 0.595703Z" fill="#F54747"/>
<path d="M17.1429 1.78711H14.5714C14.2571 1.78711 14 2.05519 14 2.38285V2.68073C14 3.00839 14.2571 3.27647 14.5714 3.27647H17.1429C17.4571 3.27647 17.7143 3.00839 17.7143 2.68073V2.38285C17.7143 2.05519 17.4571 1.78711 17.1429 1.78711Z" fill="#F54747"/>
</g>
</svg>
