<svg width="20" height="14" viewBox="0 0 20 14" fill="none" xmlns="http://www.w3.org/2000/svg">
<mask id="mask0" mask-type="alpha" maskUnits="userSpaceOnUse" x="0" y="0" width="20" height="14">
<rect width="20" height="14" rx="2" fill="#C4C4C4"/>
</mask>
<g mask="url(#mask0)">
<path d="M20 4.76611H0V9.2342H20V4.76611Z" fill="#F6D660"/>
<path d="M20 0H0V4.76596H20V0Z" fill="#F54747"/>
<path d="M20 9.23389H0V13.9998H20V9.23389Z" fill="#52C162"/>
<path d="M11.343 6.76158C11.4858 6.64243 11.4287 6.55306 11.2573 6.52327H10.5716C10.4001 6.52327 10.2001 6.37434 10.143 6.19561L9.88584 5.48072C9.8287 5.302 9.74298 5.302 9.68584 5.48072L9.48585 6.2254C9.4287 6.40412 9.25727 6.55306 9.08584 6.55306L8.4287 6.58285C8.25727 6.58285 8.2287 6.702 8.34299 6.82115L8.80013 7.23817C8.94298 7.35731 9.00013 7.59562 8.97156 7.77434L8.8287 8.45944C8.80013 8.63817 8.85727 8.69774 9.0287 8.57859L9.57156 8.16157C9.71441 8.04242 9.94298 8.04242 10.1144 8.13178L10.6573 8.48923C10.8001 8.57859 10.8858 8.51902 10.8287 8.3403L10.6573 7.74455C10.6001 7.56583 10.6858 7.32753 10.8001 7.20839L11.343 6.76158Z" fill="#434A54"/>
</g>
</svg>
