<svg width="20" height="14" viewBox="0 0 20 14" fill="none" xmlns="http://www.w3.org/2000/svg">
<mask id="mask0" mask-type="alpha" maskUnits="userSpaceOnUse" x="0" y="0" width="20" height="14">
<rect width="20" height="14" rx="2" fill="#C4C4C4"/>
</mask>
<g mask="url(#mask0)">
<path d="M20 0H0V14H20V0Z" fill="#F54747"/>
<path d="M16.7428 1.48926H3.22847C2.22847 1.48926 1.3999 2.35309 1.3999 3.39564V10.6042C1.3999 11.6467 2.1999 12.5105 3.22847 12.5105H16.7428C17.7428 12.5105 18.5713 11.6467 18.5713 10.6042V3.39564C18.5713 2.35309 17.7713 1.48926 16.7428 1.48926Z" fill="#F6D660"/>
<path d="M0 0.565916V13.3744L10.2857 7.1489L0 0.565916Z" fill="#52C162"/>
<path d="M10 7.1489L20 13.3744V0.565916L10 7.1489Z" fill="#52C162"/>
<path d="M10.1428 8.93631C11.1685 8.93631 11.9999 8.06945 11.9999 7.00014C11.9999 5.93082 11.1685 5.06396 10.1428 5.06396C9.11712 5.06396 8.28564 5.93082 8.28564 7.00014C8.28564 8.06945 9.11712 8.93631 10.1428 8.93631Z" fill="#F54747"/>
<path d="M7.39982 0.685327C7.42839 0.65554 7.42839 0.625758 7.37125 0.625758H7.19982C7.14268 0.625758 7.08553 0.595965 7.08553 0.536391L7.02839 0.327886C6.99982 0.268311 6.99982 0.268311 6.97125 0.327886L6.91411 0.536391C6.91411 0.595965 6.85696 0.625758 6.79982 0.625758H6.6284C6.57125 0.625758 6.57125 0.65554 6.59982 0.685327L6.71411 0.804483C6.74268 0.834271 6.77125 0.893845 6.77125 0.95342L6.74268 1.13214C6.74268 1.19171 6.74268 1.19171 6.79982 1.16192L6.94268 1.04278C6.97125 1.01299 7.05696 1.01299 7.08553 1.04278L7.22839 1.13214C7.25696 1.16192 7.28554 1.13214 7.28554 1.10236L7.22839 0.95342C7.22839 0.893845 7.22839 0.834271 7.25696 0.804483L7.39982 0.685327Z" fill="#F6D660"/>
<path d="M10.5429 0.685327C10.5715 0.65554 10.5715 0.625758 10.5143 0.625758H10.3429C10.2857 0.625758 10.2286 0.595965 10.2286 0.536391L10.1715 0.327886C10.1429 0.268311 10.1429 0.268311 10.1143 0.327886L10.0572 0.536391C10.0572 0.595965 10 0.625758 9.94288 0.625758H9.77146C9.71432 0.625758 9.71432 0.65554 9.74289 0.685327L9.85717 0.804483C9.88575 0.834271 9.91432 0.893845 9.91432 0.95342L9.88575 1.13214C9.88575 1.19171 9.88574 1.19171 9.94288 1.16192L10.0857 1.04278C10.1143 1.01299 10.2 1.01299 10.2286 1.04278L10.3715 1.13214C10.4 1.16192 10.4286 1.13214 10.4286 1.10236L10.3715 0.95342C10.3715 0.893845 10.3715 0.834271 10.4 0.804483L10.5429 0.685327Z" fill="#F6D660"/>
<path d="M13.686 0.685327C13.7145 0.65554 13.7145 0.625758 13.6574 0.625758H13.486C13.4288 0.625758 13.3717 0.595965 13.3717 0.536391L13.3145 0.327886C13.286 0.268311 13.286 0.268311 13.2574 0.327886L13.2002 0.536391C13.2002 0.595965 13.1431 0.625758 13.086 0.625758H12.9145C12.8574 0.625758 12.8574 0.65554 12.886 0.685327L13.0002 0.804483C13.0288 0.834271 13.0574 0.893845 13.0574 0.95342L13.0288 1.13214C13.0288 1.19171 13.0288 1.19171 13.086 1.16192L13.2288 1.04278C13.2574 1.01299 13.3431 1.01299 13.3717 1.04278L13.5145 1.13214C13.5431 1.16192 13.5717 1.13214 13.5717 1.10236L13.5145 0.95342C13.5145 0.893845 13.5145 0.834271 13.5431 0.804483L13.686 0.685327Z" fill="#F6D660"/>
<path d="M7.39982 13.1956C7.42839 13.1658 7.42839 13.136 7.37125 13.136H7.19982C7.14268 13.136 7.08553 13.1062 7.08553 13.0466L7.02839 12.8381C6.99982 12.7786 6.99982 12.7786 6.97125 12.8381L6.91411 13.0466C6.91411 13.1062 6.85696 13.136 6.79982 13.136H6.6284C6.57125 13.136 6.57125 13.1658 6.59982 13.1956L6.71411 13.3147C6.74268 13.3445 6.77125 13.4041 6.77125 13.4637L6.74268 13.6424C6.74268 13.702 6.74268 13.702 6.79982 13.6722L6.94268 13.553C6.97125 13.5232 7.05696 13.5232 7.08553 13.553L7.22839 13.6424C7.25696 13.6722 7.28554 13.6424 7.28554 13.6126L7.22839 13.4637C7.22839 13.4041 7.22839 13.3445 7.25696 13.3147L7.39982 13.1956Z" fill="#F6D660"/>
<path d="M10.5429 13.1956C10.5715 13.1658 10.5715 13.136 10.5143 13.136H10.3429C10.2857 13.136 10.2286 13.1062 10.2286 13.0466L10.1715 12.8381C10.1429 12.7786 10.1429 12.7786 10.1143 12.8381L10.0572 13.0466C10.0572 13.1062 10 13.136 9.94288 13.136H9.77146C9.71432 13.136 9.71432 13.1658 9.74289 13.1956L9.85717 13.3147C9.88575 13.3445 9.91432 13.4041 9.91432 13.4637L9.88575 13.6424C9.88575 13.702 9.88574 13.702 9.94288 13.6722L10.0857 13.553C10.1143 13.5232 10.2 13.5232 10.2286 13.553L10.3715 13.6424C10.4 13.6722 10.4286 13.6424 10.4286 13.6126L10.3715 13.4637C10.3715 13.4041 10.3715 13.3445 10.4 13.3147L10.5429 13.1956Z" fill="#F6D660"/>
<path d="M13.686 13.1956C13.7145 13.1658 13.7145 13.136 13.6574 13.136H13.486C13.4288 13.136 13.3717 13.1062 13.3717 13.0466L13.3145 12.8381C13.286 12.7786 13.286 12.7786 13.2574 12.8381L13.2002 13.0466C13.2002 13.1062 13.1431 13.136 13.086 13.136H12.9145C12.8574 13.136 12.8574 13.1658 12.886 13.1956L13.0002 13.3147C13.0288 13.3445 13.0574 13.4041 13.0574 13.4637L13.0288 13.6424C13.0288 13.702 13.0288 13.702 13.086 13.6722L13.2288 13.553C13.2574 13.5232 13.3431 13.5232 13.3717 13.553L13.5145 13.6424C13.5431 13.6722 13.5717 13.6424 13.5717 13.6126L13.5145 13.4637C13.5145 13.4041 13.5145 13.3445 13.5431 13.3147L13.686 13.1956Z" fill="#F6D660"/>
<path d="M11.0855 6.85114C11.1712 6.76177 11.1426 6.7022 11.0283 6.7022H10.5998C10.4855 6.7022 10.3712 6.61283 10.314 6.49369L10.1426 6.04688C10.114 5.92773 10.0569 5.92773 10.0283 6.04688L9.88547 6.52348C9.8569 6.64262 9.74262 6.73199 9.62833 6.73199H9.19976C9.08547 6.73199 9.0569 6.79156 9.14261 6.88093L9.42833 7.14901C9.51404 7.23837 9.57118 7.38731 9.54261 7.50646L9.4569 7.92348C9.42833 8.04263 9.48547 8.07241 9.57118 8.01284L9.91404 7.74475C9.99976 7.68518 10.1712 7.68518 10.2569 7.74475L10.5998 7.98305C10.6855 8.04262 10.7426 8.01284 10.714 7.89369L10.5998 7.50646C10.5712 7.38731 10.5998 7.23837 10.6855 7.14901L11.0855 6.85114Z" fill="#F6D660"/>
</g>
</svg>
