<svg width="20" height="14" viewBox="0 0 20 14" fill="none" xmlns="http://www.w3.org/2000/svg">
<mask id="mask0" mask-type="alpha" maskUnits="userSpaceOnUse" x="0" y="0" width="20" height="14">
<rect width="20" height="14" rx="2" fill="#C4C4C4"/>
</mask>
<g mask="url(#mask0)">
<path d="M20 4.76611H0V14.0002H20V4.76611Z" fill="#434A54"/>
<path fill-rule="evenodd" clip-rule="evenodd" d="M3.65675 5.74902C4.17104 6.19583 4.71388 6.67243 5.14245 7.17881C4.51388 6.82136 3.94247 6.46391 3.65675 5.74902Z" fill="#57A863"/>
<path fill-rule="evenodd" clip-rule="evenodd" d="M7.82852 7.62559C7.77138 7.62559 7.74281 7.65538 7.68567 7.65538C7.51424 7.62559 7.4285 7.47665 7.19993 7.47665C7.31422 7.56602 7.51422 7.56601 7.6285 7.68516C7.51422 7.71495 7.37139 7.71495 7.22853 7.68516C7.11424 7.62559 6.99996 7.56602 6.94282 7.47665C6.88567 7.47665 6.8571 7.47665 6.79996 7.47665C6.74282 7.44687 6.71424 7.38729 6.6571 7.32772C6.68567 7.32772 6.71422 7.32772 6.74279 7.32772C6.51422 7.08942 6.37139 6.76176 6.22853 6.4341C6.51424 6.73197 6.7428 7.02985 6.99994 7.35751C7.08566 7.35751 7.14279 7.38729 7.19993 7.38729C7.0285 7.17878 6.85708 6.85112 6.74279 6.52346C6.71422 6.4341 6.62852 6.28516 6.71423 6.1958C6.79994 6.25537 6.79995 6.37452 6.82852 6.49367C6.85709 6.58303 6.91424 6.6724 6.94282 6.76176C7.0571 7.00006 7.17139 7.26814 7.37139 7.41708C7.42853 7.44686 7.51424 7.41708 7.54281 7.47665C7.54281 7.50644 7.51424 7.50644 7.51424 7.50644C7.59996 7.53623 7.71424 7.56602 7.82852 7.62559Z" fill="#57A863"/>
<path fill-rule="evenodd" clip-rule="evenodd" d="M6.31394 9.20459C6.37108 9.23438 6.39966 9.26417 6.42823 9.26417C6.28537 9.4131 6.22822 9.6514 6.19965 9.91948C6.19965 9.91948 6.19965 9.91948 6.17108 9.91948C6.14251 9.62161 6.17108 9.35352 6.31394 9.20459Z" fill="#57A863"/>
<path fill-rule="evenodd" clip-rule="evenodd" d="M6.71416 9.3833C6.74273 9.41309 6.79987 9.41309 6.85702 9.41309C6.71416 9.53224 6.65703 9.71096 6.51417 9.83011C6.51417 9.65139 6.62845 9.50245 6.71416 9.3833Z" fill="#57A863"/>
<path fill-rule="evenodd" clip-rule="evenodd" d="M14.0854 10.5746C13.8854 10.5151 13.6853 10.4853 13.4853 10.4257C13.7139 10.3661 13.9425 10.4555 14.0854 10.5746C14.0854 10.5449 14.0854 10.5746 14.0854 10.5746Z" fill="#57A863"/>
<path fill-rule="evenodd" clip-rule="evenodd" d="M13.3428 10.4556C14.5142 10.8428 15.7428 11.1407 17 11.4683C17 11.5279 16.9428 11.5577 16.9428 11.6471C15.6857 11.2896 14.4 10.9322 13.1714 10.5151C13.2285 10.4556 13.2857 10.4556 13.3428 10.4556Z" fill="#57A863"/>
<path fill-rule="evenodd" clip-rule="evenodd" d="M14.0571 10.4556C15.0571 10.7237 16.0857 10.9322 17.1428 11.1705C17.1428 11.23 17.0857 11.2896 17.0857 11.3492C16.1143 11.1109 15.1428 10.8428 14.1714 10.6045C14.1428 10.5449 14.1143 10.4854 14.0571 10.4556Z" fill="#57A863"/>
<path fill-rule="evenodd" clip-rule="evenodd" d="M13.1143 10.5449C14.2857 10.9917 15.5428 11.4088 16.7714 11.7662C16.7714 11.8258 16.7143 11.8556 16.7143 11.9449C15.5143 11.5577 14.3714 11.1109 13.2 10.7236C13.1714 10.7236 13.1429 10.6939 13.1143 10.6939C13.0857 10.6641 13.0286 10.6641 13 10.6045C13.0286 10.5747 13.0571 10.5449 13.1143 10.5449Z" fill="#57A863"/>
<path fill-rule="evenodd" clip-rule="evenodd" d="M12.9712 11.1108C14.0284 11.7066 15.1141 12.213 16.2284 12.7491C16.2284 12.8087 16.1712 12.8385 16.1427 12.9279C15.0284 12.3619 13.9141 11.7662 12.7998 11.1704C12.8284 11.1108 12.9141 11.1108 12.9712 11.1108Z" fill="#57A863"/>
<path fill-rule="evenodd" clip-rule="evenodd" d="M13.771 11.2598C14.6281 11.647 15.5424 12.0342 16.4281 12.3917C16.3996 12.4513 16.371 12.481 16.3424 12.5704C15.4853 12.213 14.6853 11.7959 13.8281 11.4385C13.8281 11.3789 13.7996 11.3193 13.771 11.2598Z" fill="#57A863"/>
<path fill-rule="evenodd" clip-rule="evenodd" d="M7.82829 7.62567C7.82829 7.56609 7.77113 7.56609 7.74256 7.5363C7.42827 7.35758 7.19971 7.02992 7.14256 6.58311C7.31399 6.97035 7.68543 7.20864 8.25686 7.14907C7.99971 6.88098 7.71398 6.58311 7.77112 5.98737C7.88541 6.46396 8.25684 6.70226 8.77112 6.76184C8.57112 6.49375 8.37115 6.01715 8.51401 5.51077C8.57115 6.07673 8.88541 6.34481 9.34255 6.49375C9.28541 6.34481 9.1997 6.16609 9.17113 5.92779C9.14256 5.62992 9.22827 5.39162 9.31399 5.18311C9.25684 5.80864 9.57112 6.10651 9.91398 6.34481C9.77112 5.898 9.94256 5.33205 10.1711 5.09375C10.1711 5.2129 10.114 5.33204 10.114 5.45119C10.0854 5.86821 10.3711 6.16609 10.5711 6.3746C10.5426 5.83843 10.7426 5.51077 10.9997 5.27248C11.0283 5.24269 11.0283 5.2129 11.0854 5.2129C11.0283 5.36184 10.9426 5.48098 10.914 5.62992C10.8854 5.98737 11.0568 6.28524 11.1711 6.49375C11.2568 5.98736 11.514 5.6597 11.8854 5.45119C11.7997 5.60013 11.6283 5.77885 11.5997 6.04694C11.5711 6.31502 11.6854 6.52354 11.7426 6.73205C11.914 6.28524 12.1997 5.98737 12.6569 5.86822C12.4569 6.04695 12.2283 6.28524 12.1997 6.67247C12.1997 6.82141 12.2283 6.94056 12.2283 7.11928C12.4569 6.82141 12.7426 6.49375 13.2854 6.49375C12.8569 6.67247 12.6283 7.02992 12.6283 7.62567C12.8854 7.38737 13.2283 7.11929 13.7997 7.20865C13.5712 7.29801 13.3712 7.35758 13.2283 7.5363C13.0854 7.71502 13.0283 7.92354 12.9426 8.16183C13.2283 7.95332 13.7711 7.83417 14.1711 8.0129C13.5711 7.98311 13.3426 8.37034 13.1426 8.75758C13.2854 8.72779 13.4283 8.66822 13.5711 8.66822C13.8854 8.63843 14.1712 8.78736 14.3712 8.90651C14.2569 8.90651 14.114 8.87672 13.9997 8.87672C13.6283 8.90651 13.3997 9.20439 13.2283 9.44269C13.7712 9.35333 14.1426 9.56183 14.3997 9.82992C14.2569 9.80013 14.114 9.71077 13.9426 9.71077C13.5997 9.71077 13.3426 9.94907 13.1711 10.098C13.5997 10.1278 13.914 10.2767 14.114 10.5448C14.1426 10.5746 14.1712 10.6342 14.2283 10.664L14.2569 10.6937C14.2283 10.6937 14.1711 10.6342 14.1426 10.6342C13.9997 10.5448 13.7711 10.4257 13.5426 10.4852C13.4854 10.4852 13.4283 10.4852 13.3997 10.515C13.3426 10.515 13.2854 10.5448 13.2283 10.5746C13.1997 10.5746 13.1711 10.5746 13.1711 10.6044C13.1426 10.6044 13.0854 10.6342 13.0568 10.664C13.0283 10.664 13.0283 10.6937 12.9997 10.6937C13.0569 10.7235 13.114 10.7235 13.1711 10.7533C13.1997 10.7533 13.2283 10.7831 13.2569 10.7831C13.3426 10.8427 13.4569 10.9023 13.5426 10.9618C13.5997 11.0214 13.6854 11.1108 13.7426 11.1703C13.7711 11.2299 13.7997 11.2895 13.8283 11.3491C13.8569 11.4086 13.8854 11.4384 13.8854 11.498C13.8854 11.498 13.8854 11.5278 13.914 11.5278C13.8854 11.5576 13.8569 11.4682 13.8283 11.4682C13.6854 11.2895 13.4854 11.1703 13.1711 11.1703C13.114 11.1703 13.0568 11.1703 13.0283 11.2001C12.9426 11.2001 12.8854 11.2299 12.8283 11.2299C12.7711 11.2299 12.7426 11.2597 12.6854 11.2597C13.0569 11.498 13.3426 11.7661 13.4283 12.3023C13.2283 11.915 12.914 11.6767 12.2854 11.7363C12.5426 12.0044 12.8283 12.3023 12.7997 12.898C12.6569 12.4214 12.3426 12.1831 11.7997 12.1235C11.9997 12.3618 12.2283 12.898 12.0568 13.3746C12.0283 12.7789 11.6854 12.5703 11.2569 12.3916C11.314 12.5406 11.3997 12.7491 11.4283 12.9576C11.4569 13.2257 11.3711 13.464 11.2854 13.6725C11.3426 13.0469 11.0283 12.7491 10.6569 12.5108C10.7997 12.9874 10.6569 13.5235 10.4283 13.7618C10.4283 13.6427 10.4854 13.5235 10.4854 13.3746C10.4854 12.9874 10.2283 12.7193 10.0283 12.5108C10.0568 13.0469 9.85684 13.3746 9.62827 13.6129C9.59969 13.6427 9.59971 13.7023 9.54257 13.6725C9.82829 13.315 9.68542 12.6597 9.42828 12.3916C9.34256 12.898 9.08542 13.2257 8.71399 13.4342C8.82828 13.2852 8.99971 13.1065 8.99971 12.8086C9.02828 12.5703 8.91399 12.3618 8.85685 12.1533C8.68542 12.5703 8.39972 12.898 7.94258 13.0172C8.28544 12.8086 8.48544 12.3618 8.37115 11.7959C8.14258 12.1235 7.82828 12.4214 7.28542 12.4512C7.71399 12.3023 7.94258 11.915 7.94258 11.3193C7.68544 11.5576 7.31398 11.8257 6.77112 11.7065C7.28541 11.6172 7.51398 11.2597 7.62826 10.7533C7.37112 10.9618 6.79971 11.081 6.39971 10.9023C6.99971 10.9023 7.25685 10.5448 7.42828 10.1278C7.05685 10.3363 6.45684 10.2172 6.19969 10.0086C6.19969 10.0086 6.19972 10.0086 6.22829 10.0086C6.22829 10.0086 6.22829 10.0086 6.25686 10.0086C6.74257 10.1576 7.08541 9.85971 7.31399 9.59163C7.34256 9.56184 7.37115 9.53205 7.37115 9.50226C7.25686 9.53205 7.08544 9.53205 6.94258 9.50226C6.88544 9.50226 6.85686 9.47247 6.79972 9.47247C6.68544 9.44268 6.59972 9.4129 6.51401 9.35332C6.48544 9.32354 6.45686 9.29375 6.39971 9.29375C6.34257 9.23418 6.28541 9.1746 6.19969 9.11503C6.28541 9.11503 6.39969 9.20439 6.48541 9.20439C6.54255 9.23417 6.62829 9.23418 6.68543 9.23418C6.82829 9.23418 6.94256 9.20439 7.02827 9.14482C7.08541 9.14482 7.11399 9.11503 7.14256 9.08524C7.17114 9.08524 7.19969 9.05545 7.19969 9.05545C7.25684 9.02566 7.31401 8.96609 7.37115 8.9363C7.39972 8.9363 7.39971 8.90651 7.42828 8.90651C7.17114 8.87673 6.97115 8.81715 6.79972 8.72779C6.77115 8.698 6.71401 8.66822 6.65686 8.63843C6.59972 8.57886 6.54255 8.51928 6.48541 8.45971C6.45684 8.40013 6.39972 8.34055 6.37115 8.28098C6.54258 8.40013 6.94257 8.60864 7.25686 8.45971C7.314 8.45971 7.37114 8.42992 7.42828 8.40014C7.45685 8.40014 7.514 8.37035 7.54257 8.34056C7.57114 8.34056 7.62829 8.31077 7.65686 8.28098C7.42829 8.22141 7.22829 8.10226 7.08544 7.98311C6.94258 7.83417 6.82827 7.65545 6.74256 7.44694C6.74256 7.41715 6.74255 7.44694 6.77112 7.44694C6.79969 7.50652 6.85684 7.5363 6.91398 7.59588C7.02826 7.68524 7.14255 7.7746 7.34255 7.80439C7.45684 7.83418 7.5997 7.80439 7.74256 7.80439C7.74256 7.7746 7.79972 7.80439 7.79972 7.7746C7.71401 7.62567 7.77114 7.62567 7.82829 7.62567Z" fill="#FFCE54"/>
<path fill-rule="evenodd" clip-rule="evenodd" d="M6.62836 7.32778C6.71407 7.53629 6.82838 7.71501 6.97124 7.86394C6.9141 7.86394 6.85696 7.89373 6.79982 7.92352C6.99982 8.01288 7.22837 8.10225 7.42837 8.22139C7.3998 8.25118 7.37122 8.25118 7.31408 8.28096C7.14265 8.25118 6.97125 8.13203 6.79982 8.04267C6.77125 8.01288 6.6855 7.95331 6.62836 8.01288C6.79979 8.13203 6.94266 8.25118 7.14266 8.34054C6.82837 8.48948 6.42838 8.31075 6.25695 8.16182C6.28552 8.22139 6.34267 8.25118 6.37125 8.34054C6.1141 8.34054 6.05696 8.51927 5.94267 8.6682C6.14267 8.60863 6.3141 8.57884 6.5141 8.51927C6.57125 8.54905 6.59982 8.57884 6.65696 8.60862C6.39982 8.6682 6.11408 8.69799 5.88551 8.78735C5.88551 8.81714 5.85694 8.84692 5.88551 8.9065C6.11408 8.78735 6.39982 8.78735 6.65696 8.84693C6.7141 8.84693 6.77124 8.9065 6.82838 8.9065C6.97124 8.9065 7.1141 8.78735 7.25695 8.84693C7.19981 8.9065 7.14267 8.93629 7.08553 8.96608C7.05696 8.96608 6.9998 8.96608 7.02837 8.99586C6.9998 9.02565 6.97122 9.05543 6.91407 9.05543C6.79979 9.02565 6.68552 9.11501 6.57123 9.1448C6.48552 9.1448 6.42839 9.1448 6.37125 9.11501C6.45696 9.05544 6.51408 8.99586 6.5998 8.96608C6.3998 8.84693 6.02837 8.87672 5.85695 8.99586C5.85695 9.11501 5.88551 9.23416 5.88551 9.35331C5.85694 9.26394 5.82839 9.17458 5.79982 9.08522C5.7141 9.1448 5.62838 9.23415 5.54267 9.32352C5.59981 9.14479 5.79979 9.02565 5.77122 8.78735C5.42836 8.84692 5.14265 8.99586 5.19979 9.44267C5.14265 9.32352 5.08553 9.17458 5.1141 9.05543C5.17124 8.78735 5.59982 8.75756 5.79982 8.6682C5.85696 8.51927 5.94265 8.40011 6.02837 8.31075C5.97123 8.31075 5.91409 8.28096 5.85695 8.28096C5.62838 8.4299 5.28552 8.45969 4.9998 8.57884C4.91409 8.60862 4.82837 8.69799 4.74265 8.69799C4.77123 8.51927 4.9998 8.45969 5.17123 8.40012C5.34265 8.34055 5.54265 8.25118 5.74265 8.22139C5.45694 8.10225 4.77123 8.04267 4.5998 8.34054C4.57123 8.40012 4.59982 8.48948 4.5141 8.54906C4.48553 8.40012 4.5998 8.31075 4.5998 8.16182C4.51408 8.10224 4.3998 8.16182 4.31408 8.19161C4.17123 8.22139 4.05696 8.28097 3.94268 8.37033C3.99982 8.04267 4.48553 8.04267 4.82838 8.01288C4.9141 8.01288 5.08553 7.98309 5.22839 8.01288C5.17125 7.95331 5.05696 7.92352 4.94267 7.86394C4.85696 7.83416 4.77124 7.7448 4.68553 7.71501C4.48553 7.65543 4.05693 7.65544 3.91408 7.7448C3.82836 7.80437 3.79979 7.92352 3.77122 8.04267C3.65693 7.59586 4.11409 7.62565 4.42838 7.56607C4.28552 7.44692 4.14265 7.29799 3.88551 7.2682C3.91408 7.23841 3.94266 7.23841 3.9998 7.23841C3.9998 7.20862 3.85694 7.11926 3.88551 7.08947C3.94265 7.14905 3.99979 7.17884 4.05693 7.20863C4.17122 7.17884 4.25695 7.11926 4.39981 7.11926C4.3141 7.05969 4.17125 7.05969 4.08553 7.00012C3.99982 7.05969 3.77125 7.02991 3.65696 7.02991C3.39982 7.05969 3.34265 7.29799 3.17123 7.47671C3.17123 7.08948 3.42838 6.88096 3.85695 6.94054C3.54266 6.82139 3.17125 6.76182 2.79982 6.67245C3.28553 6.64267 3.68553 6.8214 4.1141 6.91076C3.79981 6.70225 3.48551 6.52352 3.17123 6.34479C3.34265 6.31501 3.54267 6.46394 3.68553 6.49373C3.59981 6.37458 3.4855 6.25544 3.34265 6.16608C3.22836 6.07672 3.05695 5.98735 2.97124 5.83842C3.48553 6.07671 3.91409 6.40437 4.28552 6.82139C4.34266 6.85118 4.39979 6.88096 4.4855 6.94054C4.54265 6.97033 4.59982 7.02991 4.65696 7.05969C4.74267 7.11927 4.85695 7.08948 4.97124 7.14905C4.99981 7.17884 4.97123 7.11926 4.9998 7.11926C5.25695 7.29799 5.59981 7.29799 5.82838 7.44692C5.94267 7.53629 6.02837 7.62565 6.14266 7.71501C6.25695 7.80437 6.37122 7.86395 6.4855 7.92352C6.51408 7.89373 6.54266 7.89373 6.57123 7.89373C6.34266 7.7448 6.08553 7.62565 5.94267 7.35757C5.37125 7.2682 5.05694 6.85118 4.74265 6.52352C4.3998 6.16607 4.08551 5.77884 3.88551 5.33203C4.05694 5.51075 4.17122 5.74905 4.34265 5.95756C4.4855 6.16607 4.65695 6.37458 4.85695 6.52352C4.71409 6.22565 4.45695 5.95757 4.39981 5.57033C4.85695 6.1065 5.17123 6.7916 5.71409 7.23841C5.48552 6.7916 4.99979 6.46395 4.91408 5.83842C4.94265 5.83842 4.97124 5.8682 4.97124 5.89798C5.02838 5.98735 5.08552 6.1065 5.14266 6.22565C5.3998 6.61288 5.68552 7.02991 5.9998 7.35757C6.02837 7.35757 6.05696 7.32778 6.08553 7.32778C5.94267 7.11927 5.74265 6.91076 5.62836 6.61289C5.71408 6.61289 5.74265 6.70225 5.77122 6.76182C5.8855 6.94055 6.05695 7.11927 6.14266 7.32778C6.22837 7.32778 6.31409 7.29799 6.42837 7.32778C6.11409 7.08948 5.94265 6.70225 5.77122 6.31501C5.8855 6.46395 5.9998 6.61289 6.14266 6.76182C6.28552 6.94055 6.42836 7.08948 6.4855 7.32778C6.54265 7.29799 6.59979 7.29799 6.62836 7.32778ZM4.65696 7.2682C4.68553 7.32777 4.82836 7.32778 4.91408 7.29799C4.82836 7.2682 4.74267 7.17884 4.65696 7.2682ZM4.28552 7.35757C4.34266 7.38735 4.34267 7.41714 4.39981 7.41714C4.45695 7.38735 4.51408 7.35756 4.5998 7.32778C4.54265 7.20863 4.37123 7.32778 4.28552 7.35757ZM5.39981 7.65544C5.28553 7.56608 5.1998 7.47671 5.14266 7.38735C5.05695 7.35756 4.94266 7.38735 4.85695 7.41714C4.9998 7.5065 5.22838 7.59586 5.39981 7.65544ZM4.68553 7.41714C4.59981 7.41714 4.54265 7.44692 4.45694 7.44692C4.54265 7.53629 4.65696 7.59586 4.79982 7.53628C4.77125 7.5065 4.7141 7.47671 4.68553 7.41714ZM6.57123 7.5065C6.51409 7.44693 6.3998 7.41714 6.31408 7.44692C6.3998 7.47671 6.48552 7.53629 6.57123 7.5065ZM5.82838 7.71501C5.74267 7.59586 5.57123 7.53629 5.45694 7.5065C5.5998 7.59586 5.68552 7.7448 5.82838 7.71501ZM6.68552 7.86394C6.74267 7.83416 6.79981 7.80437 6.82838 7.77459C6.59981 7.71501 6.37122 7.59586 6.17123 7.53628C6.31408 7.65543 6.5141 7.7448 6.68552 7.86394ZM5.19979 7.86394C5.19979 7.77458 5.02839 7.71501 4.94267 7.7448C5.02839 7.80437 5.0855 7.86394 5.19979 7.86394ZM5.9998 8.04267C5.85695 7.95331 5.71408 7.83416 5.4855 7.83416C5.65693 7.92352 5.77123 8.07246 5.9998 8.04267ZM6.34265 8.07246C6.34265 8.04267 6.39981 8.04267 6.39981 8.01288C6.3141 7.98309 6.22837 7.95331 6.14266 7.95331C6.1998 8.01289 6.25693 8.04267 6.34265 8.07246ZM6.71409 8.19161C6.65695 8.16182 6.62837 8.13203 6.57123 8.10225C6.54266 8.13203 6.5141 8.13203 6.5141 8.16182C6.57125 8.13203 6.65695 8.19161 6.71409 8.19161Z" fill="#57A863"/>
<path fill-rule="evenodd" clip-rule="evenodd" d="M13.1143 11.0811C13.4286 11.0811 13.6285 11.2002 13.7714 11.3789C13.5428 11.2896 13.3428 11.2002 13.1143 11.0811Z" fill="#57A863"/>
<path fill-rule="evenodd" clip-rule="evenodd" d="M13.4853 10.8726C14.4853 11.3194 15.5425 11.7066 16.5996 12.0938C16.5711 12.1534 16.5425 12.213 16.5139 12.2726C16.4854 12.213 16.3996 12.213 16.3425 12.1832C15.9425 12.0343 15.5139 11.8555 15.0854 11.6768C14.5997 11.4683 14.1139 11.2598 13.6568 11.0811C13.6282 11.0215 13.5425 10.9321 13.4853 10.8726Z" fill="#57A863"/>
<path d="M20 0H0V4.76596H20V0Z" fill="#4758A9"/>
<path fill-rule="evenodd" clip-rule="evenodd" d="M3.17164 3.81253C3.14307 3.81253 3.11452 3.81253 3.08595 3.81253C3.25738 3.69338 3.40021 3.57423 3.48592 3.36572C3.65735 3.36572 3.85736 3.36572 4.02879 3.36572C4.08593 3.57423 4.2288 3.72317 4.40023 3.81253C4.2288 3.84232 4.02879 3.81253 3.88593 3.75296C3.9145 3.96147 3.91449 4.31891 3.77164 4.46785C3.57164 4.37849 3.60021 4.02104 3.62878 3.75296C3.54307 3.78275 3.45735 3.81253 3.34307 3.81253C3.25735 3.81253 3.20022 3.81253 3.17164 3.81253Z" fill="#F6D660"/>
<path fill-rule="evenodd" clip-rule="evenodd" d="M3.60025 3.12749C3.54311 2.82962 3.51455 2.47217 3.42883 2.14451C3.34312 1.84664 3.22884 1.54877 3.25741 1.22111C3.25741 1.0126 3.34313 0.833868 3.40027 0.684932C3.45741 0.565783 3.60026 0.297703 3.71455 0.32749C3.82883 0.32749 3.97169 0.56579 4.00026 0.655152C4.11455 0.863662 4.20025 1.04238 4.17168 1.37004C4.14311 1.66792 4.0574 1.936 4.00026 2.23387C3.94312 2.53174 3.88598 2.82962 3.8574 3.12749C3.77169 3.12749 3.68597 3.12749 3.60025 3.12749Z" fill="#F6D660"/>
<path fill-rule="evenodd" clip-rule="evenodd" d="M3.34291 3.12754C3.31433 2.91903 3.14291 2.41265 2.88577 2.44244C2.71434 2.47223 2.74292 2.82967 2.85721 2.91903C2.54292 2.85945 2.08576 2.47223 2.20005 1.99563C2.22862 1.8467 2.34293 1.69776 2.54293 1.66797C2.5715 1.66797 2.60005 1.66797 2.62862 1.66797C3.25719 1.78712 3.40005 2.44244 3.48576 3.12754C3.45719 3.12754 3.40005 3.12754 3.34291 3.12754Z" fill="#F6D660"/>
<path fill-rule="evenodd" clip-rule="evenodd" d="M3.91454 3.12754C3.94311 2.79988 4.02883 2.44243 4.17169 2.17435C4.28597 1.93605 4.51456 1.66797 4.82884 1.66797C5.08599 1.66797 5.20028 1.87648 5.22885 2.0552C5.28599 2.59137 4.91455 2.79988 4.57169 2.91903C4.68598 2.82967 4.71455 2.47223 4.57169 2.44244C4.45741 2.41265 4.31456 2.59137 4.25742 2.68073C4.1717 2.82967 4.14313 2.97861 4.11456 3.12754C4.02884 3.12754 3.97168 3.12754 3.91454 3.12754Z" fill="#F6D660"/>
<path fill-rule="evenodd" clip-rule="evenodd" d="M3.68567 3.18702C3.79995 3.18702 3.91422 3.18702 4.02851 3.18702C4.05708 3.2168 4.19993 3.15722 4.19993 3.2168V3.24658C3.97136 3.24658 3.68565 3.24658 3.45708 3.24658C3.37137 3.24658 3.2571 3.27637 3.22853 3.2168V3.18702C3.37139 3.18702 3.57138 3.2168 3.68567 3.18702Z" fill="#F6D660"/>
<path fill-rule="evenodd" clip-rule="evenodd" d="M9.45729 3.81253C9.42872 3.81253 9.40017 3.81253 9.3716 3.81253C9.54302 3.69338 9.68585 3.57423 9.77157 3.36572C9.943 3.36572 10.143 3.36572 10.3144 3.36572C10.3716 3.57423 10.5144 3.72317 10.6859 3.81253C10.5144 3.84232 10.3144 3.81253 10.1716 3.75296C10.2001 3.96147 10.2001 4.31891 10.0573 4.46785C9.85728 4.37849 9.88585 4.02104 9.91442 3.75296C9.82871 3.78275 9.743 3.81253 9.62871 3.81253C9.543 3.81253 9.48586 3.81253 9.45729 3.81253Z" fill="#F6D660"/>
<path fill-rule="evenodd" clip-rule="evenodd" d="M9.8859 3.12749C9.82876 2.82962 9.80019 2.47217 9.71448 2.14451C9.62876 1.84664 9.51448 1.54877 9.54306 1.22111C9.54306 1.0126 9.62877 0.833868 9.68591 0.684932C9.74306 0.565783 9.88591 0.297703 10.0002 0.32749C10.1145 0.32749 10.2573 0.56579 10.2859 0.655152C10.4002 0.863662 10.4859 1.04238 10.4573 1.37004C10.4288 1.66792 10.343 1.936 10.2859 2.23387C10.2288 2.53174 10.1716 2.82962 10.143 3.12749C10.0573 3.12749 9.97161 3.12749 9.8859 3.12749Z" fill="#F6D660"/>
<path fill-rule="evenodd" clip-rule="evenodd" d="M9.62855 3.12754C9.59998 2.91903 9.42856 2.41265 9.17142 2.44244C8.99999 2.47223 9.02857 2.82967 9.14285 2.91903C8.82857 2.85945 8.37141 2.47223 8.48569 1.99563C8.51426 1.8467 8.62857 1.69776 8.82857 1.66797C8.85714 1.66797 8.88569 1.66797 8.91427 1.66797C9.54284 1.78712 9.68569 2.44244 9.77141 3.12754C9.74284 3.12754 9.68569 3.12754 9.62855 3.12754Z" fill="#F6D660"/>
<path fill-rule="evenodd" clip-rule="evenodd" d="M10.2002 3.12754C10.2288 2.79988 10.3145 2.44243 10.4573 2.17435C10.5716 1.93605 10.8002 1.66797 11.1145 1.66797C11.3716 1.66797 11.4859 1.87648 11.5145 2.0552C11.5716 2.59137 11.2002 2.79988 10.8573 2.91903C10.9716 2.82967 11.0002 2.47223 10.8573 2.44244C10.7431 2.41265 10.6002 2.59137 10.5431 2.68073C10.4573 2.82967 10.4288 2.97861 10.4002 3.12754C10.3145 3.12754 10.2573 3.12754 10.2002 3.12754Z" fill="#F6D660"/>
<path fill-rule="evenodd" clip-rule="evenodd" d="M9.97131 3.18702C10.0856 3.18702 10.1999 3.18702 10.3142 3.18702C10.3427 3.2168 10.4856 3.15722 10.4856 3.2168V3.24658C10.257 3.24658 9.9713 3.24658 9.74272 3.24658C9.65701 3.24658 9.54275 3.27637 9.51417 3.2168V3.18702C9.65703 3.18702 9.85702 3.2168 9.97131 3.18702Z" fill="#F6D660"/>
<path fill-rule="evenodd" clip-rule="evenodd" d="M15.7429 3.81253C15.7144 3.81253 15.6858 3.81253 15.6572 3.81253C15.8287 3.69338 15.9715 3.57423 16.0572 3.36572C16.2286 3.36572 16.4286 3.36572 16.6001 3.36572C16.6572 3.57423 16.8001 3.72317 16.9715 3.81253C16.8001 3.84232 16.6001 3.81253 16.4572 3.75296C16.4858 3.96147 16.4858 4.31891 16.3429 4.46785C16.1429 4.37849 16.1715 4.02104 16.2001 3.75296C16.1144 3.78275 16.0286 3.81253 15.9144 3.81253C15.8286 3.81253 15.7715 3.81253 15.7429 3.81253Z" fill="#F6D660"/>
<path fill-rule="evenodd" clip-rule="evenodd" d="M16.1715 3.12749C16.1144 2.82962 16.0858 2.47217 16.0001 2.14451C15.9144 1.84664 15.8001 1.54877 15.8287 1.22111C15.8287 1.0126 15.9144 0.833868 15.9716 0.684932C16.0287 0.565783 16.1716 0.297703 16.2858 0.32749C16.4001 0.32749 16.543 0.56579 16.5716 0.655152C16.6858 0.863662 16.7715 1.04238 16.743 1.37004C16.7144 1.66792 16.6287 1.936 16.5716 2.23387C16.5144 2.53174 16.4573 2.82962 16.4287 3.12749C16.343 3.12749 16.2573 3.12749 16.1715 3.12749Z" fill="#F6D660"/>
<path fill-rule="evenodd" clip-rule="evenodd" d="M15.9142 3.12754C15.8856 2.91903 15.7142 2.41265 15.4571 2.44244C15.2856 2.47223 15.3142 2.82967 15.4285 2.91903C15.1142 2.85945 14.6571 2.47223 14.7713 1.99563C14.7999 1.8467 14.9142 1.69776 15.1142 1.66797C15.1428 1.66797 15.1713 1.66797 15.1999 1.66797C15.8285 1.78712 15.9713 2.44244 16.0571 3.12754C16.0285 3.12754 15.9713 3.12754 15.9142 3.12754Z" fill="#F6D660"/>
<path fill-rule="evenodd" clip-rule="evenodd" d="M16.4858 3.12754C16.5144 2.79988 16.6001 2.44243 16.743 2.17435C16.8573 1.93605 17.0858 1.66797 17.4001 1.66797C17.6573 1.66797 17.7716 1.87648 17.8001 2.0552C17.8573 2.59137 17.4858 2.79988 17.143 2.91903C17.2573 2.82967 17.2858 2.47223 17.143 2.44244C17.0287 2.41265 16.8858 2.59137 16.8287 2.68073C16.743 2.82967 16.7144 2.97861 16.6858 3.12754C16.6001 3.12754 16.543 3.12754 16.4858 3.12754Z" fill="#F6D660"/>
<path fill-rule="evenodd" clip-rule="evenodd" d="M16.257 3.18702C16.3712 3.18702 16.4855 3.18702 16.5998 3.18702C16.6284 3.2168 16.7712 3.15722 16.7712 3.2168V3.24658C16.5426 3.24658 16.2569 3.24658 16.0284 3.24658C15.9427 3.24658 15.8284 3.27637 15.7998 3.2168V3.18702C15.9427 3.18702 16.1427 3.2168 16.257 3.18702Z" fill="#F6D660"/>
</g>
</svg>
