<svg width="20" height="14" viewBox="0 0 20 14" fill="none" xmlns="http://www.w3.org/2000/svg">
<mask id="mask0" mask-type="alpha" maskUnits="userSpaceOnUse" x="0" y="0" width="20" height="14">
<rect width="20" height="14" rx="2" fill="#C4C4C4"/>
</mask>
<g mask="url(#mask0)">
<path d="M20 0H0V14H20V0Z" fill="#8CBAE2"/>
<path d="M13.4284 0H6.57129V14H13.4284V0Z" fill="#F5F7FA"/>
<path d="M10.1757 8.47458C10.9588 8.37406 11.5154 7.63077 11.419 6.81439C11.3226 5.998 10.6096 5.41768 9.82655 5.5182C9.04349 5.61871 8.48685 6.362 8.58326 7.17839C8.67968 7.99477 9.39263 8.57509 10.1757 8.47458Z" fill="#52C162"/>
<path d="M9.99979 5.80811C9.37122 5.80811 8.85693 6.34428 8.85693 6.99959C8.85693 7.65491 9.37122 8.19108 9.99979 8.19108C10.6284 8.19108 11.1426 7.65491 11.1426 6.99959C11.1426 6.34428 10.6284 5.80811 9.99979 5.80811Z" fill="#FFCE54"/>
</g>
</svg>
