<svg width="20" height="14" viewBox="0 0 20 14" fill="none" xmlns="http://www.w3.org/2000/svg">
<mask id="mask0" mask-type="alpha" maskUnits="userSpaceOnUse" x="0" y="0" width="20" height="14">
<rect width="20" height="14" rx="2" fill="#C4C4C4"/>
</mask>
<g mask="url(#mask0)">
<path d="M19.9999 0H6.57129V7.14894H19.9999V0Z" fill="#F6D660"/>
<path d="M19.9999 7.14893H6.57129V14H19.9999V7.14893Z" fill="#52C162"/>
<path d="M6.57143 0H0V14H6.57143V0Z" fill="#F54747"/>
<path d="M4.77121 6.76158C4.91407 6.64243 4.85692 6.55307 4.68549 6.52328H3.99978C3.82835 6.52328 3.62835 6.37434 3.57121 6.19561L3.31407 5.48073C3.25692 5.30201 3.17121 5.30201 3.11406 5.48073L2.91407 6.22541C2.85693 6.40413 2.68549 6.55306 2.51406 6.55306L1.85692 6.58284C1.68549 6.58284 1.65693 6.70201 1.77121 6.82115L2.22835 7.23817C2.3712 7.35731 2.42835 7.59561 2.39978 7.77433L2.25692 8.45945C2.22835 8.63818 2.2855 8.69774 2.45692 8.57859L2.99978 8.16158C3.14264 8.04243 3.37121 8.04242 3.54264 8.13178L4.08549 8.48923C4.22835 8.57859 4.31406 8.51902 4.25692 8.3403L4.08549 7.74455C4.02835 7.56583 4.11406 7.32753 4.22835 7.20839L4.77121 6.76158Z" fill="#434A54"/>
</g>
</svg>
