<svg width="20" height="14" viewBox="0 0 20 14" fill="none" xmlns="http://www.w3.org/2000/svg">
<mask id="mask0" mask-type="alpha" maskUnits="userSpaceOnUse" x="0" y="0" width="20" height="14">
<rect width="20" height="14" rx="2" fill="#C4C4C4"/>
</mask>
<g mask="url(#mask0)">
<path d="M20 4.76611H0V9.53207H20V4.76611Z" fill="#F5F7FA"/>
<path d="M20 0H0V4.76596H20V0Z" fill="#3BAFDA"/>
<path d="M20 9.53174H0V13.9998H20V9.53174Z" fill="#3BAFDA"/>
<path d="M10.8285 6.88103C10.8856 6.82145 10.8856 6.79166 10.7999 6.79166H10.4856C10.3999 6.79166 10.3142 6.73209 10.2856 6.64273L10.1713 6.31507C10.1428 6.22571 10.1142 6.22571 10.0856 6.31507L9.99991 6.64273C9.97134 6.73209 9.88562 6.79166 9.79991 6.79166H9.51419C9.42848 6.79166 9.42849 6.85124 9.48563 6.88103L9.68563 7.05975C9.74278 7.11933 9.77134 7.23847 9.77134 7.29805L9.7142 7.59592C9.68563 7.68528 9.74277 7.71507 9.79991 7.6555L10.0571 7.47677C10.1142 7.4172 10.2285 7.4172 10.2856 7.47677L10.5428 7.62571C10.5999 7.6555 10.6571 7.62571 10.6285 7.56613L10.5428 7.29805C10.5142 7.20869 10.5428 7.11933 10.5999 7.05975L10.8285 6.88103Z" fill="#3BAFDA"/>
<path d="M7.68591 5.98747C7.74306 5.9279 7.74304 5.89811 7.65733 5.89811H7.34305C7.25734 5.89811 7.17162 5.83853 7.14305 5.74917L7.02876 5.42151C7.00018 5.33215 6.97162 5.33215 6.94304 5.42151L6.85733 5.74917C6.82876 5.83853 6.74304 5.89811 6.65733 5.89811H6.37162C6.2859 5.89811 6.28591 5.95768 6.34305 5.98747L6.54305 6.16619C6.6002 6.22577 6.62877 6.34492 6.62877 6.40449L6.57162 6.70236C6.54305 6.79173 6.60019 6.82151 6.65733 6.76194L6.91448 6.58322C6.97162 6.52364 7.08591 6.52364 7.14305 6.58322L7.4002 6.73215C7.45734 6.76194 7.51448 6.73215 7.48591 6.67258L7.4002 6.40449C7.37163 6.31513 7.40018 6.22577 7.45733 6.16619L7.68591 5.98747Z" fill="#3BAFDA"/>
<path d="M7.68591 8.07243C7.74306 8.01286 7.74304 7.98307 7.65733 7.98307H7.34305C7.25734 7.98307 7.17162 7.9235 7.14305 7.83413L7.02876 7.50647C7.00018 7.41711 6.97162 7.41711 6.94304 7.50647L6.85733 7.83413C6.82876 7.9235 6.74304 7.98307 6.65733 7.98307H6.37162C6.2859 7.98307 6.28591 8.04264 6.34305 8.07243L6.54305 8.25116C6.6002 8.31073 6.62877 8.42988 6.62877 8.48945L6.57162 8.78732C6.54305 8.87669 6.60019 8.90647 6.65733 8.8469L6.91448 8.66818C6.97162 8.6086 7.08591 8.6086 7.14305 8.66818L7.4002 8.81711C7.45734 8.8469 7.51448 8.81711 7.48591 8.75754L7.4002 8.48945C7.37163 8.40009 7.40018 8.31073 7.45733 8.25116L7.68591 8.07243Z" fill="#3BAFDA"/>
<path d="M13.9716 5.98747C14.0287 5.9279 14.0287 5.89811 13.943 5.89811H13.6287C13.543 5.89811 13.4573 5.83853 13.4287 5.74917L13.3144 5.42151C13.2858 5.33215 13.2573 5.33215 13.2287 5.42151L13.143 5.74917C13.1144 5.83853 13.0287 5.89811 12.943 5.89811H12.6573C12.5715 5.89811 12.5716 5.95768 12.6287 5.98747L12.8287 6.16619C12.8858 6.22577 12.9144 6.34492 12.9144 6.40449L12.8573 6.70236C12.8287 6.79173 12.8858 6.82151 12.943 6.76194L13.2001 6.58322C13.2573 6.52364 13.3715 6.52364 13.4287 6.58322L13.6858 6.73215C13.743 6.76194 13.8001 6.73215 13.7716 6.67258L13.6858 6.40449C13.6573 6.31513 13.6858 6.22577 13.743 6.16619L13.9716 5.98747Z" fill="#3BAFDA"/>
<path d="M13.9716 8.07243C14.0287 8.01286 14.0287 7.98307 13.943 7.98307H13.6287C13.543 7.98307 13.4573 7.9235 13.4287 7.83413L13.3144 7.50647C13.2858 7.41711 13.2573 7.41711 13.2287 7.50647L13.143 7.83413C13.1144 7.9235 13.0287 7.98307 12.943 7.98307H12.6573C12.5715 7.98307 12.5716 8.04264 12.6287 8.07243L12.8287 8.25116C12.8858 8.31073 12.9144 8.42988 12.9144 8.48945L12.8573 8.78732C12.8287 8.87669 12.8858 8.90647 12.943 8.8469L13.2001 8.66818C13.2573 8.6086 13.3715 8.6086 13.4287 8.66818L13.6858 8.81711C13.743 8.8469 13.8001 8.81711 13.7716 8.75754L13.6858 8.48945C13.6573 8.40009 13.6858 8.31073 13.743 8.25116L13.9716 8.07243Z" fill="#3BAFDA"/>
</g>
</svg>
