<svg width="20" height="14" viewBox="0 0 20 14" fill="none" xmlns="http://www.w3.org/2000/svg">
<mask id="mask0" mask-type="alpha" maskUnits="userSpaceOnUse" x="0" y="0" width="20" height="14">
<rect width="20" height="14" rx="2" fill="#C4C4C4"/>
</mask>
<g mask="url(#mask0)">
<path d="M20 0H0V14H20V0Z" fill="#F54747"/>
<path d="M7.48556 7.98263C7.62841 8.01242 7.99985 8.04221 8.31413 7.98263C8.54271 7.98263 8.94271 7.86349 9.28557 7.71455C9.71414 7.53583 9.91413 7.35711 9.88556 7.35711H9.857L9.79987 7.38689C9.71415 7.41668 9.51413 7.47626 9.31413 7.50605C9.17128 7.53583 8.94273 7.47626 8.79987 7.44647C8.54273 7.38689 8.39987 7.29754 8.22844 7.20817C8.05701 7.08902 7.9427 7.02944 7.91413 6.96987C7.91413 6.94008 7.91413 6.94009 7.91413 6.9103H7.94273C7.99987 6.94009 7.99984 6.96987 8.19984 7.08902C8.31413 7.17838 8.51413 7.29754 8.74271 7.35711C8.88556 7.41668 9.11415 7.41668 9.257 7.41668C9.45701 7.41668 9.65698 7.3869 9.77127 7.32732L9.82843 7.29753L9.857 7.26774H9.77127C9.65698 7.29753 9.48556 7.29753 9.31413 7.23795C9.19985 7.20817 9.11413 7.17838 9.02842 7.11881C8.91413 6.99966 8.85701 6.85072 8.82843 6.672C8.79986 6.55285 8.74271 6.4337 8.71414 6.34434C8.57128 5.86774 8.14273 5.59966 7.94273 5.54009L7.79987 5.5103C7.74273 5.48051 7.59986 5.48051 7.42843 5.48051C7.31414 5.5103 7.1713 5.54009 7.08558 5.56988C7.02844 5.59966 6.9713 5.59966 6.94273 5.59966C6.79987 5.62944 6.68556 5.59966 6.59985 5.56988C6.51413 5.54009 6.48556 5.5103 6.45699 5.48051C6.42842 5.45072 6.3713 5.42093 6.3713 5.33157C6.3713 5.272 6.39985 5.15285 6.45699 5.06349C6.51413 5.00391 6.51415 5.00391 6.54272 4.97413C6.57129 4.94434 6.62842 4.88476 6.59985 4.88476C6.54271 4.88476 6.22842 5.0337 6.02842 5.272C5.79985 5.5103 5.65698 5.80817 5.62841 6.16562C5.59984 6.61243 5.88556 7.23795 6.3427 7.53583C6.5427 7.65498 6.74273 7.77412 6.94273 7.8337C7.05701 7.86349 7.28556 7.95285 7.48556 7.98263ZM7.62841 6.64221L7.77127 6.37413L7.79987 6.672L8.08558 6.73158L7.79987 6.85072L7.82843 7.1486L7.62841 6.9103L7.3427 7.02945L7.48556 6.76137L7.28557 6.52306L7.62841 6.64221Z" fill="white"/>
<path d="M10.1996 8.07232C10.171 7.59572 10.0567 7.32764 10.0567 7.35743V7.38721V7.47657C10.0567 7.59572 10.0568 7.77444 9.99961 8.01274C9.97104 8.16168 9.85677 8.37019 9.79962 8.51913C9.68534 8.75743 9.54247 8.87658 9.39962 8.99573C9.22819 9.14466 9.14248 9.23402 9.08534 9.23402C9.05677 9.23402 9.05674 9.23402 9.05674 9.20423V9.17444C9.11388 9.14465 9.14247 9.11487 9.28532 8.96594C9.39961 8.87657 9.57104 8.72764 9.7139 8.48934C9.79961 8.37019 9.88531 8.13189 9.91388 7.98295C9.97102 7.80423 9.99962 7.56593 9.97105 7.44679V7.35743C9.97105 7.35743 9.97105 7.32764 9.94248 7.32764V7.417C9.94248 7.53615 9.88531 7.71487 9.77102 7.86381C9.71388 7.95317 9.65675 8.04253 9.57104 8.10211C9.39961 8.19147 9.25677 8.19146 9.08534 8.16168C8.97105 8.16168 8.85675 8.16168 8.74246 8.16168C8.25675 8.16168 7.88531 8.51913 7.77102 8.69785L7.68533 8.84679C7.65676 8.87658 7.59961 9.02551 7.57104 9.20423C7.54247 9.32338 7.54247 9.47232 7.57104 9.59147C7.57104 9.65104 7.57104 9.71062 7.57104 9.74041C7.57104 9.88934 7.48532 10.0085 7.45675 10.0681C7.3996 10.1574 7.37102 10.1574 7.34245 10.1872C7.31388 10.217 7.25675 10.2468 7.17103 10.217C7.11389 10.217 6.99962 10.1276 6.97104 10.0681C6.94247 10.0085 6.91388 10.0085 6.91388 9.9787C6.88531 9.94891 6.85675 9.85956 6.85675 9.88934C6.82818 9.94892 6.88532 10.3064 7.02817 10.5744C7.17103 10.8723 7.3996 11.1106 7.74246 11.2298C8.14246 11.3787 8.7996 11.2893 9.1996 10.9319C9.37102 10.7532 9.54248 10.6042 9.65677 10.4255C9.74248 10.3064 9.85676 10.0978 9.97105 9.91912C10.0568 9.77019 10.1711 9.44253 10.2282 9.11487C10.1996 8.90636 10.1996 8.45955 10.1996 8.07232ZM8.99961 9.47231L9.02817 9.77019L8.82819 9.53189L8.54247 9.65104L8.68533 9.38296L8.48531 9.14466L8.77102 9.20423L8.91388 8.93615L8.94248 9.23402L9.22819 9.2936L8.99961 9.47231Z" fill="white"/>
<path d="M8.85698 5.77855C8.94269 6.01685 9.17128 6.3743 9.37128 6.67217C9.65699 7.0594 9.85697 7.20834 9.88554 7.17855C9.88554 7.17855 9.88555 7.17855 9.85698 7.14877L9.82841 7.08919C9.77127 6.99983 9.68554 6.82111 9.59983 6.6126C9.54268 6.46366 9.51413 6.22536 9.51413 6.07642C9.48556 5.80834 9.54269 5.62961 9.57126 5.45089C9.6284 5.24238 9.65698 5.12323 9.71412 5.06366C9.71412 5.06366 9.74268 5.06366 9.77125 5.06366V5.09345C9.74268 5.15302 9.7427 5.18281 9.68555 5.39132C9.65698 5.54026 9.59983 5.74877 9.57126 6.01685C9.57126 6.16579 9.59985 6.40408 9.65699 6.55302C9.71413 6.73174 9.79983 6.94026 9.88554 7.02962L9.9427 7.08919C9.9427 7.08919 9.97126 7.11898 9.99983 7.11898L9.97127 7.05941C9.91413 6.97005 9.88555 6.76153 9.85698 6.58281C9.85698 6.46366 9.85697 6.3743 9.88554 6.28494C9.97125 6.136 10.0856 6.04664 10.257 5.95728C10.3713 5.8977 10.457 5.80834 10.5427 5.77855C10.9427 5.51047 11.0855 5.00408 11.057 4.76579V4.61685C11.057 4.55728 11.0284 4.40834 10.9713 4.22961C10.9141 4.11047 10.857 3.99132 10.7712 3.90196C10.7427 3.84238 10.7141 3.81259 10.7141 3.78281C10.657 3.66366 10.657 3.51472 10.657 3.42536C10.657 3.336 10.657 3.30621 10.6856 3.24664C10.7141 3.21685 10.7427 3.15727 10.7998 3.0977C10.857 3.06791 10.9712 3.06791 11.057 3.12749C11.1141 3.15728 11.1427 3.15727 11.1713 3.18706C11.1998 3.21685 11.2855 3.24664 11.2855 3.21685C11.257 3.15728 11.057 2.88919 10.7998 2.74025C10.5141 2.59132 10.1998 2.50195 9.85698 2.59132C9.4284 2.68068 8.91413 3.15728 8.79985 3.66366C8.7427 3.90196 8.68555 4.14026 8.68555 4.34877C8.68555 4.4977 8.68555 4.736 8.71412 4.94451C8.65698 5.12323 8.74269 5.48068 8.85698 5.77855ZM9.74268 4.67642L9.9141 4.40834L9.9427 4.70621L10.2284 4.79558L9.9427 4.91472V5.24238L9.74268 5.00408L9.45697 5.12323L9.59983 4.85515L9.39984 4.61685L9.74268 4.67642Z" fill="white"/>
<path d="M12.7428 8.81694C12.6571 8.6978 12.5428 8.51907 12.4 8.34035C12.3143 8.2212 12.0285 7.9829 11.7714 7.80418C11.5714 7.65524 11.2 7.47651 10.8571 7.38715C10.4285 7.23822 10.1428 7.23822 10.1714 7.268H10.2L10.2571 7.29779C10.3428 7.32758 10.5143 7.41694 10.7143 7.53609C10.8285 7.62545 11 7.80418 11.0857 7.92333C11.2571 8.13184 11.3143 8.31056 11.3714 8.48928C11.4286 8.69779 11.4857 8.81694 11.4857 8.87651C11.4857 8.9063 11.4571 8.9063 11.4571 8.9063C11.4571 8.9063 11.4571 8.9063 11.4285 8.87651C11.4 8.81694 11.4 8.78715 11.3428 8.57864C11.2857 8.4297 11.2286 8.2212 11.0857 8.01269C11 7.89354 10.8285 7.71482 10.7143 7.62546C10.5714 7.50631 10.3714 7.38716 10.2571 7.35737L10.1714 7.32758C10.1428 7.32758 10.1428 7.32758 10.1143 7.32758L10.1714 7.35737C10.2571 7.41695 10.4 7.53609 10.5143 7.68502C10.5714 7.77439 10.6286 7.86375 10.6571 7.95312C10.6857 8.13184 10.6286 8.28077 10.5428 8.42971C10.4857 8.54885 10.4571 8.668 10.4285 8.75737C10.2571 9.20417 10.4286 9.71056 10.5428 9.88929L10.6285 10.0084C10.6571 10.068 10.7714 10.1872 10.9142 10.2765C11.0285 10.3361 11.1428 10.3957 11.2571 10.4255C11.3143 10.4552 11.3428 10.485 11.3714 10.485C11.4857 10.5446 11.5714 10.6638 11.6285 10.7233C11.6857 10.8127 11.6857 10.8127 11.6857 10.8723C11.6857 10.9318 11.6857 10.9914 11.6571 11.051C11.6286 11.1106 11.5143 11.1701 11.4285 11.1999C11.3714 11.1999 11.3428 11.2297 11.3143 11.2297C11.2857 11.2297 11.2 11.2595 11.2 11.2595C11.2571 11.2893 11.5714 11.3786 11.8571 11.3489C12.1714 11.2893 12.4857 11.1701 12.7143 10.9021C13 10.5744 13.1714 9.88928 13 9.3829C12.9143 9.20418 12.8571 8.99567 12.7428 8.81694ZM11.6571 9.23396V9.56163L11.4571 9.32332L11.1714 9.44248L11.3428 9.17439L11.1714 8.93609L11.4571 9.02545L11.6285 8.75737L11.6571 9.05524L11.9428 9.14461L11.6571 9.23396Z" fill="white"/>
<path d="M14.1713 5.57006C13.9427 5.18283 13.3713 4.82537 12.8284 4.88495C12.5713 4.91473 12.3713 4.91474 12.1713 5.0041C12.057 5.06367 11.8284 5.12325 11.6284 5.21261C11.4856 5.27218 11.1999 5.4807 10.9427 5.68921C10.7427 5.83814 10.4856 6.1658 10.2856 6.49346C10.0284 6.88069 9.97128 7.14878 9.99985 7.14878C9.99985 7.14878 9.99984 7.11899 10.0284 7.11899L10.0856 7.05942C10.1427 6.97006 10.2856 6.82112 10.4284 6.67218C10.5427 6.58282 10.7427 6.46367 10.8856 6.4041C11.1141 6.28495 11.3141 6.28495 11.4856 6.25516C11.6856 6.25516 11.8284 6.22537 11.8856 6.25516C11.9141 6.25516 11.9141 6.28495 11.9141 6.31474C11.9141 6.31474 11.9141 6.31474 11.8856 6.31474C11.8284 6.31474 11.7999 6.31474 11.5713 6.31474C11.4284 6.31474 11.1999 6.34453 10.9713 6.43389C10.8284 6.49346 10.6284 6.61261 10.5142 6.70197C10.3713 6.82112 10.1999 6.97005 10.1427 7.0892L10.1141 7.14878C10.1141 7.14878 10.1141 7.17857 10.1141 7.20836L10.1713 7.14878C10.257 7.05942 10.3999 6.97006 10.5713 6.8807C10.657 6.85091 10.7713 6.79133 10.857 6.82112C11.0284 6.8509 11.1427 6.94027 11.2856 7.05942C11.3713 7.14878 11.4856 7.20835 11.5427 7.26793C11.9141 7.5658 12.4284 7.53601 12.6284 7.44665L12.7713 7.38707C12.8284 7.38707 12.9713 7.29772 13.0856 7.17857C13.1713 7.08921 13.257 6.97006 13.3141 6.8807C13.3427 6.82112 13.3999 6.79134 13.3999 6.76155C13.4856 6.6424 13.6284 6.61261 13.6856 6.58282C13.7713 6.55304 13.7999 6.55304 13.857 6.58282C13.9141 6.58282 13.9427 6.61261 14.0284 6.67218C14.0856 6.73176 14.1142 6.8509 14.0856 6.94026C14.0856 6.99984 14.0856 7.02963 14.0856 7.05942C14.0856 7.08921 14.057 7.17857 14.0856 7.17857C14.1427 7.14878 14.2856 6.82112 14.3427 6.52324C14.3998 6.22537 14.3713 5.89772 14.1713 5.57006ZM12.3141 6.70197L12.1141 6.46368L11.8284 6.58282L11.9713 6.31474L11.7713 6.07644L12.057 6.13601L12.2284 5.86793L12.257 6.1658L12.5427 6.25516L12.257 6.37431L12.3141 6.70197Z" fill="white"/>
</g>
</svg>
