<svg width="20" height="14" viewBox="0 0 20 14" fill="none" xmlns="http://www.w3.org/2000/svg">
<mask id="mask0" mask-type="alpha" maskUnits="userSpaceOnUse" x="0" y="0" width="20" height="14">
<rect width="20" height="14" rx="2" fill="#C4C4C4"/>
</mask>
<g mask="url(#mask0)">
<path d="M20 4.7959H0V9.53207H20V4.7959Z" fill="#F5F7FA"/>
<path d="M20 0H0V4.76596H20V0Z" fill="#FC6E51"/>
<path d="M20 9.53174H0V13.9998H20V9.53174Z" fill="#57A863"/>
<path d="M11.6859 7.05957L11.5716 6.85106C11.543 6.79148 11.5144 6.67233 11.5144 6.61276V6.37446C11.5144 6.31489 11.4573 6.22552 11.4001 6.16595L11.2001 6.0468C11.143 6.01702 11.0573 5.92765 11.0287 5.86808L10.9144 5.65957C10.8859 5.59999 10.8001 5.54042 10.7144 5.54042H10.4859C10.4287 5.54042 10.3144 5.51063 10.2573 5.48084L10.0573 5.3617C10.0001 5.33191 9.88586 5.33191 9.82872 5.3617L9.62872 5.48084C9.57157 5.51063 9.45729 5.54042 9.40015 5.54042H9.17156C9.11442 5.54042 9.02872 5.59999 8.97158 5.65957L8.85728 5.86808C8.82871 5.92765 8.743 6.01702 8.68586 6.0468L8.48586 6.16595C8.42871 6.19574 8.37156 6.2851 8.37156 6.37446V6.61276C8.37156 6.67233 8.34299 6.79148 8.31442 6.85106L8.20014 7.05957C8.17157 7.11914 8.17157 7.23829 8.20014 7.29787L8.31442 7.50637C8.34299 7.56595 8.37156 7.6851 8.37156 7.74467V7.98297C8.37156 8.04255 8.42871 8.13191 8.48586 8.19148L8.68586 8.31063C8.743 8.34042 8.82871 8.42978 8.85728 8.48935L8.97158 8.69786C9.00015 8.75744 9.08585 8.81701 9.17156 8.81701H9.40015C9.45729 8.81701 9.57157 8.8468 9.62872 8.87659L9.82872 8.99574C9.88586 9.02552 10.0001 9.02552 10.0573 8.99574L10.2573 8.87659C10.3144 8.8468 10.4287 8.81701 10.4859 8.81701H10.7144C10.7716 8.81701 10.8573 8.75744 10.9144 8.69786L11.0287 8.48935C11.0573 8.42978 11.143 8.34042 11.2001 8.31063L11.4001 8.19148C11.4573 8.16169 11.5144 8.07233 11.5144 7.98297V7.74467C11.5144 7.6851 11.543 7.56595 11.5716 7.50637L11.6859 7.29787C11.7144 7.2085 11.7144 7.11914 11.6859 7.05957ZM11.0287 7.23829L10.9716 7.35744C10.943 7.38723 10.943 7.4468 10.943 7.50637V7.65531C10.943 7.6851 10.9144 7.74468 10.8858 7.77446L10.7716 7.83404C10.743 7.86382 10.6859 7.89361 10.6573 7.95318L10.5716 8.04255C10.543 8.07233 10.4858 8.10212 10.4573 8.10212H10.3144C10.2858 8.10212 10.2001 8.13191 10.1716 8.13191L10.0573 8.19148C10.0287 8.22127 9.97157 8.22127 9.91443 8.19148L9.80014 8.13191C9.77157 8.10212 9.71442 8.10212 9.65728 8.10212H9.51442C9.48585 8.10212 9.42872 8.07233 9.40015 8.04255L9.343 7.9234C9.31443 7.89361 9.28585 7.83403 9.22871 7.80425L9.11443 7.74467C9.08586 7.71489 9.05729 7.65531 9.05729 7.62553V7.47659C9.05729 7.4468 9.0287 7.35744 9.0287 7.32765L8.97158 7.2085C8.943 7.17872 8.943 7.11914 8.97158 7.05957L9.0287 6.94042C9.05728 6.91063 9.05729 6.85106 9.05729 6.79148V6.64255C9.05729 6.61276 9.08586 6.55318 9.11443 6.5234L9.22871 6.46382C9.25728 6.43403 9.31443 6.40425 9.343 6.34468L9.40015 6.22552C9.42872 6.19574 9.48585 6.16595 9.51442 6.16595H9.65728C9.68585 6.16595 9.77157 6.13617 9.80014 6.13617L9.91443 6.07659C9.943 6.0468 10.0001 6.0468 10.0573 6.07659L10.1716 6.13617C10.2001 6.16595 10.2573 6.16595 10.3144 6.16595H10.4573C10.4858 6.16595 10.543 6.19574 10.5716 6.22552L10.6287 6.34468C10.6573 6.37446 10.6858 6.43403 10.743 6.46382L10.8573 6.5234C10.8859 6.55318 10.9144 6.61276 10.9144 6.64255V6.79148C10.9144 6.82127 10.943 6.91063 10.943 6.94042L11.0001 7.05957C11.0287 7.14893 11.0287 7.2085 11.0287 7.23829Z" fill="#4758A9"/>
</g>
</svg>
