<svg width="20" height="14" viewBox="0 0 20 14" fill="none" xmlns="http://www.w3.org/2000/svg">
<mask id="mask0" mask-type="alpha" maskUnits="userSpaceOnUse" x="0" y="0" width="20" height="14">
<rect width="20" height="14" rx="2" fill="#C4C4C4"/>
</mask>
<g mask="url(#mask0)">
<path d="M20 4.76611H0V9.53207H20V4.76611Z" fill="#F5F7FA"/>
<path d="M20 0H0V4.76596H20V0Z" fill="#57A863"/>
<path d="M20 9.53174H0V13.9998H20V9.53174Z" fill="#F54747"/>
<path d="M11.4002 7.02978L11.2859 6.82127C11.2574 6.7617 11.2288 6.64255 11.2288 6.58298V6.34467C11.2288 6.2851 11.1716 6.19574 11.1145 6.13617L10.9145 6.01702C10.8574 5.98723 10.7716 5.89787 10.7431 5.8383L10.6288 5.62978C10.6002 5.57021 10.5145 5.51063 10.4288 5.51063H10.2002C10.1431 5.51063 10.0288 5.48084 9.97164 5.45106L9.77164 5.33191C9.7145 5.30212 9.60022 5.30212 9.54307 5.33191L9.34307 5.45106C9.28593 5.48084 9.17164 5.51063 9.1145 5.51063H8.88592C8.82877 5.51063 8.74307 5.57021 8.68593 5.62978L8.57164 5.8383C8.54307 5.89787 8.45736 5.98723 8.40022 6.01702L8.20021 6.13617C8.14307 6.16595 8.08592 6.25531 8.08592 6.34467V6.58298C8.08592 6.64255 8.05735 6.7617 8.02877 6.82127L7.9145 7.02978C7.88593 7.08936 7.88593 7.2085 7.9145 7.26808L8.02877 7.47659C8.05735 7.53617 8.08592 7.65531 8.08592 7.71489V7.95319C8.08592 8.01276 8.14307 8.10212 8.20021 8.1617L8.40022 8.28084C8.45736 8.31063 8.54307 8.39999 8.57164 8.45957L8.68593 8.66808C8.7145 8.72766 8.8002 8.78723 8.88592 8.78723H9.1145C9.17164 8.78723 9.28593 8.81702 9.34307 8.84681L9.54307 8.96595C9.60022 8.99574 9.7145 8.99574 9.77164 8.96595L9.97164 8.84681C10.0288 8.81702 10.1431 8.78723 10.2002 8.78723H10.4288C10.4859 8.78723 10.5716 8.72766 10.6288 8.66808L10.7431 8.45957C10.7716 8.39999 10.8574 8.31063 10.9145 8.28084L11.1145 8.1617C11.1716 8.13191 11.2288 8.04255 11.2288 7.95319V7.71489C11.2288 7.65531 11.2574 7.53617 11.2859 7.47659L11.4002 7.26808C11.4288 7.2085 11.4288 7.08936 11.4002 7.02978ZM10.7431 7.20851L10.6859 7.32766C10.6574 7.35744 10.6573 7.41702 10.6573 7.47659V7.62553C10.6573 7.65532 10.6288 7.71489 10.6002 7.74468L10.4859 7.80425C10.4574 7.83404 10.4002 7.86383 10.3716 7.9234L10.2859 8.04255C10.2574 8.07234 10.2002 8.10213 10.1716 8.10213H10.0288C10.0002 8.10213 9.91449 8.13191 9.88592 8.13191L9.77164 8.19148C9.74307 8.22127 9.68593 8.22127 9.62878 8.19148L9.51449 8.13191C9.48592 8.10212 9.42878 8.10213 9.37163 8.10213H9.22878C9.20021 8.10213 9.14307 8.07234 9.1145 8.04255L9.05736 7.9234C9.02878 7.89361 9.00021 7.83404 8.94306 7.80425L8.85735 7.74468C8.82878 7.71489 8.80021 7.65532 8.80021 7.62553V7.47659C8.80021 7.44681 8.77164 7.35744 8.77164 7.32766L8.71449 7.20851C8.68592 7.17872 8.68592 7.11915 8.71449 7.05957L8.77164 6.94042C8.80021 6.91063 8.80021 6.85106 8.80021 6.79148V6.64255C8.80021 6.61276 8.82878 6.55319 8.85735 6.5234L8.97164 6.46383C9.00022 6.43404 9.05735 6.40425 9.08592 6.34467L9.14307 6.22553C9.17164 6.19574 9.22879 6.16596 9.25736 6.16596H9.40022C9.42879 6.16596 9.5145 6.13617 9.54307 6.13617L9.65735 6.07659C9.68592 6.0468 9.74306 6.0468 9.8002 6.07659L9.9145 6.13617C9.94307 6.16595 10.0002 6.16596 10.0574 6.16596H10.2002C10.2288 6.16596 10.2859 6.19574 10.3145 6.22553L10.3716 6.34467C10.4002 6.37446 10.4288 6.43404 10.4859 6.46383L10.6002 6.5234C10.6288 6.55319 10.6573 6.61276 10.6573 6.64255V6.79148C10.6573 6.82127 10.6859 6.91063 10.6859 6.94042L10.7431 7.05957C10.7431 7.11915 10.7431 7.17872 10.7431 7.20851Z" fill="#F54747"/>
<path d="M1.14272 3.57471H0.571289V4.17045H1.14272V3.57471Z" fill="#F5F7FA"/>
<path d="M2.28578 3.57471H1.71436V4.17045H2.28578V3.57471Z" fill="#F5F7FA"/>
<path d="M3.42836 3.57471H2.85693V4.17045H3.42836V3.57471Z" fill="#F5F7FA"/>
<path d="M4.57143 3.57471H4V4.17045H4.57143V3.57471Z" fill="#F5F7FA"/>
<path d="M5.7145 3.57471H5.14307V4.17045H5.7145V3.57471Z" fill="#F5F7FA"/>
<path d="M6.85707 3.57471H6.28564V4.17045H6.85707V3.57471Z" fill="#F5F7FA"/>
<path d="M8.00014 3.57471H7.42871V4.17045H8.00014V3.57471Z" fill="#F5F7FA"/>
<path d="M9.14272 3.57471H8.57129V4.17045H9.14272V3.57471Z" fill="#F5F7FA"/>
<path d="M10.2858 3.57471H9.71436V4.17045H10.2858V3.57471Z" fill="#F5F7FA"/>
<path d="M11.4284 3.57471H10.8569V4.17045H11.4284V3.57471Z" fill="#F5F7FA"/>
<path d="M12.5714 3.57471H12V4.17045H12.5714V3.57471Z" fill="#F5F7FA"/>
<path d="M13.7145 3.57471H13.1431V4.17045H13.7145V3.57471Z" fill="#F5F7FA"/>
<path d="M14.8571 3.57471H14.2856V4.17045H14.8571V3.57471Z" fill="#F5F7FA"/>
<path d="M16.0001 3.57471H15.4287V4.17045H16.0001V3.57471Z" fill="#F5F7FA"/>
<path d="M17.1427 3.57471H16.5713V4.17045H17.1427V3.57471Z" fill="#F5F7FA"/>
<path d="M18.2858 3.57471H17.7144V4.17045H18.2858V3.57471Z" fill="#F5F7FA"/>
<path d="M19.4284 3.57471H18.8569V4.17045H19.4284V3.57471Z" fill="#F5F7FA"/>
<path d="M1.14272 10.1274H0.571289V10.7232H1.14272V10.1274Z" fill="#F5F7FA"/>
<path d="M2.28578 10.1274H1.71436V10.7232H2.28578V10.1274Z" fill="#F5F7FA"/>
<path d="M3.42836 10.1274H2.85693V10.7232H3.42836V10.1274Z" fill="#F5F7FA"/>
<path d="M4.57143 10.1274H4V10.7232H4.57143V10.1274Z" fill="#F5F7FA"/>
<path d="M5.7145 10.1274H5.14307V10.7232H5.7145V10.1274Z" fill="#F5F7FA"/>
<path d="M6.85707 10.1274H6.28564V10.7232H6.85707V10.1274Z" fill="#F5F7FA"/>
<path d="M8.00014 10.1274H7.42871V10.7232H8.00014V10.1274Z" fill="#F5F7FA"/>
<path d="M9.14272 10.1274H8.57129V10.7232H9.14272V10.1274Z" fill="#F5F7FA"/>
<path d="M10.2858 10.1274H9.71436V10.7232H10.2858V10.1274Z" fill="#F5F7FA"/>
<path d="M11.4284 10.1274H10.8569V10.7232H11.4284V10.1274Z" fill="#F5F7FA"/>
<path d="M12.5714 10.1274H12V10.7232H12.5714V10.1274Z" fill="#F5F7FA"/>
<path d="M13.7145 10.1274H13.1431V10.7232H13.7145V10.1274Z" fill="#F5F7FA"/>
<path d="M14.8571 10.1274H14.2856V10.7232H14.8571V10.1274Z" fill="#F5F7FA"/>
<path d="M16.0001 10.1274H15.4287V10.7232H16.0001V10.1274Z" fill="#F5F7FA"/>
<path d="M17.1427 10.1274H16.5713V10.7232H17.1427V10.1274Z" fill="#F5F7FA"/>
<path d="M18.2858 10.1274H17.7144V10.7232H18.2858V10.1274Z" fill="#F5F7FA"/>
<path d="M19.4284 10.1274H18.8569V10.7232H19.4284V10.1274Z" fill="#F5F7FA"/>
</g>
</svg>
