<svg width="20" height="14" viewBox="0 0 20 14" fill="none" xmlns="http://www.w3.org/2000/svg">
<mask id="mask0" mask-type="alpha" maskUnits="userSpaceOnUse" x="0" y="0" width="20" height="14">
<rect width="20" height="14" rx="2" fill="#C4C4C4"/>
</mask>
<g mask="url(#mask0)">
<path d="M20 1.78711H0V12.2126H20V1.78711Z" fill="#F5F7FA"/>
<path d="M11.9999 7.20873C11.9428 7.08958 11.9428 6.88107 11.9999 6.76192L12.6856 5.57043C12.7428 5.45129 12.6856 5.36192 12.5713 5.36192H11.1999C11.0571 5.36192 10.8856 5.27255 10.8285 5.15341L10.1428 3.96192C10.0856 3.84277 9.94276 3.84277 9.88562 3.96192L9.19992 5.12363C9.14277 5.24277 8.97135 5.33213 8.82849 5.33213H7.42848C7.28563 5.33213 7.22848 5.4215 7.31419 5.54065L7.99991 6.73213C8.05706 6.85128 8.05706 7.05979 7.99991 7.17894L7.31419 8.37043C7.25705 8.48958 7.3142 8.57894 7.42848 8.57894H8.79991C8.94277 8.57894 9.11419 8.6683 9.17133 8.78745L9.85705 9.94915C9.9142 10.0683 10.0285 10.0683 10.1142 9.94915L10.7999 8.78745C10.8571 8.6683 11.0285 8.57894 11.1713 8.57894H12.5713C12.7142 8.57894 12.7713 8.48958 12.6856 8.37043L11.9999 7.20873ZM8.54278 7.92362C8.48563 7.92362 8.45706 7.89383 8.48563 7.83426C8.5142 7.77468 8.57133 7.77468 8.59991 7.83426C8.62848 7.86404 8.59992 7.92362 8.54278 7.92362ZM8.59991 6.16618C8.57133 6.22575 8.5142 6.22575 8.48563 6.16618C8.45706 6.1066 8.48563 6.07681 8.54278 6.07681C8.59992 6.07681 8.62848 6.13639 8.59991 6.16618ZM9.94277 5.27256C9.97134 5.21299 10.0285 5.21299 10.0571 5.27256C10.0856 5.33214 10.0571 5.36192 9.99991 5.36192C9.94277 5.36192 9.91419 5.30235 9.94277 5.27256ZM10.0571 8.72787C10.0285 8.78745 9.97134 8.78745 9.94277 8.72787C9.91419 8.6683 9.94277 8.63852 9.99991 8.63852C10.0571 8.63852 10.0856 8.69809 10.0571 8.72787ZM10.9142 7.20873L10.6571 7.68532C10.5999 7.80447 10.4285 7.89384 10.2856 7.89384H9.77134C9.62849 7.89384 9.45706 7.80447 9.39992 7.68532L9.1142 7.20873C9.02849 7.08958 9.02849 6.88107 9.1142 6.76192L9.37134 6.28533C9.42848 6.16618 9.59991 6.07681 9.74276 6.07681H10.2856C10.4285 6.07681 10.5999 6.16618 10.6571 6.28533L10.9142 6.76192C10.9713 6.91086 10.9713 7.08958 10.9142 7.20873ZM11.457 7.92362C11.3999 7.92362 11.3713 7.89383 11.3999 7.83426C11.4285 7.77468 11.4856 7.77468 11.5142 7.83426C11.5428 7.86404 11.5142 7.92362 11.457 7.92362ZM11.5142 6.16618C11.4856 6.22575 11.4285 6.22575 11.3999 6.16618C11.3713 6.1066 11.3999 6.07681 11.457 6.07681C11.5142 6.07681 11.5428 6.13639 11.5142 6.16618Z" fill="#4758A9"/>
<path d="M20 0H0V1.78723H20V0Z" fill="#4758A9"/>
<path d="M20 12.2129H0V14.0001H20V12.2129Z" fill="#4758A9"/>
</g>
</svg>
