<svg width="20" height="14" viewBox="0 0 20 14" fill="none" xmlns="http://www.w3.org/2000/svg">
<mask id="mask0" mask-type="alpha" maskUnits="userSpaceOnUse" x="0" y="0" width="20" height="14">
<rect width="20" height="14" rx="2" fill="#C4C4C4"/>
</mask>
<g mask="url(#mask0)">
<path d="M20 4.46826H0V9.53209H20V4.46826Z" fill="#F5F7FA"/>
<path d="M20 0H0V4.46808H20V0Z" fill="#434A54"/>
<path d="M20 9.53174H0V13.9998H20V9.53174Z" fill="#57A863"/>
<path d="M0 0V14L8.28571 7.14894L0 0Z" fill="#F54747"/>
<path d="M2.57157 5.95752C1.943 5.95752 1.42871 6.49369 1.42871 7.14901C1.42871 7.80433 1.943 8.3405 2.57157 8.3405C3.20014 8.3405 3.71443 7.80433 3.71443 7.14901C3.71443 6.49369 3.20014 5.95752 2.57157 5.95752Z" fill="#F5F7FA"/>
</g>
</svg>
