<svg width="20" height="14" viewBox="0 0 20 14" fill="none" xmlns="http://www.w3.org/2000/svg">
<mask id="mask0" mask-type="alpha" maskUnits="userSpaceOnUse" x="0" y="0" width="20" height="14">
<rect width="20" height="14" rx="2" fill="#C4C4C4"/>
</mask>
<g mask="url(#mask0)">
<path d="M20 0H0V14H20V0Z" fill="#3BAFDA"/>
<path d="M13.0859 6.64255L12.8859 6.2851C12.8287 6.16595 12.7716 5.95744 12.7716 5.83829V5.42127C12.7716 5.30212 12.6859 5.1234 12.5716 5.06382L12.2287 4.85531C12.1144 4.79574 11.9716 4.6468 11.9144 4.52765L11.7144 4.17021C11.6573 4.05106 11.4859 3.9617 11.3716 3.9617H10.9716C10.8573 3.9617 10.6573 3.90212 10.543 3.84255L10.2002 3.63404C10.0859 3.57446 9.91444 3.57446 9.80015 3.63404L9.45729 3.84255C9.343 3.90212 9.143 3.9617 9.02872 3.9617H8.62873C8.51444 3.9617 8.34301 4.05106 8.28587 4.17021L8.08586 4.52765C8.02872 4.6468 7.88587 4.79574 7.77159 4.85531L7.42873 5.06382C7.31444 5.1234 7.22872 5.30212 7.22872 5.42127V5.83829C7.22872 5.95744 7.17159 6.16595 7.11445 6.2851L6.91444 6.64255C6.8573 6.7617 6.8573 6.94042 6.91444 7.05957L7.11445 7.41702C7.17159 7.53617 7.22872 7.74468 7.22872 7.86383V8.28085C7.22872 8.4 7.31444 8.57872 7.42873 8.63829L7.77159 8.8468C7.88587 8.90638 8.02872 9.05532 8.08586 9.17446L8.28587 9.53191C8.34301 9.65106 8.51444 9.74042 8.62873 9.74042H9.02872C9.143 9.74042 9.343 9.8 9.45729 9.85957L9.80015 10.0681C9.91444 10.1277 10.0859 10.1277 10.2002 10.0681L10.543 9.85957C10.6573 9.8 10.8573 9.74042 10.9716 9.74042H11.3716C11.4859 9.74042 11.6573 9.65106 11.7144 9.53191L11.9144 9.17446C11.9716 9.05532 12.1144 8.90638 12.2287 8.8468L12.5716 8.63829C12.6859 8.57872 12.7716 8.4 12.7716 8.28085V7.86383C12.7716 7.74468 12.8287 7.53617 12.8859 7.41702L13.0859 7.05957C13.1716 6.94042 13.1716 6.7617 13.0859 6.64255Z" fill="#F6D660"/>
<path d="M3.71436 2.97852H1.71436V4.17H3.71436V2.97852Z" fill="#E1D26D"/>
<path d="M3.71436 4.76611H1.71436V5.9576H3.71436V4.76611Z" fill="#E1D26D"/>
<path d="M3.71436 6.55322H1.71436V7.74471H3.71436V6.55322Z" fill="#E1D26D"/>
<path d="M3.71436 8.34033H1.71436V9.53182H3.71436V8.34033Z" fill="#E1D26D"/>
<path d="M3.71436 10.1274H1.71436V11.3189H3.71436V10.1274Z" fill="#E1D26D"/>
</g>
</svg>
