<svg width="20" height="14" viewBox="0 0 20 14" fill="none" xmlns="http://www.w3.org/2000/svg">
<mask id="mask0" mask-type="alpha" maskUnits="userSpaceOnUse" x="0" y="0" width="20" height="14">
<rect width="20" height="14" rx="2" fill="#C4C4C4"/>
</mask>
<g mask="url(#mask0)">
<path d="M20 10.4253H0V13.9998H20V10.4253Z" fill="#57A863"/>
<path d="M20 0H0V3.57447H20V0Z" fill="#434A54"/>
<path d="M20 3.57471H0V10.4258H20V3.57471Z" fill="#F5F7FA"/>
<path d="M20 4.17041H0V9.82998H20V4.17041Z" fill="#F54747"/>
<path d="M10.0003 12.8084C11.1837 12.8084 12.1431 10.2079 12.1431 6.99992C12.1431 3.79197 11.1837 1.19141 10.0003 1.19141C8.81681 1.19141 7.85742 3.79197 7.85742 6.99992C7.85742 10.2079 8.81681 12.8084 10.0003 12.8084Z" fill="#F54747"/>
<path d="M12.4286 11.021C13.2176 11.021 13.8571 9.28734 13.8571 7.14871C13.8571 5.01007 13.2176 3.27637 12.4286 3.27637C11.6396 3.27637 11 5.01007 11 7.14871C11 9.28734 11.6396 11.021 12.4286 11.021Z" fill="#434A54"/>
<path d="M7.57164 3.27637C6.77164 3.27637 6.14307 5.00403 6.14307 7.14871C6.14307 9.29339 6.77164 11.021 7.57164 11.021C8.37164 11.021 9.00021 9.29339 9.00021 7.14871C9.00021 5.00403 8.37164 3.27637 7.57164 3.27637Z" fill="#434A54"/>
<path d="M10.4288 6.25515C10.5866 6.25515 10.7145 5.3883 10.7145 4.31898C10.7145 3.24967 10.5866 2.38281 10.4288 2.38281C10.271 2.38281 10.1431 3.24967 10.1431 4.31898C10.1431 5.3883 10.271 6.25515 10.4288 6.25515Z" fill="#F5F7FA"/>
<path d="M9.57185 2.38281C9.40042 2.38281 9.28613 3.24664 9.28613 4.31898C9.28613 5.39132 9.40042 6.25515 9.57185 6.25515C9.74328 6.25515 9.85756 5.39132 9.85756 4.31898C9.85756 3.24664 9.74328 2.38281 9.57185 2.38281Z" fill="#F5F7FA"/>
<path d="M10.4288 12.2127C10.5866 12.2127 10.7145 11.3458 10.7145 10.2765C10.7145 9.20719 10.5866 8.34033 10.4288 8.34033C10.271 8.34033 10.1431 9.20719 10.1431 10.2765C10.1431 11.3458 10.271 12.2127 10.4288 12.2127Z" fill="#F5F7FA"/>
<path d="M9.57185 8.34033C9.40042 8.34033 9.28613 9.20416 9.28613 10.2765C9.28613 11.3488 9.40042 12.2127 9.57185 12.2127C9.74328 12.2127 9.85756 11.3488 9.85756 10.2765C9.85756 9.20416 9.74328 8.34033 9.57185 8.34033Z" fill="#F5F7FA"/>
<path d="M10.0003 6.85107C9.77178 6.85107 9.57178 7.05958 9.57178 7.29788C9.57178 7.53618 9.77178 7.74469 10.0003 7.74469C10.2289 7.74469 10.4289 7.53618 10.4289 7.29788C10.4289 7.05958 10.2289 6.85107 10.0003 6.85107Z" fill="#E6E9ED"/>
</g>
</svg>
