<svg width="20" height="14" viewBox="0 0 20 14" fill="none" xmlns="http://www.w3.org/2000/svg">
<mask id="mask0" mask-type="alpha" maskUnits="userSpaceOnUse" x="0" y="0" width="20" height="14">
<rect width="20" height="14" rx="2" fill="#C4C4C4"/>
</mask>
<g mask="url(#mask0)">
<path d="M20 0H0V14H20V0Z" fill="#F54747"/>
<path d="M10.7821 10.3185C12.6249 9.8649 13.766 7.93968 13.3309 6.01846C12.8957 4.09725 11.0491 2.90755 9.20631 3.3612C7.36351 3.81486 6.22238 5.74007 6.65751 7.66129C7.09265 9.58251 8.93929 10.7722 10.7821 10.3185Z" fill="#F6BB42"/>
<path d="M20.0005 6.85107C18.7936 6.85107 18.1327 7.44682 17.6729 7.86384C17.2993 8.1915 17.1269 8.37023 16.6672 8.37023C16.2074 8.37023 16.0062 8.1915 15.6614 7.86384C15.2016 7.44682 14.5407 6.85107 13.3338 6.85107C12.1269 6.85107 11.466 7.44682 11.0062 7.86384C10.6327 8.1915 10.4603 8.37023 10.0005 8.37023C9.54072 8.37023 9.36831 8.1915 8.99474 7.86384C8.53497 7.44682 7.87404 6.85107 6.66715 6.85107C5.46025 6.85107 4.79934 7.44682 4.33957 7.86384C3.96601 8.1915 3.79359 8.37023 3.33382 8.37023C2.87405 8.37023 2.70164 8.1915 2.32807 7.86384C1.8683 7.44682 1.20739 6.85107 0.000495297 6.85107V8.87661C0.460265 8.87661 0.632679 9.05533 1.00624 9.38299C1.46601 9.80001 2.12692 10.3958 3.33382 10.3958C4.54072 10.3958 5.20163 9.80001 5.6614 9.38299C6.03496 9.05533 6.20738 8.87661 6.66715 8.87661C7.12692 8.87661 7.29933 9.05533 7.67289 9.38299C8.13266 9.80001 8.79359 10.3958 10.0005 10.3958V9.38299V10.3958C11.2074 10.3958 11.8683 9.80001 12.3281 9.38299C12.7016 9.05533 12.874 8.87661 13.3338 8.87661C13.7936 8.87661 13.9947 9.05533 14.3396 9.38299C14.7993 9.80001 15.4603 10.3958 16.6672 10.3958C17.8741 10.3958 18.535 9.80001 18.9947 9.38299C19.3683 9.05533 19.5407 8.87661 20.0005 8.87661V6.85107Z" fill="#F5F7FA"/>
<path d="M20.0005 8.63818C18.7936 8.63818 18.1327 9.23393 17.6729 9.65095C17.2993 9.97861 17.1269 10.1573 16.6672 10.1573C16.2074 10.1573 16.0062 9.97861 15.6614 9.65095C15.2016 9.23393 14.5407 8.63818 13.3338 8.63818C12.1269 8.63818 11.466 9.23393 11.0062 9.65095C10.6327 9.97861 10.4603 10.1573 10.0005 10.1573C9.54072 10.1573 9.36831 9.97861 8.99474 9.65095C8.53497 9.23393 7.87404 8.63818 6.66715 8.63818C5.46025 8.63818 4.79934 9.23393 4.33957 9.65095C3.96601 9.97861 3.79359 10.1573 3.33382 10.1573C2.87405 10.1573 2.70164 9.97861 2.32807 9.65095C1.8683 9.23393 1.20739 8.63818 0.000495297 8.63818V10.6637C0.460265 10.6637 0.632679 10.8424 1.00624 11.1701C1.46601 11.5871 2.12692 12.1829 3.33382 12.1829C4.54072 12.1829 5.20163 11.5871 5.6614 11.1701C6.03496 10.8424 6.20738 10.6637 6.66715 10.6637C7.12692 10.6637 7.29933 10.8424 7.67289 11.1701C8.13266 11.5871 8.79359 12.1829 10.0005 12.1829V11.1701V12.1829C11.2074 12.1829 11.8683 11.5871 12.3281 11.1701C12.7016 10.8424 12.874 10.6637 13.3338 10.6637C13.7936 10.6637 13.9947 10.8424 14.3396 11.1701C14.7993 11.5871 15.4603 12.1829 16.6672 12.1829C17.8741 12.1829 18.535 11.5871 18.9947 11.1701C19.3683 10.8424 19.5407 10.6637 20.0005 10.6637V8.63818Z" fill="#4758A9"/>
<path d="M20.0005 10.4253C18.7936 10.4253 18.1327 11.021 17.6729 11.4381C17.2993 11.7657 17.1269 11.9444 16.6672 11.9444C16.2074 11.9444 16.0062 11.7657 15.6614 11.4381C15.2016 11.021 14.5407 10.4253 13.3338 10.4253C12.1269 10.4253 11.466 11.021 11.0062 11.4381C10.6327 11.7657 10.4603 11.9444 10.0005 11.9444C9.54072 11.9444 9.36831 11.7657 8.99474 11.4381C8.53497 11.021 7.87404 10.4253 6.66715 10.4253C5.46025 10.4253 4.79934 11.021 4.33957 11.4381C3.96601 11.7657 3.79359 11.9444 3.33382 11.9444C2.87405 11.9444 2.70164 11.7657 2.32807 11.4381C1.8683 11.021 1.20739 10.4253 0.000495297 10.4253V12.4508C0.460265 12.4508 0.632679 12.6295 1.00624 12.9572C1.46601 13.3742 2.12692 13.97 3.33382 13.97C4.54072 13.97 5.20163 13.3742 5.6614 12.9572C6.03496 12.6295 6.20738 12.4508 6.66715 12.4508C7.12692 12.4508 7.29933 12.6295 7.67289 12.9572C8.13266 13.3742 8.79359 13.97 10.0005 13.97V12.9572V13.97C11.2074 13.97 11.8683 13.3742 12.3281 12.9572C12.7016 12.6295 12.874 12.4508 13.3338 12.4508C13.7936 12.4508 13.9947 12.6295 14.3396 12.9572C14.7993 13.3742 15.4603 13.97 16.6672 13.97C17.8741 13.97 18.535 13.3742 18.9947 12.9572C19.3683 12.6295 19.5407 12.4508 20.0005 12.4508V10.4253Z" fill="#F5F7FA"/>
<path d="M20.0005 12.2129C18.7936 12.2129 18.1327 12.8086 17.6729 13.2257C17.2993 13.5533 17.1269 13.732 16.6672 13.732C16.2074 13.732 16.0062 13.5533 15.6614 13.2257C15.2016 12.8086 14.5407 12.2129 13.3338 12.2129C12.1269 12.2129 11.466 12.8086 11.0062 13.2257C10.6327 13.5533 10.4603 13.732 10.0005 13.732C9.54072 13.732 9.36831 13.5533 8.99474 13.2257C8.53497 12.8086 7.87404 12.2129 6.66715 12.2129C5.46025 12.2129 4.79934 12.8086 4.33957 13.2257C3.96601 13.5533 3.79359 13.732 3.33382 13.732C2.87405 13.732 2.70164 13.5533 2.32807 13.2257C1.8683 12.8086 1.20739 12.2129 0.000495297 12.2129V14.2384C0.460265 14.2384 0.632679 14.4171 1.00624 14.7448C1.46601 15.1618 2.12692 15.7576 3.33382 15.7576C4.54072 15.7576 5.20163 15.1618 5.6614 14.7448C6.03496 14.4171 6.20738 14.2384 6.66715 14.2384C7.12692 14.2384 7.29933 14.4171 7.67289 14.7448C8.13266 15.1618 8.79359 15.7576 10.0005 15.7576V14.7448V15.7576C11.2074 15.7576 11.8683 15.1618 12.3281 14.7448C12.7016 14.4171 12.874 14.2384 13.3338 14.2384C13.7936 14.2384 13.9947 14.4171 14.3396 14.7448C14.7993 15.1618 15.4603 15.7576 16.6672 15.7576C17.8741 15.7576 18.535 15.1618 18.9947 14.7448C19.3683 14.4171 19.5407 14.2384 20.0005 14.2384V12.2129Z" fill="#4758A9"/>
</g>
</svg>
