<svg width="20" height="14" viewBox="0 0 20 14" fill="none" xmlns="http://www.w3.org/2000/svg">
<mask id="mask0" mask-type="alpha" maskUnits="userSpaceOnUse" x="0" y="0" width="20" height="14">
<rect width="20" height="14" rx="2" fill="#C4C4C4"/>
</mask>
<g mask="url(#mask0)">
<path d="M20 0H0V2.08511H20V0Z" fill="#4758A9"/>
<path d="M20 11.915H0V14.0001H20V11.915Z" fill="#4758A9"/>
<path d="M20 3.27637H0V10.7232H20V3.27637Z" fill="#F54747"/>
<path d="M4.24957 9.49719C5.57354 9.27318 6.47263 7.97262 6.25776 6.59232C6.04289 5.21203 4.79542 4.27467 3.47146 4.49868C2.1475 4.7227 1.24841 6.02325 1.46328 7.40355C1.67815 8.78385 2.92561 9.7212 4.24957 9.49719Z" fill="white"/>
<path d="M5.7427 6.49341C5.91413 6.34447 5.85699 6.19554 5.65699 6.19554H4.79985C4.57128 6.19554 4.34272 6.01681 4.257 5.77852L3.94271 4.85511C3.85699 4.6466 3.74272 4.6466 3.68557 4.85511L3.42842 5.77852C3.37128 6.01681 3.14271 6.19554 2.91414 6.19554L2.08556 6.22532C1.85699 6.22532 1.82842 6.37426 1.99985 6.5232L2.59985 7.05937C2.77127 7.20831 2.85699 7.53597 2.79985 7.74448L2.57128 8.63809C2.51414 8.87639 2.62842 8.93597 2.79985 8.81682L3.48557 8.31043C3.657 8.1615 3.97127 8.16149 4.17127 8.28064L4.85699 8.72745C5.05699 8.8466 5.14271 8.75725 5.08556 8.54874L4.88556 7.80405C4.82842 7.56576 4.91413 7.26788 5.08556 7.11894L5.7427 6.49341Z" fill="#F54747"/>
<path d="M20 2.08496H0V3.27645H20V2.08496Z" fill="#F5F7FA"/>
<path d="M20 10.7236H0V11.9151H20V10.7236Z" fill="#F5F7FA"/>
</g>
</svg>
