<svg width="20" height="14" viewBox="0 0 20 14" fill="none" xmlns="http://www.w3.org/2000/svg">
<mask id="mask0" mask-type="alpha" maskUnits="userSpaceOnUse" x="0" y="0" width="20" height="14">
<rect width="20" height="14" rx="2" fill="#C4C4C4"/>
</mask>
<g mask="url(#mask0)">
<path d="M20 0H0V14H20V0Z" fill="#F5F7FA"/>
<path d="M13.4286 6.40397C13.2001 4.91461 12.0858 3.63376 10.5429 3.33589C8.60007 2.94866 6.68577 4.25929 6.31434 6.25504C6.14291 7.23802 6.74292 8.16142 7.68578 8.36993C8.62864 8.54866 9.54291 7.92312 9.74291 6.94014C9.94291 5.8678 10.9715 5.15291 12.0286 5.36142C13.1143 5.56993 13.4858 6.82099 13.4286 6.40397Z" fill="#F54747"/>
<path d="M12.0002 5.62955C11.0573 5.45083 10.1431 6.07636 9.94305 7.05934C9.74305 8.13168 8.71448 8.84657 7.65734 8.63806C6.6002 8.42955 6.22877 7.17849 6.28591 7.59551C6.51449 9.08487 7.62876 10.3657 9.17162 10.6636C11.1145 11.0508 13.0288 9.74019 13.4002 7.74444C13.5716 6.76147 12.9716 5.83806 12.0002 5.62955Z" fill="#4758A9"/>
<path d="M13.7853 2.45L13.2827 2.7334L14.9137 5.8775L15.4163 5.5941L13.7853 2.45Z" fill="#434A54"/>
<path d="M14.7975 1.84844L14.2949 2.13184L15.9259 5.27594L16.4285 4.99254L14.7975 1.84844Z" fill="#434A54"/>
<path d="M6.05729 2.35303L4.42871 5.39133L4.94299 5.65941L6.57157 2.62111L6.05729 2.35303Z" fill="#434A54"/>
<path d="M5.05729 1.78711L3.42871 4.82541L3.94299 5.09349L5.57157 2.05519L5.05729 1.78711Z" fill="#434A54"/>
<path d="M15.0575 8.04248L13.4004 11.2595L13.9147 11.5574L15.5433 8.34035L15.0575 8.04248Z" fill="#434A54"/>
<path d="M16.057 8.63818L14.3999 11.8254L14.9142 12.1233L16.5713 8.90627L16.057 8.63818Z" fill="#434A54"/>
<path d="M4.94274 8.25098L4.45702 8.54885L6.0856 11.6467L6.59988 11.3786L4.94274 8.25098Z" fill="#434A54"/>
<path d="M3.94299 8.8169L3.42871 9.11477L5.08585 12.2126L5.60013 11.9148L3.94299 8.8169Z" fill="#434A54"/>
</g>
</svg>
