<svg width="20" height="14" viewBox="0 0 20 14" fill="none" xmlns="http://www.w3.org/2000/svg">
<mask id="mask0" mask-type="alpha" maskUnits="userSpaceOnUse" x="0" y="0" width="20" height="14">
<rect width="20" height="14" rx="2" fill="#C4C4C4"/>
</mask>
<g mask="url(#mask0)">
<path d="M20 0H0V14H20V0Z" fill="#4A89DC"/>
<path d="M12.6571 7.68524C12.6571 7.65545 12.6285 7.62567 12.6285 7.62567C12.6285 7.62567 12.5999 7.56609 12.5714 7.56609C12.5428 7.56609 12.5142 7.56609 12.5142 7.59588C12.5142 7.59588 12.4571 7.56609 12.4285 7.56609C12.3999 7.56609 12.3714 7.59588 12.3714 7.59588C12.3714 7.59588 12.3428 7.62567 12.3142 7.62567C12.3142 7.62567 12.2856 7.65545 12.2856 7.68524C12.2856 7.71502 12.2285 7.71502 12.1999 7.68524C12.1714 7.65545 12.1714 7.62567 12.1714 7.62567L12.1142 7.59588C12.0857 7.59588 12.0571 7.56609 12.0571 7.56609C12.0571 7.56609 12.0285 7.53631 12.0285 7.50652C12.0285 7.50652 11.8857 7.47673 11.8285 7.47673C11.7714 7.47673 11.6856 7.44694 11.6571 7.44694C11.6285 7.44694 11.5999 7.44694 11.5999 7.41715C11.5999 7.41715 11.5714 7.38736 11.5428 7.38736L11.5142 7.41715C11.5142 7.41715 11.5142 7.44694 11.4856 7.44694L11.4571 7.41715C11.4571 7.41715 11.4285 7.38736 11.3999 7.38736C11.3714 7.38736 11.3999 7.32779 11.3999 7.29801C11.3999 7.26822 11.4285 7.23843 11.4285 7.23843C11.4285 7.23843 11.4571 7.0895 11.4571 7.05971C11.4571 7.00014 11.4856 6.94056 11.4856 6.94056C11.4856 6.94056 11.4571 6.91078 11.4285 6.91078C11.3999 6.91078 11.3714 6.88099 11.3428 6.88099C11.3428 6.88099 11.2857 6.8512 11.2571 6.8512C11.2285 6.8512 11.2285 6.82141 11.1999 6.82141C11.1999 6.82141 11.1714 6.76184 11.1428 6.76184L11.0571 6.73205C11.0285 6.73205 10.9999 6.76184 10.9999 6.76184C10.9999 6.76184 10.9714 6.73205 10.9428 6.70226C10.9142 6.67247 10.8856 6.58311 10.8856 6.55332C10.8856 6.52354 10.8856 6.40439 10.8856 6.3746C10.8856 6.34481 10.8571 6.28524 10.8285 6.25545C10.8285 6.22566 10.7714 6.22566 10.7714 6.22566C10.7714 6.22566 10.7142 6.25545 10.6857 6.25545C10.6571 6.22566 10.6285 6.1363 10.6285 6.10652C10.6285 6.07673 10.5999 6.04694 10.5999 6.04694C10.5999 6.04694 10.5714 5.92779 10.5714 5.898C10.5714 5.86821 10.5428 5.83843 10.5428 5.83843L10.4856 5.80864C10.4571 5.80864 10.4285 5.77885 10.4285 5.74907C10.4285 5.74907 10.3428 5.74907 10.3142 5.77885C10.2856 5.80864 10.2856 5.77885 10.2856 5.77885C10.2856 5.74907 10.2285 5.71929 10.2285 5.71929C10.1999 5.71929 10.1142 5.6895 10.0856 5.6895C10.0571 5.6895 9.99994 5.74907 9.97137 5.71929C9.94279 5.71929 9.94278 5.65971 9.94278 5.62992C9.94278 5.60013 9.91421 5.60013 9.88564 5.60013C9.85707 5.60013 9.79993 5.57035 9.79993 5.57035C9.77136 5.57035 9.71422 5.51077 9.68565 5.48098C9.65708 5.4512 9.68565 5.42141 9.68565 5.39162C9.68565 5.39162 9.74279 5.36184 9.77136 5.36184C9.79993 5.36184 9.77136 5.33204 9.77136 5.30226C9.77136 5.27247 9.68564 5.18311 9.65707 5.15332C9.6285 5.12353 9.57137 5.09375 9.54279 5.09375C9.51422 5.09375 9.51421 5.09375 9.51421 5.12354C9.51421 5.15333 9.48565 5.15332 9.48565 5.15332C9.48565 5.15332 9.4285 5.18311 9.4285 5.2129L9.34279 5.24269C9.31422 5.24269 9.25707 5.27247 9.2285 5.30226C9.19993 5.30226 9.17135 5.33205 9.17135 5.33205C9.17135 5.33205 9.02851 5.36184 8.97137 5.36184C8.91422 5.36184 8.88564 5.42141 8.88564 5.45119C8.88564 5.48098 8.91422 5.54056 8.91422 5.54056C8.91422 5.57035 8.94279 5.57035 8.97137 5.57035C8.99994 5.57035 9.05708 5.65971 9.05708 5.6895C9.08565 5.71928 9.11422 5.80864 9.14279 5.80864C9.14279 5.83843 9.14279 5.898 9.11422 5.898C9.08565 5.898 9.05708 6.01715 9.05708 6.04694C9.05708 6.07673 9.05708 6.13631 9.05708 6.13631C9.05708 6.13631 9.02849 6.16609 9.02849 6.19587H8.97137C8.97137 6.19587 8.94279 6.16609 8.91422 6.16609L8.88564 6.19587C8.88564 6.19587 8.79993 6.28524 8.77136 6.31503C8.74279 6.34482 8.68564 6.3746 8.65707 6.3746C8.65707 6.3746 8.59993 6.40439 8.57136 6.43418C8.54279 6.46396 8.54279 6.52354 8.54279 6.55332C8.54279 6.58311 8.59992 6.64268 8.59992 6.67247C8.59992 6.70226 8.6285 6.73205 8.65707 6.73205L8.59992 6.79162C8.57135 6.79162 8.51421 6.8512 8.51421 6.8512C8.48564 6.8512 8.45707 6.91078 8.4285 6.91078L8.37136 6.88099C8.34278 6.88099 8.34279 6.88099 8.34279 6.91078C8.34279 6.91078 8.25707 6.94056 8.2285 6.94056C8.19993 6.94056 8.17135 7.00013 8.17135 7.00013C8.17135 7.02992 8.14279 7.02992 8.14279 7.02992C8.14279 7.02992 8.08565 7.05971 8.05708 7.05971C8.02851 7.05971 7.99993 7.14907 7.99993 7.20865C7.99993 7.23843 7.94279 7.29801 7.97137 7.32779C7.97137 7.35758 7.79992 7.35758 7.74278 7.35758C7.68564 7.35758 7.62851 7.32779 7.62851 7.29801C7.62851 7.26822 7.59992 7.26822 7.59992 7.26822C7.59992 7.26822 7.54279 7.23843 7.54279 7.20865C7.54279 7.20865 7.48564 7.17886 7.45707 7.17886C7.42849 7.17886 7.39993 7.20864 7.37136 7.23843C7.37136 7.23843 7.34278 7.29801 7.31421 7.29801C7.31421 7.29801 7.28564 7.38737 7.28564 7.41715C7.28564 7.44694 7.31421 7.5363 7.31421 7.56609C7.31421 7.59588 7.34279 7.65546 7.34279 7.65546C7.34279 7.68524 7.37136 7.71502 7.37136 7.71502C7.37136 7.71502 7.39993 7.74481 7.4285 7.74481L7.45707 7.7746C7.45707 7.7746 7.51421 7.83417 7.51421 7.86396C7.51421 7.89375 7.54279 8.0129 7.54279 8.04269C7.54279 8.07247 7.51422 8.10226 7.48565 8.10226C7.45708 8.10226 7.45708 8.16183 7.48565 8.16183C7.48565 8.19162 7.51421 8.22141 7.51421 8.22141L7.54279 8.2512L7.59992 8.28098C7.59992 8.28098 7.62851 8.31077 7.62851 8.34056L7.68565 8.37035C7.71422 8.37035 7.74278 8.42992 7.74278 8.45971C7.74278 8.48949 7.74278 8.51929 7.74278 8.54907L7.77136 8.57885L7.79993 8.60864C7.79993 8.60864 7.8285 8.69801 7.85707 8.69801C7.88564 8.69801 7.88564 8.81716 7.88564 8.84695C7.88564 8.87673 7.91422 8.9363 7.91422 8.9363L7.97137 8.96609C7.97137 8.96609 8.11421 8.96609 8.17135 8.96609C8.22849 8.96609 8.28564 8.99588 8.28564 8.99588C8.28564 8.99588 8.31421 9.11503 8.31421 9.14482C8.31421 9.1746 8.37136 9.20439 8.37136 9.20439L8.4285 9.23418L8.45707 9.26396L8.51421 9.29375C8.51421 9.29375 8.59993 9.32354 8.62851 9.35332C8.65708 9.35332 8.65707 9.38311 8.65707 9.4129C8.65707 9.4129 8.71421 9.47247 8.74278 9.50226C8.77135 9.53205 8.74278 9.56184 8.74278 9.59163C8.74278 9.62141 8.77136 9.68098 8.77136 9.68098C8.77136 9.68098 8.79993 9.74056 8.79993 9.77034C8.79993 9.80013 8.8285 9.82992 8.85707 9.85971C8.85707 9.85971 8.88564 10.0086 8.88564 10.0682C8.88564 10.1278 8.94278 10.1874 8.94278 10.2172C8.94278 10.2469 8.97137 10.2469 8.97137 10.2469C8.97137 10.2469 8.99993 10.4257 8.99993 10.4852C8.99993 10.5448 9.02849 10.6044 9.02849 10.6044C9.02849 10.6044 9.02849 10.664 9.02849 10.6937C9.02849 10.7235 8.97137 10.7831 8.97137 10.8129C8.94279 10.8427 8.94278 10.9618 8.94278 11.0214C8.94278 11.081 8.97137 11.1406 8.97137 11.1703C8.97137 11.2001 9.02851 11.2001 9.05708 11.2001C9.08565 11.2001 9.14278 11.1406 9.17135 11.1108C9.19992 11.081 9.28564 11.081 9.31421 11.081C9.34278 11.081 9.39994 11.0512 9.39994 11.0512C9.39994 11.0512 9.4285 11.0214 9.4285 10.9916C9.4285 10.9618 9.45707 10.9618 9.45707 10.9618L9.51421 10.9321C9.51421 10.9321 9.54279 10.8129 9.54279 10.7533C9.54279 10.7235 9.51422 10.6342 9.48565 10.6342C9.48565 10.6342 9.45707 10.4852 9.45707 10.4257C9.45707 10.3661 9.48564 10.3065 9.51421 10.3065C9.51421 10.3065 9.54279 10.2469 9.54279 10.2172C9.54279 10.1874 9.57136 10.1874 9.57136 10.1874L9.59992 10.1278C9.59992 10.098 9.6285 10.0682 9.65707 10.0384C9.65707 10.0086 9.74279 9.97886 9.77136 9.97886C9.79993 9.97886 9.88565 9.94907 9.91422 9.94907C9.94279 9.94907 9.99993 9.91929 9.99993 9.8895C9.99993 9.8895 10.0571 9.85971 10.0856 9.85971C10.1142 9.85971 10.1428 9.82992 10.1428 9.82992C10.1714 9.82992 10.1714 9.80013 10.1714 9.80013L10.1999 9.74056C10.1999 9.74056 10.2856 9.71077 10.3142 9.71077C10.3428 9.71077 10.3714 9.68098 10.3999 9.6512C10.3999 9.6512 10.4571 9.62141 10.4856 9.62141C10.5142 9.62141 10.5428 9.59163 10.5428 9.59163C10.5428 9.59163 10.5714 9.56184 10.5714 9.53205C10.5714 9.53205 10.6571 9.50226 10.6857 9.50226C10.7142 9.50226 10.7428 9.53205 10.7428 9.56184L10.7714 9.59163L10.8285 9.62141C10.8571 9.62141 10.8571 9.6512 10.8571 9.6512L10.8856 9.68098C10.8856 9.68098 10.9142 9.77034 10.9142 9.80013C10.9142 9.82992 10.9142 9.88949 10.9142 9.91928C10.9142 9.94907 11.0571 9.94907 11.1142 9.94907C11.1714 9.94907 11.1999 9.91928 11.1999 9.91928C11.1999 9.91928 11.1428 9.85971 11.1428 9.82992C11.1428 9.80013 11.1999 9.71077 11.1999 9.68098C11.1999 9.6512 11.2285 9.62141 11.2285 9.59163C11.2285 9.59163 11.2571 9.53205 11.2856 9.50226C11.2856 9.47247 11.3428 9.47247 11.3714 9.47247C11.3999 9.47247 11.3999 9.44269 11.3999 9.44269C11.3999 9.44269 11.4571 9.4129 11.4856 9.4129C11.5142 9.4129 11.5714 9.38311 11.5714 9.38311C11.5999 9.38311 11.6285 9.35332 11.6285 9.32353L11.6857 9.29375L11.7142 9.32353C11.7142 9.32353 11.7999 9.32353 11.8285 9.32353C11.8571 9.32353 11.9428 9.32353 11.9428 9.32353C11.9428 9.32353 12.0285 9.26396 12.0285 9.20439C12.0285 9.1746 11.9142 9.11503 11.8856 9.08524C11.8571 9.05545 11.8285 8.96609 11.8285 8.9363C11.8285 8.90652 11.8571 8.84695 11.8856 8.84695C11.9142 8.84695 11.9428 8.78737 11.9714 8.78737C11.9714 8.78737 12.0857 8.75758 12.1142 8.75758C12.1428 8.75758 12.1714 8.60864 12.1714 8.57885C12.1714 8.54907 12.1428 8.48949 12.1428 8.45971V8.42992C12.1428 8.42992 12.1714 8.40014 12.1999 8.37035C12.1999 8.37035 12.2571 8.34056 12.2856 8.31077C12.3142 8.31077 12.3142 8.28099 12.3142 8.2512C12.3142 8.2512 12.3428 8.19162 12.3714 8.19162L12.3999 8.10226C12.3999 8.07248 12.4571 8.0129 12.4856 7.98311C12.5142 7.95332 12.5142 7.86397 12.5142 7.80439C12.5142 7.7746 12.5428 7.74481 12.5428 7.74481C12.5428 7.74481 12.5714 7.65545 12.5714 7.62567C12.5714 7.59588 12.5999 7.5363 12.6285 7.5363C12.6856 7.7746 12.6856 7.71502 12.6571 7.68524Z" fill="#F6D660"/>
<path d="M13.543 3.45538C13.343 3.45538 13.143 3.30644 13.0859 3.12772C13.0287 2.94899 12.943 2.94899 12.8859 3.12772C12.8287 3.30644 12.6287 3.45538 12.4287 3.45538C12.2287 3.45538 12.2002 3.54473 12.3716 3.66388C12.5144 3.78303 12.6002 4.02133 12.543 4.20006C12.4859 4.37878 12.5716 4.43835 12.7144 4.3192C12.8573 4.20006 13.1145 4.20006 13.2573 4.3192C13.4002 4.43835 13.4859 4.37878 13.4287 4.20006C13.3716 4.02133 13.4573 3.75324 13.6002 3.66388C13.7716 3.54473 13.743 3.45538 13.543 3.45538ZM11.5716 3.1575C11.3716 3.1575 11.1716 3.00857 11.1145 2.82984C11.0573 2.65112 10.9716 2.65112 10.9145 2.82984C10.8573 3.00857 10.6573 3.1575 10.4573 3.1575C10.2573 3.1575 10.2287 3.24686 10.4002 3.36601C10.543 3.48516 10.6287 3.72346 10.5716 3.90219C10.5144 4.08091 10.6002 4.14048 10.743 4.02133C10.8859 3.90218 11.143 3.90218 11.2859 4.02133C11.4287 4.14048 11.5144 4.08091 11.4573 3.90219C11.4002 3.72346 11.4859 3.45537 11.6287 3.36601C11.8002 3.24686 11.7716 3.1575 11.5716 3.1575ZM5.57159 4.08091C5.37159 4.08091 5.1716 3.93197 5.11445 3.75325C5.05731 3.57453 4.97159 3.57453 4.91445 3.75325C4.85731 3.93197 4.6573 4.08091 4.4573 4.08091C4.2573 4.08091 4.22874 4.17027 4.40017 4.28942C4.54303 4.40856 4.62873 4.64687 4.57159 4.82559C4.51445 5.00431 4.60015 5.06389 4.74301 4.94474C4.88587 4.82559 5.14302 4.82559 5.28588 4.94474C5.42873 5.06389 5.51444 5.00431 5.4573 4.82559C5.40015 4.64687 5.48588 4.40856 5.62874 4.28942C5.77159 4.17027 5.74302 4.08091 5.57159 4.08091ZM7.57159 3.45538C7.37159 3.45538 7.1716 3.30644 7.11445 3.12772C7.05731 2.94899 6.97159 2.94899 6.91445 3.12772C6.85731 3.30644 6.6573 3.45538 6.4573 3.45538C6.2573 3.45538 6.22874 3.54473 6.40017 3.66388C6.54303 3.78303 6.62873 4.02133 6.57159 4.20006C6.51445 4.37878 6.60015 4.43835 6.74301 4.3192C6.88587 4.20006 7.14302 4.20006 7.28588 4.3192C7.42873 4.43835 7.51444 4.37878 7.4573 4.20006C7.40015 4.02133 7.48588 3.78303 7.62874 3.66388C7.77159 3.54473 7.77159 3.45538 7.57159 3.45538ZM9.54303 3.1575C9.34303 3.1575 9.14302 3.00857 9.08587 2.82984C9.02873 2.65112 8.94301 2.65112 8.88587 2.82984C8.82873 3.00857 8.62873 3.1575 8.42873 3.1575C8.22873 3.1575 8.20016 3.24686 8.37159 3.36601C8.51444 3.48516 8.60017 3.72346 8.54303 3.90219C8.48588 4.08091 8.57159 4.14048 8.71445 4.02133C8.8573 3.90218 9.11445 3.90218 9.25731 4.02133C9.40017 4.14048 9.48588 4.08091 9.42873 3.90219C9.37159 3.72346 9.4573 3.48516 9.60016 3.36601C9.74301 3.24686 9.71445 3.1575 9.54303 3.1575ZM15.543 4.08091C15.343 4.08091 15.143 3.93197 15.0859 3.75325C15.0287 3.57453 14.943 3.57453 14.8859 3.75325C14.8287 3.93197 14.6287 4.08091 14.4287 4.08091C14.2287 4.08091 14.2002 4.17027 14.3716 4.28942C14.543 4.40856 14.6002 4.64687 14.543 4.82559C14.4859 5.00431 14.5716 5.06389 14.7144 4.94474C14.8573 4.82559 15.1145 4.82559 15.2573 4.94474C15.4002 5.06389 15.4859 5.00431 15.4287 4.82559C15.3716 4.64687 15.4573 4.37878 15.6002 4.28942C15.7716 4.17027 15.743 4.08091 15.543 4.08091Z" fill="#F5F7FA"/>
</g>
</svg>
