<svg width="20" height="14" viewBox="0 0 20 14" fill="none" xmlns="http://www.w3.org/2000/svg">
<mask id="mask0" mask-type="alpha" maskUnits="userSpaceOnUse" x="0" y="0" width="20" height="14">
<rect width="20" height="14" rx="2" fill="#C4C4C4"/>
</mask>
<g mask="url(#mask0)">
<path d="M20 0H0V14H20V0Z" fill="#F54747"/>
<path d="M10.0001 9.38266C11.2624 9.38266 12.2858 8.31576 12.2858 6.99968C12.2858 5.6836 11.2624 4.6167 10.0001 4.6167C8.7377 4.6167 7.71436 5.6836 7.71436 6.99968C7.71436 8.31576 8.7377 9.38266 10.0001 9.38266Z" fill="#FFCE54"/>
<path d="M6.17128 6.37451C5.82842 6.37451 5.57129 6.6426 5.57129 7.00004C5.57129 7.35749 5.82842 7.62558 6.17128 7.62558C6.51414 7.62558 6.77129 7.35749 6.77129 7.00004C6.77129 6.6426 6.51414 6.37451 6.17128 6.37451Z" fill="#FFCE54"/>
<path d="M13.8285 6.37451C13.4857 6.37451 13.2285 6.6426 13.2285 7.00004C13.2285 7.35749 13.4857 7.62558 13.8285 7.62558C14.1714 7.62558 14.4285 7.35749 14.4285 7.00004C14.4285 6.6426 14.1714 6.37451 13.8285 6.37451Z" fill="#FFCE54"/>
<path d="M9.9999 11.6168C10.3313 11.6168 10.5999 11.3367 10.5999 10.9913C10.5999 10.6458 10.3313 10.3657 9.9999 10.3657C9.66853 10.3657 9.39991 10.6458 9.39991 10.9913C9.39991 11.3367 9.66853 11.6168 9.9999 11.6168Z" fill="#FFCE54"/>
<path d="M9.9999 3.63388C10.3313 3.63388 10.5999 3.35382 10.5999 3.00835C10.5999 2.66287 10.3313 2.38281 9.9999 2.38281C9.66853 2.38281 9.39991 2.66287 9.39991 3.00835C9.39991 3.35382 9.66853 3.63388 9.9999 3.63388Z" fill="#FFCE54"/>
<path d="M7.71412 9.38283C7.48555 9.14453 7.11412 9.14453 6.85698 9.38283C6.6284 9.62112 6.6284 10.0084 6.85698 10.2764C7.08555 10.5147 7.45697 10.5147 7.71412 10.2764C7.94269 10.0084 7.94269 9.62112 7.71412 9.38283Z" fill="#FFCE54"/>
<path d="M13.1428 3.72316C12.9143 3.48486 12.5428 3.48486 12.2857 3.72316C12.0571 3.96146 12.0571 4.34869 12.2857 4.61677C12.5143 4.85507 12.8857 4.85507 13.1428 4.61677C13.3714 4.37848 13.3714 3.99124 13.1428 3.72316Z" fill="#FFCE54"/>
<path d="M13.0569 9.29347C12.8283 9.05518 12.4283 9.05518 12.1998 9.29347C11.9712 9.53177 11.9712 9.94879 12.1998 10.1871C12.4283 10.4254 12.8283 10.4254 13.0569 10.1871C13.2855 9.91901 13.2855 9.53177 13.0569 9.29347Z" fill="#FFCE54"/>
<path d="M7.14297 4.64657C7.47434 4.64657 7.74296 4.36651 7.74296 4.02104C7.74296 3.67557 7.47434 3.39551 7.14297 3.39551C6.8116 3.39551 6.54298 3.67557 6.54298 4.02104C6.54298 4.36651 6.8116 4.64657 7.14297 4.64657Z" fill="#FFCE54"/>
</g>
</svg>
