<svg width="20" height="14" viewBox="0 0 20 14" fill="none" xmlns="http://www.w3.org/2000/svg">
<mask id="mask0" mask-type="alpha" maskUnits="userSpaceOnUse" x="0" y="0" width="20" height="14">
<rect width="20" height="14" rx="2" fill="#C4C4C4"/>
</mask>
<g mask="url(#mask0)">
<path d="M20 2.38281H0V11.6169H20V2.38281Z" fill="#F5F7FA"/>
<path d="M20 0H0V2.38298H20V0Z" fill="#F54747"/>
<path d="M20 11.6172H0V14.0002H20V11.6172Z" fill="#F54747"/>
<path d="M12.2572 9.14453L11.4857 7.65517C11.4286 7.56581 11.4857 7.47644 11.6 7.47644H11.7715C11.8857 7.47644 11.9143 7.41686 11.8572 7.3275L10.8572 5.80836C10.8 5.719 10.8286 5.65942 10.9429 5.65942H11.1143C11.2286 5.65942 11.2572 5.59985 11.2 5.51049L10.1143 3.99134C10.0572 3.90198 9.94288 3.90198 9.88573 3.99134L8.77146 5.51049C8.71432 5.59985 8.74288 5.65942 8.85717 5.65942H9.02859C9.14288 5.65942 9.17146 5.719 9.11432 5.80836L8.11432 7.3275C8.05718 7.41686 8.08574 7.47644 8.20003 7.47644H8.37145C8.48574 7.47644 8.51432 7.56581 8.48574 7.65517L7.71431 9.14453C7.65717 9.23389 7.71432 9.32325 7.8286 9.32325H9.51431C9.62859 9.32325 9.71431 9.41262 9.71431 9.50198V9.94879C9.71431 10.0679 9.80003 10.1275 9.91432 10.1275H10.1714C10.2857 10.1275 10.3715 10.0382 10.3715 9.94879V9.50198C10.3715 9.38283 10.4572 9.32325 10.5715 9.32325H12.2286C12.2572 9.29346 12.3143 9.23389 12.2572 9.14453Z" fill="#57A863"/>
</g>
</svg>
