<svg width="20" height="14" viewBox="0 0 20 14" fill="none" xmlns="http://www.w3.org/2000/svg">
<mask id="mask0" mask-type="alpha" maskUnits="userSpaceOnUse" x="0" y="0" width="20" height="14">
<rect width="20" height="14" rx="2" fill="#C4C4C4"/>
</mask>
<g mask="url(#mask0)">
<path d="M20 0H0V14H20V0Z" fill="#F5F7FA"/>
<path d="M20 0H0V1.48936H20V0Z" fill="#F54747"/>
<path d="M20 2.97852H0V4.76575H20V2.97852Z" fill="#F54747"/>
<path d="M20 6.25537H0V7.74473H20V6.25537Z" fill="#F54747"/>
<path d="M20 9.23389H0V11.0211H20V9.23389Z" fill="#F54747"/>
<path d="M20 12.5107H0V14.0001H20V12.5107Z" fill="#F54747"/>
<path d="M7.68572 0H0V7.74468H7.68572V0Z" fill="#4758A9"/>
<path d="M5.88558 3.54457C6.05701 3.36584 6.02845 3.24669 5.7713 3.24669H4.85701C4.62844 3.24669 4.34273 3.03818 4.28559 2.79989L3.94272 1.81691C3.85701 1.57861 3.74273 1.57861 3.65701 1.81691L3.3713 2.82967C3.31415 3.06797 3.05701 3.27648 2.79987 3.27648L1.91416 3.30627C1.68559 3.30627 1.62844 3.4552 1.79987 3.60414L2.42844 4.1701C2.59987 4.34882 2.71415 4.67648 2.65701 4.91478L2.45701 5.83818C2.39986 6.07648 2.51416 6.16584 2.71416 6.01691L3.45701 5.45095C3.65701 5.30201 3.9713 5.30201 4.19987 5.42116L4.94272 5.89776C5.14272 6.01691 5.25702 5.92754 5.19987 5.68925L4.97131 4.88499C4.91416 4.64669 4.99986 4.31903 5.17129 4.14031L5.88558 3.54457Z" fill="white"/>
</g>
</svg>
