<svg width="20" height="14" viewBox="0 0 20 14" fill="none" xmlns="http://www.w3.org/2000/svg">
<mask id="mask0" mask-type="alpha" maskUnits="userSpaceOnUse" x="0" y="0" width="20" height="14">
<rect width="20" height="14" rx="2" fill="#C4C4C4"/>
</mask>
<g mask="url(#mask0)">
<path d="M20 4.17041H0V9.82998H20V4.17041Z" fill="#434A54"/>
<path d="M20 0H0V4.17021H20V0Z" fill="#F54747"/>
<path d="M20 9.82959H0V13.9998H20V9.82959Z" fill="#57A863"/>
<path d="M11.2569 8.54884C11.1712 8.60842 11.0855 8.63821 10.9998 8.668C10.1426 8.99566 9.1712 8.48927 8.88549 7.56586C8.82835 7.38714 8.79978 7.20842 8.79978 7.0297C8.79978 6.85097 8.79978 6.67225 8.85693 6.49353C9.0855 5.54033 9.99978 5.00416 10.8855 5.24246C10.9712 5.27225 11.0569 5.30204 11.1426 5.36161C11.1712 5.36161 11.1998 5.36161 11.1998 5.33182C11.1998 5.30203 11.1998 5.27225 11.1712 5.27225C10.9712 5.09352 10.7141 4.94459 10.4284 4.88501C9.31407 4.55735 8.17121 5.24246 7.85693 6.43395C7.79978 6.64246 7.77121 6.88076 7.79978 7.08927C7.79978 7.29778 7.85693 7.53608 7.91407 7.74459C8.2855 8.90629 9.4855 9.53182 10.5712 9.14459C10.8284 9.05523 11.0855 8.90629 11.2855 8.69778C11.3141 8.66799 11.3141 8.66799 11.3141 8.63821C11.3141 8.57863 11.2855 8.54884 11.2569 8.54884ZM12.1141 7.29778L11.8569 7.05948L12.0855 6.85097C12.1712 6.7914 12.1426 6.73182 12.0283 6.70204H11.7712L11.8569 6.34459C11.8855 6.22544 11.8283 6.19565 11.7426 6.25523L11.3998 6.49353H11.3712L11.2284 6.0765C11.1998 5.95735 11.1426 5.98714 11.1141 6.0765L10.9998 6.43395L10.7141 6.22544C10.6284 6.16586 10.5998 6.19565 10.6284 6.28502L10.7712 6.70204H10.7426H10.3426C10.2284 6.70204 10.2284 6.76161 10.2855 6.85097L10.5426 7.08927L10.3426 7.23821C10.2569 7.29778 10.2855 7.35736 10.3712 7.38714L10.6569 7.41693L10.5712 7.80416C10.5426 7.92331 10.5998 7.9531 10.6855 7.89353L10.9998 7.65523C10.9998 7.65523 10.9998 7.65523 11.0283 7.65523L11.1712 8.01267C11.1998 8.10203 11.2569 8.10203 11.3141 8.01267L11.4284 7.68502L11.6569 7.83395C11.7426 7.89353 11.7998 7.86374 11.7712 7.74459L11.6855 7.41693C11.6855 7.41693 11.6855 7.41693 11.7141 7.41693L12.0855 7.38714C12.1712 7.41693 12.1998 7.35736 12.1141 7.29778Z" fill="white"/>
</g>
</svg>
