<svg width="20" height="14" viewBox="0 0 20 14" fill="none" xmlns="http://www.w3.org/2000/svg">
<mask id="mask0" mask-type="alpha" maskUnits="userSpaceOnUse" x="0" y="0" width="20" height="14">
<rect width="20" height="14" rx="2" fill="#C4C4C4"/>
</mask>
<g mask="url(#mask0)">
<path d="M20 7.14893H0V14H20V7.14893Z" fill="#F54747"/>
<path d="M20 0H0V7.14894H20V0Z" fill="#4758A9"/>
<path d="M6.59991 1.9361L5.99991 2.71057C5.82848 2.91908 5.54277 2.91908 5.37134 2.71057L4.88562 2.08504C4.71419 1.87653 4.42849 1.87653 4.25706 2.08504L3.77134 2.71057C3.59992 2.91908 3.3142 2.91908 3.14277 2.71057L2.54278 1.9361C2.37135 1.72759 2.25705 1.75738 2.28563 2.05525L2.51419 4.55738C2.54276 4.85525 2.77134 5.06376 3.05706 5.06376H6.11421C6.37135 5.06376 6.62848 4.82547 6.65705 4.55738L6.85706 2.05525C6.88563 1.75738 6.77133 1.69781 6.59991 1.9361Z" fill="#F6BB42"/>
</g>
</svg>
