<svg width="20" height="14" viewBox="0 0 20 14" fill="none" xmlns="http://www.w3.org/2000/svg">
<mask id="mask0" mask-type="alpha" maskUnits="userSpaceOnUse" x="0" y="0" width="20" height="14">
<rect width="20" height="14" rx="2" fill="#C4C4C4"/>
</mask>
<g mask="url(#mask0)">
<path d="M20 0H0V14H20V0Z" fill="#57A863"/>
<path fill-rule="evenodd" clip-rule="evenodd" d="M10.0572 1.93628C10.1144 2.08522 10.1429 2.23415 10.2001 2.38309C10.2001 2.41288 10.2287 2.41288 10.2572 2.41288H10.7144C10.7715 2.41288 10.8001 2.47245 10.7429 2.53203C10.6286 2.62139 10.4858 2.71075 10.3715 2.80011C10.3429 2.80011 10.3429 2.8299 10.3429 2.85969C10.3715 3.00862 10.4286 3.15756 10.4858 3.33629C10.5144 3.39586 10.4572 3.42564 10.4001 3.39586C10.2858 3.30649 10.1429 3.21713 10.0286 3.12777C10.0001 3.12777 10.0001 3.09798 9.97151 3.12777C9.82866 3.21713 9.71436 3.30649 9.60007 3.39586C9.54293 3.42564 9.48581 3.39586 9.51438 3.33629C9.57152 3.18735 9.60009 3.03841 9.65724 2.88948C9.65724 2.85969 9.65721 2.8299 9.62864 2.8299C9.51435 2.71075 9.40009 2.62139 9.25723 2.53203C9.20009 2.50224 9.22865 2.41288 9.28579 2.41288C9.42865 2.41288 9.60007 2.41288 9.74293 2.41288C9.7715 2.41288 9.77152 2.38309 9.80009 2.38309C9.85724 2.23415 9.91438 2.08522 9.94295 1.93628C9.97152 1.87671 10.0286 1.87671 10.0572 1.93628Z" fill="#F8D017"/>
<path fill-rule="evenodd" clip-rule="evenodd" d="M7.14307 3.63429C7.25735 3.57471 7.37162 3.48535 7.48591 3.39599C7.51448 3.3662 7.51451 3.3662 7.51451 3.33642C7.48594 3.24706 7.45735 3.18748 7.45735 3.09811C7.42877 3.03854 7.5145 3.00876 7.54307 3.03854C7.60022 3.09812 7.68592 3.15769 7.74306 3.18748C7.77163 3.18748 7.77165 3.18748 7.80022 3.18748C7.88594 3.12791 7.94307 3.09812 8.00021 3.03854C8.05735 3.00876 8.11451 3.03854 8.08594 3.09811C8.05737 3.18748 8.02878 3.24706 8.00021 3.33642C8.00021 3.3662 8.00021 3.3662 8.00021 3.39599C8.05735 3.45556 8.14305 3.51514 8.2002 3.57471C8.25734 3.6045 8.22877 3.69386 8.17163 3.69386C8.08592 3.69386 8.0002 3.69386 7.91448 3.69386C7.88591 3.69386 7.85735 3.69386 7.85735 3.72365C7.82878 3.81301 7.8002 3.90237 7.77162 3.96194C7.74305 4.02152 7.68594 4.02152 7.65737 3.96194C7.62879 3.87258 7.6002 3.81301 7.6002 3.72365C7.6002 3.69386 7.57164 3.69386 7.54307 3.69386H7.25736C7.22879 3.63428 7.14307 3.69386 7.14307 3.63429Z" fill="#F8D017"/>
<path fill-rule="evenodd" clip-rule="evenodd" d="M12.7428 3.66407H12.4571C12.4285 3.66407 12.4 3.66407 12.4 3.69386C12.3714 3.78322 12.3428 3.87259 12.3142 3.93216C12.2857 3.99174 12.2285 3.99174 12.1999 3.93216C12.1714 3.8428 12.1428 3.75343 12.1142 3.69386C12.1142 3.66407 12.0857 3.66407 12.0571 3.66407C11.9714 3.66407 11.8857 3.66407 11.8 3.66407C11.7428 3.66407 11.7142 3.6045 11.7714 3.54492C11.8285 3.48535 11.9142 3.45556 11.9714 3.39599C12 3.39599 12 3.3662 12 3.33642C11.9714 3.24706 11.9428 3.15769 11.9142 3.09811C11.8857 3.03854 11.9428 3.00876 12 3.03854C12.0571 3.09812 12.1428 3.12791 12.1999 3.18748C12.2285 3.18748 12.2285 3.18748 12.2571 3.18748C12.3428 3.12791 12.3999 3.09812 12.4571 3.03854C12.4857 3.00876 12.5714 3.03854 12.5428 3.09811C12.5142 3.18748 12.5142 3.24706 12.4857 3.33642C12.4857 3.3662 12.4857 3.39599 12.4857 3.39599C12.5428 3.45556 12.6285 3.51514 12.7142 3.57471C12.7714 3.6045 12.7714 3.63428 12.7428 3.66407Z" fill="#F8D017"/>
<path fill-rule="evenodd" clip-rule="evenodd" d="M6.51418 4.61691C6.54275 4.70628 6.54274 4.79564 6.54274 4.885C6.54274 4.91479 6.5713 4.91479 6.59987 4.91479C6.68559 4.91479 6.77131 4.94458 6.85702 4.94458C6.91416 4.94458 6.91416 5.03394 6.88559 5.06372C6.82844 5.09351 6.74274 5.15308 6.6856 5.18287C6.65703 5.18287 6.65704 5.21266 6.65704 5.24245C6.65704 5.33181 6.68559 5.42117 6.71416 5.51053C6.71416 5.57011 6.65701 5.5999 6.62844 5.57011C6.59987 5.54032 6.59988 5.54032 6.57131 5.54032C6.51416 5.48075 6.48559 5.45096 6.42845 5.39138C6.39988 5.3616 6.39989 5.3616 6.37132 5.39138C6.28561 5.42117 6.22845 5.48074 6.14274 5.51053C6.08559 5.54032 6.02844 5.48075 6.05701 5.42117C6.08558 5.33181 6.11416 5.27223 6.1713 5.21266C6.1713 5.18287 6.1713 5.15308 6.1713 5.15308C6.11416 5.09351 6.05703 5.00415 5.97131 4.94458C5.94274 4.91479 5.97131 4.82542 5.99988 4.85521C6.08559 4.85521 6.17131 4.885 6.25703 4.885C6.2856 4.885 6.31416 4.885 6.31416 4.85521C6.34273 4.76585 6.39988 4.70628 6.42845 4.61691C6.42845 4.55734 6.51418 4.58713 6.51418 4.61691Z" fill="#F8D017"/>
<path fill-rule="evenodd" clip-rule="evenodd" d="M13.7427 4.88531C13.8284 4.88531 13.9141 4.85552 13.9999 4.85552C14.057 4.85552 14.0856 4.9151 14.057 4.94489C13.9998 5.00446 13.9427 5.06404 13.8856 5.12361C13.857 5.1534 13.857 5.15339 13.8856 5.18318C13.9141 5.27254 13.9427 5.33212 13.9999 5.42148C14.0284 5.48106 13.9713 5.51084 13.9141 5.51084C13.8284 5.48105 13.7713 5.42148 13.6856 5.39169C13.657 5.39169 13.657 5.39169 13.6284 5.39169C13.5713 5.45127 13.4856 5.51084 13.4284 5.57042C13.3999 5.60021 13.3141 5.57041 13.3427 5.51084C13.3713 5.42148 13.3713 5.33212 13.3999 5.24276C13.3999 5.21297 13.3999 5.21297 13.3713 5.18318C13.3142 5.1236 13.2284 5.09382 13.1713 5.06403C13.1141 5.03424 13.1427 4.97467 13.1998 4.94489C13.2856 4.94489 13.3713 4.9151 13.4284 4.9151C13.457 4.9151 13.457 4.88531 13.4856 4.88531C13.5141 4.79595 13.5141 4.70659 13.5427 4.61722C13.5427 4.55765 13.6284 4.55765 13.657 4.58744C13.6856 4.6768 13.7141 4.73638 13.7713 4.82574C13.7141 4.88531 13.7141 4.88531 13.7427 4.88531Z" fill="#F8D017"/>
<path fill-rule="evenodd" clip-rule="evenodd" d="M11.8 9.80035C10.9715 9.77056 10.4572 9.41312 10 8.9961C9.54288 9.41312 9.02861 9.74077 8.22861 9.80035C8.17147 9.80035 8.11433 9.80035 8.08576 9.80035C7.3429 9.80035 6.60002 9.80035 5.88574 9.80035V9.83014C5.94288 9.9195 6.00001 10.0089 6.05716 10.0684C6.80001 10.128 7.65718 10.0982 8.40003 10.0684C9.11432 10.0386 9.57145 9.74078 10.0286 9.41312C10.4572 9.74078 10.9429 10.0386 11.6572 10.0684C12.4 10.0684 13.2857 10.0982 14 10.0684C14.0572 9.97907 14.1143 9.9195 14.1714 9.83014C14.0857 9.77056 13.8 9.80035 13.6572 9.80035C13.0858 9.80035 12.4857 9.80035 11.9715 9.80035C11.8857 9.80035 11.8572 9.80035 11.8 9.80035Z" fill="white"/>
<path fill-rule="evenodd" clip-rule="evenodd" d="M13.6856 10.4258C13.7142 10.4258 13.7428 10.3662 13.6856 10.396C11.2285 10.4258 8.71422 10.3662 6.28564 10.4258H6.31421C6.34278 10.4556 6.39993 10.5152 6.4285 10.545C6.51422 10.5748 6.71422 10.545 6.85707 10.545C9.05707 10.545 11.4571 10.545 13.5714 10.545C13.5999 10.4854 13.6571 10.4556 13.6856 10.4258Z" fill="white"/>
<path fill-rule="evenodd" clip-rule="evenodd" d="M13.2284 10.8725C13.257 10.8725 13.257 10.8725 13.2284 10.8725C13.257 10.8428 13.257 10.8428 13.257 10.813C11.1713 10.8428 8.97124 10.7534 6.88553 10.813C6.85695 10.813 6.74267 10.7832 6.74267 10.8428H6.77123C6.85695 10.9023 6.9141 10.9619 6.99982 11.0215C8.97125 11.0513 11.0284 11.0513 12.9998 11.0215C13.0855 10.9917 13.1427 10.9321 13.2284 10.8725Z" fill="white"/>
<path fill-rule="evenodd" clip-rule="evenodd" d="M12.6571 11.3195C12.6857 11.2897 12.6857 11.2897 12.6571 11.3195C12.4857 11.2599 12.2285 11.2897 11.9999 11.2897C10.5428 11.2897 9.05706 11.2897 7.62849 11.2897C7.54278 11.2897 7.31423 11.2599 7.37138 11.3195C7.51423 11.4088 7.68565 11.4982 7.82851 11.5875C9.25708 11.6173 10.7713 11.6173 12.1999 11.5875C12.3428 11.4982 12.5142 11.4088 12.6571 11.3195Z" fill="white"/>
<path fill-rule="evenodd" clip-rule="evenodd" d="M11.8285 11.7365C11.8571 11.7365 11.8571 11.7365 11.8285 11.7365C11.5428 11.6769 11.2285 11.7067 10.9142 11.7067C9.99995 11.7067 9.02852 11.6769 8.17138 11.7365H8.19994C8.65709 11.9152 9.14281 12.0641 9.74281 12.0641C9.79995 12.0939 9.88568 12.0641 9.97139 12.0641C9.99997 12.0641 10.0571 12.0641 10.0857 12.0641C10.1714 12.0641 10.2571 12.0939 10.3142 12.0641C10.8857 12.0641 11.3714 11.9152 11.8285 11.7365Z" fill="white"/>
<path fill-rule="evenodd" clip-rule="evenodd" d="M8.91431 6.19594C8.94288 6.82148 9.11431 7.29807 9.34288 7.68531C9.14288 7.20871 8.97146 6.70233 9.02861 6.04701C9.08575 5.18318 9.51432 4.46829 10.0286 4.08106C10.4857 4.52787 10.9143 5.18318 11 6.04701C11.0572 6.7619 10.8572 7.32787 10.6 7.80446C10.8857 7.44702 11.0858 6.88105 11.1143 6.22573C11.1429 6.19595 11.1429 6.0768 11.1143 6.0768C11.0858 5.62999 11 5.24276 10.8572 4.9151C10.9429 4.73637 11.0572 4.64701 11.1143 4.4385C11.3143 4.76616 11.4286 5.18318 11.4857 5.65978C11.4857 5.80871 11.4857 5.92786 11.4857 6.0768C11.4572 6.70233 11.2572 7.14914 11 7.53637C11 7.53637 10.9715 7.56616 11 7.56616C11.0286 7.50658 11.0858 7.50659 11.1143 7.44701C11.6572 6.97042 12.2858 6.58318 13.2572 6.5534C13.3143 6.5534 13.3715 6.5534 13.4286 6.5534C13.4572 6.5534 13.4572 6.5534 13.4857 6.5534C13.5143 6.58318 13.4286 6.64276 13.3715 6.70233C13.3429 6.76191 13.2858 6.85127 13.2572 6.88106C12.2 6.91084 11.5143 7.29807 10.9715 7.86403C11.3715 7.56616 11.9429 7.2385 12.6286 7.17893C13.2572 7.11935 13.8286 7.20871 14.2858 7.41722C14.1429 7.80446 13.9715 8.10233 13.7143 8.37042C13.6572 8.42999 13.6 8.48957 13.5429 8.54914C13.1143 8.96616 12.5715 9.26403 11.8001 9.3236C11.6858 9.3236 11.6 9.3236 11.4857 9.3236H11.5143C11.5715 9.35339 11.6572 9.35339 11.7429 9.35339C11.8 9.38318 11.9429 9.38318 12 9.35339C12.8572 9.32361 13.3715 8.96616 13.8572 8.54914C13.9143 8.60872 14.2286 8.57893 14.1715 8.66829C14.1143 8.72787 14.0286 8.78743 13.9715 8.8768C13.5143 9.29382 13 9.59169 12.2 9.65127C12.1143 9.65127 12.0286 9.65127 11.9429 9.65127C11.1429 9.59169 10.6 9.29382 10.1715 8.8768C10.1429 8.81722 10.0857 8.75765 10.0286 8.75765C10 8.81722 9.94288 8.84701 9.91431 8.8768C9.45717 9.29382 8.91433 9.59169 8.1429 9.65127C8.05718 9.65127 7.97146 9.65127 7.88575 9.65127C7.08575 9.59169 6.54291 9.29382 6.11433 8.8768C6.05719 8.81722 6.00006 8.75765 5.94291 8.69808C5.94291 8.66829 5.88577 8.66829 5.94291 8.66829C6.0572 8.66829 6.14291 8.6385 6.25719 8.60871C6.74291 9.02573 7.25719 9.38318 8.11433 9.41297C8.17148 9.44276 8.31434 9.44276 8.37148 9.41297C8.4572 9.41297 8.54289 9.41297 8.60003 9.38318H8.6286C8.54288 9.35339 8.42861 9.38318 8.31432 9.38318C7.54289 9.32361 7.00004 9.02573 6.57147 8.60871C6.51433 8.54914 6.45719 8.48956 6.40005 8.42999C6.17148 8.1619 5.97148 7.86404 5.82862 7.4768C6.28576 7.26829 6.85717 7.17892 7.48574 7.2385C8.14288 7.29807 8.71433 7.62574 9.11433 7.92361C9.14291 7.9534 9.17146 7.98318 9.20003 8.01297C9.20003 7.98318 9.17147 7.9534 9.1429 7.92361C8.57147 7.38744 7.91433 7.0002 6.85718 6.97041C6.77147 6.88105 6.68574 6.73211 6.6286 6.64275C6.65717 6.64275 6.65719 6.64275 6.68576 6.64275C6.74291 6.64275 6.80004 6.64275 6.85718 6.64275C7.80004 6.67254 8.45719 7.05977 8.97148 7.53637C9.02862 7.59594 9.05718 7.65552 9.1429 7.68531C9.1429 7.62573 9.11433 7.68531 9.11433 7.65553C9.11433 7.62574 9.08574 7.59595 9.05717 7.56616C8.8286 7.17893 8.62861 6.73212 8.60003 6.13638C8.60003 5.98744 8.60003 5.86829 8.60003 5.71936C8.62861 5.21297 8.77148 4.82574 8.94291 4.49808C9.00006 4.6768 9.11431 4.82574 9.20003 4.97468C9.08574 5.27255 8.97148 5.57042 8.94291 5.95765C8.91434 5.98744 8.94291 6.04701 8.94291 6.0768V6.10659C8.88577 6.0768 8.88574 6.16616 8.91431 6.19594ZM9.34288 7.68531C9.34288 7.74488 9.37148 7.77468 9.40005 7.80446C9.40005 7.74489 9.37146 7.71509 9.34288 7.68531Z" fill="white"/>
</g>
</svg>
