<svg width="20" height="14" viewBox="0 0 20 14" fill="none" xmlns="http://www.w3.org/2000/svg">
<mask id="mask0" mask-type="alpha" maskUnits="userSpaceOnUse" x="0" y="0" width="20" height="14">
<rect width="20" height="14" rx="2" fill="#C4C4C4"/>
</mask>
<g mask="url(#mask0)">
<path d="M20 0H0V14H20V0Z" fill="#F54747"/>
<path d="M0.943216 -1.07227L-0.485355 1.8171L7.28608 5.0639L7.85751 4.31922L0.943216 -1.07227Z" fill="#FFCE54"/>
<path d="M19.1428 -1.19141L12.2856 4.31923L12.8571 5.06391L20.5714 1.75753L19.1428 -1.19141Z" fill="#FFCE54"/>
<path d="M7.22871 9.23389L-0.571289 12.4807L0.857282 15.3701L7.80014 9.97857L7.22871 9.23389Z" fill="#FFCE54"/>
<path d="M12.8288 9.23389L12.2573 9.97857L19.143 15.4892L20.5716 12.5403L12.8288 9.23389Z" fill="#FFCE54"/>
<path d="M12.2604 7.9099C12.7435 6.69397 12.1897 5.29996 11.0234 4.7963C9.85707 4.29263 8.51996 4.87004 8.03685 6.08596C7.55375 7.30189 8.10758 8.6959 9.27388 9.19956C10.4402 9.70323 11.7773 9.12582 12.2604 7.9099Z" fill="#FFCE54"/>
<path d="M8.57178 0L9.42892 3.87234H10.5718L11.4289 0H8.57178Z" fill="#FFCE54"/>
<path d="M10.5718 10.1279H9.42892L8.57178 14.0003H11.4289L10.5718 10.1279Z" fill="#FFCE54"/>
<path d="M13.1431 6.55329V7.74477L20.0002 8.63839V5.65967L13.1431 6.55329Z" fill="#FFCE54"/>
<path d="M0 5.65967V8.63839L7.14286 7.74477V6.55329L0 5.65967Z" fill="#FFCE54"/>
</g>
</svg>
