<svg width="20" height="14" viewBox="0 0 20 14" fill="none" xmlns="http://www.w3.org/2000/svg">
<mask id="mask0" mask-type="alpha" maskUnits="userSpaceOnUse" x="0" y="0" width="20" height="14">
<rect width="20" height="14" rx="2" fill="#C4C4C4"/>
</mask>
<g mask="url(#mask0)">
<path d="M20 0H0V14H20V0Z" fill="#F5F7FA"/>
<path d="M20 0H0V0.893617H20V0Z" fill="#F54747"/>
<path d="M20 2.08496H0V2.97858H20V2.08496Z" fill="#F54747"/>
<path d="M20 4.17041H0V5.06403H20V4.17041Z" fill="#F54747"/>
<path d="M20 6.25537H0V7.14899H20V6.25537Z" fill="#F54747"/>
<path d="M20 8.34033H0V9.23395H20V8.34033Z" fill="#F54747"/>
<path d="M20 10.4253H0V11.3189H20V10.4253Z" fill="#F54747"/>
<path d="M20 12.5107H0V13.4044H20V12.5107Z" fill="#F54747"/>
<path d="M8.57143 0H0V8.6383H8.57143V0Z" fill="#4758A9"/>
<path d="M5.62839 6.16579C5.51411 6.22536 5.42838 6.25514 5.3141 6.28492C4.28553 6.61258 3.19982 5.98706 2.91411 4.91472C2.85696 4.70621 2.8284 4.4977 2.8284 4.28919C2.8284 4.08068 2.85696 3.87216 2.94267 3.66365C3.28553 2.59131 4.39983 2.02536 5.39983 2.35302C5.51411 2.38281 5.59982 2.44237 5.7141 2.47216C5.74268 2.47216 5.79981 2.47217 5.79981 2.44238C5.79981 2.41259 5.79982 2.38281 5.77125 2.35302C5.54268 2.14451 5.25696 1.96578 4.94267 1.87642C3.65696 1.4594 2.28553 2.17429 1.85696 3.51472C1.77125 3.75301 1.74267 4.0211 1.74267 4.2594C1.74267 4.49769 1.77125 4.76578 1.8284 5.00408C2.19983 6.3445 3.54268 7.11897 4.85696 6.73173C5.17125 6.64237 5.45696 6.46365 5.7141 6.25514C5.74268 6.22536 5.74267 6.19557 5.74267 6.16579C5.7141 6.16579 5.65696 6.136 5.62839 6.16579ZM7.14268 4.61685L6.8284 4.37855L7.08553 4.17004C7.17124 4.08068 7.17124 4.0211 7.02838 4.0211L6.68554 3.99132L6.79981 3.54451C6.82839 3.42536 6.77124 3.39556 6.65696 3.45514L6.28553 3.72323C6.28553 3.72323 6.28554 3.72323 6.25697 3.72323L6.11411 3.24664C6.08554 3.12749 6.0284 3.12749 5.97125 3.24664L5.8284 3.66365L5.48554 3.42536C5.39982 3.36578 5.34267 3.39557 5.37124 3.51472L5.5141 3.96152C5.5141 3.96152 5.51411 3.96152 5.48554 3.96152H5.02838C4.9141 3.96152 4.88554 4.0211 4.97125 4.11046L5.28553 4.40833L5.3141 4.43813L5.05696 4.64663C4.97125 4.73599 4.97125 4.79556 5.11411 4.79556L5.39983 4.82536L5.28553 5.24237C5.25696 5.36152 5.31411 5.42111 5.39983 5.33175L5.77125 5.06365C5.77125 5.06365 5.79981 5.06366 5.79981 5.03387C5.79981 5.03387 5.79981 5.03387 5.79981 5.06365L5.97125 5.51046C6.0284 5.62961 6.08554 5.62961 6.11411 5.51046L6.22839 5.15301L6.48554 5.33175C6.59982 5.39132 6.65696 5.36152 6.62839 5.24237L6.54268 4.82536C6.57125 4.82536 6.57124 4.82536 6.59981 4.82536L7.02838 4.79556C7.19981 4.76578 7.22839 4.67642 7.14268 4.61685Z" fill="#FFCE54"/>
</g>
</svg>
