<svg width="20" height="14" viewBox="0 0 20 14" fill="none" xmlns="http://www.w3.org/2000/svg">
<mask id="mask0" mask-type="alpha" maskUnits="userSpaceOnUse" x="0" y="0" width="20" height="14">
<rect width="20" height="14" rx="2" fill="#C4C4C4"/>
</mask>
<g mask="url(#mask0)">
<path d="M20 0H0V14H20V0Z" fill="#F54747"/>
<path d="M18 2.38281H2V11.6169H18V2.38281Z" fill="#57A863"/>
<path d="M12.0569 5.09373C11.8283 4.88522 11.5426 4.70651 11.2283 4.61714C9.9426 4.20012 8.57118 4.91502 8.14261 6.25544C8.05689 6.49374 8.02831 6.76182 8.02831 7.00012C8.02831 7.23842 8.0569 7.50651 8.11404 7.7448C8.48547 9.08523 9.82832 9.85969 11.1426 9.47246C11.4569 9.3831 11.7426 9.20438 11.9997 8.99587C12.0283 8.96608 12.0283 8.9363 12.0283 8.90651C12.0283 8.87673 11.9712 8.84693 11.9426 8.84693C11.8569 8.90651 11.7426 8.93629 11.6283 8.96607C10.5998 9.29373 9.51403 8.66821 9.22832 7.59587C9.17117 7.38736 9.14261 7.17885 9.14261 6.97034C9.14261 6.76183 9.17118 6.55331 9.2569 6.3448C9.59975 5.27246 10.714 4.70651 11.714 5.03417C11.8283 5.06396 11.914 5.12352 12.0283 5.15331C12.0569 5.15331 12.114 5.15332 12.114 5.12353C12.0855 5.12353 12.0855 5.09373 12.0569 5.09373Z" fill="#F5F7FA"/>
</g>
</svg>
