<svg width="20" height="14" viewBox="0 0 20 14" fill="none" xmlns="http://www.w3.org/2000/svg">
<mask id="mask0" mask-type="alpha" maskUnits="userSpaceOnUse" x="0" y="0" width="20" height="14">
<rect width="20" height="14" rx="2" fill="#C4C4C4"/>
</mask>
<g mask="url(#mask0)">
<path d="M9.71429 0H0V14H9.71429V0Z" fill="#F5F7FA"/>
<path d="M20.0001 0H9.71436V14H20.0001V0Z" fill="#F54747"/>
<path d="M4.85728 2.08496H4.00014C3.68585 2.08496 3.42871 2.35305 3.42871 2.68071V7.14879C3.42871 7.47645 3.68585 7.74454 4.00014 7.74454H4.85728C5.17157 7.74454 5.42871 7.47645 5.42871 7.14879V2.68071C5.42871 2.35305 5.17157 2.08496 4.85728 2.08496Z" fill="#CCD1D9"/>
<path d="M6.5715 3.87256H2.28578C1.9715 3.87256 1.71436 4.14064 1.71436 4.4683V5.36192C1.71436 5.68958 1.9715 5.95767 2.28578 5.95767H6.5715C6.88578 5.95767 7.14293 5.68958 7.14293 5.36192V4.4683C7.14293 4.14064 6.88578 3.87256 6.5715 3.87256Z" fill="#CCD1D9"/>
</g>
</svg>
