<svg width="20" height="14" viewBox="0 0 20 14" fill="none" xmlns="http://www.w3.org/2000/svg">
<mask id="mask0" mask-type="alpha" maskUnits="userSpaceOnUse" x="0" y="0" width="20" height="14">
<rect width="20" height="14" rx="2" fill="#C4C4C4"/>
</mask>
<g mask="url(#mask0)">
<path d="M20 0H0V14H20V0Z" fill="#4758A9"/>
<path d="M0 13.9106V14.2979L20.8 2.59149V0L0 13.9106Z" fill="#F6D660"/>
<path d="M20.8571 2.44238L0.0571324 14.2381H0.799983L20.8571 5.27217V2.44238Z" fill="white"/>
<path d="M5.91436 4.97435L7.85721 4.8552L5.91436 4.67648L7.20007 4.22967L5.85721 4.4084L6.97151 3.63393L5.71436 4.14031L6.5715 3.06797L5.54293 3.90201L6.02863 2.62116L5.22864 3.72329L5.40008 2.35308L4.91436 3.63393L4.74292 1.66797L4.62864 3.63393L4.11436 2.38286L4.31435 3.72329L3.51435 2.65095L4.02863 3.87222L3.00007 3.06797L3.80007 4.08073L2.65721 3.54456L3.65721 4.34882L2.40008 4.1701L3.60006 4.64669L1.71436 4.82541L3.60006 4.97435L2.40008 5.45095L3.65721 5.30201L2.65721 6.04669L3.82865 5.54031L3.02863 6.55307L4.05722 5.77861L3.54293 6.9701L4.34293 5.92754L4.14293 7.23818L4.65721 6.0169L4.7715 7.95307L4.94292 6.0169L5.40008 7.23818L5.22864 5.92754L6.02863 6.9701L5.51435 5.74882L6.51435 6.58286L5.71436 5.54031L6.91436 6.04669L5.85721 5.24244L7.17149 5.48074L5.91436 4.97435Z" fill="#F5F7FA"/>
</g>
</svg>
