<svg width="20" height="14" viewBox="0 0 20 14" fill="none" xmlns="http://www.w3.org/2000/svg">
<mask id="mask0" mask-type="alpha" maskUnits="userSpaceOnUse" x="0" y="0" width="20" height="14">
<rect width="20" height="14" rx="2" fill="#C4C4C4"/>
</mask>
<g mask="url(#mask0)">
<path d="M20 0H0V14H20V0Z" fill="#57A863"/>
<path d="M8.31423 4.31929L9.08566 4.58737C9.28566 4.64695 9.42852 4.88525 9.42852 5.09376V5.86822C9.42852 6.07673 9.54281 6.10652 9.65709 5.95759L10.1428 5.42141C10.2857 5.27248 10.5428 5.18312 10.7428 5.24269L11.4571 5.4512C11.6571 5.51078 11.7142 5.42142 11.5999 5.24269L11.2 4.58737C11.0857 4.40865 11.0857 4.14057 11.2 3.96184L11.5999 3.33631C11.7142 3.15759 11.6285 3.06822 11.4571 3.1278L10.8285 3.30652C10.6285 3.3661 10.3714 3.27673 10.2571 3.09801L9.77138 2.47248C9.6571 2.32354 9.54281 2.35333 9.51423 2.56184L9.48567 3.33631C9.48567 3.54482 9.31424 3.75333 9.11424 3.81291L8.34281 4.08099C8.11424 4.14056 8.11423 4.25971 8.31423 4.31929ZM13.8285 6.31503C13.6857 5.77886 13.4285 5.27248 13.0857 4.85546C13.0571 4.82567 13 4.79589 12.9714 4.79589C12.9142 4.82567 12.8857 4.88525 12.8857 4.94482C12.8857 4.94482 12.8857 4.94482 12.8857 4.97461C12.9714 5.15333 13.0285 5.30227 13.0857 5.51078C13.5714 7.26822 12.6285 9.11503 10.9142 9.59163C10.6 9.68099 10.2571 9.74057 9.94281 9.71078C9.62852 9.71078 9.28567 9.6512 8.97139 9.53205C7.28567 8.9661 6.37138 7.05971 6.91424 5.33205C6.97138 5.15333 7.02853 4.97461 7.11425 4.82567C7.14282 4.7661 7.11424 4.70652 7.0571 4.67673C6.99996 4.64695 6.97138 4.67674 6.94281 4.70652C6.59995 5.12354 6.3428 5.60014 6.17137 6.13631C5.48566 8.31078 6.65709 10.664 8.7428 11.4087C9.1428 11.5576 9.54281 11.6172 9.91424 11.6172C10.3142 11.6172 10.7142 11.5874 11.0857 11.4682C13.2571 10.8427 14.4571 8.54907 13.8285 6.31503Z" fill="#F6D660"/>
</g>
</svg>
