<svg width="20" height="14" viewBox="0 0 20 14" fill="none" xmlns="http://www.w3.org/2000/svg">
<mask id="mask0" mask-type="alpha" maskUnits="userSpaceOnUse" x="0" y="0" width="20" height="14">
<rect width="20" height="14" rx="2" fill="#C4C4C4"/>
</mask>
<g mask="url(#mask0)">
<path d="M13.4284 0H6.57129V14H13.4284V0Z" fill="#F5F7FA"/>
<path d="M20.0001 0H13.4287V14H20.0001V0Z" fill="#F54747"/>
<path d="M6.57143 0H0V14H6.57143V0Z" fill="#57A863"/>
<path d="M10.0001 9.53207C11.2624 9.53207 12.2858 8.46518 12.2858 7.14909C12.2858 5.83301 11.2624 4.76611 10.0001 4.76611C8.7377 4.76611 7.71436 5.83301 7.71436 7.14909C7.71436 8.46518 8.7377 9.53207 10.0001 9.53207Z" fill="#F6D660"/>
<path d="M11.4287 9.23409L10.943 6.25537H9.51439C9.40011 6.25537 9.22868 6.34474 9.14297 6.46389L8.54298 7.41707H9.48583L9.20011 9.23409H11.4287Z" fill="#F5F7FA"/>
</g>
</svg>
