<svg width="20" height="14" viewBox="0 0 20 14" fill="none" xmlns="http://www.w3.org/2000/svg">
<mask id="mask0" mask-type="alpha" maskUnits="userSpaceOnUse" x="0" y="0" width="20" height="14">
<rect width="20" height="14" rx="2" fill="#C4C4C4"/>
</mask>
<g mask="url(#mask0)">
<path d="M20 0H0V14H20V0Z" fill="#3BAFDA"/>
<path d="M8.05709 6.85064L7.62852 6.82086C7.48566 6.82086 7.37137 6.70171 7.31422 6.58256L7.1428 6.10596C7.11423 5.98681 7.02852 5.98681 6.97138 6.10596L6.77138 6.58256C6.71423 6.70171 6.57137 6.79107 6.42852 6.79107H5.88565C5.74279 6.79107 5.74281 6.85064 5.82852 6.94L6.25709 7.26766C6.37138 7.35703 6.39994 7.50597 6.37137 7.6549L6.19995 8.13149C6.14281 8.25064 6.19994 8.31022 6.31422 8.25065L6.71423 8.04213C6.82852 7.98256 6.99995 7.98256 7.11424 8.07192L7.51423 8.36979C7.62851 8.45916 7.68565 8.39958 7.65708 8.28043L7.54281 7.80384C7.51424 7.68469 7.57138 7.50596 7.68567 7.4166L8.05709 7.11873C8.22852 6.94 8.19995 6.85064 8.05709 6.85064Z" fill="#F5F7FA"/>
<path d="M14.0571 6.85064L13.6285 6.82086C13.4857 6.82086 13.3714 6.70171 13.3142 6.58256L13.1428 6.10596C13.1142 5.98681 13.0285 5.98681 12.9714 6.10596L12.7714 6.58256C12.7142 6.70171 12.5714 6.79107 12.4285 6.79107H11.8857C11.7428 6.79107 11.7428 6.85064 11.8285 6.94L12.2571 7.26766C12.3714 7.35703 12.3999 7.50597 12.3714 7.6549L12.1999 8.13149C12.1428 8.25064 12.1999 8.31022 12.3142 8.25065L12.7142 8.04213C12.8285 7.98256 13 7.98256 13.1142 8.07192L13.5142 8.36979C13.6285 8.45916 13.6857 8.39958 13.6571 8.28043L13.5428 7.80384C13.5142 7.68469 13.5714 7.50596 13.6857 7.4166L14.0571 7.11873C14.2285 6.94 14.1999 6.85064 14.0571 6.85064Z" fill="#F5F7FA"/>
<path d="M11.2002 3.57428L10.7716 3.54449C10.6287 3.54449 10.5144 3.42534 10.4573 3.30619L10.2859 2.8296C10.2573 2.71045 10.1716 2.71045 10.1144 2.8296L9.91444 3.30619C9.8573 3.42534 9.71444 3.5147 9.57158 3.5147H9.02872C8.88586 3.5147 8.88588 3.57427 8.97159 3.66364L9.40016 3.9913C9.51445 4.08066 9.54301 4.2296 9.51444 4.37854L9.34301 4.85512C9.28587 4.97427 9.343 5.03386 9.45729 4.97428L9.8573 4.76577C9.97158 4.70619 10.143 4.70619 10.2573 4.79556L10.6573 5.09343C10.7716 5.18279 10.8287 5.12321 10.8001 5.00406L10.6859 4.52747C10.6573 4.40832 10.7144 4.22959 10.8287 4.14023L11.2002 3.84236C11.3716 3.66364 11.343 3.57428 11.2002 3.57428Z" fill="#F5F7FA"/>
<path d="M11.2002 9.82965L10.7716 9.79986C10.6287 9.79986 10.5144 9.68071 10.4573 9.56156L10.2859 9.08497C10.2573 8.96582 10.1716 8.96582 10.1144 9.08497L9.91444 9.56156C9.8573 9.68071 9.71444 9.77007 9.57158 9.77007H9.02872C8.88586 9.77007 8.88588 9.82964 8.97159 9.91901L9.40016 10.2467C9.51445 10.336 9.54301 10.485 9.51444 10.6339L9.34301 11.1105C9.28587 11.2296 9.343 11.2892 9.45729 11.2297L9.8573 11.0211C9.97158 10.9616 10.143 10.9616 10.2573 11.0509L10.6573 11.3488C10.7716 11.4382 10.8287 11.3786 10.8001 11.2594L10.6859 10.7828C10.6573 10.6637 10.7144 10.485 10.8287 10.3956L11.2002 10.0977C11.3716 9.91901 11.343 9.82965 11.2002 9.82965Z" fill="#F5F7FA"/>
</g>
</svg>
