<svg width="20" height="14" viewBox="0 0 20 14" fill="none" xmlns="http://www.w3.org/2000/svg">
<mask id="mask0" mask-type="alpha" maskUnits="userSpaceOnUse" x="0" y="0" width="20" height="14">
<rect width="20" height="14" rx="2" fill="#C4C4C4"/>
</mask>
<g mask="url(#mask0)">
<path d="M13.1426 0H6.85693V14H13.1426V0Z" fill="#4A89DC"/>
<path d="M20.0002 0H13.1431V14H20.0002V0Z" fill="#F54747"/>
<path d="M6.85714 0H0V14H6.85714V0Z" fill="#F54747"/>
<path d="M2.28585 5.95752H1.42871V9.82986H2.28585V5.95752Z" fill="#F6BB42"/>
<path d="M5.42892 5.95752H4.57178V9.82986H5.42892V5.95752Z" fill="#F6BB42"/>
<path d="M3.42892 6.85107C2.94321 6.85107 2.57178 7.23831 2.57178 7.74469C2.57178 8.25107 2.94321 8.63831 3.42892 8.63831C3.91463 8.63831 4.28606 8.25107 4.28606 7.74469C4.28606 7.23831 3.91463 6.85107 3.42892 6.85107Z" fill="#F6BB42"/>
<path d="M3.42892 3.87256C2.94321 3.87256 2.57178 4.25979 2.57178 4.76618C2.57178 5.27256 2.94321 5.65979 3.42892 5.65979C3.91463 5.65979 4.28606 5.27256 4.28606 4.76618C4.28606 4.25979 3.91463 3.87256 3.42892 3.87256Z" fill="#F6BB42"/>
<path d="M3.42892 8.93652H2.57178L3.42892 9.83014L4.28606 8.93652H3.42892Z" fill="#F6BB42"/>
</g>
</svg>
