<svg width="20" height="14" viewBox="0 0 20 14" fill="none" xmlns="http://www.w3.org/2000/svg">
<mask id="mask0" mask-type="alpha" maskUnits="userSpaceOnUse" x="0" y="0" width="20" height="14">
<rect width="20" height="14" rx="2" fill="#C4C4C4"/>
</mask>
<g mask="url(#mask0)">
<path d="M20 0H0V14H20V0Z" fill="#4758A9"/>
<mask id="mask1" mask-type="alpha" maskUnits="userSpaceOnUse" x="0" y="0" width="8" height="8">
<rect width="7.14286" height="7.14893" fill="#C4C4C4"/>
</mask>
<g mask="url(#mask1)">
<path d="M-0.0311233 -1.16666L-1.12206 -0.0293046L6.87827 8.31145L7.9692 7.1741L-0.0311233 -1.16666Z" fill="white"/>
<path d="M6.87925 -1.16353L-1.12111 7.17725L-0.0301468 8.31464L7.9702 -0.0261464L6.87925 -1.16353Z" fill="white"/>
<path d="M7.06106 -0.637126L-0.636226 7.38769L-0.232168 7.80894L7.46511 -0.215875L7.06106 -0.637126Z" fill="#F54747"/>
<path d="M-0.232168 -0.657573L-0.636226 -0.236323L7.06106 7.78849L7.46511 7.36724L-0.232168 -0.657573Z" fill="#F54747"/>
<path d="M3.99979 0H2.85693V7.14893H3.99979V0Z" fill="white"/>
<path d="M7.14286 2.97852H0V4.17H7.14286V2.97852Z" fill="white"/>
<path d="M3.71401 0H3.14258V7.14893H3.71401V0Z" fill="#F54747"/>
<path d="M7.14286 3.27637H0V3.87211H7.14286V3.27637Z" fill="#F54747"/>
</g>
<path d="M11.4287 3.87256H16.2859V7.59596C16.3144 9.05553 15.4573 10.0087 13.8858 10.4257C12.743 10.1279 11.4573 9.53212 11.4573 7.68532V3.93214V3.87256H11.4287Z" fill="#00A2BD"/>
<path d="M16.2573 8.07275C16.0858 9.47274 15.0573 10.0983 13.8858 10.4259C12.8287 10.1281 11.7144 9.65148 11.4858 8.10254L16.2573 8.07275Z" fill="#A53D08"/>
<path d="M13.7431 4.67679L13.7146 4.22998L14.0574 4.28956V4.79593H15.0003V5.0938L14.0574 5.06402V9.26401H13.7146L13.7431 5.06402H12.9145V4.67679H13.7431Z" fill="black"/>
<path d="M12.9144 8.2514L13.7715 9.20459C14.0572 8.84715 13.8573 7.56628 13.4573 7.32799C13.4001 7.47692 13.343 7.65566 13.2573 7.71523C13.0573 7.86417 12.6001 8.0131 12.7715 8.10246C12.8001 8.04289 12.8858 8.0131 12.943 8.10246C13.0001 8.28119 12.743 8.28118 12.743 8.28118C12.743 8.28118 12.6001 8.2514 12.5715 8.10246C12.543 7.92374 12.8001 7.77479 12.8287 7.77479C12.8573 7.77479 13.1716 7.68544 13.2287 7.35778C13.2858 7.05991 13.3716 7.08969 13.3716 7.08969C13.8001 7.14927 14.0858 7.95353 14.1144 8.54927C14.143 9.11523 13.8858 9.50246 13.8573 9.53225C13.8001 9.56203 12.8287 8.28118 12.8287 8.28118L12.9144 8.2514Z" fill="#FF9A08"/>
<path d="M13.9712 5.65972C14.0283 5.36185 14.0855 5.51078 14.1141 5.54056C14.1426 5.54056 14.1998 5.51078 14.2569 5.51078C14.2855 5.51078 14.4855 5.45122 14.5712 5.481C14.5998 5.481 14.6283 5.48099 14.6855 5.54056C14.7426 5.60014 14.8284 5.65972 14.7998 5.89801C14.7712 6.13631 14.7712 6.22567 14.7712 6.34482C14.7426 6.55333 14.714 6.76184 14.6283 6.73205C14.7426 6.94056 14.7426 7.1193 14.8283 7.26824C14.9141 7.41717 14.9426 7.71504 14.914 8.01292C14.8855 8.34058 14.7998 9.05546 15.0569 9.53206C15.0283 9.56184 14.9141 9.53206 14.8283 9.4427C14.7426 9.35334 14.714 9.35333 14.6283 9.4129C14.3998 9.59162 14.1998 9.80014 13.914 9.59163C13.8569 9.53206 13.8283 9.47249 13.8569 9.35334C13.9712 8.99589 13.9998 8.48951 13.9998 8.25121V5.65972H13.9712Z" fill="#008021"/>
<path d="M14.2283 5.33195C14.2569 5.39153 14.2569 5.4511 14.2283 5.51067C14.1998 5.57024 14.1998 5.62982 14.2283 5.71918C14.2855 5.62982 14.3997 5.62982 14.4569 5.57025C14.514 5.51067 14.514 5.45109 14.5712 5.45109C14.5426 5.42131 14.4569 5.36173 14.4854 5.24258C14.4854 5.12343 14.6569 5.03407 14.514 4.85535C14.4283 4.7362 14.2855 4.76599 14.2283 4.82557C14.1998 4.85536 14.1712 4.88515 14.1712 4.88515C14.1712 4.91493 14.1712 4.94472 14.1426 4.9745C14.1426 5.00429 14.114 5.0043 14.0855 5.03408C14.0855 5.03408 14.0569 5.06386 14.0855 5.06386H14.114C14.114 5.06386 14.114 5.09364 14.0855 5.09364V5.12344C14.0855 5.15323 14.0855 5.15323 14.0855 5.18302C14.0855 5.21281 14.0569 5.24259 14.114 5.27238C14.1426 5.33195 14.1998 5.33195 14.2283 5.33195Z" fill="#FFE1CF"/>
<path d="M13.6573 5.95771C13.5716 5.95771 13.4573 5.92793 13.3716 5.92793C13.343 5.92793 13.2858 5.89814 13.3144 5.86835C13.3144 5.80878 13.3144 5.74919 13.3144 5.68962C13.3144 5.60026 13.343 5.45133 13.4001 5.30239C13.4573 5.15345 13.4858 5.06409 13.4858 5.00452C13.4858 4.94494 13.4859 4.91517 13.543 4.88538C13.5716 4.85559 13.5716 4.85559 13.6001 4.8258C13.6287 4.79601 13.6573 4.76622 13.6573 4.796V4.8258C13.6859 4.79601 13.7144 4.76622 13.743 4.76622C13.743 4.76622 13.8002 4.70665 13.8002 4.76622C13.8287 4.76622 13.8287 4.76622 13.8287 4.76622V4.796C13.8287 4.796 13.8573 4.82579 13.8287 4.85558C13.8573 4.85558 13.8573 4.88537 13.8287 4.91516C13.8002 4.94495 13.7716 4.94495 13.7716 4.97474C13.7716 5.00452 13.6859 5.0641 13.6573 5.0641C13.6287 5.0641 13.6287 5.09389 13.6287 5.12367C13.6287 5.60027 13.5716 5.54069 13.5716 5.65984C13.5716 5.68963 13.6001 5.71942 13.6287 5.71942C13.6573 5.71942 13.7716 5.68962 13.7716 5.68962V5.98749H13.6573V5.95771Z" fill="#FFE1CF"/>
<path d="M13.6857 6.94091C13.8285 6.88134 13.9714 6.85156 14.0285 6.82177C14.1142 6.79199 14.2285 6.7324 14.2856 6.70262C14.3428 6.67283 14.3999 6.61326 14.4285 6.61326C14.4571 6.61326 14.5142 6.58348 14.5142 6.5239C14.6285 6.2856 14.6857 6.10687 14.6857 5.95794C14.6857 5.83879 14.6571 5.74943 14.5714 5.809C14.4856 5.89836 14.3713 6.0473 14.3428 6.16645C14.3142 6.34517 14.2571 6.37496 14.2571 6.40475C14.2571 6.43453 14.2285 6.43453 14.1714 6.43453C13.9999 6.46431 13.9714 6.49411 13.8285 6.61326C13.7142 6.70262 13.5713 6.79198 13.4856 6.85155C13.3999 6.91113 13.3714 6.91112 13.3714 6.94091C13.3428 6.9707 13.3428 7.03027 13.3142 7.03027C13.2856 7.06006 13.2856 7.06006 13.2856 7.08985C13.2856 7.11963 13.2856 7.209 13.2856 7.23878C13.2856 7.26857 13.2856 7.26858 13.3142 7.26858C13.3142 7.26858 13.3428 7.26857 13.3428 7.23878C13.3428 7.26857 13.3714 7.26857 13.3999 7.23878C13.3999 7.26857 13.4571 7.26858 13.4571 7.209C13.4571 7.23879 13.4856 7.209 13.4856 7.209C13.4856 7.17922 13.5142 7.14943 13.5142 7.11965C13.5428 7.08986 13.5428 7.03028 13.5714 7.00049C13.6285 7.00049 13.5999 6.9707 13.6857 6.94091Z" fill="#FFE1CF"/>
<path d="M14.6001 9.3833C14.6001 9.41309 14.6287 9.44287 14.6287 9.47266C14.6287 9.50245 14.6287 9.50246 14.6287 9.50246C14.6001 9.56203 14.5715 9.68118 14.5715 9.74075C14.5715 9.77054 14.543 9.80032 14.543 9.83011C14.543 9.8599 14.543 9.8599 14.5715 9.88969C14.5715 9.88969 14.6287 9.88968 14.6287 9.85989C14.6287 9.88968 14.6573 9.85989 14.6858 9.85989C14.6858 9.85989 14.7144 9.8599 14.743 9.83011C14.743 9.83011 14.7715 9.83012 14.7715 9.80033C14.8001 9.80033 14.8001 9.80032 14.8001 9.77053V9.74075C14.8001 9.74075 14.8001 9.71096 14.8001 9.68118C14.8001 9.65139 14.8001 9.6216 14.8287 9.6216C14.8573 9.6216 14.8573 9.56203 14.8573 9.53224C14.8573 9.50245 14.8287 9.50246 14.8287 9.44288C14.8001 9.41309 14.743 9.35352 14.7144 9.35352C14.6573 9.35352 14.6287 9.3833 14.6001 9.3833Z" fill="#FFE1CF"/>
<path d="M13.7998 9.65138C13.8284 9.68117 13.9427 9.68116 13.9998 9.62158C13.9712 9.62158 13.9141 9.59179 13.9141 9.562C13.8569 9.62158 13.8284 9.65138 13.7998 9.65138Z" fill="#FFE1CF"/>
<path d="M14.1997 4.85542C14.2283 4.73627 14.2854 4.73627 14.3425 4.76606C14.3711 4.76606 14.3997 4.76606 14.4568 4.76606C14.5426 4.73627 14.5997 4.76606 14.5997 4.85542C14.6283 4.88521 14.6568 4.91499 14.6283 4.94478C14.6283 4.97456 14.6283 5.00435 14.6569 5.00435C14.6854 5.00435 14.7426 5.06392 14.714 5.09371C14.7426 5.1235 14.7997 5.18307 14.7711 5.24265C14.7425 5.30222 14.6854 5.30222 14.6569 5.24265C14.6283 5.27243 14.5711 5.27244 14.5426 5.21287C14.514 5.24265 14.4568 5.24265 14.4568 5.21287C14.4568 5.18308 14.4283 5.18309 14.3997 5.18309C14.3711 5.18309 14.3711 5.1235 14.3997 5.09371C14.3997 5.06392 14.3997 5.06394 14.3997 5.03415C14.3997 5.03415 14.3997 5.00436 14.3711 4.97457C14.3426 4.94479 14.3425 4.88521 14.3425 4.85542C14.314 4.85542 14.2283 4.82563 14.2283 4.79584C14.2283 4.85541 14.2283 4.85542 14.1997 4.85542Z" fill="#870F00"/>
<path d="M14.1711 4.97467C14.1997 5.00446 14.1997 5.00445 14.2283 5.00445C14.2283 5.03424 14.2283 5.03425 14.2283 5.03425C14.2283 5.03425 14.2283 5.03425 14.1997 5.03425H14.1711H14.1426C14.1426 5.03425 14.1711 5.00446 14.1711 4.97467C14.1997 4.97467 14.1997 4.97467 14.1711 4.97467C14.1711 4.97467 14.1711 4.94488 14.1711 4.97467Z" fill="black"/>
<path d="M14.1996 4.94482C14.2282 4.94482 14.2568 4.97462 14.2854 4.97462C14.3139 5.0044 14.2854 4.97461 14.2854 5.0044C14.2854 5.0044 14.2568 5.0044 14.2568 4.97462C14.2282 4.97462 14.1996 4.94482 14.1996 4.94482C14.1711 4.94482 14.1711 4.94482 14.1996 4.94482Z" fill="black"/>
</g>
</svg>
