<svg width="20" height="14" viewBox="0 0 20 14" fill="none" xmlns="http://www.w3.org/2000/svg">
<mask id="mask0" mask-type="alpha" maskUnits="userSpaceOnUse" x="0" y="0" width="20" height="14">
<rect width="20" height="14" rx="2" fill="#C4C4C4"/>
</mask>
<g mask="url(#mask0)">
<path d="M20 0H0V14H20V0Z" fill="#F54747"/>
<path d="M12.7141 6.58301C12.9427 6.3745 12.8855 6.166 12.5712 6.166H11.3427C11.0284 6.166 10.6569 5.89791 10.5712 5.57025L10.1141 4.25961C9.99981 3.93195 9.82836 3.96173 9.74265 4.25961L9.37122 5.60003C9.28551 5.92769 8.94266 6.19578 8.62837 6.19578L7.42837 6.22557C7.11408 6.22557 7.05694 6.43407 7.28551 6.64258L8.14266 7.41706C8.3998 7.62557 8.51408 8.07238 8.45694 8.40004L8.17122 9.62131C8.08551 9.94897 8.25694 10.0681 8.51408 9.8596L9.51408 9.11492C9.77122 8.90641 10.2284 8.90642 10.4855 9.08514L11.4855 9.71067C11.7712 9.88939 11.9141 9.77025 11.8284 9.44259L11.5427 8.37024C11.457 8.04258 11.5712 7.59578 11.8284 7.38726L12.7141 6.58301Z" fill="#57A863"/>
</g>
</svg>
