<svg width="20" height="14" viewBox="0 0 20 14" fill="none" xmlns="http://www.w3.org/2000/svg">
<mask id="mask0" mask-type="alpha" maskUnits="userSpaceOnUse" x="0" y="0" width="20" height="14">
<rect width="20" height="14" rx="2" fill="#C4C4C4"/>
</mask>
<g mask="url(#mask0)">
<path d="M20 4.76611H0V9.2342H20V4.76611Z" fill="#57A863"/>
<path d="M20 0H0V4.76596H20V0Z" fill="#F6D660"/>
<path d="M20 9.23389H0V13.9998H20V9.23389Z" fill="#F54747"/>
<path d="M13.6572 6.40445C13.9715 6.10658 13.8857 5.8385 13.4572 5.8385L11.8 5.80871C11.3715 5.80871 10.8857 5.45126 10.7429 5.00445L10.1429 3.15765C10 2.71084 9.77145 2.71084 9.65717 3.18743L9.14288 5.06403C9.0286 5.51084 8.57145 5.89807 8.14288 5.89807L6.51431 5.95764C6.08574 5.95764 6.00002 6.22573 6.3143 6.55339L7.45716 7.62573C7.77145 7.9236 7.97145 8.54913 7.85717 9.02573L7.48574 10.7236C7.37146 11.1704 7.60002 11.3491 7.94288 11.0513L9.28574 10.0087C9.6286 9.74062 10.2286 9.71084 10.6 9.94913L11.9429 10.8428C12.3143 11.081 12.5143 10.9321 12.4 10.4555L12 8.96616C11.8857 8.51935 12.0572 7.89382 12.3715 7.56616L13.6572 6.40445Z" fill="white"/>
</g>
</svg>
