<svg width="20" height="14" viewBox="0 0 20 14" fill="none" xmlns="http://www.w3.org/2000/svg">
<mask id="mask0" mask-type="alpha" maskUnits="userSpaceOnUse" x="0" y="0" width="20" height="14">
<rect width="20" height="14" rx="2" fill="#C4C4C4"/>
</mask>
<g mask="url(#mask0)">
<path d="M19.9995 0H-0.000488281V14H19.9995V0Z" fill="#57A863"/>
<path fill-rule="evenodd" clip-rule="evenodd" d="M-0.000488281 0H17.7138L7.99951 8.69787L-0.000488281 11.617V0Z" fill="#4758A9"/>
<path d="M2.85624 2.08545C2.22766 2.08545 1.71338 2.62162 1.71338 3.27694C1.71338 3.93226 2.22766 4.46843 2.85624 4.46843C3.48481 4.46843 3.99909 3.93226 3.99909 3.27694C3.99909 2.62162 3.48481 2.08545 2.85624 2.08545Z" fill="#F6D660"/>
<path d="M19.3115 -1.63134L-1.19531 11.9321L1.06994 15.6547L21.5768 2.09121L19.3115 -1.63134Z" fill="#E6E9ED"/>
<path d="M19.7705 -0.876946L-0.736325 12.6865L0.641189 14.9502L21.148 1.38676L19.7705 -0.876946Z" fill="#F54747"/>
</g>
</svg>
