<svg width="20" height="14" viewBox="0 0 20 14" fill="none" xmlns="http://www.w3.org/2000/svg">
<mask id="mask0" mask-type="alpha" maskUnits="userSpaceOnUse" x="0" y="0" width="20" height="14">
<rect width="20" height="14" rx="2" fill="#C4C4C4"/>
</mask>
<g mask="url(#mask0)">
<path d="M20 0H0V14H20V0Z" fill="#4758A9"/>
<path d="M20 6.55322H0V7.44684H20V6.55322Z" fill="#F6D660"/>
<path d="M5.88548 11.081L5.42835 10.7235L5.85692 10.3065C5.99978 10.1874 5.97121 10.0682 5.77121 10.0682H5.11407L5.22834 9.35331C5.25692 9.1448 5.17121 9.08522 4.99978 9.20437L4.54264 9.59161L4.31406 8.93629C4.25691 8.75757 4.14263 8.75757 4.08549 8.93629L3.88548 9.71076H3.85692L3.1712 9.26395C2.99977 9.1448 2.94263 9.23416 2.99978 9.41289L3.28549 10.1278L2.71406 10.1576C2.51406 10.1576 2.48549 10.2767 2.62835 10.3959L3.08549 10.8129L2.62835 11.2001C2.48549 11.3193 2.51406 11.4384 2.71406 11.4384L3.28549 11.4682L3.11407 12.1533C3.05693 12.3618 3.1712 12.4214 3.31406 12.3022L3.91407 11.8554L4.22834 12.5108C4.31406 12.6895 4.42835 12.6895 4.48549 12.5108L4.62835 11.9448L5.08549 12.2427C5.25692 12.3618 5.34263 12.2725 5.28549 12.0937L5.11407 11.4384V11.4086L5.79977 11.3193C6.02834 11.2895 6.05691 11.2001 5.88548 11.081Z" fill="white"/>
</g>
</svg>
