<svg width="20" height="14" viewBox="0 0 20 14" fill="none" xmlns="http://www.w3.org/2000/svg">
<mask id="mask0" mask-type="alpha" maskUnits="userSpaceOnUse" x="0" y="0" width="20" height="14">
<rect width="20" height="14" rx="2" fill="#C4C4C4"/>
</mask>
<g mask="url(#mask0)">
<path d="M20 0H0V14H20V0Z" fill="#F5F7FA"/>
<path d="M0 0L7.71429 7.74468H1.71429L7.71429 14H0V0Z" fill="#F54747"/>
<path d="M3.08594 11.3488L2.82881 11.1701L3.08594 10.9616C3.17165 10.902 3.14308 10.8425 3.02879 10.8425H2.65737L2.71451 10.4552C2.74309 10.3361 2.68594 10.3063 2.60022 10.3956L2.31451 10.6042L2.17165 10.2467C2.14308 10.1573 2.08595 10.1573 2.05738 10.2467L1.94308 10.6637C1.94308 10.6637 1.94309 10.6637 1.91452 10.6637L1.51451 10.4254C1.4288 10.3659 1.37166 10.3956 1.4288 10.5148L1.60022 10.902H1.25738C1.14309 10.902 1.11452 10.9616 1.20023 11.051L1.48595 11.2893L1.2288 11.4978C1.14308 11.5573 1.17166 11.6169 1.28594 11.6467L1.6288 11.6765L1.54309 12.0637C1.51452 12.1829 1.57165 12.2127 1.65737 12.1531L2.00023 11.9148L2.17165 12.2722C2.22879 12.3616 2.28594 12.3616 2.31451 12.2722L2.40024 11.9744L2.68595 12.1531C2.77166 12.2127 2.8288 12.1829 2.80023 12.0637L2.68595 11.7063V11.6765L3.08594 11.6467C3.17165 11.468 3.17165 11.4084 3.08594 11.3488Z" fill="white"/>
<path d="M3.62875 4.73637C3.57161 4.52786 3.45731 4.34914 3.31445 4.2002C3.31445 4.2002 3.2859 4.17041 3.25733 4.17041C3.22875 4.17041 3.22874 4.2002 3.22874 4.22998C3.25732 4.28956 3.28588 4.34913 3.31445 4.43849C3.54303 5.09381 3.20018 5.8385 2.54304 6.04701C2.42875 6.07679 2.28588 6.10658 2.1716 6.10658C2.05731 6.10658 1.91446 6.10658 1.80017 6.07679C1.14303 5.89807 0.743037 5.18318 0.914466 4.52786C0.943037 4.46828 0.971605 4.37892 1.00018 4.31935C1.00018 4.28956 1.00018 4.25977 0.971612 4.25977C0.94304 4.25977 0.943037 4.25977 0.914466 4.28956C0.80018 4.43849 0.685894 4.64701 0.628751 4.85552C0.40018 5.71935 0.885891 6.58317 1.71446 6.82147C1.85732 6.85126 2.02874 6.88105 2.1716 6.88105C2.31446 6.88105 2.48589 6.85126 2.62875 6.79169C3.48589 6.46403 3.91447 5.57041 3.62875 4.73637Z" fill="white"/>
<path d="M3.08594 5.68966L2.82881 5.51093L3.08594 5.30242C3.17165 5.24285 3.14308 5.18327 3.02879 5.18327H2.65737L2.71451 4.79604C2.74309 4.67689 2.68594 4.6471 2.60022 4.73646L2.31451 4.94498L2.17165 4.58753C2.14308 4.49817 2.08595 4.49817 2.05738 4.58753L1.94308 5.00455C1.94308 5.00455 1.94309 5.00455 1.91452 5.00455L1.51451 4.76625C1.4288 4.70668 1.37166 4.73647 1.4288 4.85562L1.60022 5.24285H1.25738C1.14309 5.24285 1.11452 5.30242 1.20023 5.39179L1.48595 5.63008L1.2288 5.8386C1.14308 5.89817 1.17166 5.95774 1.28594 5.98753L1.6288 6.01732L1.54309 6.40455C1.51452 6.5237 1.57165 6.55349 1.65737 6.49391L2.00023 6.25561L2.17165 6.61306C2.22879 6.70242 2.28594 6.70242 2.31451 6.61306L2.40024 6.31519L2.68595 6.49391C2.77166 6.55349 2.8288 6.5237 2.80023 6.40455L2.68595 6.0471V6.01732L3.08594 5.98753C3.17165 5.80881 3.17165 5.74923 3.08594 5.68966Z" fill="white"/>
</g>
</svg>
