<svg width="20" height="14" viewBox="0 0 20 14" fill="none" xmlns="http://www.w3.org/2000/svg">
<mask id="mask0" mask-type="alpha" maskUnits="userSpaceOnUse" x="0" y="0" width="20" height="14">
<rect width="20" height="14" rx="2" fill="#C4C4C4"/>
</mask>
<g mask="url(#mask0)">
<path d="M20 0H0V14H20V0Z" fill="#4758A9"/>
<path d="M13.3716 2.68073C13.4573 2.59136 13.4287 2.53179 13.3145 2.53179H12.8859C12.7716 2.53179 12.6573 2.44242 12.6002 2.32328L12.4287 1.87647C12.4002 1.75732 12.343 1.75732 12.3145 1.87647L12.1716 2.35307C12.143 2.47221 12.0287 2.56158 11.9145 2.56158H11.4859C11.3716 2.56158 11.343 2.62115 11.4287 2.71052L11.7145 2.9786C11.8002 3.06796 11.8573 3.2169 11.8288 3.33605L11.743 3.75307C11.7145 3.87222 11.7716 3.902 11.8573 3.84243L12.2002 3.57434C12.2859 3.51477 12.4573 3.51477 12.543 3.57434L12.8859 3.81264C12.9716 3.87221 13.0287 3.84243 13.0002 3.72328L12.8859 3.33605C12.8573 3.2169 12.8859 3.06796 12.9716 2.9786L13.3716 2.68073Z" fill="#F54747"/>
<path d="M16.7998 3.87213C16.8855 3.78277 16.857 3.7232 16.7427 3.7232H16.3141C16.1998 3.7232 16.0855 3.63383 16.0284 3.51468L15.857 3.06787C15.8284 2.94872 15.7712 2.94872 15.7427 3.06787L15.5998 3.54447C15.5712 3.66362 15.457 3.75299 15.3427 3.75299H14.9141C14.7998 3.75299 14.7713 3.81256 14.857 3.90192L15.1427 4.17C15.2284 4.25937 15.2855 4.40831 15.257 4.52746L15.1712 4.94447C15.1427 5.06362 15.1998 5.09341 15.2855 5.03383L15.6284 4.76575C15.7141 4.70617 15.8855 4.70617 15.9713 4.76575L16.3141 5.00404C16.3998 5.06362 16.457 5.03383 16.4284 4.91469L16.3141 4.52746C16.2855 4.40831 16.3141 4.25937 16.3998 4.17L16.7998 3.87213Z" fill="#F54747"/>
<path d="M11.6572 5.95758C11.743 5.86822 11.7144 5.80865 11.6001 5.80865H11.1715C11.0572 5.80865 10.943 5.71928 10.8858 5.60013L10.7144 5.15332C10.6858 5.03417 10.6287 5.03417 10.6001 5.15332L10.4572 5.62992C10.4287 5.74907 10.3144 5.83843 10.2001 5.83843H9.77154C9.65725 5.83843 9.62867 5.89801 9.71439 5.98737L10.0001 6.25545C10.0858 6.34482 10.143 6.49376 10.1144 6.6129L10.0287 7.02992C10.0001 7.14907 10.0572 7.17886 10.143 7.11928L10.4858 6.8512C10.5715 6.79162 10.743 6.79162 10.8287 6.8512L11.1715 7.08949C11.2572 7.14907 11.3144 7.11928 11.2858 7.00014L11.1715 6.6129C11.143 6.49376 11.1715 6.34482 11.2573 6.25545L11.6572 5.95758Z" fill="#F54747"/>
<path d="M15.3998 7.77458C15.4569 7.71501 15.4569 7.68521 15.3712 7.68521H15.0569C14.9712 7.68521 14.8855 7.62564 14.8569 7.53628L14.7426 7.20863C14.7141 7.11926 14.6855 7.11926 14.6569 7.20863L14.5712 7.53628C14.5426 7.62564 14.4569 7.68521 14.3712 7.68521H14.0855C13.9998 7.68521 13.9998 7.74479 14.0569 7.77458L14.2569 7.95331C14.3141 8.01288 14.3426 8.13203 14.3426 8.1916L14.2855 8.48947C14.2569 8.57883 14.3141 8.60863 14.3712 8.54905L14.6283 8.37033C14.6855 8.31075 14.7998 8.31075 14.8855 8.37033L15.1426 8.51926C15.1998 8.54905 15.2569 8.51926 15.2283 8.45968L15.1426 8.1916C15.1141 8.10224 15.1426 8.01288 15.1998 7.95331L15.3998 7.77458Z" fill="#F54747"/>
<mask id="mask1" mask-type="alpha" maskUnits="userSpaceOnUse" x="0" y="0" width="8" height="8">
<rect width="7.14286" height="7.14894" fill="#C4C4C4"/>
</mask>
<g mask="url(#mask1)">
<path d="M-0.029158 -1.1657L-1.12012 -0.0283152L6.88021 8.31245L7.97117 7.17507L-0.029158 -1.1657Z" fill="white"/>
<path d="M6.8807 -1.16401L-1.11963 7.17675L-0.0286697 8.31414L7.97166 -0.0266307L6.8807 -1.16401Z" fill="white"/>
<path d="M7.06301 -0.637136L-0.634272 7.38769L-0.230215 7.80894L7.46707 -0.215885L7.06301 -0.637136Z" fill="#F54747"/>
<path d="M-0.23022 -0.658067L-0.634277 -0.236816L7.06301 7.78802L7.46707 7.36676L-0.23022 -0.658067Z" fill="#F54747"/>
<path d="M3.99979 0H2.85693V7.14894H3.99979V0Z" fill="white"/>
<path d="M7.14286 2.97852H0V4.17H7.14286V2.97852Z" fill="white"/>
<path d="M3.71449 0H3.14307V7.14894H3.71449V0Z" fill="#F54747"/>
<path d="M7.14286 3.27637H0V3.87211H7.14286V3.27637Z" fill="#F54747"/>
</g>
</g>
</svg>
