<svg width="20" height="14" viewBox="0 0 20 14" fill="none" xmlns="http://www.w3.org/2000/svg">
<mask id="mask0" mask-type="alpha" maskUnits="userSpaceOnUse" x="0" y="0" width="20" height="14">
<rect width="20" height="14" rx="2" fill="#C4C4C4"/>
</mask>
<g mask="url(#mask0)">
<path d="M20 4.76611H0V9.2342H20V4.76611Z" fill="#F5F7FA"/>
<path d="M20 0H0V4.76596H20V0Z" fill="#4A89DC"/>
<path d="M20 9.23389H0V13.9998H20V9.23389Z" fill="#4A89DC"/>
<path d="M10.0001 5.83841C10.6287 5.83841 11.1144 6.3448 11.1144 7.00011C11.1144 7.65543 10.6287 8.16181 10.0001 8.16181C9.37157 8.16181 8.88585 7.65543 8.88585 7.00011C8.88585 6.3448 9.37157 5.83841 10.0001 5.83841ZM10.0001 5.36182C9.143 5.36182 8.42871 6.1065 8.42871 7.00011C8.42871 7.89373 9.143 8.63841 10.0001 8.63841C10.8573 8.63841 11.5716 7.89373 11.5716 7.00011C11.5716 6.1065 10.8573 5.36182 10.0001 5.36182Z" fill="#FFCE54"/>
</g>
</svg>
