<svg width="20" height="14" viewBox="0 0 20 14" fill="none" xmlns="http://www.w3.org/2000/svg">
<mask id="mask0" mask-type="alpha" maskUnits="userSpaceOnUse" x="0" y="0" width="20" height="14">
<rect width="20" height="14" rx="2" fill="#C4C4C4"/>
</mask>
<g mask="url(#mask0)">
<path d="M20.0002 0H5.14307V14H20.0002V0Z" fill="#57A863"/>
<path d="M13.5998 5.86798L12.8856 5.89776C12.6856 5.89776 12.657 6.0169 12.7998 6.13605L13.3141 6.58286C13.457 6.70201 13.5427 6.9701 13.4856 7.14882L13.3141 7.83393C13.257 8.01265 13.3713 8.07223 13.5141 7.98286L14.0856 7.56585C14.2284 7.4467 14.4856 7.44669 14.657 7.53605L15.2284 7.89351C15.3998 7.98287 15.4856 7.92329 15.4284 7.74457L15.257 7.11904C15.1999 6.94032 15.2856 6.67223 15.4284 6.55308L15.9713 6.07649C16.1141 5.95734 16.0856 5.83818 15.8856 5.83818H15.1713C14.9713 5.83818 14.7713 5.68925 14.7141 5.51053L14.457 4.76585C14.3998 4.58712 14.2856 4.58712 14.257 4.76585L14.0284 5.51053C13.9998 5.68925 13.7998 5.86798 13.5998 5.86798ZM16.1141 8.72754C16.0856 8.66797 15.9999 8.66798 15.9713 8.69776C15.857 8.81691 15.7427 8.93607 15.5998 9.05521C14.2856 10.1276 12.3999 9.88925 11.3427 8.57861C11.1427 8.31052 10.9998 8.04244 10.8856 7.74457C10.7713 7.4467 10.6856 7.14883 10.6856 6.82117C10.5713 5.1233 11.7998 3.63393 13.457 3.51478C13.6284 3.51478 13.7999 3.51478 13.9713 3.51478C13.9713 3.51478 13.9713 3.51478 13.9999 3.51478C14.057 3.51478 14.0856 3.45521 14.0856 3.39564C14.0856 3.33607 14.057 3.30626 13.9999 3.30626C13.5427 3.15733 13.0284 3.06797 12.5141 3.12755C10.4284 3.27648 8.85699 5.15308 9.02841 7.29776C9.05699 7.68499 9.14271 8.07223 9.28556 8.42967C9.42842 8.78712 9.59985 9.11477 9.85699 9.41265C11.1713 11.0807 13.5427 11.3488 15.1999 10.0084C15.5999 9.68073 15.9427 9.26372 16.1713 8.8467C16.1427 8.81691 16.1427 8.75733 16.1141 8.72754Z" fill="#F5F7FA"/>
<path d="M5.14286 0H0V14H5.14286V0Z" fill="#F5F7FA"/>
</g>
</svg>
