<svg width="20" height="14" viewBox="0 0 20 14" fill="none" xmlns="http://www.w3.org/2000/svg">
<mask id="mask0" mask-type="alpha" maskUnits="userSpaceOnUse" x="0" y="0" width="20" height="14">
<rect width="20" height="14" rx="2" fill="#C4C4C4"/>
</mask>
<g mask="url(#mask0)">
<path d="M10 0H0V7.14894H10V0Z" fill="#F5F7FA"/>
<path d="M20 7.14893H10V14H20V7.14893Z" fill="#F5F7FA"/>
<path d="M20 0H10V7.14894H20V0Z" fill="#F54747"/>
<path d="M10 7.14893H0V14H10V7.14893Z" fill="#4758A9"/>
<path d="M6.37118 3.36618C6.48547 3.24703 6.4569 3.15767 6.28547 3.15767H5.68548C5.51405 3.15767 5.34261 3.03852 5.28547 2.85979L5.0569 2.20448C4.99976 2.05554 4.91403 2.05554 4.88546 2.20448L4.68548 2.85979C4.62833 3.00873 4.45689 3.15767 4.31403 3.15767L3.71404 3.18745C3.54261 3.18745 3.51404 3.27682 3.65689 3.39597L4.08547 3.7832C4.19975 3.90235 4.28547 4.11086 4.22832 4.28958L4.08547 4.88533C4.05689 5.03426 4.11405 5.09384 4.25691 5.00448L4.74261 4.64703C4.88546 4.55767 5.08547 4.52788 5.22832 4.61724L5.71404 4.9449C5.8569 5.03426 5.91403 4.97469 5.88546 4.79596L5.74261 4.2598C5.68546 4.11086 5.77118 3.87256 5.88546 3.75341L6.37118 3.36618Z" fill="#4758A9"/>
<path d="M16.3712 10.3662C16.4855 10.247 16.4569 10.1577 16.2855 10.1577H15.6855C15.514 10.1577 15.3426 10.0385 15.2855 9.85979L15.0569 9.20448C14.9998 9.05554 14.914 9.05554 14.8855 9.20448L14.6855 9.85979C14.6283 10.0087 14.4569 10.1577 14.314 10.1577L13.714 10.1875C13.5426 10.1875 13.514 10.2768 13.6569 10.396L14.0855 10.7832C14.1998 10.9023 14.2855 11.1109 14.2283 11.2896L14.0855 11.8853C14.0569 12.0343 14.114 12.0938 14.2569 12.0045L14.7426 11.647C14.8855 11.5577 15.0855 11.5279 15.2283 11.6172L15.714 11.9449C15.8569 12.0343 15.914 11.9747 15.8855 11.796L15.7426 11.2598C15.6855 11.1109 15.7712 10.8726 15.8855 10.7534L16.3712 10.3662Z" fill="#F54747"/>
</g>
</svg>
