<svg width="20" height="14" viewBox="0 0 20 14" fill="none" xmlns="http://www.w3.org/2000/svg">
<mask id="mask0" mask-type="alpha" maskUnits="userSpaceOnUse" x="0" y="0" width="20" height="14">
<rect width="20" height="14" rx="2" fill="#C4C4C4"/>
</mask>
<g mask="url(#mask0)">
<path d="M0 0V14H20L0 0Z" fill="#434A54"/>
<path d="M4.51405 6.10662C4.5712 6.04705 4.5712 5.98747 4.48549 5.98747H4.11407C4.02835 5.98747 3.91405 5.89811 3.88548 5.80875L3.74262 5.42151C3.71405 5.33215 3.65692 5.33215 3.62835 5.42151L3.51405 5.80875C3.48548 5.89811 3.39977 5.98747 3.28549 5.98747H2.94263C2.85691 5.98747 2.82835 6.04705 2.91406 6.10662L3.17119 6.34492C3.22834 6.40449 3.28549 6.55343 3.25692 6.64279L3.17119 7.00024C3.14262 7.0896 3.19978 7.11938 3.25692 7.05981L3.54264 6.8513C3.62835 6.79173 3.74264 6.79173 3.82835 6.8513L4.11407 7.03003C4.19978 7.0896 4.22835 7.05981 4.19978 6.94066L4.11407 6.64279C4.08549 6.55343 4.11406 6.40449 4.19978 6.34492L4.51405 6.10662Z" fill="white"/>
<path d="M7.37148 7.08953C7.42862 7.02996 7.42863 6.97038 7.34291 6.97038H6.97149C6.88577 6.97038 6.77147 6.88102 6.7429 6.79166L6.60005 6.40442C6.57147 6.31506 6.51434 6.31506 6.48577 6.40442L6.37148 6.79166C6.34291 6.88102 6.25719 6.97038 6.14291 6.97038H5.80005C5.71433 6.97038 5.68577 7.02996 5.77148 7.08953L6.02862 7.32783C6.08576 7.3874 6.14292 7.53634 6.11434 7.6257L6.02862 7.98315C6.00005 8.07251 6.0572 8.1023 6.11434 8.04272L6.40006 7.83421C6.48577 7.77464 6.60006 7.77464 6.68577 7.83421L6.97149 8.01293C7.0572 8.07251 7.08577 8.04272 7.0572 7.92357L6.97149 7.59591C6.94292 7.50655 6.97148 7.35762 7.0572 7.29804L7.37148 7.08953Z" fill="white"/>
<path d="M3.05703 8.84685C3.11417 8.78728 3.11416 8.72771 3.02845 8.72771H2.65702C2.57131 8.72771 2.45703 8.63834 2.42846 8.54898L2.2856 8.16175C2.25703 8.07238 2.19988 8.07238 2.17131 8.16175L2.05703 8.54898C2.02846 8.63834 1.94275 8.72771 1.82846 8.72771H1.4856C1.39989 8.72771 1.37131 8.78728 1.45702 8.84685L1.71417 9.08515C1.77131 9.14473 1.82845 9.29366 1.79988 9.38302L1.71417 9.74047C1.6856 9.82983 1.74274 9.85962 1.79988 9.80004L2.0856 9.59153C2.17131 9.53196 2.2856 9.53196 2.37131 9.59153L2.65702 9.77026C2.74274 9.82983 2.77131 9.80005 2.74273 9.6809L2.65702 9.38302C2.62845 9.29366 2.65702 9.14473 2.74273 9.08515L3.05703 8.84685Z" fill="white"/>
<path d="M5.05703 11.528C5.11417 11.4684 5.11416 11.4089 5.02845 11.4089H4.65702C4.57131 11.4089 4.45703 11.3195 4.42846 11.2301L4.2856 10.8429C4.25703 10.7535 4.19988 10.7535 4.17131 10.8429L4.05703 11.2301C4.02846 11.3195 3.94275 11.4089 3.82846 11.4089H3.4856C3.39989 11.4089 3.37131 11.4684 3.45702 11.528L3.71417 11.7663C3.77131 11.8259 3.82845 11.9748 3.79988 12.0642L3.71417 12.4216C3.6856 12.511 3.74274 12.5408 3.79988 12.4812L4.0856 12.2727C4.17131 12.2131 4.2856 12.2131 4.37131 12.2727L4.65702 12.4514C4.74274 12.511 4.77131 12.4812 4.74273 12.362L4.65702 12.0642C4.62845 11.9748 4.65702 11.8259 4.74273 11.7663L5.05703 11.528Z" fill="white"/>
<path d="M5.40007 9.14481C5.45721 9.11502 5.42863 9.05545 5.37149 9.05545H5.11436C5.05721 9.05545 4.9715 8.99588 4.9715 8.9363L4.88577 8.66822C4.8572 8.60864 4.82863 8.60864 4.80006 8.66822L4.71435 8.9363C4.68578 8.99588 4.62864 9.05545 4.57149 9.05545H4.34293C4.28578 9.05545 4.2572 9.08524 4.31434 9.14481L4.48578 9.29375C4.54293 9.32353 4.5715 9.41289 4.54293 9.50226L4.48578 9.74056C4.45721 9.80013 4.51436 9.82992 4.54293 9.80013L4.74292 9.65119C4.80006 9.62141 4.88578 9.62141 4.94292 9.65119L5.14292 9.77034C5.20006 9.80013 5.22864 9.77035 5.20007 9.71077L5.14292 9.50226C5.11435 9.44268 5.14293 9.35332 5.20007 9.29375L5.40007 9.14481Z" fill="white"/>
<path d="M0 0L20 14V0H0Z" fill="#F54747"/>
<path d="M12.0859 4.11084L14.4288 7.86403L15.3145 4.40871L12.0859 4.11084Z" fill="#F6D660"/>
<path d="M16.1431 1.37012L15.0859 4.58714L18.4859 5.12331L16.1431 1.37012Z" fill="#F6D660"/>
</g>
</svg>
