<svg width="20" height="14" viewBox="0 0 20 14" fill="none" xmlns="http://www.w3.org/2000/svg">
<mask id="mask0" mask-type="alpha" maskUnits="userSpaceOnUse" x="0" y="0" width="20" height="14">
<rect width="20" height="14" rx="2" fill="#C4C4C4"/>
</mask>
<g mask="url(#mask0)">
<path d="M20 0H0V14H20V0Z" fill="#F5F7FA"/>
<path d="M20 0H0V2.38298H20V0Z" fill="#F54747"/>
<path d="M20 11.6172H0V14.0002H20V11.6172Z" fill="#F54747"/>
<path d="M20 5.95752H0V8.3405H20V5.95752Z" fill="#F54747"/>
<path d="M0 0V14L8.28571 7.14894L0 0Z" fill="#4758A9"/>
<path d="M3.62881 7.14901L3.2574 6.9405C3.14311 6.88092 3.05738 6.7022 3.05738 6.58305L3.08598 6.07667C3.08598 5.95752 3.02884 5.89794 2.94312 6.01709L2.60024 6.37454C2.51453 6.4639 2.34309 6.49369 2.20024 6.43412L1.71454 6.19582C1.60025 6.13624 1.5431 6.19582 1.60024 6.31497L1.85739 6.79156C1.91454 6.91071 1.88598 7.08944 1.80026 7.1788L1.45739 7.53624C1.37167 7.62561 1.40026 7.71497 1.54312 7.68518L2.00025 7.65539C2.14311 7.65539 2.28598 7.71497 2.37169 7.83412L2.62881 8.25114C2.68595 8.37028 2.77169 8.3405 2.80026 8.22135L2.88596 7.71496C2.91453 7.59582 3.02881 7.44688 3.17167 7.41709L3.62881 7.29795C3.74309 7.29795 3.74309 7.20858 3.62881 7.14901Z" fill="#F5F7FA"/>
</g>
</svg>
