<svg width="20" height="14" viewBox="0 0 20 14" fill="none" xmlns="http://www.w3.org/2000/svg">
<mask id="mask0" mask-type="alpha" maskUnits="userSpaceOnUse" x="0" y="0" width="20" height="14">
<rect width="20" height="14" rx="2" fill="#C4C4C4"/>
</mask>
<g mask="url(#mask0)">
<path d="M-0.00146484 -0.00341797V13.9966L19.9985 -0.00341797H-0.00146484Z" fill="#57A863"/>
<path d="M19.9985 -0.00341797V13.9966H-0.00146484L19.9985 -0.00341797Z" fill="#F54747"/>
<path d="M20.4188 -2.5608L-1.67431 12.2895L0.570701 15.9198L22.6638 1.06944L20.4188 -2.5608Z" fill="#F6BB42"/>
<path d="M20.8988 -1.78493L-1.19433 13.0654L0.106227 15.1685L22.1994 0.318112L20.8988 -1.78493Z" fill="#434A54"/>
<path d="M9.34145 8.24738L9.11288 8.00908C9.05574 7.94951 9.02716 7.80057 9.05573 7.71121L9.17001 7.35376C9.19858 7.2644 9.17001 7.23461 9.0843 7.2644L8.77002 7.44312C8.6843 7.5027 8.57002 7.47291 8.4843 7.41334L8.19859 7.14525C8.11288 7.08568 8.08431 7.11546 8.11288 7.20483L8.19859 7.59206C8.22716 7.68142 8.17001 7.80057 8.0843 7.86015L7.77002 8.03887C7.6843 8.09844 7.71287 8.15802 7.79858 8.15802L8.11288 8.21759C8.19859 8.24738 8.31288 8.33674 8.34145 8.4261L8.42716 8.78355C8.45573 8.87291 8.51288 8.87291 8.54145 8.78355L8.68431 8.45589C8.71288 8.36653 8.82715 8.30695 8.94144 8.30695H9.2843C9.37002 8.36653 9.39859 8.33674 9.34145 8.24738Z" fill="#F5F7FA"/>
<path d="M11.9415 6.49005L11.713 6.25176C11.6558 6.19218 11.6273 6.04325 11.6558 5.95388L11.7701 5.59644C11.7987 5.50708 11.7701 5.47729 11.6844 5.50708L11.3701 5.6858C11.2844 5.74537 11.1701 5.71559 11.0844 5.65601L10.7987 5.38793C10.713 5.32835 10.6844 5.35814 10.713 5.4475L10.7987 5.83474C10.8273 5.9241 10.7701 6.04325 10.6844 6.10282L10.3701 6.28154C10.2844 6.34112 10.313 6.40069 10.3987 6.40069L10.713 6.46027C10.7987 6.49005 10.913 6.57942 10.9415 6.66878L11.0272 7.02622C11.0558 7.11558 11.113 7.11558 11.1415 7.02622L11.2844 6.69856C11.313 6.6092 11.4273 6.54963 11.5415 6.54963H11.8844C11.9987 6.6092 12.0273 6.54963 11.9415 6.49005Z" fill="#F5F7FA"/>
</g>
</svg>
