<svg width="20" height="14" viewBox="0 0 20 14" fill="none" xmlns="http://www.w3.org/2000/svg">
<mask id="mask0" mask-type="alpha" maskUnits="userSpaceOnUse" x="0" y="0" width="20" height="14">
<rect width="20" height="14" rx="2" fill="#C4C4C4"/>
</mask>
<g mask="url(#mask0)">
<path d="M20 0H0V14H20V0Z" fill="#F54747"/>
<path d="M7.14286 0H0V7.14894H7.14286V0Z" fill="#4758A9"/>
<path d="M3.48569 1.78739C3.54283 1.72782 3.51425 1.69803 3.4571 1.69803H3.17139C3.08567 1.69803 3.02854 1.63846 2.99997 1.57888L2.88567 1.28101C2.8571 1.22144 2.82854 1.22144 2.79996 1.28101L2.71425 1.57888C2.68568 1.63846 2.62855 1.72782 2.54283 1.72782H2.28568C2.19997 1.72782 2.19997 1.78739 2.25712 1.81718L2.4571 1.9959C2.51425 2.05548 2.54282 2.14484 2.51425 2.2342L2.4571 2.50228C2.42853 2.59165 2.48569 2.59165 2.54283 2.56186L2.7714 2.38314C2.82854 2.35335 2.91425 2.32356 2.99997 2.38314L3.22854 2.53207C3.28568 2.56186 3.31425 2.53207 3.31425 2.4725L3.25712 2.2342C3.22855 2.17463 3.2571 2.05548 3.31425 1.9959L3.48569 1.78739Z" fill="white"/>
<path d="M5.68588 2.56181C5.74303 2.50223 5.71445 2.47245 5.6573 2.47245H5.37159C5.28587 2.47245 5.22874 2.41287 5.20017 2.35329L5.08587 2.05542C5.0573 1.99585 5.02873 1.99585 5.00016 2.05542L4.91445 2.35329C4.88588 2.41287 4.82873 2.50223 4.74301 2.50223H4.48588C4.40017 2.50223 4.40016 2.56181 4.4573 2.59159L4.6573 2.77032C4.71444 2.82989 4.74302 2.91925 4.71445 3.00862L4.6573 3.2767C4.62873 3.36606 4.68587 3.36606 4.74301 3.33627L4.9716 3.15755C5.02874 3.12777 5.11445 3.09798 5.20017 3.15755L5.42873 3.30649C5.48588 3.33628 5.51445 3.30649 5.51445 3.24691L5.4573 3.00862C5.42873 2.94904 5.4573 2.82989 5.51445 2.77032L5.68588 2.56181Z" fill="white"/>
<path d="M2.39975 3.90214C2.45689 3.84257 2.42831 3.81278 2.37117 3.81278H2.08546C1.99974 3.81278 1.9426 3.7532 1.91403 3.69363L1.79974 3.39575C1.77117 3.33618 1.7426 3.33618 1.71403 3.39575L1.62832 3.69363C1.59975 3.7532 1.54259 3.84256 1.45688 3.84256H1.19975C1.11403 3.84256 1.11402 3.90214 1.17117 3.93192L1.37117 4.11065C1.42831 4.17022 1.45689 4.25959 1.42832 4.34895L1.37117 4.61703C1.3426 4.70639 1.39974 4.70639 1.45688 4.67661L1.68547 4.49788C1.74261 4.4681 1.82832 4.43831 1.91403 4.49788L2.1426 4.64682C2.19974 4.67661 2.22831 4.64682 2.22831 4.58724L2.17117 4.34895C2.14259 4.28937 2.17117 4.17022 2.22831 4.11065L2.39975 3.90214Z" fill="white"/>
<path d="M4.77167 5.09354C4.80024 5.06375 4.80023 5.03396 4.74309 5.03396H4.5431C4.48596 5.03396 4.42881 5.00417 4.42881 4.9446L4.3431 4.73609C4.31453 4.67651 4.28595 4.67651 4.28595 4.73609L4.22881 4.9446C4.20024 5.00417 4.17168 5.03396 4.11453 5.03396H3.91453C3.85739 5.03396 3.85738 5.06375 3.88595 5.09354L4.0288 5.21268C4.05738 5.24247 4.08595 5.33183 4.08595 5.36162L4.0288 5.57013C4.0288 5.6297 4.02881 5.62971 4.08595 5.59992L4.25739 5.48077C4.28596 5.45098 4.37168 5.45098 4.40025 5.48077L4.57167 5.57013C4.62881 5.59992 4.62882 5.57013 4.62882 5.54034L4.57167 5.36162C4.5431 5.30204 4.57167 5.24247 4.62882 5.21268L4.77167 5.09354Z" fill="white"/>
</g>
</svg>
