<svg width="20" height="14" viewBox="0 0 20 14" fill="none" xmlns="http://www.w3.org/2000/svg">
<mask id="mask0" mask-type="alpha" maskUnits="userSpaceOnUse" x="0" y="0" width="20" height="14">
<rect width="20" height="14" rx="2" fill="#C4C4C4"/>
</mask>
<g mask="url(#mask0)">
<path d="M20 7.14893H0V14H20V7.14893Z" fill="#3BAFDA"/>
<path d="M20 0H0V7.14894H20V0Z" fill="#F5F7FA"/>
<path d="M5.3429 7.53588C5.22862 7.53588 5.22862 7.71461 5.3429 7.71461C5.45719 7.68482 5.45719 7.53588 5.3429 7.53588ZM6.20005 8.63801C6.08576 8.63801 6.08576 8.81674 6.20005 8.81674C6.31433 8.81674 6.31433 8.63801 6.20005 8.63801ZM14.8857 7.08907C14.8572 6.99971 14.8858 6.99972 14.9429 6.91036C15 6.85078 15.0286 6.76142 14.9715 6.70184H14.9429C15 6.61248 14.9715 6.46355 14.9143 6.46355C14.8572 6.46355 14.7429 6.46355 14.5715 6.5827C14.4 6.40397 14.3715 6.61248 14.3143 6.7912C14.2857 6.76141 14.2572 6.76142 14.2 6.76142C14.2286 6.88057 14.1715 7.08908 14.0858 7.20823C14 7.23802 13.9143 7.2678 13.8572 7.29759C13.8858 7.2678 13.9143 7.20823 13.9143 7.17844C13.9143 7.11887 13.9715 7.0295 14.0286 6.99972C14.0857 6.94014 14.1429 6.85078 14.1143 6.82099C14.0858 6.76142 14.0858 6.73163 14.1429 6.67205C14.2 6.64227 14.2572 6.58269 14.2286 6.52312C14.2 6.46354 14.1715 6.37418 14.2 6.34439C14.2286 6.28482 14.1143 6.25504 14.0286 6.31461C13.9429 6.40397 13.9429 6.52312 13.9715 6.61249C14 6.67206 13.9143 6.67205 13.8572 6.67205C13.9143 6.55291 13.9143 6.43376 13.8286 6.37418C13.7429 6.31461 13.7143 6.3444 13.6572 6.43376C13.6286 6.49333 13.6 6.55291 13.6286 6.5827C13.6572 6.61248 13.6286 6.67206 13.6 6.70184C13.5429 6.73163 13.5429 6.79121 13.6 6.85078C13.6572 6.91035 13.6572 6.94014 13.6 6.99972C13.5429 7.05929 13.5715 7.14866 13.6 7.20823C13.6286 7.2678 13.6286 7.35716 13.6286 7.41674C13.6 7.53588 13.5715 7.68482 13.4858 7.77419C13.4286 7.83376 13.4286 7.89333 13.3429 8.01248C13.2858 8.13163 13.1715 8.13163 13.0286 8.22099C13.0286 8.19121 13.0286 8.13163 13.0286 8.10185C13.0572 8.04227 13.0572 7.95291 13.0572 7.86354C13.0572 7.83376 13.0858 7.83376 13.0858 7.83376C13.2 7.74439 13.1143 7.59546 13.1715 7.53588C13.2286 7.47631 13.2286 7.41674 13.1715 7.41674C13.1429 7.41674 13.1429 7.41673 13.1429 7.38695C13.1429 7.35716 13.1715 7.32738 13.1715 7.29759C13.1715 7.29759 13.1715 7.29759 13.1715 7.2678C13.2 7.23801 13.2 7.23802 13.2 7.20823L13.2286 7.17844C13.2572 7.20823 13.2572 7.23801 13.2858 7.29759C13.2572 7.35716 13.2572 7.44652 13.3143 7.44652C13.4572 7.53589 13.5429 7.47631 13.4286 7.32738C13.4572 7.2678 13.4286 7.2678 13.3429 7.2678C13.3143 7.23801 13.2858 7.20823 13.2572 7.14865C13.2858 7.0295 13.3715 6.88057 13.3715 6.82099C13.3715 6.76142 13.4 6.67206 13.4858 6.5827C13.5429 6.49333 13.5715 6.46354 13.5715 6.22525C13.6286 6.1061 13.7429 6.01674 13.8 5.95716C13.8572 5.89759 13.9143 5.83801 13.8572 5.80823C13.8 5.77844 13.8 5.71886 13.8572 5.65929C13.9143 5.59972 13.9429 5.56993 13.9143 5.54014C14 5.51036 14.0572 5.54014 14.0572 5.56993C14.0572 5.62951 14.0858 5.6295 14.1143 5.6295C14.1715 5.6295 14.2 5.6295 14.2858 5.6295C14.3429 5.6295 14.3429 5.62951 14.3429 5.56993C14.3429 5.51036 14.3429 5.48057 14.4 5.54014C14.4572 5.59972 14.4858 5.56993 14.5143 5.54014C14.5429 5.51036 14.5143 5.3912 14.4572 5.36142C14.4 5.33163 14.3715 5.30185 14.4 5.24227C14.4286 5.21248 14.4286 5.21248 14.3429 5.18269C14.1715 5.12312 14.0286 5.21248 13.8857 5.36142C13.8857 5.36142 13.8858 5.33163 13.8572 5.33163C13.8286 5.30184 13.8286 5.27206 13.8572 5.24227C13.8858 5.21248 13.8572 5.15291 13.7429 5.21248C13.6572 5.27206 13.6 5.33163 13.6 5.39121C13.6 5.45078 13.6 5.45078 13.5429 5.48056C13.4572 5.51035 13.4572 5.59972 13.4858 5.65929C13.5143 5.71886 13.5429 5.74865 13.6 5.74865C13.6572 5.74865 13.6572 5.83801 13.6 5.80823C13.5429 5.77844 13.4572 5.80823 13.4858 5.8678C13.5143 5.95717 13.4572 6.04653 13.4858 6.13589C13.4286 6.19546 13.4286 6.28482 13.4286 6.37418C13.4286 6.43376 13.4 6.52312 13.3429 6.61249C13.3429 6.40397 13.3143 5.95717 13.3143 5.56993C13.3143 5.51036 13.3143 5.48056 13.3143 5.45078C13.3429 5.30184 13.4572 5.03376 13.6 5.03376C13.6572 5.03376 13.7143 5.00397 13.7143 4.97418C13.7143 4.9444 13.7429 4.91461 13.7715 4.91461C13.8 4.91461 13.8286 4.85504 13.7715 4.79546C13.7429 4.73589 13.7429 4.67631 13.8 4.64653C13.8572 4.61674 13.9143 4.52737 13.8572 4.4678C13.8 4.40823 13.6858 4.34865 13.6286 4.52737C13.6 4.58695 13.5715 4.61673 13.5429 4.58695C13.4858 4.55716 13.3715 4.58695 13.4 4.7061C13.4 4.82525 13.4572 4.97418 13.3715 5.12312C13.3715 5.12312 13.3715 5.15291 13.3429 5.15291C13.3429 5.09333 13.3715 5.06354 13.3715 5.03376C13.4 4.94439 13.3715 4.82525 13.3143 4.82525C13.2572 4.79546 13.2572 4.79546 13.3143 4.7061C13.3715 4.55716 13.3143 4.49759 13.2286 4.4678C13.1429 4.43801 13.1143 4.40823 13.1143 4.34865C13.0858 4.28908 13.0286 4.2295 12.9429 4.25929C12.8572 4.28908 12.8286 4.37844 12.8857 4.43801C12.9429 4.49759 12.9143 4.55716 12.8857 4.58695C12.8572 4.64652 12.8858 4.7061 12.9715 4.7061C12.9429 4.73589 13 4.79546 13.0286 4.82525C13.0572 4.85503 13.0572 4.88482 13 4.9444C13 4.88482 12.9429 4.85504 12.8857 4.85504C12.8 4.88482 12.7715 4.85504 12.7715 4.79546C12.7715 4.73589 12.6572 4.73589 12.5715 4.79546C12.5143 4.85504 12.4 5.03376 12.6 5.00397C12.6857 5.00397 12.7143 5.00397 12.6858 5.06355C12.6286 5.12312 12.6286 5.24227 12.7715 5.24227C12.8286 5.24227 12.8858 5.24227 12.9429 5.27206C12.8572 5.30184 12.8572 5.36142 12.9143 5.39121C12.9715 5.42099 13.1429 5.45078 13.1715 5.59971C13.2 5.68907 13.2 5.77844 13.2 5.83802C13.2 5.8678 13.1715 5.83802 13.1715 5.83802C13.1715 5.80823 13.1429 5.80823 13.1429 5.80823C13.0858 5.71886 13.0286 5.65929 13 5.68908C12.9715 5.71887 13 5.80822 13.0572 5.89758C13 5.95716 13.0572 6.04653 13.1143 6.01674C13.1429 5.98695 13.1715 5.98695 13.2 6.01674C13.2286 6.1061 13.2286 6.31461 13.2 6.43376C13.1715 6.52312 13.2 6.58269 13.2286 6.67205C13.2572 6.76142 13.2572 6.821 13.2286 6.91036C13.2 6.99972 13.1429 7.08908 13.0858 7.17844C13.0572 7.20823 13 7.23801 13 7.2678C13.0286 7.17844 13.0286 7.08908 13.0858 7.02951C13.1143 6.96993 13.1143 6.91036 13.0572 6.88057C13 6.85078 12.8286 6.91035 12.9143 7.14865C12.8858 7.08908 12.8572 7.11887 12.8 7.17844C12.7429 7.2678 12.7715 7.32738 12.8 7.35717C12.8286 7.41674 12.8572 7.44653 12.8286 7.5061C12.8 7.56568 12.8286 7.59546 12.8572 7.68482C12.9143 7.74439 12.9143 7.80397 12.9143 7.89333C12.9143 7.98269 12.9143 8.07205 12.9143 8.16142C12.8858 8.28057 12.8572 8.36993 12.8286 8.45929C12.8286 8.48908 12.8 8.54865 12.7715 8.57844C12.8 8.54865 12.8 8.48908 12.8 8.45929C12.8 8.39971 12.8 8.36993 12.8286 8.31035C12.8572 8.28057 12.8286 8.1912 12.8 8.13163C12.7429 8.07205 12.7429 8.01249 12.8 7.95291C12.8572 7.89334 12.8 7.83376 12.7429 7.86354H12.7143C12.7143 7.71461 12.6858 7.38695 12.6858 7.2678C12.6858 7.08908 12.7429 6.94015 12.8286 6.91036C12.9143 6.85078 12.9143 6.79121 12.8857 6.73163C12.8572 6.67206 12.8858 6.61248 12.9429 6.5827C13.0286 6.52312 13 6.31461 12.8 6.28482C12.8572 6.19546 12.7715 6.04653 12.8286 5.98695C13 5.89759 12.9429 5.74865 12.8572 5.68908C12.8858 5.56993 12.8 5.56992 12.8286 5.45078C12.8572 5.36141 12.7715 5.33163 12.7143 5.421C12.6572 5.51036 12.6572 5.48056 12.6 5.45078C12.5715 5.3912 12.4858 5.33163 12.4 5.421C12.3715 5.65929 12.3715 7.29759 12.5715 7.32738C12.5715 7.41674 12.6286 7.68482 12.6286 7.89333C12.6286 7.89333 12.6 7.86354 12.5715 7.86354C12.5143 7.80397 12.4858 7.89334 12.5143 7.95291C12.5429 8.01249 12.4572 8.01248 12.5143 8.07206C12.5429 8.10185 12.5429 8.13163 12.5715 8.19121C12.4858 8.13163 12.4286 8.25078 12.4572 8.36993C12.4857 8.42951 12.4858 8.48908 12.4858 8.51887C12.4286 8.45929 12.4 8.39972 12.3715 8.36993V8.31035C12.3715 8.28057 12.3715 8.22099 12.4 8.19121C12.4572 8.10184 12.5429 7.9827 12.3429 7.80398C12.2 7.95291 12.1143 8.28057 12.0858 8.36993C12.0858 8.48908 12.1715 8.60823 12.2572 8.6678C12.2286 8.6678 12.1715 8.69759 12.1715 8.69759C12.1429 8.72738 12.1143 8.75716 12.0572 8.75716C12.0572 8.75716 12.0572 8.75716 12.0286 8.75716C11.9715 8.72737 11.8858 8.72738 11.8 8.78695C11.7429 8.84652 11.7143 8.93589 11.7143 8.99546C11.7143 9.05504 11.7143 9.11461 11.6572 9.17418C11.6 9.20397 11.5715 9.29333 11.6286 9.35291C11.6572 9.38269 11.7143 9.38269 11.7715 9.38269C11.6286 9.47206 11.5143 9.5912 11.4 9.62099C11.4286 9.56141 11.4286 9.32312 11.4286 9.23376L11.2572 9.44227C11.2858 9.79972 11.0858 9.91886 10.8286 10.0678C10.6572 10.2167 10.2286 10.5444 9.9429 10.7827C9.91432 10.7529 9.88576 10.7231 9.85718 10.6933C9.7429 10.5444 9.3429 10.1869 9.1429 10.0678C8.97147 9.94865 8.62862 9.76993 8.40005 9.68057C8.28576 9.62099 8.11433 9.47206 8.05719 9.26355C8.02862 9.08482 7.97148 8.99546 7.82862 8.96568C7.94291 8.96568 7.94291 8.78695 7.82862 8.78695C7.74291 8.78695 7.71432 8.9061 7.80004 8.93589C7.77147 8.93589 7.77146 8.93589 7.74289 8.93589C7.68575 8.78695 7.71433 8.51887 7.77147 8.39972C7.80005 8.28057 7.85718 7.89333 7.71433 7.68482C7.68576 7.86354 7.62862 7.9827 7.54291 8.10185C7.48576 8.221 7.48576 8.63801 7.68576 8.93589C7.65719 8.93589 7.60005 8.93589 7.54291 8.93589C7.51433 8.87631 7.48576 8.84653 7.48576 8.81674C7.45719 8.78695 7.37146 8.72738 7.31432 8.6678C7.31432 8.51887 7.37148 8.31035 7.40005 8.19121C7.45719 8.07206 7.28575 7.77419 7.31432 7.47631C7.25718 7.53589 7.22862 7.59546 7.20005 7.68482C7.20005 7.59546 7.20005 7.53589 7.20005 7.44652C7.37147 7.17844 7.37147 6.73163 7.22861 6.49333C7.3429 6.22524 7.40003 5.89759 7.45718 5.68908L7.42861 5.71887C7.45718 5.421 7.42861 5.12312 7.42861 5.06355C7.31433 5.30184 7.22861 5.65929 7.22861 5.95716C7.20004 6.01674 7.17146 6.07631 7.17146 6.13589C7.14289 5.95716 7.08576 5.80823 7.00004 5.68908C6.82861 6.31461 7.05718 6.67205 7.1429 6.94014C7.1429 6.99971 7.11433 7.0295 7.11433 7.08907C7.05719 6.91035 6.88576 6.73163 6.85718 6.5827C6.7429 6.99972 7.02861 7.5061 7.1429 7.80398C7.1429 7.86355 7.11433 7.89334 7.11433 7.95291C7.11433 7.92312 7.08576 7.86354 7.05719 7.83376C6.9429 7.59546 6.85718 7.41674 6.85718 7.32738C6.80004 7.41674 6.77147 7.56567 6.77147 7.71461C6.77147 7.68482 6.77146 7.65504 6.74289 7.62525C6.80003 7.59546 6.77147 7.5061 6.71433 7.47631C6.71433 7.2678 6.7429 6.99971 6.77147 6.94014C6.71433 6.91035 6.68576 6.85078 6.68576 6.7912C6.68576 6.73163 6.68576 6.67206 6.68576 6.5827C6.82862 6.22525 6.85719 5.68908 6.82862 5.48056C6.77148 5.56993 6.7429 5.65929 6.71433 5.68908C6.68576 5.45078 6.7429 5.39121 6.91433 5.24227C7.37147 4.85504 7.28575 4.61674 7.45718 4.49759C7.25718 4.61674 7.08576 4.73589 7.00004 4.85504C7.17147 4.64652 7.3429 4.31886 7.3429 4.08057C7.1429 4.16993 6.91433 4.49759 6.91433 4.61674C6.91433 4.73589 6.88576 4.88482 6.82862 5.03376C6.82862 5.06354 6.80004 5.06355 6.80004 5.09333C6.82861 4.85504 6.82861 4.55716 6.74289 4.28908C6.74289 4.37844 6.65718 4.52737 6.60003 4.67631C6.54289 4.82525 6.5429 5.06355 6.65718 5.421C6.62861 5.54014 6.62862 5.65929 6.62862 5.80823C6.57147 5.8678 6.5429 5.95716 6.51432 6.1061C6.48575 6.3444 6.65719 6.43376 6.62862 6.61249C6.60005 6.70185 6.60003 6.82099 6.60003 6.88057C6.60003 6.94014 6.60005 6.91035 6.62862 6.96993C6.65719 6.99971 6.65718 7.0295 6.65718 7.11886C6.65718 7.14865 6.62861 7.2678 6.60003 7.38695C6.57146 7.32737 6.54291 7.2678 6.54291 7.23801C6.51433 7.32737 6.48575 7.38695 6.45718 7.47631C6.34289 7.14865 6.65719 7.11887 6.3429 6.43376C6.28576 6.5827 6.22861 6.76142 6.22861 6.96993C6.20004 6.76142 6.17148 6.67206 6.11433 6.5827C6.14291 6.31461 6.28576 6.3444 6.28576 5.98695C6.28576 5.77844 6.22861 5.56993 6.31432 5.421C6.22861 5.51036 6.17148 5.59972 6.11433 5.71887C6.08576 5.51036 6.00003 5.36142 6.02861 5.24227C5.88575 5.45078 5.82861 5.71887 5.85718 5.98695C5.7429 5.8678 5.62861 5.80823 5.60003 5.71887C5.65718 6.16568 5.7429 6.43376 5.85718 6.52312C5.91433 6.55291 5.94291 6.61248 5.97148 6.67205C5.85719 6.67205 5.88576 6.85078 5.97148 6.85078C6.00005 6.85078 6.02861 6.85078 6.02861 6.82099C6.05718 6.85078 6.05718 6.91035 6.08575 6.94014L6.05719 6.91036C5.9429 6.85078 5.71432 6.76141 5.65718 6.64227C5.68575 6.96993 5.85718 7.05929 6.00004 7.14865C6.1429 7.23801 6.25719 7.35716 6.40005 7.47631C6.40005 7.59546 6.40003 7.71461 6.45718 7.83376C6.28575 7.68482 6.14291 7.53589 6.11433 7.44652C6.11433 7.89333 6.42862 8.13163 6.54291 8.19121C6.65719 8.25078 6.77148 8.34014 6.82862 8.36993L6.85718 8.39972C6.88576 8.51887 6.91433 8.60823 7.05719 8.6678C7.17147 8.72738 7.25718 8.81673 7.31432 8.87631C7.00003 8.87631 6.62861 8.84653 6.51432 8.81674C6.42861 8.72738 6.37146 8.60823 6.31432 8.54866C6.40003 8.221 6.20004 7.86355 6.08575 7.65504C6.00004 7.86355 5.97147 8.10184 6.08575 8.31035C6.05718 8.28057 6.00005 8.25078 5.97148 8.25078C5.94291 8.16142 5.88576 8.07205 5.85718 8.01248C5.80004 7.71461 5.91433 7.56568 5.42861 7.02951C5.37147 7.20823 5.40003 7.35717 5.45718 7.5061C5.40003 7.38695 5.37147 7.29759 5.3429 7.20823C5.25719 6.85078 4.97147 6.88057 4.85718 6.73163C5.00004 7.29759 5.11432 7.35716 5.22861 7.44652C5.31432 7.5061 5.45719 7.62525 5.54291 7.7444C5.34291 7.71461 5.17147 7.80398 5.05719 7.65504C5.17147 8.07206 5.71432 7.98269 5.88575 8.28056C5.85718 8.28056 5.80005 8.28056 5.77147 8.28056C5.60005 8.28056 5.40003 8.25078 5.31432 8.19121C5.42861 8.54865 6.02862 8.4295 6.25719 8.72737C6.31433 8.81673 6.37148 8.87631 6.40005 8.93589C6.40005 8.93589 6.37147 8.93589 6.37147 8.96568C6.28575 8.96568 6.20004 8.96567 6.1429 8.93589C5.80004 8.63801 5.71433 8.54865 5.20005 8.57844C5.31433 8.69759 5.45718 8.81673 5.57147 8.87631C5.3429 8.9061 5.14291 8.99546 4.97148 9.1444C5.14291 9.1444 5.28576 9.17418 5.42861 9.17418C5.37147 9.29333 5.34291 9.41248 5.25719 9.47205C5.48576 9.32312 5.7429 9.3827 5.91433 9.29334C6.08576 9.23376 6.25718 9.14439 6.37147 9.02524H6.40005C6.34291 9.05503 6.34289 9.17418 6.45718 9.17418C6.54289 9.17418 6.57147 9.05503 6.48576 9.02524C6.51433 9.02524 6.51433 9.02524 6.54291 9.02524C6.57148 9.02524 6.62862 9.02525 6.68576 9.05503C6.68576 9.11461 6.71433 9.1444 6.77147 9.1444C6.82862 9.1444 6.85718 9.11461 6.85718 9.05503C7.02861 9.05503 7.22862 9.08482 7.3429 9.08482C7.37147 9.08482 7.37148 9.08482 7.40005 9.08482C7.45719 9.1444 7.48575 9.20397 7.51432 9.23376C7.57147 9.32312 7.68576 9.41248 7.71433 9.47205C7.57147 9.44227 7.60004 9.53163 7.37147 9.47205C7.37147 9.47205 7.34289 9.47205 7.31432 9.47205C7.40003 9.44227 7.40004 9.32312 7.28576 9.32312C7.17147 9.32312 7.17148 9.47205 7.25719 9.47205C7.17148 9.47205 7.08576 9.50184 6.97148 9.53163C6.68576 9.47206 6.48575 9.26355 6.08575 9.38269C6.17147 9.38269 6.22861 9.44227 6.31432 9.50184C5.91432 9.47205 5.54289 9.74015 5.45718 9.74015C5.57146 9.76993 5.71433 9.79971 5.85718 9.79971C5.82861 9.79971 5.80005 9.8295 5.77147 9.8295C5.40005 9.8295 5.05719 9.94865 4.82862 10.3061C5.00005 10.2167 5.20004 10.2167 5.37147 10.187C5.28575 10.2763 5.20004 10.3657 5.1429 10.3955C5.62861 10.5146 5.80004 10.2465 5.9429 10.038C5.91432 10.1572 5.85718 10.3061 5.74289 10.3657C5.91432 10.3657 6.08576 10.187 6.25719 10.0082C6.25719 10.038 6.22861 10.0976 6.22861 10.1274C6.28575 10.038 6.42861 9.97844 6.60003 9.94865C6.77146 9.91886 6.85718 9.68056 7.02861 9.62099C7.00003 9.65078 6.97147 9.65078 6.91433 9.65078C6.97147 9.62099 7.05718 9.5912 7.08575 9.62099C7.11432 9.62099 7.11433 9.62099 7.1429 9.62099C7.11433 9.68056 7.1429 9.74015 7.22861 9.74015C7.31432 9.74015 7.3429 9.621 7.28576 9.59121C7.31433 9.59121 7.37148 9.59121 7.40005 9.59121C7.42862 9.621 7.51432 9.62099 7.60003 9.62099C7.65718 9.5912 7.71433 9.5912 7.77147 9.62099C7.65719 9.68056 7.57148 9.8295 7.54291 9.91886C7.51433 10.0082 7.37147 10.1274 7.3429 10.455C7.48576 10.4253 7.62861 10.2763 7.71433 10.187C7.80004 10.0976 7.77147 9.91887 7.77147 9.8295C7.77147 9.74014 7.77147 9.65078 7.77147 9.59121C7.80005 9.59121 7.80005 9.62099 7.82862 9.65078C7.88576 9.76993 7.91433 9.76993 8.00004 9.76993C8.05718 9.76993 8.14289 9.76993 8.17146 9.79971C8.22861 9.8295 8.51433 9.88908 8.68576 10.038C8.88576 10.187 9.45718 10.5444 9.71433 10.8125C9.7429 10.8423 9.80005 10.9018 9.82862 10.9316C9.80005 10.9614 9.77146 10.9912 9.74289 11.021C9.65718 11.1104 9.57147 11.1699 9.57147 11.2295C9.57147 11.2891 9.54291 11.3189 9.40005 11.438C9.25719 11.5572 9.22862 11.587 9.20005 11.6465C9.17147 11.6763 9.08576 11.7359 8.97148 11.855C8.88576 11.9444 8.91433 12.0933 9.00004 12.1827C9.05718 12.1231 9.08575 12.0635 9.08575 12.004C9.11432 11.9444 9.25718 11.7657 9.31432 11.7359C9.37146 11.7061 9.40004 11.6763 9.42861 11.5869C9.45718 11.4976 9.54289 11.438 9.60003 11.4082C9.65718 11.3784 9.71432 11.3487 9.80004 11.1997C9.82861 11.1401 9.88576 11.0806 9.91433 11.0508C10 11.1401 10.0286 11.1997 10.0858 11.2891C10.1429 11.4082 10.2572 11.4976 10.3429 11.5869C10.4286 11.6465 10.5429 11.8252 10.5715 11.9146C10.6 11.9742 10.6572 12.0933 10.7429 12.1827C10.7715 12.2125 10.7715 12.2125 10.8 12.2423C10.8286 12.004 10.8286 11.855 10.7143 11.7657C10.6 11.6763 10.5429 11.587 10.5143 11.4976C10.4858 11.4082 10.4286 11.3189 10.3143 11.2593C10.2572 11.2295 10.1143 11.0806 10 10.9614C10.0286 10.9316 10.0858 10.8721 10.1143 10.8423C10.2572 10.7231 10.9715 10.2167 11.2 10.038C11.3143 9.94866 11.3715 9.85929 11.4572 9.8295C11.5143 9.8295 11.6 9.8295 11.6286 9.8295C11.6858 9.8295 11.7429 9.91887 11.7429 9.97844C11.7429 10.038 11.8 10.0678 11.8572 10.038C11.9429 10.038 11.9429 10.0678 11.9429 10.0976C11.9429 10.1572 11.9715 10.1869 12.1143 10.2167L12.5143 10.038C12.5143 10.0082 12.5143 9.88908 12.5429 9.85929C12.5715 9.82951 12.5143 9.76993 12.4286 9.76993C12.3429 9.74014 12.2858 9.76993 12.2286 9.8295C12.2 9.88908 12.1143 9.85929 12.0858 9.79971C12.0572 9.74014 11.9715 9.68057 11.9143 9.68057C11.8572 9.71035 11.8572 9.71035 11.8 9.68057C11.7429 9.65078 11.6858 9.68057 11.6286 9.71036C11.6 9.74014 11.5429 9.74015 11.5143 9.74015C11.5715 9.71036 11.6286 9.68056 11.6572 9.62099C11.7143 9.56141 11.8286 9.56142 11.9429 9.53163C11.9429 9.56142 11.9715 9.56142 12.0572 9.59121C12.1429 9.621 12.2858 9.65078 12.3715 9.62099C12.4 9.62099 12.4 9.621 12.4286 9.59121C12.6 9.621 12.8 9.65078 12.8572 9.71036C12.9429 9.76993 13.0572 9.79972 13.1715 9.8295C13.2572 9.8295 13.2572 9.88907 13.2286 9.91886C13.1143 10.038 13.1143 10.1572 13.1429 10.2167C13.1715 10.2763 13.2 10.3061 13.1715 10.3657C13.1715 10.3955 13.2 10.455 13.2286 10.4252C13.2572 10.3955 13.2858 10.4253 13.2858 10.4848C13.2858 10.5444 13.3143 10.5742 13.3715 10.5444C13.4286 10.5146 13.4572 10.5444 13.4858 10.5742C13.4858 10.6338 13.6858 10.604 13.6572 10.5444C13.6286 10.4848 13.6286 10.4252 13.6858 10.3955C13.7143 10.3955 13.7143 10.3359 13.7429 10.2763C13.7715 10.2763 13.7715 10.2763 13.8 10.2763C13.8286 10.2465 13.8286 10.2167 13.8286 10.1572C13.8572 10.187 13.8858 10.2167 13.9143 10.2167C13.8858 10.3061 13.8572 10.3955 13.8857 10.455C13.9429 10.5444 13.9715 10.5146 14 10.4848C14.0572 10.4253 14.0858 10.4848 14.0572 10.5444C14 10.604 14.0572 10.6933 14.0858 10.7231C14.1143 10.7529 14.1715 10.7231 14.2286 10.6933C14.2572 10.6635 14.2858 10.604 14.2572 10.5742C14.2286 10.5444 14.2572 10.4848 14.3143 10.4252C14.3715 10.3657 14.3715 10.2465 14.3143 10.2167C14.2572 10.2167 14.2 10.1869 14.1715 10.0976C14.2572 10.1274 14.2858 10.0976 14.3429 10.038C14.4 9.97844 14.3143 9.88908 14.2 9.85929C14.1143 9.82951 14.1143 9.76993 14.1143 9.74015C14.1429 9.74015 14.1143 9.68057 14.0286 9.65078C13.9429 9.62099 13.6858 9.65078 13.4 9.71036C13.3715 9.71036 13.3429 9.71036 13.3143 9.71036C13.2286 9.71036 13.1143 9.71035 13 9.65078H13.0286C13.1143 9.65078 13.2 9.59121 13.2858 9.59121C13.3429 9.59121 13.3715 9.56142 13.4 9.53163C13.4286 9.50184 13.4572 9.47205 13.4858 9.50184C13.5429 9.53163 13.5429 9.50184 13.5715 9.47205C13.5715 9.47205 13.5715 9.44227 13.6 9.44227C13.6286 9.47206 13.6858 9.50184 13.7143 9.50184C13.7429 9.50184 13.7715 9.53163 13.8 9.59121C13.8286 9.621 13.9143 9.621 13.9429 9.59121C14.2286 9.56142 14.1143 9.38269 13.9143 9.38269C13.8858 9.32312 13.8 9.3827 13.7715 9.41248C13.7429 9.44227 13.7143 9.44227 13.6858 9.44227C13.6858 9.44227 13.6572 9.44227 13.6286 9.41248C13.6572 9.3827 13.6858 9.38269 13.7143 9.35291C13.7715 9.32312 13.7715 9.26355 13.7143 9.26355C13.6572 9.23376 13.6858 9.20398 13.7715 9.1444C13.8286 9.08483 13.8286 9.02525 13.7429 8.93589C13.6572 8.87631 13.5143 8.9061 13.4858 9.02524C13.4572 9.11461 13.4286 9.11461 13.3715 9.11461C13.4 9.05504 13.4286 8.99546 13.4572 8.96568C13.5143 8.87631 13.4286 8.84653 13.3429 8.84653C13.2572 8.84653 13.2 8.9061 13.2 8.93589C13.2 8.96567 13.1429 8.99546 13.1143 8.99546C13.0858 8.99546 13.0286 9.05504 13 9.1444C13 9.23376 12.8572 9.38269 12.7715 9.47205C12.7143 9.53163 12.6858 9.53163 12.6572 9.56142C12.6286 9.56142 12.5715 9.53163 12.5429 9.53163C12.5715 9.50184 12.5715 9.47206 12.5715 9.44227C12.5429 9.3827 12.5715 9.32312 12.6 9.26355C12.6286 9.20397 12.6286 9.1444 12.6 9.08482C12.5715 9.05504 12.5715 9.02525 12.5715 8.96568C12.6858 8.87631 12.8 8.84652 12.8286 8.78695C12.8858 8.72738 12.9429 8.72737 13.0286 8.72737C13.1143 8.72737 13.2572 8.72738 13.4286 8.63801C13.5143 8.60823 13.6857 8.69759 13.7429 8.78695C13.8 8.87631 13.8858 8.96567 13.9429 8.93589C14 8.9061 14.0572 8.87631 14.1143 8.93589C14.1715 8.99546 14.2286 8.99546 14.2858 8.96568C14.3143 8.93589 14.3429 8.93589 14.4 8.96568C14.4572 8.99546 14.6 8.99546 14.5429 8.78695C14.5715 8.78695 14.5715 8.75716 14.6 8.75716C14.7143 8.6678 14.7143 8.63802 14.6572 8.54866C14.6 8.45929 14.5429 8.45929 14.4858 8.45929C14.4286 8.45929 14.4 8.45929 14.3715 8.45929C14.6 8.28057 14.4857 8.25078 14.3143 8.16142C14.1429 8.10184 14.0858 8.16142 14.0572 8.22099C14.0572 8.28057 14.0286 8.28057 13.9429 8.25078C13.8858 8.221 13.8 8.28057 13.8 8.31035C13.8 8.34014 13.7715 8.36993 13.7143 8.36993C13.6858 8.36993 13.6 8.42951 13.5429 8.51887C13.5143 8.51887 13.5143 8.54866 13.4858 8.54866C13.1715 8.69759 12.9429 8.57844 12.8286 8.63801C12.8572 8.57844 12.9143 8.4295 12.9429 8.34014C13 8.34014 13.0858 8.31035 13.1429 8.28056C13.1715 8.31035 13.1715 8.34014 13.1715 8.36993C13.1429 8.39972 13.1715 8.48908 13.2286 8.45929C13.3429 8.54865 13.4858 8.54865 13.3715 8.34014C13.4 8.28057 13.3429 8.25078 13.2858 8.25078C13.2572 8.25078 13.2286 8.25078 13.2 8.22099C13.2572 8.19121 13.3143 8.10185 13.3429 8.07206C13.3715 8.04227 13.4 8.01249 13.4572 7.95291C13.5143 7.89334 13.5429 7.83376 13.6286 7.53588C13.6572 7.53588 13.6572 7.5061 13.6858 7.5061C13.8572 7.41674 14.0286 7.35716 14.1715 7.44652C14.3143 7.53589 14.5143 7.62525 14.6 7.56567C14.6857 7.5061 14.7715 7.47632 14.8572 7.5061C14.9429 7.53589 15 7.5061 15.0286 7.44652C15.0572 7.41674 15.0572 7.35717 15.1143 7.35717C15.1715 7.23802 15.1715 7.05929 14.8857 7.08907ZM6.05719 9.74015C6.08576 9.71036 6.11433 9.68057 6.11433 9.65078C6.14291 9.65078 6.14289 9.65078 6.17146 9.65078C6.11432 9.68057 6.08576 9.71036 6.05719 9.74015ZM6.51432 9.53163C6.51432 9.53163 6.51432 9.56142 6.51432 9.53163C6.51432 9.53163 6.5429 9.50184 6.57147 9.50184C6.57147 9.50184 6.57146 9.50184 6.60003 9.50184C6.57146 9.53163 6.5429 9.53163 6.51432 9.53163ZM7.9429 9.47205C7.85718 9.44227 7.68575 9.26355 7.65718 9.11461C7.60004 9.08482 7.5429 9.02525 7.48576 8.96568C7.62862 8.96568 7.77147 8.99546 7.80004 9.11461C7.82861 9.23376 7.88576 9.38269 7.97148 9.50184C7.97148 9.47205 7.97147 9.47205 7.9429 9.47205ZM12.4 8.57844C12.4 8.57844 12.4 8.60822 12.4 8.57844C12.3715 8.60822 12.3715 8.60823 12.3715 8.63801C12.3715 8.63801 12.3715 8.60822 12.4 8.57844ZM12.3429 8.69759C12.3429 8.66781 12.3429 8.6678 12.3715 8.63801C12.3429 8.6678 12.3429 8.69759 12.3429 8.69759ZM12.4 8.84653C12.3715 8.81674 12.3715 8.78695 12.3429 8.78695C12.3715 8.81674 12.3715 8.81674 12.4 8.84653ZM6.57147 8.63801C6.45718 8.63801 6.45718 8.81674 6.57147 8.81674C6.65718 8.78695 6.65718 8.63801 6.57147 8.63801ZM7.31432 8.39972C7.20003 8.39972 7.20003 8.57844 7.31432 8.57844C7.42861 8.57844 7.42861 8.39972 7.31432 8.39972Z" fill="#57A863"/>
<path d="M11.0003 5.03391C10.9717 5.03391 10.9145 5.00412 10.8574 5.00412C10.8574 5.00412 10.8574 5.00412 10.886 5.00412C10.9717 5.03391 11.0003 4.94455 10.9717 4.91476C10.9717 4.88497 10.9717 4.85519 11.0003 4.79561C11.0003 4.76582 11.0288 4.70625 11.0574 4.64668C11.0574 4.64668 11.0574 4.64668 11.086 4.64668C11.1145 4.67646 11.1717 4.5871 11.1146 4.55731C11.2003 4.43816 11.286 4.31901 11.4003 4.22965C11.3717 4.22965 11.3431 4.22965 11.3145 4.22965C11.3145 4.19986 11.3431 4.19987 11.3431 4.17008C11.3431 4.17008 11.3717 4.17008 11.4003 4.17008C11.5146 4.17008 11.5145 4.02114 11.4288 3.99135C11.4288 3.96157 11.4574 3.90199 11.4574 3.87221C11.5717 3.87221 11.5717 3.6637 11.4574 3.6637C11.4574 3.60412 11.4288 3.54455 11.3717 3.51476C11.4003 3.45519 11.3717 3.39561 11.286 3.39561C11.2574 3.39561 11.2288 3.39561 11.2288 3.4254C11.2003 3.39561 11.1431 3.39561 11.1146 3.36582C11.1431 3.30625 11.1145 3.24667 11.0288 3.24667C10.9717 3.24667 10.9431 3.27646 10.9431 3.33603C10.9145 3.33603 10.8574 3.30625 10.8003 3.30625C10.8288 3.27646 10.8003 3.1871 10.7431 3.1871C10.686 3.1871 10.6574 3.24667 10.686 3.27646C10.6574 3.27646 10.6288 3.27646 10.6003 3.24667C10.6003 3.21688 10.5717 3.15731 10.5431 3.15731C10.5146 3.15731 10.486 3.1871 10.486 3.21689C10.4574 3.21689 10.4288 3.21689 10.4003 3.1871C10.4003 3.15731 10.3717 3.15731 10.3431 3.15731H10.3145H10.286C10.3145 3.15731 10.3145 3.12752 10.3431 3.12752C10.4003 3.06795 10.3431 3.03816 10.2574 3.06795C10.2003 3.09774 10.1717 3.00838 10.1431 2.91901C10.1145 2.82965 10.086 2.74029 10.0003 2.71051L9.97169 2.68072C10.0003 2.65093 10.0288 2.59135 10.0288 2.53178C10.0288 2.44242 10.0003 2.35305 9.91455 2.35305V2.2637H10.0574V2.08497H9.91455V1.93604H9.77169V2.08497H9.62883V2.23391H9.77169V2.32327C9.68598 2.35306 9.6574 2.41263 9.6574 2.50199C9.6574 2.56157 9.68597 2.62114 9.71454 2.65093L9.68598 2.68072C9.60027 2.7105 9.57169 2.79986 9.54312 2.88923C9.51455 2.97859 9.48597 3.06795 9.42883 3.03816C9.37169 3.00837 9.31455 3.03816 9.34312 3.09774C9.34312 3.12752 9.37169 3.12752 9.40027 3.12752H9.37168H9.34312C9.31455 3.12752 9.28597 3.12753 9.28597 3.15731C9.2574 3.15731 9.22883 3.15731 9.20026 3.1871C9.20026 3.15731 9.17169 3.12752 9.14312 3.12752C9.08597 3.12752 9.08597 3.15731 9.08597 3.21689C9.0574 3.21689 9.02883 3.21688 9.00026 3.24667C9.00026 3.1871 9.00026 3.15731 8.94311 3.15731C8.88597 3.15731 8.8574 3.24667 8.88597 3.27646C8.82882 3.27646 8.80025 3.30625 8.74311 3.30625C8.74311 3.27646 8.71454 3.21689 8.6574 3.21689C8.60026 3.21689 8.57169 3.27646 8.57169 3.33603C8.54312 3.33603 8.48597 3.36582 8.4574 3.39561C8.4574 3.36582 8.42884 3.36582 8.40027 3.36582C8.31455 3.36582 8.31454 3.45518 8.31454 3.48497C8.28597 3.54455 8.2574 3.57433 8.22883 3.63391C8.11454 3.63391 8.11454 3.84242 8.22883 3.84242C8.22883 3.8722 8.25741 3.93178 8.25741 3.96157C8.1717 3.99136 8.17169 4.14029 8.28597 4.14029C8.31455 4.14029 8.31455 4.14029 8.34312 4.14029C8.34312 4.17008 8.37168 4.17008 8.37168 4.19987C8.34311 4.19987 8.31455 4.19987 8.28597 4.19987C8.37169 4.28923 8.48597 4.40837 8.57169 4.52752C8.51455 4.5871 8.57168 4.64667 8.60025 4.61689C8.60025 4.61689 8.60026 4.61689 8.62883 4.61689C8.65741 4.67646 8.68598 4.73604 8.68598 4.76582C8.68598 4.8254 8.71455 4.85518 8.71455 4.88497C8.68597 4.94454 8.71454 5.03391 8.80026 4.97433C8.74311 4.97433 8.68598 4.97433 8.62883 5.00412C7.57169 5.33178 7.37169 6.67221 7.94311 7.89348C8.48597 9.0254 9.17169 9.41263 9.77169 9.62114C10.3717 9.38284 11.0574 9.0254 11.6003 7.89348C12.286 6.70199 12.0574 5.39135 11.0003 5.03391ZM8.94311 4.08072L9.00026 4.02114C9.00026 4.08072 9.02883 4.14029 9.05741 4.19987C9.02883 4.14029 8.97168 4.1105 8.94311 4.08072ZM9.11455 3.87221L9.57169 3.33603C9.60026 3.33603 9.60026 3.33604 9.62883 3.30625C9.62883 3.45519 9.68598 3.60412 9.77169 3.75306C9.71455 3.84242 9.71454 3.96157 9.71454 4.05093C9.6574 3.87221 9.54312 3.72327 9.40027 3.69348C9.31455 3.78284 9.31455 3.96157 9.40027 4.08072C9.28598 3.96157 9.20027 3.90199 9.11455 3.87221ZM9.97169 5.42115C9.94312 5.42115 9.94312 5.39136 9.91455 5.39136C9.91455 5.30199 9.88597 5.33178 9.8574 5.33178C9.80026 5.33178 9.80026 5.33178 9.80026 5.39136C9.77168 5.39136 9.74311 5.42115 9.74311 5.42115C9.62882 5.33178 9.42883 5.21263 9.28597 5.15306C9.4574 5.18284 9.62882 5.18284 9.88597 5.18284C10.086 5.18284 10.286 5.18284 10.4288 5.15306C10.286 5.21263 10.1146 5.33178 9.97169 5.42115ZM10.4003 4.08072C10.486 3.93178 10.486 3.78284 10.4003 3.69348C10.2574 3.72327 10.1431 3.87221 10.086 4.05093C10.086 3.96157 10.0574 3.84242 10.0288 3.75306C10.1145 3.60412 10.1717 3.45519 10.1717 3.30625C10.2003 3.30625 10.2003 3.33603 10.2288 3.33603L10.686 3.87221C10.5717 3.90199 10.486 3.96157 10.4003 4.08072ZM10.7145 4.19987C10.7145 4.17008 10.7431 4.17008 10.7431 4.14029C10.7431 4.14029 10.7431 4.1105 10.7717 4.1105C10.7717 4.08072 10.7717 4.08072 10.7717 4.05093V4.02114L10.8288 4.08072C10.7717 4.1105 10.7431 4.14029 10.7145 4.19987Z" fill="#FFCE54"/>
</g>
</svg>
