<svg width="20" height="14" viewBox="0 0 20 14" fill="none" xmlns="http://www.w3.org/2000/svg">
<mask id="mask0" mask-type="alpha" maskUnits="userSpaceOnUse" x="0" y="0" width="20" height="14">
<rect width="20" height="14" rx="2" fill="#C4C4C4"/>
</mask>
<g mask="url(#mask0)">
<path d="M20 4.46826H0V9.53209H20V4.46826Z" fill="#FFCE54"/>
<path d="M20 0H0V4.46808H20V0Z" fill="#57A863"/>
<path d="M12.686 6.64253L12.0288 6.61275C11.8574 6.61275 11.6574 6.46381 11.6003 6.31488L11.3717 5.65955C11.3145 5.51062 11.2288 5.51062 11.1717 5.65955L10.9431 6.31488C10.886 6.46381 10.686 6.61275 10.5145 6.61275H9.85741C9.68598 6.61275 9.65741 6.7021 9.7717 6.82125L10.2288 7.20849C10.3717 7.32764 10.4288 7.53615 10.3717 7.71487L10.2003 8.31062C10.1431 8.48934 10.2288 8.51912 10.3717 8.42976L10.9431 8.07232C11.086 7.98296 11.3431 7.98296 11.486 8.07232L12.0288 8.39998C12.1717 8.48934 12.2574 8.42976 12.2288 8.28083L12.086 7.74466C12.0288 7.56594 12.1146 7.35742 12.2574 7.23827L12.7717 6.82125C12.9146 6.73189 12.886 6.64253 12.686 6.64253Z" fill="#434A54"/>
<path d="M17.2573 6.64253L16.6001 6.61275C16.4287 6.61275 16.2287 6.46381 16.1715 6.31488L15.943 5.65955C15.8859 5.51062 15.8001 5.51062 15.743 5.65955L15.5144 6.31488C15.4573 6.46381 15.2573 6.61275 15.0858 6.61275H14.4287C14.2573 6.61275 14.2287 6.7021 14.343 6.82125L14.8001 7.20849C14.943 7.32764 15.0001 7.53615 14.943 7.71487L14.7716 8.31062C14.7144 8.48934 14.8001 8.51912 14.943 8.42976L15.5144 8.07232C15.6573 7.98296 15.9144 7.98296 16.0573 8.07232L16.6001 8.39998C16.743 8.48934 16.8287 8.42976 16.8001 8.28083L16.6573 7.74466C16.6001 7.56594 16.6858 7.35742 16.8287 7.23827L17.343 6.82125C17.4858 6.73189 17.4573 6.64253 17.2573 6.64253Z" fill="#434A54"/>
<path d="M20 9.53174H0V13.9998H20V9.53174Z" fill="#57A863"/>
<path d="M0 0V14L8.28571 7.14894L0 0Z" fill="#F54747"/>
</g>
</svg>
