<svg width="20" height="14" viewBox="0 0 20 14" fill="none" xmlns="http://www.w3.org/2000/svg">
<mask id="mask0" mask-type="alpha" maskUnits="userSpaceOnUse" x="0" y="0" width="20" height="14">
<rect width="20" height="14" rx="2" fill="#C4C4C4"/>
</mask>
<g mask="url(#mask0)">
<path d="M20 0H0V14H20V0Z" fill="#57A863"/>
<path d="M16.8569 10.1274H2.85693C2.85693 10.1274 3.11408 10.7232 3.42836 10.7232H16.8569C17.1712 10.7232 17.4284 10.1274 17.4284 10.1274C17.4284 10.1274 17.1712 10.1274 16.8569 10.1274Z" fill="white"/>
<path d="M15.1427 9.23389H14.5713V11.6169H15.1427V9.23389Z" fill="white"/>
<path d="M3 5.12348C3.48572 5.18305 3.22858 4.25964 3.40001 4.11071C3.42858 4.02135 3.48572 4.02135 3.48572 4.1405V4.91497C3.48572 5.15326 3.62857 5.24262 3.74285 5.3022C3.85714 5.3022 3.94286 5.3022 4 5.42135C4.02857 5.86816 4.02858 6.31497 4.05715 6.73199C4.05715 6.73199 4.34285 6.82135 4.37143 5.98731C4.37143 5.51071 4.28572 5.09369 4.34286 5.00432C4.34286 4.91496 4.45715 4.91497 4.54287 4.94475C4.65715 5.03412 4.71429 5.15326 4.91429 5.09369C5.2 5.00433 5.40001 4.85539 5.40001 4.61709C5.37144 4.3788 5.37144 4.17029 5.25715 3.93199C5.25715 3.9022 5.2 3.78305 5.2 3.75327C5.25715 3.84263 5.34286 3.84263 5.34286 3.75327C5.28572 3.57454 5.22857 3.42561 5.08571 3.33625C4.97143 3.24688 4.82858 3.24688 4.77143 3.45539C4.74286 3.69369 4.85714 3.96178 5 4.20007C5.02857 4.28944 5.08572 4.43837 5.05715 4.55752C4.97143 4.61709 4.88571 4.58731 4.8 4.49795C4.8 4.49795 4.57143 4.31922 4.57143 4.25964C4.62857 3.84262 4.57144 3.78305 4.54287 3.6639C4.51429 3.51496 4.45715 3.4554 4.40001 3.33625C4.34287 3.27667 4.25714 3.27667 4.22857 3.33625C4.11428 3.51497 4.17144 3.93198 4.25715 4.11071C4.31429 4.28943 4.4 4.3788 4.34286 4.3788C4.31429 4.46816 4.25715 4.43837 4.2 4.34901C4.14286 4.11071 4.11429 3.78305 4.11429 3.63412C4.08572 3.4554 4.05714 3.03837 3.94285 2.94901C3.85714 2.85965 3.77143 2.88943 3.71429 2.9788C3.71429 3.15752 3.71429 3.36603 3.71429 3.51496C3.8 3.81283 3.82857 4.08093 3.85714 4.3788C3.85714 4.79582 3.62858 4.55752 3.62858 4.34901C3.68572 4.08092 3.65715 3.6639 3.62858 3.54475C3.6 3.4256 3.54285 3.4256 3.45714 3.4256C3.37142 3.4256 3.2 3.63411 3.14286 4.02135C3.14286 4.02135 3.08571 4.20008 3.08571 4.3788C3.05714 4.55752 2.94286 4.70646 2.85714 4.34901C2.77143 4.08092 2.74286 3.45539 2.62858 3.60433C2.65715 4.17029 2.6 5.03412 3 5.12348ZM3.71429 5.48092C3.31429 5.48092 2.74285 6.0171 2.74285 6.31497C3.17142 6.10646 3.57143 5.89795 4 5.68944C3.91429 5.57029 3.97143 5.48092 3.71429 5.48092ZM2.94285 7.65539C2.82857 7.8639 2.8 7.71496 2.8 7.59582C2.77143 7.35752 2.80001 7.14901 2.82858 6.97028C2.85715 6.79156 2.82858 6.85114 2.77143 6.91071C2.54286 7.29795 2.51428 7.89369 2.65714 8.07241C2.71428 8.16177 2.82858 8.19156 2.91429 8.16177C3.05715 8.1022 3.11428 7.77454 3.08571 7.65539C3.02857 7.59582 3 7.59582 2.94285 7.65539ZM12.9714 3.78305C13 3.75327 13.0572 3.78305 13.1143 3.72348C13.1714 3.6639 12.9714 3.15752 12.8286 2.94901C12.8 2.85965 12.7714 2.80007 12.7143 2.94901C12.6286 3.06816 12.6 3.30645 12.6 3.51496C12.7714 4.67666 12.8 5.68944 12.9143 6.88092C12.9143 7.00007 12.9143 7.14901 12.8286 7.20859C12.5714 7.50646 12.1714 7.8639 11.7714 8.01283C11.7143 8.07241 11.8857 8.28092 12.0857 8.28092C12.4286 8.25113 12.7143 8.04263 13 7.50646C13.0857 7.38731 13.2 7.11922 13.2 6.91071C13.2286 5.71922 13.1429 4.79581 12.9714 3.96177C12.9429 3.9022 12.9714 3.81284 12.9714 3.78305ZM17.2286 4.25964C17.2286 4.17028 17.1714 3.99156 17.2 3.96177C17.2286 3.9022 17.3429 3.96178 17.3714 3.9022C17.4286 3.84263 17.0857 3.36603 16.9714 3.18731C16.9429 3.09795 16.9143 3.03837 16.8571 3.18731C16.7714 3.30646 16.7714 3.54475 16.8 3.75327C16.9714 5.00433 17.1143 5.95751 17.1429 7.08943C17.1143 7.20858 17.1143 7.26815 17.0857 7.3873C16.9714 7.53624 16.8571 7.71497 16.7429 7.80433C16.6286 7.89369 16.4 7.98305 16.3143 8.04262C16.0857 8.19156 16.0857 8.37029 16.2572 8.37029C16.6 8.3405 17 8.31071 17.2572 7.8639C17.3429 7.74475 17.4286 7.4171 17.4286 7.20859C17.4571 5.98731 17.4 5.12347 17.2286 4.25964ZM14.7143 5.24263C14.7143 5.09369 14.7429 4.85539 14.7429 4.73624C14.7429 4.67667 14.7714 4.61709 14.8 4.61709C14.8571 4.61709 14.9143 4.67667 14.9143 4.61709C14.9143 4.52773 14.8857 4.34901 14.8286 4.28943C14.7429 4.17028 14.5429 4.20008 14.5143 4.3788C14.5143 4.43837 14.5429 4.49794 14.5429 4.55752C14.5429 4.5873 14.4857 4.61709 14.4286 4.5873L14.3714 4.46816C14.3143 4.43837 14.2286 4.46816 14.1714 4.49795C14.1429 4.55752 14.1143 4.64688 14.1429 4.76603C14.2286 4.94475 14.5429 5.24263 14.7143 5.24263ZM11.8857 5.86816C11.8857 5.74901 11.8857 5.57029 11.8571 5.42135C12.1429 5.92773 12.4571 6.4639 12.7429 7.08943C12.8571 7.02985 12.8286 6.43411 12.7714 6.34475C12.5429 5.83837 12.2286 5.33199 12.1429 5.12348C12.1143 5.06391 11.9714 4.85539 11.8286 4.61709C11.8 4.34901 11.7714 4.1405 11.7714 4.05114C11.7143 3.72348 11.9143 4.08092 11.8857 3.9022C11.8286 3.57454 11.6571 3.33624 11.4286 3.00858C11.3714 2.91922 11.3714 2.88944 11.2572 3.03837C11.2286 3.12774 11.2 3.2171 11.2 3.30646C11.1714 3.27667 11.1429 3.2171 11.0857 3.15752C10.9143 2.9788 10.8857 2.9788 10.7429 2.85965C10.6571 2.80007 10.4857 2.71071 10.4571 2.85965C10.4286 3.00858 10.4571 3.09794 10.4857 3.21709C10.5143 3.30645 10.6286 3.45539 10.6857 3.51496C10.9429 3.9022 11.2 4.28944 11.4571 4.67667C11.5143 5.03412 11.5429 5.36178 11.5714 5.68944C11.6 6.34475 11.6286 7.02985 11.6 7.68517C11.7143 7.68517 11.8857 7.47667 11.9714 7.20859C11.9429 6.82135 11.8857 6.10646 11.8857 5.86816ZM11.1714 3.63412C11.0571 3.48518 11.1429 3.51496 11.2286 3.51496C11.2571 3.57454 11.2572 3.63411 11.2572 3.72348C11.2572 3.75326 11.2572 3.75327 11.2572 3.78305C11.2286 3.69369 11.1714 3.63412 11.1714 3.63412ZM5.88571 7.05965C6.05714 6.43412 5.85714 5.95752 5.94285 5.95752C6.14285 6.19582 6.45714 5.9873 6.51428 5.89794C6.54286 5.86815 6.6 5.83837 6.65714 5.89794C6.82857 6.01709 7.11428 5.95751 7.17142 5.749C7.19999 5.54049 7.22857 5.3022 7.22857 5.09369C7.08571 5.12348 7 5.15326 7 5.21284C7 5.27241 6.97144 5.33199 6.97144 5.39156C6.97144 5.45114 6.85715 5.45114 6.82858 5.39156C6.77144 5.15326 6.57143 5.12347 6.42857 5.48092C6.34286 5.5405 6.19999 5.57028 6.17142 5.45113C6.19999 5.21283 6.08572 5.15327 5.91429 5.27242C5.85715 4.76603 5.8 4.28944 5.71429 3.78305C5.8 3.78305 5.85714 3.84263 5.94285 3.75327C5.85714 3.48518 5.68571 2.94901 5.59999 2.91922C5.54285 2.85964 5.51428 2.88943 5.45714 2.91922C5.34285 2.94901 5.25714 3.03837 5.28572 3.21709C5.4 3.99156 5.48571 4.55752 5.59999 5.33198C5.62857 5.42135 5.54285 5.5405 5.45714 5.5405C5.31428 5.42135 5.25714 5.21284 5 5.21284C4.8 5.21284 4.57144 5.45114 4.54287 5.65965C4.51429 5.83837 4.48572 6.0171 4.54287 6.16603C4.68572 6.34476 4.85714 6.31497 5 6.28518C5.11429 6.22561 5.22858 6.10646 5.25715 6.13624C5.28572 6.16603 5.25714 6.58305 4.71429 6.88092C4.37143 7.02986 4.11429 7.08943 3.97144 6.79156C3.88572 6.61283 3.97142 5.92773 3.74285 6.07667C3.08571 7.8639 5.28571 8.1022 5.51428 6.13624C5.54285 6.04688 5.62857 5.98731 5.65714 6.10645C5.6 7.8639 3.97144 8.01284 3.68572 7.44688C3.62858 7.32773 3.59999 7.02986 3.59999 6.85114C3.57142 6.49369 3.37143 6.64262 3.37143 6.97028C3.34285 7.14901 3.34286 7.20858 3.34286 7.3873C3.42858 8.81709 5.54285 8.22135 5.88571 7.05965ZM5.05715 5.86816C5.05715 5.89795 4.97143 5.89794 4.94285 5.89794C4.88571 5.89794 4.85715 5.89795 4.82858 5.83837C4.80001 5.7788 4.85714 5.74901 4.88571 5.71922C4.91428 5.68944 5.02857 5.62986 5.08571 5.749C5.11428 5.77879 5.08572 5.83837 5.05715 5.86816ZM7.85714 4.70645C8.05714 4.79581 8.17144 4.40858 8.25715 3.99156C8.31429 3.87241 8.34285 3.87242 8.37143 3.93199C8.37143 4.49795 8.40001 4.6171 8.54287 4.79582C8.85715 5.03412 9.08572 4.82561 9.11429 4.79582C9.14287 4.76603 9.34286 4.55752 9.34286 4.55752C9.4 4.49794 9.45715 4.49794 9.54287 4.55752C9.62858 4.61709 9.6 4.73625 9.77143 4.82561C9.91429 4.88518 10.1714 4.8256 10.2572 4.70645C10.3429 4.55752 10.3714 4.49794 10.4 4.43837C10.4572 4.34901 10.5714 4.37879 10.5714 4.40858C10.5714 4.46815 10.4857 4.49794 10.5429 4.5873C10.6286 4.64688 10.6286 4.61709 10.6857 4.5873C10.8286 4.49794 10.9429 4.17028 10.9429 4.17028C10.9429 4.05114 10.8857 4.05114 10.8286 4.08093C10.7714 4.11071 10.7714 4.1405 10.7143 4.17028C10.6286 4.17028 10.4857 4.22986 10.4286 4.11071C10.3429 3.96177 10.3429 3.78305 10.2857 3.63412C10.2857 3.63412 10.2 3.39582 10.2857 3.39582C10.3429 3.39582 10.4286 3.42561 10.4571 3.33625C10.5143 3.24688 10.3429 3.00859 10.2572 2.88944C10.1714 2.80008 10.0286 2.77029 9.91429 2.88944C9.82858 2.9788 9.82858 3.06816 9.82858 3.15752C9.80001 3.24688 9.8 3.36603 9.91429 3.51496C10 3.69369 10.1429 3.9022 10.1143 4.22986C10.1143 4.22986 10.0286 4.3788 9.85714 4.34901C9.8 4.31922 9.68572 4.31922 9.62858 3.87241C9.6 3.54475 9.62857 3.06816 9.51428 2.85965C9.45714 2.7405 9.42857 2.59156 9.31428 2.82986C9.28571 2.91922 9.14287 3.03837 9.25715 3.33625C9.34287 3.51497 9.37143 3.78305 9.34286 4.11071C9.28572 4.20007 9.28572 4.22986 9.20001 4.31922C9.08572 4.43837 8.97143 4.40858 8.91429 4.34901C8.82858 4.28944 8.77142 4.25965 8.74285 4.08093C8.74285 3.78305 8.77143 3.33624 8.71429 3.21709C8.62857 3.06815 8.51428 3.12773 8.45714 3.15752C8.19999 3.39582 8.08572 3.81283 8 4.11071C7.94286 4.349 7.85714 4.28943 7.8 4.17028C7.68571 4.05114 7.65714 3.06816 7.51428 3.24688C7.22857 3.99156 7.6 4.79581 7.85714 4.70645ZM4.45714 3.27667C4.62857 3.36603 4.91429 3.33625 4.91429 3.03837C4.91429 3.00859 4.91429 2.91922 4.91429 2.91922C4.88572 2.82986 4.8 2.85965 4.77143 2.94901C4.77143 2.97879 4.77143 3.00859 4.77143 3.03837C4.77143 3.03837 4.71429 3.03837 4.71429 2.9788C4.71429 2.94901 4.68572 2.91922 4.68572 2.91922H4.65714C4.62857 2.91922 4.62858 2.91922 4.62858 2.94901C4.62858 2.97879 4.62858 2.9788 4.62858 3.00858C4.62858 3.03837 4.62857 3.03837 4.59999 3.03837C4.57142 3.03837 4.57143 3.03837 4.57143 3.03837L4.54287 3.00858C4.54287 2.9788 4.54287 2.94901 4.54287 2.94901L4.51428 2.91922C4.42857 2.91922 4.42857 3.03837 4.42857 3.06815C4.34286 3.03837 4.34285 3.21709 4.45714 3.27667ZM9.25715 5.42135C9.42858 5.51071 9.8 5.45113 9.71429 5.18305C9.71429 5.15326 9.71429 5.0639 9.71429 5.0639C9.68572 4.97454 9.6 5.00433 9.57143 5.09369C9.57143 5.12348 9.57143 5.15326 9.57143 5.18305C9.57143 5.18305 9.51428 5.18305 9.51428 5.12348C9.51428 5.09369 9.48572 5.0639 9.48572 5.0639H9.45714C9.42857 5.0639 9.42857 5.0639 9.42857 5.09369C9.42857 5.12348 9.42857 5.12347 9.42857 5.15326C9.42857 5.18305 9.42858 5.18305 9.40001 5.18305C9.37144 5.18305 9.37143 5.18305 9.37143 5.18305L9.34286 5.15326C9.34286 5.12347 9.34286 5.09369 9.34286 5.09369L9.31428 5.0639C9.22857 5.0639 9.22857 5.18305 9.22857 5.21284C9.14286 5.15326 9.14287 5.36178 9.25715 5.42135ZM12.0571 4.52774C12.2286 4.6171 12.5143 4.5873 12.5143 4.28943C12.5143 4.25964 12.5143 4.17028 12.5143 4.17028C12.4857 4.08092 12.4 4.11071 12.3714 4.20007C12.3714 4.22986 12.3714 4.25964 12.3714 4.28943C12.3714 4.28943 12.3143 4.28944 12.3143 4.22986C12.3143 4.20008 12.2857 4.17028 12.2857 4.17028H12.2572C12.2286 4.17028 12.2286 4.17029 12.2286 4.20007C12.2286 4.22986 12.2286 4.22986 12.2286 4.25964C12.2286 4.28943 12.2286 4.28943 12.2 4.28943C12.1714 4.28943 12.1714 4.28943 12.1714 4.28943L12.1429 4.25964C12.1429 4.22986 12.1429 4.20007 12.1429 4.20007L12.1143 4.17028C12.0286 4.17028 12.0286 4.28943 12.0286 4.31922C11.9429 4.28943 11.9429 4.46816 12.0571 4.52774ZM15.7143 5.33198C15.8286 5.48092 15.9428 5.65965 16.0571 5.80858C16.1143 6.34475 16.1429 6.85113 16.1143 7.41709C16.1143 7.53624 16.4571 7.08944 16.4571 6.91071C16.4571 6.73199 16.4571 6.58305 16.4571 6.4639C16.6286 6.73199 16.8 7.02986 16.9714 7.35752C17.0857 7.29795 17.0286 6.7022 16.9714 6.61284C16.7714 6.28518 16.5429 5.92773 16.3714 5.68944C16.3714 5.65965 16.3428 5.62986 16.3428 5.60007C16.2857 5.42134 16.3143 5.3022 16.2857 5.12348C16.2571 4.94476 16.2571 4.67667 16.2 4.46816C16.2 4.3788 16.1429 4.11071 16.1714 4.08093C16.2 4.02135 16.2571 4.08092 16.3143 4.02135C16.3714 3.96177 16.1143 3.27667 16 3.09794C15.9429 3.00858 15.8857 3.03837 15.7714 3.18731C15.6857 3.27667 15.7143 3.48518 15.7429 3.69369C15.8286 4.17028 15.9143 4.64688 15.9714 5.12348C15.8572 4.94476 15.6857 4.73624 15.5429 4.55752C15.5429 4.52773 15.5429 4.52774 15.5429 4.52774C15.5429 4.52774 15.5143 4.11071 15.5143 4.02135C15.5143 3.99156 15.5143 3.96177 15.5429 3.96177C15.5714 3.99156 15.6 3.99156 15.6286 4.02135C15.6571 4.02135 15.7143 3.96177 15.6857 3.87241C15.5429 3.63411 15.4286 3.36603 15.2857 3.12773C15.2571 3.09794 15.2 3.06816 15.1714 3.12773C15.1143 3.15752 15.0857 3.24688 15.0857 3.36603C15.0857 3.54475 15.1143 3.72348 15.1429 3.9022C15.1429 3.93199 15.1429 3.96177 15.1714 3.99156C15.1429 3.96177 15.1429 3.93199 15.1143 3.93199C14.7714 3.57454 15.2571 3.87241 15.0571 3.57454C14.8857 3.36603 14.8286 3.30646 14.6571 3.15752C14.5714 3.09795 14.5429 3.00859 14.5143 3.18731C14.5143 3.33625 14.4857 3.51497 14.5143 3.63412C14.5143 3.69369 14.5714 3.84263 14.6571 3.93199C14.8857 4.22986 15.1143 4.49795 15.3429 4.79582C15.4 5.45114 15.4 5.9873 15.4571 6.64262C15.4571 6.91071 15.3714 7.1788 15.2857 7.20859C15.2857 7.20859 15.1714 7.26816 15.0857 7.20859C15.0286 7.1788 14.8 6.79156 14.8 6.79156C14.6857 6.67241 14.6 6.7022 14.5143 6.79156C14.2857 7.02985 14.1714 7.47667 14.0286 7.77454C14 7.83412 13.8857 7.89369 13.7429 7.77454C13.4857 7.38731 13.5714 6.91071 13.5714 6.82135C13.2857 7.14901 13.4 7.71496 13.4857 7.83411C13.5714 8.04262 13.6572 8.16178 13.8286 8.25114C14 8.37029 14.1143 8.31071 14.2 8.22135C14.3714 8.04263 14.3714 7.56603 14.4571 7.47667C14.5143 7.29795 14.6571 7.32773 14.7143 7.41709C14.7714 7.50645 14.8571 7.56603 14.9429 7.6256C15.0857 7.77454 15.2857 7.80433 15.4571 7.65539C15.5714 7.59582 15.6571 7.47667 15.7429 7.29794C15.7714 7.00007 15.7429 5.95752 15.7143 5.33198ZM12.1714 3.45539C12.2286 3.63412 12.1143 3.78305 12.2 3.81283C12.2571 3.84262 12.3429 3.63412 12.3714 3.45539C12.4 3.30646 12.3143 2.97879 12.1429 2.91922C12.0571 2.88943 11.9143 2.94901 11.9714 3.06815C11.9429 3.12773 12.1429 3.33624 12.1714 3.45539ZM13.6857 7.47667C13.8 7.47667 13.9429 7.20858 14 6.94049C14.0286 6.55326 13.9714 6.34475 13.9714 6.10645C13.9714 5.89794 13.7429 4.20007 13.6857 4.02135C13.6286 3.69369 13.9143 3.99157 13.8857 3.78305C13.8 3.54476 13.5429 3.2171 13.4857 3.00858C13.4286 2.91922 13.4571 2.85965 13.3714 2.9788C13.2857 3.30646 13.2571 3.57454 13.2857 3.75327C13.4857 5.12348 13.7143 6.22561 13.6857 7.47667ZM16.5143 4.02135C16.5429 4.11071 16.4857 4.37879 16.5429 4.40858C16.6 4.43837 16.6572 4.22986 16.6857 4.02135C16.7143 3.9022 16.6286 3.51497 16.4857 3.45539C16.4 3.42561 16.2857 3.48518 16.3143 3.63412C16.3143 3.69369 16.4857 3.9022 16.5143 4.02135ZM6.59999 6.94049C6.65714 6.97028 6.71428 6.79156 6.74285 6.64262C6.74285 6.55326 6.68572 6.28518 6.54287 6.2256C6.45715 6.19581 6.34287 6.2256 6.40001 6.34475C6.40001 6.40432 6.57143 6.49368 6.57143 6.64262C6.62857 6.73198 6.54285 6.91071 6.59999 6.94049ZM3.17142 3.27667C3.19999 3.33624 3.14286 3.54475 3.2 3.57454C3.25715 3.60433 3.31429 3.4256 3.34286 3.27667C3.34286 3.18731 3.34286 2.88943 3.14286 2.82986C3.05714 2.80007 2.94286 2.85965 3 2.94901C2.97143 3.00858 3.14285 3.15752 3.17142 3.27667ZM6.85714 4.20007C6.71429 4.28944 6.65714 4.52774 6.74285 4.67667C6.82857 4.79582 6.97144 4.76603 6.97144 4.76603C7.11429 4.79582 7.2 4.49795 7.2 4.49795C7.2 4.49795 7.19999 4.40858 7.02857 4.5873C6.97142 4.5873 6.94285 4.58731 6.94285 4.52774C6.91428 4.43837 6.94287 4.37879 6.97144 4.28943C7.00001 4.17028 6.94286 4.1405 6.85714 4.20007ZM7.94285 3.27667C8 3.24688 8.02857 3.21709 8.02857 3.12773C8.05714 3.00858 7.91428 3.18731 7.88571 3.03837C7.85714 2.91923 7.94285 2.85965 8.02857 2.7405C8.02857 2.65114 8.02858 2.59156 7.91429 2.68092C7.82858 2.7405 7.68572 2.88943 7.68572 3.06815C7.68572 3.15752 7.65714 3.15752 7.71429 3.24688C7.82857 3.33624 7.85714 3.33624 7.94285 3.27667ZM8.94285 3.33625C9.02857 3.06816 9.02858 2.94901 9.05715 2.82986C9.02858 2.65114 8.91429 2.65114 8.85714 2.85965C8.82857 2.91922 8.8 3.30646 8.8 3.30646C8.74286 3.42561 8.88571 3.48518 8.94285 3.33625ZM15.1143 5.24263C15.1143 5.24263 14.3429 5.80858 14.3429 5.83837C14.2571 5.89795 14.3143 6.16603 14.3429 6.13624C14.4 6.16603 15.1714 5.60007 15.1429 5.5405C15.1714 5.5405 15.2 5.21284 15.1143 5.24263ZM15.0286 6.79156C15.0857 6.82134 15.2 6.64263 15.2 6.43412C15.2286 6.31497 15.1714 5.89795 15.0286 5.83837C14.9429 5.80858 14.8286 5.89795 14.8857 6.0171C14.8571 6.07667 14.9714 6.31497 15 6.43412C15.0286 6.52348 14.9714 6.76177 15.0286 6.79156ZM11.3143 7.65539C11.2 7.65539 11.0857 7.65539 10.9714 7.77454C10.8857 7.80433 10.8857 7.74475 10.8571 7.71496C10.8286 7.59581 10.8857 7.53624 10.8857 7.44688C10.8857 7.44688 10.8286 7.3873 10.7429 7.41709C10.7429 7.41709 10.5714 7.53624 10.5143 7.6256C10.4857 7.65539 10.4857 7.68518 10.4857 7.71496C10.5143 7.77454 10.5429 7.74475 10.6 7.71496C10.6571 7.71496 10.6857 7.74475 10.6857 7.83411C10.6572 7.95326 10.6857 7.98305 10.6857 7.98305C10.6857 7.98305 10.7429 8.04262 10.8286 8.01283C11 7.95326 11.0857 7.89368 11.3143 7.83411C11.4 7.80432 11.4 7.65539 11.3143 7.65539ZM16.2286 7.92348C16.2 7.89369 16.1143 7.89369 16.0857 7.89369C16.0572 7.89369 16 7.89369 16.0286 7.80433C16.0571 7.77454 16.0572 7.74475 16.0857 7.68517C16.1143 7.6256 16.0857 7.59581 16 7.56603C15.9143 7.53624 15.8857 7.56603 15.8 7.56603C15.7429 7.56603 15.7429 7.59582 15.7143 7.65539C15.7143 7.74476 15.7714 7.74475 15.8286 7.77454C15.8572 7.80433 15.8857 7.8639 15.8286 7.92348C15.7714 7.98305 15.7429 8.01284 15.6857 8.04262C15.6572 8.1022 15.6571 8.16177 15.7143 8.19156C15.8571 8.22135 16.1714 8.01283 16.1714 8.01283C16.2286 8.01283 16.2286 7.92348 16.2286 7.92348ZM10 6.2256C9.91429 6.19581 9.94286 6.16603 10 6.13624C10.3429 6.07667 10.9429 5.98731 10.9714 5.36177C10.9714 5.03411 10.8286 4.8256 10.4571 4.76603C10.1714 4.79582 9.99999 5.0639 10.0286 5.36177C10.0286 5.45114 10.0572 5.60007 9.97144 5.62986C9.45715 5.68943 8.88572 6.01709 8.85714 6.28518C8.82857 6.31497 8.74286 6.25539 8.77143 6.13624C8.74286 5.71922 8.62858 5.24262 8.40001 4.85539C8.22858 4.67666 8.28571 4.73625 8.17142 4.82561C8.11428 4.91497 8.08571 4.97454 8.08571 5.15326C8.08571 5.15326 8.22858 5.5405 8.34286 5.83837C8.42858 6.10646 8.48572 6.43412 8.42857 6.73199C8.25714 7.11922 7.91429 7.50645 7.57143 7.68517C7.4 7.74475 7.25715 7.71496 7.2 7.68517C7.08572 7.59581 7.08572 7.47667 7.11429 7.47667C7.40001 7.26816 7.74286 7.08943 8 6.52347C8.08572 6.31496 8.08571 6.16603 8.02857 5.83837C7.99999 5.71922 7.97142 5.60007 7.88571 5.51071C7.94285 5.48092 8.05714 5.57028 8.08571 5.51071C8.05714 5.36177 7.94287 5.12347 7.82858 5.03411C7.71429 4.94475 7.62857 4.91496 7.51428 5.00432C7.4 5.0639 7.4 5.3022 7.42857 5.48092C7.48572 5.62986 7.62857 5.65965 7.74285 5.95752C7.74285 5.95752 7.77143 6.16603 7.71429 6.25539C7.65714 6.40433 7.08572 6.88093 7.05715 6.91071C7.02858 6.9405 7.05715 6.91071 7.05715 6.82135C7.05715 6.73198 7.08571 6.49368 7.08571 6.49368C6.88571 6.61283 6.82857 7.00007 6.8 7.11922C6.31428 7.47667 5.77143 7.71497 5.48572 8.07241C5.31429 8.3405 6.59999 7.77454 6.74285 7.68517C6.77142 7.71496 6.77143 7.83412 6.85714 7.95327C7 8.13199 7.28572 8.25113 7.54287 8.19156C8.00001 8.01284 8.25715 7.68518 8.54287 7.32773C8.57144 7.26816 8.62858 7.20858 8.68572 7.26815C8.88572 7.71496 9.40001 8.01284 10.1143 8.04262C10.2857 7.83411 10.2 7.74475 10.1429 7.68517C10.1429 7.68517 9.79999 7.53624 9.74285 7.41709C9.71428 7.29794 9.8 7.17879 9.94285 7.08943C10.4 7.02985 10.8286 6.97028 11.2572 6.82135C11.2572 6.67241 11.3429 6.43411 11.4 6.34475C11.4572 6.25539 11.4857 6.28518 11.4857 6.25539L11.4 6.2256H10ZM10.3143 5.36177C10.3429 5.33199 10.4 5.33199 10.4857 5.36177C10.5429 5.39156 10.6 5.45114 10.5714 5.51071C10.5429 5.5405 10.4857 5.5405 10.4 5.51071C10.3143 5.45114 10.2857 5.39156 10.3143 5.36177ZM9.74285 6.85114C9.59999 6.91071 9.45714 6.9405 9.45714 7.1788C9.51428 7.50646 9.37143 7.38731 9.28572 7.35752C9.2 7.29795 8.91428 7.11922 8.88571 6.73199C8.88571 6.64263 8.94286 6.58305 9.05715 6.58305C9.22858 6.64263 9.45714 6.64262 9.65714 6.64262C9.8 6.67241 9.88571 6.82135 9.74285 6.85114ZM6.54287 4.28943C6.68572 4.22986 7.28572 3.48518 7.28572 3.48518C7.25714 3.4554 7.22858 3.4256 7.2 3.39582C7.17143 3.36603 7.17143 3.33624 7.2 3.30646C7.34286 3.2171 7.31428 3.00858 7.22857 2.91922C7.08571 2.85964 6.97142 2.88943 6.88571 2.91922C6.77142 3.03837 6.74287 3.2171 6.82858 3.30646C6.91429 3.33624 7 3.42561 6.94285 3.48518C6.68571 3.78305 6 4.25964 6.05715 4.28943C6.08572 4.28943 6.51429 4.28943 6.54287 4.28943ZM7 3.09794C7.02857 3.09794 7.08572 3.12774 7.11429 3.18731C7.14287 3.24688 7.11428 3.30646 7.08571 3.30646C7.05714 3.30646 7.00001 3.27666 6.97144 3.21709C6.94287 3.15752 6.97143 3.09794 7 3.09794Z" fill="white"/>
</g>
</svg>
