<svg width="20" height="14" viewBox="0 0 20 14" fill="none" xmlns="http://www.w3.org/2000/svg">
<mask id="mask0" mask-type="alpha" maskUnits="userSpaceOnUse" x="0" y="0" width="20" height="14">
<rect width="20" height="14" rx="2" fill="#C4C4C4"/>
</mask>
<g mask="url(#mask0)">
<path d="M20 7.14893H0V14H20V7.14893Z" fill="#F5F7FA"/>
<path d="M20 0H0V7.14894H20V0Z" fill="#F54747"/>
<path d="M6.08583 2.9491L6.02868 2.77036C6.00011 2.71079 6.02869 2.65121 6.08583 2.62143L6.22869 2.50229C6.25726 2.4725 6.25727 2.44271 6.20012 2.44271H6.00012C5.94298 2.44271 5.88583 2.41293 5.85726 2.35335L5.77155 2.14484C5.74298 2.08526 5.7144 2.08526 5.7144 2.14484L5.65726 2.35335C5.62869 2.41293 5.60013 2.44271 5.54298 2.44271H5.34298C5.28584 2.44271 5.28583 2.4725 5.3144 2.50229L5.45725 2.62143C5.48583 2.65121 5.5144 2.74057 5.5144 2.77036L5.45725 2.9491C5.45725 3.00867 5.45726 3.00866 5.5144 2.97888L5.68584 2.85972C5.74298 2.82993 5.80012 2.82993 5.85726 2.85972L6.02868 2.9491C6.08583 3.03846 6.08583 3.00867 6.08583 2.9491ZM5.00012 3.66398L5.17154 3.75334C5.22868 3.78312 5.22869 3.75334 5.22869 3.72356L5.17154 3.54484C5.14297 3.48527 5.17154 3.42569 5.22869 3.39591L5.37154 3.27675C5.40012 3.24696 5.40012 3.21717 5.34298 3.21717H5.14298C5.08583 3.21717 5.02869 3.18739 5.00012 3.12781L4.91441 2.9193C4.88584 2.85972 4.85726 2.85972 4.85726 2.9193L4.80012 3.12781C4.77154 3.18739 4.74298 3.21717 4.68584 3.21717H4.48584C4.42869 3.21717 4.42868 3.24696 4.45725 3.27675L4.60011 3.39591C4.62868 3.42569 4.65726 3.51505 4.65726 3.54484L4.60011 3.72356C4.60011 3.78313 4.60012 3.78312 4.65726 3.75334L4.8287 3.6342C4.88584 3.6342 4.94298 3.63419 5.00012 3.66398ZM7.11441 3.24697C7.14298 3.21718 7.14297 3.18739 7.08583 3.18739H6.88583C6.82868 3.18739 6.77154 3.15761 6.74297 3.09803L6.65726 2.88952C6.62869 2.82994 6.60011 2.82994 6.60011 2.88952L6.54298 3.09803C6.51441 3.15761 6.48583 3.18739 6.42869 3.18739H6.22869C6.17154 3.18739 6.17155 3.21718 6.20012 3.24697L6.34298 3.36611C6.37155 3.39589 6.40013 3.48526 6.40013 3.51504L6.34298 3.69378C6.34298 3.75335 6.34298 3.75334 6.40013 3.72356L6.57155 3.6044C6.62869 3.57461 6.68583 3.57461 6.74297 3.6044L6.91441 3.69378C6.97155 3.72356 6.97155 3.69377 6.97155 3.66398L6.91441 3.48526C6.88584 3.42569 6.91441 3.36611 6.97155 3.33633L7.11441 3.24697ZM6.60011 4.20015C6.54297 4.20015 6.48583 4.17036 6.45725 4.11079L6.37154 3.90227C6.34297 3.8427 6.3144 3.8427 6.3144 3.90227L6.25727 4.11079C6.2287 4.17036 6.20012 4.20015 6.14298 4.20015H5.94297C5.88583 4.20015 5.88584 4.22994 5.91441 4.25972L6.05727 4.37888C6.08584 4.40867 6.11441 4.49803 6.11441 4.52782L6.05727 4.70653C6.05727 4.76611 6.05727 4.76612 6.11441 4.73633L6.28583 4.61717C6.34298 4.58739 6.40011 4.58739 6.45725 4.61717L6.62869 4.70653C6.68584 4.73632 6.68584 4.70654 6.68584 4.67675L6.62869 4.49802C6.60012 4.43844 6.6287 4.37887 6.68584 4.34908L6.8287 4.22994C6.85727 4.20016 6.85726 4.17037 6.80012 4.17037L6.60011 4.20015ZM5.5144 4.20015C5.45726 4.20015 5.40012 4.17036 5.37154 4.11079L5.28583 3.90227C5.25726 3.8427 5.22869 3.8427 5.22869 3.90227L5.17154 4.11079C5.14297 4.17036 5.11441 4.20015 5.05727 4.20015H4.85726C4.80012 4.20015 4.80013 4.22994 4.8287 4.25972L4.97155 4.37888C5.00013 4.40867 5.02868 4.49803 5.02868 4.52782L4.97155 4.70653C4.97155 4.76611 4.97154 4.76612 5.02868 4.73633L5.20012 4.61717C5.25727 4.58739 5.3144 4.58739 5.37154 4.61717L5.54298 4.70653C5.60013 4.73632 5.60011 4.70654 5.60011 4.67675L5.54298 4.49802C5.51441 4.43844 5.54297 4.37887 5.60011 4.34908L5.74297 4.22994C5.77154 4.20016 5.77155 4.17037 5.7144 4.17037L5.5144 4.20015ZM4.60011 4.91505C4.60011 4.94483 4.60011 4.94483 4.60011 4.91505C4.5144 4.94483 4.42869 5.00442 4.34298 5.0342C3.54298 5.30229 2.65727 4.88526 2.40013 4.08101C2.34298 3.93207 2.3144 3.75334 2.3144 3.6044C2.3144 3.45546 2.3144 3.27675 2.37154 3.12781C2.60011 2.29377 3.45727 1.81718 4.25727 2.05548C4.34298 2.08527 4.42869 2.11505 4.5144 2.14484C4.54297 2.14484 4.57155 2.14483 4.57155 2.11504C4.57155 2.08525 4.57155 2.05548 4.54298 2.05548C4.34298 1.90654 4.1144 1.78739 3.85726 1.69803C2.82869 1.40016 1.77155 2.02569 1.48584 3.03845C1.42869 3.21718 1.40012 3.42568 1.42869 3.6044C1.42869 3.78312 1.45727 3.99164 1.54298 4.17037C1.88584 5.18313 2.97155 5.71929 4.00012 5.39164C4.25726 5.30227 4.48583 5.18313 4.65726 5.0044C4.68583 5.0044 4.68584 4.97461 4.68584 4.94483C4.65727 4.94483 4.62868 4.91505 4.60011 4.91505Z" fill="#F5F7FA"/>
</g>
</svg>
