<svg width="20" height="14" viewBox="0 0 20 14" fill="none" xmlns="http://www.w3.org/2000/svg">
<mask id="mask0" mask-type="alpha" maskUnits="userSpaceOnUse" x="0" y="0" width="20" height="14">
<rect width="20" height="14" rx="2" fill="#C4C4C4"/>
</mask>
<g mask="url(#mask0)">
<path d="M20 4.46826H0V9.53209H20V4.46826Z" fill="#4758A9"/>
<path d="M20 0H0V4.46808H20V0Z" fill="#F5F7FA"/>
<path d="M20 9.53174H0V13.9998H20V9.53174Z" fill="#F54747"/>
<path d="M6.28571 3.96147C5.37143 3.96147 4.85714 3.27637 4.85714 3.27637C4.85714 3.27637 4.34286 3.96147 3.42857 3.96147C2.57143 3.96147 2 3.39552 2 3.39552V7.02956C2.02857 9.44232 4.85714 10.4253 4.85714 10.4253C4.85714 10.4253 7.71429 9.44232 7.71429 7.02956V3.39552C7.71429 3.39552 7.14286 3.96147 6.28571 3.96147Z" fill="#F5F7FA"/>
<path d="M5.99986 4.43803C5.257 4.43803 4.857 3.87207 4.857 3.87207C4.857 3.87207 4.457 4.43803 3.71415 4.43803C3.02843 4.43803 2.57129 3.96143 2.57129 3.96143V6.99973C2.59986 8.99547 4.857 9.82952 4.857 9.82952C4.857 9.82952 7.14272 8.99547 7.14272 6.99973V3.96143C7.14272 3.96143 6.68558 4.43803 5.99986 4.43803Z" fill="#F54747"/>
</g>
</svg>
