<svg width="20" height="14" viewBox="0 0 20 14" fill="none" xmlns="http://www.w3.org/2000/svg">
<mask id="mask0" mask-type="alpha" maskUnits="userSpaceOnUse" x="0" y="0" width="20" height="14">
<rect width="20" height="14" rx="2" fill="#C4C4C4"/>
</mask>
<g mask="url(#mask0)">
<path d="M20 4.46826H0V9.53209H20V4.46826Z" fill="#4758A9"/>
<path d="M20 0H0V4.46808H20V0Z" fill="#F5F7FA"/>
<path d="M20 9.53174H0V13.9998H20V9.53174Z" fill="#F54747"/>
<path d="M4.85707 3.36575C4.31422 3.36575 3.99993 2.97852 3.99993 2.97852C3.99993 2.97852 3.68564 3.36575 3.14279 3.36575C2.6285 3.36575 2.28564 3.03809 2.28564 3.03809V5.15298C2.31422 6.55298 3.99993 7.11894 3.99993 7.11894C3.99993 7.11894 5.71422 6.55298 5.71422 5.15298V3.03809C5.71422 3.03809 5.37136 3.36575 4.85707 3.36575Z" fill="#F5F7FA"/>
<path d="M4.68557 3.6636C4.22842 3.6636 3.99985 3.33594 3.99985 3.33594C3.99985 3.33594 3.77127 3.6636 3.31412 3.6636C2.91413 3.6636 2.6284 3.39551 2.6284 3.39551V5.15296C2.6284 6.31466 3.99985 6.79126 3.99985 6.79126C3.99985 6.79126 5.37129 6.31466 5.37129 5.15296V3.39551C5.37129 3.39551 5.08557 3.6636 4.68557 3.6636Z" fill="#4758A9"/>
</g>
</svg>
