<svg width="20" height="14" viewBox="0 0 20 14" fill="none" xmlns="http://www.w3.org/2000/svg">
<mask id="mask0" mask-type="alpha" maskUnits="userSpaceOnUse" x="0" y="0" width="20" height="14">
<rect width="20" height="14" rx="2" fill="#C4C4C4"/>
</mask>
<g mask="url(#mask0)">
<path d="M0.000488281 14.0005H20.0005V0.000488281L0.000488281 14.0005Z" fill="#57A863"/>
<path d="M0.000488281 0.000488281V14.0005L20.0005 0.000488281H0.000488281Z" fill="#4758A9"/>
<path d="M19.7022 -0.91966L-0.79248 12.6641L0.587091 14.9264L21.0818 1.34271L19.7022 -0.91966Z" fill="#FFCE54"/>
<path d="M3.37193 2.05583L3.00049 2.02605C2.91477 2.02605 2.80047 1.93668 2.7719 1.84732L2.65765 1.46009C2.62907 1.37072 2.57192 1.37072 2.54335 1.46009L2.4005 1.84732C2.37192 1.93668 2.25762 2.02604 2.17191 1.99626L1.82907 1.96647C1.74335 1.96647 1.71476 2.02605 1.7719 2.08562L2.00049 2.32392C2.05763 2.38349 2.08619 2.53243 2.05762 2.62179L1.94336 2.97924C1.91479 3.0686 1.94334 3.09839 2.02905 3.0686L2.34333 2.86009C2.42905 2.80051 2.54333 2.80051 2.62905 2.86009L2.91476 3.0686C3.00047 3.12817 3.02905 3.09839 3.02905 3.00903L2.97192 2.68136C2.94335 2.592 3.0005 2.44307 3.08622 2.38349L3.37193 2.14519C3.48622 2.11541 3.45765 2.05583 3.37193 2.05583Z" fill="#F5F7FA"/>
<path d="M6.80064 2.05583L6.4292 2.02605C6.34349 2.02605 6.22919 1.93668 6.20061 1.84732L6.08636 1.46009C6.05778 1.37072 6.00064 1.37072 5.97206 1.46009L5.82921 1.84732C5.80063 1.93668 5.68634 2.02604 5.60062 1.99626L5.25778 1.96647C5.17206 1.96647 5.14347 2.02605 5.20061 2.08562L5.4292 2.32392C5.48634 2.38349 5.5149 2.53243 5.48633 2.62179L5.37207 2.97924C5.3435 3.0686 5.37205 3.09839 5.45776 3.0686L5.77204 2.86009C5.85776 2.80051 5.97204 2.80051 6.05776 2.86009L6.34347 3.0686C6.42919 3.12817 6.45776 3.09839 6.45776 3.00903L6.40064 2.68136C6.37206 2.592 6.42921 2.44307 6.51493 2.38349L6.80064 2.14519C6.91493 2.11541 6.88636 2.05583 6.80064 2.05583Z" fill="#F5F7FA"/>
<path d="M6.80064 5.3322L6.4292 5.30241C6.34349 5.30241 6.22919 5.21305 6.20061 5.12369L6.08636 4.73645C6.05778 4.64709 6.00064 4.64709 5.97206 4.73645L5.82921 5.12369C5.80063 5.21305 5.68634 5.30241 5.60062 5.27262L5.25778 5.24284C5.17206 5.24284 5.14347 5.30241 5.20061 5.36199L5.4292 5.60029C5.48634 5.65986 5.5149 5.8088 5.48633 5.89816L5.37207 6.2556C5.3435 6.34497 5.37205 6.37475 5.45776 6.34497L5.77204 6.13646C5.85776 6.07688 5.97204 6.07688 6.05776 6.13646L6.34347 6.34497C6.42919 6.40454 6.45776 6.37475 6.45776 6.28539L6.40064 5.95773C6.37206 5.86837 6.42921 5.71943 6.51493 5.65986L6.80064 5.42156C6.91493 5.39177 6.88636 5.3322 6.80064 5.3322Z" fill="#F5F7FA"/>
<path d="M3.37193 5.3322L3.00049 5.30241C2.91477 5.30241 2.80047 5.21305 2.7719 5.12369L2.65765 4.73645C2.62907 4.64709 2.57192 4.64709 2.54335 4.73645L2.4005 5.12369C2.37192 5.21305 2.25762 5.30241 2.17191 5.27262L1.82907 5.24284C1.74335 5.24284 1.71476 5.30241 1.7719 5.36199L2.00049 5.60029C2.05763 5.65986 2.08619 5.8088 2.05762 5.89816L1.94336 6.2556C1.91479 6.34497 1.94334 6.37475 2.02905 6.34497L2.34333 6.13646C2.42905 6.07688 2.54333 6.07688 2.62905 6.13646L2.91476 6.34497C3.00047 6.40454 3.02905 6.37475 3.02905 6.28539L2.97192 5.95773C2.94335 5.86837 3.0005 5.71943 3.08622 5.65986L3.37193 5.42156C3.48622 5.39177 3.45765 5.3322 3.37193 5.3322Z" fill="#F5F7FA"/>
<path d="M5.08629 3.54509L4.71484 3.5153C4.62913 3.5153 4.51483 3.42594 4.48626 3.33658L4.372 2.94934C4.34343 2.85998 4.28628 2.85998 4.25771 2.94934L4.11485 3.33658C4.08628 3.42594 3.97198 3.5153 3.88627 3.48552L3.54342 3.45573C3.45771 3.45573 3.42912 3.5153 3.48626 3.57488L3.71484 3.81318C3.77199 3.87275 3.80054 4.02169 3.77197 4.11105L3.65771 4.4685C3.62914 4.55786 3.65769 4.58765 3.74341 4.55786L4.05769 4.34935C4.1434 4.28977 4.25769 4.28977 4.3434 4.34935L4.62912 4.55786C4.71483 4.61743 4.74341 4.58765 4.74341 4.49828L4.68628 4.17062C4.65771 4.08126 4.71486 3.93232 4.80057 3.87275L5.08629 3.63445C5.20057 3.60466 5.172 3.54509 5.08629 3.54509Z" fill="#F5F7FA"/>
</g>
</svg>
