<svg width="20" height="14" viewBox="0 0 20 14" fill="none" xmlns="http://www.w3.org/2000/svg">
<mask id="mask0" mask-type="alpha" maskUnits="userSpaceOnUse" x="0" y="0" width="20" height="14">
<rect width="20" height="14" rx="2" fill="#C4C4C4"/>
</mask>
<g mask="url(#mask0)">
<path d="M20 0H0V14H20V0Z" fill="#4A89DC"/>
<path d="M12.0287 6.4342L11.0573 6.40442C10.8002 6.40442 10.543 6.16612 10.4573 5.92782L10.143 4.88526C10.0573 4.64697 9.94303 4.64697 9.85732 4.88526L9.54304 5.92782C9.45733 6.16612 9.20019 6.37463 8.94305 6.37463H8.00018C7.74303 6.37463 7.68588 6.52356 7.88588 6.70229L8.54304 7.32782C8.74304 7.50655 8.82873 7.86399 8.77159 8.10229L8.51448 9.05548C8.45733 9.32356 8.57159 9.41293 8.77159 9.26399L9.5716 8.69803C9.7716 8.5491 10.143 8.5491 10.343 8.69803L11.1145 9.2342C11.3145 9.38314 11.4573 9.29378 11.3716 9.02569L11.1716 8.19165C11.1145 7.92357 11.2288 7.5959 11.4002 7.41718L12.143 6.76186C12.343 6.58314 12.2859 6.4342 12.0287 6.4342Z" fill="white"/>
</g>
</svg>
