<svg width="20" height="14" viewBox="0 0 20 14" fill="none" xmlns="http://www.w3.org/2000/svg">
<mask id="mask0" mask-type="alpha" maskUnits="userSpaceOnUse" x="0" y="0" width="20" height="14">
<rect width="20" height="14" rx="2" fill="#C4C4C4"/>
</mask>
<g mask="url(#mask0)">
<path d="M20 9.53174H0V13.9998H20V9.53174Z" fill="#57A863"/>
<path d="M20 0H0V4.46808H20V0Z" fill="#434A54"/>
<path d="M20 4.46826H0V9.53209H20V4.46826Z" fill="white"/>
<path d="M20 5.06396H0V8.93631H20V5.06396Z" fill="#F54747"/>
<path d="M0 1.48926V12.5105L9.14286 6.9999L0 1.48926Z" fill="#4758A9"/>
<path d="M3.97128 7.3574C3.857 7.17867 3.857 6.91059 3.94272 6.73186L4.31413 6.07654C4.39984 5.89782 4.3427 5.80846 4.17127 5.86804L3.45698 6.07654C3.28555 6.13612 3.0284 6.04675 2.91412 5.89782L2.42842 5.21271C2.31413 5.06378 2.22843 5.09356 2.22843 5.30207L2.257 6.13612C2.257 6.34463 2.11415 6.55314 1.94272 6.61272L1.257 6.85101C1.08557 6.91059 1.08557 7.02973 1.257 7.11909L1.88555 7.41697C2.05698 7.50633 2.22843 7.74463 2.22843 7.92335L2.28556 8.66803C2.28556 8.87654 2.39986 8.90633 2.51415 8.75739L2.94272 8.13186C3.057 7.98292 3.31412 7.89357 3.48555 7.92335L4.17127 8.10208C4.37127 8.16165 4.42841 8.0425 4.31413 7.89356L3.97128 7.3574Z" fill="#FFCE54"/>
</g>
</svg>
