<svg width="20" height="14" viewBox="0 0 20 14" fill="none" xmlns="http://www.w3.org/2000/svg">
<mask id="mask0" mask-type="alpha" maskUnits="userSpaceOnUse" x="0" y="0" width="20" height="14">
<rect width="20" height="14" rx="2" fill="#C4C4C4"/>
</mask>
<g mask="url(#mask0)">
<path d="M20 2.97852H0V11.0211H20V2.97852Z" fill="#FFCE54"/>
<path d="M20 0H0V2.97872H20V0Z" fill="#F54747"/>
<path d="M20 11.0215H0V14.0002H20V11.0215Z" fill="#F54747"/>
<path d="M4.80027 5.064C4.20027 5.064 3.85739 4.61719 3.85739 4.61719C3.85739 4.61719 3.54309 5.064 2.91452 5.064C2.37167 5.064 1.97169 4.70655 1.97169 4.70655V7.1491C2.00026 8.75761 3.82883 9.41293 3.82883 9.41293C3.82883 9.41293 5.68597 8.75761 5.68597 7.1491V4.70655C5.71454 4.70655 5.34312 5.064 4.80027 5.064Z" fill="#F54747"/>
</g>
</svg>
