<svg width="20" height="14" viewBox="0 0 20 14" fill="none" xmlns="http://www.w3.org/2000/svg">
<mask id="mask0" mask-type="alpha" maskUnits="userSpaceOnUse" x="0" y="0" width="20" height="14">
<rect width="20" height="14" rx="2" fill="#C4C4C4"/>
</mask>
<g mask="url(#mask0)">
<path d="M20 0H0V14H20V0Z" fill="#57A863"/>
<path d="M20 3.57471H0V10.7236H20V3.57471Z" fill="white"/>
<path d="M20 4.46826H0V9.82996H20V4.46826Z" fill="#F54747"/>
<path d="M11.657 6.67259L10.857 6.64279C10.657 6.64279 10.4285 6.46408 10.3713 6.25556L10.1142 5.39173C10.057 5.18322 9.94272 5.18322 9.88558 5.39173L9.62843 6.25556C9.57129 6.46408 9.34273 6.64279 9.14273 6.64279H8.37132C8.17132 6.64279 8.11416 6.76195 8.28559 6.91089L8.82845 7.44705C8.97131 7.59599 9.05702 7.89387 8.99987 8.10238L8.79989 8.90664C8.74274 9.11515 8.82844 9.2045 9.02844 9.08535L9.68559 8.60876C9.85702 8.48961 10.1427 8.48961 10.3142 8.60876L10.9427 9.05557C11.1142 9.17472 11.2284 9.08535 11.1713 8.87684L10.9999 8.16195C10.9427 7.95344 11.0284 7.65557 11.1999 7.50663L11.8285 6.97047C11.9142 6.79174 11.8856 6.67259 11.657 6.67259Z" fill="#FFCE54"/>
</g>
</svg>
