<svg width="20" height="14" viewBox="0 0 20 14" fill="none" xmlns="http://www.w3.org/2000/svg">
<mask id="mask0" mask-type="alpha" maskUnits="userSpaceOnUse" x="0" y="0" width="20" height="14">
<rect width="20" height="14" rx="2" fill="#C4C4C4"/>
</mask>
<g mask="url(#mask0)">
<path d="M20 0H0V14H20V0Z" fill="#4758A9"/>
<path d="M20 2.08496H0V11.9147H20V2.08496Z" fill="#FFCE54"/>
<path d="M20 2.97852H0V11.0211H20V2.97852Z" fill="#F54747"/>
<path d="M15.9999 5.95752H4.57129V6.25539H15.9999V5.95752Z" fill="#FFCE54"/>
<path d="M17.7145 7.14893H3.14307V7.74467H17.7145V7.14893Z" fill="#FFCE54"/>
<path d="M9.56462 9.62449C10.8767 9.05787 11.4998 7.48961 10.9563 6.12169C10.4128 4.75377 8.90853 4.10419 7.59645 4.67082C6.28436 5.23744 5.66129 6.8057 6.20479 8.17362C6.74828 9.54153 8.25253 10.1911 9.56462 9.62449Z" fill="#434A54"/>
<path d="M14.0989 8.17128C14.6424 6.80336 14.0193 5.2351 12.7072 4.66848C11.3951 4.10185 9.89086 4.75143 9.34737 6.11935C8.80387 7.48727 9.42694 9.05553 10.739 9.62215C12.0511 10.1888 13.5554 9.5392 14.0989 8.17128Z" fill="#F5F7FA"/>
</g>
</svg>
