<svg width="20" height="14" viewBox="0 0 20 14" fill="none" xmlns="http://www.w3.org/2000/svg">
<mask id="mask0" mask-type="alpha" maskUnits="userSpaceOnUse" x="0" y="0" width="20" height="14">
<rect width="20" height="14" rx="2" fill="#C4C4C4"/>
</mask>
<g mask="url(#mask0)">
<path d="M20 0H0V14H20V0Z" fill="#F54747"/>
<path d="M10.5712 3.57471H9.42836C9.11408 3.57471 8.85693 3.84279 8.85693 4.17045V10.1279C8.85693 10.4556 9.11408 10.7236 9.42836 10.7236H10.5712C10.8855 10.7236 11.1426 10.4556 11.1426 10.1279V4.17045C11.1426 3.84279 10.8855 3.57471 10.5712 3.57471Z" fill="white"/>
<path d="M12.857 5.95752H7.14272C6.82843 5.95752 6.57129 6.2256 6.57129 6.55326V7.74475C6.57129 8.07241 6.82843 8.3405 7.14272 8.3405H12.857C13.1713 8.3405 13.4284 8.07241 13.4284 7.74475V6.55326C13.4284 6.2256 13.1713 5.95752 12.857 5.95752Z" fill="white"/>
</g>
</svg>
