<svg width="20" height="14" viewBox="0 0 20 14" fill="none" xmlns="http://www.w3.org/2000/svg">
<mask id="mask0" mask-type="alpha" maskUnits="userSpaceOnUse" x="0" y="0" width="20" height="14">
<rect width="20" height="14" rx="2" fill="#C4C4C4"/>
</mask>
<g mask="url(#mask0)">
<path d="M20 4.46826H0V9.53209H20V4.46826Z" fill="#F5F7FA"/>
<path d="M20 0H0V4.46808H20V0Z" fill="#F54747"/>
<path d="M20 9.53174H0V13.9998H20V9.53174Z" fill="#434A54"/>
<path d="M8.74274 6.73217C8.88559 6.58324 8.85704 6.46409 8.65704 6.46409H7.85703C7.65703 6.46409 7.42844 6.28536 7.34273 6.07685L7.05702 5.21302C6.99987 5.00451 6.88561 5.00451 6.82847 5.21302L6.57132 6.07685C6.51417 6.28536 6.28562 6.46409 6.08562 6.46409L5.31417 6.49388C5.11417 6.49388 5.05704 6.61302 5.22847 6.76196L5.7713 7.26834C5.94273 7.41728 6.02847 7.71515 5.97132 7.92366L5.7999 8.72792C5.74276 8.93643 5.85702 9.02579 6.02845 8.87685L6.68561 8.40026C6.85704 8.28111 7.14274 8.25132 7.31417 8.37047L7.94276 8.78749C8.11419 8.90664 8.22845 8.81728 8.17131 8.60877L7.97132 7.92366C7.91418 7.71515 7.99989 7.41728 8.14274 7.26834L8.74274 6.73217Z" fill="#57A863"/>
<path d="M14.7427 6.73217C14.8856 6.58324 14.857 6.46409 14.657 6.46409H13.857C13.657 6.46409 13.4284 6.28536 13.3427 6.07685L13.057 5.21302C12.9999 5.00451 12.8856 5.00451 12.8285 5.21302L12.5713 6.07685C12.5142 6.28536 12.2856 6.46409 12.0856 6.46409L11.3142 6.49388C11.1142 6.49388 11.057 6.61302 11.2285 6.76196L11.7713 7.26834C11.9427 7.41728 12.0285 7.71515 11.9713 7.92366L11.7999 8.72792C11.7428 8.93643 11.857 9.02579 12.0285 8.87685L12.6856 8.40026C12.857 8.28111 13.1427 8.25132 13.3142 8.37047L13.9428 8.78749C14.1142 8.90664 14.2284 8.81728 14.1713 8.60877L13.9713 7.92366C13.9142 7.71515 13.9999 7.41728 14.1427 7.26834L14.7427 6.73217Z" fill="#57A863"/>
</g>
</svg>
