<svg width="20" height="14" viewBox="0 0 20 14" fill="none" xmlns="http://www.w3.org/2000/svg">
<mask id="mask0" mask-type="alpha" maskUnits="userSpaceOnUse" x="0" y="0" width="20" height="14">
<rect width="20" height="14" rx="2" fill="#C4C4C4"/>
</mask>
<g mask="url(#mask0)">
<path d="M20 0H0V14H20V0Z" fill="#F54747"/>
<path d="M8.85714 0H0V7.14894H8.85714V0Z" fill="#4758A9"/>
<path d="M6.25716 3.45557L6.14287 3.24705C6.1143 3.18748 6.08574 3.06833 6.08574 2.97897V2.74067C6.08574 2.65131 6.02859 2.56195 5.97145 2.53216L5.77143 2.41302C5.71429 2.38323 5.62858 2.29386 5.60001 2.23429L5.48571 2.02578C5.45714 1.96621 5.34287 1.90663 5.28573 1.90663H5.05714C4.97143 1.90663 4.85717 1.87684 4.80003 1.84705L4.60001 1.72791C4.54286 1.69812 4.4286 1.69812 4.37146 1.72791L4.17144 1.84705C4.11429 1.87684 4 1.90663 3.91429 1.90663H3.68574C3.60002 1.90663 3.51429 1.96621 3.48571 2.02578L3.37146 2.23429C3.34289 2.29386 3.25714 2.38323 3.2 2.41302L3.00001 2.53216C2.94287 2.56195 2.88572 2.6811 2.88572 2.74067V2.97897C2.88572 3.06833 2.85716 3.18748 2.82859 3.24705L2.7143 3.45557C2.68573 3.51514 2.68573 3.63429 2.7143 3.69386L2.82859 3.90238C2.85716 3.96195 2.88572 4.0811 2.88572 4.17046V4.40876C2.88572 4.49812 2.94287 4.58748 3.00001 4.61727L3.2 4.73642C3.25714 4.7662 3.34289 4.85557 3.37146 4.91514L3.48571 5.12365C3.51429 5.18322 3.62859 5.2428 3.68574 5.2428H3.91429C4 5.2428 4.11429 5.27259 4.17144 5.30238L4.37146 5.42152C4.4286 5.45131 4.54286 5.45131 4.60001 5.42152L4.80003 5.30238C4.85717 5.27259 4.97143 5.2428 5.05714 5.2428H5.28573C5.37144 5.2428 5.45714 5.18322 5.48571 5.12365L5.60001 4.91514C5.62858 4.85557 5.71429 4.76621 5.77143 4.70663L5.97145 4.58748C6.02859 4.55769 6.08574 4.43854 6.08574 4.37897V4.14067C6.08574 4.05131 6.1143 3.93216 6.14287 3.87259L6.25716 3.66408C6.28574 3.63429 6.28574 3.51514 6.25716 3.45557Z" fill="#F5F7FA"/>
</g>
</svg>
