<svg width="20" height="14" viewBox="0 0 20 14" fill="none" xmlns="http://www.w3.org/2000/svg">
<mask id="mask0" mask-type="alpha" maskUnits="userSpaceOnUse" x="0" y="0" width="20" height="14">
<rect width="20" height="14" rx="2" fill="#C4C4C4"/>
</mask>
<g mask="url(#mask0)">
<path d="M20 3.57471H0V14.0002H20V3.57471Z" fill="#FFCE54"/>
<path d="M20.0001 0H7.42871V3.57447H20.0001V0Z" fill="#57A863"/>
<path d="M7.42857 0H0V7.14894H7.42857V0Z" fill="#F54747"/>
<path d="M5.74261 3.00842L4.77117 2.97863C4.51403 2.97863 4.25689 2.74033 4.17118 2.50204L3.8569 1.45948C3.77119 1.22119 3.6569 1.22119 3.57119 1.45948L3.25691 2.50204C3.17119 2.74033 2.91406 2.94884 2.65692 2.94884H1.71404C1.4569 2.94884 1.39975 3.09778 1.59975 3.27651L2.25691 3.90204C2.45691 4.08076 2.5426 4.43821 2.48546 4.67651L2.22834 5.6297C2.1712 5.89778 2.28546 5.98715 2.48546 5.83821L3.28547 5.27225C3.48547 5.12332 3.85689 5.12332 4.05689 5.27225L4.82834 5.80842C5.02834 5.95736 5.1712 5.86799 5.08549 5.59991L4.88547 4.76587C4.82832 4.49778 4.94262 4.17012 5.11405 3.9914L5.8569 3.33608C6.0569 3.15736 5.99975 3.00842 5.74261 3.00842Z" fill="white"/>
<path d="M20 7.14893H0V10.7234H20V7.14893Z" fill="#57A863"/>
</g>
</svg>
