<svg width="20" height="14" viewBox="0 0 20 14" fill="none" xmlns="http://www.w3.org/2000/svg">
<mask id="mask0" mask-type="alpha" maskUnits="userSpaceOnUse" x="0" y="0" width="20" height="14">
<rect width="20" height="14" rx="2" fill="#C4C4C4"/>
</mask>
<g mask="url(#mask0)">
<path d="M20 0H0V14H20V0Z" fill="#F54747"/>
<path d="M8.28571 0H0V6.85106H8.28571V0Z" fill="white"/>
<path d="M4.28585 1.48926H4.00014C3.68585 1.48926 3.42871 1.75734 3.42871 2.085V4.76585C3.42871 5.09351 3.68585 5.3616 4.00014 5.3616H4.28585C4.60014 5.3616 4.85728 5.09351 4.85728 4.76585V2.085C4.85728 1.75734 4.60014 1.48926 4.28585 1.48926Z" fill="#F54747"/>
<path d="M5.4285 2.68066H2.85707C2.54279 2.68066 2.28564 2.94875 2.28564 3.27641V3.57428C2.28564 3.90194 2.54279 4.17003 2.85707 4.17003H5.4285C5.74279 4.17003 5.99993 3.90194 5.99993 3.57428V3.27641C5.99993 2.94875 5.74279 2.68066 5.4285 2.68066Z" fill="#F54747"/>
</g>
</svg>
