<svg width="20" height="14" viewBox="0 0 20 14" fill="none" xmlns="http://www.w3.org/2000/svg">
<mask id="mask0" mask-type="alpha" maskUnits="userSpaceOnUse" x="0" y="0" width="20" height="14">
<rect width="20" height="14" rx="2" fill="#C4C4C4"/>
</mask>
<g mask="url(#mask0)">
<path d="M20 0H0V14H20V0Z" fill="#F54747"/>
<path d="M9.99986 10.5742C11.8934 10.5742 13.4284 8.97389 13.4284 6.99976C13.4284 5.02564 11.8934 3.42529 9.99986 3.42529C8.10631 3.42529 6.57129 5.02564 6.57129 6.99976C6.57129 8.97389 8.10631 10.5742 9.99986 10.5742Z" fill="white"/>
<path d="M12.914 6.64208L12.4283 6.6123C12.2854 6.6123 12.1711 6.49316 12.114 6.37401L11.9426 5.83782C11.914 5.71867 11.8283 5.71867 11.7997 5.83782L11.6283 6.37401C11.5997 6.49316 11.4568 6.6123 11.314 6.6123H10.8283C10.6854 6.6123 10.6568 6.67187 10.7711 6.79102L11.114 7.11869C11.1997 7.20805 11.2569 7.38677 11.2283 7.50592L11.0854 7.98251C11.0569 8.10166 11.114 8.16123 11.2283 8.07187L11.6283 7.80379C11.7425 7.74422 11.914 7.74422 12.0283 7.80379L12.4283 8.07187C12.5426 8.13144 12.5997 8.10166 12.5711 7.98251L12.4568 7.5357C12.4283 7.41655 12.4854 7.23783 12.5711 7.14847L12.9711 6.82082C13.0569 6.73146 13.0283 6.67187 12.914 6.64208ZM11.3997 8.96548C11.2854 9.02506 11.1711 9.05485 11.0568 9.11442C9.94255 9.44208 8.79969 8.78677 8.48541 7.65486C8.42826 7.44635 8.39971 7.20804 8.39971 6.99953C8.39971 6.79102 8.42829 6.55272 8.51401 6.34421C8.88543 5.2123 10.0568 4.58676 11.1711 4.94421C11.2854 4.97399 11.3997 5.03357 11.4854 5.09314C11.514 5.09314 11.5711 5.09316 11.5711 5.03358C11.5711 5.0038 11.5711 4.97399 11.5426 4.94421C11.2854 4.70591 10.9997 4.52719 10.6569 4.40804C9.28543 3.96123 7.79969 4.73571 7.34255 6.16549C7.25684 6.43358 7.19969 6.70167 7.19969 6.96975C7.19969 7.23784 7.22828 7.50591 7.28542 7.77399C7.68542 9.20378 9.14258 10.0378 10.514 9.62081C10.8569 9.50166 11.1711 9.35272 11.4283 9.11442C11.4568 9.08463 11.4568 9.05485 11.4568 9.02506C11.4854 8.96549 11.4283 8.96548 11.3997 8.96548Z" fill="#F54747"/>
</g>
</svg>
