<svg width="20" height="14" viewBox="0 0 20 14" fill="none" xmlns="http://www.w3.org/2000/svg">
<mask id="mask0" mask-type="alpha" maskUnits="userSpaceOnUse" x="0" y="0" width="20" height="14">
<rect width="20" height="14" rx="2" fill="#C4C4C4"/>
</mask>
<g mask="url(#mask0)">
<path d="M20 0H0V14H20V0Z" fill="#F54747"/>
<path d="M14.2284 6.46367L13.4855 6.43387C13.2855 6.43387 13.0856 6.25515 13.0284 6.04664L12.7713 5.24238C12.7141 5.03387 12.5999 5.03387 12.5427 5.24238L12.2856 6.04664C12.2284 6.25515 11.9999 6.40409 11.8284 6.40409H11.0856C10.8856 6.40409 10.857 6.52324 10.9998 6.64238L11.5141 7.14877C11.657 7.29771 11.7427 7.56579 11.6856 7.7743L11.4855 8.51898C11.4284 8.72749 11.5141 8.78706 11.6856 8.66791L12.3141 8.2509C12.4856 8.13175 12.7427 8.13175 12.9141 8.2509L13.5141 8.66791C13.6856 8.78706 13.7713 8.6977 13.7141 8.51898L13.5427 7.86367C13.4856 7.65516 13.5713 7.38708 13.7427 7.26793L14.3141 6.76154C14.457 6.58282 14.3999 6.46367 14.2284 6.46367ZM11.9427 10.0083C11.9427 10.0381 11.9427 10.0381 11.9427 10.0083C11.7713 10.0977 11.5998 10.1573 11.4284 10.2169C9.7427 10.7232 7.99985 9.74026 7.54271 7.98281C7.457 7.65515 7.39985 7.29771 7.42842 6.97005C7.42842 6.6424 7.48555 6.28494 7.59984 5.95728C8.1427 4.22962 9.9427 3.24664 11.5713 3.8126C11.7427 3.87217 11.9141 3.93175 12.057 4.02111C12.1141 4.0509 12.1713 4.02111 12.1998 3.96153C12.2284 3.90196 12.1998 3.87218 12.1713 3.84239C11.7998 3.48495 11.3427 3.21686 10.8284 3.03814C8.77128 2.32324 6.51414 3.54452 5.82842 5.71899C5.71414 6.13601 5.6284 6.52324 5.6284 6.94026C5.6284 7.35728 5.65698 7.74452 5.77126 8.16154C6.37126 10.3658 8.54272 11.6169 10.657 10.9913C11.1713 10.8424 11.657 10.5743 12.057 10.2169C12.0855 10.1871 12.1141 10.1275 12.1141 10.0977C12.057 10.0381 11.9999 10.0083 11.9427 10.0083Z" fill="white"/>
</g>
</svg>
