<svg width="20" height="14" viewBox="0 0 20 14" fill="none" xmlns="http://www.w3.org/2000/svg">
<mask id="mask0" mask-type="alpha" maskUnits="userSpaceOnUse" x="0" y="0" width="20" height="14">
<rect width="20" height="14" rx="2" fill="#C4C4C4"/>
</mask>
<g mask="url(#mask0)">
<path d="M20 0H0V14H20V0Z" fill="#57A863"/>
<path d="M4.85714 0H2V14H4.85714V0Z" fill="#F54747"/>
<path d="M9.0287 2.35317C9.05727 2.41274 9.08584 2.50209 9.05726 2.56167L8.91441 2.79998C8.88584 2.85955 8.91443 2.88932 8.97157 2.85954L9.20012 2.7404C9.25726 2.71061 9.34301 2.74039 9.37158 2.77018L9.543 2.94891C9.60014 3.00849 9.62869 2.97869 9.62869 2.91912V2.68082C9.62869 2.62125 9.68584 2.53189 9.74299 2.50211L9.94301 2.38295C10.0001 2.35316 10.0001 2.32338 9.94301 2.29359L9.71442 2.23401C9.65728 2.20423 9.60014 2.14465 9.57156 2.08508L9.543 1.84678C9.543 1.78721 9.48584 1.7872 9.45727 1.81698L9.34298 1.99572C9.31441 2.05529 9.2287 2.08508 9.17156 2.08508L8.91441 2.0553C8.85726 2.0553 8.8287 2.08508 8.88584 2.14465L9.0287 2.35317ZM11.7716 2.88934C11.4573 2.71061 11.1144 2.59146 10.7716 2.53189C10.743 2.53189 10.7144 2.53188 10.6859 2.56167C10.6573 2.59145 10.6859 2.65104 10.7144 2.65104C10.8287 2.68083 10.943 2.7404 11.0287 2.79998C12.0573 3.39572 12.3716 4.76593 11.7716 5.80848C11.6573 6.01699 11.5144 6.19571 11.343 6.34465C11.1716 6.49358 11.0001 6.64252 10.8001 6.73188C9.74301 7.26805 8.45729 6.79145 7.97157 5.68932C7.91443 5.57018 7.88585 5.45104 7.85728 5.33189C7.82871 5.3021 7.80012 5.27231 7.77155 5.30209C7.74298 5.30209 7.71441 5.36167 7.74299 5.39145C7.74299 5.7489 7.82871 6.10636 8.00014 6.4638C8.62871 7.83402 10.2287 8.42976 11.5716 7.74465C11.8287 7.6255 12.0287 7.47657 12.2287 7.26806C12.4287 7.08934 12.6001 6.88082 12.743 6.61274C13.4858 5.33189 13.0573 3.6638 11.7716 2.88934ZM7.88584 1.45955C7.91441 1.51913 7.94298 1.60847 7.91441 1.66805L7.77155 1.90636C7.74298 1.96593 7.77157 1.99571 7.82871 1.96592L8.05726 1.84678C8.11441 1.817 8.20015 1.84678 8.22872 1.87656L8.40014 2.0553C8.45729 2.11487 8.48584 2.08507 8.48584 2.0255V1.7872C8.48584 1.72763 8.54299 1.63828 8.60013 1.60849L8.80015 1.48933C8.85729 1.45954 8.85729 1.42976 8.80015 1.39997L8.57156 1.3404C8.51442 1.31061 8.45728 1.25103 8.42871 1.19146L8.40014 0.953165C8.40014 0.893591 8.34299 0.89358 8.31441 0.923367L8.20012 1.1021C8.17155 1.16168 8.08584 1.19146 8.0287 1.19146L7.77155 1.16168C7.71441 1.16168 7.68584 1.19146 7.74299 1.25104L7.88584 1.45955ZM7.60013 2.65104C7.6287 2.71062 7.65726 2.79996 7.62869 2.85954L7.48584 3.09785C7.45726 3.15742 7.48586 3.1872 7.543 3.15741L7.77155 3.03827C7.82869 3.00848 7.91443 3.03826 7.94301 3.06805L8.11443 3.24679C8.17157 3.30636 8.20012 3.27656 8.20012 3.21699V2.97869C8.20012 2.91912 8.25727 2.82976 8.31441 2.79998L8.51443 2.68082C8.57158 2.65103 8.57158 2.62125 8.51443 2.59146L8.28585 2.53189C8.22871 2.5021 8.17156 2.44252 8.14299 2.38295L8.11443 2.14465C8.11443 2.08508 8.05727 2.08507 8.0287 2.11486L7.91441 2.29359C7.88584 2.35317 7.80013 2.38295 7.74299 2.38295L7.48584 2.35317C7.42869 2.35317 7.40013 2.38295 7.45727 2.44253L7.60013 2.65104ZM7.08586 3.18721L6.85728 3.12763C6.80014 3.09784 6.74299 3.03827 6.71442 2.97869L6.68586 2.7404C6.68586 2.68082 6.6287 2.68081 6.60013 2.7106L6.48584 2.88934C6.45726 2.94891 6.37156 2.97869 6.31441 2.97869L6.05726 2.94891C6.00012 2.94891 5.97156 2.9787 6.0287 3.03827L6.20012 3.24679C6.22869 3.30636 6.25729 3.39571 6.22872 3.45528L6.08586 3.69359C6.05729 3.75317 6.08585 3.78294 6.14299 3.75315L6.37158 3.63402C6.42872 3.60423 6.51443 3.63401 6.543 3.6638L6.71442 3.84253C6.77156 3.90211 6.80015 3.87231 6.80015 3.81273V3.57444C6.80015 3.51486 6.85726 3.42551 6.91441 3.39572L7.11443 3.27657C7.17157 3.24678 7.14301 3.18721 7.08586 3.18721ZM7.94301 4.70635V4.46806C7.94301 4.40848 8.00012 4.31913 8.05726 4.28934L8.25729 4.17018C8.31443 4.1404 8.31443 4.11061 8.25729 4.08083L8.0287 4.02125C7.97156 3.99146 7.91441 3.93189 7.88584 3.87231L7.85728 3.63402C7.85728 3.57444 7.80012 3.57443 7.77155 3.60422L7.65729 3.78295C7.62872 3.84253 7.54298 3.87231 7.48584 3.87231L7.22872 3.84253C7.17158 3.84253 7.14298 3.87231 7.20012 3.93189L7.37158 4.1404C7.40015 4.19998 7.42871 4.28932 7.40014 4.3489L7.25728 4.58721C7.22871 4.64679 7.25727 4.67656 7.31441 4.64677L7.543 4.52763C7.60014 4.49785 7.68585 4.52763 7.71442 4.55741L7.88584 4.73615C7.88584 4.79572 7.94301 4.76592 7.94301 4.70635Z" fill="white"/>
</g>
</svg>
