<svg width="20" height="14" viewBox="0 0 20 14" fill="none" xmlns="http://www.w3.org/2000/svg">
<mask id="mask0" mask-type="alpha" maskUnits="userSpaceOnUse" x="0" y="0" width="20" height="14">
<rect width="20" height="14" rx="2" fill="#C4C4C4"/>
</mask>
<g mask="url(#mask0)">
<path d="M20 0H0V14H20V0Z" fill="#4758A9"/>
<mask id="mask1" mask-type="alpha" maskUnits="userSpaceOnUse" x="0" y="0" width="8" height="8">
<rect width="7.14286" height="7.14894" fill="#C4C4C4"/>
</mask>
<g mask="url(#mask1)">
<path d="M-0.0311233 -1.16666L-1.12206 -0.0293046L6.87827 8.31146L7.9692 7.1741L-0.0311233 -1.16666Z" fill="white"/>
<path d="M6.87924 -1.16354L-1.12111 7.17725L-0.030147 8.31464L7.9702 -0.0261559L6.87924 -1.16354Z" fill="white"/>
<path d="M7.06106 -0.637136L-0.636226 7.38769L-0.232169 7.80894L7.46511 -0.215885L7.06106 -0.637136Z" fill="#F54747"/>
<path d="M-0.232168 -0.657574L-0.636226 -0.236323L7.06106 7.7885L7.46511 7.36725L-0.232168 -0.657574Z" fill="#F54747"/>
<path d="M3.99979 0H2.85693V7.14894H3.99979V0Z" fill="white"/>
<path d="M7.14286 2.97852H0V4.17H7.14286V2.97852Z" fill="white"/>
<path d="M3.71401 0H3.14258V7.14894H3.71401V0Z" fill="#F54747"/>
<path d="M7.14286 3.27686H0V3.8726H7.14286V3.27686Z" fill="#F54747"/>
</g>
<path d="M16.2859 4.46826V6.43421C16.2859 8.04272 15.6859 9.53209 13.8573 10.4257C12.0287 9.53209 11.4287 8.04272 11.4287 6.43421V4.46826H16.2859Z" fill="#FDC300"/>
<path d="M12.7144 5.33212C12.6858 5.30233 12.6286 5.30233 12.6001 5.27254C12.6001 5.15339 12.5143 5.09381 12.4572 5.06402C12.4001 5.03424 12.3715 5.00444 12.3429 4.94487C12.3429 4.88529 12.2858 4.85552 12.2287 4.82573C12.1715 4.79594 12.1144 4.73636 12.0858 4.70657C12.0572 4.67679 12.0572 4.6768 12.0286 4.73637C12.0001 4.79595 11.9429 4.88531 12.0001 4.88531C11.9429 4.9151 11.9144 4.97467 11.9429 5.03424C11.9144 5.06403 11.8858 5.09382 11.9429 5.1236C12.0001 5.15339 12.0001 5.15338 12.0001 5.15338C11.9715 5.15338 11.9429 5.24274 12.0572 5.24274C12.0286 5.24274 12.0286 5.30232 12.0572 5.30232C12.0001 5.30232 11.9715 5.39168 11.8858 5.39168C11.8286 5.39168 11.7715 5.42147 11.7715 5.45125C11.7715 5.48104 11.7429 5.51083 11.7144 5.54061C11.7715 5.54061 11.8001 5.54062 11.8286 5.51083C11.8572 5.48105 11.8858 5.48105 11.9143 5.51083C11.9429 5.54062 12.0001 5.54061 12.0286 5.54061C11.9715 5.60019 11.9143 5.65977 11.9143 5.71935C11.9143 5.77892 11.8572 5.8385 11.8286 5.86828C11.7715 5.89807 11.7144 5.92785 11.7144 5.98742C11.7715 6.13636 11.8572 6.16615 11.9143 6.19594C12.0572 6.25551 12.1429 6.3151 12.2001 6.37467C12.2572 6.43424 12.2858 6.40445 12.3715 6.49381C12.4572 6.61296 12.5429 6.82147 12.6286 6.85126C12.7143 6.88105 12.8286 6.85126 12.8858 6.7619C13.0286 6.70233 13.0572 5.51084 12.7144 5.33212Z" fill="#FF9E3D"/>
<path d="M12.8856 4.85547C12.7999 4.94483 12.6856 5.03419 12.7142 5.21292C12.7428 5.39164 12.7428 5.62993 12.5999 5.74908C12.4571 5.83844 12.3713 6.07674 12.5713 6.19589C12.7428 6.31504 12.7428 6.49376 12.7713 6.6427C12.7999 6.79164 12.8856 6.91079 12.9999 6.82143C13.1142 6.85122 13.1713 6.79164 13.1713 6.70228C13.1713 6.61292 13.1714 6.55335 13.2571 6.52356C13.3428 6.49377 13.3714 6.46399 13.3999 6.37462C13.4285 6.28526 13.4571 6.25546 13.4285 6.19589C13.3999 6.13632 13.3999 6.04695 13.3999 5.98738C13.4285 5.9278 13.3713 5.86823 13.3428 5.83844C13.3142 5.77887 13.3142 5.74908 13.3142 5.6895C13.3142 5.62993 13.2856 5.60015 13.2571 5.57037C13.2285 5.54058 13.1999 5.51078 13.1999 5.45121C13.1999 5.39164 13.1714 5.36186 13.1142 5.33207C13.0571 5.30228 13.0285 5.24271 13.0285 5.18314C13.0285 5.12356 12.9713 4.88525 12.8856 4.85547Z" fill="#FF927F"/>
<path d="M12.9146 6.82163C13.1146 6.76206 13.086 6.43438 13.0574 6.28545C13.0289 6.13651 12.9431 5.9578 13.0003 5.77908C13.086 5.54078 12.9146 5.33226 12.9432 5.24289C13.0003 5.15353 12.9717 5.12375 12.9717 5.09396C12.9717 5.06417 12.9146 5.03438 12.9146 5.09396C12.9146 5.15353 12.886 5.18333 12.8574 5.21311C12.8289 5.2429 12.8289 5.33227 12.8574 5.42163C12.886 5.51099 12.9431 5.63014 12.8574 5.80886C12.7717 5.98758 12.8003 6.07694 12.8289 6.13651C12.9146 6.31524 13.0289 6.76206 12.9146 6.82163Z" fill="#FF9EE1"/>
<path d="M12.0288 4.91504C12.0574 4.91504 12.086 4.91503 12.086 4.94482L12.0288 4.91504Z" fill="#FF9E3D"/>
<path d="M11.9717 5.06397C12.0003 5.03418 12.0574 5.06397 12.086 5.03419L11.9717 5.06397Z" fill="#FF9E3D"/>
<path d="M12.0288 5.18312C12.0574 5.18312 12.1145 5.1831 12.1431 5.15332L12.0288 5.18312Z" fill="#FF9E3D"/>
<path d="M12.086 5.30225C12.1145 5.30225 12.1716 5.27246 12.2002 5.24267L12.086 5.30225Z" fill="#FF9E3D"/>
<path d="M12.086 5.36182C12.1431 5.36182 12.2288 5.3916 12.2574 5.36182H12.086Z" fill="#FF9E3D"/>
<path d="M12.086 5.57032C12.1431 5.54054 12.2288 5.51074 12.2574 5.45117L12.086 5.57032Z" fill="#FF9E3D"/>
<path d="M12.2002 4.88526C12.2859 4.91505 12.2573 4.94483 12.2859 4.97462C12.3431 5.03419 12.2859 5.09376 12.343 5.09376C12.4002 5.12354 12.4002 5.12356 12.3716 5.18313C12.3431 5.24271 12.4288 5.2427 12.4002 5.30227" fill="#FF9E3D"/>
<path d="M12.5999 5.27246C12.5713 5.27246 12.4856 5.27246 12.457 5.36182L12.5999 5.27246Z" fill="#FF9E3D"/>
<path d="M11.9717 6.16604C12.0003 6.16604 12.0288 6.16603 12.0288 6.13624C12.0288 6.10646 12.0574 6.10646 12.086 6.10646C12.1146 6.10646 12.1717 6.10647 12.1717 6.07668C12.1717 6.0469 12.2288 6.07668 12.2574 6.01711C12.286 5.95753 12.3145 5.86816 12.4003 5.83837" fill="#FF9E3D"/>
<path d="M14.2858 7.47656C14.3144 7.53613 14.2858 7.56592 14.3429 7.59571C14.4001 7.6255 14.3429 7.71486 14.4287 7.74465C14.4858 7.77444 14.4287 7.8638 14.5144 7.89358C14.5715 7.92337 14.5144 8.01273 14.6001 8.04252C14.6858 8.1021 14.5715 8.19145 14.6572 8.22124C14.7144 8.25102 14.6287 8.37018 14.7144 8.39997C14.8001 8.42976 14.6858 8.51911 14.7429 8.57869C14.8286 8.63826 14.7144 8.72763 14.8001 8.7872C14.8858 8.84678 14.7429 8.90635 14.8287 8.99572C14.8858 9.05529 14.8001 9.11487 14.8572 9.20423C14.8858 9.26381 14.8287 9.50209 14.6858 9.47231C14.6287 9.56167 14.4001 9.65103 14.3429 9.62124C14.2572 9.68082 14.0286 9.77018 13.8858 9.62124C13.7715 9.74039 13.5144 9.68082 13.4287 9.62124C13.3429 9.65103 13.143 9.56167 13.0858 9.47231C12.943 9.50209 12.8858 9.26381 12.9144 9.20423C12.9429 9.11487 12.8858 9.05529 12.943 8.99572C13.0287 8.90635 12.8858 8.84678 12.9715 8.7872C13.0572 8.72763 12.9429 8.63826 13.0286 8.57869C13.1144 8.51911 13.0001 8.42976 13.0572 8.39997C13.1429 8.37018 13.0572 8.25102 13.1144 8.22124C13.1715 8.19145 13.0858 8.07231 13.1715 8.04252C13.2572 7.98295 13.1715 7.92337 13.2572 7.89358C13.3429 7.8638 13.2572 7.77444 13.3429 7.74465C13.4286 7.71486 13.3715 7.6255 13.4287 7.59571C13.4858 7.56592 13.4572 7.50634 13.4858 7.47656C13.5715 7.53613 14.0858 7.5957 14.2858 7.47656Z" fill="#00A728"/>
<path d="M13.5715 7.50635C13.5144 7.56593 13.5716 7.62549 13.5144 7.68507C13.4573 7.77443 13.5144 7.80423 13.4573 7.8638C13.4001 7.92338 13.4858 7.95316 13.4287 8.04252C13.3715 8.13188 13.4287 8.16166 13.3716 8.22123C13.3144 8.28081 13.3715 8.34039 13.3144 8.39997C13.2573 8.45954 13.3144 8.51911 13.2573 8.57868C13.2001 8.63826 13.2572 8.69784 13.2001 8.7872C13.143 8.84677 13.2001 8.93614 13.143 8.99571C13.0858 9.08507 13.143 9.11485 13.0858 9.17443C13.0287 9.234 13.0858 9.29358 13.0287 9.32336C13.0001 9.35315 12.9715 9.41273 13.0001 9.44252" fill="#00A728"/>
<path d="M13.6858 7.53613C13.6286 7.62549 13.7143 7.65529 13.6572 7.71486C13.6 7.77444 13.6857 7.80423 13.6286 7.8638C13.6 7.95316 13.6572 7.95315 13.6 8.04252C13.5429 8.13188 13.6286 8.16167 13.5715 8.25103C13.5143 8.34039 13.6 8.37017 13.5429 8.42975C13.4858 8.51911 13.5715 8.54891 13.5143 8.60848C13.4572 8.66806 13.5429 8.72762 13.4857 8.7872C13.4286 8.84677 13.5143 8.90634 13.4572 8.96591C13.4 9.02549 13.4857 9.08507 13.4286 9.14465C13.4 9.20422 13.4572 9.2638 13.4 9.35316C13.3429 9.44252 13.4 9.47231 13.3715 9.5021C13.3429 9.56167 13.3143 9.62124 13.3429 9.62124" fill="#00A728"/>
<path d="M13.857 7.5957C13.8285 7.71485 13.8856 7.83399 13.857 7.92336C13.8285 8.01272 13.8856 8.0723 13.857 8.13187C13.8285 8.22123 13.8856 8.2808 13.857 8.37016C13.8285 8.45953 13.9142 8.51911 13.857 8.63826C13.7999 8.75741 13.8856 8.7872 13.857 8.90635C13.8285 9.0255 13.9142 9.11486 13.857 9.20422C13.7999 9.29358 13.9142 9.32336 13.857 9.41272C13.7999 9.50208 13.8856 9.56167 13.857 9.65103" fill="#00A728"/>
<path d="M14.1431 7.50635C14.2002 7.56593 14.1431 7.62549 14.2002 7.68507C14.2573 7.77443 14.2002 7.80423 14.2574 7.8638C14.3145 7.92338 14.2288 7.95316 14.2859 8.04252C14.3431 8.13188 14.2859 8.16166 14.3431 8.22123C14.4002 8.28081 14.3431 8.34039 14.4002 8.39997C14.4574 8.45954 14.4002 8.51911 14.4573 8.57868C14.5145 8.63826 14.4574 8.69784 14.5145 8.7872C14.5717 8.84677 14.5145 8.93614 14.5716 8.99571C14.6288 9.08507 14.5716 9.11485 14.6288 9.17443C14.6859 9.234 14.6288 9.29358 14.6859 9.32336C14.7145 9.35315 14.7431 9.41273 14.7145 9.44252" fill="#00A728"/>
<path d="M14.0288 7.53613C14.0859 7.62549 14.0002 7.65529 14.0574 7.71486C14.1145 7.77444 14.0288 7.80423 14.086 7.8638C14.1145 7.95316 14.0574 7.95315 14.1145 8.04252C14.1717 8.13188 14.086 8.16167 14.1431 8.25103C14.2002 8.34039 14.1145 8.37017 14.1717 8.42975C14.2288 8.51911 14.1431 8.54891 14.2002 8.60848C14.2574 8.66806 14.1717 8.72762 14.2288 8.7872C14.286 8.84677 14.2002 8.90634 14.2574 8.96591C14.3145 9.02549 14.2288 9.08507 14.286 9.14465C14.3145 9.20422 14.2574 9.2638 14.3145 9.35316C14.3717 9.44252 14.3145 9.47231 14.3431 9.5021C14.3717 9.56167 14.4003 9.62124 14.3717 9.62124" fill="#00A728"/>
<path d="M13.4859 7.77428C13.4859 7.80407 13.4859 7.83387 13.4574 7.86366C13.4002 7.92323 13.486 7.95301 13.4288 8.04237C13.3717 8.13174 13.4288 8.16152 13.3717 8.22109C13.3145 8.28067 13.3717 8.34025 13.3145 8.39983C13.2574 8.4594 13.3145 8.51897 13.2574 8.57854C13.2002 8.63812 13.2574 8.69769 13.2002 8.78706C13.1431 8.84663 13.2002 8.936 13.1431 8.99557C13.086 9.08493 13.1431 9.11471 13.086 9.17429C13.0288 9.23386 13.0859 9.29344 13.0288 9.32322C13.0859 9.26365 13.086 9.20408 13.1431 9.14451C13.2002 9.11472 13.1145 9.05514 13.1431 9.02535C13.1717 8.99556 13.1431 8.87641 13.2002 8.81684C13.2574 8.75726 13.2002 8.63813 13.2574 8.60834C13.3145 8.57855 13.2574 8.4594 13.3145 8.39983C13.3717 8.37004 13.3145 8.25088 13.3717 8.22109C13.4288 8.16152 13.3717 8.10196 13.4288 8.01259C13.486 7.95302 13.4288 7.89343 13.4574 7.83386C13.5145 7.86365 13.5145 7.68492 13.4859 7.77428Z" fill="#FCC300"/>
<path d="M13.6287 7.86378C13.6001 7.95314 13.6573 7.95313 13.6001 8.04249C13.543 8.13185 13.6287 8.16165 13.5716 8.25101C13.5144 8.34037 13.6002 8.37015 13.543 8.42972C13.4859 8.51909 13.5716 8.54888 13.5145 8.60846C13.4573 8.66803 13.543 8.7276 13.4859 8.78717C13.4287 8.84675 13.5144 8.90632 13.4573 8.96589C13.4001 9.02547 13.4859 9.08505 13.4287 9.14463C13.4002 9.2042 13.4573 9.26378 13.4002 9.35314C13.343 9.4425 13.4002 9.47229 13.3716 9.50208C13.4287 9.47229 13.4002 9.38293 13.4287 9.35314C13.4573 9.32335 13.4287 9.20419 13.4573 9.17441C13.4859 9.14462 13.4287 9.02548 13.4573 8.99569C13.5144 8.90633 13.4573 8.87653 13.5145 8.81695C13.543 8.75738 13.5145 8.66803 13.5145 8.63824C13.5716 8.57866 13.4859 8.5191 13.5145 8.45952C13.5716 8.39995 13.5144 8.34036 13.543 8.28079C13.6002 8.22121 13.543 8.13186 13.5716 8.10207C13.6573 8.0425 13.7144 7.89356 13.6287 7.86378Z" fill="#FCC300"/>
<path d="M13.8575 7.92324C13.829 8.0126 13.8861 8.07218 13.8575 8.13175C13.829 8.22112 13.8861 8.28069 13.8575 8.37005C13.829 8.45941 13.9147 8.51899 13.8575 8.63814C13.8004 8.75729 13.8861 8.78708 13.8575 8.90623C13.829 9.02538 13.9147 9.11474 13.8575 9.20411C13.8004 9.29347 13.9147 9.32324 13.8575 9.4126C13.829 9.47218 13.8575 9.59134 13.9147 9.4424C13.9718 9.29346 13.8861 9.29346 13.9147 9.23389C13.9432 9.17431 13.9147 9.02537 13.9147 8.93601C13.9432 8.84665 13.8861 8.75728 13.9147 8.66792C13.9432 8.57856 13.8575 8.4892 13.8861 8.42963C13.9147 8.34026 13.8575 8.25091 13.9147 8.19133C13.9432 8.13176 13.8861 8.0424 13.9147 8.01262C13.9147 7.95304 13.8861 7.83388 13.8575 7.92324Z" fill="#FCC300"/>
<path d="M14.2571 7.56599C14.2571 6.91067 14.1713 6.70215 13.8285 6.70215C13.5142 6.70215 13.3999 6.94045 13.3999 7.56599H14.2571Z" fill="#EF072D"/>
<path d="M13.4287 7.56599C13.4287 6.91067 13.5144 6.70215 13.8573 6.70215C13.7144 6.70215 13.6287 6.8213 13.6001 6.91066C13.5716 7.00002 13.6001 7.00002 13.6287 6.94044C13.6573 6.91066 13.6573 6.97023 13.6287 7.0298C13.6001 7.05959 13.5716 7.17874 13.6001 7.14896C13.6287 7.11917 13.6573 7.14896 13.6287 7.20854C13.6001 7.26811 13.543 7.41705 13.6001 7.35747C13.6287 7.2979 13.6573 7.38726 13.6287 7.41705C13.6001 7.44684 13.6001 7.5064 13.6287 7.47661C13.6573 7.44682 13.6573 7.5362 13.6287 7.56599H13.4287Z" fill="black"/>
<path d="M14.2001 7.50644C14.2001 7.00005 14.143 6.85111 14.0287 6.79153C13.9716 6.76175 13.9716 6.76176 14.0001 6.82133C14.0287 6.88091 14.0287 6.94047 14.0001 6.88089C13.9716 6.82132 13.9716 6.82133 13.943 6.85111C13.943 6.8809 13.9716 6.97027 14.0001 7.05963C14.0287 7.1192 14.0001 7.14898 13.9716 7.08941C13.9144 7.02983 13.9144 7.08941 13.9716 7.14899C14.0287 7.23835 14.0287 7.44686 14.0287 7.53622L14.2001 7.50644Z" fill="black"/>
<path d="M13.8573 7.65551C14.0002 7.65551 14.143 7.62572 14.2287 7.59593C14.343 7.53636 14.343 7.50657 14.3144 7.44699C14.2859 7.41721 14.2287 7.44699 14.1716 7.44699C14.1144 7.47678 13.943 7.47677 13.8573 7.47677C13.7716 7.47677 13.6002 7.44699 13.543 7.44699C13.4859 7.41721 13.4287 7.38742 13.4002 7.44699C13.3716 7.50657 13.3716 7.53636 13.4859 7.59593C13.5716 7.62572 13.7144 7.65551 13.8573 7.65551Z" fill="#EF072D"/>
<path d="M15.1143 6.7915C15.1143 6.7915 15.2 6.94045 15.2571 7.0596C15.3143 7.17874 15.3714 7.20853 15.4285 7.14895C15.4857 7.11917 15.4285 7.02981 15.4 6.97024C15.3714 6.94045 15.1714 6.73193 15.1714 6.73193L15.1143 6.7915Z" fill="#B95A1E"/>
<path d="M15.1143 6.7915C15.1143 6.7915 15.1428 6.97023 15.1714 7.08938C15.2 7.20853 15.2285 7.2681 15.2857 7.23831C15.3428 7.23831 15.3428 7.11917 15.3142 7.0596C15.2857 7.00002 15.1714 6.73193 15.1714 6.73193L15.1143 6.7915Z" fill="#B95A1E"/>
<path d="M15.0571 6.7915C15.0571 6.7915 15.0571 6.97023 15.0571 7.08938C15.0571 7.20853 15.0857 7.26811 15.1428 7.26811C15.2 7.26811 15.2 7.17875 15.2 7.11917C15.2 7.0596 15.1143 6.76172 15.1143 6.76172L15.0571 6.7915Z" fill="#B95A1E"/>
<path d="M14.9999 6.7915C14.9999 6.7915 14.9142 6.94045 14.857 7.0596C14.7999 7.17874 14.7427 7.20853 14.6856 7.14895C14.6284 7.11917 14.6856 7.02981 14.7142 6.97024C14.7427 6.94045 14.9427 6.73193 14.9427 6.73193L14.9999 6.7915Z" fill="#B95A1E"/>
<path d="M15.0283 6.7915C15.0283 6.7915 14.9998 6.97023 14.9712 7.08938C14.9426 7.20853 14.9141 7.2681 14.8569 7.23831C14.7998 7.23831 14.7998 7.11917 14.8283 7.0596C14.8569 7.00002 14.9712 6.73193 14.9712 6.73193L15.0283 6.7915Z" fill="#B95A1E"/>
<path d="M15.0569 6.7915C15.0569 6.7915 15.0569 6.97023 15.0569 7.08938C15.0569 7.20853 15.0284 7.26811 14.9712 7.26811C14.9141 7.26811 14.914 7.17875 14.914 7.11917C14.914 7.0596 14.9998 6.76172 14.9998 6.76172L15.0569 6.7915Z" fill="#B95A1E"/>
<path d="M15.1714 5.42163C15.1714 5.42163 15.3143 5.27269 15.5428 5.12376C15.8 4.97482 15.9714 4.85567 16 4.88546C16 4.91525 15.7999 5.06419 15.6285 5.18333C15.4571 5.30248 15.2571 5.48121 15.2571 5.48121L15.1714 5.42163Z" fill="#B95A1E"/>
<path d="M15.1714 5.54081C15.1714 5.54081 15.3142 5.45147 15.5714 5.33232C15.8285 5.21317 16.1999 5.24295 16.1999 5.27274C16.1714 5.30253 15.8571 5.30252 15.6571 5.39188C15.4571 5.48124 15.2571 5.60039 15.2571 5.60039L15.1714 5.54081Z" fill="#B95A1E"/>
<path d="M15.1714 5.74886C15.1714 5.74886 15.2857 5.68929 15.5714 5.59993C15.8571 5.51057 16.2285 5.57014 16.2285 5.59993C16.2 5.62971 15.8857 5.59993 15.6857 5.65951C15.4571 5.71908 15.2571 5.80844 15.2571 5.80844L15.1714 5.74886Z" fill="#B95A1E"/>
<path d="M15.2002 5.98722C15.2002 5.98722 15.343 5.86808 15.6288 5.83829C15.9145 5.8085 16.1716 5.98724 16.1716 6.01702C16.143 6.04681 15.8574 5.86808 15.6574 5.89787C15.4288 5.92765 15.2573 6.0468 15.2573 6.0468L15.2002 5.98722Z" fill="#B95A1E"/>
<path d="M15.1143 5.30228C15.1143 5.30228 15.3428 5.15336 15.3428 5.03421C15.3428 4.91506 15.2571 4.79591 15.2286 4.73634C15.2857 4.73634 15.4 4.91506 15.4 5.03421C15.4 5.15336 15.2 5.36186 15.2 5.36186L15.1143 5.30228Z" fill="#B95A1E"/>
<path d="M15.1145 5.30229C15.1145 5.30229 15.086 5.21294 15.086 5.03421C15.086 4.8257 15.2002 4.67675 15.2574 4.64697C15.2574 4.70654 15.1431 4.85549 15.1431 5.03421C15.1431 5.15336 15.1716 5.36187 15.1716 5.36187L15.1145 5.30229Z" fill="#B95A1E"/>
<path d="M14.9716 5.42163C14.9716 5.42163 14.8288 5.27269 14.6002 5.12376C14.3431 4.97482 14.1716 4.85567 14.1431 4.88546C14.1431 4.91525 14.3431 5.06419 14.5145 5.18333C14.6859 5.30248 14.8859 5.48121 14.8859 5.48121L14.9716 5.42163Z" fill="#B95A1E"/>
<path d="M14.9426 5.54081C14.9426 5.54081 14.7998 5.45147 14.5426 5.33232C14.2855 5.21317 13.914 5.24295 13.914 5.27274C13.9426 5.30253 14.2569 5.30252 14.4569 5.39188C14.6569 5.48124 14.8569 5.60039 14.8569 5.60039L14.9426 5.54081Z" fill="#B95A1E"/>
<path d="M14.9429 5.74886C14.9429 5.74886 14.8286 5.68929 14.5429 5.59993C14.2572 5.51057 13.8857 5.57014 13.8857 5.59993C13.9143 5.62971 14.2286 5.59993 14.4286 5.65951C14.6572 5.71908 14.8572 5.80844 14.8572 5.80844L14.9429 5.74886Z" fill="#B95A1E"/>
<path d="M14.9431 5.98722C14.9431 5.98722 14.8003 5.86808 14.5146 5.83829C14.2288 5.8085 13.9717 5.98724 13.9717 6.01702C14.0003 6.04681 14.286 5.86808 14.486 5.89787C14.7145 5.92765 14.886 6.0468 14.886 6.0468L14.9431 5.98722Z" fill="#B95A1E"/>
<path d="M15.0001 5.30228C15.0001 5.30228 14.7715 5.15336 14.7715 5.03421C14.7715 4.91506 14.8572 4.79591 14.8858 4.73634C14.8286 4.73634 14.7144 4.91506 14.7144 5.03421C14.7144 5.15336 14.9143 5.36186 14.9143 5.36186L15.0001 5.30228Z" fill="#B95A1E"/>
<path d="M15.0003 5.30229C15.0003 5.30229 15.0288 5.21294 15.0288 5.03421C15.0288 4.8257 14.9146 4.67675 14.8574 4.64697C14.8574 4.70654 14.9717 4.85549 14.9717 5.03421C14.9717 5.15336 14.9432 5.36187 14.9432 5.36187L15.0003 5.30229Z" fill="#B95A1E"/>
<path d="M15.8 7.50653C15.7143 7.29802 15.6857 6.91078 15.6857 6.8512C15.6857 6.67248 15.7428 5.83844 15.7428 5.51078C15.7428 5.18312 15.5428 5.00439 15.3428 5.00439C15.1714 5.00439 15.0571 5.12354 15.0571 5.30226H15.1428C15.1428 5.18311 15.2285 5.09375 15.3428 5.09375C15.5143 5.09375 15.6286 5.24269 15.6571 5.51078C15.6571 5.83844 15.6285 6.70227 15.6285 6.91078C15.6285 7.14908 15.7143 7.35759 15.8 7.50653Z" fill="#B95A1E"/>
<path d="M14.3428 7.50653C14.4285 7.29802 14.4571 6.91078 14.4571 6.8512C14.4571 6.67248 14.3999 5.83844 14.3999 5.51078C14.3999 5.18312 14.5999 5.00439 14.7999 5.00439C14.9714 5.00439 15.0856 5.12354 15.0856 5.30226H14.9999C14.9999 5.18311 14.9142 5.09375 14.7999 5.09375C14.6285 5.09375 14.5142 5.24269 14.4856 5.51078C14.4856 5.83844 14.5142 6.70227 14.5142 6.91078C14.5142 7.11929 14.4285 7.35759 14.3428 7.50653Z" fill="#B95A1E"/>
<path d="M15.0571 6.79152C15.2 6.79152 15.2286 6.73194 15.2286 6.73194C15.2286 6.73194 15.2571 6.61279 15.2571 6.583C15.2286 6.55322 15.0571 6.55322 15.0571 6.55322V6.79152Z" fill="#B95A1E"/>
<path d="M15.0571 6.67239C15.2285 6.67239 15.2571 6.61281 15.2571 6.61281C15.2571 6.61281 15.3143 6.49366 15.2857 6.46387C15.2571 6.43409 15.0571 6.43407 15.0571 6.43407V6.67239Z" fill="#B95A1E"/>
<path d="M15.0571 6.55324C15.2 6.55324 15.2857 6.49366 15.2857 6.49366C15.2857 6.49366 15.3428 6.37451 15.3143 6.34473C15.2857 6.31494 15.0571 6.31495 15.0571 6.31495V6.55324Z" fill="#B95A1E"/>
<path d="M15.0571 6.40437C15.3143 6.40437 15.3143 6.31501 15.3143 6.31501C15.3143 6.31501 15.3714 6.19586 15.3428 6.16607C15.3143 6.13629 15.0571 6.16607 15.0571 6.16607V6.40437Z" fill="#B95A1E"/>
<path d="M15.0571 6.28517C15.3143 6.28517 15.3428 6.22561 15.3428 6.22561C15.3428 6.22561 15.4 6.10646 15.3714 6.07667C15.3429 6.04688 15.0571 6.04687 15.0571 6.04687V6.28517Z" fill="#B95A1E"/>
<path d="M15.0571 6.13624C15.3143 6.13624 15.3714 6.07668 15.3714 6.07668C15.3714 6.07668 15.4286 5.95753 15.4 5.92774C15.3714 5.89796 15.0571 5.89795 15.0571 5.89795V6.13624Z" fill="#B95A1E"/>
<path d="M15.0571 5.98731C15.3143 5.98731 15.4 5.92775 15.4 5.92775C15.4 5.92775 15.4286 5.80861 15.4 5.77882C15.3714 5.74903 15.0571 5.74902 15.0571 5.74902V5.98731Z" fill="#B95A1E"/>
<path d="M15.0571 5.80861C15.3143 5.80861 15.4 5.74903 15.4 5.74903C15.4 5.74903 15.4 5.62988 15.3714 5.6001C15.3429 5.57031 15.0571 5.57032 15.0571 5.57032V5.80861Z" fill="#B95A1E"/>
<path d="M15.0571 5.65968C15.3143 5.65968 15.3714 5.60011 15.3714 5.60011C15.3714 5.60011 15.3714 5.48096 15.3428 5.45117C15.3143 5.42138 15.0571 5.42139 15.0571 5.42139V5.65968Z" fill="#B95A1E"/>
<path d="M15.0571 5.27246C15.2571 5.27246 15.3428 5.45118 15.3428 5.45118L15.2857 5.51076C15.2571 5.54055 15.0571 5.54054 15.0571 5.54054V5.27246Z" fill="#B95A1E"/>
<path d="M15.0574 6.79152C14.9146 6.79152 14.886 6.73194 14.886 6.73194C14.886 6.73194 14.8574 6.61279 14.8574 6.583C14.886 6.55322 15.0574 6.55322 15.0574 6.55322V6.79152Z" fill="#B95A1E"/>
<path d="M15.0574 6.67239C14.8859 6.67239 14.8574 6.61281 14.8574 6.61281C14.8574 6.61281 14.8002 6.49366 14.8288 6.46387C14.8574 6.43409 15.0574 6.43407 15.0574 6.43407V6.67239Z" fill="#B95A1E"/>
<path d="M15.0571 6.55324C14.9143 6.55324 14.8286 6.49366 14.8286 6.49366C14.8286 6.49366 14.7714 6.37451 14.8 6.34473C14.8286 6.31494 15.0571 6.31495 15.0571 6.31495V6.55324Z" fill="#B95A1E"/>
<path d="M15.0574 6.40437C14.8002 6.40437 14.8003 6.31501 14.8003 6.31501C14.8003 6.31501 14.7431 6.19586 14.7717 6.16607C14.8002 6.13629 15.0574 6.16607 15.0574 6.16607V6.40437Z" fill="#B95A1E"/>
<path d="M15.0571 6.28517C14.8 6.28517 14.7714 6.22561 14.7714 6.22561C14.7714 6.22561 14.7143 6.10646 14.7429 6.07667C14.7714 6.04688 15.0571 6.04687 15.0571 6.04687V6.28517Z" fill="#B95A1E"/>
<path d="M15.0574 6.13624C14.8002 6.13624 14.7431 6.07668 14.7431 6.07668C14.7431 6.07668 14.686 5.95753 14.7145 5.92774C14.7431 5.89796 15.0574 5.89795 15.0574 5.89795V6.13624Z" fill="#B95A1E"/>
<path d="M15.0572 5.98731C14.8001 5.98731 14.7144 5.92775 14.7144 5.92775C14.7144 5.92775 14.6858 5.80861 14.7144 5.77882C14.7429 5.74903 15.0572 5.74902 15.0572 5.74902V5.98731Z" fill="#B95A1E"/>
<path d="M15.0572 5.80861C14.8001 5.80861 14.7144 5.74903 14.7144 5.74903C14.7144 5.74903 14.7143 5.62988 14.7429 5.6001C14.7715 5.57031 15.0572 5.57032 15.0572 5.57032V5.80861Z" fill="#B95A1E"/>
<path d="M15.0574 5.65968C14.8003 5.65968 14.7432 5.60011 14.7432 5.60011C14.7432 5.60011 14.7432 5.48096 14.7717 5.45117C14.8003 5.42138 15.0574 5.42139 15.0574 5.42139V5.65968Z" fill="#B95A1E"/>
<path d="M15.0572 5.27246C14.8572 5.27246 14.7715 5.45118 14.7715 5.45118L14.8286 5.51076C14.8572 5.54055 15.0572 5.54054 15.0572 5.54054V5.27246Z" fill="#B95A1E"/>
</g>
</svg>
