<svg width="20" height="14" viewBox="0 0 20 14" fill="none" xmlns="http://www.w3.org/2000/svg">
<mask id="mask0" mask-type="alpha" maskUnits="userSpaceOnUse" x="0" y="0" width="20" height="14">
<rect width="20" height="14" rx="2" fill="#C4C4C4"/>
</mask>
<g mask="url(#mask0)">
<path d="M20 0H0V14H20V0Z" fill="#3BAFDA"/>
<path d="M7.14286 0H0V7.14894H7.14286V0Z" fill="#4758A9"/>
<path d="M18.5142 4.46832C18.5999 4.37896 18.5713 4.31939 18.457 4.31939H18.0285C17.9142 4.31939 17.7999 4.23003 17.7427 4.11088L17.5713 3.66407C17.5428 3.54492 17.4856 3.54492 17.457 3.66407L17.3142 4.14066C17.2856 4.25981 17.1713 4.34918 17.057 4.34918H16.6285C16.5142 4.34918 16.4856 4.40875 16.5713 4.49811L16.857 4.7662C16.9428 4.85556 16.9999 5.00449 16.9713 5.12364L16.8856 5.54066C16.857 5.65981 16.9142 5.6896 16.9999 5.63003L17.3427 5.36194C17.4285 5.30237 17.5999 5.30237 17.6856 5.36194L18.0285 5.60024C18.1142 5.65981 18.1713 5.63003 18.1428 5.51088L18.0285 5.12364C17.9999 5.00449 18.0285 4.85556 18.1142 4.7662L18.5142 4.46832Z" fill="#FFCE54"/>
<path d="M16.5142 5.95758C16.5999 5.86822 16.5713 5.80865 16.457 5.80865H16.0285C15.9142 5.80865 15.7999 5.71928 15.7427 5.60013L15.5713 5.15333C15.5428 5.03418 15.4856 5.03418 15.457 5.15333L15.3142 5.62992C15.2856 5.74907 15.1713 5.83843 15.057 5.83843H14.6285C14.5142 5.83843 14.4856 5.89801 14.5713 5.98737L14.857 6.25545C14.9428 6.34482 14.9999 6.49375 14.9713 6.6129L14.8856 7.02992C14.857 7.14907 14.9142 7.17886 14.9999 7.11928L15.3427 6.8512C15.4285 6.79162 15.5999 6.79162 15.6856 6.8512L16.0285 7.0895C16.1142 7.14907 16.1713 7.11928 16.1428 7.00014L16.0285 6.6129C15.9999 6.49375 16.0285 6.34482 16.1142 6.25545L16.5142 5.95758Z" fill="#FFCE54"/>
<path d="M14.5142 7.44684C14.5999 7.35748 14.5713 7.2979 14.457 7.2979H14.0285C13.9142 7.2979 13.7999 7.20854 13.7427 7.08939L13.5713 6.64258C13.5428 6.52344 13.4856 6.52344 13.457 6.64258L13.3142 7.11918C13.2856 7.23833 13.1713 7.32769 13.057 7.32769H12.6285C12.5142 7.32769 12.4856 7.38726 12.5713 7.47663L12.857 7.74471C12.9428 7.83407 12.9999 7.98301 12.9713 8.10216L12.8856 8.51918C12.857 8.63833 12.9142 8.66812 12.9999 8.60854L13.3427 8.34046C13.4285 8.28088 13.5999 8.28088 13.6856 8.34046L14.0285 8.57875C14.1142 8.63833 14.1713 8.60854 14.1427 8.48939L14.0285 8.10216C13.9999 7.98301 14.0285 7.83407 14.1142 7.74471L14.5142 7.44684Z" fill="#FFCE54"/>
<path d="M18.5142 8.04303C18.5999 7.95367 18.5713 7.89409 18.457 7.89409H18.0285C17.9142 7.89409 17.7999 7.80473 17.7427 7.68558L17.5713 7.23878C17.5428 7.11963 17.4856 7.11963 17.457 7.23878L17.3142 7.71537C17.2856 7.83452 17.1713 7.92388 17.057 7.92388H16.6285C16.5142 7.92388 16.4856 7.98346 16.5713 8.07282L16.857 8.3409C16.9428 8.43026 16.9999 8.5792 16.9713 8.69835L16.8856 9.11537C16.857 9.23452 16.9142 9.26431 16.9999 9.20473L17.3427 8.93665C17.4285 8.87707 17.5999 8.87707 17.6856 8.93665L18.0285 9.17495C18.1142 9.23452 18.1713 9.20473 18.1428 9.08558L18.0285 8.69835C17.9999 8.5792 18.0285 8.43026 18.1142 8.3409L18.5142 8.04303Z" fill="#FFCE54"/>
<path d="M16.5142 9.53229C16.5999 9.44293 16.5713 9.38335 16.457 9.38335H16.0285C15.9142 9.38335 15.7999 9.29399 15.7427 9.17484L15.5713 8.72803C15.5428 8.60888 15.4856 8.60888 15.457 8.72803L15.3142 9.20463C15.2856 9.32378 15.1713 9.41314 15.057 9.41314H14.6285C14.5142 9.41314 14.4856 9.47271 14.5713 9.56208L14.857 9.83016C14.9428 9.91952 14.9999 10.0685 14.9713 10.1876L14.8856 10.6046C14.857 10.7238 14.9142 10.7536 14.9999 10.694L15.3427 10.4259C15.4285 10.3663 15.5999 10.3663 15.6856 10.4259L16.0285 10.6642C16.1142 10.7238 16.1713 10.694 16.1428 10.5748L16.0285 10.1876C15.9999 10.0685 16.0285 9.91952 16.1142 9.83016L16.5142 9.53229Z" fill="#FFCE54"/>
<path d="M14.5142 11.0215C14.5999 10.9322 14.5713 10.8726 14.457 10.8726H14.0285C13.9142 10.8726 13.7999 10.7832 13.7427 10.6641L13.5713 10.2173C13.5428 10.0981 13.4856 10.0981 13.457 10.2173L13.3142 10.6939C13.2856 10.813 13.1713 10.9024 13.057 10.9024H12.6285C12.5142 10.9024 12.4856 10.962 12.5713 11.0513L12.857 11.3194C12.9428 11.4088 12.9999 11.5577 12.9713 11.6769L12.8856 12.0939C12.857 12.213 12.9142 12.2428 12.9999 12.1833L13.3427 11.9152C13.4285 11.8556 13.5999 11.8556 13.6856 11.9152L14.0285 12.1535C14.1142 12.213 14.1713 12.1833 14.1427 12.0641L14.0285 11.6769C13.9999 11.5577 14.0285 11.4088 14.1142 11.3194L14.5142 11.0215Z" fill="#FFCE54"/>
<path d="M12.2286 8.93659C12.3143 8.84722 12.2857 8.78765 12.1714 8.78765H11.7428C11.6285 8.78765 11.5142 8.69829 11.4571 8.57914L11.2857 8.13233C11.2571 8.01318 11.2 8.01318 11.1714 8.13233L11.0285 8.60893C11 8.72808 10.8857 8.81744 10.7714 8.81744H10.3428C10.2285 8.81744 10.2 8.87701 10.2857 8.96637L10.5714 9.23446C10.6571 9.32382 10.7143 9.47276 10.6857 9.5919L10.6 10.0089C10.5714 10.1281 10.6285 10.1579 10.7142 10.0983L11.0571 9.8302C11.1428 9.77063 11.3143 9.77063 11.4 9.8302L11.7428 10.0685C11.8285 10.1281 11.8857 10.0983 11.8571 9.97914L11.7428 9.5919C11.7142 9.47276 11.7428 9.32382 11.8285 9.23446L12.2286 8.93659Z" fill="#FFCE54"/>
<path d="M10.7998 11.0215C10.8855 10.9322 10.857 10.8726 10.7427 10.8726H10.3141C10.1998 10.8726 10.0855 10.7832 10.0284 10.6641L9.85697 10.2173C9.82839 10.0981 9.77124 10.0981 9.74267 10.2173L9.59982 10.6939C9.57124 10.813 9.45695 10.9024 9.34267 10.9024H8.9141C8.79981 10.9024 8.77125 10.962 8.85697 11.0513L9.14268 11.3194C9.22839 11.4088 9.28554 11.5577 9.25697 11.6769L9.17125 12.0939C9.14267 12.213 9.19982 12.2428 9.28554 12.1833L9.62838 11.9152C9.71409 11.8556 9.88554 11.8556 9.97126 11.9152L10.3141 12.1535C10.3998 12.213 10.457 12.1833 10.4284 12.0641L10.3141 11.6769C10.2855 11.5577 10.3141 11.4088 10.3998 11.3194L10.7998 11.0215Z" fill="#FFCE54"/>
<path d="M8.51419 11.3194C8.59991 11.23 8.57131 11.1705 8.45703 11.1705H8.02846C7.91417 11.1705 7.79989 11.0811 7.74274 10.962L7.57132 10.5151C7.54275 10.396 7.4856 10.396 7.45703 10.5151L7.31417 10.9917C7.2856 11.1109 7.17131 11.2002 7.05702 11.2002H6.62845C6.51417 11.2002 6.48561 11.2598 6.57132 11.3492L6.85704 11.6173C6.94275 11.7066 6.9999 11.8556 6.97133 11.9747L6.8856 12.3917C6.85703 12.5109 6.91418 12.5407 6.99989 12.4811L7.34274 12.213C7.42845 12.1534 7.5999 12.1534 7.68561 12.213L8.02846 12.4513C8.11417 12.5109 8.17132 12.4811 8.14275 12.362L8.02846 11.9747C7.99989 11.8556 8.02847 11.7066 8.11419 11.6173L8.51419 11.3194Z" fill="#FFCE54"/>
<mask id="mask1" mask-type="alpha" maskUnits="userSpaceOnUse" x="0" y="0" width="8" height="8">
<rect width="7.14286" height="7.14894" fill="#C4C4C4"/>
</mask>
<g mask="url(#mask1)">
<path d="M-0.0306378 -1.16422L-1.12157 -0.0268658L6.87876 8.3139L7.96969 7.17655L-0.0306378 -1.16422Z" fill="white"/>
<path d="M6.88022 -1.16207L-1.12013 7.17872L-0.0291728 8.3161L7.97118 -0.0246911L6.88022 -1.16207Z" fill="white"/>
<path d="M7.06203 -0.635672L-0.635249 7.38916L-0.231192 7.81041L7.46609 -0.214421L7.06203 -0.635672Z" fill="#F54747"/>
<path d="M-0.230708 -0.656114L-0.634766 -0.234863L7.06252 7.78997L7.46658 7.36872L-0.230708 -0.656114Z" fill="#F54747"/>
<path d="M3.99979 0H2.85693V7.14894H3.99979V0Z" fill="white"/>
<path d="M7.14286 2.979H0V4.17049H7.14286V2.979Z" fill="white"/>
<path d="M3.71401 0H3.14258V7.14894H3.71401V0Z" fill="#F54747"/>
<path d="M7.14286 3.27686H0V3.8726H7.14286V3.27686Z" fill="#F54747"/>
</g>
</g>
</svg>
