<svg width="20" height="14" viewBox="0 0 20 14" fill="none" xmlns="http://www.w3.org/2000/svg">
<mask id="mask0" mask-type="alpha" maskUnits="userSpaceOnUse" x="0" y="0" width="20" height="14">
<rect width="20" height="14" rx="2" fill="#C4C4C4"/>
</mask>
<g mask="url(#mask0)">
<path d="M20 0H0V14H20V0Z" fill="#F5F7FA"/>
<path d="M19.9999 0H2.57129V0.595745H19.9999V0Z" fill="#F54747"/>
<path d="M19.9999 1.19141H2.57129V1.78715H19.9999V1.19141Z" fill="#F54747"/>
<path d="M19.9999 2.38281H2.57129V2.97856H19.9999V2.38281Z" fill="#F54747"/>
<path d="M19.9999 3.57471H2.57129V4.17045H19.9999V3.57471Z" fill="#F54747"/>
<path d="M19.9999 4.76611H2.57129V5.36186H19.9999V4.76611Z" fill="#F54747"/>
<path d="M19.9999 5.95752H2.57129V6.55326H19.9999V5.95752Z" fill="#F54747"/>
<path d="M19.9999 7.14893H2.57129V7.74467H19.9999V7.14893Z" fill="#F54747"/>
<path d="M20 8.34033H0V8.93608H20V8.34033Z" fill="#F54747"/>
<path d="M20 9.53174H0V10.1275H20V9.53174Z" fill="#F54747"/>
<path d="M20 10.7236H0V11.3194H20V10.7236Z" fill="#F54747"/>
<path d="M20 11.915H0V12.5108H20V11.915Z" fill="#F54747"/>
<path d="M20 13.1064H0V13.7022H20V13.1064Z" fill="#F54747"/>
<path d="M7.82858 0H0V7.74468H7.82858V0Z" fill="#4A89DC"/>
<path d="M1.02861 0.863662C1.05718 0.833875 1.05718 0.833873 1.02861 0.833873H0.914314C0.885742 0.833873 0.857185 0.804091 0.857185 0.774304L0.82862 0.655157C0.82862 0.625369 0.800056 0.625369 0.800056 0.655157L0.771456 0.774304C0.771456 0.804091 0.742899 0.833873 0.714328 0.833873H0.600035C0.571463 0.833873 0.571463 0.863662 0.600035 0.863662L0.685763 0.953029C0.714335 0.982816 0.714328 1.0126 0.714328 1.04239L0.685763 1.16153C0.685763 1.19132 0.685756 1.19132 0.714328 1.19132L0.800056 1.13175C0.828627 1.10196 0.857178 1.10196 0.885749 1.13175L0.971477 1.19132C1.00005 1.22111 1.00004 1.19132 1.00004 1.16153L0.971477 1.04239C0.971477 1.0126 0.97147 0.953029 1.00004 0.953029L1.02861 0.863662Z" fill="white"/>
<path d="M2.08576 0.863662C2.11433 0.833875 2.11433 0.833873 2.08576 0.833873H1.97146C1.94289 0.833873 1.9143 0.804091 1.9143 0.774304L1.88574 0.655157C1.88574 0.625369 1.85717 0.625369 1.85717 0.655157L1.82861 0.774304C1.82861 0.804091 1.80001 0.833873 1.77144 0.833873H1.65718C1.62861 0.833873 1.62861 0.863662 1.65718 0.863662L1.74288 0.953029C1.77145 0.982816 1.77144 1.0126 1.77144 1.04239L1.74288 1.16153C1.74288 1.19132 1.74287 1.19132 1.77144 1.19132L1.85717 1.13175C1.88574 1.10196 1.91433 1.10196 1.9429 1.13175L2.02859 1.19132C2.05716 1.22111 2.05716 1.19132 2.05716 1.16153L2.02859 1.04239C2.02859 1.0126 2.02859 0.953029 2.05716 0.953029L2.08576 0.863662Z" fill="white"/>
<path d="M3.11407 0.863662C3.14264 0.833875 3.14264 0.833873 3.11407 0.833873H2.99978C2.97121 0.833873 2.94265 0.804091 2.94265 0.774304L2.91405 0.655157C2.91405 0.625369 2.88548 0.625369 2.88548 0.655157L2.85692 0.774304C2.85692 0.804091 2.82836 0.833873 2.79979 0.833873H2.6855C2.65693 0.833873 2.65693 0.863662 2.6855 0.863662L2.77119 0.953029C2.79976 0.982816 2.79979 1.0126 2.79979 1.04239L2.77119 1.16153C2.77119 1.19132 2.77122 1.19132 2.79979 1.19132L2.88548 1.13175C2.91406 1.10196 2.94264 1.10196 2.97121 1.13175L3.05691 1.19132C3.08548 1.22111 3.08551 1.19132 3.08551 1.16153L3.05691 1.04239C3.05691 1.0126 3.05693 0.953029 3.08551 0.953029L3.11407 0.863662Z" fill="white"/>
<path d="M4.17167 0.863662C4.20024 0.833875 4.20024 0.833873 4.17167 0.833873H4.05738C4.02881 0.833873 4.00025 0.804091 4.00025 0.774304L3.97169 0.655157C3.97169 0.625369 3.94312 0.625369 3.94312 0.655157L3.91452 0.774304C3.91452 0.804091 3.88597 0.833873 3.85739 0.833873H3.7431C3.71453 0.833873 3.71453 0.863662 3.7431 0.863662L3.82883 0.953029C3.8574 0.982816 3.85739 1.0126 3.85739 1.04239L3.82883 1.16153C3.82883 1.19132 3.82882 1.19132 3.85739 1.19132L3.94312 1.13175C3.97169 1.10196 4.00024 1.10196 4.02882 1.13175L4.11454 1.19132C4.14312 1.22111 4.14311 1.19132 4.14311 1.16153L4.11454 1.04239C4.11454 1.0126 4.11454 0.953029 4.14311 0.953029L4.17167 0.863662Z" fill="white"/>
<path d="M5.19999 0.863662C5.22856 0.833875 5.22856 0.833873 5.19999 0.833873H5.08573C5.05716 0.833873 5.02856 0.804091 5.02856 0.774304L5 0.655157C5 0.625369 4.97144 0.625369 4.97144 0.655157L4.94287 0.774304C4.94287 0.804091 4.91428 0.833873 4.88571 0.833873H4.77141C4.74284 0.833873 4.74284 0.863662 4.77141 0.863662L4.85714 0.953029C4.88571 0.982816 4.88571 1.0126 4.88571 1.04239L4.85714 1.16153C4.85714 1.19132 4.85714 1.19132 4.88571 1.19132L4.97144 1.13175C5.00001 1.10196 5.02856 1.10196 5.05713 1.13175L5.14286 1.19132C5.17143 1.22111 5.17142 1.19132 5.17142 1.16153L5.14286 1.04239C5.14286 1.0126 5.14285 0.953029 5.17142 0.953029L5.19999 0.863662Z" fill="white"/>
<path d="M6.25714 0.863662C6.28571 0.833875 6.28571 0.833873 6.25714 0.833873H6.14284C6.11427 0.833873 6.08571 0.804091 6.08571 0.774304L6.05712 0.655157C6.05712 0.625369 6.02855 0.625369 6.02855 0.655157L5.99999 0.774304C5.99999 0.804091 5.97143 0.833873 5.94286 0.833873H5.82856C5.79999 0.833873 5.79999 0.863662 5.82856 0.863662L5.91426 0.953029C5.94283 0.982816 5.94286 1.0126 5.94286 1.04239L5.91426 1.16153C5.91426 1.19132 5.91429 1.19132 5.94286 1.19132L6.02855 1.13175C6.05712 1.10196 6.08571 1.10196 6.11428 1.13175L6.19997 1.19132C6.22854 1.22111 6.22857 1.19132 6.22857 1.16153L6.19997 1.04239C6.19997 1.0126 6.2 0.953029 6.22857 0.953029L6.25714 0.863662Z" fill="white"/>
<path d="M7.31425 0.863662C7.34282 0.833875 7.34282 0.833873 7.31425 0.833873H7.19996C7.17139 0.833873 7.14283 0.804091 7.14283 0.774304L7.11426 0.655157C7.11426 0.625369 7.0857 0.625369 7.0857 0.655157L7.0571 0.774304C7.0571 0.804091 7.02854 0.833873 6.99997 0.833873H6.88568C6.85711 0.833873 6.85711 0.863662 6.88568 0.863662L6.97141 0.953029C6.99998 0.982816 6.99997 1.0126 6.99997 1.04239L6.97141 1.16153C6.97141 1.19132 6.9714 1.19132 6.99997 1.19132L7.0857 1.13175C7.11427 1.10196 7.14282 1.10196 7.17139 1.13175L7.25712 1.19132C7.28569 1.22111 7.28569 1.19132 7.28569 1.16153L7.25712 1.04239C7.25712 1.0126 7.25712 0.953029 7.28569 0.953029L7.31425 0.863662Z" fill="white"/>
<path d="M1.02861 2.05556C1.05718 2.02577 1.05718 2.02577 1.02861 2.02577H0.914314C0.885742 2.02577 0.857185 1.99599 0.857185 1.9662L0.82862 1.84705C0.82862 1.81726 0.800056 1.81726 0.800056 1.84705L0.771456 1.9662C0.771456 1.99599 0.742899 2.02577 0.714328 2.02577H0.600035C0.571463 2.02577 0.571463 2.05556 0.600035 2.05556L0.685763 2.14492C0.714335 2.17471 0.714328 2.20449 0.714328 2.23428L0.685763 2.35343C0.685763 2.38322 0.685756 2.38322 0.714328 2.38322L0.800056 2.32364C0.828627 2.29385 0.857178 2.29385 0.885749 2.32364L0.971477 2.38322C1.00005 2.41301 1.00004 2.38322 1.00004 2.35343L0.971477 2.23428C0.971477 2.20449 0.97147 2.14492 1.00004 2.14492L1.02861 2.05556Z" fill="white"/>
<path d="M2.08576 2.05556C2.11433 2.02577 2.11433 2.02577 2.08576 2.02577H1.97146C1.94289 2.02577 1.9143 1.99599 1.9143 1.9662L1.88574 1.84705C1.88574 1.81726 1.85717 1.81726 1.85717 1.84705L1.82861 1.9662C1.82861 1.99599 1.80001 2.02577 1.77144 2.02577H1.65718C1.62861 2.02577 1.62861 2.05556 1.65718 2.05556L1.74288 2.14492C1.77145 2.17471 1.77144 2.20449 1.77144 2.23428L1.74288 2.35343C1.74288 2.38322 1.74287 2.38322 1.77144 2.38322L1.85717 2.32364C1.88574 2.29385 1.91433 2.29385 1.9429 2.32364L2.02859 2.38322C2.05716 2.41301 2.05716 2.38322 2.05716 2.35343L2.02859 2.23428C2.02859 2.20449 2.02859 2.14492 2.05716 2.14492L2.08576 2.05556Z" fill="white"/>
<path d="M3.11407 2.05556C3.14264 2.02577 3.14264 2.02577 3.11407 2.02577H2.99978C2.97121 2.02577 2.94265 1.99599 2.94265 1.9662L2.91405 1.84705C2.91405 1.81726 2.88548 1.81726 2.88548 1.84705L2.85692 1.9662C2.85692 1.99599 2.82836 2.02577 2.79979 2.02577H2.6855C2.65693 2.02577 2.65693 2.05556 2.6855 2.05556L2.77119 2.14492C2.79976 2.17471 2.79979 2.20449 2.79979 2.23428L2.77119 2.35343C2.77119 2.38322 2.77122 2.38322 2.79979 2.38322L2.88548 2.32364C2.91406 2.29385 2.94264 2.29385 2.97121 2.32364L3.05691 2.38322C3.08548 2.41301 3.08551 2.38322 3.08551 2.35343L3.05691 2.23428C3.05691 2.20449 3.05693 2.14492 3.08551 2.14492L3.11407 2.05556Z" fill="white"/>
<path d="M4.17167 2.05556C4.20024 2.02577 4.20024 2.02577 4.17167 2.02577H4.05738C4.02881 2.02577 4.00025 1.99599 4.00025 1.9662L3.97169 1.84705C3.97169 1.81726 3.94312 1.81726 3.94312 1.84705L3.91452 1.9662C3.91452 1.99599 3.88597 2.02577 3.85739 2.02577H3.7431C3.71453 2.02577 3.71453 2.05556 3.7431 2.05556L3.82883 2.14492C3.8574 2.17471 3.85739 2.20449 3.85739 2.23428L3.82883 2.35343C3.82883 2.38322 3.82882 2.38322 3.85739 2.38322L3.94312 2.32364C3.97169 2.29385 4.00024 2.29385 4.02882 2.32364L4.11454 2.38322C4.14312 2.41301 4.14311 2.38322 4.14311 2.35343L4.11454 2.23428C4.11454 2.20449 4.11454 2.14492 4.14311 2.14492L4.17167 2.05556Z" fill="white"/>
<path d="M5.19999 2.05556C5.22856 2.02577 5.22856 2.02577 5.19999 2.02577H5.08573C5.05716 2.02577 5.02856 1.99599 5.02856 1.9662L5 1.84705C5 1.81726 4.97144 1.81726 4.97144 1.84705L4.94287 1.9662C4.94287 1.99599 4.91428 2.02577 4.88571 2.02577H4.77141C4.74284 2.02577 4.74284 2.05556 4.77141 2.05556L4.85714 2.14492C4.88571 2.17471 4.88571 2.20449 4.88571 2.23428L4.85714 2.35343C4.85714 2.38322 4.85714 2.38322 4.88571 2.38322L4.97144 2.32364C5.00001 2.29385 5.02856 2.29385 5.05713 2.32364L5.14286 2.38322C5.17143 2.41301 5.17142 2.38322 5.17142 2.35343L5.14286 2.23428C5.14286 2.20449 5.14285 2.14492 5.17142 2.14492L5.19999 2.05556Z" fill="white"/>
<path d="M6.25714 2.05556C6.28571 2.02577 6.28571 2.02577 6.25714 2.02577H6.14284C6.11427 2.02577 6.08571 1.99599 6.08571 1.9662L6.05712 1.84705C6.05712 1.81726 6.02855 1.81726 6.02855 1.84705L5.99999 1.9662C5.99999 1.99599 5.97143 2.02577 5.94286 2.02577H5.82856C5.79999 2.02577 5.79999 2.05556 5.82856 2.05556L5.91426 2.14492C5.94283 2.17471 5.94286 2.20449 5.94286 2.23428L5.91426 2.35343C5.91426 2.38322 5.91429 2.38322 5.94286 2.38322L6.02855 2.32364C6.05712 2.29385 6.08571 2.29385 6.11428 2.32364L6.19997 2.38322C6.22854 2.41301 6.22857 2.38322 6.22857 2.35343L6.19997 2.23428C6.19997 2.20449 6.2 2.14492 6.22857 2.14492L6.25714 2.05556Z" fill="white"/>
<path d="M7.31425 2.05556C7.34282 2.02577 7.34282 2.02577 7.31425 2.02577H7.19996C7.17139 2.02577 7.14283 1.99599 7.14283 1.9662L7.11426 1.84705C7.11426 1.81726 7.0857 1.81726 7.0857 1.84705L7.0571 1.9662C7.0571 1.99599 7.02854 2.02577 6.99997 2.02577H6.88568C6.85711 2.02577 6.85711 2.05556 6.88568 2.05556L6.97141 2.14492C6.99998 2.17471 6.99997 2.20449 6.99997 2.23428L6.97141 2.35343C6.97141 2.38322 6.9714 2.38322 6.99997 2.38322L7.0857 2.32364C7.11427 2.29385 7.14282 2.29385 7.17139 2.32364L7.25712 2.38322C7.28569 2.41301 7.28569 2.38322 7.28569 2.35343L7.25712 2.23428C7.25712 2.20449 7.25712 2.14492 7.28569 2.14492L7.31425 2.05556Z" fill="white"/>
<path d="M1.02861 3.24696C1.05718 3.21718 1.05718 3.21717 1.02861 3.21717H0.914314C0.885742 3.21717 0.857185 3.18739 0.857185 3.1576L0.82862 3.03846C0.82862 3.00867 0.800056 3.00867 0.800056 3.03846L0.771456 3.1576C0.771456 3.18739 0.742899 3.21717 0.714328 3.21717H0.600035C0.571463 3.21717 0.571463 3.24696 0.600035 3.24696L0.685763 3.33633C0.714335 3.36612 0.714328 3.3959 0.714328 3.42569L0.685763 3.54483C0.685763 3.57462 0.685756 3.57462 0.714328 3.57462L0.800056 3.51505C0.828627 3.48526 0.857178 3.48526 0.885749 3.51505L0.971477 3.57462C1.00005 3.60441 1.00004 3.57462 1.00004 3.54483L0.971477 3.42569C0.971477 3.3959 0.97147 3.33633 1.00004 3.33633L1.02861 3.24696Z" fill="white"/>
<path d="M2.08576 3.24696C2.11433 3.21718 2.11433 3.21717 2.08576 3.21717H1.97146C1.94289 3.21717 1.9143 3.18739 1.9143 3.1576L1.88574 3.03846C1.88574 3.00867 1.85717 3.00867 1.85717 3.03846L1.82861 3.1576C1.82861 3.18739 1.80001 3.21717 1.77144 3.21717H1.65718C1.62861 3.21717 1.62861 3.24696 1.65718 3.24696L1.74288 3.33633C1.77145 3.36612 1.77144 3.3959 1.77144 3.42569L1.74288 3.54483C1.74288 3.57462 1.74287 3.57462 1.77144 3.57462L1.85717 3.51505C1.88574 3.48526 1.91433 3.48526 1.9429 3.51505L2.02859 3.57462C2.05716 3.60441 2.05716 3.57462 2.05716 3.54483L2.02859 3.42569C2.02859 3.3959 2.02859 3.33633 2.05716 3.33633L2.08576 3.24696Z" fill="white"/>
<path d="M3.11407 3.24696C3.14264 3.21718 3.14264 3.21717 3.11407 3.21717H2.99978C2.97121 3.21717 2.94265 3.18739 2.94265 3.1576L2.91405 3.03846C2.91405 3.00867 2.88548 3.00867 2.88548 3.03846L2.85692 3.1576C2.85692 3.18739 2.82836 3.21717 2.79979 3.21717H2.6855C2.65693 3.21717 2.65693 3.24696 2.6855 3.24696L2.77119 3.33633C2.79976 3.36612 2.79979 3.3959 2.79979 3.42569L2.77119 3.54483C2.77119 3.57462 2.77122 3.57462 2.79979 3.57462L2.88548 3.51505C2.91406 3.48526 2.94264 3.48526 2.97121 3.51505L3.05691 3.57462C3.08548 3.60441 3.08551 3.57462 3.08551 3.54483L3.05691 3.42569C3.05691 3.3959 3.05693 3.33633 3.08551 3.33633L3.11407 3.24696Z" fill="white"/>
<path d="M4.17167 3.24696C4.20024 3.21718 4.20024 3.21717 4.17167 3.21717H4.05738C4.02881 3.21717 4.00025 3.18739 4.00025 3.1576L3.97169 3.03846C3.97169 3.00867 3.94312 3.00867 3.94312 3.03846L3.91452 3.1576C3.91452 3.18739 3.88597 3.21717 3.85739 3.21717H3.7431C3.71453 3.21717 3.71453 3.24696 3.7431 3.24696L3.82883 3.33633C3.8574 3.36612 3.85739 3.3959 3.85739 3.42569L3.82883 3.54483C3.82883 3.57462 3.82882 3.57462 3.85739 3.57462L3.94312 3.51505C3.97169 3.48526 4.00024 3.48526 4.02882 3.51505L4.11454 3.57462C4.14312 3.60441 4.14311 3.57462 4.14311 3.54483L4.11454 3.42569C4.11454 3.3959 4.11454 3.33633 4.14311 3.33633L4.17167 3.24696Z" fill="white"/>
<path d="M5.19999 3.24696C5.22856 3.21718 5.22856 3.21717 5.19999 3.21717H5.08573C5.05716 3.21717 5.02856 3.18739 5.02856 3.1576L5 3.03846C5 3.00867 4.97144 3.00867 4.97144 3.03846L4.94287 3.1576C4.94287 3.18739 4.91428 3.21717 4.88571 3.21717H4.77141C4.74284 3.21717 4.74284 3.24696 4.77141 3.24696L4.85714 3.33633C4.88571 3.36612 4.88571 3.3959 4.88571 3.42569L4.85714 3.54483C4.85714 3.57462 4.85714 3.57462 4.88571 3.57462L4.97144 3.51505C5.00001 3.48526 5.02856 3.48526 5.05713 3.51505L5.14286 3.57462C5.17143 3.60441 5.17142 3.57462 5.17142 3.54483L5.14286 3.42569C5.14286 3.3959 5.14285 3.33633 5.17142 3.33633L5.19999 3.24696Z" fill="white"/>
<path d="M6.25714 3.24696C6.28571 3.21718 6.28571 3.21717 6.25714 3.21717H6.14284C6.11427 3.21717 6.08571 3.18739 6.08571 3.1576L6.05712 3.03846C6.05712 3.00867 6.02855 3.00867 6.02855 3.03846L5.99999 3.1576C5.99999 3.18739 5.97143 3.21717 5.94286 3.21717H5.82856C5.79999 3.21717 5.79999 3.24696 5.82856 3.24696L5.91426 3.33633C5.94283 3.36612 5.94286 3.3959 5.94286 3.42569L5.91426 3.54483C5.91426 3.57462 5.91429 3.57462 5.94286 3.57462L6.02855 3.51505C6.05712 3.48526 6.08571 3.48526 6.11428 3.51505L6.19997 3.57462C6.22854 3.60441 6.22857 3.57462 6.22857 3.54483L6.19997 3.42569C6.19997 3.3959 6.2 3.33633 6.22857 3.33633L6.25714 3.24696Z" fill="white"/>
<path d="M7.31425 3.24696C7.34282 3.21718 7.34282 3.21717 7.31425 3.21717H7.19996C7.17139 3.21717 7.14283 3.18739 7.14283 3.1576L7.11426 3.03846C7.11426 3.00867 7.0857 3.00867 7.0857 3.03846L7.0571 3.1576C7.0571 3.18739 7.02854 3.21717 6.99997 3.21717H6.88568C6.85711 3.21717 6.85711 3.24696 6.88568 3.24696L6.97141 3.33633C6.99998 3.36612 6.99997 3.3959 6.99997 3.42569L6.97141 3.54483C6.97141 3.57462 6.9714 3.57462 6.99997 3.57462L7.0857 3.51505C7.11427 3.48526 7.14282 3.48526 7.17139 3.51505L7.25712 3.57462C7.28569 3.60441 7.28569 3.57462 7.28569 3.54483L7.25712 3.42569C7.25712 3.3959 7.25712 3.33633 7.28569 3.33633L7.31425 3.24696Z" fill="white"/>
<path d="M1.02861 4.43837C1.05718 4.40858 1.05718 4.40858 1.02861 4.40858H0.914314C0.885742 4.40858 0.857185 4.3788 0.857185 4.34901L0.82862 4.22986C0.82862 4.20008 0.800056 4.20008 0.800056 4.22986L0.771456 4.34901C0.771456 4.3788 0.742899 4.40858 0.714328 4.40858H0.600035C0.571463 4.40858 0.571463 4.43837 0.600035 4.43837L0.685763 4.52774C0.714335 4.55752 0.714328 4.58731 0.714328 4.61709L0.685763 4.73624C0.685763 4.76603 0.685756 4.76603 0.714328 4.76603L0.800056 4.70645C0.828627 4.67666 0.857178 4.67666 0.885749 4.70645L0.971477 4.76603C1.00005 4.79582 1.00004 4.76603 1.00004 4.73624L0.971477 4.61709C0.971477 4.58731 0.97147 4.52774 1.00004 4.52774L1.02861 4.43837Z" fill="white"/>
<path d="M2.08576 4.43837C2.11433 4.40858 2.11433 4.40858 2.08576 4.40858H1.97146C1.94289 4.40858 1.9143 4.3788 1.9143 4.34901L1.88574 4.22986C1.88574 4.20008 1.85717 4.20008 1.85717 4.22986L1.82861 4.34901C1.82861 4.3788 1.80001 4.40858 1.77144 4.40858H1.65718C1.62861 4.40858 1.62861 4.43837 1.65718 4.43837L1.74288 4.52774C1.77145 4.55752 1.77144 4.58731 1.77144 4.61709L1.74288 4.73624C1.74288 4.76603 1.74287 4.76603 1.77144 4.76603L1.85717 4.70645C1.88574 4.67666 1.91433 4.67666 1.9429 4.70645L2.02859 4.76603C2.05716 4.79582 2.05716 4.76603 2.05716 4.73624L2.02859 4.61709C2.02859 4.58731 2.02859 4.52774 2.05716 4.52774L2.08576 4.43837Z" fill="white"/>
<path d="M3.11407 4.43837C3.14264 4.40858 3.14264 4.40858 3.11407 4.40858H2.99978C2.97121 4.40858 2.94265 4.3788 2.94265 4.34901L2.91405 4.22986C2.91405 4.20008 2.88548 4.20008 2.88548 4.22986L2.85692 4.34901C2.85692 4.3788 2.82836 4.40858 2.79979 4.40858H2.6855C2.65693 4.40858 2.65693 4.43837 2.6855 4.43837L2.77119 4.52774C2.79976 4.55752 2.79979 4.58731 2.79979 4.61709L2.77119 4.73624C2.77119 4.76603 2.77122 4.76603 2.79979 4.76603L2.88548 4.70645C2.91406 4.67666 2.94264 4.67666 2.97121 4.70645L3.05691 4.76603C3.08548 4.79582 3.08551 4.76603 3.08551 4.73624L3.05691 4.61709C3.05691 4.58731 3.05693 4.52774 3.08551 4.52774L3.11407 4.43837Z" fill="white"/>
<path d="M4.17167 4.43837C4.20024 4.40858 4.20024 4.40858 4.17167 4.40858H4.05738C4.02881 4.40858 4.00025 4.3788 4.00025 4.34901L3.97169 4.22986C3.97169 4.20008 3.94312 4.20008 3.94312 4.22986L3.91452 4.34901C3.91452 4.3788 3.88597 4.40858 3.85739 4.40858H3.7431C3.71453 4.40858 3.71453 4.43837 3.7431 4.43837L3.82883 4.52774C3.8574 4.55752 3.85739 4.58731 3.85739 4.61709L3.82883 4.73624C3.82883 4.76603 3.82882 4.76603 3.85739 4.76603L3.94312 4.70645C3.97169 4.67666 4.00024 4.67666 4.02882 4.70645L4.11454 4.76603C4.14312 4.79582 4.14311 4.76603 4.14311 4.73624L4.11454 4.61709C4.11454 4.58731 4.11454 4.52774 4.14311 4.52774L4.17167 4.43837Z" fill="white"/>
<path d="M5.19999 4.43837C5.22856 4.40858 5.22856 4.40858 5.19999 4.40858H5.08573C5.05716 4.40858 5.02856 4.3788 5.02856 4.34901L5 4.22986C5 4.20008 4.97144 4.20008 4.97144 4.22986L4.94287 4.34901C4.94287 4.3788 4.91428 4.40858 4.88571 4.40858H4.77141C4.74284 4.40858 4.74284 4.43837 4.77141 4.43837L4.85714 4.52774C4.88571 4.55752 4.88571 4.58731 4.88571 4.61709L4.85714 4.73624C4.85714 4.76603 4.85714 4.76603 4.88571 4.76603L4.97144 4.70645C5.00001 4.67666 5.02856 4.67666 5.05713 4.70645L5.14286 4.76603C5.17143 4.79582 5.17142 4.76603 5.17142 4.73624L5.14286 4.61709C5.14286 4.58731 5.14285 4.52774 5.17142 4.52774L5.19999 4.43837Z" fill="white"/>
<path d="M6.25714 4.43837C6.28571 4.40858 6.28571 4.40858 6.25714 4.40858H6.14284C6.11427 4.40858 6.08571 4.3788 6.08571 4.34901L6.05712 4.22986C6.05712 4.20008 6.02855 4.20008 6.02855 4.22986L5.99999 4.34901C5.99999 4.3788 5.97143 4.40858 5.94286 4.40858H5.82856C5.79999 4.40858 5.79999 4.43837 5.82856 4.43837L5.91426 4.52774C5.94283 4.55752 5.94286 4.58731 5.94286 4.61709L5.91426 4.73624C5.91426 4.76603 5.91429 4.76603 5.94286 4.76603L6.02855 4.70645C6.05712 4.67666 6.08571 4.67666 6.11428 4.70645L6.19997 4.76603C6.22854 4.79582 6.22857 4.76603 6.22857 4.73624L6.19997 4.61709C6.19997 4.58731 6.2 4.52774 6.22857 4.52774L6.25714 4.43837Z" fill="white"/>
<path d="M7.31425 4.43837C7.34282 4.40858 7.34282 4.40858 7.31425 4.40858H7.19996C7.17139 4.40858 7.14283 4.3788 7.14283 4.34901L7.11426 4.22986C7.11426 4.20008 7.0857 4.20008 7.0857 4.22986L7.0571 4.34901C7.0571 4.3788 7.02854 4.40858 6.99997 4.40858H6.88568C6.85711 4.40858 6.85711 4.43837 6.88568 4.43837L6.97141 4.52774C6.99998 4.55752 6.99997 4.58731 6.99997 4.61709L6.97141 4.73624C6.97141 4.76603 6.9714 4.76603 6.99997 4.76603L7.0857 4.70645C7.11427 4.67666 7.14282 4.67666 7.17139 4.70645L7.25712 4.76603C7.28569 4.79582 7.28569 4.76603 7.28569 4.73624L7.25712 4.61709C7.25712 4.58731 7.25712 4.52774 7.28569 4.52774L7.31425 4.43837Z" fill="white"/>
<path d="M1.02861 5.62978C1.05718 5.59999 1.05718 5.59999 1.02861 5.59999H0.914314C0.885742 5.59999 0.857185 5.5702 0.857185 5.54042L0.82862 5.42127C0.82862 5.39148 0.800056 5.39148 0.800056 5.42127L0.771456 5.54042C0.771456 5.5702 0.742899 5.59999 0.714328 5.59999H0.600035C0.571463 5.59999 0.571463 5.62978 0.600035 5.62978L0.685763 5.71914C0.714335 5.74893 0.714328 5.77871 0.714328 5.8085L0.685763 5.92765C0.685763 5.95743 0.685756 5.95744 0.714328 5.95744L0.800056 5.89786C0.828627 5.86807 0.857178 5.86807 0.885749 5.89786L0.971477 5.95744C1.00005 5.98722 1.00004 5.95743 1.00004 5.92765L0.971477 5.8085C0.971477 5.77871 0.97147 5.71914 1.00004 5.71914L1.02861 5.62978Z" fill="white"/>
<path d="M2.08576 5.62978C2.11433 5.59999 2.11433 5.59999 2.08576 5.59999H1.97146C1.94289 5.59999 1.9143 5.5702 1.9143 5.54042L1.88574 5.42127C1.88574 5.39148 1.85717 5.39148 1.85717 5.42127L1.82861 5.54042C1.82861 5.5702 1.80001 5.59999 1.77144 5.59999H1.65718C1.62861 5.59999 1.62861 5.62978 1.65718 5.62978L1.74288 5.71914C1.77145 5.74893 1.77144 5.77871 1.77144 5.8085L1.74288 5.92765C1.74288 5.95743 1.74287 5.95744 1.77144 5.95744L1.85717 5.89786C1.88574 5.86807 1.91433 5.86807 1.9429 5.89786L2.02859 5.95744C2.05716 5.98722 2.05716 5.95743 2.05716 5.92765L2.02859 5.8085C2.02859 5.77871 2.02859 5.71914 2.05716 5.71914L2.08576 5.62978Z" fill="white"/>
<path d="M3.11407 5.62978C3.14264 5.59999 3.14264 5.59999 3.11407 5.59999H2.99978C2.97121 5.59999 2.94265 5.5702 2.94265 5.54042L2.91405 5.42127C2.91405 5.39148 2.88548 5.39148 2.88548 5.42127L2.85692 5.54042C2.85692 5.5702 2.82836 5.59999 2.79979 5.59999H2.6855C2.65693 5.59999 2.65693 5.62978 2.6855 5.62978L2.77119 5.71914C2.79976 5.74893 2.79979 5.77871 2.79979 5.8085L2.77119 5.92765C2.77119 5.95743 2.77122 5.95744 2.79979 5.95744L2.88548 5.89786C2.91406 5.86807 2.94264 5.86807 2.97121 5.89786L3.05691 5.95744C3.08548 5.98722 3.08551 5.95743 3.08551 5.92765L3.05691 5.8085C3.05691 5.77871 3.05693 5.71914 3.08551 5.71914L3.11407 5.62978Z" fill="white"/>
<path d="M4.17167 5.62978C4.20024 5.59999 4.20024 5.59999 4.17167 5.59999H4.05738C4.02881 5.59999 4.00025 5.5702 4.00025 5.54042L3.97169 5.42127C3.97169 5.39148 3.94312 5.39148 3.94312 5.42127L3.91452 5.54042C3.91452 5.5702 3.88597 5.59999 3.85739 5.59999H3.7431C3.71453 5.59999 3.71453 5.62978 3.7431 5.62978L3.82883 5.71914C3.8574 5.74893 3.85739 5.77871 3.85739 5.8085L3.82883 5.92765C3.82883 5.95743 3.82882 5.95744 3.85739 5.95744L3.94312 5.89786C3.97169 5.86807 4.00024 5.86807 4.02882 5.89786L4.11454 5.95744C4.14312 5.98722 4.14311 5.95743 4.14311 5.92765L4.11454 5.8085C4.11454 5.77871 4.11454 5.71914 4.14311 5.71914L4.17167 5.62978Z" fill="white"/>
<path d="M5.19999 5.62978C5.22856 5.59999 5.22856 5.59999 5.19999 5.59999H5.08573C5.05716 5.59999 5.02856 5.5702 5.02856 5.54042L5 5.42127C5 5.39148 4.97144 5.39148 4.97144 5.42127L4.94287 5.54042C4.94287 5.5702 4.91428 5.59999 4.88571 5.59999H4.77141C4.74284 5.59999 4.74284 5.62978 4.77141 5.62978L4.85714 5.71914C4.88571 5.74893 4.88571 5.77871 4.88571 5.8085L4.85714 5.92765C4.85714 5.95743 4.85714 5.95744 4.88571 5.95744L4.97144 5.89786C5.00001 5.86807 5.02856 5.86807 5.05713 5.89786L5.14286 5.95744C5.17143 5.98722 5.17142 5.95743 5.17142 5.92765L5.14286 5.8085C5.14286 5.77871 5.14285 5.71914 5.17142 5.71914L5.19999 5.62978Z" fill="white"/>
<path d="M6.25714 5.62978C6.28571 5.59999 6.28571 5.59999 6.25714 5.59999H6.14284C6.11427 5.59999 6.08571 5.5702 6.08571 5.54042L6.05712 5.42127C6.05712 5.39148 6.02855 5.39148 6.02855 5.42127L5.99999 5.54042C5.99999 5.5702 5.97143 5.59999 5.94286 5.59999H5.82856C5.79999 5.59999 5.79999 5.62978 5.82856 5.62978L5.91426 5.71914C5.94283 5.74893 5.94286 5.77871 5.94286 5.8085L5.91426 5.92765C5.91426 5.95743 5.91429 5.95744 5.94286 5.95744L6.02855 5.89786C6.05712 5.86807 6.08571 5.86807 6.11428 5.89786L6.19997 5.95744C6.22854 5.98722 6.22857 5.95743 6.22857 5.92765L6.19997 5.8085C6.19997 5.77871 6.2 5.71914 6.22857 5.71914L6.25714 5.62978Z" fill="white"/>
<path d="M7.31425 5.62978C7.34282 5.59999 7.34282 5.59999 7.31425 5.59999H7.19996C7.17139 5.59999 7.14283 5.5702 7.14283 5.54042L7.11426 5.42127C7.11426 5.39148 7.0857 5.39148 7.0857 5.42127L7.0571 5.54042C7.0571 5.5702 7.02854 5.59999 6.99997 5.59999H6.88568C6.85711 5.59999 6.85711 5.62978 6.88568 5.62978L6.97141 5.71914C6.99998 5.74893 6.99997 5.77871 6.99997 5.8085L6.97141 5.92765C6.97141 5.95743 6.9714 5.95744 6.99997 5.95744L7.0857 5.89786C7.11427 5.86807 7.14282 5.86807 7.17139 5.89786L7.25712 5.95744C7.28569 5.98722 7.28569 5.95743 7.28569 5.92765L7.25712 5.8085C7.25712 5.77871 7.25712 5.71914 7.28569 5.71914L7.31425 5.62978Z" fill="white"/>
<path d="M1.02861 6.82118C1.05718 6.79139 1.05718 6.79139 1.02861 6.79139H0.914314C0.885742 6.79139 0.857185 6.76161 0.857185 6.73182L0.82862 6.61268C0.82862 6.58289 0.800056 6.58289 0.800056 6.61268L0.771456 6.73182C0.771456 6.76161 0.742899 6.79139 0.714328 6.79139H0.600035C0.571463 6.79139 0.571463 6.82118 0.600035 6.82118L0.685763 6.91055C0.714335 6.94034 0.714328 6.97012 0.714328 6.99991L0.685763 7.11905C0.685763 7.14884 0.685756 7.14884 0.714328 7.14884L0.800056 7.08926C0.828627 7.05948 0.857178 7.05948 0.885749 7.08926L0.971477 7.14884C1.00005 7.17863 1.00004 7.14884 1.00004 7.11905L0.971477 6.99991C0.971477 6.97012 0.97147 6.91055 1.00004 6.91055L1.02861 6.82118Z" fill="white"/>
<path d="M2.08576 6.82118C2.11433 6.79139 2.11433 6.79139 2.08576 6.79139H1.97146C1.94289 6.79139 1.9143 6.76161 1.9143 6.73182L1.88574 6.61268C1.88574 6.58289 1.85717 6.58289 1.85717 6.61268L1.82861 6.73182C1.82861 6.76161 1.80001 6.79139 1.77144 6.79139H1.65718C1.62861 6.79139 1.62861 6.82118 1.65718 6.82118L1.74288 6.91055C1.77145 6.94034 1.77144 6.97012 1.77144 6.99991L1.74288 7.11905C1.74288 7.14884 1.74287 7.14884 1.77144 7.14884L1.85717 7.08926C1.88574 7.05948 1.91433 7.05948 1.9429 7.08926L2.02859 7.14884C2.05716 7.17863 2.05716 7.14884 2.05716 7.11905L2.02859 6.99991C2.02859 6.97012 2.02859 6.91055 2.05716 6.91055L2.08576 6.82118Z" fill="white"/>
<path d="M3.11407 6.82118C3.14264 6.79139 3.14264 6.79139 3.11407 6.79139H2.99978C2.97121 6.79139 2.94265 6.76161 2.94265 6.73182L2.91405 6.61268C2.91405 6.58289 2.88548 6.58289 2.88548 6.61268L2.85692 6.73182C2.85692 6.76161 2.82836 6.79139 2.79979 6.79139H2.6855C2.65693 6.79139 2.65693 6.82118 2.6855 6.82118L2.77119 6.91055C2.79976 6.94034 2.79979 6.97012 2.79979 6.99991L2.77119 7.11905C2.77119 7.14884 2.77122 7.14884 2.79979 7.14884L2.88548 7.08926C2.91406 7.05948 2.94264 7.05948 2.97121 7.08926L3.05691 7.14884C3.08548 7.17863 3.08551 7.14884 3.08551 7.11905L3.05691 6.99991C3.05691 6.97012 3.05693 6.91055 3.08551 6.91055L3.11407 6.82118Z" fill="white"/>
<path d="M4.17167 6.82118C4.20024 6.79139 4.20024 6.79139 4.17167 6.79139H4.05738C4.02881 6.79139 4.00025 6.76161 4.00025 6.73182L3.97169 6.61268C3.97169 6.58289 3.94312 6.58289 3.94312 6.61268L3.91452 6.73182C3.91452 6.76161 3.88597 6.79139 3.85739 6.79139H3.7431C3.71453 6.79139 3.71453 6.82118 3.7431 6.82118L3.82883 6.91055C3.8574 6.94034 3.85739 6.97012 3.85739 6.99991L3.82883 7.11905C3.82883 7.14884 3.82882 7.14884 3.85739 7.14884L3.94312 7.08926C3.97169 7.05948 4.00024 7.05948 4.02882 7.08926L4.11454 7.14884C4.14312 7.17863 4.14311 7.14884 4.14311 7.11905L4.11454 6.99991C4.11454 6.97012 4.11454 6.91055 4.14311 6.91055L4.17167 6.82118Z" fill="white"/>
<path d="M5.19999 6.82118C5.22856 6.79139 5.22856 6.79139 5.19999 6.79139H5.08573C5.05716 6.79139 5.02856 6.76161 5.02856 6.73182L5 6.61268C5 6.58289 4.97144 6.58289 4.97144 6.61268L4.94287 6.73182C4.94287 6.76161 4.91428 6.79139 4.88571 6.79139H4.77141C4.74284 6.79139 4.74284 6.82118 4.77141 6.82118L4.85714 6.91055C4.88571 6.94034 4.88571 6.97012 4.88571 6.99991L4.85714 7.11905C4.85714 7.14884 4.85714 7.14884 4.88571 7.14884L4.97144 7.08926C5.00001 7.05948 5.02856 7.05948 5.05713 7.08926L5.14286 7.14884C5.17143 7.17863 5.17142 7.14884 5.17142 7.11905L5.14286 6.99991C5.14286 6.97012 5.14285 6.91055 5.17142 6.91055L5.19999 6.82118Z" fill="white"/>
<path d="M6.25714 6.82118C6.28571 6.79139 6.28571 6.79139 6.25714 6.79139H6.14284C6.11427 6.79139 6.08571 6.76161 6.08571 6.73182L6.05712 6.61268C6.05712 6.58289 6.02855 6.58289 6.02855 6.61268L5.99999 6.73182C5.99999 6.76161 5.97143 6.79139 5.94286 6.79139H5.82856C5.79999 6.79139 5.79999 6.82118 5.82856 6.82118L5.91426 6.91055C5.94283 6.94034 5.94286 6.97012 5.94286 6.99991L5.91426 7.11905C5.91426 7.14884 5.91429 7.14884 5.94286 7.14884L6.02855 7.08926C6.05712 7.05948 6.08571 7.05948 6.11428 7.08926L6.19997 7.14884C6.22854 7.17863 6.22857 7.14884 6.22857 7.11905L6.19997 6.99991C6.19997 6.97012 6.2 6.91055 6.22857 6.91055L6.25714 6.82118Z" fill="white"/>
<path d="M7.31425 6.82118C7.34282 6.79139 7.34282 6.79139 7.31425 6.79139H7.19996C7.17139 6.79139 7.14283 6.76161 7.14283 6.73182L7.11426 6.61268C7.11426 6.58289 7.0857 6.58289 7.0857 6.61268L7.0571 6.73182C7.0571 6.76161 7.02854 6.79139 6.99997 6.79139H6.88568C6.85711 6.79139 6.85711 6.82118 6.88568 6.82118L6.97141 6.91055C6.99998 6.94034 6.99997 6.97012 6.99997 6.99991L6.97141 7.11905C6.97141 7.14884 6.9714 7.14884 6.99997 7.14884L7.0857 7.08926C7.11427 7.05948 7.14282 7.05948 7.17139 7.08926L7.25712 7.14884C7.28569 7.17863 7.28569 7.14884 7.28569 7.11905L7.25712 6.99991C7.25712 6.97012 7.25712 6.91055 7.28569 6.91055L7.31425 6.82118Z" fill="white"/>
</g>
</svg>
