<svg width="20" height="14" viewBox="0 0 20 14" fill="none" xmlns="http://www.w3.org/2000/svg">
<mask id="mask0" mask-type="alpha" maskUnits="userSpaceOnUse" x="0" y="0" width="20" height="14">
<rect width="20" height="14" rx="2" fill="#C4C4C4"/>
</mask>
<g mask="url(#mask0)">
<path d="M20.001 0.000976562H0.000976562V14.001H20.001V0.000976562Z" fill="#4758A9"/>
<path d="M-0.133974 -1.07382L-1.21777 0.678711L20.1549 15.0448L21.2387 13.2923L-0.133974 -1.07382Z" fill="white"/>
<path d="M-0.428034 -0.59816L-0.938957 0.228015L20.4338 14.5941L20.9447 13.768L-0.428034 -0.59816Z" fill="#F54747"/>
<path d="M20.1637 -1.0585L-1.20898 13.3076L-0.125184 15.0601L21.2475 0.694035L20.1637 -1.0585Z" fill="white"/>
<path d="M20.4425 -0.607817L-0.930178 13.7583L-0.41924 14.5845L20.9535 0.218382L20.4425 -0.607817Z" fill="#F54747"/>
<path d="M20.001 5.36279H0.000976562V8.93726H20.001V5.36279Z" fill="white"/>
<path d="M11.7152 0.000976562H8.28662V14.001H11.7152V0.000976562Z" fill="white"/>
<path d="M20.001 5.9585H0.000976562V8.34147H20.001V5.9585Z" fill="#F54747"/>
<path d="M11.1436 0.000976562H8.85791V14.001H11.1436V0.000976562Z" fill="#F54747"/>
</g>
</svg>
