<svg width="20" height="14" viewBox="0 0 20 14" fill="none" xmlns="http://www.w3.org/2000/svg">
<mask id="mask0" mask-type="alpha" maskUnits="userSpaceOnUse" x="0" y="0" width="20" height="14">
<rect width="20" height="14" rx="2" fill="#C4C4C4"/>
</mask>
<g mask="url(#mask0)">
<path d="M20 0H0V14H20V0Z" fill="#F5F7FA"/>
<path d="M20 5.65967H0V8.63839H20V5.65967Z" fill="#4758A9"/>
<path d="M19.9998 0H2.85693V2.97872H19.9998V0Z" fill="#4758A9"/>
<path d="M8.57143 0H0V8.6383H8.57143V0Z" fill="#F5F7FA"/>
<path d="M6.94308 4.14056L6.77162 3.8129C6.71448 3.72354 6.68593 3.54482 6.68593 3.42567V3.06822C6.68593 2.94907 6.60022 2.82992 6.51451 2.77035L6.2288 2.59163C6.14308 2.53206 6.00022 2.4129 5.97164 2.32354L5.80022 2.02567C5.74308 1.9363 5.60022 1.84695 5.51451 1.84695H5.17163C5.05735 1.84695 4.88594 1.78737 4.80022 1.75758L4.48591 1.57886C4.4002 1.51928 4.22878 1.51928 4.14307 1.57886L3.85735 1.75758C3.77164 1.81716 3.6002 1.84695 3.48591 1.84695H3.14307C3.02878 1.84695 2.91449 1.9363 2.85735 2.02567L2.68593 2.35333C2.62879 2.44269 2.5145 2.59162 2.42878 2.62141L2.1145 2.80014C2.02879 2.85971 1.94308 3.00865 1.94308 3.09801V3.45546C1.94308 3.57461 1.88592 3.75333 1.85735 3.84269L1.68593 4.14056C1.62879 4.22992 1.62879 4.40865 1.68593 4.49801L1.85735 4.82567C1.91449 4.91503 1.94308 5.09375 1.94308 5.2129V5.57035C1.94308 5.6895 2.02879 5.80865 2.1145 5.86823L2.40022 6.04694C2.48593 6.10652 2.62879 6.22567 2.65737 6.31503L2.82879 6.61291C2.88593 6.70227 3.02879 6.79162 3.1145 6.79162H3.45735C3.57163 6.79162 3.74307 6.8512 3.82879 6.88099L4.14307 7.05972C4.22878 7.11929 4.4002 7.11929 4.48591 7.05972L4.77162 6.88099C4.85734 6.82142 5.02878 6.79162 5.14307 6.79162H5.48591C5.6002 6.79162 5.71448 6.70227 5.77162 6.61291L5.94308 6.28525C6.00022 6.19588 6.11448 6.04695 6.2002 5.98737L6.51451 5.80865C6.60022 5.74907 6.68593 5.60014 6.68593 5.51078V5.15333C6.68593 5.03418 6.74305 4.85546 6.77162 4.76609L6.94308 4.46822C7.00022 4.40865 7.00022 4.22992 6.94308 4.14056Z" fill="#F6D660"/>
<path d="M20 11.0215H0V14.0002H20V11.0215Z" fill="#4758A9"/>
</g>
</svg>
