<svg width="20" height="14" viewBox="0 0 20 14" fill="none" xmlns="http://www.w3.org/2000/svg">
<mask id="mask0" mask-type="alpha" maskUnits="userSpaceOnUse" x="0" y="0" width="20" height="14">
<rect width="20" height="14" rx="2" fill="#C4C4C4"/>
</mask>
<g mask="url(#mask0)">
<path d="M20 4.76611H0V9.53207H20V4.76611Z" fill="#F54747"/>
<path d="M20 0H0V4.76596H20V0Z" fill="#3BAFDA"/>
<path d="M20 5.36182H0V8.93628H20V5.36182Z" fill="#F5F7FA"/>
<path d="M20 9.53174H0V13.9998H20V9.53174Z" fill="#52C162"/>
<path d="M4.25705 1.04271C4.08562 0.893774 3.88563 0.774621 3.65706 0.685259C2.77134 0.387387 1.79989 0.893777 1.4856 1.84697C1.42846 2.02569 1.39991 2.20441 1.39991 2.38314C1.39991 2.56186 1.42847 2.74058 1.45704 2.9193C1.71418 3.87249 2.65705 4.40867 3.57133 4.14058C3.7999 4.08101 3.9999 3.96186 4.17132 3.81292C4.1999 3.81292 4.19989 3.78314 4.19989 3.75335C4.19989 3.72356 4.17133 3.72356 4.14276 3.72356C4.08562 3.75335 3.99989 3.78313 3.91417 3.81292C3.19989 4.02143 2.42849 3.60441 2.22849 2.85973C2.19992 2.7108 2.17132 2.56186 2.17132 2.41292C2.17132 2.26399 2.19992 2.11505 2.22849 1.96612C2.45706 1.22143 3.22849 0.804412 3.94277 1.04271C4.02849 1.0725 4.08562 1.10228 4.14276 1.13207C4.17133 1.13207 4.19989 1.13208 4.19989 1.10229C4.2856 1.0725 4.28562 1.04271 4.25705 1.04271Z" fill="white"/>
<path d="M5.14265 3.57471C4.97122 3.57471 4.85693 3.69386 4.85693 3.87258C4.85693 4.0513 4.97122 4.17045 5.14265 4.17045C5.31408 4.17045 5.42836 4.0513 5.42836 3.87258C5.42836 3.69386 5.31408 3.57471 5.14265 3.57471Z" fill="#FAFDFE"/>
<path d="M6.28571 3.57471C6.11429 3.57471 6 3.69386 6 3.87258C6 4.0513 6.11429 4.17045 6.28571 4.17045C6.45714 4.17045 6.57143 4.0513 6.57143 3.87258C6.57143 3.69386 6.45714 3.57471 6.28571 3.57471Z" fill="#FAFDFE"/>
<path d="M6.28571 2.38281C6.11429 2.38281 6 2.50196 6 2.68068C6 2.85941 6.11429 2.97856 6.28571 2.97856C6.45714 2.97856 6.57143 2.85941 6.57143 2.68068C6.57143 2.50196 6.45714 2.38281 6.28571 2.38281Z" fill="#FAFDFE"/>
<path d="M7.42878 1.78715C7.58658 1.78715 7.71449 1.65379 7.71449 1.48928C7.71449 1.32477 7.58658 1.19141 7.42878 1.19141C7.27098 1.19141 7.14307 1.32477 7.14307 1.48928C7.14307 1.65379 7.27098 1.78715 7.42878 1.78715Z" fill="#FAFDFE"/>
<path d="M7.42878 2.97856C7.58658 2.97856 7.71449 2.84519 7.71449 2.68068C7.71449 2.51617 7.58658 2.38281 7.42878 2.38281C7.27098 2.38281 7.14307 2.51617 7.14307 2.68068C7.14307 2.84519 7.27098 2.97856 7.42878 2.97856Z" fill="#FAFDFE"/>
<path d="M7.42878 4.17045C7.58658 4.17045 7.71449 4.03709 7.71449 3.87258C7.71449 3.70807 7.58658 3.57471 7.42878 3.57471C7.27098 3.57471 7.14307 3.70807 7.14307 3.87258C7.14307 4.03709 7.27098 4.17045 7.42878 4.17045Z" fill="#FAFDFE"/>
<path d="M8.57136 1.78715C8.72916 1.78715 8.85707 1.65379 8.85707 1.48928C8.85707 1.32477 8.72916 1.19141 8.57136 1.19141C8.41356 1.19141 8.28564 1.32477 8.28564 1.48928C8.28564 1.65379 8.41356 1.78715 8.57136 1.78715Z" fill="#FAFDFE"/>
<path d="M8.57136 2.97856C8.72916 2.97856 8.85707 2.84519 8.85707 2.68068C8.85707 2.51617 8.72916 2.38281 8.57136 2.38281C8.41356 2.38281 8.28564 2.51617 8.28564 2.68068C8.28564 2.84519 8.41356 2.97856 8.57136 2.97856Z" fill="#FAFDFE"/>
<path d="M8.57136 4.17045C8.72916 4.17045 8.85707 4.03709 8.85707 3.87258C8.85707 3.70807 8.72916 3.57471 8.57136 3.57471C8.41356 3.57471 8.28564 3.70807 8.28564 3.87258C8.28564 4.03709 8.41356 4.17045 8.57136 4.17045Z" fill="#FAFDFE"/>
<path d="M9.71443 1.78715C9.87222 1.78715 10.0001 1.65379 10.0001 1.48928C10.0001 1.32477 9.87222 1.19141 9.71443 1.19141C9.55663 1.19141 9.42871 1.32477 9.42871 1.48928C9.42871 1.65379 9.55663 1.78715 9.71443 1.78715Z" fill="#FAFDFE"/>
<path d="M9.71443 2.97856C9.87222 2.97856 10.0001 2.84519 10.0001 2.68068C10.0001 2.51617 9.87222 2.38281 9.71443 2.38281C9.55663 2.38281 9.42871 2.51617 9.42871 2.68068C9.42871 2.84519 9.55663 2.97856 9.71443 2.97856Z" fill="#FAFDFE"/>
<path d="M9.71443 4.17045C9.87222 4.17045 10.0001 4.03709 10.0001 3.87258C10.0001 3.70807 9.87222 3.57471 9.71443 3.57471C9.55663 3.57471 9.42871 3.70807 9.42871 3.87258C9.42871 4.03709 9.55663 4.17045 9.71443 4.17045Z" fill="#FAFDFE"/>
</g>
</svg>
