<svg width="20" height="14" viewBox="0 0 20 14" fill="none" xmlns="http://www.w3.org/2000/svg">
<mask id="mask0" mask-type="alpha" maskUnits="userSpaceOnUse" x="0" y="0" width="20" height="14">
<rect width="20" height="14" rx="2" fill="#C4C4C4"/>
</mask>
<g mask="url(#mask0)">
<path d="M10 0H0V14H10V0Z" fill="#FFCE54"/>
<path d="M20 0H10V14H20V0Z" fill="white"/>
<path d="M17.7428 5.48066L17.6285 5.57002V5.36151L17.3428 5.03385L17.4571 4.9147C17.4857 4.94449 17.5143 4.94449 17.5428 4.9147C17.5714 4.88491 17.5714 4.85513 17.5428 4.82534V4.79554L17.6285 4.73598V4.76576C17.6571 4.79555 17.6857 4.79555 17.7143 4.76576C17.7428 4.73597 17.7428 4.70619 17.7143 4.6764L17.6571 4.61683L17.7143 4.55725H17.7428C17.8285 4.55725 17.8857 4.49767 17.8857 4.40831C17.8857 4.31895 17.8285 4.25938 17.7428 4.25938C17.6857 4.25938 17.6285 4.31896 17.6 4.37853L17.5428 4.43811L17.5143 4.40831C17.4857 4.37852 17.4571 4.37852 17.4286 4.40831C17.4 4.4381 17.4 4.46788 17.4286 4.49767L17.3428 4.55725L17.3714 4.52747C17.2857 4.49768 17.1428 4.46789 16.9714 4.25938C16.8 4.05086 16.6 3.93172 16.3143 4.11044C16.1428 4.1998 16.0571 4.34873 16.0285 4.49767C16 4.61682 16 4.73597 16.0285 4.9147C16.0571 5.12321 16.1143 5.42109 16.1428 5.6296L16 5.74874C15.9714 5.71895 15.9428 5.71895 15.9143 5.74874C15.8857 5.77852 15.8857 5.80831 15.9143 5.83809L15.8 5.95725C15.7714 5.86789 15.6571 5.62959 15.6285 5.51044C15.7143 5.48066 15.7428 5.45087 15.7428 5.42108C15.7714 5.48066 15.8285 5.3913 15.7714 5.33173L15.8 5.24235C15.8286 5.27214 15.8571 5.21258 15.8286 5.18279C15.8286 5.153 15.8571 5.12321 15.8571 5.06363H15.8857C15.9143 5.06363 15.9429 5.03384 15.9429 5.00406C15.9429 4.97427 15.9143 4.97428 15.9143 4.97428V4.85512V4.82534C15.9714 4.82534 16 4.76577 15.9143 4.73598V4.64661C15.9714 4.64661 15.9714 4.58703 15.9143 4.55725C15.9143 4.52746 15.9143 4.4679 15.9143 4.43811C15.9428 4.43811 15.9714 4.40832 15.9714 4.37853C15.9714 4.34874 15.9428 4.31895 15.9143 4.31895L15.9429 4.17002L15.8857 4.1998V4.17002C15.9143 4.17002 15.9143 4.11045 15.8571 4.08066C15.8571 4.05087 15.8286 4.02109 15.8286 3.9913C15.8857 3.9913 15.8857 3.93171 15.8286 3.90192H15.8C15.7714 3.87214 15.7714 3.81257 15.7428 3.78279C15.7714 3.78279 15.8 3.753 15.8 3.72321C15.8 3.69342 15.7714 3.66363 15.7428 3.66363L15.7714 3.51469L15.6285 3.60405L15.6857 3.66363C15.5143 3.45512 15.3143 3.30619 15.1428 3.2764C15.1428 3.24661 15.1428 3.24661 15.1428 3.21682C15.1428 3.15725 15.1143 3.12746 15.0571 3.12746V3.00831H15.1428V2.91895H15.0571V2.79981H15V2.91895H14.9143V3.00831H15V3.12746C14.9714 3.15725 14.9429 3.18704 14.9429 3.21682C14.9429 3.24661 14.9429 3.24661 14.9429 3.2764C14.7714 3.30619 14.5428 3.45512 14.4 3.66363L14.4286 3.60405L14.2857 3.51469L14.3143 3.66363C14.2857 3.66363 14.2571 3.69342 14.2571 3.72321C14.2571 3.753 14.2857 3.78279 14.3143 3.78279C14.2857 3.81257 14.2571 3.87214 14.2571 3.90192H14.2286C14.1714 3.93171 14.1714 3.9913 14.2286 3.9913C14.2286 4.02109 14.2 4.05087 14.2 4.08066C14.1428 4.11045 14.1428 4.17002 14.1714 4.17002V4.1998L14.1143 4.17002L14.1428 4.31895C14.1143 4.31895 14.0857 4.34874 14.0857 4.37853C14.0857 4.40832 14.1143 4.43811 14.1428 4.43811C14.1428 4.4679 14.1428 4.52746 14.1428 4.55725C14.0857 4.58703 14.0857 4.64661 14.1428 4.64661V4.73598C14.0571 4.76577 14.1143 4.82534 14.1428 4.82534V4.85512V4.97428C14.1143 4.97428 14.1143 5.00406 14.1143 5.00406C14.1143 5.03384 14.1428 5.06363 14.1714 5.06363H14.2C14.2 5.09342 14.2286 5.12322 14.2286 5.18279C14.2 5.21258 14.2286 5.27214 14.2571 5.24235L14.2857 5.33173C14.2571 5.36151 14.2857 5.48066 14.3143 5.42108C14.3143 5.45087 14.3428 5.48066 14.4286 5.51044C14.4 5.62959 14.2857 5.86789 14.2571 5.95725L14.1428 5.83809C14.1714 5.80831 14.1714 5.77852 14.1428 5.74874C14.1143 5.71895 14.0857 5.71895 14.0571 5.74874L13.9143 5.6296C13.9714 5.3913 14 5.12321 14.0286 4.9147C14.0571 4.76576 14.0286 4.61682 14.0286 4.49767C14 4.34873 13.8857 4.1998 13.7428 4.11044C13.4571 3.93172 13.2571 4.05086 13.0857 4.25938C12.9143 4.46789 12.7714 4.49768 12.6857 4.52747L12.7143 4.55725L12.6285 4.49767C12.6571 4.46788 12.6285 4.4381 12.6285 4.40831C12.6 4.37852 12.5714 4.37852 12.5429 4.40831L12.5143 4.43811L12.4571 4.37853C12.4571 4.31896 12.4 4.25938 12.3143 4.25938C12.2286 4.25938 12.1714 4.31895 12.1714 4.40831C12.1714 4.49767 12.2286 4.55725 12.3143 4.55725H12.3428L12.4 4.61683L12.3428 4.6764C12.3143 4.70619 12.3143 4.73597 12.3428 4.76576C12.3714 4.79555 12.4 4.79555 12.4286 4.76576V4.73598L12.5143 4.79554V4.82534C12.4857 4.85513 12.4857 4.88491 12.5143 4.9147C12.5429 4.94449 12.5714 4.94449 12.6 4.9147L12.7143 5.03385L12.4286 5.36151V5.5998L12.3143 5.51044L12.0571 5.83809V6.04661L12.4571 6.40406L12.7143 6.07641V6.01683L12.8 5.95725L12.8286 5.92747L12.9714 5.83809L12.9429 5.86789V6.10619L12.8286 6.01683L12.5714 6.34448V6.553L12.9714 6.91045L13.5143 6.25512C13.5429 6.28491 13.5714 6.34449 13.6 6.37428C13.6857 6.46364 13.7714 6.52321 13.8857 6.553C14.0571 6.61257 14.2286 6.58278 14.3143 6.553L13.9143 6.19555L14.3428 6.58278C14.3143 6.67214 14.3714 6.73171 14.4286 6.73171C14.4857 6.73171 14.5428 6.76151 14.6 6.82109C14.5714 6.85088 14.5714 6.94024 14.6 6.97002L14.6285 6.9998C14.4 7.17853 14.1143 7.4764 14.0286 7.65513L13.9143 7.74448L13.8286 7.62533L13.6857 7.74448C13.5714 7.68491 13.4286 7.65513 13.2857 7.65513C13.1143 7.65513 12.9714 7.7147 12.8286 7.80406C12.8 7.77428 12.7429 7.74448 12.6857 7.74448C12.5714 7.74448 12.5143 7.83384 12.5143 7.9232C12.5143 7.98278 12.5428 8.04235 12.5714 8.07214C12.4857 8.22107 12.4286 8.37002 12.4286 8.54874C12.4286 8.72747 12.4857 8.90618 12.5714 9.02533C12.5143 9.05512 12.4857 9.11469 12.4857 9.17427C12.4857 9.26363 12.5714 9.353 12.6571 9.353C12.7143 9.353 12.7714 9.3232 12.8 9.26363C12.9429 9.35299 13.0857 9.38278 13.2571 9.38278C13.3428 9.38278 13.4 9.38279 13.4571 9.353C13.7714 9.53173 14.3429 9.71045 14.8 9.74023V10.0083C14.7714 10.0083 14.7428 10.0381 14.7428 10.0977C14.7428 10.1573 14.7714 10.1573 14.8 10.187V10.3658C14.7714 10.3658 14.7714 10.3956 14.7714 10.3956C14.7714 10.3956 14.7714 10.4253 14.8 10.4253C14.7714 10.4551 14.7714 10.4849 14.7714 10.5445C14.7714 10.6041 14.7428 11.1998 14.7428 11.2296C14.7714 11.2296 14.8285 11.2296 14.9143 11.2296V11.2594C14.9714 11.2594 15.2571 11.2892 15.3143 11.2594L15.2857 10.6041C15.2857 10.5445 15.2571 10.5147 15.2571 10.4849V10.4551C15.2571 10.4253 15.2286 10.4253 15.2286 10.4253H15.2V10.1275C15.2285 10.1275 15.2857 10.0977 15.2857 10.0381C15.2857 10.0083 15.2571 9.94875 15.2 9.94875V9.62108C15.6857 9.5615 16.2285 9.38278 16.4857 9.23385C16.5714 9.26363 16.6857 9.29342 16.7714 9.29342C16.9428 9.29342 17.0857 9.23384 17.2286 9.17427C17.2571 9.23384 17.3143 9.26363 17.3714 9.26363C17.4571 9.26363 17.5428 9.17427 17.5428 9.08491C17.5428 9.02534 17.5143 8.96576 17.4571 8.93597C17.5428 8.78704 17.6 8.63811 17.6 8.45939C17.6 8.28066 17.5428 8.13172 17.4571 7.98278C17.4857 7.95299 17.5143 7.89342 17.5143 7.83384C17.5143 7.74448 17.4285 7.65513 17.3428 7.65513C17.2857 7.65513 17.2285 7.68492 17.2 7.7147C17.0571 7.62534 16.9143 7.56577 16.7428 7.56577C16.6 7.56577 16.4571 7.59555 16.3428 7.65513L16.2 7.53597L16.1143 7.65513L16 7.56577C15.9143 7.38705 15.6286 7.11895 15.4 6.94023L15.4286 6.91045C15.4571 6.88066 15.4571 6.7913 15.4286 6.76151C15.4286 6.76151 15.4286 6.76151 15.4 6.76151C15.4571 6.73172 15.5143 6.70194 15.5714 6.67215C15.6286 6.67215 15.6857 6.61258 15.6571 6.52322L16.0857 6.13597L15.6857 6.49342C15.7714 6.52321 15.9428 6.55299 16.1143 6.49342C16.2286 6.46363 16.3143 6.40406 16.4 6.3147C16.4286 6.28491 16.4571 6.22533 16.4857 6.19555L17.0285 6.85087L17.4286 6.49342V6.2849L17.1714 5.95725L17.0571 6.04661V5.80832L17.0285 5.77854L17.1714 5.86789L17.2 5.89767L17.2857 5.95725V6.01683L17.5428 6.34448L17.9429 5.98703V5.77854L17.7428 5.48066ZM12.7428 4.6764L13.0857 4.97428L12.7428 4.6764ZM13.4857 5.06363C13.4571 5.12321 13.4571 5.21257 13.4286 5.27215L13.0857 4.97428C13.1143 4.94449 13.2857 4.70619 13.4 4.58705L13.4857 4.55725C13.4857 4.58703 13.5143 4.58704 13.5143 4.61683L13.4857 5.06363ZM14.1143 7.953L14.2286 7.86364C14.3429 7.83385 14.5428 7.68491 14.7428 7.50619C14.6286 7.80406 14.4286 8.25086 14.1143 8.51895C14.1143 8.48916 14.1143 8.45939 14.1143 8.45939C14.1143 8.37002 14.1143 8.28065 14.0857 8.22107L14.2286 8.10194L14.1143 7.953ZM14.8 9.44236C14.4286 9.41257 14.1143 9.32321 13.8857 9.23385C13.9714 9.20406 14.0286 9.14449 14.0286 9.05513C14.0286 8.99556 14 8.93598 13.9429 8.90619C13.9714 8.87641 13.9714 8.84661 14 8.81682C14.2571 8.63809 14.6 8.28066 14.8 7.80406V9.44236ZM16.0285 8.8764C15.9714 8.90618 15.9429 8.96576 15.9429 9.02533C15.9429 9.08491 15.9714 9.14448 16.0285 9.17427C15.8 9.29342 15.4857 9.38278 15.1428 9.41256V7.77426C15.3428 8.28065 15.7428 8.63809 15.9714 8.81682C16 8.84661 16.0285 8.8764 16.0285 8.8764ZM15.7714 7.83384L15.8857 7.9232L15.8 8.01258L15.9429 8.13172C15.9143 8.22108 15.9143 8.31044 15.9143 8.37001C15.9143 8.3998 15.9143 8.4296 15.9143 8.45939C15.5714 8.1913 15.3429 7.68491 15.2286 7.38703C15.4286 7.62533 15.6571 7.80406 15.7714 7.83384ZM15.4571 6.25512C15.4 6.22534 15.3428 6.22534 15.3143 6.3147C15.2857 6.37428 15.2 6.46363 15.0857 6.58278C15.0571 6.55299 15.0286 6.52322 15 6.52322C14.9714 6.52322 14.9143 6.55299 14.9143 6.58278C14.8 6.46363 14.7143 6.37428 14.6857 6.3147C14.6571 6.22534 14.6 6.22534 14.5428 6.25512L14.5143 6.22534C14.5714 6.13598 14.7428 5.74874 14.7714 5.5998C14.8571 5.5998 14.9428 5.5998 15.0286 5.5998C15.1143 5.5998 15.1714 5.5998 15.2571 5.5998C15.2857 5.74874 15.4286 6.13597 15.4571 6.25512ZM16.5428 5.30193C16.5143 5.24235 16.5143 5.15299 16.4857 5.09341L16.4571 4.61683C16.4571 4.58704 16.4571 4.58703 16.4857 4.55725L16.5714 4.58705C16.6857 4.70619 16.8285 4.94449 16.8857 4.97428L16.5428 5.30193ZM16.9143 4.97428L17.2571 4.6764L16.9143 4.97428Z" fill="#F54747"/>
</g>
</svg>
