<svg width="20" height="14" viewBox="0 0 20 14" fill="none" xmlns="http://www.w3.org/2000/svg">
<mask id="mask0" mask-type="alpha" maskUnits="userSpaceOnUse" x="0" y="0" width="20" height="14">
<rect width="20" height="14" rx="2" fill="#C4C4C4"/>
</mask>
<g mask="url(#mask0)">
<path d="M20 4.76611H0V9.2342H20V4.76611Z" fill="#4758A9"/>
<path d="M20 0H0V4.76596H20V0Z" fill="#F6D660"/>
<path d="M20 9.23389H0V13.9998H20V9.23389Z" fill="#F54747"/>
<path d="M10.2573 5.57011C10.1716 5.57011 10.0858 5.51053 10.0572 5.42117L9.94299 5.1233C9.91442 5.06372 9.88584 5.06372 9.85726 5.1233L9.77154 5.42117C9.74296 5.51053 9.65726 5.57011 9.60011 5.57011H9.3144C9.22869 5.57011 9.22869 5.62968 9.28584 5.65946L9.48582 5.83818C9.54296 5.89775 9.57155 5.98713 9.57155 6.07649L9.51442 6.34457C9.48585 6.43393 9.54297 6.43393 9.60011 6.40414L9.8287 6.22543C9.88584 6.16585 10.0001 6.16585 10.0572 6.22543L10.2858 6.37436C10.343 6.40415 10.4001 6.37436 10.3716 6.31479L10.2858 6.07649C10.2573 5.98713 10.2858 5.89775 10.343 5.83818L10.5715 5.62968C10.6287 5.57011 10.6287 5.54031 10.543 5.54031L10.2573 5.57011ZM8.57155 6.67224C8.48584 6.67224 8.40013 6.61266 8.37156 6.5233L8.25727 6.22543C8.2287 6.16585 8.20011 6.16585 8.17154 6.22543L8.08585 6.5233C8.05728 6.61266 7.97154 6.67224 7.91439 6.67224H7.62868C7.54296 6.67224 7.54297 6.73181 7.60011 6.7616L7.80013 6.94031C7.85728 6.99989 7.88583 7.08924 7.88583 7.17861L7.8287 7.4467C7.80013 7.53606 7.85725 7.53606 7.91439 7.50628L8.14298 7.32754C8.20012 7.26797 8.31442 7.26797 8.37156 7.32754L8.60011 7.47648C8.65726 7.50626 8.71441 7.47649 8.68584 7.41692L8.60011 7.17861C8.57154 7.08924 8.60013 6.99989 8.65728 6.94031L8.88583 6.7318C8.94297 6.67222 8.94298 6.64244 8.85726 6.64244L8.57155 6.67224ZM12.0858 7.4467L12.0001 7.2084C11.9715 7.11904 12.0001 7.02968 12.0573 6.97011L12.2858 6.7616C12.343 6.70202 12.343 6.67224 12.2573 6.67224H11.9716C11.8858 6.67224 11.8001 6.61266 11.7715 6.5233L11.6573 6.22543C11.6287 6.16585 11.6001 6.16585 11.5715 6.22543L11.4858 6.5233C11.4573 6.61266 11.3715 6.67224 11.3144 6.67224H11.0287C10.943 6.67224 10.943 6.73181 11.0001 6.7616L11.2001 6.94031C11.2573 6.99989 11.2858 7.08924 11.2858 7.17861L11.2287 7.4467C11.2001 7.53606 11.2573 7.53606 11.3144 7.50628L11.543 7.32754C11.6001 7.26797 11.7144 7.26797 11.7715 7.32754L12.0001 7.47648C12.0858 7.53605 12.1144 7.50627 12.0858 7.4467ZM13.4001 8.1318C13.4573 8.07223 13.4573 8.04244 13.3716 8.04244H13.0858C13.0001 8.04244 12.9144 7.98287 12.8858 7.89351L12.7715 7.59563C12.743 7.53606 12.7144 7.53606 12.6858 7.59563L12.6001 7.89351C12.5715 7.98287 12.4858 8.04244 12.4287 8.04244H12.143C12.0573 8.04244 12.0573 8.10201 12.1144 8.1318L12.3144 8.31053C12.3715 8.37011 12.4001 8.45947 12.4001 8.54883L12.343 8.8169C12.3144 8.90626 12.3715 8.90627 12.4287 8.87648L12.6573 8.69777C12.7144 8.63819 12.8287 8.63819 12.8858 8.69777L13.1144 8.8467C13.1716 8.87649 13.2287 8.8467 13.2001 8.78712L13.1144 8.54883C13.0858 8.45947 13.1144 8.37011 13.1715 8.31053L13.4001 8.1318ZM7.60011 8.04244C7.5144 8.04244 7.4287 7.98287 7.40013 7.89351L7.28584 7.59563C7.25726 7.53606 7.22868 7.53606 7.20011 7.59563L7.11441 7.89351C7.08584 7.98287 7.00013 8.04244 6.94299 8.04244H6.65728C6.57156 8.04244 6.57154 8.10201 6.62868 8.1318L6.8287 8.31053C6.88584 8.37011 6.91439 8.45947 6.91439 8.54883L6.85726 8.8169C6.82869 8.90626 6.88585 8.90627 6.94299 8.87648L7.17154 8.69777C7.22869 8.63819 7.34298 8.63819 7.40013 8.69777L7.62868 8.8467C7.68582 8.87649 7.74298 8.8467 7.71441 8.78712L7.62868 8.54883C7.60011 8.45947 7.6287 8.37011 7.68584 8.31053L7.91439 8.10202C7.97154 8.04245 7.97154 8.01266 7.88583 8.01266L7.60011 8.04244Z" fill="white"/>
</g>
</svg>
