<svg width="20" height="14" viewBox="0 0 20 14" fill="none" xmlns="http://www.w3.org/2000/svg">
<mask id="mask0" mask-type="alpha" maskUnits="userSpaceOnUse" x="0" y="0" width="20" height="14">
<rect width="20" height="14" rx="2" fill="#C4C4C4"/>
</mask>
<g mask="url(#mask0)">
<path d="M20 2.38281H0V4.17005H20V2.38281Z" fill="#F6BB42"/>
<path d="M20 9.82959H0V11.6168H20V9.82959Z" fill="#F6BB42"/>
<path d="M20 4.17041H0V5.95764H20V4.17041Z" fill="#F54747"/>
<path d="M20 8.04248H0V9.82971H20V8.04248Z" fill="#F54747"/>
<path d="M20 5.95752H0V8.04263H20V5.95752Z" fill="#434A54"/>
<path d="M20 0H0V2.38298H20V0Z" fill="#52C162"/>
<path d="M20 11.6172H0V14.0002H20V11.6172Z" fill="#52C162"/>
<path d="M0 0V14L8.28571 7L0 0Z" fill="#434A54"/>
<path d="M3.99997 8.48947L3.51427 5.51074H2.0857C1.97141 5.51074 1.79997 5.6001 1.71426 5.71925L1.11426 6.67244H2.0571L1.77139 8.48947H3.99997Z" fill="#F6D660"/>
</g>
</svg>
