<svg width="1900" height="1182" viewBox="0 0 1900 1182" fill="none" xmlns="http://www.w3.org/2000/svg">
<g opacity="0.8" clip-path="url(#clip0)">
<g opacity="0.8">
<mask id="mask0" mask-type="alpha" maskUnits="userSpaceOnUse" x="0" y="0" width="1915" height="633">
<rect y="0.146484" width="1914.65" height="632.521" fill="#C4C4C4"/>
</mask>
<g mask="url(#mask0)">
<g opacity="0.5" filter="url(#filter0_f)">
<path d="M1633 366.641C1633 402.514 1120.58 683.644 918.337 679.732C716.099 675.821 231.429 411.055 231.429 366.641C231.429 296.604 715.497 26.498 906.689 26.498C1045.64 26.498 1633 310.27 1633 366.641Z" fill="#F7AAA4"/>
</g>
</g>
</g>
<rect opacity="0.5" width="1956.9" height="283.853" transform="matrix(1 0 0 -1 -27.4785 1184.44)" fill="url(#paint0_linear)"/>
<path opacity="0.4" d="M1088.45 792.048C863.99 752.551 1601.5 685.236 1901.38 677.934C1939.36 810.352 2010.18 1183.11 1901.38 1144.97C1538.46 1017.73 985.177 968.582 694.54 934.504C850.989 952.124 1101.66 927.682 1266.41 919.503C1472.33 909.279 1390.48 845.195 1088.45 792.048Z" fill="url(#paint1_linear)"/>
<path opacity="0.2" d="M906.392 636.836H1710.85L1736.86 673.446L391.926 708.129L906.392 636.836Z" fill="url(#paint2_linear)"/>
<path opacity="0.1" d="M906.392 636.836H1710.85L1736.86 810.852L61.873 840.881L906.392 636.836Z" fill="url(#paint3_linear)"/>
<path opacity="0.5" d="M1553.83 823C1318.01 801.541 1839.68 753.258 1895.07 749.234C1974.87 819.424 2107.61 933.646 1850.35 912.187C1665.47 896.766 1457.31 877.316 1643.11 861.222C1828.91 845.127 1789.66 844.459 1553.83 823Z" fill="url(#paint4_linear)"/>
<ellipse cx="1212" cy="862.586" rx="44" ry="14" fill="url(#paint5_linear)"/>
<ellipse opacity="0.5" cx="1442.79" cy="1066.57" rx="18.7949" ry="5.9802" fill="url(#paint6_linear)"/>
<g opacity="0.44">
<path opacity="0.8" d="M996.829 632.146H945.001L3.99927 1184.44H365.175L996.829 632.146Z" fill="url(#paint7_linear)"/>
<path d="M908.111 692.615H865.082L38.4854 1181.11H338.341L908.111 692.615Z" fill="url(#paint8_linear)"/>
</g>
<g opacity="0.8">
<path opacity="0.08" fill-rule="evenodd" clip-rule="evenodd" d="M-80.9336 239.065C-37.9904 198.611 80.757 123.304 212.201 145.71C278.219 156.963 339.715 181.177 402.139 205.757C415.972 211.204 429.851 216.669 443.835 222.014C395.809 237.257 358.411 262.505 323.318 286.197C281.803 314.225 243.513 340.075 194.668 344.607C99.5959 353.428 -7.48249 315.611 -49.1377 295.6V588.213H-62.2628L-80.9336 239.065ZM1946.64 588.213H2075.57C2078.68 532.2 2083.04 365.281 2075.57 145.71C1955.1 222.31 1852.29 254.758 1754.45 262.911C1837.69 316.073 1907.61 380.127 1946.64 423.017V588.213ZM1334.05 208.043C1304.67 202.424 1274.35 197.076 1242.84 192.387C1052.19 164.016 965.689 199.104 883.984 232.248C845.475 247.869 808.031 263.058 761.248 270.968C771.771 277.536 782.245 284.418 793.05 291.516C834.682 318.869 881.212 349.439 954.264 377.686C1050.69 414.969 1126.87 356.467 1210.96 291.898C1249.44 262.351 1289.57 231.534 1334.05 208.043Z" fill="#FFB79E"/>
<path opacity="0.1" d="M194.668 344.606C99.5959 353.427 -7.48249 315.611 -49.1377 295.6V623.941H151.788H1946.64V423.016C1868.23 336.847 1665.1 165.243 1479.86 168.184C1248.3 171.859 1138.04 448.744 954.264 377.685C770.491 306.626 754.564 220.865 562.215 208.614C369.865 196.362 313.508 333.58 194.668 344.606Z" fill="#FFF4F0"/>
<path d="M531.78 440.523C425.708 428.336 320.188 372.372 280.687 345.913L386.76 632.148H1991.93C2032.81 577.36 2098.83 457.039 2035.85 414.064C1957.12 360.345 1872.6 378.786 1710.17 427.694C1547.75 476.603 1261.03 459.765 1078.71 358.741C896.403 257.717 828.451 300.212 758.012 365.156C687.573 430.1 664.37 455.757 531.78 440.523Z" fill="url(#paint9_linear)"/>
<path d="M1209.65 538.934C1116.17 545.564 1052.47 518.493 1032.31 504.129L1068.77 630.09H1766.53C1843.04 613.24 1972.04 573.408 1875.91 548.879C1755.75 518.217 1686.97 398.057 1534.49 401.372C1382.01 404.687 1326.49 530.647 1209.65 538.934Z" fill="url(#paint10_linear)"/>
<path d="M291.476 341.116C161.701 274.606 -34.5815 453.046 -47.5588 466.023L-52.6074 632.667H1915.38V545.51C1862.92 596.857 1720.42 615.57 1655.73 618.508C1520.55 626.619 1221.96 623.375 1109.05 545.51C967.924 448.179 1013.35 466.023 797.596 521.178C581.846 576.332 421.25 407.625 291.476 341.116Z" fill="url(#paint11_linear)"/>
</g>
</g>
<defs>
<filter id="filter0_f" x="31.4287" y="-173.502" width="1801.57" height="1053.27" filterUnits="userSpaceOnUse" color-interpolation-filters="sRGB">
<feFlood flood-opacity="0" result="BackgroundImageFix"/>
<feBlend mode="normal" in="SourceGraphic" in2="BackgroundImageFix" result="shape"/>
<feGaussianBlur stdDeviation="100" result="effect1_foregroundBlur"/>
</filter>
<linearGradient id="paint0_linear" x1="978.448" y1="4.08605e-06" x2="988.416" y2="170.259" gradientUnits="userSpaceOnUse">
<stop stop-color="#6E38A3"/>
<stop offset="1" stop-color="#6E38A3" stop-opacity="0"/>
</linearGradient>
<linearGradient id="paint1_linear" x1="1151.25" y1="992.135" x2="1498.84" y2="589.039" gradientUnits="userSpaceOnUse">
<stop stop-color="#803D9B"/>
<stop offset="1" stop-color="#914BAD" stop-opacity="0"/>
</linearGradient>
<linearGradient id="paint2_linear" x1="666.5" y1="534.714" x2="1266.71" y2="1141.67" gradientUnits="userSpaceOnUse">
<stop stop-color="#D388CB"/>
<stop offset="1" stop-color="#D388CB" stop-opacity="0"/>
</linearGradient>
<linearGradient id="paint3_linear" x1="666.499" y1="534.715" x2="1266.71" y2="1141.67" gradientUnits="userSpaceOnUse">
<stop stop-color="#D388CB"/>
<stop offset="1" stop-color="#D388CB" stop-opacity="0"/>
</linearGradient>
<linearGradient id="paint4_linear" x1="1714.93" y1="887.55" x2="1875.89" y2="697.783" gradientUnits="userSpaceOnUse">
<stop stop-color="#914BAD"/>
<stop offset="1" stop-color="#914BAD" stop-opacity="0"/>
</linearGradient>
<linearGradient id="paint5_linear" x1="1109.68" y1="876.586" x2="1390.55" y2="828.854" gradientUnits="userSpaceOnUse">
<stop stop-color="#914BAD"/>
<stop offset="1" stop-color="#914BAD" stop-opacity="0"/>
</linearGradient>
<linearGradient id="paint6_linear" x1="1399.09" y1="1072.55" x2="1519.06" y2="1052.16" gradientUnits="userSpaceOnUse">
<stop stop-color="#7F3C9B"/>
<stop offset="1" stop-color="#8535A6" stop-opacity="0"/>
</linearGradient>
<linearGradient id="paint7_linear" x1="-94.7977" y1="1314.01" x2="661.567" y2="415.117" gradientUnits="userSpaceOnUse">
<stop stop-color="#45284C"/>
<stop offset="1" stop-color="#7A4388" stop-opacity="0"/>
</linearGradient>
<linearGradient id="paint8_linear" x1="1.82057" y1="1258.71" x2="629.769" y2="512.433" gradientUnits="userSpaceOnUse">
<stop stop-color="#45284C"/>
<stop offset="1" stop-color="#7A4388" stop-opacity="0"/>
</linearGradient>
<linearGradient id="paint9_linear" x1="1171.28" y1="298.404" x2="1171.28" y2="785.245" gradientUnits="userSpaceOnUse">
<stop stop-color="#DA91B4"/>
<stop offset="1" stop-color="#A154AE"/>
</linearGradient>
<linearGradient id="paint10_linear" x1="1471.22" y1="401.305" x2="1471.22" y2="735.04" gradientUnits="userSpaceOnUse">
<stop stop-color="#C679A3"/>
<stop offset="1" stop-color="#A154AE"/>
</linearGradient>
<linearGradient id="paint11_linear" x1="931.386" y1="326.314" x2="931.386" y2="632.667" gradientUnits="userSpaceOnUse">
<stop stop-color="#C679B7"/>
<stop offset="1" stop-color="#A154AE"/>
</linearGradient>
<clipPath id="clip0">
<rect width="1900" height="1181" fill="white" transform="translate(0 0.585938)"/>
</clipPath>
</defs>
</svg>
