<svg width="166" height="332" viewBox="0 0 166 332" fill="none" xmlns="http://www.w3.org/2000/svg">
<path d="M55.8197 213.876L49.3546 198.616C49.3546 198.616 53.4186 191.469 52.8609 181.002C52.3033 170.535 50.1178 169.185 50.1178 169.185C50.1178 169.185 47.0653 168.451 46.6396 170.449C46.214 172.448 48.1012 179.805 44.8516 183.451C44.8516 183.451 40.2048 176.61 37.734 170.979C35.2633 165.347 28.8461 152.903 27.088 152.726C25.4042 152.614 25.3679 154.167 25.4989 156.132C25.6298 158.098 34.9773 176.78 33.9155 177.618C32.8538 178.456 20.4971 153.399 18.5303 153.234C16.5588 152.999 14.6668 153.957 16.0741 157.256C17.4813 160.555 27.9098 179.737 26.9083 180.431C25.9068 181.124 15.0567 162.954 12.3193 161.707C9.64685 160.386 10.0426 163.182 11.5563 165.981C13.07 168.78 22.9302 183.627 22.0632 184.242C21.1961 184.857 10.5027 173.231 8.83289 173.331C7.16309 173.43 7.46125 175.808 9.15559 178.174C10.8546 180.61 25.2459 202.657 29.4122 204.382C33.5785 206.108 41.0878 222.362 41.0878 222.362L55.8197 213.876Z" fill="#FABAA4"/>
<path d="M102.396 198.585L111.936 250.362C111.936 250.362 95.398 279.35 81.7152 279.81C68.0323 280.269 32.883 212.731 32.883 212.731C32.883 212.731 50.9558 202.558 53.4301 198.742C53.4301 198.742 77.5774 241.892 79.0872 241.449C80.6666 241.003 91.7256 201.194 102.396 198.585Z" fill="#14B3E4"/>
<path d="M173.48 228.558C173.073 273.565 193.097 309.574 193.097 309.574C161.88 338.321 127.914 317.65 127.914 317.65C127.914 317.65 125.044 313.364 113.726 279.615C101.09 241.916 97.4051 203.003 97.4051 203.003L100.858 197.298L164.323 187.907L166.268 191.893L165.056 193.445C165.65 192.987 165.981 192.757 165.981 192.757" fill="#00A5D7"/>
<path fill-rule="evenodd" clip-rule="evenodd" d="M164.715 399.291C164.312 398.532 163.984 397.84 163.65 397.078C162.501 394.656 161.421 392.23 160.271 389.808C158.295 385.586 156.25 381.367 154.339 377.07C152.597 373.19 150.918 369.235 149.31 365.276C147.288 360.417 145.34 355.625 143.457 350.759C142.102 347.425 140.95 344.01 139.659 340.602C138.702 337.957 137.607 335.319 136.719 332.67C135.831 330.021 135.007 327.297 134.114 324.577C133.417 322.628 132.649 320.682 131.792 318.457C132.783 318.687 133.56 318.858 134.279 319.174C137.855 320.541 141.519 321.194 145.301 321.556C150.345 322.063 155.413 321.929 160.354 321.022C165.365 320.111 170.455 319.337 175.266 317.585C178.786 316.258 182.242 315.005 185.593 313.262C186.596 312.71 187.446 311.954 188.567 311.113C188.99 312.154 189.339 313.129 189.757 314.1C193.968 323.241 197.976 332.464 202.453 341.448C207 350.429 212.016 359.171 216.83 367.995C221.315 376.127 225.731 384.263 230.216 392.395C232.055 395.702 235.889 404.438 235.889 404.438C235.889 404.438 230.844 400.098 226.013 399.651C221.869 399.095 218.041 400.013 214.593 402.33C213.333 403.179 212.317 404.512 211.093 405.856C210.408 405.042 205.236 397.018 203.342 393.927C202.164 392.074 200.858 390.371 199.681 388.518C197.872 385.635 196.266 382.67 194.457 379.787C192.165 376.008 189.81 372.303 187.524 368.594C186.58 367.084 185.764 365.424 184.889 363.91C183.616 361.708 182.279 359.58 181.007 357.378C179.167 354.071 177.461 350.685 175.616 347.308C173.373 343.242 170.923 339.187 168.611 335.124C168.134 334.299 167.854 333.32 167.377 332.494C167.143 332.152 166.515 332.115 166.084 331.926C165.981 332.428 165.681 333.083 165.904 333.284C167.492 335.043 167.087 337.124 167.374 339.167C168.388 346.423 169.338 353.753 170.698 360.991C171.38 364.645 172.681 368.194 173.913 371.747C176.561 379.482 179.342 387.139 182.054 394.8C182.324 395.637 183.519 398.695 183.858 399.529C183.858 399.529 180.664 400.554 174.498 400.889C168.738 401.06 164.715 399.291 164.715 399.291Z" fill="#738396"/>
<path d="M143.799 35.7239C99.1066 33.5257 89.4118 72.844 89.4118 72.844L88.6195 113.282L92.3014 115.262C91.3079 114.966 90.2403 114.602 89.2468 114.306C88.6784 114.126 88.1694 113.802 87.601 113.622C84.4674 112.529 83.038 113.951 83.4812 117.316C86.0327 134.967 96.4633 135.082 97.5652 135.937C97.4366 136.086 97.3772 136.23 97.2486 136.379C94.6731 136.313 92.909 134.93 91.1945 133.262C92.07 141.827 95.9855 179.032 100.978 197.816C101.196 197.945 101.483 198.07 101.834 198.121C102.397 198.23 102.881 198.203 103.44 198.241C106.104 198.585 108.779 199.069 111.428 199.201C114.987 199.423 118.606 199.5 122.215 199.437C125.754 199.378 129.224 199.322 132.744 198.981C136.126 198.649 139.493 198.105 142.845 197.35C146.671 196.427 150.394 195.015 154.211 193.951C157.549 192.985 160.891 192.09 163.957 190.221C165.223 189.443 165.362 188.447 165.422 187.314C165.617 183.136 165.742 178.963 166.002 174.711C166.276 169.681 167.678 164.871 167.67 159.787C167.658 155.621 168.55 151.475 169.091 147.278C169.319 145.57 169.755 143.85 169.978 142.072C170.38 138.872 170.644 135.679 171.051 132.549C171.364 130.059 171.958 127.625 172.276 125.206C172.792 121.646 173.174 118.164 173.621 114.608C173.835 112.689 173.979 110.774 174.188 108.785L177.739 104.911L182.574 85.5708C182.574 85.5708 181.655 85.3405 180.162 84.8601C181.836 77.986 183.377 71.19 183.547 68.6382C183.841 62.9015 188.487 37.8517 143.799 35.7239Z" fill="#FABAA4"/>
<path d="M83.8564 119.678C83.8564 119.678 88.2625 135.747 109.633 134.608C109.628 134.537 90.0319 146.076 83.8564 119.678Z" fill="#F69676"/>
<path fill-rule="evenodd" clip-rule="evenodd" d="M199.408 70.2884C201.834 63.3092 205.704 52.1859 205.681 50.9034C205.611 48.9814 190.46 21.9191 187.767 21.3526C185.069 20.715 172.741 22.0283 172.741 22.0283C168.287 16.4224 166.82 13.5067 166.82 13.5067C136.119 7.83249 120.151 10.9133 113.948 12.9628C113.333 13.139 112.648 13.319 112.038 13.5662C111.561 13.7348 111.16 13.9706 110.763 14.2775C110.436 14.5806 110.258 15.0182 109.862 15.3251C90.6281 33.0624 77.9786 30.8984 76.4362 33.6927C91.1578 50.0086 89.6944 74.1243 89.6944 74.1243C89.6944 74.1243 93.5236 58.5812 105.468 49.0865C125 33.544 150.59 37.0715 156.486 39.4607C174.334 46.9048 179.614 55.2474 179.614 55.2474C179.614 55.2474 176.664 60.7574 174.614 69.0712C172.628 77.3102 175.815 86.6227 175.815 86.6227L184.922 88.0524C188.826 82.2052 196.043 78.7453 196.043 78.7453L197.446 75.9585C197.446 75.9585 197.732 75.0871 198.26 73.7032C198.664 72.54 199.004 71.4516 199.408 70.2884Z" fill="#FED065"/>
<path fill-rule="evenodd" clip-rule="evenodd" d="M184.884 87.9531L175.764 86.5185C175.764 86.5185 172.578 77.2434 174.561 68.9028C176.55 60.6335 179.57 55.0281 179.57 55.0281C179.57 55.0281 174.277 46.5839 156.409 39.1846C150.499 36.7157 124.947 33.2438 105.315 48.8479C93.3528 58.3779 89.5171 73.9782 89.5171 73.9782C89.5171 73.9782 90.9891 49.8453 76.2416 33.399L104.932 36.771C104.932 36.771 117.395 28.3591 135.13 28.1061C152.865 27.8531 178.413 45.7853 179.501 55.0319C179.704 56.882 184.046 64.7339 192.116 62.2886C199.303 60.178 205.08 47.2635 205.675 50.667C206.033 52.7234 197.561 75.7354 196.016 78.54C191.317 87.029 184.884 87.9531 184.884 87.9531Z" fill="#F5BA66"/>
<path fill-rule="evenodd" clip-rule="evenodd" d="M147.315 134.895C146.686 136.778 146.131 138.727 145.358 140.547C142.407 146.891 133.79 167.264 121.994 175.511C118.746 176.824 115.009 176.174 110.972 171.417C108 167.882 102.365 156.459 101.962 155.699C119.204 153.412 134.315 146.691 147.315 134.895Z" fill="#85322C"/>
<path fill-rule="evenodd" clip-rule="evenodd" d="M121.978 175.358C129.918 169.89 136.346 158.902 140.659 150.369C140.659 150.369 128.633 153.15 124.124 158.999C115.946 169.798 121.978 175.358 121.978 175.358Z" fill="#E78482"/>
<path d="M139.536 80.9461C131.276 81.0406 124.863 88.4098 125.168 97.3994C125.473 106.389 132.388 113.601 140.58 113.51C148.84 113.416 155.253 106.046 154.948 97.0567C154.643 88.0671 147.728 80.8553 139.536 80.9461Z" fill="white"/>
<path d="M134.131 103.823C135.42 107.229 139.025 109.019 142.201 107.782C145.383 106.616 146.847 102.848 145.557 99.4428C144.268 96.0373 140.663 94.2472 137.486 95.4838C134.379 96.7167 132.846 100.489 134.131 103.823Z" fill="#00A6D2"/>
<path d="M146.449 97.2625C147.052 98.8618 146.275 100.607 144.718 101.188C143.161 101.77 141.432 100.941 140.83 99.342C140.227 97.7427 141.004 95.9975 142.561 95.4161C144.123 94.9054 145.847 95.6633 146.449 97.2625Z" fill="white"/>
<path d="M128.417 74.3294C128.417 74.3294 133.545 64.0216 141.702 65.653C149.859 67.2843 157.059 77.9212 157.059 77.9212C157.059 77.9212 136.918 66.2009 128.417 74.3294Z" fill="#FBD065"/>
<path fill-rule="evenodd" clip-rule="evenodd" d="M102.755 88.379C106.477 92.9175 109.312 105.289 103.806 108.632C93.2524 114.939 84.2102 93.3526 93.142 86.6384C96.103 84.4956 99.414 84.3151 102.755 88.379Z" fill="white"/>
<path d="M97.2156 101.723C97.9684 104.446 100.383 106.157 102.634 105.609C104.886 105.061 106.148 102.371 105.395 99.6477C104.643 96.9248 102.228 95.2137 99.9766 95.7614C97.7946 96.3054 96.5319 98.9962 97.2156 101.723Z" fill="#00A6D2"/>
<path d="M105.679 98.0691C106.053 99.3958 105.379 100.638 104.288 100.91C103.127 101.186 101.958 100.399 101.584 99.0718C101.21 97.7451 101.884 96.5031 102.976 96.231C104.142 96.0258 105.31 96.813 105.679 98.0691Z" fill="white"/>
<path d="M109.66 75.9428C109.66 75.9428 103.649 66.2586 96.4907 68.7236C89.3319 71.1885 84.2783 82.4782 84.2783 82.4782C84.2783 82.4782 100.901 68.8403 109.66 75.9428Z" fill="#FED065"/>
<path d="M149.273 221.506C148.146 206.796 159.062 188.566 166.284 187.989C166.284 187.989 196.647 285.157 200.951 299.306C200.951 299.306 187.002 307.988 182.201 307.855C182.201 307.855 169.659 277.349 162.047 257.762C156.582 243.699 149.961 230.486 149.273 221.506Z" fill="#14B3E4"/>
</svg>
