<svg width="168" height="336" viewBox="0 0 168 336" fill="none" xmlns="http://www.w3.org/2000/svg">
<path d="M118.268 183.451C118.268 183.451 120.983 167.637 120.498 164.889C120.014 162.142 118.572 161.13 118.572 161.13L113.978 177.593L109.611 194.942L118.268 183.451Z" fill="#F8C7AC"/>
<path d="M132.148 158.94L125.188 174.481L137.393 160.238L139.728 162.06L127.784 179.808L142.228 165.541L143.953 168.149L129.947 184.975L145.459 174.086L146.64 176.546L136.55 186.882L131.12 192.44L123.572 197.536L111.725 192.519L120.17 173.159L130.039 157.095L132.148 158.94Z" fill="#F8C7AC"/>
<path d="M62.1679 208.181C73.6871 225.134 80.4232 234.766 80.1048 232.789C80.1048 232.789 105.482 196.784 108.322 191.46C110.413 184.902 129.617 199.491 126.354 199.666C128.225 195.524 84.3294 270.872 80.191 269.714C76.0526 268.556 46.1711 236.634 46.1711 236.634L24.0087 212.053L49.2607 189.811C54.6016 193.804 47.1122 185.99 62.1679 208.181Z" fill="#D14024"/>
<path d="M-34.5801 87.6806C-34.5801 87.6806 -18.6086 169.546 -66.8352 180.038C-77.0579 182.217 -85.2659 176.31 -85.2659 176.31C-85.2659 176.31 -71.2215 206.222 -20.8379 215.807C28.9629 225.273 26.1516 211.055 26.1516 211.055L22.7715 197.026L6.50145 138.379L-34.5801 87.6806Z" fill="#231F20"/>
<path d="M35.5708 289.7C35.6428 290.093 44.7885 313.858 19.9247 345.682C-5.05605 377.709 -4.83539 390.114 0.515012 403.026C0.515012 403.026 -9.61116 407.726 -16.8027 403.542C-16.8027 403.542 -23.7637 413.963 -39.8246 399.643C-39.8246 399.643 -33.6044 394.759 -33.5584 387.034C-33.5171 374.834 -33.684 371.16 -32.2875 365.756C-30.3613 358.107 -24.0911 350.352 -23.7177 346.257C-22.9874 338.897 -30.0272 325.341 -33.5865 306.573C-35.676 295.535 -30.7677 284.016 -24.2529 277.675C9.84503 295.794 32.2165 290.538 35.5708 289.7Z" fill="#7F2B8D"/>
<path d="M-18.4125 399.88C-18.4125 399.88 -19.2587 393.566 -15.6404 378.678C-10.3456 357 -0.153362 362.094 4.7625 340.416C9.67835 318.737 8.24357 314.959 8.24357 314.959C8.24357 314.959 11.4135 325.154 5.70125 344.397C1.2374 359.343 -7.01755 361.54 -11.4281 372.098C-11.8235 372.928 -18.2829 387.243 -18.4125 399.88Z" fill="#221F1F"/>
<path d="M51.8271 187.964C49.8511 191.735 38.3254 189.859 30.8506 188.574C4.78376 183.984 -1.33702 176.755 -1.33702 176.755C-1.33702 176.755 -1.79595 166.653 -1.08663 148.901C-0.885126 143.406 -3.23759 112.674 -3.10165 110.502L-6.12354 105.948L-8.30765 84.8806C-8.30765 84.8806 -7.37452 84.766 -5.79966 84.478C-6.48293 76.9843 -7.12283 69.651 -6.88376 66.9695C-6.46205 60.761 -15.897 22.6818 25.5484 26.9704C70.2728 31.5431 86.2049 84.7374 86.2049 84.7374C86.2049 84.7374 88.8043 95.8793 80.3448 124.955C74.0587 146.66 63.7701 165.659 51.8271 187.964Z" fill="#F8C7AC"/>
<path d="M12.8837 99.329C11.3618 108.727 17.2608 117.428 26.0034 118.817C34.7461 120.206 43.0978 113.782 44.5468 104.369C46.0687 94.9704 40.1698 86.2701 31.4271 84.8808C22.6844 83.4915 14.4056 89.9307 12.8837 99.329Z" fill="white"/>
<path fill-rule="evenodd" clip-rule="evenodd" d="M69.1944 97.9801C64.6375 102.139 59.8872 114.752 65.3877 119.049C75.8352 127.38 88.3298 106.097 79.661 97.5948C76.8829 94.8339 73.3715 94.1994 69.1944 97.9801Z" fill="white"/>
<path d="M30.363 91.6416C40.052 93.6014 44.5178 97.7654 44.5178 97.7654C43.1182 91.1885 38.1884 85.9448 31.5002 84.8953C25.4824 83.9055 19.6895 86.6769 16.1223 91.5667C16.0199 91.6977 15.9176 91.8287 15.8153 91.9596C15.8153 91.9596 20.3827 89.6228 30.363 91.6416Z" fill="#F3A478"/>
<path d="M15.8018 91.8054C17.0084 91.4724 18.2464 91.3643 19.4845 91.2563C20.7086 91.2183 21.9919 91.2653 23.2022 91.2972C25.6819 91.4461 28.1061 91.875 30.5895 92.3889C32.9999 92.8876 35.4417 93.6114 37.7827 94.4601C40.1098 95.3787 42.4231 96.3673 44.5209 97.6755C42.7532 95.8528 40.5093 94.5144 38.2238 93.3859C35.8513 92.3122 33.4234 91.5184 30.867 90.9894C28.3836 90.4755 25.7855 90.1564 23.1912 90.2023C21.894 90.2253 20.6559 90.3333 19.3902 90.5812C18.1244 90.8292 16.9178 91.1623 15.8018 91.8054Z" fill="#231F20"/>
<path fill-rule="evenodd" clip-rule="evenodd" d="M67.5291 99.8416C68.0555 99.1139 68.6399 98.4738 69.2096 97.9066C73.3138 94.1112 76.8834 94.8332 79.6762 97.5214C80.9416 98.7631 81.7691 100.295 82.2463 102.06C82.2463 102.06 79.5672 100.684 76.9889 99.9351C74.3958 99.259 67.5291 99.8416 67.5291 99.8416Z" fill="#F3A478"/>
<path d="M82.2549 102.156C81.2713 101.365 80.1138 100.684 78.9283 100.145C78.372 99.8827 77.7427 99.6055 77.0995 99.399C76.3832 99.1773 75.712 99.112 75.1138 99.0617C73.8444 98.9462 72.547 98.9718 71.2216 99.1388C69.9833 99.2502 68.717 99.5028 67.4227 99.8966C70.0066 100.284 72.5004 100.359 74.9662 100.575C75.5644 100.625 76.1626 100.675 76.6738 100.781C77.258 100.902 77.8282 101.093 78.4855 101.229C79.7999 101.501 80.9544 101.814 82.2549 102.156Z" fill="#231F20"/>
<path d="M64.9021 134.571C64.9021 134.571 61.1219 143.513 48.6647 140.993C48.6647 140.993 59.2579 149.354 64.9021 134.571Z" fill="#F3A478"/>
<path d="M72.1076 105.697C69.7339 104.686 66.932 106.166 65.7745 108.889C64.6171 111.613 65.6017 114.618 67.9754 115.628C70.3491 116.639 73.151 115.159 74.3085 112.436C75.4659 109.712 74.4813 106.707 72.1076 105.697Z" fill="#231F20"/>
<path d="M66.9685 110.507C65.7984 110.007 65.2943 108.562 65.8427 107.278C66.3911 105.995 67.7842 105.36 68.9543 105.86C70.1244 106.36 70.6285 107.806 70.0801 109.089C69.5317 110.372 68.1386 111.007 66.9685 110.507Z" fill="white"/>
<path d="M29.9392 98.9869C26.7364 97.2016 22.6813 98.5045 20.779 101.911C18.9642 105.26 20.092 109.431 23.3096 111.144C26.5125 112.929 30.5675 111.626 32.4699 108.219C34.2846 104.871 33.1568 100.699 29.9392 98.9869Z" fill="#231F20"/>
<path d="M21.8876 103.957C20.2267 103.247 19.4556 101.325 20.1653 99.6646C20.8749 98.0038 22.7966 97.2327 24.4574 97.9424C26.1182 98.652 26.8893 100.574 26.1797 102.234C25.47 103.895 23.5484 104.666 21.8876 103.957Z" fill="white"/>
<path d="M55.7502 160.322C56.0155 159.01 57.5405 154.845 53.159 152.139C48.7775 149.432 35.0742 156.822 27.0168 148.671C24.6898 146.304 30.2104 161.374 40.4894 166.789C45.0903 169.161 51.0066 169.902 54.2399 164.414C54.5911 163.803 55.485 161.633 55.7502 160.322Z" fill="#E55135"/>
<path d="M56.7742 38.671C60.4852 48.0662 56.52 54.923 70.4635 64.3405C84.4069 73.7581 86.6533 93.0182 86.6533 93.0182C86.6533 93.0182 94.3268 70.0774 88.9739 58.3027C83.621 46.528 68.9524 35.4472 52.6884 27.3801C33.2649 17.6882 16.7011 20.1008 16.7011 20.1008C16.7011 20.1008 53.0632 29.2758 56.7742 38.671Z" fill="#231F20"/>
<path d="M51.8149 160.283C51.8149 160.283 51.8641 157.791 50.2181 157.306C46.416 156.234 43.5093 158.982 39.853 157.939C39.3578 157.763 41.8886 160.247 48.0808 161.5C51.2861 162.148 51.8149 160.283 51.8149 160.283Z" fill="#753528"/>
<path d="M26.8105 90.6961C26.0907 90.4702 25.3848 90.1726 24.6789 89.8749C23.973 89.5773 23.281 89.208 22.6765 88.7823C22.0719 88.3567 21.408 87.8439 20.9922 87.2339C20.5029 86.6086 20.1745 85.9423 20.0941 85.1789C20.1745 85.9423 20.4156 86.6649 20.8908 87.362C21.2927 88.0436 21.8832 88.541 22.5472 89.0538C23.1377 89.5511 23.8157 89.9922 24.5076 90.3615C25.1995 90.7309 25.8914 91.1002 26.6707 91.4133L26.8105 90.6961Z" fill="#231F20"/>
<path d="M20.6843 90.5235C19.6581 90.3083 18.5865 89.9346 17.5428 89.418C17.0577 89.1674 16.5865 88.8452 16.1886 88.5384C15.8046 88.1601 15.4347 87.7103 15.3125 87.1636C15.3614 87.695 15.6301 88.2724 16.014 88.6507C16.384 89.1005 16.8552 89.4227 17.3264 89.7448C18.2688 90.3891 19.3264 90.8342 20.4713 91.2232L20.6843 90.5235Z" fill="#231F20"/>
<path d="M77.0609 100.666C77.5302 100.615 78.0136 100.492 78.4969 100.369C78.9803 100.246 79.3901 100.108 79.8139 99.8975C80.2377 99.6872 80.6615 99.4768 80.9662 99.0916C81.3304 98.7939 81.5616 98.3932 81.7332 97.9052C81.3444 98.7219 80.5564 99.23 79.6632 99.4914C79.2534 99.6298 78.7701 99.7528 78.3008 99.8038C77.8314 99.8548 77.3621 99.9058 76.9803 99.9004L77.0609 100.666Z" fill="#231F20"/>
<path d="M80.5277 101.529C81.2309 101.453 81.8746 101.289 82.5322 101.053C82.8541 100.972 83.1899 100.818 83.4663 100.577C83.8021 100.423 84.0785 100.182 84.1484 99.8229C84.019 100.095 83.7426 100.336 83.4208 100.418C83.085 100.571 82.8366 100.669 82.5287 100.679C81.899 100.771 81.2099 100.775 80.6082 100.724L80.5277 101.529Z" fill="#231F20"/>
<path d="M67.9827 92.3506L67.8192 87.1611C67.8192 87.1611 72.4128 86.1946 75.7916 87.4847C80.2919 89.2291 84.5366 94.4858 84.5366 94.4858C84.5366 94.4858 73.007 87.7555 67.9827 92.3506Z" fill="#231F20"/>
<path d="M46.2887 87.8869L49.0694 82.7621C49.0694 82.7621 43.7277 79.1792 37.1132 77.7655C28.9689 76.0422 21.4841 79.3055 21.4841 79.3055C21.4841 79.3055 40.6058 80.3677 46.2887 87.8869Z" fill="#231F20"/>
<path d="M-29.4321 282.52C-21.7081 269.826 -13.6003 244.019 -13.6003 244.019C-11.7375 252.055 -11.1699 255.385 -11.2375 260.06C-11.4831 277.021 -17.521 280.129 -27.3341 288.743C10.5829 313.475 45.6135 301.844 45.251 301.012C31.5299 269.877 43.9019 252.637 44.2227 252.55C64.836 244.739 58.8586 231.928 58.8586 231.928C50.5511 202.463 52.2003 195.462 51.8804 188.335C51.9393 188.275 51.9374 188.205 51.8704 188.125C51.8739 188.195 51.8772 188.265 51.8804 188.335C50.3798 189.879 9.4164 185.291 -0.571746 173.347C-11.442 178.352 -17.8577 174.558 -29.9707 187.956C-39.4684 198.547 -46.3195 277.221 -46.3195 277.221C-48.5024 294.968 -31.0532 285.184 -29.4321 282.52Z" fill="#E55135"/>
<path opacity="0.3" d="M23.8937 137.119C18.7841 136.086 15.1961 132.508 15.8797 129.128C16.5633 125.749 21.2597 123.847 26.3693 124.88C31.4789 125.914 35.0669 129.492 34.3833 132.871C33.6997 136.251 29.0034 138.153 23.8937 137.119Z" fill="#E55135"/>
<path opacity="0.5" d="M46.9909 166.511C45.5425 166.218 44.5267 165.198 44.722 164.232C44.9173 163.266 46.2498 162.721 47.6982 163.014C49.1466 163.307 50.1625 164.327 49.9671 165.293C49.7718 166.258 48.4393 166.804 46.9909 166.511Z" fill="white"/>
<path opacity="0.3" d="M65.8441 137.036C66.0546 134.122 69.7323 132.06 74.0754 132.332C75.4162 132.451 76.6546 132.702 77.7612 133.229C76.6463 136.492 75.4004 139.652 74.1545 142.812C73.9212 142.841 73.6298 142.782 73.3966 142.811C68.9806 142.524 65.6337 139.951 65.8441 137.036Z" fill="#E55135"/>
<path d="M59.4524 233.867L58.8738 231.854C58.8738 231.854 59.2364 232.686 59.4524 233.867Z" fill="#E55135"/>
<path d="M57.0984 37.068C61.7967 41.5823 58.35 64.6198 28.3114 69.9182C0.707958 74.7992 13.4867 143.583 5.6413 165.124C-2.7026 188.005 -34.6439 176.843 -34.6439 176.843C-34.6439 176.843 -32.9665 109.694 -34.2127 92.9868C-35.4589 76.2797 -37.7544 26.1471 0.932081 18.9581C24.2489 14.6508 49.3021 29.5005 57.0984 37.068Z" fill="#231F20"/>
</svg>
