<svg width="321" height="260" viewBox="0 0 321 260" fill="none" xmlns="http://www.w3.org/2000/svg">
<path d="M64.9146 231.724C141.824 279.793 258.27 259.471 293.304 203.374C324.702 146.049 259.162 111.084 251.442 45.2943C244.637 -12.6942 131.802 -11.9664 75.2728 45.2943C16.775 97.0871 -11.7822 183.78 64.9146 231.724Z" fill="#F0F0F3"/>
<path d="M294.616 163.359C294.616 163.359 295.485 149.64 294.857 147.37C294.229 145.1 292.969 144.415 292.969 144.415L290.625 158.907L288.541 174.124L294.616 163.359Z" fill="#F8C7AC"/>
<path d="M304.344 141.015L299.889 155.142L308.814 141.488L310.912 142.761L302.502 159.379L313.287 145.431L314.945 147.451L304.743 163.533L316.705 152.342L317.897 154.301L310.395 164.36L306.357 169.77L300.518 175.041L290.241 172.194L295.604 154.622L302.432 139.695L304.344 141.015Z" fill="#F8C7AC"/>
<path d="M250.119 190.197C261.218 203.359 267.685 210.813 267.248 209.153C267.248 209.153 285.386 175.104 287.304 170.18C288.489 164.289 305.816 174.478 303.101 175.028C304.31 171.239 274.062 241.367 270.499 240.878C266.936 240.389 239.181 216.608 239.181 216.608L218.518 198.192L237.736 175.988C242.549 178.766 235.609 172.966 250.119 190.197Z" fill="#D14024"/>
<path d="M44.6425 198.376L38.7559 185.307C38.7559 185.307 42.1311 179.048 41.4455 170.008C40.7599 160.969 38.844 159.844 38.844 159.844C38.844 159.844 36.1903 159.268 35.8611 161.004C35.5319 162.741 37.3067 169.066 34.5677 172.282C34.5677 172.282 30.4168 166.457 28.171 161.635C25.9252 156.814 20.1347 146.178 18.611 146.059C17.1529 145.996 17.1517 147.339 17.3031 149.036C17.4546 150.732 25.9 166.705 24.9982 167.45C24.0964 168.196 12.9252 146.77 11.2213 146.665C9.51206 146.5 7.89473 147.365 9.17564 150.191C10.4566 153.016 19.8464 169.399 18.9939 170.018C18.1414 170.638 8.40666 155.137 6.01551 154.112C3.67902 153.022 4.07556 155.431 5.43877 157.822C6.80199 160.213 15.6163 172.859 14.8785 173.408C14.1408 173.957 4.6686 164.112 3.22671 164.23C1.78481 164.349 2.08882 166.399 3.59983 168.412C5.11624 170.485 17.9883 189.269 21.6243 190.68C25.2604 192.091 32.0692 206 32.0692 206L44.6425 198.376Z" fill="#FABAA4"/>
<path d="M84.619 184.25L93.8737 228.834C93.8737 228.834 80.1368 254.22 68.3145 254.884C56.4923 255.547 24.7875 197.831 24.7875 197.831C24.7875 197.831 40.2169 188.684 42.2822 185.337C42.2822 185.337 64 222.177 65.2969 221.765C66.6539 221.349 75.4429 186.713 84.619 184.25Z" fill="#6FCCDD"/>
<mask id="mask0" mask-type="alpha" maskUnits="userSpaceOnUse" x="17" y="6" width="286" height="254">
<path d="M64.9146 231.724C141.824 279.793 258.27 259.471 293.304 203.374C316.703 160.654 286.265 130.351 266.042 90.4549C259.128 76.8158 270.639 56.7867 251.442 45.2944C201.346 15.3043 116.666 -18.3698 60.1366 38.891C52.1371 45.9735 59.8338 60.1121 53.1467 68.3116C10.9329 120.073 -1.2941 190.336 64.9146 231.724Z" fill="#F6F6F6"/>
</mask>
<g mask="url(#mask0)">
<path d="M155.276 98.1707C155.276 98.1707 177.343 165.878 137.569 179.795C129.134 182.707 121.563 178.557 121.563 178.557C121.563 178.557 136.582 202.44 180.275 205.311C223.463 208.142 219.598 196.387 219.598 196.387L215.272 184.851L195.372 136.85L155.276 98.1707Z" fill="#231F20"/>
<path d="M235.777 262.048C235.879 262.374 246.106 281.559 228.354 311.118C210.524 340.861 212.004 351.35 217.883 361.734C217.883 361.734 209.792 366.772 203.262 363.976C203.262 363.976 198.45 373.532 183.347 363.072C183.347 363.072 188.109 358.285 187.343 351.734C186.106 341.391 185.582 338.296 186.202 333.57C187.037 326.888 191.542 319.663 191.432 316.154C191.283 309.841 183.905 299.087 178.933 283.555C176.012 274.419 178.97 264.146 183.83 258.094C214.613 269.894 233.022 263.108 235.777 262.048Z" fill="#7F2B8D"/>
<path d="M238.949 174.143C237.667 177.545 227.705 177.156 221.237 176.847C198.67 175.674 192.73 170.186 192.73 170.186C192.73 170.186 191.288 161.674 190.038 146.556C189.636 141.879 184.44 116.083 184.329 114.228L181.293 110.684L177.247 93.0592C177.247 93.0592 178.025 92.8649 179.33 92.4566C177.97 86.1778 176.663 80.0303 176.586 77.7331C176.297 72.4281 164.332 41.1436 199.9 40.4579C238.275 39.6711 257.321 83.0868 257.321 83.0868C257.321 83.0868 260.685 92.2574 256.547 117.778C253.482 136.825 246.744 153.998 238.949 174.143Z" fill="#F8C7AC"/>
<path fill-rule="evenodd" clip-rule="evenodd" d="M162.113 100.121C162.022 104.391 163.571 107.953 166.699 110.801C168.649 112.542 170.887 113.856 173.521 114.179C175.028 114.354 176.643 113.963 178.127 113.627C178.447 113.586 178.834 112.721 178.739 112.331C178.431 110.649 177.998 108.957 177.627 107.27C177.156 105.257 176.811 103.253 176.335 101.302C176.097 100.327 175.539 99.3924 175.039 98.5256C174.597 97.7268 174.023 96.9823 173.586 96.1201C172.543 94.128 171.009 92.7377 168.924 91.8812C165.978 90.7056 164.667 91.2468 163.209 94.3941C162.823 95.2591 162.615 96.265 162.412 97.2074C162.209 98.1498 162.195 99.1063 162.113 100.121ZM169.125 106.641C168.222 106.063 168.001 105.664 168.619 105.071C169.174 104.474 169.608 103.804 170.1 103.202C170.592 102.6 170.507 102.084 169.903 101.72C168.994 101.206 168.012 100.814 167.04 100.295C166.736 100.145 166.515 99.7453 166.288 99.4094C166.614 99.3058 166.959 98.9484 167.206 99.0305C168.251 99.4271 169.228 99.8824 170.205 100.338C172.82 101.68 173.444 104.152 173.544 106.84C173.586 107.099 173.309 107.397 173.22 107.71C173.094 107.701 172.968 107.691 172.837 107.745C172.373 106.434 171.977 105.065 171.57 103.822C170.728 104.845 169.958 105.745 169.125 106.641Z" fill="#F8C7AC"/>
<path fill-rule="evenodd" clip-rule="evenodd" d="M169.124 106.638C169.894 105.737 170.727 104.841 171.565 103.881C171.972 105.125 172.431 106.5 172.833 107.807C172.959 107.816 173.085 107.826 173.216 107.772C173.305 107.459 173.583 107.16 173.54 106.901C173.44 104.212 172.816 101.739 170.198 100.395C169.226 99.8763 168.248 99.4207 167.198 99.0875C166.951 99.0053 166.61 99.2994 166.279 99.4665C166.511 99.7391 166.732 100.139 167.032 100.352C167.941 100.867 168.924 101.259 169.897 101.778C170.501 102.142 170.586 102.659 170.094 103.261C169.601 103.864 169.167 104.534 168.611 105.131C168.061 105.666 168.224 105.997 169.124 106.638Z" fill="#F3A478" stroke="#F3A478" stroke-miterlimit="10"/>
<path d="M196.71 103.093C196.4 111.216 202.305 117.974 209.859 118.24C217.412 118.506 223.819 112.191 224.066 104.064C224.376 95.9411 218.471 89.1834 210.917 88.9174C203.364 88.6514 197.02 94.9707 196.71 103.093Z" fill="white"/>
<path fill-rule="evenodd" clip-rule="evenodd" d="M244.286 96.0812C240.858 100.08 238.148 111.263 243.257 114.332C252.978 120.302 261.348 100.965 253.116 94.6638C250.474 92.6137 247.432 92.4421 244.286 96.0812Z" fill="white"/>
<path d="M210.72 94.7579C219.135 95.4087 223.353 98.4718 223.353 98.4718C221.482 93.0444 216.758 89.1149 210.981 88.9226C205.778 88.7111 201.158 91.6634 198.645 96.1788C198.572 96.3004 198.499 96.4221 198.426 96.5437C198.426 96.5437 202.053 94.0875 210.72 94.7579Z" fill="#F3A478"/>
<path d="M198.427 96.6443C199.417 96.1927 200.455 95.9412 201.493 95.6896C202.526 95.5032 203.616 95.3866 204.643 95.2654C206.756 95.0927 208.847 95.1806 210.996 95.3382C213.082 95.4912 215.215 95.8442 217.275 96.3229C219.329 96.8668 221.378 97.4758 223.273 98.4012C221.61 96.9686 219.588 96.0339 217.549 95.2946C215.443 94.6158 213.315 94.1977 211.103 94.0354C208.953 93.8777 206.725 93.9109 204.534 94.2744C203.438 94.4561 202.4 94.7077 201.351 95.0895C200.303 95.4713 199.312 95.9228 198.427 96.6443Z" fill="#231F20"/>
<path fill-rule="evenodd" clip-rule="evenodd" d="M243.069 97.8327C243.439 97.1612 243.868 96.5579 244.292 96.0178C247.374 92.3739 250.474 92.6136 253.121 94.6005C254.322 95.5208 255.183 96.733 255.772 98.1787C255.772 98.1787 253.358 97.2919 251.095 96.926C248.827 96.6233 243.069 97.8327 243.069 97.8327Z" fill="#F3A478"/>
<path d="M255.762 98.2307C254.854 97.6458 253.81 97.1799 252.756 96.8426C252.261 96.6763 251.702 96.5052 251.138 96.3985C250.511 96.287 249.937 96.3087 249.426 96.3352C248.341 96.3834 247.245 96.5602 246.14 96.8655C245.102 97.1112 244.055 97.4855 242.997 97.9883C245.22 98.025 247.337 97.7953 249.444 97.6941C249.955 97.6677 250.466 97.6412 250.909 97.6743C251.415 97.712 251.915 97.8141 252.484 97.8566C253.622 97.9416 254.629 98.0814 255.762 98.2307Z" fill="#231F20"/>
<path d="M244.463 127.536C244.463 127.536 242.192 135.507 231.373 134.67C231.373 134.67 241.221 140.651 244.463 127.536Z" fill="#F3A478"/>
<path d="M247.559 102.317C245.443 101.708 243.223 103.254 242.526 105.683C241.829 108.111 242.976 110.555 245.093 111.164C247.21 111.773 249.43 110.226 250.127 107.798C250.824 105.37 249.676 102.926 247.559 102.317Z" fill="#231F20"/>
<path d="M243.706 106.929C242.662 106.627 242.084 105.455 242.415 104.31C242.746 103.165 243.861 102.482 244.904 102.784C245.948 103.085 246.526 104.258 246.195 105.403C245.864 106.547 244.75 107.231 243.706 106.929Z" fill="white"/>
<path d="M211.127 101.026C208.227 99.8474 204.926 101.374 203.669 104.459C202.481 107.486 203.871 110.903 206.776 112.019C209.676 113.198 212.977 111.671 214.234 108.586C215.422 105.559 214.032 102.142 211.127 101.026Z" fill="#231F20"/>
<path d="M204.822 106.076C203.341 105.648 202.487 104.1 202.915 102.619C203.343 101.137 204.891 100.284 206.373 100.712C207.854 101.14 208.708 102.688 208.28 104.169C207.851 105.651 206.303 106.505 204.822 106.076Z" fill="white"/>
<path d="M239.392 150.31C239.48 149.172 240.338 145.483 236.343 143.646C232.348 141.81 221.506 149.5 213.829 143.432C211.611 141.67 217.859 153.864 227.134 157.382C231.28 158.912 236.371 158.924 238.539 153.936C238.772 153.381 239.304 151.449 239.392 150.31Z" fill="#E55135"/>
<path d="M227.58 47.1182C231.704 54.6928 229.058 60.9164 241.856 67.4435C254.653 73.9705 258.564 90.0572 258.564 90.0572C258.564 90.0572 262.675 69.8176 256.912 60.3977C251.148 50.9779 237.563 43.117 222.941 37.9762C205.471 31.7879 191.687 35.5588 191.687 35.5588C191.687 35.5588 223.456 39.5436 227.58 47.1182Z" fill="#231F20"/>
<path d="M236.053 150.688C236.053 150.688 235.835 148.571 234.39 148.332C231.056 147.819 228.88 150.452 225.673 149.949C225.235 149.851 227.638 151.692 233.016 152.108C235.8 152.323 236.053 150.688 236.053 150.688Z" fill="#753528"/>
<path d="M207.559 94.3199C206.933 94.2096 206.312 94.0356 205.691 93.8616C205.071 93.6876 204.455 93.45 203.908 93.1534C203.36 92.8569 202.755 92.492 202.349 92.0139C201.88 91.5312 201.543 90.9942 201.405 90.3439C201.543 90.9942 201.812 91.5901 202.276 92.1365C202.676 92.6782 203.219 93.0384 203.824 93.4032C204.366 93.7634 204.977 94.0646 205.592 94.3023C206.208 94.5399 206.824 94.7775 207.508 94.9562L207.559 94.3199Z" fill="#231F20"/>
<path d="M202.372 94.8079C201.488 94.7423 200.551 94.5448 199.624 94.2198C199.193 94.0597 198.766 93.8359 198.403 93.6167C198.044 93.3339 197.691 92.9874 197.538 92.5276C197.628 92.9828 197.908 93.4519 198.266 93.7347C198.619 94.0812 199.046 94.305 199.472 94.5289C200.326 94.9765 201.257 95.2377 202.257 95.44L202.372 94.8079Z" fill="#231F20"/>
<path d="M251.236 97.5849C251.624 97.4859 252.018 97.3234 252.412 97.1608C252.806 96.9983 253.136 96.8311 253.472 96.6004C253.808 96.3696 254.144 96.1389 254.364 95.7718C254.642 95.4729 254.799 95.1011 254.898 94.6611C254.647 95.4094 254.033 95.939 253.309 96.2688C252.978 96.436 252.584 96.5985 252.196 96.6975C251.807 96.7965 251.418 96.8956 251.098 96.9357L251.236 97.5849Z" fill="#231F20"/>
<path d="M254.264 97.9444C254.847 97.7957 255.372 97.5788 255.902 97.2983C256.165 97.1898 256.433 97.0178 256.643 96.7775C256.91 96.6055 257.12 96.3652 257.146 96.0474C257.062 96.297 256.852 96.5373 256.59 96.6457C256.322 96.8177 256.123 96.9309 255.865 96.9758C255.345 97.1291 254.767 97.2142 254.257 97.2404L254.264 97.9444Z" fill="#231F20"/>
<path d="M242.673 91.4376L241.993 87.0571C241.993 87.0571 245.785 85.7593 248.783 86.5003C252.778 87.5094 256.923 91.5215 256.923 91.5215C256.923 91.5215 246.451 87.0201 242.673 91.4376Z" fill="#231F20"/>
<path d="M223.824 89.9162L225.647 85.2837C225.647 85.2837 220.747 82.8044 214.994 82.2958C207.913 81.6844 201.911 85.2298 201.911 85.2298C201.911 85.2298 218.225 84.1368 223.824 89.9162Z" fill="#231F20"/>
<path d="M179.946 262.738C185.168 251.177 189.349 228.463 189.349 228.463C191.765 235.078 192.593 237.841 193.023 241.809C194.583 256.208 189.79 259.471 182.373 267.793C217.081 284.798 245.553 271.291 245.159 270.624C230.287 245.67 238.974 229.772 239.237 229.665C255.89 220.897 249.49 210.664 249.49 210.664C239.379 186.562 240.047 180.458 239.033 174.452C239.076 174.395 239.067 174.336 239.002 174.275C239.013 174.334 239.023 174.393 239.033 174.452C237.922 175.917 202.732 176.298 193.023 167.218C184.333 172.592 178.501 170.046 169.633 182.662C162.689 192.627 165.084 260.008 165.084 260.008C165.084 275.275 178.85 265.165 179.946 262.738Z" fill="#E55135"/>
<path opacity="0.3" d="M209.979 133.97C205.541 133.627 202.128 130.969 202.355 128.034C202.582 125.099 206.363 122.998 210.801 123.341C215.238 123.684 218.652 126.342 218.425 129.277C218.198 132.212 214.416 134.313 209.979 133.97Z" fill="#E55135"/>
<path opacity="0.5" d="M232.615 156.469C231.357 156.372 230.39 155.613 230.454 154.774C230.519 153.936 231.592 153.335 232.85 153.432C234.107 153.53 235.075 154.288 235.01 155.127C234.945 155.965 233.873 156.566 232.615 156.469Z" fill="white"/>
<path opacity="0.3" d="M245.518 129.527C245.393 127.035 248.294 124.904 252.003 124.682C253.152 124.644 254.227 124.727 255.22 125.058C254.615 127.939 253.889 130.747 253.162 133.555C252.968 133.604 252.715 133.584 252.52 133.633C248.748 133.85 245.644 132.019 245.518 129.527Z" fill="#E55135"/>
<path d="M250.195 212.246L249.495 210.601C249.495 210.601 249.889 211.268 250.195 212.246Z" fill="#E55135"/>
<path d="M227.688 45.7265C232.139 49.0622 231.62 68.9432 206.718 76.5639C183.836 83.5771 201.834 140.532 197.431 159.603C192.745 179.862 164.515 173.733 164.515 173.733C164.515 173.733 158.937 116.656 156.14 102.629C153.343 88.6014 146.172 46.3588 178.205 36.2346C197.515 30.1543 220.292 40.1265 227.688 45.7265Z" fill="#231F20"/>
<path d="M146.666 208.784C147.188 247.708 165.201 278.455 165.201 278.455C138.768 303.918 108.997 286.705 108.997 286.705C108.997 286.705 106.431 283.054 95.9897 254.092C84.3316 221.74 80.3889 188.165 80.3889 188.165L82.5056 183.042L137.957 173.813L139.717 177.221L138.699 178.586C139.203 178.179 139.485 177.973 139.485 177.973" fill="#27C1DD"/>
<path d="M117.254 42.6229C78.5674 41.5906 70.9485 75.7763 70.9485 75.7763L71.049 110.757L74.2711 112.398C73.4063 112.161 72.4761 111.867 71.6113 111.63C71.1163 111.486 70.6699 111.215 70.175 111.071C67.4442 110.186 66.2359 111.444 66.6844 114.345C69.2336 129.558 78.2548 129.454 79.2243 130.173C79.1159 130.304 79.0674 130.43 78.9591 130.561C76.7308 130.554 75.1786 129.392 73.6637 127.983C74.5871 135.373 78.6956 167.467 83.3778 183.611C83.5684 183.718 83.8186 183.821 84.1231 183.858C84.6125 183.942 85.0308 183.908 85.5146 183.931C87.825 184.176 90.1467 184.543 92.4403 184.606C95.5221 184.729 98.6525 184.725 101.772 184.6C104.831 184.48 107.831 184.365 110.868 184.002C113.785 183.648 116.685 183.112 119.569 182.395C122.86 181.522 126.052 180.229 129.332 179.235C132.199 178.335 135.071 177.496 137.686 175.821C138.765 175.123 138.866 174.259 138.896 173.278C138.983 169.662 139.011 166.051 139.153 162.369C139.292 158.015 140.411 153.828 140.306 149.433C140.214 145.831 140.904 142.228 141.291 138.589C141.455 137.108 141.798 135.612 141.957 134.071C142.242 131.295 142.408 128.53 142.7 125.815C142.922 123.657 143.388 121.54 143.616 119.442C143.993 116.354 144.256 113.336 144.573 110.252C144.721 108.589 144.808 106.93 144.95 105.206L147.946 101.788L151.75 84.9708C151.75 84.9708 150.951 84.7894 149.651 84.4031C150.965 78.4267 152.166 72.5205 152.263 70.3107C152.406 65.3447 155.936 43.5945 117.254 42.6229Z" fill="#FABAA4"/>
<path fill-rule="evenodd" clip-rule="evenodd" d="M166.695 83.2281C166.919 84.3152 166.969 85.477 167.133 86.5687C167.305 91.525 165.653 95.6399 162.06 98.9227C159.847 100.933 157.35 102.475 154.379 102.827C152.655 103.021 150.872 102.606 149.096 102.252C148.726 102.157 148.276 101.21 148.354 100.775C148.646 98.7891 149.182 96.8459 149.539 94.9165C149.981 92.6125 150.363 90.3131 150.924 87.9999C151.178 86.8761 151.801 85.8465 152.299 84.7652C152.809 83.8057 153.449 82.9589 153.899 82.004C155.062 79.7058 156.773 78.1018 159.083 77.1264C162.439 75.7639 163.941 76.3846 165.666 79.9942C166.242 80.9929 166.472 82.1409 166.695 83.2281ZM156.374 90.955C157.379 92.0434 158.318 93.0754 159.198 94.112C160.214 93.4203 160.418 93.0366 159.811 92.347C159.205 91.6574 158.652 90.9024 158.046 90.2128C157.439 89.5233 157.56 88.9004 158.247 88.5408C159.274 87.971 160.433 87.5137 161.454 86.883C161.795 86.6727 162.053 86.2234 162.322 85.8959C161.947 85.7407 161.494 85.4074 161.261 85.4867C160.103 85.944 159.01 86.4575 157.923 87.032C154.949 88.6106 154.255 91.4248 154.193 94.5585C154.162 94.8676 154.435 95.2147 154.589 95.5709C154.709 95.5618 154.894 95.6089 155.013 95.5997C155.459 93.9703 155.91 92.4017 156.374 90.955Z" fill="#FABAA4"/>
<path fill-rule="evenodd" clip-rule="evenodd" d="M159.203 94.1031C158.262 93.0697 157.32 92.0363 156.373 90.9418C155.909 92.3905 155.457 93.9612 154.998 95.4709C154.879 95.4801 154.694 95.4329 154.574 95.4421C154.42 95.0853 154.146 94.7378 154.177 94.4282C154.239 91.2903 154.934 88.4723 157.914 86.8915C159.003 86.3163 160.158 85.7974 161.259 85.3442C161.552 85.2602 161.945 85.5985 162.322 85.7539C162.052 86.0819 161.794 86.5318 161.452 86.7423C160.423 87.3129 159.262 87.7708 158.239 88.4024C157.556 88.8235 157.429 89.3862 158.037 90.0767C158.645 90.7672 159.139 91.5278 159.806 92.2137C160.419 92.9652 160.221 93.4105 159.203 94.1031Z" fill="#F69676"/>
<path d="M159.203 94.1031C158.262 93.0697 157.32 92.0363 156.373 90.9418C155.909 92.3905 155.457 93.9612 154.998 95.4709C154.879 95.4801 154.694 95.4329 154.574 95.4421C154.42 95.0853 154.146 94.7378 154.177 94.4282C154.239 91.2903 154.934 88.4723 157.914 86.8915C159.003 86.3163 160.158 85.7974 161.259 85.3442C161.552 85.2602 161.945 85.5985 162.322 85.7539C162.052 86.0819 161.794 86.5318 161.452 86.7423C160.423 87.3129 159.262 87.7708 158.239 88.4024C157.556 88.8235 157.429 89.3862 158.037 90.0767C158.645 90.7672 159.139 91.5278 159.806 92.2137C160.419 92.9652 160.221 93.4105 159.203 94.1031Z" stroke="#F69676" stroke-miterlimit="10"/>
<path d="M66.8618 116.61C66.8618 116.61 70.9838 130.418 89.4402 129.019C89.4345 128.958 72.7145 139.315 66.8618 116.61Z" fill="#F69676"/>
<path d="M66.8618 116.61C66.8618 116.61 70.9838 130.418 89.4402 129.019C89.4345 128.958 72.7145 139.315 66.8618 116.61Z" stroke="#F69676" stroke-miterlimit="10"/>
<path fill-rule="evenodd" clip-rule="evenodd" d="M166.009 71.4293C167.971 65.3475 171.102 55.6543 171.057 54.5458C170.959 52.8853 157.333 29.7797 154.993 29.3421C152.648 28.8432 142.014 30.2183 142.014 30.2183C138.053 25.4576 136.728 22.965 136.728 22.965C110.072 18.6552 96.324 21.6293 91.0007 23.522C90.472 23.6863 89.8833 23.8552 89.3605 24.0808C88.9519 24.2358 88.6092 24.4475 88.2723 24.7206C87.9954 24.989 87.8503 25.3709 87.5134 25.644C71.2271 41.3546 60.2474 39.7292 58.9681 42.1753C72.0144 55.9971 71.2176 76.8777 71.2176 76.8777C71.2176 76.8777 74.2266 63.3637 84.3702 54.9218C100.957 41.1032 123.153 43.6562 128.297 45.6074C143.874 51.6974 148.602 58.8084 148.602 58.8084C148.602 58.8084 146.158 63.63 144.547 70.8586C142.99 78.0212 145.927 86.0115 145.927 86.0115L153.829 87.0708C157.09 81.9391 163.264 78.8071 163.264 78.8071L164.423 76.3702C164.423 76.3702 164.653 75.6112 165.083 74.4043C165.41 73.3907 165.682 72.443 166.009 71.4293Z" fill="#FED065"/>
<path fill-rule="evenodd" clip-rule="evenodd" d="M153.794 86.9854L145.88 85.9222C145.88 85.9222 142.945 77.9642 144.498 70.7138C146.057 63.5249 148.56 58.6194 148.56 58.6194C148.56 58.6194 143.819 51.4208 128.225 45.37C123.067 43.35 100.905 40.8444 84.2335 54.7183C74.0751 63.191 71.0616 76.7546 71.0616 76.7546C71.0616 76.7546 71.8655 55.859 58.7942 41.9249L83.6677 44.2832C83.6677 44.2832 94.2803 36.7675 109.61 36.2042C124.94 35.6408 147.38 50.6499 148.5 58.624C148.711 60.2198 152.618 66.9248 159.549 64.6536C165.722 62.689 170.466 51.4099 171.047 54.3413C171.397 56.1125 164.518 76.1749 163.237 78.63C159.339 86.0614 153.794 86.9854 153.794 86.9854Z" fill="#F5BA66"/>
<path fill-rule="evenodd" clip-rule="evenodd" d="M122.221 128.306C121.714 129.946 121.272 131.642 120.639 133.23C118.21 138.774 111.155 156.557 101.115 163.917C98.3333 165.116 95.0886 164.626 91.5062 160.592C88.8672 157.593 83.7732 147.825 83.4096 147.176C98.2744 144.863 111.209 138.758 122.221 128.306Z" fill="#85322C"/>
<path fill-rule="evenodd" clip-rule="evenodd" d="M101.099 163.784C107.859 158.903 113.203 149.277 116.767 141.815C116.767 141.815 106.422 144.453 102.638 149.597C95.7758 159.095 101.099 163.784 101.099 163.784Z" fill="#E78482"/>
<path d="M114.447 81.8079C107.306 82.0501 101.905 88.5467 102.343 96.3138C102.781 104.081 108.901 110.182 115.982 109.945C123.123 109.703 128.524 103.206 128.086 95.4389C127.647 87.6718 121.528 81.5702 114.447 81.8079Z" fill="white"/>
<path d="M110.217 101.695C111.398 104.615 114.55 106.093 117.273 104.961C120.001 103.891 121.193 100.605 120.012 97.6853C118.831 94.7657 115.679 93.2879 112.957 94.4189C110.294 95.5453 109.042 98.8365 110.217 101.695Z" fill="#00A6D2"/>
<path d="M120.742 95.7825C121.294 97.1537 120.656 98.6778 119.321 99.2108C117.986 99.7437 116.475 99.0609 115.923 97.6898C115.37 96.3186 116.009 94.7944 117.343 94.2615C118.684 93.7896 120.189 94.4114 120.742 95.7825Z" fill="white"/>
<path d="M104.704 76.3031C104.704 76.3031 108.938 67.2906 116.023 68.5427C123.108 69.7948 129.539 78.8523 129.539 78.8523C129.539 78.8523 111.897 69.1094 104.704 76.3031Z" fill="#FBD065"/>
<path fill-rule="evenodd" clip-rule="evenodd" d="M82.7884 88.9503C86.0948 92.8023 88.7864 103.444 84.0907 106.442C75.0876 112.1 66.8497 93.6111 74.4423 87.632C76.961 85.7217 79.8203 85.5013 82.7884 88.9503Z" fill="white"/>
<path d="M78.2574 100.596C78.9612 102.936 81.0826 104.368 83.0184 103.851C84.9542 103.334 85.9938 100.982 85.29 98.6426C84.5861 96.3028 82.4648 94.8701 80.5289 95.3875C78.6528 95.9002 77.6133 98.2514 78.2574 100.596Z" fill="#00A6D2"/>
<path d="M85.5049 97.273C85.8541 98.4129 85.2955 99.4999 84.3568 99.7564C83.3585 100.017 82.3328 99.3595 81.9836 98.2195C81.6344 97.0796 82.193 95.9927 83.1317 95.7362C84.1358 95.5361 85.1615 96.194 85.5049 97.273Z" fill="white"/>
<path d="M88.5168 78.0633C88.5168 78.0633 83.1318 69.8064 76.9898 72.0769C70.8477 74.3474 66.6973 84.2074 66.6973 84.2074C66.6973 84.2074 80.8057 72.0921 88.5168 78.0633Z" fill="#FED065"/>
<path d="M125.597 203.157C124.336 190.458 133.421 174.484 139.654 173.844C139.654 173.844 167.796 257.273 171.793 269.423C171.793 269.423 159.9 277.202 155.746 277.18C155.746 277.18 144.309 251.046 137.347 234.258C132.348 222.204 126.366 210.907 125.597 203.157Z" fill="#6FCCDD"/>
</g>
</svg>
