<svg width="256" height="253" viewBox="0 0 256 253" fill="none" xmlns="http://www.w3.org/2000/svg">
<g clip-path="url(#clip0)">
<path d="M163.78 248.58C78.6135 244.763 2.51968 217.931 6.40888 155.35C10.8013 84.6559 65.4456 84.508 107.359 37.3335C153.37 -14.457 229.705 -1.14402 241.63 73.8921C256.58 167.997 248.716 252.382 163.78 248.58Z" fill="#F0F0F3"/>
<mask id="mask0" mask-type="alpha" maskUnits="userSpaceOnUse" x="-30" y="-45" width="348" height="352">
<path d="M163.783 248.58C78.616 244.762 2.52216 217.931 6.41136 155.35C10.8038 84.6557 42.3818 71.5414 84.2951 24.3669C130.307 -27.4236 229.708 -1.14426 241.633 73.8919C256.583 167.997 248.718 252.381 163.783 248.58Z" fill="#F0F0F3"/>
</mask>
<g mask="url(#mask0)">
<ellipse cx="184.095" cy="75.7981" rx="8.51511" ry="4.76129" transform="rotate(-42.2496 184.095 75.7981)" fill="#F3A478"/>
<ellipse rx="8.51511" ry="4.76129" transform="matrix(-0.740222 -0.672362 -0.672362 0.740222 99.2524 75.7981)" fill="#F3A478"/>
<path d="M124.144 166.637C124.144 166.637 120.323 164.492 109.759 165.01C97.7394 165.628 40.7418 186.239 40.7418 186.239C40.7418 186.239 21.5846 202.13 36.9539 206.931C52.3231 211.732 115.974 200.119 115.974 200.119L124.144 166.637Z" fill="#38BAE2"/>
<path d="M162.638 163.674C162.638 163.674 174.15 164.423 178.101 171.917C182.052 179.41 204.873 232.136 170.812 266.877C170.16 267.542 168.428 266.877 168.428 266.877L165.022 202.162L162.638 163.674Z" fill="#38BAE2"/>
<path d="M117.378 165.026C117.378 165.026 108.822 188.012 108.822 217.909C108.822 236.463 111.267 272.519 111.267 272.519C111.267 272.519 121.724 279.054 141.077 278.003C160.498 277.026 170.752 273.496 170.752 273.496C170.752 273.496 173.604 239.918 173.536 214.228C173.536 188.613 164.437 163.674 164.437 163.674L117.378 165.026Z" fill="#00A5D7"/>
<path d="M192.28 70.1439C192.143 69.1221 191.939 68.1003 191.598 67.2147C190.236 63.9449 188.942 63.5362 185.74 64.4218C181.176 65.7161 178.519 72.0513 178.247 72.5963C177.974 72.5282 177.634 72.3919 177.225 72.3238C178.723 67.0104 180.086 61.7651 180.29 59.7896C180.699 55.2255 184.173 33.7674 148.887 31.5875C113.6 29.4076 101.679 44.1218 101.679 44.1218C101.679 44.1218 101.883 56.7922 102.632 70.8251C102.156 70.1439 101.611 69.4627 101.202 68.7134C100.044 66.7379 98.3408 65.3074 96.1609 64.4899C93.0274 63.4 91.665 64.0131 90.3026 67.2829C89.8938 68.1684 89.7576 69.1902 89.6213 70.2121C89.4851 71.2339 89.4851 72.1876 89.417 73.2094C89.4851 77.6372 91.2562 81.2476 94.6623 84.1087C96.774 85.8799 99.1583 87.106 101.883 87.3785C102.496 87.4466 103.109 87.3785 103.722 87.3104C103.927 89.4221 104.063 91.4658 104.335 93.3732C107.333 120.417 111.965 142.42 117.21 166.126C117.415 166.263 125.112 177.502 140.644 175.731C158.832 173.688 164.35 165.786 164.418 164.9C164.691 161.63 173.751 105.499 175.317 86.6973L175.249 86.6292L175.317 86.6973C176.884 87.0379 178.519 87.5148 180.086 87.3785C182.811 87.1742 185.195 85.8799 187.307 84.1087C190.713 81.2476 192.484 77.6372 192.552 73.2094C192.416 72.1876 192.416 71.1657 192.28 70.1439ZM101.338 80.7708C101.202 80.7708 101.066 80.7708 100.929 80.7708C100.453 79.4084 99.9076 78.046 99.4307 76.7517C98.6133 77.7735 97.7958 78.7272 96.9784 79.6809C96.0247 79.0678 95.8203 78.7272 96.3653 78.1141C96.9103 77.501 97.319 76.7517 97.864 76.1386C98.3408 75.5255 98.2727 74.9805 97.5915 74.6399C96.6378 74.1631 95.5479 73.7543 94.5942 73.2775C94.2536 73.0731 94.0492 72.7325 93.7767 72.3919C94.1173 72.2557 94.4579 71.9151 94.7304 71.9832C95.8203 72.3238 96.8421 72.8007 97.864 73.2775C100.657 74.5718 101.406 77.0923 101.679 79.8852C101.679 80.1577 101.406 80.4983 101.338 80.7708ZM187.239 73.2775C186.285 73.7543 185.195 74.1631 184.241 74.6399C183.56 74.9805 183.492 75.5255 183.969 76.1386C184.514 76.7517 184.922 77.501 185.467 78.1141C186.012 78.7272 185.808 79.1359 184.854 79.6809C184.037 78.7272 183.288 77.7735 182.402 76.7517C181.925 78.046 181.448 79.4084 180.903 80.7708C180.767 80.7708 180.631 80.7708 180.495 80.7708C180.358 80.4983 180.154 80.1577 180.154 79.8852C180.358 77.0923 181.176 74.5718 183.969 73.2775C184.991 72.8007 186.081 72.3919 187.102 71.9832C187.375 71.9151 187.715 72.2557 188.056 72.3919C187.852 72.6644 187.579 73.0731 187.239 73.2775Z" fill="#F8C7AC"/>
<path d="M139.553 129.682C136.897 129.818 133.559 128.251 131.992 126.616C129.812 124.3 129.676 122.256 131.992 122.256C132.741 122.256 134.649 124.096 135.534 124.641C139.077 126.616 140.711 126.139 141.665 126.889C143.981 128.864 142.074 129.545 139.553 129.682Z" fill="#F3B8A1"/>
<path fill-rule="evenodd" clip-rule="evenodd" d="M91.0529 55.4298C90.1673 49.2989 88.8049 39.4214 89.0774 38.3996C89.418 36.8328 105.631 16.9415 107.879 16.8734C110.127 16.8052 119.664 19.8707 119.664 19.8707C124.091 15.9197 125.658 13.8079 125.658 13.8079C150.999 14.0804 163.193 19.2576 167.825 21.9143C168.302 22.1868 168.779 22.4593 169.256 22.7318C169.596 22.9361 169.937 23.2086 170.141 23.4811C170.346 23.7536 170.414 24.1623 170.686 24.5029C183.22 42.2825 193.643 42.5549 194.392 45.0754C180.155 56.1791 177.635 76.3429 177.635 76.3429C177.635 76.3429 176.953 62.855 168.983 53.1137C155.836 37.1053 134.991 35.811 129.95 36.9009C114.623 40.1026 109.173 46.2335 109.173 46.2335L100.249 58.2909L103.86 73.6862L99.9086 72.3919C97.7287 66.9422 92.4834 62.855 92.4834 62.855L91.8022 60.3345C91.8022 60.3345 91.666 59.5852 91.5297 58.2909C91.3254 57.4053 91.1891 56.4516 91.0529 55.4298Z" fill="#FED065"/>
<path fill-rule="evenodd" clip-rule="evenodd" d="M99.8398 72.3919L103.791 73.6862C103.791 73.6862 102.905 66.9422 103.586 59.9939C104.472 51.3426 109.172 46.3697 109.172 46.3697C109.172 46.3697 114.554 40.1026 129.881 36.9009C134.922 35.811 155.767 37.1053 168.914 53.1137C176.953 62.9231 177.566 76.3429 177.566 76.3429C177.566 76.3429 180.086 56.1791 194.323 45.0754L171.026 43.2362C171.026 43.2362 162.443 34.2442 148.342 31.1788C134.309 28.1133 114.349 35.8791 108.968 46.1654C108.219 47.5959 102.701 53.4543 97.8643 50.1164C92.8233 46.6422 88.9404 38.3315 88.9404 38.3315C88.9404 38.3315 91.529 60.2664 92.3465 62.855C94.8669 70.5526 99.8398 72.3919 99.8398 72.3919Z" fill="#F5BA66"/>
<path d="M122.456 104.136C128.777 104.136 133.9 99.0124 133.9 92.6919C133.9 86.3714 128.777 81.2476 122.456 81.2476C116.136 81.2476 111.012 86.3714 111.012 92.6919C111.012 99.0124 116.136 104.136 122.456 104.136Z" fill="white"/>
<path d="M133.9 90.3077C133.628 86.561 129.473 81.0432 122.456 81.2476C116.121 81.4519 111.829 85.7436 111.012 90.3077C111.012 90.3077 113.396 91.8744 122.456 91.8744C130.631 91.8744 133.9 90.3077 133.9 90.3077Z" fill="#F3B8A1"/>
<path d="M122.455 102.501C120.071 102.501 118.096 100.526 118.096 98.1415C118.096 95.7572 120.071 93.7817 122.455 93.7817C124.84 93.7817 126.815 95.7572 126.815 98.1415C126.815 100.526 124.84 102.501 122.455 102.501Z" fill="#1EABE2"/>
<path d="M170.685 94.3269C170.685 94.3269 168.165 96.8473 160.74 97.9373C153.383 99.0272 150.385 96.9836 150.385 96.9836C150.385 96.9836 154.336 98.1416 160.74 96.3705C168.029 94.395 170.685 91.9426 170.685 91.9426C170.685 91.9426 165.576 94.7356 156.176 95.4849C150.59 95.8936 147.661 95.0762 145.617 94.6675C143.573 94.2587 146.979 99.9128 158.151 99.9128C167.143 99.7765 170.685 94.3269 170.685 94.3269Z" fill="#F3B8A1"/>
<path d="M170.686 94.3269C170.686 94.3269 168.165 96.8473 160.74 97.9373C153.383 99.0272 150.386 96.9836 150.386 96.9836C150.386 96.9836 154.337 98.1416 160.74 96.3705C168.029 94.395 170.686 91.9426 170.686 91.9426C170.686 91.9426 170.481 92.692 169.936 93.3732C169.391 94.0544 168.846 94.6675 168.846 94.6675L170.686 94.3269Z" fill="#233842"/>
<path d="M149.364 80.4982C152.361 80.6345 152.293 77.2284 154.132 76.2747C154.473 76.2066 154.813 76.0704 155.086 76.0022C156.38 75.7298 157.606 75.5935 158.56 75.5935C165.508 76.0022 173.206 84.9942 173.206 84.9942C173.206 84.9942 164.487 80.7707 156.448 82.065C156.244 82.1331 155.495 82.8143 155.29 82.8143C152.089 88.1959 145.345 85.6754 145.208 83.6999C145.004 81.7244 146.367 80.362 149.364 80.4982Z" fill="#FDDF6B"/>
<path d="M124.908 76.5472C121.979 76.0023 121.366 78.9315 119.391 79.4765C119.05 79.5446 118.709 79.5446 118.369 79.5446C117.006 79.6127 115.78 79.5446 114.895 79.3402C108.151 77.9097 102.36 69.1221 102.36 69.1221C102.36 69.1221 110.058 74.0268 118.233 74.0949C118.437 74.0949 119.254 73.6181 119.527 73.6181C123.682 69.4627 129.813 72.6644 129.609 74.3674C129.404 76.0704 127.838 77.0922 124.908 76.5472Z" fill="#FDDF6B"/>
<path d="M160.467 133.632C160.127 133.224 159.718 132.815 159.173 132.611C158.287 132.202 157.197 132.27 156.244 132.679C153.996 133.496 152.225 135.335 150.113 136.357C148.001 137.379 145.617 137.992 143.369 138.401C138.328 139.286 133.219 139.082 128.11 138.81C124.568 138.605 118.709 139.491 120.48 144.6C121.843 148.483 127.156 150.594 130.698 151.889C141.121 155.499 154.609 153.183 160.127 142.692C161.421 140.172 162.307 136.766 160.74 134.109C160.672 133.905 160.604 133.769 160.467 133.632Z" fill="#85322C"/>
<path d="M141.802 142.42C148.954 141.603 155.358 138.537 160.194 133.292C159.922 133.019 159.581 132.747 159.241 132.611C158.355 132.202 157.265 132.27 156.311 132.679C154.063 133.496 152.292 135.335 150.18 136.357C148.069 137.379 145.684 137.992 143.436 138.401C138.396 139.287 133.286 139.082 128.177 138.81C125.793 138.673 122.183 139.082 120.82 140.921C127.701 142.216 134.785 143.169 141.802 142.42Z" fill="white"/>
<path opacity="0.68" d="M142.824 145.417C140.031 145.894 137.238 146.439 134.581 147.257C132.333 148.006 129.813 148.96 128.178 150.731C129.063 151.14 130.017 151.412 130.834 151.753C140.303 155.022 152.293 153.456 158.492 145.281C153.382 144.259 148.069 144.6 142.824 145.417Z" fill="#E78482"/>
<path fill-rule="evenodd" clip-rule="evenodd" d="M106.267 119.185C118.077 126.434 133.742 124.584 143.504 114.02C154.612 102.001 153.873 83.2528 141.853 72.1454C129.834 61.0381 111.087 61.7773 99.9792 73.7965C90.2167 84.3604 89.6057 100.122 97.7616 111.326L67.0948 144.51C64.9244 146.859 65.0688 150.522 67.4174 152.692C69.766 154.863 73.4293 154.718 75.5997 152.37L106.267 119.185ZM139.502 110.321C130.437 120.13 115.137 120.733 105.328 111.669C95.5195 102.604 94.9163 87.3041 103.981 77.4954C113.045 67.6866 128.345 67.0834 138.154 76.148C147.963 85.2126 148.566 100.512 139.502 110.321Z" fill="#404041"/>
<path d="M99.8262 125.555C100.155 126.175 100.198 127.022 100.527 127.643C100.9 128.303 101.399 128.915 101.977 129.438C103.406 130.809 106.439 132.821 106.735 129.451C106.926 127.36 106.195 124.679 105.793 122.618C105.457 121.021 104.754 119.741 103.472 118.744C98.8769 115.24 92.5401 115.902 87.273 114.217C84.7686 113.41 82.3447 112.514 79.6207 112.397C76.3439 112.267 74.0349 114.465 72.0331 116.86C69.0349 120.538 68.1623 122.927 64.0914 125.555C60.7212 127.765 56.9387 133.058 53.5327 137.294C51.587 138.285 52.8872 137.048 50.8079 137.918C49.1035 138.642 50.0749 139.963 48.4235 140.897C46.0714 142.248 48.2474 145.879 49.1047 147.704C50.4905 150.734 44.1113 150.728 46.7247 152.846C48.5412 154.325 52.6969 156.704 55.1021 155.562C57.0076 154.616 58.5556 151.649 59.7 149.935C61.5193 147.294 62.4013 150.381 64.0914 147.704C65.0391 146.297 65.1132 143.276 68.0342 139.276C69.0465 139.139 70.0144 138.963 71.0181 138.657C73.4047 137.983 75.6448 136.935 77.6982 135.556C77.7384 135.512 77.8188 135.423 77.9035 135.419C78.4018 136.03 78.9001 136.642 79.4429 137.294C78.363 137.774 77.2516 138.467 77.2186 139.488C77.2129 140.21 77.9208 140.769 78.7091 141.239C80.148 141.972 81.7706 142.145 83.3228 141.768L87.1009 140.897C87.1009 140.897 89.2706 141.806 91.3757 141.444C92.5044 141.089 93.9547 140.378 94.1198 140.285C94.1198 140.285 94.1643 140.325 94.2045 140.281C95.6491 140.292 96.8725 139.296 97.2272 137.918C97.5503 136.755 97.7312 135.302 97.4612 134.169C96.6384 130.516 95.8917 126.689 94.3997 123.24C96.4143 123.605 98.9904 124.153 99.8262 125.555Z" fill="#F8C7AC"/>
<path d="M81.3462 137.155C83.3796 137.052 84.4938 134.744 83.3465 133.061L83.302 133.021C82.3858 131.708 81.2629 128.835 79.264 129.616C77.2609 130.313 76.0676 131.902 73.8778 132.268C71.7727 132.63 69.6733 132.27 67.5912 132.248C64.0645 132.215 62.0771 134.058 59.8299 136.635C56.2242 140.896 53.1614 145.808 47.9402 148.367C46.6149 149.029 45.1918 149.441 43.7602 149.684C44.6677 150.827 45.6556 151.881 46.7197 152.761C48.5362 154.24 52.6919 156.62 55.0971 155.478C57.0026 154.532 58.5505 151.565 59.695 149.85C61.5143 147.21 63.5342 147.277 65.2243 144.6C66.172 143.193 66.5867 141.194 68.0292 139.191C69.0415 139.055 70.0094 138.878 71.0131 138.572C73.3997 137.899 75.6397 136.851 77.6931 135.472C77.7334 135.427 77.8138 135.338 77.8985 135.334C78.3968 135.946 78.8951 136.558 79.3933 137.169C80.0754 137.22 80.6685 137.189 81.3462 137.155Z" fill="#F3B8A1"/>
<path d="M106.631 129.923C105.318 128.334 104.448 126.254 103.26 124.616C100.881 121.254 95.7861 120.452 91.6721 119.727C92.8424 121.026 93.8074 122.463 94.5713 124.123C94.6158 124.164 94.7006 124.159 94.7896 124.24C94.6877 123.905 94.501 123.575 94.399 123.24C96.4137 123.605 98.9898 124.154 99.8255 125.555C100.154 126.175 100.197 127.023 100.526 127.643C100.9 128.303 101.398 128.915 101.977 129.438C103.276 130.773 106.131 132.624 106.631 129.923Z" fill="#F3B8A1"/>
<circle cx="121.74" cy="93.9081" r="24.1829" transform="rotate(42.7421 121.74 93.9081)" fill="#F3B8A1"/>
<ellipse cx="121.741" cy="93.9079" rx="24.1722" ry="19.6349" transform="rotate(1.41586 121.741 93.9079)" fill="white"/>
<circle cx="121.741" cy="93.908" r="10.567" transform="rotate(42.7421 121.741 93.908)" fill="#00A5D7"/>
<path d="M25.9068 186.473C38.2595 145.913 53.8934 124.675 53.8934 124.675C68.1158 145.378 67.5098 143.827 67.5098 143.827C57.2015 175.571 58.3569 179.549 52.5371 197.043C40.4505 216.651 20.3806 204.619 25.9068 186.473Z" fill="#56C9ED"/>
<circle cx="123.127" cy="96.2342" r="5.44967" fill="white"/>
<circle cx="116.656" cy="91.1251" r="2.38423" fill="white"/>
<circle opacity="0.2" cx="127.214" cy="85.3349" r="6.81209" fill="white"/>
</g>
<path d="M68.5032 67.0873C68.5431 67.0745 68.5304 67.0347 68.5703 67.0219C68.6628 67.0362 68.864 66.8402 68.8063 67.2098C68.7486 67.5795 68.7614 67.6193 69.0169 67.3181C69.2724 67.0168 69.1621 67.3594 69.2546 67.3737C69.3471 67.388 69.264 67.678 68.5723 68.9529C69.438 67.5345 69.8548 67.0499 69.3931 67.944C68.9314 68.838 69.0112 68.8125 69.4984 67.9981C69.9855 67.1837 69.8065 67.7239 69.1132 69.1311C69.3576 68.6578 69.6546 68.2115 70.0171 67.8321C70.0825 67.899 70.3235 67.6902 70.2132 68.0328C70.1029 68.3754 70.1955 68.3897 70.4238 68.141C70.6521 67.8924 70.7574 67.9465 70.6471 68.2891C70.5368 68.6317 70.5623 68.7113 70.8577 68.3973C71.1531 68.0833 71.0029 68.4387 71.1226 68.4004C71.2423 68.3621 71.132 68.7047 70.4802 69.9669C71.71 68.0368 71.7754 68.1037 70.7434 70.1021C71.9876 68.0797 71.93 68.4493 70.9795 70.29C71.2366 69.8565 71.4938 69.423 71.8036 69.0166C71.9488 69.0579 72.4198 68.4682 71.9276 69.6793C71.8861 69.8243 71.9005 69.7319 72.0075 69.6538C72.5871 68.8537 72.5456 68.9987 71.8522 70.4059C72.0822 70.025 72.3122 69.644 72.6076 69.33C72.673 69.3969 72.7783 69.451 72.8708 69.4653C72.9634 69.4796 72.8148 69.7027 72.5976 70.1235C72.3803 70.5442 72.3803 70.5442 72.6231 70.2031C73.3114 69.1926 73.3097 69.3249 72.658 70.5871C72.4534 71.0476 72.4806 70.995 72.6979 70.5743C73.0764 69.9703 73.2648 69.7344 73.3446 69.7088C73.4244 69.6833 72.664 71.1559 72.8125 70.9327C73.2038 70.3685 73.5823 69.7645 73.6078 69.8441C73.6333 69.9238 73.9015 69.6623 73.7641 70.0575C73.6266 70.4527 73.7463 70.4144 74.0018 70.1132C74.1902 69.8773 73.3628 71.4152 73.6055 71.0741C73.9153 70.6677 74.2395 70.1688 74.2523 70.2086C74.3177 70.2755 74.3831 70.3424 74.4756 70.3567C74.5155 70.3439 74.5011 70.4363 74.311 70.8045C74.1209 71.1726 74.2151 71.0547 74.3365 70.8841C74.9289 70.1239 74.9256 70.3883 74.7992 70.9556C74.772 71.0082 74.6091 71.3237 74.5132 71.5739C74.2959 71.9946 74.3358 71.9819 74.5259 71.6137C75.3229 70.3929 75.4027 70.3674 74.8451 71.5116C74.7365 71.722 74.6822 71.8272 74.8706 71.5913C75.6404 70.423 75.626 70.5154 74.9182 72.015C75.1083 71.6469 75.3511 71.3058 75.6465 70.9918C75.6991 71.0188 75.2646 71.8603 75.223 72.0053C75.1815 72.1503 75.79 71.1654 75.9097 71.1271C76.0294 71.0888 75.2834 72.4689 75.5405 72.0354C75.9047 71.5238 76.1202 71.2353 76.133 71.2751C76.1457 71.315 76.2111 71.3818 76.2909 71.3563C76.3707 71.3308 76.3003 71.6606 75.6086 72.9356C76.8257 70.9657 76.931 71.0198 75.9262 72.9657C77.1017 71.1408 77.1543 71.1679 76.1495 73.1137C76.4066 72.6802 76.6638 72.2467 76.9863 71.8801C77.1044 71.9741 77.6153 71.3715 77.0705 72.5556C77.0162 72.6608 76.9891 72.7134 77.0833 72.5954C77.7716 71.585 77.5942 71.9929 76.928 73.3475C77.1453 72.9268 77.428 72.5729 77.7106 72.2191C77.8159 72.2732 78.0442 72.0246 77.9068 72.4198C77.7693 72.8149 77.8762 72.7368 78.1173 72.528C78.3584 72.3191 78.4509 72.3334 78.3406 72.676C78.2303 73.0186 78.2957 73.0855 78.5512 72.7843C78.8067 72.483 78.912 72.5371 78.7745 72.9323C78.637 73.3275 78.7568 73.2892 78.9851 73.0405C79.2134 72.7919 79.306 72.8062 79.2356 73.136C79.1652 73.4658 79.2178 73.4929 79.4461 73.2443C79.6744 72.9956 79.6312 73.2728 79.6966 73.3397C79.762 73.4066 79.6534 73.617 79.2732 74.3532C79.0287 74.8265 79.0559 74.774 79.3258 74.3803C80.1499 73.1069 80.2025 73.1339 79.5092 74.5411C79.3047 75.0017 79.3191 74.9093 79.589 74.5156C79.9675 73.9115 80.1559 73.6757 80.2357 73.6501C80.3155 73.6246 79.5153 75.1099 79.7037 74.874C79.9337 74.4931 80.2163 74.1393 80.499 73.7854C80.5643 73.8523 80.7655 73.6562 80.6951 73.986C80.6247 74.3159 80.5959 74.5007 80.9456 74.0815C80.9456 74.0815 80.4152 75.1732 80.495 75.1476C80.5748 75.1221 81.1434 74.1499 81.1689 74.2296C81.1944 74.3092 81.4753 74.0876 81.3778 74.47C81.2802 74.8525 81.36 74.8269 81.5884 74.5783C81.8167 74.3296 81.9491 74.3311 81.8516 74.7135C81.754 75.096 81.8338 75.0705 82.0222 74.8346C82.2107 74.5987 82.383 74.5874 82.2855 74.9698C82.1879 75.3523 82.3076 75.314 82.5359 75.0653C82.7643 74.8166 82.8568 74.8309 82.7593 75.2134C82.6617 75.5958 82.7814 75.5575 83.0097 75.3088C83.238 75.0602 83.1821 75.2976 83.2602 75.4043L83.2458 75.4967L80.4553 80.3846L80.4154 80.3974C80.3228 80.3831 80.1217 80.5792 80.1793 80.2095C80.237 79.8398 80.2242 79.8 79.9687 80.1013C79.7133 80.4025 79.8236 80.0599 79.731 80.0456C79.6385 80.0313 79.7216 79.7413 80.4133 78.4664C79.5476 79.8848 79.1309 80.3694 79.5925 79.4753C80.0542 78.5813 79.9744 78.6068 79.4745 79.3814C78.9746 80.156 79.1664 79.6556 79.8597 78.2484C79.6153 78.7217 79.3055 79.1282 78.9558 79.5474C78.8904 79.4805 78.6493 79.6893 78.7596 79.3467C78.8699 79.0041 78.7774 78.9898 78.5491 79.2385C78.3208 79.4872 78.2155 79.433 78.3258 79.0904C78.4361 78.7478 78.4106 78.6682 78.1152 78.9822C77.8198 79.2962 77.97 78.9409 77.8503 78.9792C77.7306 79.0175 77.8537 78.7147 78.5054 77.4525C77.2756 79.3825 77.2102 79.3157 78.2422 77.3172C76.998 79.3397 77.0557 78.97 78.0062 77.1293C77.749 77.5628 77.4918 77.9963 77.182 78.4027C77.0369 78.3614 76.5658 78.9511 77.058 77.74C77.0995 77.595 77.0851 77.6874 76.9782 77.7656C76.3985 78.5657 76.44 78.4207 77.1334 77.0135C76.9034 77.3944 76.6734 77.7753 76.378 78.0893C76.3126 78.0224 76.2073 77.9683 76.1148 77.954C76.0621 77.927 76.1708 77.7166 76.388 77.2959C76.6053 76.8751 76.6053 76.8751 76.3625 77.2162C75.6742 78.2267 75.6759 78.0944 76.3277 76.8323C76.5322 76.3717 76.505 76.4243 76.2877 76.845C76.1248 77.1606 75.9092 77.4491 75.641 77.7105C75.5612 77.736 76.3216 76.2635 76.1731 76.4866C75.7818 77.0508 75.4033 77.6549 75.3778 77.5752C75.3523 77.4956 75.0841 77.757 75.2215 77.3618C75.359 76.9666 75.2393 77.0049 74.9838 77.3062C74.7954 77.5421 75.6228 76.0041 75.3801 76.3452C75.0703 76.7517 74.7461 77.2505 74.7333 77.2107C74.6679 77.1438 74.6026 77.0769 74.51 77.0626C74.51 77.0626 74.4845 76.983 74.6746 76.6148C74.8647 76.2467 74.7705 76.3647 74.6491 76.5352C74.0567 77.2955 74.0473 76.9912 74.1864 76.4637C74.2951 76.2534 74.3638 76.0558 74.4724 75.8454C74.6897 75.4247 74.6498 75.4374 74.4597 75.8056C73.6627 77.0264 73.5829 77.052 74.1405 75.9077C74.2491 75.6974 74.3034 75.5922 74.115 75.8281C73.3452 76.9963 73.3596 76.9039 74.0674 75.4043C73.8773 75.7724 73.5946 76.1263 73.3392 76.4275C73.2865 76.4005 73.721 75.559 73.7626 75.414C73.8042 75.269 73.1956 76.2539 73.0759 76.2922C72.9562 76.3305 73.7022 74.9504 73.4451 75.3839C73.081 75.8955 72.8654 76.184 72.8526 76.1442C72.8399 76.1044 72.7745 76.0375 72.6947 76.063C72.6149 76.0886 72.6853 75.7587 73.377 74.4838C72.1599 76.4536 72.0546 76.3995 73.0594 74.4537C71.884 76.2785 71.8313 76.2515 72.8361 74.3056C72.579 74.7391 72.3218 75.1726 71.9993 75.5392C71.8812 75.4453 71.3703 76.0478 71.9151 74.8637C71.9694 74.7585 71.9966 74.7059 71.9023 74.8239C71.214 75.8344 71.3914 75.4264 72.0576 74.0718C71.8403 74.4925 71.5577 74.8464 71.275 75.2002C71.1697 75.1461 70.9414 75.3948 71.0789 74.9996C71.2163 74.6044 71.1094 74.6825 70.8683 74.8914C70.6272 75.1002 70.5347 75.0859 70.645 74.7433C70.7553 74.4007 70.6899 74.3338 70.4344 74.6351C70.1789 74.9363 70.0736 74.8822 70.2111 74.487C70.3486 74.0918 70.2289 74.1301 70.0005 74.3788C69.7722 74.6274 69.6797 74.6132 69.7501 74.2833C69.8205 73.9535 69.7678 73.9264 69.5395 74.1751C69.3112 74.4237 69.3544 74.1465 69.289 74.0796C69.2237 74.0127 69.3323 73.8024 69.7125 73.0661C69.9569 72.5928 69.9297 72.6454 69.6598 73.039C68.8357 74.3125 68.7831 74.2854 69.4764 72.8782C69.6809 72.4177 69.6665 72.5101 69.3966 72.9038C69.2337 73.2193 69.0181 73.5078 68.7499 73.7692C68.6302 73.8075 69.4704 72.3094 69.2819 72.5453C69.0519 72.9262 68.7693 73.2801 68.4867 73.6339C68.4213 73.5671 68.2201 73.7631 68.2905 73.4333C68.3609 73.1035 68.3897 72.9186 68.04 73.3378C68.04 73.3378 68.5305 72.2589 68.5034 72.3115C68.4762 72.3641 67.8549 73.3092 67.8295 73.2296C67.804 73.1499 67.523 73.3715 67.6206 72.9891C67.7181 72.6067 67.6383 72.6322 67.41 72.8809C67.1817 73.1296 67.0492 73.128 67.1468 72.7456C67.2443 72.3632 67.1645 72.3887 66.9761 72.6246C66.7877 72.8605 66.6153 72.8718 66.7129 72.4893C66.8105 72.1069 66.6908 72.1452 66.4624 72.3938C66.2341 72.6425 66.1415 72.6282 66.2391 72.2458C66.3367 71.8634 66.217 71.9017 65.9886 72.1503C65.7603 72.399 65.8163 72.1616 65.7382 72.0549C65.7382 72.0549 65.7254 72.015 65.7526 71.9624L68.5032 67.0873Z" fill="#DEDEEB"/>
<path d="M36.2074 81.6598C36.1813 81.5924 36.2483 81.5665 36.3153 81.5405C36.5163 81.4627 36.8138 81.0375 36.9817 81.6701C37.1496 82.3028 37.2427 82.3443 37.529 81.6908C37.8153 81.0374 37.9162 81.696 38.1172 81.6182C38.3181 81.5404 38.3929 82.1315 38.264 84.5845C38.7166 81.7737 39.0734 80.7054 39.0446 82.4219C39.0157 84.1384 39.0566 84.0451 39.3648 82.453C39.6729 80.8609 39.7441 81.841 39.6935 84.4962C39.9346 82.9301 40.1313 81.8462 40.2914 81.8617C40.4515 81.8773 40.8161 81.4261 40.984 82.0587C41.1518 82.6914 41.2858 82.6395 41.5573 82.1468C41.8288 81.6542 42.1229 81.6178 42.2238 82.2764C42.3656 82.8417 42.4848 82.9506 42.7711 82.2971C43.0574 81.6437 43.1321 82.2349 43.3331 82.1571C43.5341 82.0793 43.6498 82.5771 43.4538 85.0559C44.1032 81.1613 44.3564 81.2183 44.1612 85.0922C44.8253 81.0368 45.0863 81.7109 44.8277 85.2218C44.9426 84.3246 45.0836 83.4949 45.3847 82.6807C45.7458 82.6184 46.2105 81.4308 46.2564 83.7385C46.2938 84.0341 46.3086 83.8733 46.3643 83.6192C46.8064 81.9752 46.9108 82.2449 46.7931 84.926C47.0307 83.7488 47.2275 82.6649 47.3876 82.6805C47.5476 82.696 47.8678 82.7271 48.054 82.8101C48.121 82.7841 48.1436 83.2405 48.1366 84.0184C48.0773 84.6614 48.0626 84.8222 48.2558 84.1273C48.7014 82.0944 48.8467 82.2707 48.7177 84.7236C48.6698 85.5948 48.7107 85.5015 48.8517 84.6717C49.0632 83.4271 49.2677 82.9604 49.3756 82.8411C49.4835 82.7218 49.3102 85.657 49.4216 85.1488C49.6592 83.9716 49.9638 82.7684 50.1091 82.9447C50.2544 83.121 50.5407 82.4676 50.6676 83.1936C50.7946 83.9196 50.9695 83.7744 51.2558 83.121C51.5421 82.4675 51.1529 85.6413 51.3462 84.9464C51.5542 84.0907 51.8031 83.1416 51.9632 83.1572C52.1494 83.2401 52.3356 83.3231 52.5626 83.3127C52.6296 83.2868 52.6818 83.4216 52.6487 84.1321C52.5747 84.9359 52.6713 84.5884 52.8349 84.215C53.3962 82.68 53.7129 83.1 53.8772 84.1216C53.8737 84.5105 53.8702 84.8995 53.7997 85.3143C53.7257 86.1182 53.7927 86.0922 53.8928 85.3558C54.4089 82.9081 54.6099 82.8302 54.4697 85.055C54.4661 85.4439 54.4104 85.6981 54.5888 85.1639C55.1311 82.7835 55.2764 82.9598 55.0769 85.8276C55.3145 84.6504 55.5634 83.7014 55.7235 83.717C55.8836 83.7325 55.7356 85.3401 55.7469 85.5683C55.7582 85.7965 56.1629 83.8569 56.3378 83.7117C56.5127 83.5665 56.2349 86.232 56.443 85.3764C56.7328 84.334 56.9111 83.7998 57.0712 83.8154C57.1904 83.9242 57.3505 83.9398 57.4845 83.8879C57.6855 83.8101 57.8273 84.3754 57.4973 86.9061C58.3068 83.027 58.5339 83.0166 58.2195 86.7816C59.0402 83.1307 59.2003 83.1462 58.8859 86.9112C59.0269 86.0814 59.168 85.2517 59.4691 84.4375C59.8153 84.536 60.3209 83.255 60.2738 85.5212C60.2851 85.7494 60.2442 85.8427 60.3669 85.5627C60.8795 83.5039 60.9656 84.3232 60.7287 86.8954C61.0482 85.5315 61.2301 84.6084 61.3902 84.624C61.5503 84.6395 61.9818 84.1624 62.0827 84.821C62.1836 85.4796 62.3846 85.4018 62.6561 84.9091C62.9276 84.4164 63.1547 84.406 63.3225 85.0387C63.4904 85.6714 63.5835 85.7128 63.8959 85.1268C64.2083 84.5408 64.4354 84.5304 64.5623 85.2564C64.6893 85.9824 64.8642 85.8372 65.1357 85.3445C65.4072 84.8518 65.7013 84.8155 65.7761 85.4067C65.8508 85.9979 66.104 86.0549 66.3494 85.4948C66.5948 84.9347 66.7366 85.4999 66.9637 85.4895C67.1908 85.4792 67.1464 85.9614 66.92 87.3668C66.8051 88.264 66.846 88.1706 67.0801 87.3824C67.7042 84.8153 67.8904 84.8983 67.6796 87.5379C67.5647 88.4351 67.6465 88.2484 67.8136 87.486C68.0921 86.2155 68.2557 85.8421 68.4306 85.6969C68.6055 85.5516 68.205 88.4972 68.4095 88.0305C68.6845 87.1489 69.071 85.759 69.1902 85.8679C69.3093 85.9768 69.6739 85.5256 69.7487 86.1168C69.8235 86.708 69.954 87.0451 70.296 86.1375C70.43 86.0856 70.1705 88.2015 70.2114 88.1081C70.2523 88.0148 70.7762 86.1841 70.8693 86.2256C70.9624 86.2671 71.4201 85.8574 71.521 86.516C71.6219 87.1746 71.7558 87.1227 72.0943 86.6041C72.4328 86.0855 72.6599 86.0751 72.7608 86.7337C72.8617 87.3922 72.9957 87.3404 73.2672 86.8477C73.5387 86.355 73.8736 86.2254 73.9336 86.9773C73.9936 87.7292 74.2355 87.5581 74.507 87.0654C74.7785 86.5727 75.0726 86.5364 75.1065 87.2209C75.1403 87.9055 75.4083 87.8017 75.7468 87.2831C76.0853 86.7645 76.1749 87.1949 76.3611 87.2779C76.3611 87.2779 76.3463 87.4386 76.3724 87.506L75.0325 93.5507L74.9655 93.5766C74.7645 93.6544 74.4408 94.0122 74.3399 93.3536C74.239 92.695 74.079 92.6795 73.7666 93.2655C73.4542 93.8516 73.3794 93.2604 73.1784 93.3382C72.9774 93.416 72.9696 92.7989 73.3257 90.3356C72.6199 93.0893 72.263 94.1576 72.385 92.4826C72.5069 90.8076 72.5069 90.8076 72.0387 92.3841C71.5705 93.9606 71.6593 92.9961 71.9109 90.2631C71.5767 91.7878 71.2199 92.8561 71.1268 92.8146C71.0337 92.7731 70.576 93.1828 70.4752 92.5242C70.3743 91.8656 70.2403 91.9175 69.9688 92.4102C69.6973 92.9029 69.4032 92.9392 69.3024 92.2806C69.2276 91.6894 69.1084 91.5805 68.796 92.1666C68.4836 92.7526 68.4088 92.1614 68.2339 92.3066C68.059 92.4519 67.9842 91.8607 68.2733 89.4233C67.3707 93.2609 67.1176 93.2039 67.6329 89.3611C66.7156 93.3595 66.5216 92.6594 66.9404 89.1641C66.7994 89.9939 66.5914 90.8496 66.2233 91.6897C65.9031 91.6586 65.3044 92.8981 65.4185 90.6059C65.4481 90.2844 65.3663 90.4711 65.3106 90.7252C64.7754 92.3277 64.7641 92.0995 64.9488 89.3924C64.6851 90.5022 64.4214 91.612 64.2613 91.5965C64.1012 91.581 63.848 91.5239 63.5948 91.4669C63.5017 91.4254 63.5052 91.0365 63.5793 90.2327C63.6385 89.5896 63.6533 89.4289 63.4601 90.1238C62.9475 92.1826 62.7761 91.9389 63.0651 89.5015C63.113 88.6303 63.1391 88.6977 62.9311 89.5534C62.6526 90.824 62.5151 91.2648 62.3811 91.3166C62.2471 91.3685 62.5397 88.5422 62.4022 88.983C62.0715 90.1187 61.7668 91.3219 61.6476 91.213C61.5284 91.1041 61.19 91.6227 61.0891 90.9641C60.9882 90.3055 60.8542 90.3574 60.5418 90.9434C60.3373 91.4102 60.7378 88.4646 60.4515 89.118C60.2435 89.9737 59.9275 90.9487 59.8345 90.9072C59.6483 90.8242 59.4621 90.7412 59.235 90.7516C59.168 90.7776 59.1158 90.6427 59.1489 89.9323C59.223 89.1285 59.1263 89.4759 59.0297 89.8234C58.4684 91.3585 58.1518 90.9384 57.9874 89.9168C57.9909 89.5279 57.9944 89.1389 58.0649 88.7241C58.139 87.9202 58.1389 87.9203 57.9718 88.6826C57.3887 91.1563 57.2547 91.2082 57.395 88.9834C57.3985 88.5945 57.4542 88.3404 57.2758 88.8745C56.6665 91.2808 56.5883 91.0786 56.7877 88.2108C56.5501 89.388 56.3012 90.337 56.1411 90.3215C55.981 90.3059 56.1291 88.6983 56.1178 88.4701C56.1065 88.242 55.7017 90.1815 55.5268 90.3267C55.3519 90.4719 55.6297 87.8064 55.4217 88.6621C55.1319 89.7044 54.9535 90.2386 54.7934 90.223C54.6333 90.2075 54.5141 90.0986 54.3801 90.1505C54.2461 90.2024 54.1044 89.6371 54.3673 87.1323C53.5579 91.0114 53.3978 90.9959 53.6452 87.2568C52.9175 90.9492 52.7313 90.8663 52.9787 87.1273C52.8377 87.957 52.6966 88.7868 52.3955 89.601C52.0754 89.5699 51.5437 90.7834 51.5238 88.5431C51.5386 88.3824 51.5535 88.2216 51.4308 88.5016C50.9181 90.5605 50.8581 89.8085 51.0019 87.1948C50.7495 88.5328 50.5006 89.4819 50.4075 89.4404C50.3144 89.3989 49.9089 89.9434 49.7819 89.2174C49.655 88.4914 49.4801 88.6366 49.2347 89.1967C48.9893 89.7568 48.7361 89.6998 48.5682 89.0671C48.4003 88.4345 48.3072 88.393 48.0209 89.0464C47.7346 89.6999 47.4815 89.6429 47.3806 88.9843C47.2797 88.3257 47.0787 88.4035 46.8072 88.8962C46.5357 89.3888 46.3347 89.4666 46.1669 88.834C45.999 88.2013 45.8389 88.1858 45.5935 88.7459C45.3481 89.306 45.2063 88.7407 44.9792 88.7511C44.7522 88.7615 44.7966 88.2792 44.8628 86.8583C44.8846 85.9196 44.8698 86.0804 44.7027 86.8427C44.2388 89.4253 44.0117 89.4357 44.1293 86.7546C44.1772 85.8834 44.1624 86.0442 43.9953 86.8065C43.7838 88.0511 43.6463 88.4919 43.5384 88.6112C43.4305 88.7305 43.6039 85.7953 43.4255 86.3295C43.1766 87.2785 42.9242 88.6165 42.8311 88.575C42.738 88.5335 42.3473 88.9173 42.2725 88.3261C42.1977 87.7349 42.0002 87.4238 41.6582 88.3313C41.5242 88.3832 41.7167 86.2933 41.5827 86.3452C41.4487 86.397 41.2041 88.3521 41.0849 88.2432C40.9657 88.1343 40.5602 88.6789 40.4593 88.0203C40.3585 87.3617 40.1575 87.4395 39.9121 87.9996C39.6667 88.5597 39.3726 88.596 39.2717 87.9374C39.1708 87.2788 38.9698 87.3566 38.6983 87.8493C38.4268 88.342 38.185 88.5131 38.058 87.7871C37.931 87.0611 37.6891 87.2323 37.5107 87.7664C37.3323 88.3006 37.0382 88.3369 36.9374 87.6783C36.8365 87.0197 36.5685 87.1235 36.3231 87.6836C36.0777 88.2436 35.895 87.7718 35.7349 87.7562C35.7088 87.6888 35.6827 87.6214 35.6566 87.554L36.2074 81.6598Z" fill="#DEDEEB"/>
<path d="M61.3582 102.582C61.3464 102.545 61.3347 102.508 61.3742 102.496C61.4416 102.434 61.4501 102.188 61.5838 102.469C61.7175 102.751 61.8084 102.762 61.7816 102.406C61.7548 102.05 61.9003 102.368 61.9559 102.269C62.0114 102.17 62.1174 102.501 62.5176 103.752C62.1654 102.243 62.1076 101.653 62.3901 102.536C62.6725 103.418 62.6608 103.382 62.5087 102.498C62.3567 101.614 62.5215 102.129 62.957 103.49C62.8157 103.048 62.7419 102.545 62.7193 102.065C62.7984 102.04 62.8069 101.794 62.9407 102.076C63.0744 102.357 63.1022 102.308 63.0989 102.025C63.0956 101.742 63.163 101.68 63.3085 101.998C63.454 102.317 63.5053 102.341 63.4667 101.948C63.4281 101.555 63.5736 101.873 63.6292 101.774C63.6848 101.675 63.779 101.97 64.1396 103.233C63.7414 101.171 63.8205 101.145 64.3374 103.17C63.9156 101.034 64.0889 101.303 64.547 103.143C64.4378 102.529 64.2815 101.768 64.3211 101.756C64.4397 101.718 64.3861 101.005 64.751 102.145C64.798 102.292 64.7745 102.219 64.767 102.059C64.6545 101.162 64.7294 101.26 65.0975 102.683C65.0076 102.266 64.9691 101.873 64.9187 101.443C64.9978 101.417 65.077 101.392 65.1678 101.404C65.278 101.612 65.3369 101.796 65.3679 102.029C65.4739 102.36 65.4974 102.433 65.431 102.09C65.248 100.972 65.3228 101.07 65.6439 102.346C65.7456 102.8 65.7733 102.751 65.6717 102.297C65.5657 101.966 65.5507 101.646 65.5752 101.314C65.6308 101.215 65.9947 102.761 65.9519 102.491C65.862 102.074 65.8234 101.68 65.8126 101.238C65.9153 101.286 65.8885 100.93 66.0457 101.285C66.203 101.64 66.219 101.554 66.2318 101.185C66.2285 100.902 66.5528 102.461 66.526 102.104C66.4596 101.761 66.4446 101.441 66.4296 101.121C66.4809 101.146 66.56 101.12 66.6391 101.095C66.6787 101.082 66.7022 101.156 66.7686 101.5C66.8585 101.917 66.8392 101.72 66.8317 101.56C66.7706 100.688 66.9203 100.883 67.1525 101.336C67.176 101.41 67.2701 101.704 67.3012 101.937C67.3911 102.355 67.3911 102.355 67.3525 101.962C67.1384 100.611 67.2175 100.585 67.4915 101.714C67.5621 101.935 67.5578 102.058 67.5546 101.775C67.4036 100.485 67.4667 100.546 67.8188 102.056C67.7406 101.675 67.702 101.282 67.703 100.876C67.7426 100.864 67.9224 101.698 67.9973 101.796C68.0721 101.893 67.9126 100.85 67.9286 100.763C67.9447 100.677 68.2615 102.076 68.1994 101.609C68.1533 101.057 68.1264 100.7 68.1778 100.724C68.2291 100.748 68.2687 100.736 68.336 100.674C68.4034 100.612 68.4858 100.869 68.7395 102.207C68.4482 100.07 68.5273 100.045 68.9533 102.058C68.7091 100.068 68.7486 100.055 69.1629 102.031C69.1007 101.564 69.0504 101.134 69.0278 100.655C69.1187 100.667 69.1442 99.9284 69.43 101.094C69.4653 101.204 69.4888 101.278 69.4418 101.131C69.3378 99.9882 69.4673 100.393 69.7327 101.768C69.6428 101.35 69.632 100.908 69.633 100.502C69.7122 100.477 69.7485 100.181 69.8544 100.512C69.9603 100.843 70.0159 100.744 70.0522 100.449C70.0885 100.153 70.1676 100.128 70.2735 100.459C70.3795 100.79 70.4586 100.765 70.4713 100.396C70.4841 100.027 70.5632 100.002 70.6809 100.369C70.7986 100.737 70.8542 100.638 70.8905 100.343C70.9268 100.047 70.9941 99.9853 71.0883 100.28C71.1825 100.574 71.2616 100.549 71.2979 100.253C71.3342 99.9576 71.4166 100.215 71.4839 100.153C71.5513 100.091 71.6059 100.398 71.7108 101.135C71.7847 101.638 71.8007 101.552 71.7504 101.122C71.6549 99.7334 71.6945 99.7207 71.9204 101.108C71.9825 101.575 71.9985 101.489 71.9482 101.059C71.8936 100.752 71.8668 100.395 71.9308 100.051C71.9864 99.9517 72.1803 101.512 72.1888 101.266C72.1502 100.872 72.1394 100.43 72.18 100.011C72.2313 100.036 72.2794 99.7769 72.3735 100.071C72.4677 100.365 72.5543 100.5 72.5713 100.008C72.5713 100.008 72.7426 101.088 72.7704 101.039C72.7982 100.99 72.7296 99.9572 72.7809 99.9813C72.8322 100.005 72.9199 99.7341 73.014 100.028C73.1082 100.323 73.1478 100.31 73.1723 99.9777C73.1968 99.6455 73.2759 99.6202 73.3819 99.9512C73.4878 100.282 73.5156 100.233 73.5519 99.9374C73.5882 99.6419 73.6833 99.5304 73.7615 99.9109C73.8396 100.291 73.923 100.143 73.9593 99.8476C73.9956 99.5521 74.0629 99.49 74.1806 99.8578C74.2983 100.226 74.3539 100.127 74.3784 99.7946C74.4029 99.4623 74.5249 99.7071 74.5762 99.7313C74.588 99.768 74.5998 99.8048 74.5998 99.8048L75.0339 104.978L75.0456 105.015C74.9783 105.077 74.9302 105.335 74.8243 105.004C74.7184 104.673 74.667 104.649 74.6543 105.018C74.6415 105.387 74.5356 105.056 74.4682 105.118C74.4009 105.18 74.3463 104.874 74.1835 103.547C74.2865 105.095 74.293 105.661 74.141 104.777C73.989 103.893 73.989 103.893 74.0223 104.815C74.0556 105.737 73.97 105.197 73.7718 103.76C73.834 104.226 73.817 104.719 73.7999 105.211C73.7208 105.236 73.661 105.458 73.5668 105.164C73.4727 104.869 73.4331 104.882 73.3968 105.177C73.3605 105.473 73.2814 105.498 73.1755 105.167C73.0696 104.836 73.0182 104.812 73.0172 105.218C73.0162 105.624 72.8985 105.256 72.843 105.355C72.7874 105.453 72.6932 105.159 72.5304 103.833C72.6795 105.934 72.6399 105.947 72.3326 103.896C72.5052 106.071 72.4111 105.777 72.1113 103.886C72.1734 104.352 72.1959 104.832 72.2067 105.274C72.088 105.312 72.1021 106.038 71.8442 104.823C71.7971 104.675 71.8206 104.749 71.8163 104.872C71.8497 105.794 71.8026 105.647 71.5649 104.223C71.6153 104.653 71.6539 105.046 71.6133 105.464C71.5342 105.489 71.4829 105.465 71.4037 105.491C71.3331 105.27 71.2743 105.086 71.2432 104.853C71.1768 104.509 71.1533 104.435 71.1801 104.792C71.2723 105.898 71.2092 105.837 70.9673 104.535C70.8656 104.081 70.8774 104.118 70.9395 104.585C71.0058 104.929 71.0209 105.248 70.9964 105.58C70.9408 105.679 70.7073 104.132 70.6988 104.378C70.7492 104.808 70.7877 105.201 70.7472 105.62C70.6841 105.559 70.6714 105.928 70.5537 105.56C70.436 105.192 70.3804 105.291 70.4072 105.647C70.4104 105.93 70.1257 104.359 70.1525 104.715C70.2189 105.059 70.2339 105.378 70.2094 105.711C70.158 105.687 70.0789 105.712 70.0393 105.724C69.9998 105.737 69.9762 105.664 69.9099 105.32C69.82 104.903 69.8393 105.099 69.8468 105.259C69.8684 106.144 69.7186 105.949 69.5538 105.434C69.5303 105.36 69.4757 105.053 69.4051 104.833C69.3152 104.415 69.327 104.452 69.3538 104.808C69.5166 106.135 69.4888 106.185 69.2148 105.056C69.1442 104.835 69.1484 104.712 69.1517 104.995C69.3027 106.285 69.2396 106.224 68.9271 104.702C69.0052 105.082 69.0438 105.475 69.0428 105.881C69.0032 105.894 68.8234 105.059 68.7764 104.912C68.7293 104.765 68.861 105.858 68.845 105.944C68.829 106.031 68.5518 104.619 68.5743 105.098C68.6289 105.405 68.6322 105.688 68.5959 105.984C68.5563 105.996 68.505 105.972 68.4772 106.022C68.4494 106.071 68.3274 105.826 68.0737 104.488C68.4046 106.613 68.3255 106.638 67.8599 104.638C68.1437 106.615 68.1041 106.628 67.6504 104.664C67.752 105.118 67.8024 105.548 67.8249 106.028C67.734 106.016 67.7481 106.741 67.4345 105.625C67.3992 105.515 67.3757 105.441 67.4228 105.589C67.5663 106.719 67.4368 106.314 67.1318 104.952C67.2217 105.369 67.2721 105.799 67.2711 106.205C67.1919 106.23 67.1952 106.513 67.0497 106.194C66.9042 105.876 66.8882 105.962 66.8915 106.245C66.8947 106.528 66.8274 106.59 66.6819 106.272C66.5364 105.953 66.4968 105.966 66.5236 106.322C66.5504 106.679 66.4713 106.704 66.3258 106.386C66.1803 106.067 66.1643 106.153 66.1676 106.436C66.1709 106.719 66.1035 106.781 65.9698 106.499C65.8361 106.218 65.7965 106.231 65.772 106.563C65.7475 106.895 65.6651 106.638 65.5859 106.663C65.5068 106.688 65.464 106.418 65.2799 105.706C65.1665 105.216 65.1505 105.302 65.2404 105.719C65.5058 107.094 65.4267 107.119 65.0704 105.733C64.9291 105.292 64.9527 105.365 65.0426 105.782C65.1485 106.113 65.1635 106.433 65.1786 106.753C65.1625 106.839 64.7591 105.305 64.8019 105.576C64.8918 105.993 64.9304 106.386 64.969 106.779C64.9177 106.755 64.9091 107.001 64.7872 106.756C64.6653 106.511 64.5669 106.34 64.6407 106.844C64.6407 106.844 64.3112 105.814 64.323 105.85C64.3347 105.887 64.5338 106.918 64.4825 106.894C64.4312 106.87 64.3949 107.166 64.2494 106.847C64.1039 106.529 64.0761 106.578 64.0911 106.898C64.1061 107.217 64.0388 107.28 63.8933 106.961C63.7478 106.643 63.72 106.692 63.7233 106.975C63.7266 107.258 63.6828 107.393 63.5255 107.038C63.3682 106.683 63.3244 106.819 63.3277 107.102C63.331 107.384 63.2636 107.446 63.1181 107.128C62.9726 106.81 62.917 106.909 62.9203 107.191C62.9236 107.474 62.8252 107.303 62.7343 107.291C62.6434 107.28 62.7225 107.255 62.6712 107.231L61.3582 102.582Z" fill="#DEDEEB"/>
<path d="M214.802 93.8846C214.77 93.8579 214.797 93.8257 214.764 93.799C214.673 93.7778 214.559 93.5209 214.475 93.8855C214.391 94.25 214.365 94.2822 214.24 93.9075C214.115 93.5328 214.089 93.8918 213.998 93.8707C213.907 93.8495 213.876 94.1496 214.043 95.5904C213.768 93.9516 213.562 93.3468 213.657 94.3484C213.753 95.3501 213.688 95.2967 213.539 94.3594C213.391 93.4222 213.356 93.9902 213.475 95.5544C213.425 95.0241 213.315 94.4994 213.12 94.0123C213.034 94.05 212.888 93.7665 212.863 94.1255C212.838 94.4845 212.747 94.4634 212.627 94.1476C212.508 93.8318 212.39 93.8428 212.365 94.2018C212.34 94.5609 212.287 94.6253 212.129 94.2239C211.972 93.8225 211.979 94.2082 211.882 94.1281C211.785 94.048 211.76 94.4071 211.895 95.8212C211.472 93.572 211.387 93.6097 211.601 95.8487C211.199 93.5084 211.115 93.873 211.312 95.9352C211.234 95.4371 211.157 94.9391 211.021 94.4465C210.871 94.4309 210.653 93.7081 210.659 95.0154C210.644 95.1655 210.665 95.0743 210.594 94.962C210.354 94.0036 210.339 94.1537 210.458 95.7178C210.387 95.2787 210.315 94.8395 210.158 94.4381C210.072 94.4758 209.954 94.4869 209.863 94.4657C209.772 94.4445 209.827 94.7069 209.872 95.1783C209.917 95.6496 209.917 95.6496 209.818 95.2427C209.556 94.0486 209.508 94.172 209.643 95.5861C209.662 96.0896 209.656 96.0307 209.611 95.5593C209.484 94.8578 209.397 94.5687 209.333 94.5153C209.268 94.4619 209.426 96.1117 209.371 95.8493C209.218 95.18 209.091 94.4785 209.038 94.5429C208.985 94.6073 208.833 94.2648 208.814 94.6828C208.794 95.1007 208.697 95.0206 208.572 94.6459C208.485 94.3568 208.681 96.0922 208.582 95.6853C208.446 95.1928 208.331 94.6091 208.304 94.6413C208.219 94.679 208.133 94.7167 208.042 94.6956C208.01 94.6689 207.989 94.76 208.028 95.1724C208.067 95.5849 208.024 95.4403 207.975 95.2369C207.708 94.3107 207.613 94.5574 207.519 95.1309C207.524 95.1899 207.558 95.5434 207.554 95.8113C207.599 96.2827 207.567 96.256 207.527 95.8435C207.242 94.4137 207.178 94.3603 207.269 95.6299C207.292 95.8656 207.303 95.9834 207.216 95.6943C206.936 94.3235 206.915 94.4146 207.014 96.0699C206.974 95.6575 206.876 95.2505 206.719 94.8491C206.66 94.8546 206.75 95.7973 206.735 95.9474C206.719 96.0975 206.521 94.9568 206.424 94.8767C206.327 94.7966 206.506 96.3552 206.429 95.8572C206.281 95.2468 206.188 94.8987 206.162 94.931C206.135 94.9632 206.05 95.0009 205.985 94.9475C205.92 94.8941 205.863 95.2264 206.03 96.6673C205.634 94.3859 205.516 94.3969 205.724 96.577C205.313 94.4457 205.254 94.4512 205.462 96.6312C205.385 96.1332 205.307 95.6351 205.145 95.1748C205 95.218 204.75 94.4686 204.815 95.7704C204.826 95.8882 204.832 95.9471 204.788 95.8026C204.526 94.6085 204.538 95.0532 204.652 96.5584C204.607 96.087 204.477 95.6534 204.346 95.2198C204.228 95.2308 204.109 94.915 204.089 95.333C204.07 95.7509 204 95.6386 203.854 95.355C203.708 95.0715 203.616 95.0503 203.591 95.4093C203.566 95.7683 203.481 95.8061 203.356 95.4314C203.231 95.0566 203.113 95.0677 203.093 95.4856C203.074 95.9036 202.977 95.8235 202.857 95.5077C202.738 95.1919 202.647 95.1707 202.589 95.503C202.532 95.8354 202.473 95.8409 202.354 95.5251C202.234 95.2093 202.171 95.4827 202.086 95.5205C202 95.5582 202.023 95.7939 202.101 96.6188C202.152 97.1491 202.146 97.0901 202.042 96.6243C201.752 95.1356 201.693 95.1411 201.812 96.7053C201.831 97.2089 201.852 97.1177 201.748 96.6519C201.621 95.9503 201.534 95.6613 201.47 95.6078C201.405 95.5544 201.595 97.2309 201.508 96.9418C201.436 96.5027 201.306 96.0691 201.175 95.6354C201.09 95.6732 200.976 95.4163 200.918 95.7486C200.861 96.0809 200.819 96.2632 200.65 95.744C200.65 95.744 200.736 96.9546 200.672 96.9012C200.607 96.8478 200.441 95.7338 200.388 95.7982C200.335 95.8627 200.156 95.5524 200.105 95.9437C200.053 96.3349 199.988 96.2815 199.869 95.9657C199.75 95.6499 199.626 95.602 199.574 95.9933C199.522 96.3845 199.458 96.3312 199.371 96.0421C199.284 95.753 199.128 95.6784 199.076 96.0696C199.024 96.4609 198.927 96.3808 198.808 96.065C198.689 95.7492 198.598 95.728 198.546 96.1193C198.494 96.5105 198.397 96.4304 198.278 96.1146C198.158 95.7988 198.122 96.04 198.01 96.11L197.989 96.2011L198.759 101.777L198.791 101.803C198.882 101.824 198.996 102.081 199.08 101.717C199.164 101.352 199.191 101.32 199.316 101.695C199.441 102.069 199.466 101.71 199.557 101.732C199.648 101.753 199.679 101.453 199.512 100.012C199.787 101.651 199.994 102.255 199.898 101.254C199.802 100.252 199.867 100.306 200.043 101.211C200.218 102.116 200.227 101.58 200.107 100.016C200.158 100.546 200.294 101.038 200.462 101.558C200.548 101.52 200.694 101.804 200.719 101.445C200.744 101.085 200.835 101.107 200.955 101.422C201.074 101.738 201.192 101.727 201.217 101.368C201.242 101.009 201.296 100.945 201.453 101.346C201.61 101.748 201.603 101.362 201.7 101.442C201.797 101.522 201.795 101.195 201.66 99.7811C202.083 102.03 202.169 101.992 201.955 99.7535C202.357 102.094 202.441 101.729 202.244 99.667C202.321 100.165 202.398 100.663 202.535 101.156C202.685 101.171 202.902 101.894 202.897 100.587C202.912 100.437 202.891 100.528 202.961 100.64C203.201 101.599 203.217 101.449 203.097 99.8844C203.169 100.324 203.24 100.763 203.398 101.164C203.483 101.126 203.601 101.115 203.692 101.137C203.751 101.131 203.729 100.895 203.684 100.424C203.639 99.9526 203.639 99.9526 203.737 100.36C204 101.554 204.047 101.43 203.912 100.016C203.894 99.5126 203.9 99.5715 203.945 100.043C203.978 100.396 204.071 100.744 204.223 101.087C204.287 101.14 204.13 99.4905 204.184 99.7529C204.338 100.422 204.464 101.124 204.517 101.059C204.571 100.995 204.722 101.337 204.742 100.919C204.761 100.501 204.858 100.582 204.983 100.956C205.07 101.245 204.875 99.51 204.973 99.9169C205.109 100.409 205.224 100.993 205.251 100.961C205.337 100.923 205.422 100.885 205.514 100.907C205.514 100.907 205.567 100.842 205.527 100.43C205.488 100.017 205.532 100.162 205.581 100.365C205.848 101.292 205.97 101.013 206.037 100.471C206.014 100.236 206.024 100.027 206.002 99.7909C205.957 99.3196 205.989 99.3463 206.028 99.7587C206.313 101.188 206.378 101.242 206.286 99.9723C206.264 99.7367 206.253 99.6188 206.34 99.9079C206.619 101.279 206.64 101.188 206.542 99.5323C206.581 99.9448 206.712 100.378 206.837 100.753C206.896 100.748 206.806 99.8049 206.821 99.6548C206.836 99.5047 207.034 100.645 207.131 100.726C207.228 100.806 207.05 99.247 207.127 99.7451C207.274 100.355 207.367 100.703 207.394 100.671C207.42 100.639 207.506 100.601 207.57 100.655C207.635 100.708 207.692 100.376 207.525 98.935C207.921 101.216 208.039 101.205 207.831 99.0252C208.243 101.157 208.302 101.151 208.093 98.971C208.171 99.469 208.248 99.9671 208.411 100.427C208.555 100.384 208.805 101.134 208.741 99.8318C208.729 99.714 208.724 99.6551 208.767 99.7996C209.03 100.994 209.017 100.549 208.903 99.0438C208.948 99.5152 209.079 99.9488 209.209 100.382C209.327 100.371 209.447 100.687 209.466 100.269C209.486 99.8513 209.556 99.9636 209.702 100.247C209.848 100.531 209.939 100.552 209.964 100.193C209.989 99.8339 210.075 99.7961 210.2 100.171C210.325 100.546 210.443 100.535 210.462 100.117C210.482 99.6986 210.579 99.7787 210.698 100.095C210.817 100.41 210.909 100.432 210.966 100.099C211.023 99.7668 211.082 99.7613 211.202 100.077C211.321 100.393 211.384 100.119 211.47 100.082C211.555 100.044 211.533 99.8083 211.454 98.9834C211.403 98.4532 211.409 98.5121 211.513 98.9779C211.804 100.467 211.863 100.461 211.743 98.8969C211.725 98.3934 211.704 98.4845 211.808 98.9504C211.841 99.3039 211.934 99.6519 212.086 99.9944C212.183 100.074 211.96 98.3713 212.048 98.6604C212.119 99.0995 212.25 99.5332 212.38 99.9668C212.466 99.9291 212.58 100.186 212.637 99.8536C212.695 99.5213 212.737 99.339 212.905 99.8583C212.905 99.8583 212.852 98.6743 212.857 98.7332C212.863 98.7922 213.088 99.9006 213.141 99.8362C213.194 99.7718 213.372 100.082 213.424 99.6908C213.476 99.2995 213.541 99.3529 213.66 99.6687C213.779 99.9845 213.903 100.032 213.955 99.6411C214.006 99.2499 214.071 99.3033 214.158 99.5924C214.245 99.8815 214.401 99.9561 214.453 99.5648C214.505 99.1735 214.601 99.2537 214.721 99.5694C214.84 99.8852 214.931 99.9064 214.983 99.5152C215.035 99.1239 215.132 99.204 215.251 99.5198C215.37 99.8356 215.407 99.5944 215.519 99.5245C215.519 99.5245 215.546 99.4922 215.54 99.4333L214.802 93.8846Z" fill="#DEDEEB"/>
<path d="M239.351 119.433C239.4 119.38 239.348 119.331 239.295 119.282C239.138 119.135 239.02 118.629 238.628 119.154C238.237 119.679 238.135 119.683 238.113 118.97C238.09 118.257 237.752 118.83 237.594 118.683C237.436 118.536 237.147 119.057 236.353 121.382C236.98 118.604 237.046 117.48 236.434 119.084C235.822 120.688 235.819 120.586 236.125 118.994C236.432 117.401 236.001 118.284 235.06 120.768C235.419 119.224 235.64 118.145 235.485 118.1C235.331 118.055 235.161 117.5 234.769 118.025C234.378 118.55 234.273 118.452 234.204 117.893C234.136 117.335 233.876 117.192 233.537 117.765C233.195 118.237 233.044 118.294 233.022 117.581C232.999 116.868 232.71 117.389 232.552 117.242C232.395 117.095 232.102 117.514 231.361 119.887C232.208 116.031 231.952 115.989 230.691 119.657C231.584 115.646 231.091 116.175 230.024 119.53C230.252 118.654 230.43 117.832 230.453 116.964C230.141 116.772 230.152 115.496 229.25 117.621C229.106 117.881 229.152 117.727 229.195 117.47C229.396 115.78 229.199 115.991 228.31 118.523C228.528 117.342 228.749 116.263 228.594 116.218C228.44 116.173 228.131 116.082 227.928 116.09C227.875 116.041 227.684 116.456 227.401 117.181C227.217 117.8 227.171 117.954 227.25 117.238C227.593 115.185 227.393 115.294 226.599 117.619C226.319 118.445 226.316 118.344 226.494 117.521C226.761 116.287 226.745 115.778 226.69 115.627C226.634 115.476 225.702 118.265 225.788 117.752C226.005 116.571 226.171 115.341 225.97 115.45C225.77 115.56 225.747 114.847 225.359 115.473C224.971 116.1 224.863 115.9 224.84 115.187C224.818 114.474 223.997 117.564 224.077 116.847C224.202 115.976 224.325 115.002 224.17 114.957C223.967 114.965 223.763 114.972 223.556 114.878C223.503 114.829 223.405 114.935 223.171 115.607C222.941 116.38 222.98 116.022 222.967 115.614C223.018 113.981 222.568 114.253 222.035 115.14C221.893 115.502 221.752 115.864 221.663 116.275C221.432 117.049 221.38 117 221.561 116.279C221.993 113.815 221.836 113.668 221.137 115.785C220.996 116.148 220.953 116.404 220.986 115.842C221.369 113.431 221.169 113.54 220.286 116.276C220.504 115.095 220.626 114.122 220.472 114.077C220.317 114.031 219.856 115.579 219.761 115.786C219.666 115.994 220.012 114.043 219.904 113.843C219.795 113.643 219.061 116.221 219.186 115.349C219.305 114.274 219.339 113.711 219.184 113.666C219.033 113.723 218.879 113.678 218.774 113.58C218.616 113.433 218.274 113.905 217.638 116.376C218.331 112.475 218.124 112.38 217.014 115.992C217.612 112.298 217.457 112.253 216.348 115.864C216.526 115.041 216.704 114.219 216.727 113.351C216.369 113.313 216.377 111.936 215.577 114.057C215.482 114.265 215.485 114.367 215.475 114.061C215.766 111.959 215.381 112.688 214.643 115.163C214.854 113.778 215.029 112.854 214.875 112.809C214.72 112.764 214.498 112.16 214.159 112.734C213.82 113.308 213.662 113.161 213.594 112.602C213.525 112.044 213.318 111.95 212.927 112.474C212.536 112.999 212.434 113.003 212.362 112.343C212.29 111.682 212.083 111.588 211.695 112.215C211.307 112.841 211.199 112.642 211.13 112.083C211.062 111.525 210.802 111.382 210.513 111.902C210.223 112.423 209.967 112.382 209.948 111.771C209.929 111.16 209.587 111.631 209.38 111.537C209.173 111.443 209.034 111.907 208.721 113.296C208.494 114.171 208.491 114.069 208.567 113.251C208.943 110.636 208.74 110.644 207.953 113.172C207.725 114.047 207.719 113.844 207.848 113.074C208.062 111.791 208.049 111.383 207.941 111.184C207.833 110.984 207.108 113.867 207.092 113.357C207.165 112.437 207.324 111.003 207.172 111.06C207.021 111.116 206.851 110.562 206.561 111.083C206.272 111.603 206.025 111.868 206.046 110.898C205.941 110.8 205.394 112.86 205.391 112.759C205.387 112.657 205.583 110.763 205.481 110.766C205.379 110.77 205.107 110.22 204.768 110.793C204.429 111.367 204.324 111.269 204.203 110.662C204.082 110.054 203.875 109.96 203.536 110.534C203.197 111.107 203.092 111.009 203.024 110.451C202.955 109.893 202.693 109.648 202.357 110.323C202.021 110.999 201.861 110.75 201.792 110.192C201.723 109.633 201.464 109.49 201.178 110.113C200.891 110.736 200.681 110.539 200.56 109.932C200.439 109.325 200.196 109.691 199.992 109.699C199.992 109.699 199.946 109.853 199.897 109.906L198.89 116.015L198.942 116.064C199.1 116.211 199.267 116.664 199.606 116.09C199.945 115.516 200.099 115.562 200.171 116.222C200.243 116.882 200.532 116.361 200.69 116.508C200.847 116.655 201.084 116.085 201.671 113.667C201.301 116.485 201.234 117.609 201.745 116.009C202.255 114.409 202.255 114.409 202.103 116.047C201.95 117.684 202.227 116.756 203.011 114.126C202.754 115.665 202.687 116.79 202.789 116.786C202.891 116.782 203.163 117.333 203.502 116.759C203.841 116.185 203.946 116.283 204.014 116.842C204.083 117.4 204.342 117.543 204.681 116.97C204.97 116.449 205.122 116.392 205.193 117.052C205.265 117.712 205.555 117.192 205.663 117.391C205.771 117.591 206.061 117.071 206.7 114.701C206.109 118.598 206.365 118.64 207.317 114.881C206.68 118.934 207.121 118.356 208.033 114.956C207.855 115.779 207.73 116.651 207.759 117.567C208.067 117.658 208.162 119.031 208.909 116.861C209.001 116.552 209.008 116.755 208.965 117.012C208.865 118.699 208.96 118.491 209.797 115.91C209.628 117.038 209.46 118.166 209.614 118.211C209.769 118.256 210.025 118.298 210.281 118.339C210.383 118.335 210.525 117.973 210.755 117.199C210.94 116.581 210.986 116.426 210.906 117.143C210.616 119.244 210.865 119.082 211.504 116.712C211.784 115.886 211.735 115.939 211.61 116.81C211.395 118.093 211.359 118.554 211.464 118.652C211.569 118.75 212.349 116.017 212.313 116.478C212.197 117.655 212.032 118.885 212.183 118.828C212.334 118.772 212.455 119.379 212.794 118.805C213.133 118.232 213.238 118.33 213.31 118.99C213.326 119.499 214.051 116.616 214.073 117.329C213.948 118.201 213.878 119.223 213.98 119.22C214.183 119.212 214.387 119.204 214.594 119.298C214.646 119.347 214.745 119.242 214.979 118.57C215.209 117.796 215.17 118.155 215.13 118.513C215.079 120.147 215.53 119.875 216.063 118.988C216.204 118.626 216.346 118.263 216.435 117.852C216.665 117.079 216.665 117.079 216.537 117.848C216.157 120.361 216.262 120.459 216.96 118.342C217.101 117.98 217.144 117.723 217.111 118.286C216.781 120.746 216.929 120.587 217.811 117.851C217.593 119.032 217.471 120.006 217.626 120.051C217.78 120.096 218.241 118.549 218.336 118.341C218.432 118.134 218.085 120.085 218.194 120.284C218.302 120.484 219.036 117.907 218.911 118.779C218.792 119.854 218.759 120.416 218.913 120.461C219.067 120.506 219.219 120.45 219.324 120.548C219.429 120.646 219.771 120.174 220.459 117.751C219.766 121.653 219.921 121.698 221.083 118.136C220.384 121.834 220.587 121.826 221.75 118.264C221.572 119.086 221.394 119.909 221.37 120.777C221.679 120.867 221.721 122.191 222.573 120.119C222.619 119.965 222.665 119.81 222.675 120.116C222.384 122.217 222.72 121.542 223.559 119.062C223.295 120.398 223.173 121.372 223.275 121.368C223.377 121.364 223.55 122.02 223.939 121.394C224.327 120.767 224.435 120.967 224.454 121.578C224.473 122.189 224.73 122.231 225.121 121.706C225.512 121.181 225.614 121.178 225.637 121.891C225.659 122.604 225.915 122.645 226.254 122.071C226.593 121.498 226.751 121.645 226.819 122.203C226.888 122.761 227.045 122.908 227.437 122.384C227.828 121.859 227.982 121.904 228.002 122.515C228.021 123.126 228.363 122.655 228.57 122.749C228.777 122.843 228.915 122.379 229.382 121.035C229.712 120.156 229.666 120.311 229.537 121.081C229.006 123.65 229.213 123.744 230.102 121.212C230.382 120.386 230.336 120.541 230.207 121.31C229.94 122.544 229.903 123.005 229.959 123.155C230.015 123.306 230.947 120.518 230.913 121.08C230.791 122.053 230.527 123.389 230.629 123.385C230.731 123.381 230.951 123.883 231.24 123.362C231.53 122.841 231.829 122.626 231.808 123.596C231.913 123.694 232.513 121.682 232.618 121.78C232.723 121.878 232.222 123.784 232.373 123.727C232.524 123.671 232.698 124.327 233.037 123.753C233.376 123.18 233.533 123.327 233.552 123.938C233.572 124.549 233.831 124.692 234.17 124.118C234.509 123.545 234.666 123.692 234.735 124.25C234.803 124.808 234.964 125.057 235.352 124.431C235.74 123.804 235.901 124.053 235.868 124.615C235.835 125.178 236.094 125.321 236.433 124.747C236.772 124.173 236.982 124.369 237.001 124.981C237.02 125.592 237.366 125.222 237.52 125.267C237.569 125.214 237.619 125.161 237.668 125.108L239.351 119.433Z" fill="#DEDEEB"/>
<path d="M208.22 129.488C208.244 129.458 208.269 129.428 208.237 129.402C208.197 129.319 208.281 129.088 208.052 129.299C207.823 129.511 207.735 129.488 207.892 129.167C208.05 128.846 207.796 129.087 207.781 128.975C207.767 128.863 207.545 129.13 206.708 130.142C207.597 128.872 207.87 128.347 207.279 129.061C206.688 129.775 206.713 129.745 207.183 128.981C207.653 128.217 207.309 128.634 206.398 129.735C206.693 129.378 206.949 128.938 207.149 128.502C207.085 128.449 207.168 128.217 206.939 128.429C206.71 128.64 206.703 128.584 206.811 128.323C206.92 128.062 206.88 127.979 206.627 128.22C206.373 128.462 206.317 128.465 206.499 128.114C206.681 127.764 206.427 128.005 206.413 127.893C206.398 127.78 206.201 128.018 205.396 129.057C206.533 127.291 206.469 127.238 205.236 128.924C206.422 127.099 206.161 127.284 205.051 128.822C205.381 128.292 205.809 127.644 205.777 127.618C205.681 127.538 205.996 126.897 205.233 127.819C205.135 127.938 205.184 127.879 205.251 127.733C205.689 126.943 205.583 127.006 204.711 128.19C204.95 127.836 205.132 127.485 205.339 127.105C205.275 127.052 205.211 126.999 205.123 126.976C204.943 127.128 204.82 127.277 204.704 127.482C204.482 127.75 204.433 127.809 204.623 127.515C205.209 126.546 205.103 126.609 204.33 127.673C204.066 128.057 204.059 128.001 204.322 127.617C204.544 127.349 204.677 127.058 204.778 126.741C204.763 126.628 203.85 127.928 203.99 127.693C204.229 127.339 204.411 126.989 204.586 126.582C204.473 126.589 204.63 126.268 204.352 126.539C204.074 126.81 204.091 126.724 204.217 126.377C204.325 126.116 203.444 127.442 203.601 127.121C203.791 126.826 203.924 126.535 204.056 126.244C204 126.248 203.936 126.195 203.872 126.142C203.84 126.115 203.791 126.175 203.601 126.469C203.362 126.823 203.453 126.648 203.52 126.502C203.901 125.715 203.69 125.841 203.306 126.175C203.256 126.234 203.059 126.472 202.944 126.677C202.705 127.031 202.705 127.031 202.887 126.68C203.589 125.507 203.525 125.454 202.85 126.399C202.702 126.578 202.661 126.694 202.769 126.432C203.389 125.291 203.308 125.325 202.419 126.594C202.634 126.27 202.816 125.92 202.966 125.543C202.934 125.516 202.456 126.224 202.35 126.287C202.245 126.349 202.781 125.44 202.798 125.354C202.816 125.268 202.001 126.449 202.232 126.038C202.481 125.542 202.638 125.222 202.582 125.225C202.525 125.228 202.493 125.202 202.454 125.119C202.414 125.036 202.242 125.245 201.508 126.392C202.574 124.517 202.51 124.464 201.366 126.174C202.333 124.418 202.301 124.391 201.181 126.071C201.412 125.661 201.619 125.281 201.819 124.844C201.73 124.821 201.981 124.127 201.282 125.102C201.208 125.191 201.159 125.251 201.257 125.132C201.779 124.11 201.508 124.437 200.75 125.614C200.989 125.261 201.164 124.854 201.314 124.477C201.25 124.424 201.326 124.136 201.105 124.404C200.883 124.672 200.868 124.559 200.945 124.272C201.021 123.984 200.957 123.931 200.735 124.199C200.514 124.467 200.45 124.414 200.575 124.066C200.701 123.719 200.637 123.666 200.391 123.964C200.145 124.261 200.13 124.149 200.206 123.861C200.282 123.573 200.243 123.491 200.046 123.729C199.849 123.967 199.785 123.914 199.861 123.626C199.938 123.338 199.765 123.547 199.726 123.464C199.687 123.381 199.522 123.646 199.15 124.291C198.894 124.73 198.911 124.644 199.118 124.264C199.724 123.011 199.692 122.984 198.965 124.188C198.734 124.598 198.751 124.512 198.958 124.132C199.123 123.867 199.28 123.546 199.349 123.202C199.335 123.09 198.574 124.466 198.658 124.234C198.84 123.884 199.015 123.477 199.133 123.073C199.076 123.077 199.128 122.819 198.931 123.057C198.734 123.295 198.603 123.387 198.771 122.924C198.771 122.924 198.21 123.863 198.202 123.807C198.195 123.751 198.643 122.818 198.586 122.822C198.53 122.825 198.549 122.541 198.352 122.779C198.155 123.017 198.123 122.99 198.224 122.673C198.325 122.355 198.261 122.302 198.04 122.57C197.818 122.838 197.811 122.782 197.887 122.494C197.963 122.206 197.916 122.067 197.702 122.391C197.488 122.715 197.466 122.547 197.542 122.259C197.619 121.971 197.579 121.888 197.333 122.186C197.087 122.484 197.072 122.371 197.173 122.054C197.274 121.736 197.07 121.918 197.013 121.921C196.988 121.951 196.964 121.981 196.964 121.981L194.635 126.62L194.61 126.65C194.65 126.733 194.598 126.991 194.82 126.723C195.041 126.455 195.098 126.452 194.972 126.799C194.847 127.146 195.068 126.879 195.108 126.961C195.147 127.044 195.312 126.78 195.957 125.609C195.285 127.008 195.068 127.53 195.538 126.766C196.009 126.003 196.009 126.003 195.634 126.846C195.26 127.689 195.541 127.22 196.26 125.96C196.028 126.37 195.861 126.833 195.694 127.296C195.758 127.349 195.731 127.577 195.927 127.339C196.124 127.101 196.156 127.127 196.08 127.415C196.004 127.703 196.068 127.756 196.289 127.488C196.511 127.22 196.568 127.217 196.417 127.594C196.267 127.971 196.513 127.673 196.528 127.786C196.543 127.898 196.74 127.66 197.385 126.489C196.464 128.384 196.496 128.411 197.545 126.622C196.575 128.576 196.772 128.338 197.754 126.695C197.523 127.105 197.323 127.541 197.149 127.948C197.245 128.027 196.961 128.695 197.653 127.664C197.752 127.545 197.702 127.604 197.661 127.72C197.286 128.563 197.385 128.444 198.136 127.211C197.929 127.591 197.747 127.942 197.629 128.345C197.693 128.398 197.749 128.395 197.813 128.448C197.961 128.269 198.084 128.12 198.2 127.915C198.389 127.621 198.439 127.562 198.281 127.882C197.784 128.874 197.865 128.841 198.574 127.724C198.837 127.34 198.813 127.37 198.581 127.78C198.392 128.074 198.259 128.365 198.158 128.683C198.173 128.795 198.965 127.446 198.882 127.678C198.675 128.058 198.493 128.408 198.375 128.812C198.456 128.779 198.33 129.126 198.576 128.829C198.823 128.531 198.837 128.643 198.68 128.964C198.572 129.225 199.421 127.873 199.263 128.194C199.074 128.488 198.941 128.779 198.84 129.097C198.897 129.093 198.961 129.146 198.993 129.173C199.025 129.199 199.074 129.14 199.263 128.845C199.502 128.492 199.411 128.667 199.345 128.812C198.995 129.626 199.207 129.5 199.551 129.084C199.601 129.024 199.766 128.76 199.913 128.581C200.152 128.227 200.127 128.257 199.97 128.578C199.325 129.748 199.332 129.805 200.007 128.859C200.155 128.68 200.196 128.565 200.088 128.826C199.468 129.967 199.549 129.934 200.406 128.638C200.191 128.962 200.009 129.312 199.859 129.689C199.891 129.716 200.369 129.008 200.467 128.889C200.566 128.77 200.036 129.735 200.019 129.821C200.002 129.907 200.785 128.701 200.585 129.137C200.42 129.402 200.312 129.663 200.236 129.951C200.268 129.977 200.324 129.974 200.332 130.03C200.339 130.086 200.544 129.904 201.277 128.757C200.179 130.605 200.243 130.658 201.42 128.975C200.42 130.705 200.452 130.731 201.605 129.078C201.341 129.462 201.134 129.842 200.935 130.278C201.024 130.302 200.741 130.97 201.447 130.05C201.521 129.961 201.57 129.902 201.472 130.021C200.918 131.016 201.189 130.689 201.979 129.538C201.74 129.892 201.533 130.272 201.383 130.649C201.447 130.702 201.339 130.963 201.592 130.722C201.846 130.481 201.829 130.567 201.72 130.828C201.612 131.089 201.651 131.172 201.905 130.93C202.159 130.689 202.191 130.716 202.033 131.036C201.875 131.357 201.939 131.41 202.193 131.169C202.447 130.927 202.429 131.013 202.321 131.275C202.213 131.536 202.252 131.619 202.481 131.407C202.71 131.195 202.742 131.222 202.641 131.539C202.54 131.857 202.713 131.649 202.777 131.702C202.841 131.754 202.981 131.52 203.417 130.928C203.705 130.515 203.687 130.601 203.449 130.954C202.69 132.132 202.754 132.184 203.601 131.03C203.897 130.673 203.847 130.733 203.609 131.087C203.387 131.355 203.254 131.646 203.121 131.937C203.104 132.023 204.049 130.75 203.909 130.984C203.67 131.338 203.488 131.689 203.306 132.039C203.362 132.036 203.279 132.267 203.483 132.086C203.687 131.904 203.842 131.781 203.586 132.221C203.586 132.221 204.276 131.388 204.251 131.418C204.227 131.448 203.658 132.33 203.715 132.327C203.771 132.324 203.695 132.612 203.948 132.37C204.202 132.129 204.209 132.185 204.076 132.476C203.943 132.767 203.983 132.85 204.236 132.609C204.49 132.367 204.497 132.423 204.389 132.685C204.281 132.946 204.271 133.088 204.549 132.817C204.827 132.546 204.817 132.688 204.709 132.949C204.601 133.211 204.64 133.293 204.894 133.052C205.147 132.811 205.162 132.923 205.054 133.184C204.945 133.446 205.101 133.323 205.189 133.347C205.278 133.37 205.214 133.317 205.27 133.314L208.22 129.488Z" fill="#DEDEEB"/>
</g>
<defs>
<clipPath id="clip0">
<rect width="255" height="253" fill="white" transform="translate(0.594727)"/>
</clipPath>
</defs>
</svg>
